%MOIN*%
%OFA0B0*%
%FSLAX46Y46*%
%IPPOS*%
%LPD*%
%ADD10R,0.16X0.060000000000000005*%
%ADD11C,0.024000000000000004*%
%ADD12C,0.01*%
%ADD23R,0.16X0.060000000000000005*%
%ADD24C,0.024000000000000004*%
%ADD25C,0.008*%
%ADD26C,0.01*%
%ADD27R,0.060000000000000005X0.16*%
%ADD28C,0.024000000000000004*%
%ADD29C,0.01*%
%ADD30R,0.16X0.060000000000000005*%
%ADD31C,0.024000000000000004*%
%ADD32C,0.01*%
%ADD33R,0.060000000000000005X0.16*%
%ADD34C,0.024000000000000004*%
%ADD35C,0.008*%
%ADD36C,0.01*%
%ADD37R,0.16X0.060000000000000005*%
%ADD38C,0.024000000000000004*%
%ADD39C,0.008*%
%ADD40C,0.01*%
%ADD41R,0.16X0.060000000000000005*%
%ADD42C,0.024000000000000004*%
%ADD43C,0.008*%
%ADD44C,0.01*%
%ADD45R,0.16X0.060000000000000005*%
%ADD46C,0.024000000000000004*%
%ADD47C,0.008*%
%ADD48C,0.01*%
%ADD49R,0.16X0.060000000000000005*%
%ADD50R,0.060000000000000005X0.16*%
%ADD51C,0.024000000000000004*%
%ADD52C,0.008*%
%ADD53C,0.01*%
%ADD54R,0.16X0.060000000000000005*%
%ADD55C,0.024000000000000004*%
%ADD56C,0.008*%
%ADD57C,0.01*%
%ADD58R,0.16X0.060000000000000005*%
%ADD59C,0.024000000000000004*%
%ADD60C,0.008*%
%ADD61C,0.01*%
%ADD62R,0.060000000000000005X0.16*%
%ADD63C,0.024000000000000004*%
%ADD64C,0.008*%
%ADD65C,0.01*%
%ADD66R,0.060000000000000005X0.16*%
%ADD67C,0.024000000000000004*%
%ADD68C,0.008*%
%ADD69C,0.01*%
%ADD70R,0.060000000000000005X0.16*%
%ADD71C,0.024000000000000004*%
%ADD72C,0.008*%
%ADD73C,0.01*%
%ADD74R,0.16X0.060000000000000005*%
%ADD75C,0.024000000000000004*%
%ADD76C,0.008*%
%ADD77C,0.01*%
%ADD78R,0.060000000000000005X0.16*%
%ADD79C,0.024000000000000004*%
%ADD80C,0.008*%
%ADD81C,0.01*%
%ADD82R,0.060000000000000005X0.16*%
%ADD83C,0.024000000000000004*%
%ADD84C,0.008*%
%ADD85C,0.01*%
%ADD86R,0.16X0.060000000000000005*%
%ADD87C,0.024000000000000004*%
%ADD88C,0.008*%
%ADD89C,0.01*%
%ADD90R,0.060000000000000005X0.16*%
%ADD91C,0.024000000000000004*%
%ADD92C,0.008*%
%ADD93C,0.01*%
%ADD94R,0.16X0.060000000000000005*%
%ADD95C,0.024000000000000004*%
%ADD96C,0.008*%
%ADD97C,0.01*%
%ADD98R,0.16X0.060000000000000005*%
%ADD99C,0.024000000000000004*%
%ADD100C,0.008*%
%ADD101C,0.01*%
%ADD102R,0.060000000000000005X0.16*%
%ADD103C,0.024000000000000004*%
%ADD104C,0.008*%
%ADD105C,0.01*%
%ADD106R,0.16X0.060000000000000005*%
%ADD107C,0.024000000000000004*%
%ADD108C,0.008*%
%ADD109C,0.01*%
%ADD110R,0.16X0.060000000000000005*%
%ADD111C,0.024000000000000004*%
%ADD112C,0.008*%
%ADD113C,0.01*%
G01*
D10*
X-0001259842Y0007440944D02*
X0003240157Y0003510944D03*
X0003240157Y0003710944D03*
X0003815157Y0003690944D03*
X0003815157Y0003890944D03*
X0003815157Y0003515944D03*
X0003815157Y0003315944D03*
D11*
X0003390157Y0003715944D03*
X0003440157Y0003715944D03*
X0003490157Y0003715944D03*
X0003540157Y0003715944D03*
X0003540157Y0003765944D03*
X0003540157Y0003815944D03*
X0003540157Y0003890944D03*
X0003590157Y0003890944D03*
X0003640157Y0003890944D03*
X0003640157Y0003315944D03*
X0003590157Y0003315944D03*
X0003540157Y0003315944D03*
X0003540157Y0003365944D03*
X0003540157Y0003415944D03*
X0003540157Y0003465944D03*
X0003540157Y0003515944D03*
X0003490157Y0003515944D03*
X0003440157Y0003515944D03*
X0003390157Y0003515944D03*
X0003240157Y0003840944D03*
X0003240157Y0003390944D03*
X0003240157Y0003315944D03*
X0003340157Y0003840944D03*
X0003440157Y0003840944D03*
X0003440157Y0003390944D03*
X0003340157Y0003390944D03*
X0003440157Y0003315944D03*
X0003340157Y0003315944D03*
D12*
G36*
X0003710157Y0003902194D02*
X0003716407Y0003895944D01*
X0003810157Y0003895944D01*
X0003810157Y0003896732D01*
X0003820157Y0003896732D01*
X0003820157Y0003895944D01*
X0003820944Y0003895944D01*
X0003820944Y0003885944D01*
X0003820157Y0003885944D01*
X0003820157Y0003842194D01*
X0003826407Y0003835944D01*
X0003885157Y0003835944D01*
X0003885157Y0003745944D01*
X0003826407Y0003745944D01*
X0003820157Y0003739694D01*
X0003820157Y0003695944D01*
X0003820944Y0003695944D01*
X0003820944Y0003685944D01*
X0003820157Y0003685944D01*
X0003820157Y0003642194D01*
X0003826407Y0003635944D01*
X0003885157Y0003635944D01*
X0003885157Y0003570944D01*
X0003826407Y0003570944D01*
X0003820157Y0003564694D01*
X0003820157Y0003520944D01*
X0003820944Y0003520944D01*
X0003820944Y0003510944D01*
X0003820157Y0003510944D01*
X0003820157Y0003467194D01*
X0003826407Y0003460944D01*
X0003885157Y0003460944D01*
X0003885157Y0003370944D01*
X0003826407Y0003370944D01*
X0003820157Y0003364694D01*
X0003820157Y0003320944D01*
X0003820944Y0003320944D01*
X0003820944Y0003310944D01*
X0003820157Y0003310944D01*
X0003820157Y0003310157D01*
X0003810157Y0003310157D01*
X0003810157Y0003310944D01*
X0003716407Y0003310944D01*
X0003710157Y0003304694D01*
X0003710157Y0003294881D01*
X0003170157Y0003294881D01*
X0003170157Y0003350917D01*
X0003710157Y0003350917D01*
X0003710157Y0003327194D01*
X0003716407Y0003320944D01*
X0003810157Y0003320944D01*
X0003810157Y0003364694D01*
X0003803907Y0003370944D01*
X0003730184Y0003370944D01*
X0003720996Y0003367138D01*
X0003713963Y0003360106D01*
X0003710157Y0003350917D01*
X0003170157Y0003350917D01*
X0003170157Y0003455944D01*
X0003228907Y0003455944D01*
X0003235157Y0003462194D01*
X0003235157Y0003505944D01*
X0003245157Y0003505944D01*
X0003245157Y0003462194D01*
X0003251407Y0003455944D01*
X0003325130Y0003455944D01*
X0003334318Y0003459750D01*
X0003341351Y0003466783D01*
X0003345157Y0003475972D01*
X0003345157Y0003499694D01*
X0003340157Y0003504694D01*
X0003710157Y0003504694D01*
X0003710157Y0003480972D01*
X0003713963Y0003471783D01*
X0003720996Y0003464750D01*
X0003730184Y0003460944D01*
X0003803907Y0003460944D01*
X0003810157Y0003467194D01*
X0003810157Y0003510944D01*
X0003716407Y0003510944D01*
X0003710157Y0003504694D01*
X0003340157Y0003504694D01*
X0003338907Y0003505944D01*
X0003245157Y0003505944D01*
X0003235157Y0003505944D01*
X0003234370Y0003505944D01*
X0003234370Y0003515944D01*
X0003235157Y0003515944D01*
X0003235157Y0003559694D01*
X0003245157Y0003559694D01*
X0003245157Y0003515944D01*
X0003338907Y0003515944D01*
X0003345157Y0003522194D01*
X0003345157Y0003545917D01*
X0003343086Y0003550917D01*
X0003710157Y0003550917D01*
X0003710157Y0003527194D01*
X0003716407Y0003520944D01*
X0003810157Y0003520944D01*
X0003810157Y0003564694D01*
X0003803907Y0003570944D01*
X0003730184Y0003570944D01*
X0003720996Y0003567138D01*
X0003713963Y0003560106D01*
X0003710157Y0003550917D01*
X0003343086Y0003550917D01*
X0003341351Y0003555106D01*
X0003334318Y0003562138D01*
X0003325130Y0003565944D01*
X0003251407Y0003565944D01*
X0003245157Y0003559694D01*
X0003235157Y0003559694D01*
X0003228907Y0003565944D01*
X0003170157Y0003565944D01*
X0003170157Y0003655944D01*
X0003228907Y0003655944D01*
X0003235157Y0003662194D01*
X0003235157Y0003705944D01*
X0003245157Y0003705944D01*
X0003245157Y0003662194D01*
X0003251407Y0003655944D01*
X0003325130Y0003655944D01*
X0003334318Y0003659750D01*
X0003341351Y0003666783D01*
X0003345157Y0003675972D01*
X0003345157Y0003679694D01*
X0003710157Y0003679694D01*
X0003710157Y0003655972D01*
X0003713963Y0003646783D01*
X0003720996Y0003639750D01*
X0003730184Y0003635944D01*
X0003803907Y0003635944D01*
X0003810157Y0003642194D01*
X0003810157Y0003685944D01*
X0003716407Y0003685944D01*
X0003710157Y0003679694D01*
X0003345157Y0003679694D01*
X0003345157Y0003699694D01*
X0003338907Y0003705944D01*
X0003245157Y0003705944D01*
X0003235157Y0003705944D01*
X0003234370Y0003705944D01*
X0003234370Y0003715944D01*
X0003235157Y0003715944D01*
X0003235157Y0003759694D01*
X0003245157Y0003759694D01*
X0003245157Y0003715944D01*
X0003338907Y0003715944D01*
X0003345157Y0003722194D01*
X0003345157Y0003725917D01*
X0003710157Y0003725917D01*
X0003710157Y0003702194D01*
X0003716407Y0003695944D01*
X0003810157Y0003695944D01*
X0003810157Y0003739694D01*
X0003803907Y0003745944D01*
X0003730184Y0003745944D01*
X0003720996Y0003742138D01*
X0003713963Y0003735106D01*
X0003710157Y0003725917D01*
X0003345157Y0003725917D01*
X0003345157Y0003745917D01*
X0003341351Y0003755106D01*
X0003334318Y0003762138D01*
X0003325130Y0003765944D01*
X0003251407Y0003765944D01*
X0003245157Y0003759694D01*
X0003235157Y0003759694D01*
X0003228907Y0003765944D01*
X0003170157Y0003765944D01*
X0003170157Y0003879694D01*
X0003710157Y0003879694D01*
X0003710157Y0003855972D01*
X0003713963Y0003846783D01*
X0003720996Y0003839750D01*
X0003730184Y0003835944D01*
X0003803907Y0003835944D01*
X0003810157Y0003842194D01*
X0003810157Y0003885944D01*
X0003716407Y0003885944D01*
X0003710157Y0003879694D01*
X0003170157Y0003879694D01*
X0003170157Y0003912007D01*
X0003710157Y0003912007D01*
X0003710157Y0003902194D01*
X0003710157Y0003902194D01*
G37*
X0003710157Y0003902194D02*
X0003716407Y0003895944D01*
X0003810157Y0003895944D01*
X0003810157Y0003896732D01*
X0003820157Y0003896732D01*
X0003820157Y0003895944D01*
X0003820944Y0003895944D01*
X0003820944Y0003885944D01*
X0003820157Y0003885944D01*
X0003820157Y0003842194D01*
X0003826407Y0003835944D01*
X0003885157Y0003835944D01*
X0003885157Y0003745944D01*
X0003826407Y0003745944D01*
X0003820157Y0003739694D01*
X0003820157Y0003695944D01*
X0003820944Y0003695944D01*
X0003820944Y0003685944D01*
X0003820157Y0003685944D01*
X0003820157Y0003642194D01*
X0003826407Y0003635944D01*
X0003885157Y0003635944D01*
X0003885157Y0003570944D01*
X0003826407Y0003570944D01*
X0003820157Y0003564694D01*
X0003820157Y0003520944D01*
X0003820944Y0003520944D01*
X0003820944Y0003510944D01*
X0003820157Y0003510944D01*
X0003820157Y0003467194D01*
X0003826407Y0003460944D01*
X0003885157Y0003460944D01*
X0003885157Y0003370944D01*
X0003826407Y0003370944D01*
X0003820157Y0003364694D01*
X0003820157Y0003320944D01*
X0003820944Y0003320944D01*
X0003820944Y0003310944D01*
X0003820157Y0003310944D01*
X0003820157Y0003310157D01*
X0003810157Y0003310157D01*
X0003810157Y0003310944D01*
X0003716407Y0003310944D01*
X0003710157Y0003304694D01*
X0003710157Y0003294881D01*
X0003170157Y0003294881D01*
X0003170157Y0003350917D01*
X0003710157Y0003350917D01*
X0003710157Y0003327194D01*
X0003716407Y0003320944D01*
X0003810157Y0003320944D01*
X0003810157Y0003364694D01*
X0003803907Y0003370944D01*
X0003730184Y0003370944D01*
X0003720996Y0003367138D01*
X0003713963Y0003360106D01*
X0003710157Y0003350917D01*
X0003170157Y0003350917D01*
X0003170157Y0003455944D01*
X0003228907Y0003455944D01*
X0003235157Y0003462194D01*
X0003235157Y0003505944D01*
X0003245157Y0003505944D01*
X0003245157Y0003462194D01*
X0003251407Y0003455944D01*
X0003325130Y0003455944D01*
X0003334318Y0003459750D01*
X0003341351Y0003466783D01*
X0003345157Y0003475972D01*
X0003345157Y0003499694D01*
X0003340157Y0003504694D01*
X0003710157Y0003504694D01*
X0003710157Y0003480972D01*
X0003713963Y0003471783D01*
X0003720996Y0003464750D01*
X0003730184Y0003460944D01*
X0003803907Y0003460944D01*
X0003810157Y0003467194D01*
X0003810157Y0003510944D01*
X0003716407Y0003510944D01*
X0003710157Y0003504694D01*
X0003340157Y0003504694D01*
X0003338907Y0003505944D01*
X0003245157Y0003505944D01*
X0003235157Y0003505944D01*
X0003234370Y0003505944D01*
X0003234370Y0003515944D01*
X0003235157Y0003515944D01*
X0003235157Y0003559694D01*
X0003245157Y0003559694D01*
X0003245157Y0003515944D01*
X0003338907Y0003515944D01*
X0003345157Y0003522194D01*
X0003345157Y0003545917D01*
X0003343086Y0003550917D01*
X0003710157Y0003550917D01*
X0003710157Y0003527194D01*
X0003716407Y0003520944D01*
X0003810157Y0003520944D01*
X0003810157Y0003564694D01*
X0003803907Y0003570944D01*
X0003730184Y0003570944D01*
X0003720996Y0003567138D01*
X0003713963Y0003560106D01*
X0003710157Y0003550917D01*
X0003343086Y0003550917D01*
X0003341351Y0003555106D01*
X0003334318Y0003562138D01*
X0003325130Y0003565944D01*
X0003251407Y0003565944D01*
X0003245157Y0003559694D01*
X0003235157Y0003559694D01*
X0003228907Y0003565944D01*
X0003170157Y0003565944D01*
X0003170157Y0003655944D01*
X0003228907Y0003655944D01*
X0003235157Y0003662194D01*
X0003235157Y0003705944D01*
X0003245157Y0003705944D01*
X0003245157Y0003662194D01*
X0003251407Y0003655944D01*
X0003325130Y0003655944D01*
X0003334318Y0003659750D01*
X0003341351Y0003666783D01*
X0003345157Y0003675972D01*
X0003345157Y0003679694D01*
X0003710157Y0003679694D01*
X0003710157Y0003655972D01*
X0003713963Y0003646783D01*
X0003720996Y0003639750D01*
X0003730184Y0003635944D01*
X0003803907Y0003635944D01*
X0003810157Y0003642194D01*
X0003810157Y0003685944D01*
X0003716407Y0003685944D01*
X0003710157Y0003679694D01*
X0003345157Y0003679694D01*
X0003345157Y0003699694D01*
X0003338907Y0003705944D01*
X0003245157Y0003705944D01*
X0003235157Y0003705944D01*
X0003234370Y0003705944D01*
X0003234370Y0003715944D01*
X0003235157Y0003715944D01*
X0003235157Y0003759694D01*
X0003245157Y0003759694D01*
X0003245157Y0003715944D01*
X0003338907Y0003715944D01*
X0003345157Y0003722194D01*
X0003345157Y0003725917D01*
X0003710157Y0003725917D01*
X0003710157Y0003702194D01*
X0003716407Y0003695944D01*
X0003810157Y0003695944D01*
X0003810157Y0003739694D01*
X0003803907Y0003745944D01*
X0003730184Y0003745944D01*
X0003720996Y0003742138D01*
X0003713963Y0003735106D01*
X0003710157Y0003725917D01*
X0003345157Y0003725917D01*
X0003345157Y0003745917D01*
X0003341351Y0003755106D01*
X0003334318Y0003762138D01*
X0003325130Y0003765944D01*
X0003251407Y0003765944D01*
X0003245157Y0003759694D01*
X0003235157Y0003759694D01*
X0003228907Y0003765944D01*
X0003170157Y0003765944D01*
X0003170157Y0003879694D01*
X0003710157Y0003879694D01*
X0003710157Y0003855972D01*
X0003713963Y0003846783D01*
X0003720996Y0003839750D01*
X0003730184Y0003835944D01*
X0003803907Y0003835944D01*
X0003810157Y0003842194D01*
X0003810157Y0003885944D01*
X0003716407Y0003885944D01*
X0003710157Y0003879694D01*
X0003170157Y0003879694D01*
X0003170157Y0003912007D01*
X0003710157Y0003912007D01*
X0003710157Y0003902194D01*
G04 next file*
G04 #@! TF.GenerationSoftware,KiCad,Pcbnew,5.0.1*
G04 #@! TF.CreationDate,2018-12-27T15:02:32+01:00*
G04 #@! TF.ProjectId,PiAttenuator,5069417474656E7561746F722E6B6963,rev?*
G04 #@! TF.SameCoordinates,Original*
G04 #@! TF.FileFunction,Copper,L2,Bot,Signal*
G04 #@! TF.FilePolarity,Positive*
G04 Gerber Fmt 4.6, Leading zero omitted, Abs format (unit mm)*
G04 Created by KiCad (PCBNEW 5.0.1) date Do 27 Dez 2018 15:02:32 CET*
G01*
G04 APERTURE LIST*
G04 #@! TA.AperFunction,SMDPad,CuDef*
G04 #@! TD*
G04 #@! TA.AperFunction,ViaPad*
G04 #@! TD*
G04 #@! TA.AperFunction,Conductor*
G04 #@! TD*
G04 #@! TA.AperFunction,Conductor*
G04 #@! TD*
G04 APERTURE END LIST*
D23*
G04 #@! TO.P,J1,2*
G04 #@! TO.N,GND*
X-0003503937Y0005866141D02*
X0000346062Y0002666141D03*
X0000346062Y0002466141D03*
G04 #@! TD*
G04 #@! TO.P,J2,2*
G04 #@! TO.N,GND*
X0000996062Y0002466141D03*
X0000996062Y0002666141D03*
G04 #@! TD*
D24*
G04 #@! TO.N,GND*
X0000476062Y0002666141D03*
X0000516062Y0002666141D03*
X0000556062Y0002666141D03*
X0000606062Y0002666141D03*
X0000346062Y0002396141D03*
X0000386062Y0002396141D03*
X0000426062Y0002396141D03*
X0000476062Y0002396141D03*
X0000476062Y0002396141D03*
X0000476062Y0002396141D03*
X0000616062Y0002396141D03*
X0000656062Y0002396141D03*
X0000706062Y0002396141D03*
X0000746062Y0002396141D03*
X0000866062Y0002396141D03*
X0000906062Y0002396141D03*
X0000956062Y0002396141D03*
X0000756062Y0002666141D03*
X0000806062Y0002666141D03*
X0000866062Y0002666141D03*
G04 #@! TD*
D25*
G04 #@! TO.N,GND*
X0000476062Y0002666141D02*
X0000516062Y0002666141D01*
X0000556062Y0002666141D02*
X0000586062Y0002666141D01*
X0000586062Y0002666141D02*
X0000606062Y0002666141D01*
X0000346062Y0002396141D02*
X0000386062Y0002396141D01*
X0000426062Y0002396141D02*
X0000476062Y0002396141D01*
X0000476062Y0002396141D02*
X0000616062Y0002396141D01*
X0000656062Y0002396141D02*
X0000706062Y0002396141D01*
X0000746062Y0002396141D02*
X0000866062Y0002396141D01*
X0000906062Y0002396141D02*
X0000956062Y0002396141D01*
X0000756062Y0002666141D02*
X0000806062Y0002666141D01*
G04 #@! TD*
D26*
G04 #@! TO.N,GND*
G36*
X0001041062Y0002721141D02*
X0001007312Y0002721141D01*
X0001001062Y0002714891D01*
X0001001062Y0002671141D01*
X0001001850Y0002671141D01*
X0001001850Y0002661141D01*
X0001001062Y0002661141D01*
X0001001062Y0002617391D01*
X0001007312Y0002611141D01*
X0001041062Y0002611141D01*
X0001041062Y0002521141D01*
X0001007312Y0002521141D01*
X0001001062Y0002514891D01*
X0001001062Y0002471141D01*
X0001001850Y0002471141D01*
X0001001850Y0002461141D01*
X0001001062Y0002461141D01*
X0001001062Y0002417391D01*
X0001007312Y0002411141D01*
X0001041062Y0002411141D01*
X0001041062Y0002384094D01*
X0000301062Y0002384094D01*
X0000301062Y0002411141D01*
X0000334812Y0002411141D01*
X0000341062Y0002417391D01*
X0000341062Y0002461141D01*
X0000351062Y0002461141D01*
X0000351062Y0002417391D01*
X0000357312Y0002411141D01*
X0000431035Y0002411141D01*
X0000440224Y0002414947D01*
X0000447256Y0002421980D01*
X0000451062Y0002431168D01*
X0000451062Y0002454891D01*
X0000891062Y0002454891D01*
X0000891062Y0002431168D01*
X0000894869Y0002421980D01*
X0000901901Y0002414947D01*
X0000911090Y0002411141D01*
X0000984812Y0002411141D01*
X0000991062Y0002417391D01*
X0000991062Y0002461141D01*
X0000897312Y0002461141D01*
X0000891062Y0002454891D01*
X0000451062Y0002454891D01*
X0000444812Y0002461141D01*
X0000351062Y0002461141D01*
X0000341062Y0002461141D01*
X0000340275Y0002461141D01*
X0000340275Y0002471141D01*
X0000341062Y0002471141D01*
X0000341062Y0002514891D01*
X0000351062Y0002514891D01*
X0000351062Y0002471141D01*
X0000444812Y0002471141D01*
X0000451062Y0002477391D01*
X0000451062Y0002501114D01*
X0000891062Y0002501114D01*
X0000891062Y0002477391D01*
X0000897312Y0002471141D01*
X0000991062Y0002471141D01*
X0000991062Y0002514891D01*
X0000984812Y0002521141D01*
X0000911090Y0002521141D01*
X0000901901Y0002517335D01*
X0000894869Y0002510303D01*
X0000891062Y0002501114D01*
X0000451062Y0002501114D01*
X0000447256Y0002510303D01*
X0000440224Y0002517335D01*
X0000431035Y0002521141D01*
X0000357312Y0002521141D01*
X0000351062Y0002514891D01*
X0000341062Y0002514891D01*
X0000334812Y0002521141D01*
X0000301062Y0002521141D01*
X0000301062Y0002611141D01*
X0000334812Y0002611141D01*
X0000341062Y0002617391D01*
X0000341062Y0002661141D01*
X0000351062Y0002661141D01*
X0000351062Y0002617391D01*
X0000357312Y0002611141D01*
X0000431035Y0002611141D01*
X0000440224Y0002614947D01*
X0000447256Y0002621980D01*
X0000451062Y0002631168D01*
X0000451062Y0002654891D01*
X0000891062Y0002654891D01*
X0000891062Y0002631168D01*
X0000894869Y0002621980D01*
X0000901901Y0002614947D01*
X0000911090Y0002611141D01*
X0000984812Y0002611141D01*
X0000991062Y0002617391D01*
X0000991062Y0002661141D01*
X0000897312Y0002661141D01*
X0000891062Y0002654891D01*
X0000451062Y0002654891D01*
X0000444812Y0002661141D01*
X0000351062Y0002661141D01*
X0000341062Y0002661141D01*
X0000340275Y0002661141D01*
X0000340275Y0002671141D01*
X0000341062Y0002671141D01*
X0000341062Y0002714891D01*
X0000351062Y0002714891D01*
X0000351062Y0002671141D01*
X0000444812Y0002671141D01*
X0000451062Y0002677391D01*
X0000451062Y0002701114D01*
X0000891062Y0002701114D01*
X0000891062Y0002677391D01*
X0000897312Y0002671141D01*
X0000991062Y0002671141D01*
X0000991062Y0002714891D01*
X0000984812Y0002721141D01*
X0000911090Y0002721141D01*
X0000901901Y0002717335D01*
X0000894869Y0002710303D01*
X0000891062Y0002701114D01*
X0000451062Y0002701114D01*
X0000447256Y0002710303D01*
X0000440224Y0002717335D01*
X0000431035Y0002721141D01*
X0000357312Y0002721141D01*
X0000351062Y0002714891D01*
X0000341062Y0002714891D01*
X0000334812Y0002721141D01*
X0000301062Y0002721141D01*
X0000301062Y0002748188D01*
X0001041062Y0002748188D01*
X0001041062Y0002721141D01*
X0001041062Y0002721141D01*
G37*
X0001041062Y0002721141D02*
X0001007312Y0002721141D01*
X0001001062Y0002714891D01*
X0001001062Y0002671141D01*
X0001001850Y0002671141D01*
X0001001850Y0002661141D01*
X0001001062Y0002661141D01*
X0001001062Y0002617391D01*
X0001007312Y0002611141D01*
X0001041062Y0002611141D01*
X0001041062Y0002521141D01*
X0001007312Y0002521141D01*
X0001001062Y0002514891D01*
X0001001062Y0002471141D01*
X0001001850Y0002471141D01*
X0001001850Y0002461141D01*
X0001001062Y0002461141D01*
X0001001062Y0002417391D01*
X0001007312Y0002411141D01*
X0001041062Y0002411141D01*
X0001041062Y0002384094D01*
X0000301062Y0002384094D01*
X0000301062Y0002411141D01*
X0000334812Y0002411141D01*
X0000341062Y0002417391D01*
X0000341062Y0002461141D01*
X0000351062Y0002461141D01*
X0000351062Y0002417391D01*
X0000357312Y0002411141D01*
X0000431035Y0002411141D01*
X0000440224Y0002414947D01*
X0000447256Y0002421980D01*
X0000451062Y0002431168D01*
X0000451062Y0002454891D01*
X0000891062Y0002454891D01*
X0000891062Y0002431168D01*
X0000894869Y0002421980D01*
X0000901901Y0002414947D01*
X0000911090Y0002411141D01*
X0000984812Y0002411141D01*
X0000991062Y0002417391D01*
X0000991062Y0002461141D01*
X0000897312Y0002461141D01*
X0000891062Y0002454891D01*
X0000451062Y0002454891D01*
X0000444812Y0002461141D01*
X0000351062Y0002461141D01*
X0000341062Y0002461141D01*
X0000340275Y0002461141D01*
X0000340275Y0002471141D01*
X0000341062Y0002471141D01*
X0000341062Y0002514891D01*
X0000351062Y0002514891D01*
X0000351062Y0002471141D01*
X0000444812Y0002471141D01*
X0000451062Y0002477391D01*
X0000451062Y0002501114D01*
X0000891062Y0002501114D01*
X0000891062Y0002477391D01*
X0000897312Y0002471141D01*
X0000991062Y0002471141D01*
X0000991062Y0002514891D01*
X0000984812Y0002521141D01*
X0000911090Y0002521141D01*
X0000901901Y0002517335D01*
X0000894869Y0002510303D01*
X0000891062Y0002501114D01*
X0000451062Y0002501114D01*
X0000447256Y0002510303D01*
X0000440224Y0002517335D01*
X0000431035Y0002521141D01*
X0000357312Y0002521141D01*
X0000351062Y0002514891D01*
X0000341062Y0002514891D01*
X0000334812Y0002521141D01*
X0000301062Y0002521141D01*
X0000301062Y0002611141D01*
X0000334812Y0002611141D01*
X0000341062Y0002617391D01*
X0000341062Y0002661141D01*
X0000351062Y0002661141D01*
X0000351062Y0002617391D01*
X0000357312Y0002611141D01*
X0000431035Y0002611141D01*
X0000440224Y0002614947D01*
X0000447256Y0002621980D01*
X0000451062Y0002631168D01*
X0000451062Y0002654891D01*
X0000891062Y0002654891D01*
X0000891062Y0002631168D01*
X0000894869Y0002621980D01*
X0000901901Y0002614947D01*
X0000911090Y0002611141D01*
X0000984812Y0002611141D01*
X0000991062Y0002617391D01*
X0000991062Y0002661141D01*
X0000897312Y0002661141D01*
X0000891062Y0002654891D01*
X0000451062Y0002654891D01*
X0000444812Y0002661141D01*
X0000351062Y0002661141D01*
X0000341062Y0002661141D01*
X0000340275Y0002661141D01*
X0000340275Y0002671141D01*
X0000341062Y0002671141D01*
X0000341062Y0002714891D01*
X0000351062Y0002714891D01*
X0000351062Y0002671141D01*
X0000444812Y0002671141D01*
X0000451062Y0002677391D01*
X0000451062Y0002701114D01*
X0000891062Y0002701114D01*
X0000891062Y0002677391D01*
X0000897312Y0002671141D01*
X0000991062Y0002671141D01*
X0000991062Y0002714891D01*
X0000984812Y0002721141D01*
X0000911090Y0002721141D01*
X0000901901Y0002717335D01*
X0000894869Y0002710303D01*
X0000891062Y0002701114D01*
X0000451062Y0002701114D01*
X0000447256Y0002710303D01*
X0000440224Y0002717335D01*
X0000431035Y0002721141D01*
X0000357312Y0002721141D01*
X0000351062Y0002714891D01*
X0000341062Y0002714891D01*
X0000334812Y0002721141D01*
X0000301062Y0002721141D01*
X0000301062Y0002748188D01*
X0001041062Y0002748188D01*
X0001041062Y0002721141D01*
G04 #@! TD*
G04 next file*
G04 #@! TF.GenerationSoftware,KiCad,Pcbnew,5.0.1*
G04 #@! TF.CreationDate,2018-12-27T15:17:57+01:00*
G04 #@! TF.ProjectId,BiasT,42696173542E6B696361645F70636200,rev?*
G04 #@! TF.SameCoordinates,Original*
G04 #@! TF.FileFunction,Copper,L2,Bot,Signal*
G04 #@! TF.FilePolarity,Positive*
G04 Gerber Fmt 4.6, Leading zero omitted, Abs format (unit mm)*
G04 Created by KiCad (PCBNEW 5.0.1) date Do 27 Dez 2018 15:17:57 CET*
G01*
G04 APERTURE LIST*
G04 #@! TA.AperFunction,SMDPad,CuDef*
G04 #@! TD*
G04 #@! TA.AperFunction,ViaPad*
G04 #@! TD*
G04 #@! TA.AperFunction,Conductor*
G04 #@! TD*
G04 APERTURE END LIST*
D27*
G04 #@! TO.P,J1,2*
G04 #@! TO.N,GND*
X-0001535433Y-0003346456D02*
X0001794566Y0001893543D03*
X0001994566Y0001893543D03*
G04 #@! TD*
G04 #@! TO.P,J2,2*
G04 #@! TO.N,GND*
X0001994566Y0002813070D03*
X0001794566Y0002813070D03*
G04 #@! TD*
D28*
G04 #@! TO.N,GND*
X0001784566Y0002673543D03*
X0001784566Y0002613543D03*
X0001784566Y0002553543D03*
X0001784566Y0002493543D03*
X0001784566Y0002433543D03*
X0001784566Y0002373543D03*
X0001784566Y0002013543D03*
X0001784566Y0002073543D03*
X0001784566Y0002133543D03*
X0001784566Y0002193543D03*
X0001984566Y0002673543D03*
X0001984566Y0002593543D03*
X0001984566Y0002513543D03*
X0001984566Y0002433543D03*
X0001984566Y0002353543D03*
X0001984566Y0002273543D03*
X0001984566Y0002193543D03*
X0001984566Y0002113543D03*
X0001984566Y0002033543D03*
X0001584566Y0002353543D03*
X0001584566Y0002413543D03*
X0001424566Y0002333543D03*
X0001504566Y0002333543D03*
X0001424566Y0001993543D03*
X0001504566Y0001993543D03*
X0001344566Y0001993543D03*
X0001344566Y0002093543D03*
X0001424566Y0002653543D03*
X0001424566Y0002733543D03*
X0001424566Y0002813543D03*
X0001344566Y0002813543D03*
X0001264566Y0002813543D03*
G04 #@! TD*
D29*
G04 #@! TO.N,GND*
G36*
X0001739566Y0002871853D02*
X0001739566Y0002824320D01*
X0001745816Y0002818070D01*
X0001789566Y0002818070D01*
X0001789566Y0002818858D01*
X0001799566Y0002818858D01*
X0001799566Y0002818070D01*
X0001843316Y0002818070D01*
X0001849566Y0002824320D01*
X0001849566Y0002873117D01*
X0001939566Y0002874151D01*
X0001939566Y0002824320D01*
X0001945816Y0002818070D01*
X0001989566Y0002818070D01*
X0001989566Y0002818858D01*
X0001999566Y0002818858D01*
X0001999566Y0002818070D01*
X0002000354Y0002818070D01*
X0002000354Y0002808070D01*
X0001999566Y0002808070D01*
X0001999566Y0002714320D01*
X0002005816Y0002708070D01*
X0002029539Y0002708070D01*
X0002036614Y0002711001D01*
X0002036614Y0001995612D01*
X0002029539Y0001998543D01*
X0002005816Y0001998543D01*
X0001999566Y0001992293D01*
X0001999566Y0001898543D01*
X0002000354Y0001898543D01*
X0002000354Y0001888543D01*
X0001999566Y0001888543D01*
X0001999566Y0001887755D01*
X0001989566Y0001887755D01*
X0001989566Y0001888543D01*
X0001945816Y0001888543D01*
X0001945816Y0001898543D01*
X0001989566Y0001898543D01*
X0001989566Y0001992293D01*
X0001983316Y0001998543D01*
X0001959594Y0001998543D01*
X0001959594Y0002708070D01*
X0001983316Y0002708070D01*
X0001989566Y0002714320D01*
X0001989566Y0002808070D01*
X0001945816Y0002808070D01*
X0001939566Y0002801820D01*
X0001939566Y0002728098D01*
X0001943372Y0002718909D01*
X0001950405Y0002711876D01*
X0001959594Y0002708070D01*
X0001959594Y0001998543D01*
X0001950405Y0001994737D01*
X0001943372Y0001987704D01*
X0001939566Y0001978516D01*
X0001939566Y0001904793D01*
X0001945816Y0001898543D01*
X0001945816Y0001888543D01*
X0001939566Y0001882293D01*
X0001939566Y0001841496D01*
X0001849566Y0001841496D01*
X0001849566Y0001882293D01*
X0001843316Y0001888543D01*
X0001799566Y0001888543D01*
X0001799566Y0001898543D01*
X0001843316Y0001898543D01*
X0001849566Y0001904793D01*
X0001849566Y0001978516D01*
X0001845760Y0001987704D01*
X0001838728Y0001994737D01*
X0001829539Y0001998543D01*
X0001805816Y0001998543D01*
X0001805816Y0002708070D01*
X0001829539Y0002708070D01*
X0001838728Y0002711876D01*
X0001845760Y0002718909D01*
X0001849566Y0002728098D01*
X0001849566Y0002801820D01*
X0001843316Y0002808070D01*
X0001799566Y0002808070D01*
X0001799566Y0002714320D01*
X0001805816Y0002708070D01*
X0001805816Y0001998543D01*
X0001799566Y0001992293D01*
X0001799566Y0001898543D01*
X0001799566Y0001888543D01*
X0001799566Y0001887755D01*
X0001789566Y0001887755D01*
X0001789566Y0001888543D01*
X0001745816Y0001888543D01*
X0001745816Y0001898543D01*
X0001789566Y0001898543D01*
X0001789566Y0001992293D01*
X0001783316Y0001998543D01*
X0001759594Y0001998543D01*
X0001759594Y0002708070D01*
X0001783316Y0002708070D01*
X0001789566Y0002714320D01*
X0001789566Y0002808070D01*
X0001745816Y0002808070D01*
X0001739566Y0002801820D01*
X0001739566Y0002728098D01*
X0001743372Y0002718909D01*
X0001750405Y0002711876D01*
X0001759594Y0002708070D01*
X0001759594Y0001998543D01*
X0001750405Y0001994737D01*
X0001743372Y0001987704D01*
X0001739566Y0001978516D01*
X0001739566Y0001904793D01*
X0001745816Y0001898543D01*
X0001745816Y0001888543D01*
X0001739566Y0001882293D01*
X0001739566Y0001841496D01*
X0001222519Y0001841496D01*
X0001222519Y0002865910D01*
X0001739566Y0002871853D01*
X0001739566Y0002871853D01*
G37*
X0001739566Y0002871853D02*
X0001739566Y0002824320D01*
X0001745816Y0002818070D01*
X0001789566Y0002818070D01*
X0001789566Y0002818858D01*
X0001799566Y0002818858D01*
X0001799566Y0002818070D01*
X0001843316Y0002818070D01*
X0001849566Y0002824320D01*
X0001849566Y0002873117D01*
X0001939566Y0002874151D01*
X0001939566Y0002824320D01*
X0001945816Y0002818070D01*
X0001989566Y0002818070D01*
X0001989566Y0002818858D01*
X0001999566Y0002818858D01*
X0001999566Y0002818070D01*
X0002000354Y0002818070D01*
X0002000354Y0002808070D01*
X0001999566Y0002808070D01*
X0001999566Y0002714320D01*
X0002005816Y0002708070D01*
X0002029539Y0002708070D01*
X0002036614Y0002711001D01*
X0002036614Y0001995612D01*
X0002029539Y0001998543D01*
X0002005816Y0001998543D01*
X0001999566Y0001992293D01*
X0001999566Y0001898543D01*
X0002000354Y0001898543D01*
X0002000354Y0001888543D01*
X0001999566Y0001888543D01*
X0001999566Y0001887755D01*
X0001989566Y0001887755D01*
X0001989566Y0001888543D01*
X0001945816Y0001888543D01*
X0001945816Y0001898543D01*
X0001989566Y0001898543D01*
X0001989566Y0001992293D01*
X0001983316Y0001998543D01*
X0001959594Y0001998543D01*
X0001959594Y0002708070D01*
X0001983316Y0002708070D01*
X0001989566Y0002714320D01*
X0001989566Y0002808070D01*
X0001945816Y0002808070D01*
X0001939566Y0002801820D01*
X0001939566Y0002728098D01*
X0001943372Y0002718909D01*
X0001950405Y0002711876D01*
X0001959594Y0002708070D01*
X0001959594Y0001998543D01*
X0001950405Y0001994737D01*
X0001943372Y0001987704D01*
X0001939566Y0001978516D01*
X0001939566Y0001904793D01*
X0001945816Y0001898543D01*
X0001945816Y0001888543D01*
X0001939566Y0001882293D01*
X0001939566Y0001841496D01*
X0001849566Y0001841496D01*
X0001849566Y0001882293D01*
X0001843316Y0001888543D01*
X0001799566Y0001888543D01*
X0001799566Y0001898543D01*
X0001843316Y0001898543D01*
X0001849566Y0001904793D01*
X0001849566Y0001978516D01*
X0001845760Y0001987704D01*
X0001838728Y0001994737D01*
X0001829539Y0001998543D01*
X0001805816Y0001998543D01*
X0001805816Y0002708070D01*
X0001829539Y0002708070D01*
X0001838728Y0002711876D01*
X0001845760Y0002718909D01*
X0001849566Y0002728098D01*
X0001849566Y0002801820D01*
X0001843316Y0002808070D01*
X0001799566Y0002808070D01*
X0001799566Y0002714320D01*
X0001805816Y0002708070D01*
X0001805816Y0001998543D01*
X0001799566Y0001992293D01*
X0001799566Y0001898543D01*
X0001799566Y0001888543D01*
X0001799566Y0001887755D01*
X0001789566Y0001887755D01*
X0001789566Y0001888543D01*
X0001745816Y0001888543D01*
X0001745816Y0001898543D01*
X0001789566Y0001898543D01*
X0001789566Y0001992293D01*
X0001783316Y0001998543D01*
X0001759594Y0001998543D01*
X0001759594Y0002708070D01*
X0001783316Y0002708070D01*
X0001789566Y0002714320D01*
X0001789566Y0002808070D01*
X0001745816Y0002808070D01*
X0001739566Y0002801820D01*
X0001739566Y0002728098D01*
X0001743372Y0002718909D01*
X0001750405Y0002711876D01*
X0001759594Y0002708070D01*
X0001759594Y0001998543D01*
X0001750405Y0001994737D01*
X0001743372Y0001987704D01*
X0001739566Y0001978516D01*
X0001739566Y0001904793D01*
X0001745816Y0001898543D01*
X0001745816Y0001888543D01*
X0001739566Y0001882293D01*
X0001739566Y0001841496D01*
X0001222519Y0001841496D01*
X0001222519Y0002865910D01*
X0001739566Y0002871853D01*
G04 #@! TD*
G04 next file*
G04 #@! TF.GenerationSoftware,KiCad,Pcbnew,5.0.1*
G04 #@! TF.CreationDate,2018-12-27T15:20:24+01:00*
G04 #@! TF.ProjectId,DiscreteWilkinsonSplitter,446973637265746557696C6B696E736F,rev?*
G04 #@! TF.SameCoordinates,Original*
G04 #@! TF.FileFunction,Copper,L2,Bot,Signal*
G04 #@! TF.FilePolarity,Positive*
G04 Gerber Fmt 4.6, Leading zero omitted, Abs format (unit mm)*
G04 Created by KiCad (PCBNEW 5.0.1) date Do 27 Dez 2018 15:20:24 CET*
G01*
G04 APERTURE LIST*
G04 #@! TA.AperFunction,SMDPad,CuDef*
G04 #@! TD*
G04 #@! TA.AperFunction,ViaPad*
G04 #@! TD*
G04 #@! TA.AperFunction,Conductor*
G04 #@! TD*
G04 APERTURE END LIST*
D30*
G04 #@! TO.P,J1,2*
G04 #@! TO.N,GND*
X-0004724999Y0005242322D02*
X0000100000Y0001717322D03*
X0000100000Y0001917322D03*
G04 #@! TD*
G04 #@! TO.P,J2,2*
G04 #@! TO.N,GND*
X0001000000Y0001967322D03*
X0001000000Y0002167322D03*
G04 #@! TD*
G04 #@! TO.P,J3,2*
G04 #@! TO.N,GND*
X0001005000Y0001692322D03*
X0001005000Y0001492322D03*
G04 #@! TD*
D31*
G04 #@! TO.N,GND*
X0000275000Y0001942322D03*
X0000525000Y0001817322D03*
X0000425000Y0002067322D03*
X0000475000Y0002067322D03*
X0000525000Y0002067322D03*
X0000575000Y0002067322D03*
X0000625000Y0002067322D03*
X0000575000Y0001817322D03*
X0000575000Y0001867322D03*
X0000525000Y0001867322D03*
X0000475000Y0001842322D03*
X0000525000Y0001767322D03*
X0000575000Y0001767322D03*
X0000700000Y0001517322D03*
X0000650000Y0001517322D03*
X0000600000Y0001517322D03*
X0000550000Y0001517322D03*
X0000500000Y0001567322D03*
X0000450000Y0001567322D03*
X0000400000Y0001567322D03*
X0000350000Y0001592322D03*
X0000300000Y0001617322D03*
X0000250000Y0001617322D03*
X0000200000Y0001617322D03*
X0000150000Y0001617322D03*
X0000100000Y0001992322D03*
X0000150000Y0001992322D03*
X0000200000Y0001992322D03*
X0000250000Y0001992322D03*
X0000300000Y0001992322D03*
X0000350000Y0002042322D03*
X0000700000Y0002067322D03*
X0000750000Y0002117322D03*
X0000800000Y0002167322D03*
X0000850000Y0002167322D03*
X0000775000Y0001517322D03*
X0000825000Y0001492322D03*
X0000875000Y0001492322D03*
X0000925000Y0001867322D03*
X0000925000Y0001792322D03*
X0001025000Y0001792322D03*
X0001025000Y0001867322D03*
G04 #@! TD*
D32*
G04 #@! TO.N,GND*
G36*
X0000898806Y0002211484D02*
X0000895000Y0002202295D01*
X0000895000Y0002178572D01*
X0000901250Y0002172322D01*
X0000995000Y0002172322D01*
X0000995000Y0002173110D01*
X0001005000Y0002173110D01*
X0001005000Y0002172322D01*
X0001005787Y0002172322D01*
X0001005787Y0002162322D01*
X0001005000Y0002162322D01*
X0001005000Y0002118572D01*
X0001011250Y0002112322D01*
X0001070000Y0002112322D01*
X0001070000Y0002022322D01*
X0001011250Y0002022322D01*
X0001005000Y0002016072D01*
X0001005000Y0001972322D01*
X0001005787Y0001972322D01*
X0001005787Y0001962322D01*
X0001005000Y0001962322D01*
X0001005000Y0001918572D01*
X0001011250Y0001912322D01*
X0001070000Y0001912322D01*
X0001070000Y0001747322D01*
X0001016250Y0001747322D01*
X0001010000Y0001741072D01*
X0001010000Y0001697322D01*
X0001010787Y0001697322D01*
X0001010787Y0001687322D01*
X0001010000Y0001687322D01*
X0001010000Y0001643572D01*
X0001016250Y0001637322D01*
X0001070000Y0001637322D01*
X0001070000Y0001547322D01*
X0001016250Y0001547322D01*
X0001010000Y0001541072D01*
X0001010000Y0001497322D01*
X0001010787Y0001497322D01*
X0001010787Y0001487322D01*
X0001010000Y0001487322D01*
X0001010000Y0001486535D01*
X0001000000Y0001486535D01*
X0001000000Y0001487322D01*
X0000906250Y0001487322D01*
X0000900000Y0001481072D01*
X0000900000Y0001457349D01*
X0000903806Y0001448161D01*
X0000906691Y0001445275D01*
X0000030000Y0001445275D01*
X0000030000Y0001527295D01*
X0000900000Y0001527295D01*
X0000900000Y0001503572D01*
X0000906250Y0001497322D01*
X0001000000Y0001497322D01*
X0001000000Y0001541072D01*
X0000993750Y0001547322D01*
X0000920027Y0001547322D01*
X0000910838Y0001543516D01*
X0000903806Y0001536484D01*
X0000900000Y0001527295D01*
X0000030000Y0001527295D01*
X0000030000Y0001662322D01*
X0000088750Y0001662322D01*
X0000095000Y0001668572D01*
X0000095000Y0001712322D01*
X0000105000Y0001712322D01*
X0000105000Y0001668572D01*
X0000111250Y0001662322D01*
X0000184972Y0001662322D01*
X0000194161Y0001666128D01*
X0000201193Y0001673161D01*
X0000204470Y0001681072D01*
X0000900000Y0001681072D01*
X0000900000Y0001657349D01*
X0000903806Y0001648161D01*
X0000910838Y0001641128D01*
X0000920027Y0001637322D01*
X0000993750Y0001637322D01*
X0001000000Y0001643572D01*
X0001000000Y0001687322D01*
X0000906250Y0001687322D01*
X0000900000Y0001681072D01*
X0000204470Y0001681072D01*
X0000205000Y0001682349D01*
X0000205000Y0001706072D01*
X0000198750Y0001712322D01*
X0000105000Y0001712322D01*
X0000095000Y0001712322D01*
X0000094212Y0001712322D01*
X0000094212Y0001722322D01*
X0000095000Y0001722322D01*
X0000095000Y0001766072D01*
X0000105000Y0001766072D01*
X0000105000Y0001722322D01*
X0000198750Y0001722322D01*
X0000203722Y0001727295D01*
X0000900000Y0001727295D01*
X0000900000Y0001703572D01*
X0000906250Y0001697322D01*
X0001000000Y0001697322D01*
X0001000000Y0001741072D01*
X0000993750Y0001747322D01*
X0000920027Y0001747322D01*
X0000910838Y0001743516D01*
X0000903806Y0001736484D01*
X0000900000Y0001727295D01*
X0000203722Y0001727295D01*
X0000205000Y0001728572D01*
X0000205000Y0001752295D01*
X0000201193Y0001761484D01*
X0000194161Y0001768516D01*
X0000184972Y0001772322D01*
X0000111250Y0001772322D01*
X0000105000Y0001766072D01*
X0000095000Y0001766072D01*
X0000088750Y0001772322D01*
X0000030000Y0001772322D01*
X0000030000Y0001862322D01*
X0000088750Y0001862322D01*
X0000095000Y0001868572D01*
X0000095000Y0001912322D01*
X0000105000Y0001912322D01*
X0000105000Y0001868572D01*
X0000111250Y0001862322D01*
X0000184972Y0001862322D01*
X0000194161Y0001866128D01*
X0000201193Y0001873161D01*
X0000205000Y0001882349D01*
X0000205000Y0001906072D01*
X0000198750Y0001912322D01*
X0000105000Y0001912322D01*
X0000095000Y0001912322D01*
X0000094212Y0001912322D01*
X0000094212Y0001922322D01*
X0000095000Y0001922322D01*
X0000095000Y0001966072D01*
X0000105000Y0001966072D01*
X0000105000Y0001922322D01*
X0000198750Y0001922322D01*
X0000205000Y0001928572D01*
X0000205000Y0001952295D01*
X0000203435Y0001956072D01*
X0000895000Y0001956072D01*
X0000895000Y0001932349D01*
X0000898806Y0001923161D01*
X0000905838Y0001916128D01*
X0000915027Y0001912322D01*
X0000988750Y0001912322D01*
X0000995000Y0001918572D01*
X0000995000Y0001962322D01*
X0000901250Y0001962322D01*
X0000895000Y0001956072D01*
X0000203435Y0001956072D01*
X0000201193Y0001961484D01*
X0000194161Y0001968516D01*
X0000184972Y0001972322D01*
X0000111250Y0001972322D01*
X0000105000Y0001966072D01*
X0000095000Y0001966072D01*
X0000088750Y0001972322D01*
X0000030000Y0001972322D01*
X0000030000Y0002002295D01*
X0000895000Y0002002295D01*
X0000895000Y0001978572D01*
X0000901250Y0001972322D01*
X0000995000Y0001972322D01*
X0000995000Y0002016072D01*
X0000988750Y0002022322D01*
X0000915027Y0002022322D01*
X0000905838Y0002018516D01*
X0000898806Y0002011484D01*
X0000895000Y0002002295D01*
X0000030000Y0002002295D01*
X0000030000Y0002156072D01*
X0000895000Y0002156072D01*
X0000895000Y0002132349D01*
X0000898806Y0002123161D01*
X0000905838Y0002116128D01*
X0000915027Y0002112322D01*
X0000988750Y0002112322D01*
X0000995000Y0002118572D01*
X0000995000Y0002162322D01*
X0000901250Y0002162322D01*
X0000895000Y0002156072D01*
X0000030000Y0002156072D01*
X0000030000Y0002214370D01*
X0000901691Y0002214370D01*
X0000898806Y0002211484D01*
X0000898806Y0002211484D01*
G37*
X0000898806Y0002211484D02*
X0000895000Y0002202295D01*
X0000895000Y0002178572D01*
X0000901250Y0002172322D01*
X0000995000Y0002172322D01*
X0000995000Y0002173110D01*
X0001005000Y0002173110D01*
X0001005000Y0002172322D01*
X0001005787Y0002172322D01*
X0001005787Y0002162322D01*
X0001005000Y0002162322D01*
X0001005000Y0002118572D01*
X0001011250Y0002112322D01*
X0001070000Y0002112322D01*
X0001070000Y0002022322D01*
X0001011250Y0002022322D01*
X0001005000Y0002016072D01*
X0001005000Y0001972322D01*
X0001005787Y0001972322D01*
X0001005787Y0001962322D01*
X0001005000Y0001962322D01*
X0001005000Y0001918572D01*
X0001011250Y0001912322D01*
X0001070000Y0001912322D01*
X0001070000Y0001747322D01*
X0001016250Y0001747322D01*
X0001010000Y0001741072D01*
X0001010000Y0001697322D01*
X0001010787Y0001697322D01*
X0001010787Y0001687322D01*
X0001010000Y0001687322D01*
X0001010000Y0001643572D01*
X0001016250Y0001637322D01*
X0001070000Y0001637322D01*
X0001070000Y0001547322D01*
X0001016250Y0001547322D01*
X0001010000Y0001541072D01*
X0001010000Y0001497322D01*
X0001010787Y0001497322D01*
X0001010787Y0001487322D01*
X0001010000Y0001487322D01*
X0001010000Y0001486535D01*
X0001000000Y0001486535D01*
X0001000000Y0001487322D01*
X0000906250Y0001487322D01*
X0000900000Y0001481072D01*
X0000900000Y0001457349D01*
X0000903806Y0001448161D01*
X0000906691Y0001445275D01*
X0000030000Y0001445275D01*
X0000030000Y0001527295D01*
X0000900000Y0001527295D01*
X0000900000Y0001503572D01*
X0000906250Y0001497322D01*
X0001000000Y0001497322D01*
X0001000000Y0001541072D01*
X0000993750Y0001547322D01*
X0000920027Y0001547322D01*
X0000910838Y0001543516D01*
X0000903806Y0001536484D01*
X0000900000Y0001527295D01*
X0000030000Y0001527295D01*
X0000030000Y0001662322D01*
X0000088750Y0001662322D01*
X0000095000Y0001668572D01*
X0000095000Y0001712322D01*
X0000105000Y0001712322D01*
X0000105000Y0001668572D01*
X0000111250Y0001662322D01*
X0000184972Y0001662322D01*
X0000194161Y0001666128D01*
X0000201193Y0001673161D01*
X0000204470Y0001681072D01*
X0000900000Y0001681072D01*
X0000900000Y0001657349D01*
X0000903806Y0001648161D01*
X0000910838Y0001641128D01*
X0000920027Y0001637322D01*
X0000993750Y0001637322D01*
X0001000000Y0001643572D01*
X0001000000Y0001687322D01*
X0000906250Y0001687322D01*
X0000900000Y0001681072D01*
X0000204470Y0001681072D01*
X0000205000Y0001682349D01*
X0000205000Y0001706072D01*
X0000198750Y0001712322D01*
X0000105000Y0001712322D01*
X0000095000Y0001712322D01*
X0000094212Y0001712322D01*
X0000094212Y0001722322D01*
X0000095000Y0001722322D01*
X0000095000Y0001766072D01*
X0000105000Y0001766072D01*
X0000105000Y0001722322D01*
X0000198750Y0001722322D01*
X0000203722Y0001727295D01*
X0000900000Y0001727295D01*
X0000900000Y0001703572D01*
X0000906250Y0001697322D01*
X0001000000Y0001697322D01*
X0001000000Y0001741072D01*
X0000993750Y0001747322D01*
X0000920027Y0001747322D01*
X0000910838Y0001743516D01*
X0000903806Y0001736484D01*
X0000900000Y0001727295D01*
X0000203722Y0001727295D01*
X0000205000Y0001728572D01*
X0000205000Y0001752295D01*
X0000201193Y0001761484D01*
X0000194161Y0001768516D01*
X0000184972Y0001772322D01*
X0000111250Y0001772322D01*
X0000105000Y0001766072D01*
X0000095000Y0001766072D01*
X0000088750Y0001772322D01*
X0000030000Y0001772322D01*
X0000030000Y0001862322D01*
X0000088750Y0001862322D01*
X0000095000Y0001868572D01*
X0000095000Y0001912322D01*
X0000105000Y0001912322D01*
X0000105000Y0001868572D01*
X0000111250Y0001862322D01*
X0000184972Y0001862322D01*
X0000194161Y0001866128D01*
X0000201193Y0001873161D01*
X0000205000Y0001882349D01*
X0000205000Y0001906072D01*
X0000198750Y0001912322D01*
X0000105000Y0001912322D01*
X0000095000Y0001912322D01*
X0000094212Y0001912322D01*
X0000094212Y0001922322D01*
X0000095000Y0001922322D01*
X0000095000Y0001966072D01*
X0000105000Y0001966072D01*
X0000105000Y0001922322D01*
X0000198750Y0001922322D01*
X0000205000Y0001928572D01*
X0000205000Y0001952295D01*
X0000203435Y0001956072D01*
X0000895000Y0001956072D01*
X0000895000Y0001932349D01*
X0000898806Y0001923161D01*
X0000905838Y0001916128D01*
X0000915027Y0001912322D01*
X0000988750Y0001912322D01*
X0000995000Y0001918572D01*
X0000995000Y0001962322D01*
X0000901250Y0001962322D01*
X0000895000Y0001956072D01*
X0000203435Y0001956072D01*
X0000201193Y0001961484D01*
X0000194161Y0001968516D01*
X0000184972Y0001972322D01*
X0000111250Y0001972322D01*
X0000105000Y0001966072D01*
X0000095000Y0001966072D01*
X0000088750Y0001972322D01*
X0000030000Y0001972322D01*
X0000030000Y0002002295D01*
X0000895000Y0002002295D01*
X0000895000Y0001978572D01*
X0000901250Y0001972322D01*
X0000995000Y0001972322D01*
X0000995000Y0002016072D01*
X0000988750Y0002022322D01*
X0000915027Y0002022322D01*
X0000905838Y0002018516D01*
X0000898806Y0002011484D01*
X0000895000Y0002002295D01*
X0000030000Y0002002295D01*
X0000030000Y0002156072D01*
X0000895000Y0002156072D01*
X0000895000Y0002132349D01*
X0000898806Y0002123161D01*
X0000905838Y0002116128D01*
X0000915027Y0002112322D01*
X0000988750Y0002112322D01*
X0000995000Y0002118572D01*
X0000995000Y0002162322D01*
X0000901250Y0002162322D01*
X0000895000Y0002156072D01*
X0000030000Y0002156072D01*
X0000030000Y0002214370D01*
X0000901691Y0002214370D01*
X0000898806Y0002211484D01*
G04 #@! TD*
G04 next file*
G04 #@! TF.GenerationSoftware,KiCad,Pcbnew,5.0.1*
G04 #@! TF.CreationDate,2018-12-27T15:22:53+01:00*
G04 #@! TF.ProjectId,SMAadapter,534D41616461707465722E6B69636164,rev?*
G04 #@! TF.SameCoordinates,PX74c1a60PY7a15e80*
G04 #@! TF.FileFunction,Copper,L2,Bot,Signal*
G04 #@! TF.FilePolarity,Positive*
G04 Gerber Fmt 4.6, Leading zero omitted, Abs format (unit mm)*
G04 Created by KiCad (PCBNEW 5.0.1) date Do 27 Dez 2018 15:22:53 CET*
G01*
G04 APERTURE LIST*
G04 #@! TA.AperFunction,SMDPad,CuDef*
G04 #@! TD*
G04 #@! TA.AperFunction,ViaPad*
G04 #@! TD*
G04 #@! TA.AperFunction,Conductor*
G04 #@! TD*
G04 #@! TA.AperFunction,Conductor*
G04 #@! TD*
G04 APERTURE END LIST*
D33*
G04 #@! TO.P,J1,2*
G04 #@! TO.N,GND*
X0003149606Y0001141732D02*
X0003219606Y0001061889D03*
X0003419606Y0001061889D03*
G04 #@! TD*
D34*
G04 #@! TO.N,GND*
X0003209606Y0000921732D03*
X0003209606Y0000841732D03*
X0003209606Y0000761732D03*
X0003209606Y0000681732D03*
X0003209606Y0000581732D03*
X0003209606Y0000501732D03*
X0003269606Y0000501732D03*
X0003329606Y0000501732D03*
X0003409606Y0000501732D03*
X0003409606Y0000561732D03*
X0003409606Y0000661732D03*
X0003409606Y0000741732D03*
X0003409606Y0000801732D03*
X0003409606Y0000881732D03*
X0003409606Y0000941732D03*
G04 #@! TD*
D35*
G04 #@! TO.N,GND*
X0003209606Y0000921732D02*
X0003209606Y0000841732D01*
X0003209606Y0000761732D02*
X0003209606Y0000681732D01*
X0003209606Y0000581732D02*
X0003209606Y0000501732D01*
X0003329606Y0000501732D02*
X0003409606Y0000501732D01*
X0003409606Y0000561732D02*
X0003409606Y0000661732D01*
X0003409606Y0000741732D02*
X0003409606Y0000801732D01*
X0003409606Y0000881732D02*
X0003409606Y0000941732D01*
G04 #@! TD*
D36*
G04 #@! TO.N,GND*
G36*
X0003177559Y0000469684D02*
X0003177559Y0000959820D01*
X0003184633Y0000956889D01*
X0003208356Y0000956889D01*
X0003214606Y0000963139D01*
X0003214606Y0001056889D01*
X0003213818Y0001056889D01*
X0003213818Y0001066889D01*
X0003214606Y0001066889D01*
X0003214606Y0001067677D01*
X0003224606Y0001067677D01*
X0003224606Y0001066889D01*
X0003268356Y0001066889D01*
X0003268356Y0001056889D01*
X0003224606Y0001056889D01*
X0003224606Y0000963139D01*
X0003230856Y0000956889D01*
X0003254579Y0000956889D01*
X0003263767Y0000960695D01*
X0003270800Y0000967728D01*
X0003274606Y0000976916D01*
X0003274606Y0001050639D01*
X0003268356Y0001056889D01*
X0003268356Y0001066889D01*
X0003274606Y0001073139D01*
X0003274606Y0001113779D01*
X0003364606Y0001113779D01*
X0003364606Y0001073139D01*
X0003370856Y0001066889D01*
X0003414606Y0001066889D01*
X0003414606Y0001056889D01*
X0003370856Y0001056889D01*
X0003364606Y0001050639D01*
X0003364606Y0000976916D01*
X0003368412Y0000967728D01*
X0003375444Y0000960695D01*
X0003384633Y0000956889D01*
X0003408356Y0000956889D01*
X0003414606Y0000963139D01*
X0003414606Y0001056889D01*
X0003414606Y0001066889D01*
X0003414606Y0001067677D01*
X0003424606Y0001067677D01*
X0003424606Y0001066889D01*
X0003425393Y0001066889D01*
X0003425393Y0001056889D01*
X0003424606Y0001056889D01*
X0003424606Y0000963139D01*
X0003430856Y0000956889D01*
X0003454579Y0000956889D01*
X0003461653Y0000959820D01*
X0003461653Y0000469685D01*
X0003177559Y0000469684D01*
X0003177559Y0000469684D01*
G37*
X0003177559Y0000469684D02*
X0003177559Y0000959820D01*
X0003184633Y0000956889D01*
X0003208356Y0000956889D01*
X0003214606Y0000963139D01*
X0003214606Y0001056889D01*
X0003213818Y0001056889D01*
X0003213818Y0001066889D01*
X0003214606Y0001066889D01*
X0003214606Y0001067677D01*
X0003224606Y0001067677D01*
X0003224606Y0001066889D01*
X0003268356Y0001066889D01*
X0003268356Y0001056889D01*
X0003224606Y0001056889D01*
X0003224606Y0000963139D01*
X0003230856Y0000956889D01*
X0003254579Y0000956889D01*
X0003263767Y0000960695D01*
X0003270800Y0000967728D01*
X0003274606Y0000976916D01*
X0003274606Y0001050639D01*
X0003268356Y0001056889D01*
X0003268356Y0001066889D01*
X0003274606Y0001073139D01*
X0003274606Y0001113779D01*
X0003364606Y0001113779D01*
X0003364606Y0001073139D01*
X0003370856Y0001066889D01*
X0003414606Y0001066889D01*
X0003414606Y0001056889D01*
X0003370856Y0001056889D01*
X0003364606Y0001050639D01*
X0003364606Y0000976916D01*
X0003368412Y0000967728D01*
X0003375444Y0000960695D01*
X0003384633Y0000956889D01*
X0003408356Y0000956889D01*
X0003414606Y0000963139D01*
X0003414606Y0001056889D01*
X0003414606Y0001066889D01*
X0003414606Y0001067677D01*
X0003424606Y0001067677D01*
X0003424606Y0001066889D01*
X0003425393Y0001066889D01*
X0003425393Y0001056889D01*
X0003424606Y0001056889D01*
X0003424606Y0000963139D01*
X0003430856Y0000956889D01*
X0003454579Y0000956889D01*
X0003461653Y0000959820D01*
X0003461653Y0000469685D01*
X0003177559Y0000469684D01*
G04 #@! TD*
G04 next file*
G04 #@! TF.GenerationSoftware,KiCad,Pcbnew,5.0.1*
G04 #@! TF.CreationDate,2018-12-27T15:25:58+01:00*
G04 #@! TF.ProjectId,Filter3Ord,46696C746572334F72642E6B69636164,rev?*
G04 #@! TF.SameCoordinates,Original*
G04 #@! TF.FileFunction,Copper,L2,Bot,Signal*
G04 #@! TF.FilePolarity,Positive*
G04 Gerber Fmt 4.6, Leading zero omitted, Abs format (unit mm)*
G04 Created by KiCad (PCBNEW 5.0.1) date Do 27 Dez 2018 15:25:58 CET*
G01*
G04 APERTURE LIST*
G04 #@! TA.AperFunction,SMDPad,CuDef*
G04 #@! TD*
G04 #@! TA.AperFunction,ViaPad*
G04 #@! TD*
G04 #@! TA.AperFunction,Conductor*
G04 #@! TD*
G04 #@! TA.AperFunction,Conductor*
G04 #@! TD*
G04 APERTURE END LIST*
D37*
G04 #@! TO.P,J1,2*
G04 #@! TO.N,GND*
X-0002685236Y0004274999D02*
X0001989763Y0000074999D03*
X0001989763Y0000274999D03*
G04 #@! TD*
G04 #@! TO.P,J2,2*
G04 #@! TO.N,GND*
X0003294763Y0000274999D03*
X0003294763Y0000074999D03*
G04 #@! TD*
D38*
G04 #@! TO.N,GND*
X0002139763Y0000274999D03*
X0002239763Y0000274999D03*
X0002339763Y0000274999D03*
X0002439763Y0000274999D03*
X0002539763Y0000274999D03*
X0002639763Y0000274999D03*
X0002739763Y0000274999D03*
X0002839763Y0000274999D03*
X0002939763Y0000274999D03*
X0003039763Y0000274999D03*
X0003139763Y0000274999D03*
X0002114763Y0000074999D03*
X0003189763Y0000074999D03*
G04 #@! TD*
D39*
G04 #@! TO.N,GND*
X0002139763Y0000274999D02*
X0002239763Y0000274999D01*
X0002339763Y0000274999D02*
X0002439763Y0000274999D01*
X0002539763Y0000274999D02*
X0002639763Y0000274999D01*
X0002739763Y0000274999D02*
X0002839763Y0000274999D01*
X0002939763Y0000274999D02*
X0003039763Y0000274999D01*
G04 #@! TD*
D40*
G04 #@! TO.N,GND*
G36*
X0003189763Y0000286249D02*
X0003196013Y0000279999D01*
X0003289763Y0000279999D01*
X0003289763Y0000280787D01*
X0003299763Y0000280787D01*
X0003299763Y0000279999D01*
X0003300551Y0000279999D01*
X0003300551Y0000269999D01*
X0003299763Y0000269999D01*
X0003299763Y0000226249D01*
X0003306013Y0000219999D01*
X0003359763Y0000219999D01*
X0003359763Y0000129999D01*
X0003306013Y0000129999D01*
X0003299763Y0000123749D01*
X0003299763Y0000079999D01*
X0003300551Y0000079999D01*
X0003300551Y0000069999D01*
X0003299763Y0000069999D01*
X0003299763Y0000069212D01*
X0003289763Y0000069212D01*
X0003289763Y0000069999D01*
X0003196013Y0000069999D01*
X0003189763Y0000063749D01*
X0003189763Y0000040027D01*
X0003193569Y0000030838D01*
X0003196455Y0000027952D01*
X0002088071Y0000027952D01*
X0002090957Y0000030838D01*
X0002094763Y0000040027D01*
X0002094763Y0000063749D01*
X0002088513Y0000069999D01*
X0001994763Y0000069999D01*
X0001994763Y0000069212D01*
X0001984763Y0000069212D01*
X0001984763Y0000069999D01*
X0001983976Y0000069999D01*
X0001983976Y0000079999D01*
X0001984763Y0000079999D01*
X0001984763Y0000123749D01*
X0001994763Y0000123749D01*
X0001994763Y0000079999D01*
X0002088513Y0000079999D01*
X0002094763Y0000086249D01*
X0002094763Y0000109972D01*
X0003189763Y0000109972D01*
X0003189763Y0000086249D01*
X0003196013Y0000079999D01*
X0003289763Y0000079999D01*
X0003289763Y0000123749D01*
X0003283513Y0000129999D01*
X0003209790Y0000129999D01*
X0003200602Y0000126193D01*
X0003193569Y0000119161D01*
X0003189763Y0000109972D01*
X0002094763Y0000109972D01*
X0002090957Y0000119161D01*
X0002083925Y0000126193D01*
X0002074736Y0000129999D01*
X0002001013Y0000129999D01*
X0001994763Y0000123749D01*
X0001984763Y0000123749D01*
X0001978513Y0000129999D01*
X0001919763Y0000129999D01*
X0001919763Y0000219999D01*
X0001978513Y0000219999D01*
X0001984763Y0000226249D01*
X0001984763Y0000269999D01*
X0001994763Y0000269999D01*
X0001994763Y0000226249D01*
X0002001013Y0000219999D01*
X0002074736Y0000219999D01*
X0002083925Y0000223805D01*
X0002090957Y0000230838D01*
X0002094763Y0000240027D01*
X0002094763Y0000263749D01*
X0003189763Y0000263749D01*
X0003189763Y0000240027D01*
X0003193569Y0000230838D01*
X0003200602Y0000223805D01*
X0003209790Y0000219999D01*
X0003283513Y0000219999D01*
X0003289763Y0000226249D01*
X0003289763Y0000269999D01*
X0003196013Y0000269999D01*
X0003189763Y0000263749D01*
X0002094763Y0000263749D01*
X0002088513Y0000269999D01*
X0001994763Y0000269999D01*
X0001984763Y0000269999D01*
X0001983976Y0000269999D01*
X0001983976Y0000279999D01*
X0001984763Y0000279999D01*
X0001984763Y0000280787D01*
X0001994763Y0000280787D01*
X0001994763Y0000279999D01*
X0002088513Y0000279999D01*
X0002094763Y0000286249D01*
X0002094763Y0000297047D01*
X0003189763Y0000297047D01*
X0003189763Y0000286249D01*
X0003189763Y0000286249D01*
G37*
X0003189763Y0000286249D02*
X0003196013Y0000279999D01*
X0003289763Y0000279999D01*
X0003289763Y0000280787D01*
X0003299763Y0000280787D01*
X0003299763Y0000279999D01*
X0003300551Y0000279999D01*
X0003300551Y0000269999D01*
X0003299763Y0000269999D01*
X0003299763Y0000226249D01*
X0003306013Y0000219999D01*
X0003359763Y0000219999D01*
X0003359763Y0000129999D01*
X0003306013Y0000129999D01*
X0003299763Y0000123749D01*
X0003299763Y0000079999D01*
X0003300551Y0000079999D01*
X0003300551Y0000069999D01*
X0003299763Y0000069999D01*
X0003299763Y0000069212D01*
X0003289763Y0000069212D01*
X0003289763Y0000069999D01*
X0003196013Y0000069999D01*
X0003189763Y0000063749D01*
X0003189763Y0000040027D01*
X0003193569Y0000030838D01*
X0003196455Y0000027952D01*
X0002088071Y0000027952D01*
X0002090957Y0000030838D01*
X0002094763Y0000040027D01*
X0002094763Y0000063749D01*
X0002088513Y0000069999D01*
X0001994763Y0000069999D01*
X0001994763Y0000069212D01*
X0001984763Y0000069212D01*
X0001984763Y0000069999D01*
X0001983976Y0000069999D01*
X0001983976Y0000079999D01*
X0001984763Y0000079999D01*
X0001984763Y0000123749D01*
X0001994763Y0000123749D01*
X0001994763Y0000079999D01*
X0002088513Y0000079999D01*
X0002094763Y0000086249D01*
X0002094763Y0000109972D01*
X0003189763Y0000109972D01*
X0003189763Y0000086249D01*
X0003196013Y0000079999D01*
X0003289763Y0000079999D01*
X0003289763Y0000123749D01*
X0003283513Y0000129999D01*
X0003209790Y0000129999D01*
X0003200602Y0000126193D01*
X0003193569Y0000119161D01*
X0003189763Y0000109972D01*
X0002094763Y0000109972D01*
X0002090957Y0000119161D01*
X0002083925Y0000126193D01*
X0002074736Y0000129999D01*
X0002001013Y0000129999D01*
X0001994763Y0000123749D01*
X0001984763Y0000123749D01*
X0001978513Y0000129999D01*
X0001919763Y0000129999D01*
X0001919763Y0000219999D01*
X0001978513Y0000219999D01*
X0001984763Y0000226249D01*
X0001984763Y0000269999D01*
X0001994763Y0000269999D01*
X0001994763Y0000226249D01*
X0002001013Y0000219999D01*
X0002074736Y0000219999D01*
X0002083925Y0000223805D01*
X0002090957Y0000230838D01*
X0002094763Y0000240027D01*
X0002094763Y0000263749D01*
X0003189763Y0000263749D01*
X0003189763Y0000240027D01*
X0003193569Y0000230838D01*
X0003200602Y0000223805D01*
X0003209790Y0000219999D01*
X0003283513Y0000219999D01*
X0003289763Y0000226249D01*
X0003289763Y0000269999D01*
X0003196013Y0000269999D01*
X0003189763Y0000263749D01*
X0002094763Y0000263749D01*
X0002088513Y0000269999D01*
X0001994763Y0000269999D01*
X0001984763Y0000269999D01*
X0001983976Y0000269999D01*
X0001983976Y0000279999D01*
X0001984763Y0000279999D01*
X0001984763Y0000280787D01*
X0001994763Y0000280787D01*
X0001994763Y0000279999D01*
X0002088513Y0000279999D01*
X0002094763Y0000286249D01*
X0002094763Y0000297047D01*
X0003189763Y0000297047D01*
X0003189763Y0000286249D01*
G04 #@! TD*
G04 next file*
G04 #@! TF.GenerationSoftware,KiCad,Pcbnew,5.0.1*
G04 #@! TF.CreationDate,2018-12-27T15:27:31+01:00*
G04 #@! TF.ProjectId,Filter4Ord,46696C746572344F72642E6B69636164,rev?*
G04 #@! TF.SameCoordinates,Original*
G04 #@! TF.FileFunction,Copper,L2,Bot,Signal*
G04 #@! TF.FilePolarity,Positive*
G04 Gerber Fmt 4.6, Leading zero omitted, Abs format (unit mm)*
G04 Created by KiCad (PCBNEW 5.0.1) date Do 27 Dez 2018 15:27:31 CET*
G01*
G04 APERTURE LIST*
G04 #@! TA.AperFunction,SMDPad,CuDef*
G04 #@! TD*
G04 #@! TA.AperFunction,ViaPad*
G04 #@! TD*
G04 #@! TA.AperFunction,Conductor*
G04 #@! TD*
G04 #@! TA.AperFunction,Conductor*
G04 #@! TD*
G04 APERTURE END LIST*
D41*
G04 #@! TO.P,J1,2*
G04 #@! TO.N,GND*
X-0002066929Y0005236220D02*
X0000063070Y0000306220D03*
X0000063070Y0000106220D03*
G04 #@! TD*
G04 #@! TO.P,J2,2*
G04 #@! TO.N,GND*
X0001693070Y0000306220D03*
X0001693070Y0000106220D03*
G04 #@! TD*
D42*
G04 #@! TO.N,GND*
X0000458070Y0000111220D03*
X0000508070Y0000111220D03*
X0000558070Y0000111220D03*
X0000608070Y0000111220D03*
X0000658070Y0000111220D03*
X0000708070Y0000111220D03*
X0000758070Y0000111220D03*
X0000808070Y0000111220D03*
X0000858070Y0000111220D03*
X0000183070Y0000311220D03*
X0000233070Y0000311220D03*
X0000283070Y0000311220D03*
X0000333070Y0000311220D03*
X0000383070Y0000311220D03*
X0000433070Y0000311220D03*
X0000483070Y0000311220D03*
X0000533070Y0000311220D03*
X0000583070Y0000311220D03*
X0000633070Y0000311220D03*
X0000683070Y0000311220D03*
X0000733070Y0000311220D03*
X0000783070Y0000311220D03*
X0000833070Y0000311220D03*
X0000883070Y0000311220D03*
X0000933070Y0000311220D03*
X0000983070Y0000311220D03*
X0001033070Y0000311220D03*
X0001083070Y0000311220D03*
X0001133070Y0000311220D03*
X0001183070Y0000311220D03*
X0001233070Y0000311220D03*
X0001283070Y0000311220D03*
X0001333070Y0000311220D03*
X0001383070Y0000311220D03*
X0001433070Y0000311220D03*
X0001483070Y0000311220D03*
X0001533070Y0000311220D03*
X0001583070Y0000311220D03*
X0001158070Y0000111220D03*
X0001208070Y0000111220D03*
X0001258070Y0000111220D03*
X0001308070Y0000111220D03*
X0001358070Y0000111220D03*
X0001408070Y0000111220D03*
X0001458070Y0000111220D03*
X0001508070Y0000111220D03*
X0001558070Y0000111220D03*
G04 #@! TD*
D43*
G04 #@! TO.N,GND*
X0000458070Y0000111220D02*
X0000508070Y0000111220D01*
X0000558070Y0000111220D02*
X0000608070Y0000111220D01*
X0000658070Y0000111220D02*
X0000708070Y0000111220D01*
X0000758070Y0000111220D02*
X0000808070Y0000111220D01*
X0000183070Y0000311220D02*
X0000233070Y0000311220D01*
X0000283070Y0000311220D02*
X0000333070Y0000311220D01*
X0000383070Y0000311220D02*
X0000433070Y0000311220D01*
X0000483070Y0000311220D02*
X0000533070Y0000311220D01*
X0000583070Y0000311220D02*
X0000633070Y0000311220D01*
X0000683070Y0000311220D02*
X0000733070Y0000311220D01*
X0000783070Y0000311220D02*
X0000833070Y0000311220D01*
X0000883070Y0000311220D02*
X0000933070Y0000311220D01*
X0000983070Y0000311220D02*
X0001033070Y0000311220D01*
X0001083070Y0000311220D02*
X0001133070Y0000311220D01*
X0001183070Y0000311220D02*
X0001233070Y0000311220D01*
X0001283070Y0000311220D02*
X0001333070Y0000311220D01*
X0001383070Y0000311220D02*
X0001433070Y0000311220D01*
X0001483070Y0000311220D02*
X0001533070Y0000311220D01*
X0001688070Y0000311220D02*
X0001693070Y0000306220D01*
X0001583070Y0000311220D02*
X0001688070Y0000311220D01*
X0001158070Y0000111220D02*
X0001208070Y0000111220D01*
X0001258070Y0000111220D02*
X0001308070Y0000111220D01*
X0001358070Y0000111220D02*
X0001408070Y0000111220D01*
X0001458070Y0000111220D02*
X0001508070Y0000111220D01*
X0001688070Y0000111220D02*
X0001693070Y0000106220D01*
X0001558070Y0000111220D02*
X0001688070Y0000111220D01*
G04 #@! TD*
D44*
G04 #@! TO.N,GND*
G36*
X0001598909Y0000357414D02*
X0001591876Y0000350381D01*
X0001588070Y0000341193D01*
X0001588070Y0000317470D01*
X0001594320Y0000311220D01*
X0001688070Y0000311220D01*
X0001688070Y0000312007D01*
X0001698070Y0000312007D01*
X0001698070Y0000311220D01*
X0001698858Y0000311220D01*
X0001698858Y0000301220D01*
X0001698070Y0000301220D01*
X0001698070Y0000257470D01*
X0001704320Y0000251220D01*
X0001755118Y0000251220D01*
X0001755118Y0000161220D01*
X0001704320Y0000161220D01*
X0001698070Y0000154970D01*
X0001698070Y0000111220D01*
X0001698858Y0000111220D01*
X0001698858Y0000101220D01*
X0001698070Y0000101220D01*
X0001698070Y0000057470D01*
X0001704320Y0000051220D01*
X0001755118Y0000051220D01*
X0001755118Y0000039173D01*
X0000011023Y0000039173D01*
X0000011023Y0000051220D01*
X0000051820Y0000051220D01*
X0000058070Y0000057470D01*
X0000058070Y0000101220D01*
X0000068070Y0000101220D01*
X0000068070Y0000057470D01*
X0000074320Y0000051220D01*
X0000148043Y0000051220D01*
X0000157232Y0000055026D01*
X0000164264Y0000062059D01*
X0000168070Y0000071247D01*
X0000168070Y0000094970D01*
X0001588070Y0000094970D01*
X0001588070Y0000071247D01*
X0001591876Y0000062059D01*
X0001598909Y0000055026D01*
X0001608098Y0000051220D01*
X0001681820Y0000051220D01*
X0001688070Y0000057470D01*
X0001688070Y0000101220D01*
X0001594320Y0000101220D01*
X0001588070Y0000094970D01*
X0000168070Y0000094970D01*
X0000161820Y0000101220D01*
X0000068070Y0000101220D01*
X0000058070Y0000101220D01*
X0000057283Y0000101220D01*
X0000057283Y0000111220D01*
X0000058070Y0000111220D01*
X0000058070Y0000154970D01*
X0000068070Y0000154970D01*
X0000068070Y0000111220D01*
X0000161820Y0000111220D01*
X0000168070Y0000117470D01*
X0000168070Y0000141193D01*
X0001588070Y0000141193D01*
X0001588070Y0000117470D01*
X0001594320Y0000111220D01*
X0001688070Y0000111220D01*
X0001688070Y0000154970D01*
X0001681820Y0000161220D01*
X0001608098Y0000161220D01*
X0001598909Y0000157414D01*
X0001591876Y0000150381D01*
X0001588070Y0000141193D01*
X0000168070Y0000141193D01*
X0000164264Y0000150381D01*
X0000157232Y0000157414D01*
X0000148043Y0000161220D01*
X0000074320Y0000161220D01*
X0000068070Y0000154970D01*
X0000058070Y0000154970D01*
X0000051820Y0000161220D01*
X0000011023Y0000161220D01*
X0000011023Y0000251220D01*
X0000051820Y0000251220D01*
X0000058070Y0000257470D01*
X0000058070Y0000301220D01*
X0000068070Y0000301220D01*
X0000068070Y0000257470D01*
X0000074320Y0000251220D01*
X0000148043Y0000251220D01*
X0000157232Y0000255026D01*
X0000164264Y0000262059D01*
X0000168070Y0000271247D01*
X0000168070Y0000294970D01*
X0001588070Y0000294970D01*
X0001588070Y0000271247D01*
X0001591876Y0000262059D01*
X0001598909Y0000255026D01*
X0001608098Y0000251220D01*
X0001681820Y0000251220D01*
X0001688070Y0000257470D01*
X0001688070Y0000301220D01*
X0001594320Y0000301220D01*
X0001588070Y0000294970D01*
X0000168070Y0000294970D01*
X0000161820Y0000301220D01*
X0000068070Y0000301220D01*
X0000058070Y0000301220D01*
X0000057283Y0000301220D01*
X0000057283Y0000311220D01*
X0000058070Y0000311220D01*
X0000058070Y0000312007D01*
X0000068070Y0000312007D01*
X0000068070Y0000311220D01*
X0000161820Y0000311220D01*
X0000168070Y0000317470D01*
X0000168070Y0000341193D01*
X0000164264Y0000350381D01*
X0000157232Y0000357414D01*
X0000155172Y0000358267D01*
X0001600969Y0000358267D01*
X0001598909Y0000357414D01*
X0001598909Y0000357414D01*
G37*
X0001598909Y0000357414D02*
X0001591876Y0000350381D01*
X0001588070Y0000341193D01*
X0001588070Y0000317470D01*
X0001594320Y0000311220D01*
X0001688070Y0000311220D01*
X0001688070Y0000312007D01*
X0001698070Y0000312007D01*
X0001698070Y0000311220D01*
X0001698858Y0000311220D01*
X0001698858Y0000301220D01*
X0001698070Y0000301220D01*
X0001698070Y0000257470D01*
X0001704320Y0000251220D01*
X0001755118Y0000251220D01*
X0001755118Y0000161220D01*
X0001704320Y0000161220D01*
X0001698070Y0000154970D01*
X0001698070Y0000111220D01*
X0001698858Y0000111220D01*
X0001698858Y0000101220D01*
X0001698070Y0000101220D01*
X0001698070Y0000057470D01*
X0001704320Y0000051220D01*
X0001755118Y0000051220D01*
X0001755118Y0000039173D01*
X0000011023Y0000039173D01*
X0000011023Y0000051220D01*
X0000051820Y0000051220D01*
X0000058070Y0000057470D01*
X0000058070Y0000101220D01*
X0000068070Y0000101220D01*
X0000068070Y0000057470D01*
X0000074320Y0000051220D01*
X0000148043Y0000051220D01*
X0000157232Y0000055026D01*
X0000164264Y0000062059D01*
X0000168070Y0000071247D01*
X0000168070Y0000094970D01*
X0001588070Y0000094970D01*
X0001588070Y0000071247D01*
X0001591876Y0000062059D01*
X0001598909Y0000055026D01*
X0001608098Y0000051220D01*
X0001681820Y0000051220D01*
X0001688070Y0000057470D01*
X0001688070Y0000101220D01*
X0001594320Y0000101220D01*
X0001588070Y0000094970D01*
X0000168070Y0000094970D01*
X0000161820Y0000101220D01*
X0000068070Y0000101220D01*
X0000058070Y0000101220D01*
X0000057283Y0000101220D01*
X0000057283Y0000111220D01*
X0000058070Y0000111220D01*
X0000058070Y0000154970D01*
X0000068070Y0000154970D01*
X0000068070Y0000111220D01*
X0000161820Y0000111220D01*
X0000168070Y0000117470D01*
X0000168070Y0000141193D01*
X0001588070Y0000141193D01*
X0001588070Y0000117470D01*
X0001594320Y0000111220D01*
X0001688070Y0000111220D01*
X0001688070Y0000154970D01*
X0001681820Y0000161220D01*
X0001608098Y0000161220D01*
X0001598909Y0000157414D01*
X0001591876Y0000150381D01*
X0001588070Y0000141193D01*
X0000168070Y0000141193D01*
X0000164264Y0000150381D01*
X0000157232Y0000157414D01*
X0000148043Y0000161220D01*
X0000074320Y0000161220D01*
X0000068070Y0000154970D01*
X0000058070Y0000154970D01*
X0000051820Y0000161220D01*
X0000011023Y0000161220D01*
X0000011023Y0000251220D01*
X0000051820Y0000251220D01*
X0000058070Y0000257470D01*
X0000058070Y0000301220D01*
X0000068070Y0000301220D01*
X0000068070Y0000257470D01*
X0000074320Y0000251220D01*
X0000148043Y0000251220D01*
X0000157232Y0000255026D01*
X0000164264Y0000262059D01*
X0000168070Y0000271247D01*
X0000168070Y0000294970D01*
X0001588070Y0000294970D01*
X0001588070Y0000271247D01*
X0001591876Y0000262059D01*
X0001598909Y0000255026D01*
X0001608098Y0000251220D01*
X0001681820Y0000251220D01*
X0001688070Y0000257470D01*
X0001688070Y0000301220D01*
X0001594320Y0000301220D01*
X0001588070Y0000294970D01*
X0000168070Y0000294970D01*
X0000161820Y0000301220D01*
X0000068070Y0000301220D01*
X0000058070Y0000301220D01*
X0000057283Y0000301220D01*
X0000057283Y0000311220D01*
X0000058070Y0000311220D01*
X0000058070Y0000312007D01*
X0000068070Y0000312007D01*
X0000068070Y0000311220D01*
X0000161820Y0000311220D01*
X0000168070Y0000317470D01*
X0000168070Y0000341193D01*
X0000164264Y0000350381D01*
X0000157232Y0000357414D01*
X0000155172Y0000358267D01*
X0001600969Y0000358267D01*
X0001598909Y0000357414D01*
G04 #@! TD*
G04 next file*
G04 #@! TF.GenerationSoftware,KiCad,Pcbnew,5.0.1*
G04 #@! TF.CreationDate,2018-12-27T15:29:00+01:00*
G04 #@! TF.ProjectId,Filter3OrdEliptic,46696C746572334F7264456C69707469,rev?*
G04 #@! TF.SameCoordinates,Original*
G04 #@! TF.FileFunction,Copper,L2,Bot,Signal*
G04 #@! TF.FilePolarity,Positive*
G04 Gerber Fmt 4.6, Leading zero omitted, Abs format (unit mm)*
G04 Created by KiCad (PCBNEW 5.0.1) date Do 27 Dez 2018 15:29:00 CET*
G01*
G04 APERTURE LIST*
G04 #@! TA.AperFunction,SMDPad,CuDef*
G04 #@! TD*
G04 #@! TA.AperFunction,ViaPad*
G04 #@! TD*
G04 #@! TA.AperFunction,Conductor*
G04 #@! TD*
G04 #@! TA.AperFunction,Conductor*
G04 #@! TD*
G04 APERTURE END LIST*
D45*
G04 #@! TO.P,J1,2*
G04 #@! TO.N,GND*
X-0003924999Y0004372440D02*
X0000100000Y0000547440D03*
X0000100000Y0000747440D03*
G04 #@! TD*
G04 #@! TO.P,J2,2*
G04 #@! TO.N,GND*
X0001375000Y0000747440D03*
X0001375000Y0000547440D03*
G04 #@! TD*
D46*
G04 #@! TO.N,GND*
X0000225000Y0000747440D03*
X0000350000Y0000747440D03*
X0001100000Y0000747440D03*
X0001200000Y0000747440D03*
X0000950000Y0000547440D03*
X0000525000Y0000547440D03*
G04 #@! TD*
D47*
G04 #@! TO.N,GND*
X0000350000Y0000747440D02*
X0001100000Y0000747440D01*
X0001200000Y0000747440D02*
X0001375000Y0000747440D01*
X0001375000Y0000547440D02*
X0000950000Y0000547440D01*
X0000525000Y0000547440D02*
X0000100000Y0000547440D01*
X0000225000Y0000747440D02*
X0000100000Y0000747440D01*
G04 #@! TD*
D48*
G04 #@! TO.N,GND*
G36*
X0001445000Y0000802440D02*
X0001386250Y0000802440D01*
X0001380000Y0000796190D01*
X0001380000Y0000752440D01*
X0001380787Y0000752440D01*
X0001380787Y0000742440D01*
X0001380000Y0000742440D01*
X0001380000Y0000698690D01*
X0001386250Y0000692440D01*
X0001445000Y0000692440D01*
X0001445000Y0000602440D01*
X0001386250Y0000602440D01*
X0001380000Y0000596190D01*
X0001380000Y0000552440D01*
X0001380787Y0000552440D01*
X0001380787Y0000542440D01*
X0001380000Y0000542440D01*
X0001380000Y0000541653D01*
X0001370000Y0000541653D01*
X0001370000Y0000542440D01*
X0001276250Y0000542440D01*
X0001270000Y0000536190D01*
X0001270000Y0000512467D01*
X0001273806Y0000503279D01*
X0001276691Y0000500393D01*
X0000198308Y0000500393D01*
X0000201193Y0000503279D01*
X0000205000Y0000512467D01*
X0000205000Y0000536190D01*
X0000198750Y0000542440D01*
X0000105000Y0000542440D01*
X0000105000Y0000541653D01*
X0000095000Y0000541653D01*
X0000095000Y0000542440D01*
X0000094212Y0000542440D01*
X0000094212Y0000552440D01*
X0000095000Y0000552440D01*
X0000095000Y0000596190D01*
X0000105000Y0000596190D01*
X0000105000Y0000552440D01*
X0000198750Y0000552440D01*
X0000205000Y0000558690D01*
X0000205000Y0000582413D01*
X0001270000Y0000582413D01*
X0001270000Y0000558690D01*
X0001276250Y0000552440D01*
X0001370000Y0000552440D01*
X0001370000Y0000596190D01*
X0001363750Y0000602440D01*
X0001290027Y0000602440D01*
X0001280838Y0000598634D01*
X0001273806Y0000591602D01*
X0001270000Y0000582413D01*
X0000205000Y0000582413D01*
X0000201193Y0000591602D01*
X0000194161Y0000598634D01*
X0000184972Y0000602440D01*
X0000111250Y0000602440D01*
X0000105000Y0000596190D01*
X0000095000Y0000596190D01*
X0000088750Y0000602440D01*
X0000030000Y0000602440D01*
X0000030000Y0000692440D01*
X0000088750Y0000692440D01*
X0000095000Y0000698690D01*
X0000095000Y0000742440D01*
X0000105000Y0000742440D01*
X0000105000Y0000698690D01*
X0000111250Y0000692440D01*
X0000184972Y0000692440D01*
X0000194161Y0000696246D01*
X0000201193Y0000703279D01*
X0000205000Y0000712467D01*
X0000205000Y0000736190D01*
X0001270000Y0000736190D01*
X0001270000Y0000712467D01*
X0001273806Y0000703279D01*
X0001280838Y0000696246D01*
X0001290027Y0000692440D01*
X0001363750Y0000692440D01*
X0001370000Y0000698690D01*
X0001370000Y0000742440D01*
X0001276250Y0000742440D01*
X0001270000Y0000736190D01*
X0000205000Y0000736190D01*
X0000198750Y0000742440D01*
X0000105000Y0000742440D01*
X0000095000Y0000742440D01*
X0000094212Y0000742440D01*
X0000094212Y0000752440D01*
X0000095000Y0000752440D01*
X0000095000Y0000796190D01*
X0000105000Y0000796190D01*
X0000105000Y0000752440D01*
X0000198750Y0000752440D01*
X0000205000Y0000758690D01*
X0000205000Y0000782413D01*
X0001270000Y0000782413D01*
X0001270000Y0000758690D01*
X0001276250Y0000752440D01*
X0001370000Y0000752440D01*
X0001370000Y0000796190D01*
X0001363750Y0000802440D01*
X0001290027Y0000802440D01*
X0001280838Y0000798634D01*
X0001273806Y0000791602D01*
X0001270000Y0000782413D01*
X0000205000Y0000782413D01*
X0000201193Y0000791602D01*
X0000194161Y0000798634D01*
X0000184972Y0000802440D01*
X0000111250Y0000802440D01*
X0000105000Y0000796190D01*
X0000095000Y0000796190D01*
X0000088750Y0000802440D01*
X0000030000Y0000802440D01*
X0000030000Y0000819488D01*
X0001445000Y0000819488D01*
X0001445000Y0000802440D01*
X0001445000Y0000802440D01*
G37*
X0001445000Y0000802440D02*
X0001386250Y0000802440D01*
X0001380000Y0000796190D01*
X0001380000Y0000752440D01*
X0001380787Y0000752440D01*
X0001380787Y0000742440D01*
X0001380000Y0000742440D01*
X0001380000Y0000698690D01*
X0001386250Y0000692440D01*
X0001445000Y0000692440D01*
X0001445000Y0000602440D01*
X0001386250Y0000602440D01*
X0001380000Y0000596190D01*
X0001380000Y0000552440D01*
X0001380787Y0000552440D01*
X0001380787Y0000542440D01*
X0001380000Y0000542440D01*
X0001380000Y0000541653D01*
X0001370000Y0000541653D01*
X0001370000Y0000542440D01*
X0001276250Y0000542440D01*
X0001270000Y0000536190D01*
X0001270000Y0000512467D01*
X0001273806Y0000503279D01*
X0001276691Y0000500393D01*
X0000198308Y0000500393D01*
X0000201193Y0000503279D01*
X0000205000Y0000512467D01*
X0000205000Y0000536190D01*
X0000198750Y0000542440D01*
X0000105000Y0000542440D01*
X0000105000Y0000541653D01*
X0000095000Y0000541653D01*
X0000095000Y0000542440D01*
X0000094212Y0000542440D01*
X0000094212Y0000552440D01*
X0000095000Y0000552440D01*
X0000095000Y0000596190D01*
X0000105000Y0000596190D01*
X0000105000Y0000552440D01*
X0000198750Y0000552440D01*
X0000205000Y0000558690D01*
X0000205000Y0000582413D01*
X0001270000Y0000582413D01*
X0001270000Y0000558690D01*
X0001276250Y0000552440D01*
X0001370000Y0000552440D01*
X0001370000Y0000596190D01*
X0001363750Y0000602440D01*
X0001290027Y0000602440D01*
X0001280838Y0000598634D01*
X0001273806Y0000591602D01*
X0001270000Y0000582413D01*
X0000205000Y0000582413D01*
X0000201193Y0000591602D01*
X0000194161Y0000598634D01*
X0000184972Y0000602440D01*
X0000111250Y0000602440D01*
X0000105000Y0000596190D01*
X0000095000Y0000596190D01*
X0000088750Y0000602440D01*
X0000030000Y0000602440D01*
X0000030000Y0000692440D01*
X0000088750Y0000692440D01*
X0000095000Y0000698690D01*
X0000095000Y0000742440D01*
X0000105000Y0000742440D01*
X0000105000Y0000698690D01*
X0000111250Y0000692440D01*
X0000184972Y0000692440D01*
X0000194161Y0000696246D01*
X0000201193Y0000703279D01*
X0000205000Y0000712467D01*
X0000205000Y0000736190D01*
X0001270000Y0000736190D01*
X0001270000Y0000712467D01*
X0001273806Y0000703279D01*
X0001280838Y0000696246D01*
X0001290027Y0000692440D01*
X0001363750Y0000692440D01*
X0001370000Y0000698690D01*
X0001370000Y0000742440D01*
X0001276250Y0000742440D01*
X0001270000Y0000736190D01*
X0000205000Y0000736190D01*
X0000198750Y0000742440D01*
X0000105000Y0000742440D01*
X0000095000Y0000742440D01*
X0000094212Y0000742440D01*
X0000094212Y0000752440D01*
X0000095000Y0000752440D01*
X0000095000Y0000796190D01*
X0000105000Y0000796190D01*
X0000105000Y0000752440D01*
X0000198750Y0000752440D01*
X0000205000Y0000758690D01*
X0000205000Y0000782413D01*
X0001270000Y0000782413D01*
X0001270000Y0000758690D01*
X0001276250Y0000752440D01*
X0001370000Y0000752440D01*
X0001370000Y0000796190D01*
X0001363750Y0000802440D01*
X0001290027Y0000802440D01*
X0001280838Y0000798634D01*
X0001273806Y0000791602D01*
X0001270000Y0000782413D01*
X0000205000Y0000782413D01*
X0000201193Y0000791602D01*
X0000194161Y0000798634D01*
X0000184972Y0000802440D01*
X0000111250Y0000802440D01*
X0000105000Y0000796190D01*
X0000095000Y0000796190D01*
X0000088750Y0000802440D01*
X0000030000Y0000802440D01*
X0000030000Y0000819488D01*
X0001445000Y0000819488D01*
X0001445000Y0000802440D01*
G04 #@! TD*
G04 next file*
G04 #@! TF.GenerationSoftware,KiCad,Pcbnew,5.0.1*
G04 #@! TF.CreationDate,2018-12-27T15:24:30+01:00*
G04 #@! TF.ProjectId,RFSampler,524653616D706C65722E6B696361645F,rev?*
G04 #@! TF.SameCoordinates,PX617fb78PY6ed25c8*
G04 #@! TF.FileFunction,Copper,L2,Bot,Signal*
G04 #@! TF.FilePolarity,Positive*
G04 Gerber Fmt 4.6, Leading zero omitted, Abs format (unit mm)*
G04 Created by KiCad (PCBNEW 5.0.1) date Do 27 Dez 2018 15:24:30 CET*
G01*
G04 APERTURE LIST*
G04 #@! TA.AperFunction,SMDPad,CuDef*
G04 #@! TD*
G04 #@! TA.AperFunction,SMDPad,CuDef*
G04 #@! TD*
G04 #@! TA.AperFunction,ViaPad*
G04 #@! TD*
G04 #@! TA.AperFunction,Conductor*
G04 #@! TD*
G04 #@! TA.AperFunction,Conductor*
G04 #@! TD*
G04 APERTURE END LIST*
D49*
G04 #@! TO.P,J3,2*
G04 #@! TO.N,GND*
X0000905511Y0003228346D02*
X0001000511Y0003343346D03*
X0001000511Y0003543346D03*
G04 #@! TD*
D50*
G04 #@! TO.P,J1,2*
G04 #@! TO.N,GND*
X0001090511Y0003823346D03*
X0001290511Y0003823346D03*
G04 #@! TD*
D49*
G04 #@! TO.P,J2,2*
G04 #@! TO.N,GND*
X0001420511Y0003343346D03*
X0001420511Y0003543346D03*
G04 #@! TD*
D51*
G04 #@! TO.N,GND*
X0001140511Y0003343346D03*
X0001200511Y0003343346D03*
X0001280511Y0003343346D03*
X0001300511Y0003543346D03*
X0001260511Y0003543346D03*
X0001110511Y0003543346D03*
X0001090511Y0003703346D03*
X0001090511Y0003653346D03*
X0001090511Y0003613346D03*
X0001290511Y0003703346D03*
X0001300511Y0003593346D03*
G04 #@! TD*
D52*
G04 #@! TO.N,GND*
X0001140511Y0003343346D02*
X0001200511Y0003343346D01*
X0001420511Y0003543346D02*
X0001300511Y0003543346D01*
X0001260511Y0003543346D02*
X0001110511Y0003543346D01*
X0001090511Y0003703346D02*
X0001090511Y0003653346D01*
X0001290511Y0003823346D02*
X0001290511Y0003703346D01*
G04 #@! TD*
D53*
G04 #@! TO.N,GND*
G36*
X0001035511Y0003834596D02*
X0001041761Y0003828346D01*
X0001085511Y0003828346D01*
X0001085511Y0003829133D01*
X0001095511Y0003829133D01*
X0001095511Y0003828346D01*
X0001139261Y0003828346D01*
X0001145511Y0003834596D01*
X0001145511Y0003898346D01*
X0001235511Y0003898346D01*
X0001235511Y0003834596D01*
X0001241761Y0003828346D01*
X0001285511Y0003828346D01*
X0001285511Y0003829133D01*
X0001295511Y0003829133D01*
X0001295511Y0003828346D01*
X0001339261Y0003828346D01*
X0001345511Y0003834596D01*
X0001345511Y0003898346D01*
X0001477559Y0003898346D01*
X0001477559Y0003598346D01*
X0001431761Y0003598346D01*
X0001425511Y0003592096D01*
X0001425511Y0003548346D01*
X0001426299Y0003548346D01*
X0001426299Y0003538346D01*
X0001425511Y0003538346D01*
X0001425511Y0003494596D01*
X0001431761Y0003488346D01*
X0001477559Y0003488346D01*
X0001477559Y0003398346D01*
X0001431761Y0003398346D01*
X0001425511Y0003392096D01*
X0001425511Y0003348346D01*
X0001426299Y0003348346D01*
X0001426299Y0003338346D01*
X0001425511Y0003338346D01*
X0001425511Y0003294596D01*
X0001431761Y0003288346D01*
X0001477559Y0003288346D01*
X0001477559Y0003256299D01*
X0000933464Y0003256299D01*
X0000933464Y0003288346D01*
X0000989261Y0003288346D01*
X0000995511Y0003294596D01*
X0000995511Y0003338346D01*
X0001005511Y0003338346D01*
X0001005511Y0003294596D01*
X0001011761Y0003288346D01*
X0001085484Y0003288346D01*
X0001094673Y0003292152D01*
X0001101705Y0003299185D01*
X0001105511Y0003308373D01*
X0001105511Y0003332096D01*
X0001315511Y0003332096D01*
X0001315511Y0003308373D01*
X0001319317Y0003299185D01*
X0001326350Y0003292152D01*
X0001335539Y0003288346D01*
X0001409261Y0003288346D01*
X0001415511Y0003294596D01*
X0001415511Y0003338346D01*
X0001321761Y0003338346D01*
X0001315511Y0003332096D01*
X0001105511Y0003332096D01*
X0001099261Y0003338346D01*
X0001005511Y0003338346D01*
X0000995511Y0003338346D01*
X0000994724Y0003338346D01*
X0000994724Y0003348346D01*
X0000995511Y0003348346D01*
X0000995511Y0003392096D01*
X0001005511Y0003392096D01*
X0001005511Y0003348346D01*
X0001099261Y0003348346D01*
X0001105511Y0003354596D01*
X0001105511Y0003378319D01*
X0001315511Y0003378319D01*
X0001315511Y0003354596D01*
X0001321761Y0003348346D01*
X0001415511Y0003348346D01*
X0001415511Y0003392096D01*
X0001409261Y0003398346D01*
X0001335539Y0003398346D01*
X0001326350Y0003394540D01*
X0001319317Y0003387507D01*
X0001315511Y0003378319D01*
X0001105511Y0003378319D01*
X0001101705Y0003387507D01*
X0001094673Y0003394540D01*
X0001085484Y0003398346D01*
X0001011761Y0003398346D01*
X0001005511Y0003392096D01*
X0000995511Y0003392096D01*
X0000989261Y0003398346D01*
X0000933464Y0003398346D01*
X0000933464Y0003488346D01*
X0000989261Y0003488346D01*
X0000995511Y0003494596D01*
X0000995511Y0003538346D01*
X0001005511Y0003538346D01*
X0001005511Y0003494596D01*
X0001011761Y0003488346D01*
X0001085484Y0003488346D01*
X0001094673Y0003492152D01*
X0001101705Y0003499185D01*
X0001105511Y0003508373D01*
X0001105511Y0003532096D01*
X0001315511Y0003532096D01*
X0001315511Y0003508373D01*
X0001319317Y0003499185D01*
X0001326350Y0003492152D01*
X0001335539Y0003488346D01*
X0001409261Y0003488346D01*
X0001415511Y0003494596D01*
X0001415511Y0003538346D01*
X0001321761Y0003538346D01*
X0001315511Y0003532096D01*
X0001105511Y0003532096D01*
X0001099261Y0003538346D01*
X0001005511Y0003538346D01*
X0000995511Y0003538346D01*
X0000994724Y0003538346D01*
X0000994724Y0003548346D01*
X0000995511Y0003548346D01*
X0000995511Y0003592096D01*
X0001005511Y0003592096D01*
X0001005511Y0003548346D01*
X0001099261Y0003548346D01*
X0001105511Y0003554596D01*
X0001105511Y0003578319D01*
X0001315511Y0003578319D01*
X0001315511Y0003554596D01*
X0001321761Y0003548346D01*
X0001415511Y0003548346D01*
X0001415511Y0003592096D01*
X0001409261Y0003598346D01*
X0001335539Y0003598346D01*
X0001326350Y0003594540D01*
X0001319317Y0003587507D01*
X0001315511Y0003578319D01*
X0001105511Y0003578319D01*
X0001101705Y0003587507D01*
X0001094673Y0003594540D01*
X0001085484Y0003598346D01*
X0001011761Y0003598346D01*
X0001005511Y0003592096D01*
X0000995511Y0003592096D01*
X0000989261Y0003598346D01*
X0000933464Y0003598346D01*
X0000933464Y0003812096D01*
X0001035511Y0003812096D01*
X0001035511Y0003738373D01*
X0001039317Y0003729185D01*
X0001046350Y0003722152D01*
X0001055538Y0003718346D01*
X0001079261Y0003718346D01*
X0001085511Y0003724596D01*
X0001085511Y0003818346D01*
X0001095511Y0003818346D01*
X0001095511Y0003724596D01*
X0001101761Y0003718346D01*
X0001125484Y0003718346D01*
X0001134673Y0003722152D01*
X0001141705Y0003729185D01*
X0001145511Y0003738373D01*
X0001145511Y0003812096D01*
X0001235511Y0003812096D01*
X0001235511Y0003738373D01*
X0001239317Y0003729185D01*
X0001246350Y0003722152D01*
X0001255538Y0003718346D01*
X0001279261Y0003718346D01*
X0001285511Y0003724596D01*
X0001285511Y0003818346D01*
X0001295511Y0003818346D01*
X0001295511Y0003724596D01*
X0001301761Y0003718346D01*
X0001325484Y0003718346D01*
X0001334673Y0003722152D01*
X0001341705Y0003729185D01*
X0001345511Y0003738373D01*
X0001345511Y0003812096D01*
X0001339261Y0003818346D01*
X0001295511Y0003818346D01*
X0001285511Y0003818346D01*
X0001241761Y0003818346D01*
X0001235511Y0003812096D01*
X0001145511Y0003812096D01*
X0001139261Y0003818346D01*
X0001095511Y0003818346D01*
X0001085511Y0003818346D01*
X0001041761Y0003818346D01*
X0001035511Y0003812096D01*
X0000933464Y0003812096D01*
X0000933464Y0003898346D01*
X0001035511Y0003898346D01*
X0001035511Y0003834596D01*
X0001035511Y0003834596D01*
G37*
X0001035511Y0003834596D02*
X0001041761Y0003828346D01*
X0001085511Y0003828346D01*
X0001085511Y0003829133D01*
X0001095511Y0003829133D01*
X0001095511Y0003828346D01*
X0001139261Y0003828346D01*
X0001145511Y0003834596D01*
X0001145511Y0003898346D01*
X0001235511Y0003898346D01*
X0001235511Y0003834596D01*
X0001241761Y0003828346D01*
X0001285511Y0003828346D01*
X0001285511Y0003829133D01*
X0001295511Y0003829133D01*
X0001295511Y0003828346D01*
X0001339261Y0003828346D01*
X0001345511Y0003834596D01*
X0001345511Y0003898346D01*
X0001477559Y0003898346D01*
X0001477559Y0003598346D01*
X0001431761Y0003598346D01*
X0001425511Y0003592096D01*
X0001425511Y0003548346D01*
X0001426299Y0003548346D01*
X0001426299Y0003538346D01*
X0001425511Y0003538346D01*
X0001425511Y0003494596D01*
X0001431761Y0003488346D01*
X0001477559Y0003488346D01*
X0001477559Y0003398346D01*
X0001431761Y0003398346D01*
X0001425511Y0003392096D01*
X0001425511Y0003348346D01*
X0001426299Y0003348346D01*
X0001426299Y0003338346D01*
X0001425511Y0003338346D01*
X0001425511Y0003294596D01*
X0001431761Y0003288346D01*
X0001477559Y0003288346D01*
X0001477559Y0003256299D01*
X0000933464Y0003256299D01*
X0000933464Y0003288346D01*
X0000989261Y0003288346D01*
X0000995511Y0003294596D01*
X0000995511Y0003338346D01*
X0001005511Y0003338346D01*
X0001005511Y0003294596D01*
X0001011761Y0003288346D01*
X0001085484Y0003288346D01*
X0001094673Y0003292152D01*
X0001101705Y0003299185D01*
X0001105511Y0003308373D01*
X0001105511Y0003332096D01*
X0001315511Y0003332096D01*
X0001315511Y0003308373D01*
X0001319317Y0003299185D01*
X0001326350Y0003292152D01*
X0001335539Y0003288346D01*
X0001409261Y0003288346D01*
X0001415511Y0003294596D01*
X0001415511Y0003338346D01*
X0001321761Y0003338346D01*
X0001315511Y0003332096D01*
X0001105511Y0003332096D01*
X0001099261Y0003338346D01*
X0001005511Y0003338346D01*
X0000995511Y0003338346D01*
X0000994724Y0003338346D01*
X0000994724Y0003348346D01*
X0000995511Y0003348346D01*
X0000995511Y0003392096D01*
X0001005511Y0003392096D01*
X0001005511Y0003348346D01*
X0001099261Y0003348346D01*
X0001105511Y0003354596D01*
X0001105511Y0003378319D01*
X0001315511Y0003378319D01*
X0001315511Y0003354596D01*
X0001321761Y0003348346D01*
X0001415511Y0003348346D01*
X0001415511Y0003392096D01*
X0001409261Y0003398346D01*
X0001335539Y0003398346D01*
X0001326350Y0003394540D01*
X0001319317Y0003387507D01*
X0001315511Y0003378319D01*
X0001105511Y0003378319D01*
X0001101705Y0003387507D01*
X0001094673Y0003394540D01*
X0001085484Y0003398346D01*
X0001011761Y0003398346D01*
X0001005511Y0003392096D01*
X0000995511Y0003392096D01*
X0000989261Y0003398346D01*
X0000933464Y0003398346D01*
X0000933464Y0003488346D01*
X0000989261Y0003488346D01*
X0000995511Y0003494596D01*
X0000995511Y0003538346D01*
X0001005511Y0003538346D01*
X0001005511Y0003494596D01*
X0001011761Y0003488346D01*
X0001085484Y0003488346D01*
X0001094673Y0003492152D01*
X0001101705Y0003499185D01*
X0001105511Y0003508373D01*
X0001105511Y0003532096D01*
X0001315511Y0003532096D01*
X0001315511Y0003508373D01*
X0001319317Y0003499185D01*
X0001326350Y0003492152D01*
X0001335539Y0003488346D01*
X0001409261Y0003488346D01*
X0001415511Y0003494596D01*
X0001415511Y0003538346D01*
X0001321761Y0003538346D01*
X0001315511Y0003532096D01*
X0001105511Y0003532096D01*
X0001099261Y0003538346D01*
X0001005511Y0003538346D01*
X0000995511Y0003538346D01*
X0000994724Y0003538346D01*
X0000994724Y0003548346D01*
X0000995511Y0003548346D01*
X0000995511Y0003592096D01*
X0001005511Y0003592096D01*
X0001005511Y0003548346D01*
X0001099261Y0003548346D01*
X0001105511Y0003554596D01*
X0001105511Y0003578319D01*
X0001315511Y0003578319D01*
X0001315511Y0003554596D01*
X0001321761Y0003548346D01*
X0001415511Y0003548346D01*
X0001415511Y0003592096D01*
X0001409261Y0003598346D01*
X0001335539Y0003598346D01*
X0001326350Y0003594540D01*
X0001319317Y0003587507D01*
X0001315511Y0003578319D01*
X0001105511Y0003578319D01*
X0001101705Y0003587507D01*
X0001094673Y0003594540D01*
X0001085484Y0003598346D01*
X0001011761Y0003598346D01*
X0001005511Y0003592096D01*
X0000995511Y0003592096D01*
X0000989261Y0003598346D01*
X0000933464Y0003598346D01*
X0000933464Y0003812096D01*
X0001035511Y0003812096D01*
X0001035511Y0003738373D01*
X0001039317Y0003729185D01*
X0001046350Y0003722152D01*
X0001055538Y0003718346D01*
X0001079261Y0003718346D01*
X0001085511Y0003724596D01*
X0001085511Y0003818346D01*
X0001095511Y0003818346D01*
X0001095511Y0003724596D01*
X0001101761Y0003718346D01*
X0001125484Y0003718346D01*
X0001134673Y0003722152D01*
X0001141705Y0003729185D01*
X0001145511Y0003738373D01*
X0001145511Y0003812096D01*
X0001235511Y0003812096D01*
X0001235511Y0003738373D01*
X0001239317Y0003729185D01*
X0001246350Y0003722152D01*
X0001255538Y0003718346D01*
X0001279261Y0003718346D01*
X0001285511Y0003724596D01*
X0001285511Y0003818346D01*
X0001295511Y0003818346D01*
X0001295511Y0003724596D01*
X0001301761Y0003718346D01*
X0001325484Y0003718346D01*
X0001334673Y0003722152D01*
X0001341705Y0003729185D01*
X0001345511Y0003738373D01*
X0001345511Y0003812096D01*
X0001339261Y0003818346D01*
X0001295511Y0003818346D01*
X0001285511Y0003818346D01*
X0001241761Y0003818346D01*
X0001235511Y0003812096D01*
X0001145511Y0003812096D01*
X0001139261Y0003818346D01*
X0001095511Y0003818346D01*
X0001085511Y0003818346D01*
X0001041761Y0003818346D01*
X0001035511Y0003812096D01*
X0000933464Y0003812096D01*
X0000933464Y0003898346D01*
X0001035511Y0003898346D01*
X0001035511Y0003834596D01*
G04 #@! TD*
G04 next file*
G04 #@! TF.GenerationSoftware,KiCad,Pcbnew,5.0.1*
G04 #@! TF.CreationDate,2018-12-27T15:29:00+01:00*
G04 #@! TF.ProjectId,Filter3OrdEliptic,46696C746572334F7264456C69707469,rev?*
G04 #@! TF.SameCoordinates,Original*
G04 #@! TF.FileFunction,Copper,L2,Bot,Signal*
G04 #@! TF.FilePolarity,Positive*
G04 Gerber Fmt 4.6, Leading zero omitted, Abs format (unit mm)*
G04 Created by KiCad (PCBNEW 5.0.1) date Do 27 Dez 2018 15:29:00 CET*
G01*
G04 APERTURE LIST*
G04 #@! TA.AperFunction,SMDPad,CuDef*
G04 #@! TD*
G04 #@! TA.AperFunction,ViaPad*
G04 #@! TD*
G04 #@! TA.AperFunction,Conductor*
G04 #@! TD*
G04 #@! TA.AperFunction,Conductor*
G04 #@! TD*
G04 APERTURE END LIST*
D54*
G04 #@! TO.P,J1,2*
G04 #@! TO.N,GND*
X-0002350196Y0004766141D02*
X0001674803Y0000941141D03*
X0001674803Y0001141141D03*
G04 #@! TD*
G04 #@! TO.P,J2,2*
G04 #@! TO.N,GND*
X0002949803Y0001141141D03*
X0002949803Y0000941141D03*
G04 #@! TD*
D55*
G04 #@! TO.N,GND*
X0001799803Y0001141141D03*
X0001924803Y0001141141D03*
X0002674803Y0001141141D03*
X0002774803Y0001141141D03*
X0002524803Y0000941141D03*
X0002099803Y0000941141D03*
G04 #@! TD*
D56*
G04 #@! TO.N,GND*
X0001924803Y0001141141D02*
X0002674803Y0001141141D01*
X0002774803Y0001141141D02*
X0002949803Y0001141141D01*
X0002949803Y0000941141D02*
X0002524803Y0000941141D01*
X0002099803Y0000941141D02*
X0001674803Y0000941141D01*
X0001799803Y0001141141D02*
X0001674803Y0001141141D01*
G04 #@! TD*
D57*
G04 #@! TO.N,GND*
G36*
X0003019803Y0001196141D02*
X0002961053Y0001196141D01*
X0002954803Y0001189891D01*
X0002954803Y0001146141D01*
X0002955590Y0001146141D01*
X0002955590Y0001136141D01*
X0002954803Y0001136141D01*
X0002954803Y0001092391D01*
X0002961053Y0001086141D01*
X0003019803Y0001086141D01*
X0003019803Y0000996141D01*
X0002961053Y0000996141D01*
X0002954803Y0000989891D01*
X0002954803Y0000946141D01*
X0002955590Y0000946141D01*
X0002955590Y0000936141D01*
X0002954803Y0000936141D01*
X0002954803Y0000935354D01*
X0002944803Y0000935354D01*
X0002944803Y0000936141D01*
X0002851053Y0000936141D01*
X0002844803Y0000929891D01*
X0002844803Y0000906168D01*
X0002848609Y0000896980D01*
X0002851495Y0000894094D01*
X0001773111Y0000894094D01*
X0001775997Y0000896980D01*
X0001779803Y0000906168D01*
X0001779803Y0000929891D01*
X0001773553Y0000936141D01*
X0001679803Y0000936141D01*
X0001679803Y0000935354D01*
X0001669803Y0000935354D01*
X0001669803Y0000936141D01*
X0001669015Y0000936141D01*
X0001669015Y0000946141D01*
X0001669803Y0000946141D01*
X0001669803Y0000989891D01*
X0001679803Y0000989891D01*
X0001679803Y0000946141D01*
X0001773553Y0000946141D01*
X0001779803Y0000952391D01*
X0001779803Y0000976114D01*
X0002844803Y0000976114D01*
X0002844803Y0000952391D01*
X0002851053Y0000946141D01*
X0002944803Y0000946141D01*
X0002944803Y0000989891D01*
X0002938553Y0000996141D01*
X0002864830Y0000996141D01*
X0002855641Y0000992335D01*
X0002848609Y0000985302D01*
X0002844803Y0000976114D01*
X0001779803Y0000976114D01*
X0001775997Y0000985302D01*
X0001768964Y0000992335D01*
X0001759775Y0000996141D01*
X0001686053Y0000996141D01*
X0001679803Y0000989891D01*
X0001669803Y0000989891D01*
X0001663553Y0000996141D01*
X0001604803Y0000996141D01*
X0001604803Y0001086141D01*
X0001663553Y0001086141D01*
X0001669803Y0001092391D01*
X0001669803Y0001136141D01*
X0001679803Y0001136141D01*
X0001679803Y0001092391D01*
X0001686053Y0001086141D01*
X0001759775Y0001086141D01*
X0001768964Y0001089947D01*
X0001775997Y0001096980D01*
X0001779803Y0001106168D01*
X0001779803Y0001129891D01*
X0002844803Y0001129891D01*
X0002844803Y0001106168D01*
X0002848609Y0001096980D01*
X0002855641Y0001089947D01*
X0002864830Y0001086141D01*
X0002938553Y0001086141D01*
X0002944803Y0001092391D01*
X0002944803Y0001136141D01*
X0002851053Y0001136141D01*
X0002844803Y0001129891D01*
X0001779803Y0001129891D01*
X0001773553Y0001136141D01*
X0001679803Y0001136141D01*
X0001669803Y0001136141D01*
X0001669015Y0001136141D01*
X0001669015Y0001146141D01*
X0001669803Y0001146141D01*
X0001669803Y0001189891D01*
X0001679803Y0001189891D01*
X0001679803Y0001146141D01*
X0001773553Y0001146141D01*
X0001779803Y0001152391D01*
X0001779803Y0001176114D01*
X0002844803Y0001176114D01*
X0002844803Y0001152391D01*
X0002851053Y0001146141D01*
X0002944803Y0001146141D01*
X0002944803Y0001189891D01*
X0002938553Y0001196141D01*
X0002864830Y0001196141D01*
X0002855641Y0001192335D01*
X0002848609Y0001185302D01*
X0002844803Y0001176114D01*
X0001779803Y0001176114D01*
X0001775997Y0001185302D01*
X0001768964Y0001192335D01*
X0001759775Y0001196141D01*
X0001686053Y0001196141D01*
X0001679803Y0001189891D01*
X0001669803Y0001189891D01*
X0001663553Y0001196141D01*
X0001604803Y0001196141D01*
X0001604803Y0001213188D01*
X0003019803Y0001213188D01*
X0003019803Y0001196141D01*
X0003019803Y0001196141D01*
G37*
X0003019803Y0001196141D02*
X0002961053Y0001196141D01*
X0002954803Y0001189891D01*
X0002954803Y0001146141D01*
X0002955590Y0001146141D01*
X0002955590Y0001136141D01*
X0002954803Y0001136141D01*
X0002954803Y0001092391D01*
X0002961053Y0001086141D01*
X0003019803Y0001086141D01*
X0003019803Y0000996141D01*
X0002961053Y0000996141D01*
X0002954803Y0000989891D01*
X0002954803Y0000946141D01*
X0002955590Y0000946141D01*
X0002955590Y0000936141D01*
X0002954803Y0000936141D01*
X0002954803Y0000935354D01*
X0002944803Y0000935354D01*
X0002944803Y0000936141D01*
X0002851053Y0000936141D01*
X0002844803Y0000929891D01*
X0002844803Y0000906168D01*
X0002848609Y0000896980D01*
X0002851495Y0000894094D01*
X0001773111Y0000894094D01*
X0001775997Y0000896980D01*
X0001779803Y0000906168D01*
X0001779803Y0000929891D01*
X0001773553Y0000936141D01*
X0001679803Y0000936141D01*
X0001679803Y0000935354D01*
X0001669803Y0000935354D01*
X0001669803Y0000936141D01*
X0001669015Y0000936141D01*
X0001669015Y0000946141D01*
X0001669803Y0000946141D01*
X0001669803Y0000989891D01*
X0001679803Y0000989891D01*
X0001679803Y0000946141D01*
X0001773553Y0000946141D01*
X0001779803Y0000952391D01*
X0001779803Y0000976114D01*
X0002844803Y0000976114D01*
X0002844803Y0000952391D01*
X0002851053Y0000946141D01*
X0002944803Y0000946141D01*
X0002944803Y0000989891D01*
X0002938553Y0000996141D01*
X0002864830Y0000996141D01*
X0002855641Y0000992335D01*
X0002848609Y0000985302D01*
X0002844803Y0000976114D01*
X0001779803Y0000976114D01*
X0001775997Y0000985302D01*
X0001768964Y0000992335D01*
X0001759775Y0000996141D01*
X0001686053Y0000996141D01*
X0001679803Y0000989891D01*
X0001669803Y0000989891D01*
X0001663553Y0000996141D01*
X0001604803Y0000996141D01*
X0001604803Y0001086141D01*
X0001663553Y0001086141D01*
X0001669803Y0001092391D01*
X0001669803Y0001136141D01*
X0001679803Y0001136141D01*
X0001679803Y0001092391D01*
X0001686053Y0001086141D01*
X0001759775Y0001086141D01*
X0001768964Y0001089947D01*
X0001775997Y0001096980D01*
X0001779803Y0001106168D01*
X0001779803Y0001129891D01*
X0002844803Y0001129891D01*
X0002844803Y0001106168D01*
X0002848609Y0001096980D01*
X0002855641Y0001089947D01*
X0002864830Y0001086141D01*
X0002938553Y0001086141D01*
X0002944803Y0001092391D01*
X0002944803Y0001136141D01*
X0002851053Y0001136141D01*
X0002844803Y0001129891D01*
X0001779803Y0001129891D01*
X0001773553Y0001136141D01*
X0001679803Y0001136141D01*
X0001669803Y0001136141D01*
X0001669015Y0001136141D01*
X0001669015Y0001146141D01*
X0001669803Y0001146141D01*
X0001669803Y0001189891D01*
X0001679803Y0001189891D01*
X0001679803Y0001146141D01*
X0001773553Y0001146141D01*
X0001779803Y0001152391D01*
X0001779803Y0001176114D01*
X0002844803Y0001176114D01*
X0002844803Y0001152391D01*
X0002851053Y0001146141D01*
X0002944803Y0001146141D01*
X0002944803Y0001189891D01*
X0002938553Y0001196141D01*
X0002864830Y0001196141D01*
X0002855641Y0001192335D01*
X0002848609Y0001185302D01*
X0002844803Y0001176114D01*
X0001779803Y0001176114D01*
X0001775997Y0001185302D01*
X0001768964Y0001192335D01*
X0001759775Y0001196141D01*
X0001686053Y0001196141D01*
X0001679803Y0001189891D01*
X0001669803Y0001189891D01*
X0001663553Y0001196141D01*
X0001604803Y0001196141D01*
X0001604803Y0001213188D01*
X0003019803Y0001213188D01*
X0003019803Y0001196141D01*
G04 #@! TD*
G04 next file*
G04 #@! TF.GenerationSoftware,KiCad,Pcbnew,5.0.1*
G04 #@! TF.CreationDate,2018-12-27T15:29:00+01:00*
G04 #@! TF.ProjectId,Filter3OrdEliptic,46696C746572334F7264456C69707469,rev?*
G04 #@! TF.SameCoordinates,Original*
G04 #@! TF.FileFunction,Copper,L2,Bot,Signal*
G04 #@! TF.FilePolarity,Positive*
G04 Gerber Fmt 4.6, Leading zero omitted, Abs format (unit mm)*
G04 Created by KiCad (PCBNEW 5.0.1) date Do 27 Dez 2018 15:29:00 CET*
G01*
G04 APERTURE LIST*
G04 #@! TA.AperFunction,SMDPad,CuDef*
G04 #@! TD*
G04 #@! TA.AperFunction,ViaPad*
G04 #@! TD*
G04 #@! TA.AperFunction,Conductor*
G04 #@! TD*
G04 #@! TA.AperFunction,Conductor*
G04 #@! TD*
G04 APERTURE END LIST*
D58*
G04 #@! TO.P,J1,2*
G04 #@! TO.N,GND*
X-0003924999Y0004844881D02*
X0000100000Y0001019881D03*
X0000100000Y0001219881D03*
G04 #@! TD*
G04 #@! TO.P,J2,2*
G04 #@! TO.N,GND*
X0001375000Y0001219881D03*
X0001375000Y0001019881D03*
G04 #@! TD*
D59*
G04 #@! TO.N,GND*
X0000225000Y0001219881D03*
X0000350000Y0001219881D03*
X0001100000Y0001219881D03*
X0001200000Y0001219881D03*
X0000950000Y0001019881D03*
X0000525000Y0001019881D03*
G04 #@! TD*
D60*
G04 #@! TO.N,GND*
X0000350000Y0001219881D02*
X0001100000Y0001219881D01*
X0001200000Y0001219881D02*
X0001375000Y0001219881D01*
X0001375000Y0001019881D02*
X0000950000Y0001019881D01*
X0000525000Y0001019881D02*
X0000100000Y0001019881D01*
X0000225000Y0001219881D02*
X0000100000Y0001219881D01*
G04 #@! TD*
D61*
G04 #@! TO.N,GND*
G36*
X0001445000Y0001274881D02*
X0001386250Y0001274881D01*
X0001380000Y0001268631D01*
X0001380000Y0001224881D01*
X0001380787Y0001224881D01*
X0001380787Y0001214881D01*
X0001380000Y0001214881D01*
X0001380000Y0001171131D01*
X0001386250Y0001164881D01*
X0001445000Y0001164881D01*
X0001445000Y0001074881D01*
X0001386250Y0001074881D01*
X0001380000Y0001068631D01*
X0001380000Y0001024881D01*
X0001380787Y0001024881D01*
X0001380787Y0001014881D01*
X0001380000Y0001014881D01*
X0001380000Y0001014094D01*
X0001370000Y0001014094D01*
X0001370000Y0001014881D01*
X0001276250Y0001014881D01*
X0001270000Y0001008631D01*
X0001270000Y0000984908D01*
X0001273806Y0000975720D01*
X0001276691Y0000972834D01*
X0000198308Y0000972834D01*
X0000201193Y0000975720D01*
X0000205000Y0000984908D01*
X0000205000Y0001008631D01*
X0000198750Y0001014881D01*
X0000105000Y0001014881D01*
X0000105000Y0001014094D01*
X0000095000Y0001014094D01*
X0000095000Y0001014881D01*
X0000094212Y0001014881D01*
X0000094212Y0001024881D01*
X0000095000Y0001024881D01*
X0000095000Y0001068631D01*
X0000105000Y0001068631D01*
X0000105000Y0001024881D01*
X0000198750Y0001024881D01*
X0000205000Y0001031131D01*
X0000205000Y0001054854D01*
X0001270000Y0001054854D01*
X0001270000Y0001031131D01*
X0001276250Y0001024881D01*
X0001370000Y0001024881D01*
X0001370000Y0001068631D01*
X0001363750Y0001074881D01*
X0001290027Y0001074881D01*
X0001280838Y0001071075D01*
X0001273806Y0001064043D01*
X0001270000Y0001054854D01*
X0000205000Y0001054854D01*
X0000201193Y0001064043D01*
X0000194161Y0001071075D01*
X0000184972Y0001074881D01*
X0000111250Y0001074881D01*
X0000105000Y0001068631D01*
X0000095000Y0001068631D01*
X0000088750Y0001074881D01*
X0000030000Y0001074881D01*
X0000030000Y0001164881D01*
X0000088750Y0001164881D01*
X0000095000Y0001171131D01*
X0000095000Y0001214881D01*
X0000105000Y0001214881D01*
X0000105000Y0001171131D01*
X0000111250Y0001164881D01*
X0000184972Y0001164881D01*
X0000194161Y0001168687D01*
X0000201193Y0001175720D01*
X0000205000Y0001184908D01*
X0000205000Y0001208631D01*
X0001270000Y0001208631D01*
X0001270000Y0001184908D01*
X0001273806Y0001175720D01*
X0001280838Y0001168687D01*
X0001290027Y0001164881D01*
X0001363750Y0001164881D01*
X0001370000Y0001171131D01*
X0001370000Y0001214881D01*
X0001276250Y0001214881D01*
X0001270000Y0001208631D01*
X0000205000Y0001208631D01*
X0000198750Y0001214881D01*
X0000105000Y0001214881D01*
X0000095000Y0001214881D01*
X0000094212Y0001214881D01*
X0000094212Y0001224881D01*
X0000095000Y0001224881D01*
X0000095000Y0001268631D01*
X0000105000Y0001268631D01*
X0000105000Y0001224881D01*
X0000198750Y0001224881D01*
X0000205000Y0001231131D01*
X0000205000Y0001254854D01*
X0001270000Y0001254854D01*
X0001270000Y0001231131D01*
X0001276250Y0001224881D01*
X0001370000Y0001224881D01*
X0001370000Y0001268631D01*
X0001363750Y0001274881D01*
X0001290027Y0001274881D01*
X0001280838Y0001271075D01*
X0001273806Y0001264043D01*
X0001270000Y0001254854D01*
X0000205000Y0001254854D01*
X0000201193Y0001264043D01*
X0000194161Y0001271075D01*
X0000184972Y0001274881D01*
X0000111250Y0001274881D01*
X0000105000Y0001268631D01*
X0000095000Y0001268631D01*
X0000088750Y0001274881D01*
X0000030000Y0001274881D01*
X0000030000Y0001291929D01*
X0001445000Y0001291929D01*
X0001445000Y0001274881D01*
X0001445000Y0001274881D01*
G37*
X0001445000Y0001274881D02*
X0001386250Y0001274881D01*
X0001380000Y0001268631D01*
X0001380000Y0001224881D01*
X0001380787Y0001224881D01*
X0001380787Y0001214881D01*
X0001380000Y0001214881D01*
X0001380000Y0001171131D01*
X0001386250Y0001164881D01*
X0001445000Y0001164881D01*
X0001445000Y0001074881D01*
X0001386250Y0001074881D01*
X0001380000Y0001068631D01*
X0001380000Y0001024881D01*
X0001380787Y0001024881D01*
X0001380787Y0001014881D01*
X0001380000Y0001014881D01*
X0001380000Y0001014094D01*
X0001370000Y0001014094D01*
X0001370000Y0001014881D01*
X0001276250Y0001014881D01*
X0001270000Y0001008631D01*
X0001270000Y0000984908D01*
X0001273806Y0000975720D01*
X0001276691Y0000972834D01*
X0000198308Y0000972834D01*
X0000201193Y0000975720D01*
X0000205000Y0000984908D01*
X0000205000Y0001008631D01*
X0000198750Y0001014881D01*
X0000105000Y0001014881D01*
X0000105000Y0001014094D01*
X0000095000Y0001014094D01*
X0000095000Y0001014881D01*
X0000094212Y0001014881D01*
X0000094212Y0001024881D01*
X0000095000Y0001024881D01*
X0000095000Y0001068631D01*
X0000105000Y0001068631D01*
X0000105000Y0001024881D01*
X0000198750Y0001024881D01*
X0000205000Y0001031131D01*
X0000205000Y0001054854D01*
X0001270000Y0001054854D01*
X0001270000Y0001031131D01*
X0001276250Y0001024881D01*
X0001370000Y0001024881D01*
X0001370000Y0001068631D01*
X0001363750Y0001074881D01*
X0001290027Y0001074881D01*
X0001280838Y0001071075D01*
X0001273806Y0001064043D01*
X0001270000Y0001054854D01*
X0000205000Y0001054854D01*
X0000201193Y0001064043D01*
X0000194161Y0001071075D01*
X0000184972Y0001074881D01*
X0000111250Y0001074881D01*
X0000105000Y0001068631D01*
X0000095000Y0001068631D01*
X0000088750Y0001074881D01*
X0000030000Y0001074881D01*
X0000030000Y0001164881D01*
X0000088750Y0001164881D01*
X0000095000Y0001171131D01*
X0000095000Y0001214881D01*
X0000105000Y0001214881D01*
X0000105000Y0001171131D01*
X0000111250Y0001164881D01*
X0000184972Y0001164881D01*
X0000194161Y0001168687D01*
X0000201193Y0001175720D01*
X0000205000Y0001184908D01*
X0000205000Y0001208631D01*
X0001270000Y0001208631D01*
X0001270000Y0001184908D01*
X0001273806Y0001175720D01*
X0001280838Y0001168687D01*
X0001290027Y0001164881D01*
X0001363750Y0001164881D01*
X0001370000Y0001171131D01*
X0001370000Y0001214881D01*
X0001276250Y0001214881D01*
X0001270000Y0001208631D01*
X0000205000Y0001208631D01*
X0000198750Y0001214881D01*
X0000105000Y0001214881D01*
X0000095000Y0001214881D01*
X0000094212Y0001214881D01*
X0000094212Y0001224881D01*
X0000095000Y0001224881D01*
X0000095000Y0001268631D01*
X0000105000Y0001268631D01*
X0000105000Y0001224881D01*
X0000198750Y0001224881D01*
X0000205000Y0001231131D01*
X0000205000Y0001254854D01*
X0001270000Y0001254854D01*
X0001270000Y0001231131D01*
X0001276250Y0001224881D01*
X0001370000Y0001224881D01*
X0001370000Y0001268631D01*
X0001363750Y0001274881D01*
X0001290027Y0001274881D01*
X0001280838Y0001271075D01*
X0001273806Y0001264043D01*
X0001270000Y0001254854D01*
X0000205000Y0001254854D01*
X0000201193Y0001264043D01*
X0000194161Y0001271075D01*
X0000184972Y0001274881D01*
X0000111250Y0001274881D01*
X0000105000Y0001268631D01*
X0000095000Y0001268631D01*
X0000088750Y0001274881D01*
X0000030000Y0001274881D01*
X0000030000Y0001291929D01*
X0001445000Y0001291929D01*
X0001445000Y0001274881D01*
G04 #@! TD*
G04 next file*
G04 #@! TF.GenerationSoftware,KiCad,Pcbnew,5.0.1*
G04 #@! TF.CreationDate,2018-12-27T15:25:58+01:00*
G04 #@! TF.ProjectId,Filter3Ord,46696C746572334F72642E6B69636164,rev?*
G04 #@! TF.SameCoordinates,Original*
G04 #@! TF.FileFunction,Copper,L2,Bot,Signal*
G04 #@! TF.FilePolarity,Positive*
G04 Gerber Fmt 4.6, Leading zero omitted, Abs format (unit mm)*
G04 Created by KiCad (PCBNEW 5.0.1) date Do 27 Dez 2018 15:25:58 CET*
G01*
G04 APERTURE LIST*
G04 #@! TA.AperFunction,SMDPad,CuDef*
G04 #@! TD*
G04 #@! TA.AperFunction,ViaPad*
G04 #@! TD*
G04 #@! TA.AperFunction,Conductor*
G04 #@! TD*
G04 #@! TA.AperFunction,Conductor*
G04 #@! TD*
G04 APERTURE END LIST*
D62*
G04 #@! TO.P,J1,2*
G04 #@! TO.N,GND*
X-0000354330Y-0003779527D02*
X0003845669Y0000895472D03*
X0003645669Y0000895472D03*
G04 #@! TD*
G04 #@! TO.P,J2,2*
G04 #@! TO.N,GND*
X0003645669Y0002200472D03*
X0003845669Y0002200472D03*
G04 #@! TD*
D63*
G04 #@! TO.N,GND*
X0003645669Y0001045472D03*
X0003645669Y0001145472D03*
X0003645669Y0001245472D03*
X0003645669Y0001345472D03*
X0003645669Y0001445472D03*
X0003645669Y0001545472D03*
X0003645669Y0001645472D03*
X0003645669Y0001745472D03*
X0003645669Y0001845472D03*
X0003645669Y0001945472D03*
X0003645669Y0002045472D03*
X0003845669Y0001020472D03*
X0003845669Y0002095472D03*
G04 #@! TD*
D64*
G04 #@! TO.N,GND*
X0003645669Y0001045472D02*
X0003645669Y0001145472D01*
X0003645669Y0001245472D02*
X0003645669Y0001345472D01*
X0003645669Y0001445472D02*
X0003645669Y0001545472D01*
X0003645669Y0001645472D02*
X0003645669Y0001745472D01*
X0003645669Y0001845472D02*
X0003645669Y0001945472D01*
G04 #@! TD*
D65*
G04 #@! TO.N,GND*
G36*
X0003634419Y0002095472D02*
X0003640669Y0002101722D01*
X0003640669Y0002195472D01*
X0003639881Y0002195472D01*
X0003639881Y0002205472D01*
X0003640669Y0002205472D01*
X0003640669Y0002206259D01*
X0003650669Y0002206259D01*
X0003650669Y0002205472D01*
X0003694419Y0002205472D01*
X0003700669Y0002211722D01*
X0003700669Y0002265472D01*
X0003790669Y0002265472D01*
X0003790669Y0002211722D01*
X0003796919Y0002205472D01*
X0003840669Y0002205472D01*
X0003840669Y0002206259D01*
X0003850669Y0002206259D01*
X0003850669Y0002205472D01*
X0003851456Y0002205472D01*
X0003851456Y0002195472D01*
X0003850669Y0002195472D01*
X0003850669Y0002101722D01*
X0003856919Y0002095472D01*
X0003880642Y0002095472D01*
X0003889830Y0002099278D01*
X0003892716Y0002102164D01*
X0003892716Y0000993780D01*
X0003889830Y0000996666D01*
X0003880642Y0001000472D01*
X0003856919Y0001000472D01*
X0003850669Y0000994222D01*
X0003850669Y0000900472D01*
X0003851456Y0000900472D01*
X0003851456Y0000890472D01*
X0003850669Y0000890472D01*
X0003850669Y0000889685D01*
X0003840669Y0000889685D01*
X0003840669Y0000890472D01*
X0003796919Y0000890472D01*
X0003796919Y0000900472D01*
X0003840669Y0000900472D01*
X0003840669Y0000994222D01*
X0003834419Y0001000472D01*
X0003810696Y0001000472D01*
X0003810696Y0002095472D01*
X0003834419Y0002095472D01*
X0003840669Y0002101722D01*
X0003840669Y0002195472D01*
X0003796919Y0002195472D01*
X0003790669Y0002189222D01*
X0003790669Y0002115499D01*
X0003794475Y0002106311D01*
X0003801507Y0002099278D01*
X0003810696Y0002095472D01*
X0003810696Y0001000472D01*
X0003801507Y0000996666D01*
X0003794475Y0000989633D01*
X0003790669Y0000980445D01*
X0003790669Y0000906722D01*
X0003796919Y0000900472D01*
X0003796919Y0000890472D01*
X0003790669Y0000884222D01*
X0003790669Y0000825472D01*
X0003700669Y0000825472D01*
X0003700669Y0000884222D01*
X0003694419Y0000890472D01*
X0003650669Y0000890472D01*
X0003650669Y0000900472D01*
X0003694419Y0000900472D01*
X0003700669Y0000906722D01*
X0003700669Y0000980445D01*
X0003696863Y0000989633D01*
X0003689830Y0000996666D01*
X0003680642Y0001000472D01*
X0003656919Y0001000472D01*
X0003656919Y0002095472D01*
X0003680642Y0002095472D01*
X0003689830Y0002099278D01*
X0003696863Y0002106311D01*
X0003700669Y0002115499D01*
X0003700669Y0002189222D01*
X0003694419Y0002195472D01*
X0003650669Y0002195472D01*
X0003650669Y0002101722D01*
X0003656919Y0002095472D01*
X0003656919Y0001000472D01*
X0003650669Y0000994222D01*
X0003650669Y0000900472D01*
X0003650669Y0000890472D01*
X0003650669Y0000889685D01*
X0003640669Y0000889685D01*
X0003640669Y0000890472D01*
X0003639881Y0000890472D01*
X0003639881Y0000900472D01*
X0003640669Y0000900472D01*
X0003640669Y0000994222D01*
X0003634419Y0001000472D01*
X0003623622Y0001000472D01*
X0003623622Y0002095472D01*
X0003634419Y0002095472D01*
X0003634419Y0002095472D01*
G37*
X0003634419Y0002095472D02*
X0003640669Y0002101722D01*
X0003640669Y0002195472D01*
X0003639881Y0002195472D01*
X0003639881Y0002205472D01*
X0003640669Y0002205472D01*
X0003640669Y0002206259D01*
X0003650669Y0002206259D01*
X0003650669Y0002205472D01*
X0003694419Y0002205472D01*
X0003700669Y0002211722D01*
X0003700669Y0002265472D01*
X0003790669Y0002265472D01*
X0003790669Y0002211722D01*
X0003796919Y0002205472D01*
X0003840669Y0002205472D01*
X0003840669Y0002206259D01*
X0003850669Y0002206259D01*
X0003850669Y0002205472D01*
X0003851456Y0002205472D01*
X0003851456Y0002195472D01*
X0003850669Y0002195472D01*
X0003850669Y0002101722D01*
X0003856919Y0002095472D01*
X0003880642Y0002095472D01*
X0003889830Y0002099278D01*
X0003892716Y0002102164D01*
X0003892716Y0000993780D01*
X0003889830Y0000996666D01*
X0003880642Y0001000472D01*
X0003856919Y0001000472D01*
X0003850669Y0000994222D01*
X0003850669Y0000900472D01*
X0003851456Y0000900472D01*
X0003851456Y0000890472D01*
X0003850669Y0000890472D01*
X0003850669Y0000889685D01*
X0003840669Y0000889685D01*
X0003840669Y0000890472D01*
X0003796919Y0000890472D01*
X0003796919Y0000900472D01*
X0003840669Y0000900472D01*
X0003840669Y0000994222D01*
X0003834419Y0001000472D01*
X0003810696Y0001000472D01*
X0003810696Y0002095472D01*
X0003834419Y0002095472D01*
X0003840669Y0002101722D01*
X0003840669Y0002195472D01*
X0003796919Y0002195472D01*
X0003790669Y0002189222D01*
X0003790669Y0002115499D01*
X0003794475Y0002106311D01*
X0003801507Y0002099278D01*
X0003810696Y0002095472D01*
X0003810696Y0001000472D01*
X0003801507Y0000996666D01*
X0003794475Y0000989633D01*
X0003790669Y0000980445D01*
X0003790669Y0000906722D01*
X0003796919Y0000900472D01*
X0003796919Y0000890472D01*
X0003790669Y0000884222D01*
X0003790669Y0000825472D01*
X0003700669Y0000825472D01*
X0003700669Y0000884222D01*
X0003694419Y0000890472D01*
X0003650669Y0000890472D01*
X0003650669Y0000900472D01*
X0003694419Y0000900472D01*
X0003700669Y0000906722D01*
X0003700669Y0000980445D01*
X0003696863Y0000989633D01*
X0003689830Y0000996666D01*
X0003680642Y0001000472D01*
X0003656919Y0001000472D01*
X0003656919Y0002095472D01*
X0003680642Y0002095472D01*
X0003689830Y0002099278D01*
X0003696863Y0002106311D01*
X0003700669Y0002115499D01*
X0003700669Y0002189222D01*
X0003694419Y0002195472D01*
X0003650669Y0002195472D01*
X0003650669Y0002101722D01*
X0003656919Y0002095472D01*
X0003656919Y0001000472D01*
X0003650669Y0000994222D01*
X0003650669Y0000900472D01*
X0003650669Y0000890472D01*
X0003650669Y0000889685D01*
X0003640669Y0000889685D01*
X0003640669Y0000890472D01*
X0003639881Y0000890472D01*
X0003639881Y0000900472D01*
X0003640669Y0000900472D01*
X0003640669Y0000994222D01*
X0003634419Y0001000472D01*
X0003623622Y0001000472D01*
X0003623622Y0002095472D01*
X0003634419Y0002095472D01*
G04 #@! TD*
G04 next file*
G04 #@! TF.GenerationSoftware,KiCad,Pcbnew,5.0.1*
G04 #@! TF.CreationDate,2018-12-27T15:02:32+01:00*
G04 #@! TF.ProjectId,PiAttenuator,5069417474656E7561746F722E6B6963,rev?*
G04 #@! TF.SameCoordinates,Original*
G04 #@! TF.FileFunction,Copper,L2,Bot,Signal*
G04 #@! TF.FilePolarity,Positive*
G04 Gerber Fmt 4.6, Leading zero omitted, Abs format (unit mm)*
G04 Created by KiCad (PCBNEW 5.0.1) date Do 27 Dez 2018 15:02:32 CET*
G01*
G04 APERTURE LIST*
G04 #@! TA.AperFunction,SMDPad,CuDef*
G04 #@! TD*
G04 #@! TA.AperFunction,ViaPad*
G04 #@! TD*
G04 #@! TA.AperFunction,Conductor*
G04 #@! TD*
G04 #@! TA.AperFunction,Conductor*
G04 #@! TD*
G04 APERTURE END LIST*
D66*
G04 #@! TO.P,J1,2*
G04 #@! TO.N,GND*
X-0001502125Y-0000767873D02*
X0001697874Y0003082126D03*
X0001897874Y0003082126D03*
G04 #@! TD*
G04 #@! TO.P,J2,2*
G04 #@! TO.N,GND*
X0001897874Y0003732126D03*
X0001697874Y0003732126D03*
G04 #@! TD*
D67*
G04 #@! TO.N,GND*
X0001697874Y0003212126D03*
X0001697874Y0003252126D03*
X0001697874Y0003292126D03*
X0001697874Y0003342126D03*
X0001967874Y0003082126D03*
X0001967874Y0003122126D03*
X0001967874Y0003162126D03*
X0001967874Y0003212126D03*
X0001967874Y0003212126D03*
X0001967874Y0003212126D03*
X0001967874Y0003352126D03*
X0001967874Y0003392126D03*
X0001967874Y0003442126D03*
X0001967874Y0003482126D03*
X0001967874Y0003602126D03*
X0001967874Y0003642126D03*
X0001967874Y0003692126D03*
X0001697874Y0003492126D03*
X0001697874Y0003542126D03*
X0001697874Y0003602126D03*
G04 #@! TD*
D68*
G04 #@! TO.N,GND*
X0001697874Y0003212126D02*
X0001697874Y0003252126D01*
X0001697874Y0003292126D02*
X0001697874Y0003322126D01*
X0001697874Y0003322126D02*
X0001697874Y0003342126D01*
X0001967874Y0003082126D02*
X0001967874Y0003122126D01*
X0001967874Y0003162126D02*
X0001967874Y0003212126D01*
X0001967874Y0003212126D02*
X0001967874Y0003352126D01*
X0001967874Y0003392126D02*
X0001967874Y0003442126D01*
X0001967874Y0003482126D02*
X0001967874Y0003602126D01*
X0001967874Y0003642126D02*
X0001967874Y0003692126D01*
X0001697874Y0003492126D02*
X0001697874Y0003542126D01*
G04 #@! TD*
D69*
G04 #@! TO.N,GND*
G36*
X0001642874Y0003777126D02*
X0001642874Y0003743376D01*
X0001649124Y0003737126D01*
X0001692874Y0003737126D01*
X0001692874Y0003737913D01*
X0001702874Y0003737913D01*
X0001702874Y0003737126D01*
X0001746624Y0003737126D01*
X0001752874Y0003743376D01*
X0001752874Y0003777126D01*
X0001842874Y0003777126D01*
X0001842874Y0003743376D01*
X0001849124Y0003737126D01*
X0001892874Y0003737126D01*
X0001892874Y0003737913D01*
X0001902874Y0003737913D01*
X0001902874Y0003737126D01*
X0001946624Y0003737126D01*
X0001952874Y0003743376D01*
X0001952874Y0003777126D01*
X0001979921Y0003777126D01*
X0001979921Y0003037126D01*
X0001952874Y0003037126D01*
X0001952874Y0003070876D01*
X0001946624Y0003077126D01*
X0001902874Y0003077126D01*
X0001902874Y0003087126D01*
X0001946624Y0003087126D01*
X0001952874Y0003093376D01*
X0001952874Y0003167098D01*
X0001949067Y0003176287D01*
X0001942035Y0003183320D01*
X0001932846Y0003187126D01*
X0001909124Y0003187126D01*
X0001909124Y0003627126D01*
X0001932846Y0003627126D01*
X0001942035Y0003630932D01*
X0001949067Y0003637964D01*
X0001952874Y0003647153D01*
X0001952874Y0003720876D01*
X0001946624Y0003727126D01*
X0001902874Y0003727126D01*
X0001902874Y0003633376D01*
X0001909124Y0003627126D01*
X0001909124Y0003187126D01*
X0001902874Y0003180876D01*
X0001902874Y0003087126D01*
X0001902874Y0003077126D01*
X0001902874Y0003076338D01*
X0001892874Y0003076338D01*
X0001892874Y0003077126D01*
X0001849124Y0003077126D01*
X0001849124Y0003087126D01*
X0001892874Y0003087126D01*
X0001892874Y0003180876D01*
X0001886624Y0003187126D01*
X0001862901Y0003187126D01*
X0001862901Y0003627126D01*
X0001886624Y0003627126D01*
X0001892874Y0003633376D01*
X0001892874Y0003727126D01*
X0001849124Y0003727126D01*
X0001842874Y0003720876D01*
X0001842874Y0003647153D01*
X0001846680Y0003637964D01*
X0001853712Y0003630932D01*
X0001862901Y0003627126D01*
X0001862901Y0003187126D01*
X0001853712Y0003183320D01*
X0001846680Y0003176287D01*
X0001842874Y0003167098D01*
X0001842874Y0003093376D01*
X0001849124Y0003087126D01*
X0001849124Y0003077126D01*
X0001842874Y0003070876D01*
X0001842874Y0003037126D01*
X0001752874Y0003037126D01*
X0001752874Y0003070876D01*
X0001746624Y0003077126D01*
X0001702874Y0003077126D01*
X0001702874Y0003087126D01*
X0001746624Y0003087126D01*
X0001752874Y0003093376D01*
X0001752874Y0003167098D01*
X0001749067Y0003176287D01*
X0001742035Y0003183320D01*
X0001732846Y0003187126D01*
X0001709124Y0003187126D01*
X0001709124Y0003627126D01*
X0001732846Y0003627126D01*
X0001742035Y0003630932D01*
X0001749067Y0003637964D01*
X0001752874Y0003647153D01*
X0001752874Y0003720876D01*
X0001746624Y0003727126D01*
X0001702874Y0003727126D01*
X0001702874Y0003633376D01*
X0001709124Y0003627126D01*
X0001709124Y0003187126D01*
X0001702874Y0003180876D01*
X0001702874Y0003087126D01*
X0001702874Y0003077126D01*
X0001702874Y0003076338D01*
X0001692874Y0003076338D01*
X0001692874Y0003077126D01*
X0001649124Y0003077126D01*
X0001649124Y0003087126D01*
X0001692874Y0003087126D01*
X0001692874Y0003180876D01*
X0001686624Y0003187126D01*
X0001662901Y0003187126D01*
X0001662901Y0003627126D01*
X0001686624Y0003627126D01*
X0001692874Y0003633376D01*
X0001692874Y0003727126D01*
X0001649124Y0003727126D01*
X0001642874Y0003720876D01*
X0001642874Y0003647153D01*
X0001646680Y0003637964D01*
X0001653712Y0003630932D01*
X0001662901Y0003627126D01*
X0001662901Y0003187126D01*
X0001653712Y0003183320D01*
X0001646680Y0003176287D01*
X0001642874Y0003167098D01*
X0001642874Y0003093376D01*
X0001649124Y0003087126D01*
X0001649124Y0003077126D01*
X0001642874Y0003070876D01*
X0001642874Y0003037126D01*
X0001615826Y0003037126D01*
X0001615826Y0003777126D01*
X0001642874Y0003777126D01*
X0001642874Y0003777126D01*
G37*
X0001642874Y0003777126D02*
X0001642874Y0003743376D01*
X0001649124Y0003737126D01*
X0001692874Y0003737126D01*
X0001692874Y0003737913D01*
X0001702874Y0003737913D01*
X0001702874Y0003737126D01*
X0001746624Y0003737126D01*
X0001752874Y0003743376D01*
X0001752874Y0003777126D01*
X0001842874Y0003777126D01*
X0001842874Y0003743376D01*
X0001849124Y0003737126D01*
X0001892874Y0003737126D01*
X0001892874Y0003737913D01*
X0001902874Y0003737913D01*
X0001902874Y0003737126D01*
X0001946624Y0003737126D01*
X0001952874Y0003743376D01*
X0001952874Y0003777126D01*
X0001979921Y0003777126D01*
X0001979921Y0003037126D01*
X0001952874Y0003037126D01*
X0001952874Y0003070876D01*
X0001946624Y0003077126D01*
X0001902874Y0003077126D01*
X0001902874Y0003087126D01*
X0001946624Y0003087126D01*
X0001952874Y0003093376D01*
X0001952874Y0003167098D01*
X0001949067Y0003176287D01*
X0001942035Y0003183320D01*
X0001932846Y0003187126D01*
X0001909124Y0003187126D01*
X0001909124Y0003627126D01*
X0001932846Y0003627126D01*
X0001942035Y0003630932D01*
X0001949067Y0003637964D01*
X0001952874Y0003647153D01*
X0001952874Y0003720876D01*
X0001946624Y0003727126D01*
X0001902874Y0003727126D01*
X0001902874Y0003633376D01*
X0001909124Y0003627126D01*
X0001909124Y0003187126D01*
X0001902874Y0003180876D01*
X0001902874Y0003087126D01*
X0001902874Y0003077126D01*
X0001902874Y0003076338D01*
X0001892874Y0003076338D01*
X0001892874Y0003077126D01*
X0001849124Y0003077126D01*
X0001849124Y0003087126D01*
X0001892874Y0003087126D01*
X0001892874Y0003180876D01*
X0001886624Y0003187126D01*
X0001862901Y0003187126D01*
X0001862901Y0003627126D01*
X0001886624Y0003627126D01*
X0001892874Y0003633376D01*
X0001892874Y0003727126D01*
X0001849124Y0003727126D01*
X0001842874Y0003720876D01*
X0001842874Y0003647153D01*
X0001846680Y0003637964D01*
X0001853712Y0003630932D01*
X0001862901Y0003627126D01*
X0001862901Y0003187126D01*
X0001853712Y0003183320D01*
X0001846680Y0003176287D01*
X0001842874Y0003167098D01*
X0001842874Y0003093376D01*
X0001849124Y0003087126D01*
X0001849124Y0003077126D01*
X0001842874Y0003070876D01*
X0001842874Y0003037126D01*
X0001752874Y0003037126D01*
X0001752874Y0003070876D01*
X0001746624Y0003077126D01*
X0001702874Y0003077126D01*
X0001702874Y0003087126D01*
X0001746624Y0003087126D01*
X0001752874Y0003093376D01*
X0001752874Y0003167098D01*
X0001749067Y0003176287D01*
X0001742035Y0003183320D01*
X0001732846Y0003187126D01*
X0001709124Y0003187126D01*
X0001709124Y0003627126D01*
X0001732846Y0003627126D01*
X0001742035Y0003630932D01*
X0001749067Y0003637964D01*
X0001752874Y0003647153D01*
X0001752874Y0003720876D01*
X0001746624Y0003727126D01*
X0001702874Y0003727126D01*
X0001702874Y0003633376D01*
X0001709124Y0003627126D01*
X0001709124Y0003187126D01*
X0001702874Y0003180876D01*
X0001702874Y0003087126D01*
X0001702874Y0003077126D01*
X0001702874Y0003076338D01*
X0001692874Y0003076338D01*
X0001692874Y0003077126D01*
X0001649124Y0003077126D01*
X0001649124Y0003087126D01*
X0001692874Y0003087126D01*
X0001692874Y0003180876D01*
X0001686624Y0003187126D01*
X0001662901Y0003187126D01*
X0001662901Y0003627126D01*
X0001686624Y0003627126D01*
X0001692874Y0003633376D01*
X0001692874Y0003727126D01*
X0001649124Y0003727126D01*
X0001642874Y0003720876D01*
X0001642874Y0003647153D01*
X0001646680Y0003637964D01*
X0001653712Y0003630932D01*
X0001662901Y0003627126D01*
X0001662901Y0003187126D01*
X0001653712Y0003183320D01*
X0001646680Y0003176287D01*
X0001642874Y0003167098D01*
X0001642874Y0003093376D01*
X0001649124Y0003087126D01*
X0001649124Y0003077126D01*
X0001642874Y0003070876D01*
X0001642874Y0003037126D01*
X0001615826Y0003037126D01*
X0001615826Y0003777126D01*
X0001642874Y0003777126D01*
G04 #@! TD*
G04 next file*
G04 #@! TF.GenerationSoftware,KiCad,Pcbnew,5.0.1*
G04 #@! TF.CreationDate,2018-12-27T15:02:32+01:00*
G04 #@! TF.ProjectId,PiAttenuator,5069417474656E7561746F722E6B6963,rev?*
G04 #@! TF.SameCoordinates,Original*
G04 #@! TF.FileFunction,Copper,L2,Bot,Signal*
G04 #@! TF.FilePolarity,Positive*
G04 Gerber Fmt 4.6, Leading zero omitted, Abs format (unit mm)*
G04 Created by KiCad (PCBNEW 5.0.1) date Do 27 Dez 2018 15:02:32 CET*
G01*
G04 APERTURE LIST*
G04 #@! TA.AperFunction,SMDPad,CuDef*
G04 #@! TD*
G04 #@! TA.AperFunction,ViaPad*
G04 #@! TD*
G04 #@! TA.AperFunction,Conductor*
G04 #@! TD*
G04 #@! TA.AperFunction,Conductor*
G04 #@! TD*
G04 APERTURE END LIST*
D70*
G04 #@! TO.P,J1,2*
G04 #@! TO.N,GND*
X-0000990314Y-0000767873D02*
X0002209685Y0003082126D03*
X0002409685Y0003082126D03*
G04 #@! TD*
G04 #@! TO.P,J2,2*
G04 #@! TO.N,GND*
X0002409685Y0003732126D03*
X0002209685Y0003732126D03*
G04 #@! TD*
D71*
G04 #@! TO.N,GND*
X0002209685Y0003212126D03*
X0002209685Y0003252126D03*
X0002209685Y0003292126D03*
X0002209685Y0003342126D03*
X0002479685Y0003082126D03*
X0002479685Y0003122126D03*
X0002479685Y0003162126D03*
X0002479685Y0003212126D03*
X0002479685Y0003212126D03*
X0002479685Y0003212126D03*
X0002479685Y0003352126D03*
X0002479685Y0003392126D03*
X0002479685Y0003442126D03*
X0002479685Y0003482126D03*
X0002479685Y0003602126D03*
X0002479685Y0003642126D03*
X0002479685Y0003692126D03*
X0002209685Y0003492126D03*
X0002209685Y0003542126D03*
X0002209685Y0003602126D03*
G04 #@! TD*
D72*
G04 #@! TO.N,GND*
X0002209685Y0003212126D02*
X0002209685Y0003252126D01*
X0002209685Y0003292126D02*
X0002209685Y0003322126D01*
X0002209685Y0003322126D02*
X0002209685Y0003342126D01*
X0002479685Y0003082126D02*
X0002479685Y0003122126D01*
X0002479685Y0003162126D02*
X0002479685Y0003212126D01*
X0002479685Y0003212126D02*
X0002479685Y0003352126D01*
X0002479685Y0003392126D02*
X0002479685Y0003442126D01*
X0002479685Y0003482126D02*
X0002479685Y0003602126D01*
X0002479685Y0003642126D02*
X0002479685Y0003692126D01*
X0002209685Y0003492126D02*
X0002209685Y0003542126D01*
G04 #@! TD*
D73*
G04 #@! TO.N,GND*
G36*
X0002154685Y0003777126D02*
X0002154685Y0003743376D01*
X0002160935Y0003737126D01*
X0002204685Y0003737126D01*
X0002204685Y0003737913D01*
X0002214685Y0003737913D01*
X0002214685Y0003737126D01*
X0002258435Y0003737126D01*
X0002264685Y0003743376D01*
X0002264685Y0003777126D01*
X0002354685Y0003777126D01*
X0002354685Y0003743376D01*
X0002360935Y0003737126D01*
X0002404685Y0003737126D01*
X0002404685Y0003737913D01*
X0002414685Y0003737913D01*
X0002414685Y0003737126D01*
X0002458435Y0003737126D01*
X0002464685Y0003743376D01*
X0002464685Y0003777126D01*
X0002491732Y0003777126D01*
X0002491732Y0003037126D01*
X0002464685Y0003037126D01*
X0002464685Y0003070876D01*
X0002458435Y0003077126D01*
X0002414685Y0003077126D01*
X0002414685Y0003087126D01*
X0002458435Y0003087126D01*
X0002464685Y0003093376D01*
X0002464685Y0003167098D01*
X0002460879Y0003176287D01*
X0002453846Y0003183320D01*
X0002444657Y0003187126D01*
X0002420935Y0003187126D01*
X0002420935Y0003627126D01*
X0002444657Y0003627126D01*
X0002453846Y0003630932D01*
X0002460879Y0003637964D01*
X0002464685Y0003647153D01*
X0002464685Y0003720876D01*
X0002458435Y0003727126D01*
X0002414685Y0003727126D01*
X0002414685Y0003633376D01*
X0002420935Y0003627126D01*
X0002420935Y0003187126D01*
X0002414685Y0003180876D01*
X0002414685Y0003087126D01*
X0002414685Y0003077126D01*
X0002414685Y0003076338D01*
X0002404685Y0003076338D01*
X0002404685Y0003077126D01*
X0002360935Y0003077126D01*
X0002360935Y0003087126D01*
X0002404685Y0003087126D01*
X0002404685Y0003180876D01*
X0002398435Y0003187126D01*
X0002374712Y0003187126D01*
X0002374712Y0003627126D01*
X0002398435Y0003627126D01*
X0002404685Y0003633376D01*
X0002404685Y0003727126D01*
X0002360935Y0003727126D01*
X0002354685Y0003720876D01*
X0002354685Y0003647153D01*
X0002358491Y0003637964D01*
X0002365523Y0003630932D01*
X0002374712Y0003627126D01*
X0002374712Y0003187126D01*
X0002365523Y0003183320D01*
X0002358491Y0003176287D01*
X0002354685Y0003167098D01*
X0002354685Y0003093376D01*
X0002360935Y0003087126D01*
X0002360935Y0003077126D01*
X0002354685Y0003070876D01*
X0002354685Y0003037126D01*
X0002264685Y0003037126D01*
X0002264685Y0003070876D01*
X0002258435Y0003077126D01*
X0002214685Y0003077126D01*
X0002214685Y0003087126D01*
X0002258435Y0003087126D01*
X0002264685Y0003093376D01*
X0002264685Y0003167098D01*
X0002260879Y0003176287D01*
X0002253846Y0003183320D01*
X0002244657Y0003187126D01*
X0002220935Y0003187126D01*
X0002220935Y0003627126D01*
X0002244657Y0003627126D01*
X0002253846Y0003630932D01*
X0002260879Y0003637964D01*
X0002264685Y0003647153D01*
X0002264685Y0003720876D01*
X0002258435Y0003727126D01*
X0002214685Y0003727126D01*
X0002214685Y0003633376D01*
X0002220935Y0003627126D01*
X0002220935Y0003187126D01*
X0002214685Y0003180876D01*
X0002214685Y0003087126D01*
X0002214685Y0003077126D01*
X0002214685Y0003076338D01*
X0002204685Y0003076338D01*
X0002204685Y0003077126D01*
X0002160935Y0003077126D01*
X0002160935Y0003087126D01*
X0002204685Y0003087126D01*
X0002204685Y0003180876D01*
X0002198435Y0003187126D01*
X0002174712Y0003187126D01*
X0002174712Y0003627126D01*
X0002198435Y0003627126D01*
X0002204685Y0003633376D01*
X0002204685Y0003727126D01*
X0002160935Y0003727126D01*
X0002154685Y0003720876D01*
X0002154685Y0003647153D01*
X0002158491Y0003637964D01*
X0002165523Y0003630932D01*
X0002174712Y0003627126D01*
X0002174712Y0003187126D01*
X0002165523Y0003183320D01*
X0002158491Y0003176287D01*
X0002154685Y0003167098D01*
X0002154685Y0003093376D01*
X0002160935Y0003087126D01*
X0002160935Y0003077126D01*
X0002154685Y0003070876D01*
X0002154685Y0003037126D01*
X0002127637Y0003037126D01*
X0002127637Y0003777126D01*
X0002154685Y0003777126D01*
X0002154685Y0003777126D01*
G37*
X0002154685Y0003777126D02*
X0002154685Y0003743376D01*
X0002160935Y0003737126D01*
X0002204685Y0003737126D01*
X0002204685Y0003737913D01*
X0002214685Y0003737913D01*
X0002214685Y0003737126D01*
X0002258435Y0003737126D01*
X0002264685Y0003743376D01*
X0002264685Y0003777126D01*
X0002354685Y0003777126D01*
X0002354685Y0003743376D01*
X0002360935Y0003737126D01*
X0002404685Y0003737126D01*
X0002404685Y0003737913D01*
X0002414685Y0003737913D01*
X0002414685Y0003737126D01*
X0002458435Y0003737126D01*
X0002464685Y0003743376D01*
X0002464685Y0003777126D01*
X0002491732Y0003777126D01*
X0002491732Y0003037126D01*
X0002464685Y0003037126D01*
X0002464685Y0003070876D01*
X0002458435Y0003077126D01*
X0002414685Y0003077126D01*
X0002414685Y0003087126D01*
X0002458435Y0003087126D01*
X0002464685Y0003093376D01*
X0002464685Y0003167098D01*
X0002460879Y0003176287D01*
X0002453846Y0003183320D01*
X0002444657Y0003187126D01*
X0002420935Y0003187126D01*
X0002420935Y0003627126D01*
X0002444657Y0003627126D01*
X0002453846Y0003630932D01*
X0002460879Y0003637964D01*
X0002464685Y0003647153D01*
X0002464685Y0003720876D01*
X0002458435Y0003727126D01*
X0002414685Y0003727126D01*
X0002414685Y0003633376D01*
X0002420935Y0003627126D01*
X0002420935Y0003187126D01*
X0002414685Y0003180876D01*
X0002414685Y0003087126D01*
X0002414685Y0003077126D01*
X0002414685Y0003076338D01*
X0002404685Y0003076338D01*
X0002404685Y0003077126D01*
X0002360935Y0003077126D01*
X0002360935Y0003087126D01*
X0002404685Y0003087126D01*
X0002404685Y0003180876D01*
X0002398435Y0003187126D01*
X0002374712Y0003187126D01*
X0002374712Y0003627126D01*
X0002398435Y0003627126D01*
X0002404685Y0003633376D01*
X0002404685Y0003727126D01*
X0002360935Y0003727126D01*
X0002354685Y0003720876D01*
X0002354685Y0003647153D01*
X0002358491Y0003637964D01*
X0002365523Y0003630932D01*
X0002374712Y0003627126D01*
X0002374712Y0003187126D01*
X0002365523Y0003183320D01*
X0002358491Y0003176287D01*
X0002354685Y0003167098D01*
X0002354685Y0003093376D01*
X0002360935Y0003087126D01*
X0002360935Y0003077126D01*
X0002354685Y0003070876D01*
X0002354685Y0003037126D01*
X0002264685Y0003037126D01*
X0002264685Y0003070876D01*
X0002258435Y0003077126D01*
X0002214685Y0003077126D01*
X0002214685Y0003087126D01*
X0002258435Y0003087126D01*
X0002264685Y0003093376D01*
X0002264685Y0003167098D01*
X0002260879Y0003176287D01*
X0002253846Y0003183320D01*
X0002244657Y0003187126D01*
X0002220935Y0003187126D01*
X0002220935Y0003627126D01*
X0002244657Y0003627126D01*
X0002253846Y0003630932D01*
X0002260879Y0003637964D01*
X0002264685Y0003647153D01*
X0002264685Y0003720876D01*
X0002258435Y0003727126D01*
X0002214685Y0003727126D01*
X0002214685Y0003633376D01*
X0002220935Y0003627126D01*
X0002220935Y0003187126D01*
X0002214685Y0003180876D01*
X0002214685Y0003087126D01*
X0002214685Y0003077126D01*
X0002214685Y0003076338D01*
X0002204685Y0003076338D01*
X0002204685Y0003077126D01*
X0002160935Y0003077126D01*
X0002160935Y0003087126D01*
X0002204685Y0003087126D01*
X0002204685Y0003180876D01*
X0002198435Y0003187126D01*
X0002174712Y0003187126D01*
X0002174712Y0003627126D01*
X0002198435Y0003627126D01*
X0002204685Y0003633376D01*
X0002204685Y0003727126D01*
X0002160935Y0003727126D01*
X0002154685Y0003720876D01*
X0002154685Y0003647153D01*
X0002158491Y0003637964D01*
X0002165523Y0003630932D01*
X0002174712Y0003627126D01*
X0002174712Y0003187126D01*
X0002165523Y0003183320D01*
X0002158491Y0003176287D01*
X0002154685Y0003167098D01*
X0002154685Y0003093376D01*
X0002160935Y0003087126D01*
X0002160935Y0003077126D01*
X0002154685Y0003070876D01*
X0002154685Y0003037126D01*
X0002127637Y0003037126D01*
X0002127637Y0003777126D01*
X0002154685Y0003777126D01*
G04 #@! TD*
G04 next file*
G04 #@! TF.GenerationSoftware,KiCad,Pcbnew,5.0.1*
G04 #@! TF.CreationDate,2018-12-27T15:25:58+01:00*
G04 #@! TF.ProjectId,Filter3Ord,46696C746572334F72642E6B69636164,rev?*
G04 #@! TF.SameCoordinates,Original*
G04 #@! TF.FileFunction,Copper,L2,Bot,Signal*
G04 #@! TF.FilePolarity,Positive*
G04 Gerber Fmt 4.6, Leading zero omitted, Abs format (unit mm)*
G04 Created by KiCad (PCBNEW 5.0.1) date Do 27 Dez 2018 15:25:58 CET*
G01*
G04 APERTURE LIST*
G04 #@! TA.AperFunction,SMDPad,CuDef*
G04 #@! TD*
G04 #@! TA.AperFunction,ViaPad*
G04 #@! TD*
G04 #@! TA.AperFunction,Conductor*
G04 #@! TD*
G04 #@! TA.AperFunction,Conductor*
G04 #@! TD*
G04 APERTURE END LIST*
D74*
G04 #@! TO.P,J1,2*
G04 #@! TO.N,GND*
X-0002992125Y0004724409D02*
X0001682874Y0000524409D03*
X0001682874Y0000724409D03*
G04 #@! TD*
G04 #@! TO.P,J2,2*
G04 #@! TO.N,GND*
X0002987874Y0000724409D03*
X0002987874Y0000524409D03*
G04 #@! TD*
D75*
G04 #@! TO.N,GND*
X0001832874Y0000724409D03*
X0001932874Y0000724409D03*
X0002032874Y0000724409D03*
X0002132874Y0000724409D03*
X0002232874Y0000724409D03*
X0002332873Y0000724409D03*
X0002432873Y0000724409D03*
X0002532874Y0000724409D03*
X0002632874Y0000724409D03*
X0002732873Y0000724409D03*
X0002832874Y0000724409D03*
X0001807874Y0000524409D03*
X0002882874Y0000524409D03*
G04 #@! TD*
D76*
G04 #@! TO.N,GND*
X0001832874Y0000724409D02*
X0001932874Y0000724409D01*
X0002032874Y0000724409D02*
X0002132874Y0000724409D01*
X0002232874Y0000724409D02*
X0002332873Y0000724409D01*
X0002432873Y0000724409D02*
X0002532874Y0000724409D01*
X0002632874Y0000724409D02*
X0002732873Y0000724409D01*
G04 #@! TD*
D77*
G04 #@! TO.N,GND*
G36*
X0002882874Y0000735659D02*
X0002889123Y0000729409D01*
X0002982873Y0000729409D01*
X0002982873Y0000730196D01*
X0002992874Y0000730196D01*
X0002992874Y0000729409D01*
X0002993661Y0000729409D01*
X0002993661Y0000719409D01*
X0002992874Y0000719409D01*
X0002992874Y0000675659D01*
X0002999124Y0000669409D01*
X0003052874Y0000669409D01*
X0003052874Y0000579409D01*
X0002999124Y0000579409D01*
X0002992874Y0000573159D01*
X0002992874Y0000529409D01*
X0002993661Y0000529409D01*
X0002993661Y0000519409D01*
X0002992874Y0000519409D01*
X0002992874Y0000518622D01*
X0002982873Y0000518622D01*
X0002982873Y0000519409D01*
X0002889123Y0000519409D01*
X0002882874Y0000513159D01*
X0002882874Y0000489436D01*
X0002886680Y0000480248D01*
X0002889565Y0000477362D01*
X0001781182Y0000477362D01*
X0001784067Y0000480248D01*
X0001787874Y0000489436D01*
X0001787874Y0000513159D01*
X0001781623Y0000519409D01*
X0001687874Y0000519409D01*
X0001687874Y0000518622D01*
X0001677873Y0000518622D01*
X0001677873Y0000519409D01*
X0001677086Y0000519409D01*
X0001677086Y0000529409D01*
X0001677873Y0000529409D01*
X0001677873Y0000573159D01*
X0001687874Y0000573159D01*
X0001687874Y0000529409D01*
X0001781623Y0000529409D01*
X0001787874Y0000535659D01*
X0001787874Y0000559382D01*
X0002882874Y0000559382D01*
X0002882874Y0000535659D01*
X0002889123Y0000529409D01*
X0002982873Y0000529409D01*
X0002982873Y0000573159D01*
X0002976623Y0000579409D01*
X0002902901Y0000579409D01*
X0002893712Y0000575603D01*
X0002886680Y0000568570D01*
X0002882874Y0000559382D01*
X0001787874Y0000559382D01*
X0001784067Y0000568570D01*
X0001777035Y0000575603D01*
X0001767846Y0000579409D01*
X0001694124Y0000579409D01*
X0001687874Y0000573159D01*
X0001677873Y0000573159D01*
X0001671624Y0000579409D01*
X0001612874Y0000579409D01*
X0001612874Y0000669409D01*
X0001671624Y0000669409D01*
X0001677873Y0000675659D01*
X0001677873Y0000719409D01*
X0001687874Y0000719409D01*
X0001687874Y0000675659D01*
X0001694124Y0000669409D01*
X0001767846Y0000669409D01*
X0001777035Y0000673215D01*
X0001784067Y0000680248D01*
X0001787874Y0000689436D01*
X0001787874Y0000713159D01*
X0002882874Y0000713159D01*
X0002882874Y0000689436D01*
X0002886680Y0000680248D01*
X0002893712Y0000673215D01*
X0002902901Y0000669409D01*
X0002976623Y0000669409D01*
X0002982873Y0000675659D01*
X0002982873Y0000719409D01*
X0002889123Y0000719409D01*
X0002882874Y0000713159D01*
X0001787874Y0000713159D01*
X0001781623Y0000719409D01*
X0001687874Y0000719409D01*
X0001677873Y0000719409D01*
X0001677086Y0000719409D01*
X0001677086Y0000729409D01*
X0001677873Y0000729409D01*
X0001677873Y0000730196D01*
X0001687874Y0000730196D01*
X0001687874Y0000729409D01*
X0001781623Y0000729409D01*
X0001787874Y0000735659D01*
X0001787874Y0000746456D01*
X0002882874Y0000746456D01*
X0002882874Y0000735659D01*
X0002882874Y0000735659D01*
G37*
X0002882874Y0000735659D02*
X0002889123Y0000729409D01*
X0002982873Y0000729409D01*
X0002982873Y0000730196D01*
X0002992874Y0000730196D01*
X0002992874Y0000729409D01*
X0002993661Y0000729409D01*
X0002993661Y0000719409D01*
X0002992874Y0000719409D01*
X0002992874Y0000675659D01*
X0002999124Y0000669409D01*
X0003052874Y0000669409D01*
X0003052874Y0000579409D01*
X0002999124Y0000579409D01*
X0002992874Y0000573159D01*
X0002992874Y0000529409D01*
X0002993661Y0000529409D01*
X0002993661Y0000519409D01*
X0002992874Y0000519409D01*
X0002992874Y0000518622D01*
X0002982873Y0000518622D01*
X0002982873Y0000519409D01*
X0002889123Y0000519409D01*
X0002882874Y0000513159D01*
X0002882874Y0000489436D01*
X0002886680Y0000480248D01*
X0002889565Y0000477362D01*
X0001781182Y0000477362D01*
X0001784067Y0000480248D01*
X0001787874Y0000489436D01*
X0001787874Y0000513159D01*
X0001781623Y0000519409D01*
X0001687874Y0000519409D01*
X0001687874Y0000518622D01*
X0001677873Y0000518622D01*
X0001677873Y0000519409D01*
X0001677086Y0000519409D01*
X0001677086Y0000529409D01*
X0001677873Y0000529409D01*
X0001677873Y0000573159D01*
X0001687874Y0000573159D01*
X0001687874Y0000529409D01*
X0001781623Y0000529409D01*
X0001787874Y0000535659D01*
X0001787874Y0000559382D01*
X0002882874Y0000559382D01*
X0002882874Y0000535659D01*
X0002889123Y0000529409D01*
X0002982873Y0000529409D01*
X0002982873Y0000573159D01*
X0002976623Y0000579409D01*
X0002902901Y0000579409D01*
X0002893712Y0000575603D01*
X0002886680Y0000568570D01*
X0002882874Y0000559382D01*
X0001787874Y0000559382D01*
X0001784067Y0000568570D01*
X0001777035Y0000575603D01*
X0001767846Y0000579409D01*
X0001694124Y0000579409D01*
X0001687874Y0000573159D01*
X0001677873Y0000573159D01*
X0001671624Y0000579409D01*
X0001612874Y0000579409D01*
X0001612874Y0000669409D01*
X0001671624Y0000669409D01*
X0001677873Y0000675659D01*
X0001677873Y0000719409D01*
X0001687874Y0000719409D01*
X0001687874Y0000675659D01*
X0001694124Y0000669409D01*
X0001767846Y0000669409D01*
X0001777035Y0000673215D01*
X0001784067Y0000680248D01*
X0001787874Y0000689436D01*
X0001787874Y0000713159D01*
X0002882874Y0000713159D01*
X0002882874Y0000689436D01*
X0002886680Y0000680248D01*
X0002893712Y0000673215D01*
X0002902901Y0000669409D01*
X0002976623Y0000669409D01*
X0002982873Y0000675659D01*
X0002982873Y0000719409D01*
X0002889123Y0000719409D01*
X0002882874Y0000713159D01*
X0001787874Y0000713159D01*
X0001781623Y0000719409D01*
X0001687874Y0000719409D01*
X0001677873Y0000719409D01*
X0001677086Y0000719409D01*
X0001677086Y0000729409D01*
X0001677873Y0000729409D01*
X0001677873Y0000730196D01*
X0001687874Y0000730196D01*
X0001687874Y0000729409D01*
X0001781623Y0000729409D01*
X0001787874Y0000735659D01*
X0001787874Y0000746456D01*
X0002882874Y0000746456D01*
X0002882874Y0000735659D01*
G04 #@! TD*
G04 next file*
G04 #@! TF.GenerationSoftware,KiCad,Pcbnew,5.0.1*
G04 #@! TF.CreationDate,2018-12-27T15:22:53+01:00*
G04 #@! TF.ProjectId,SMAadapter,534D41616461707465722E6B69636164,rev?*
G04 #@! TF.SameCoordinates,PX74c1a60PY7a15e80*
G04 #@! TF.FileFunction,Copper,L2,Bot,Signal*
G04 #@! TF.FilePolarity,Positive*
G04 Gerber Fmt 4.6, Leading zero omitted, Abs format (unit mm)*
G04 Created by KiCad (PCBNEW 5.0.1) date Do 27 Dez 2018 15:22:53 CET*
G01*
G04 APERTURE LIST*
G04 #@! TA.AperFunction,SMDPad,CuDef*
G04 #@! TD*
G04 #@! TA.AperFunction,ViaPad*
G04 #@! TD*
G04 #@! TA.AperFunction,Conductor*
G04 #@! TD*
G04 #@! TA.AperFunction,Conductor*
G04 #@! TD*
G04 APERTURE END LIST*
D78*
G04 #@! TO.P,J1,2*
G04 #@! TO.N,GND*
X0003937007Y0000000000D02*
X0003867007Y0000079842D03*
X0003667007Y0000079842D03*
G04 #@! TD*
D79*
G04 #@! TO.N,GND*
X0003877007Y0000220000D03*
X0003877007Y0000300000D03*
X0003877007Y0000380000D03*
X0003877007Y0000460000D03*
X0003877007Y0000560000D03*
X0003877007Y0000640000D03*
X0003817007Y0000640000D03*
X0003757007Y0000640000D03*
X0003677007Y0000640000D03*
X0003677007Y0000580000D03*
X0003677007Y0000480000D03*
X0003677007Y0000400000D03*
X0003677007Y0000339999D03*
X0003677007Y0000260000D03*
X0003677007Y0000200000D03*
G04 #@! TD*
D80*
G04 #@! TO.N,GND*
X0003877007Y0000220000D02*
X0003877007Y0000300000D01*
X0003877007Y0000380000D02*
X0003877007Y0000460000D01*
X0003877007Y0000560000D02*
X0003877007Y0000640000D01*
X0003757007Y0000640000D02*
X0003677007Y0000640000D01*
X0003677007Y0000580000D02*
X0003677007Y0000480000D01*
X0003677007Y0000400000D02*
X0003677007Y0000339999D01*
X0003677007Y0000260000D02*
X0003677007Y0000200000D01*
G04 #@! TD*
D81*
G04 #@! TO.N,GND*
G36*
X0003909055Y0000672047D02*
X0003909055Y0000181912D01*
X0003901980Y0000184842D01*
X0003878257Y0000184842D01*
X0003872007Y0000178592D01*
X0003872007Y0000084842D01*
X0003872795Y0000084842D01*
X0003872795Y0000074842D01*
X0003872007Y0000074842D01*
X0003872007Y0000074055D01*
X0003862007Y0000074055D01*
X0003862007Y0000074842D01*
X0003818257Y0000074842D01*
X0003818257Y0000084842D01*
X0003862007Y0000084842D01*
X0003862007Y0000178592D01*
X0003855757Y0000184842D01*
X0003832035Y0000184842D01*
X0003822846Y0000181036D01*
X0003815813Y0000174003D01*
X0003812007Y0000164815D01*
X0003812007Y0000091092D01*
X0003818257Y0000084842D01*
X0003818257Y0000074842D01*
X0003812007Y0000068592D01*
X0003812007Y0000027952D01*
X0003722007Y0000027952D01*
X0003722007Y0000068592D01*
X0003715757Y0000074842D01*
X0003672007Y0000074842D01*
X0003672007Y0000084842D01*
X0003715757Y0000084842D01*
X0003722007Y0000091092D01*
X0003722007Y0000164815D01*
X0003718201Y0000174003D01*
X0003711169Y0000181036D01*
X0003701980Y0000184842D01*
X0003678257Y0000184842D01*
X0003672007Y0000178592D01*
X0003672007Y0000084842D01*
X0003672007Y0000074842D01*
X0003672007Y0000074055D01*
X0003662007Y0000074055D01*
X0003662007Y0000074842D01*
X0003661220Y0000074842D01*
X0003661220Y0000084842D01*
X0003662007Y0000084842D01*
X0003662007Y0000178592D01*
X0003655757Y0000184842D01*
X0003632035Y0000184842D01*
X0003624960Y0000181912D01*
X0003624960Y0000672047D01*
X0003909055Y0000672047D01*
X0003909055Y0000672047D01*
G37*
X0003909055Y0000672047D02*
X0003909055Y0000181912D01*
X0003901980Y0000184842D01*
X0003878257Y0000184842D01*
X0003872007Y0000178592D01*
X0003872007Y0000084842D01*
X0003872795Y0000084842D01*
X0003872795Y0000074842D01*
X0003872007Y0000074842D01*
X0003872007Y0000074055D01*
X0003862007Y0000074055D01*
X0003862007Y0000074842D01*
X0003818257Y0000074842D01*
X0003818257Y0000084842D01*
X0003862007Y0000084842D01*
X0003862007Y0000178592D01*
X0003855757Y0000184842D01*
X0003832035Y0000184842D01*
X0003822846Y0000181036D01*
X0003815813Y0000174003D01*
X0003812007Y0000164815D01*
X0003812007Y0000091092D01*
X0003818257Y0000084842D01*
X0003818257Y0000074842D01*
X0003812007Y0000068592D01*
X0003812007Y0000027952D01*
X0003722007Y0000027952D01*
X0003722007Y0000068592D01*
X0003715757Y0000074842D01*
X0003672007Y0000074842D01*
X0003672007Y0000084842D01*
X0003715757Y0000084842D01*
X0003722007Y0000091092D01*
X0003722007Y0000164815D01*
X0003718201Y0000174003D01*
X0003711169Y0000181036D01*
X0003701980Y0000184842D01*
X0003678257Y0000184842D01*
X0003672007Y0000178592D01*
X0003672007Y0000084842D01*
X0003672007Y0000074842D01*
X0003672007Y0000074055D01*
X0003662007Y0000074055D01*
X0003662007Y0000074842D01*
X0003661220Y0000074842D01*
X0003661220Y0000084842D01*
X0003662007Y0000084842D01*
X0003662007Y0000178592D01*
X0003655757Y0000184842D01*
X0003632035Y0000184842D01*
X0003624960Y0000181912D01*
X0003624960Y0000672047D01*
X0003909055Y0000672047D01*
G04 #@! TD*
G04 next file*
G04 #@! TF.GenerationSoftware,KiCad,Pcbnew,5.0.1*
G04 #@! TF.CreationDate,2018-12-27T15:22:53+01:00*
G04 #@! TF.ProjectId,SMAadapter,534D41616461707465722E6B69636164,rev?*
G04 #@! TF.SameCoordinates,PX74c1a60PY7a15e80*
G04 #@! TF.FileFunction,Copper,L2,Bot,Signal*
G04 #@! TF.FilePolarity,Positive*
G04 Gerber Fmt 4.6, Leading zero omitted, Abs format (unit mm)*
G04 Created by KiCad (PCBNEW 5.0.1) date Do 27 Dez 2018 15:22:53 CET*
G01*
G04 APERTURE LIST*
G04 #@! TA.AperFunction,SMDPad,CuDef*
G04 #@! TD*
G04 #@! TA.AperFunction,ViaPad*
G04 #@! TD*
G04 #@! TA.AperFunction,Conductor*
G04 #@! TD*
G04 #@! TA.AperFunction,Conductor*
G04 #@! TD*
G04 APERTURE END LIST*
D82*
G04 #@! TO.P,J1,2*
G04 #@! TO.N,GND*
X0003582677Y0003110236D02*
X0003652677Y0003030393D03*
X0003852677Y0003030393D03*
G04 #@! TD*
D83*
G04 #@! TO.N,GND*
X0003642677Y0002890236D03*
X0003642677Y0002810236D03*
X0003642677Y0002730236D03*
X0003642677Y0002650236D03*
X0003642677Y0002550236D03*
X0003642677Y0002470236D03*
X0003702677Y0002470236D03*
X0003762677Y0002470236D03*
X0003842677Y0002470236D03*
X0003842677Y0002530236D03*
X0003842677Y0002630236D03*
X0003842677Y0002710236D03*
X0003842677Y0002770236D03*
X0003842677Y0002850236D03*
X0003842677Y0002910236D03*
G04 #@! TD*
D84*
G04 #@! TO.N,GND*
X0003642677Y0002890236D02*
X0003642677Y0002810236D01*
X0003642677Y0002730236D02*
X0003642677Y0002650236D01*
X0003642677Y0002550236D02*
X0003642677Y0002470236D01*
X0003762677Y0002470236D02*
X0003842677Y0002470236D01*
X0003842677Y0002530236D02*
X0003842677Y0002630236D01*
X0003842677Y0002710236D02*
X0003842677Y0002770236D01*
X0003842677Y0002850236D02*
X0003842677Y0002910236D01*
G04 #@! TD*
D85*
G04 #@! TO.N,GND*
G36*
X0003610629Y0002438188D02*
X0003610629Y0002928324D01*
X0003617704Y0002925393D01*
X0003641427Y0002925393D01*
X0003647677Y0002931643D01*
X0003647677Y0003025393D01*
X0003646889Y0003025393D01*
X0003646889Y0003035393D01*
X0003647677Y0003035393D01*
X0003647677Y0003036181D01*
X0003657677Y0003036181D01*
X0003657677Y0003035393D01*
X0003701427Y0003035393D01*
X0003701427Y0003025393D01*
X0003657677Y0003025393D01*
X0003657677Y0002931643D01*
X0003663927Y0002925393D01*
X0003687650Y0002925393D01*
X0003696838Y0002929199D01*
X0003703871Y0002936232D01*
X0003707677Y0002945420D01*
X0003707677Y0003019143D01*
X0003701427Y0003025393D01*
X0003701427Y0003035393D01*
X0003707677Y0003041643D01*
X0003707677Y0003082283D01*
X0003797677Y0003082283D01*
X0003797677Y0003041643D01*
X0003803927Y0003035393D01*
X0003847677Y0003035393D01*
X0003847677Y0003025393D01*
X0003803927Y0003025393D01*
X0003797677Y0003019143D01*
X0003797677Y0002945420D01*
X0003801483Y0002936232D01*
X0003808515Y0002929199D01*
X0003817704Y0002925393D01*
X0003841427Y0002925393D01*
X0003847677Y0002931643D01*
X0003847677Y0003025393D01*
X0003847677Y0003035393D01*
X0003847677Y0003036181D01*
X0003857677Y0003036181D01*
X0003857677Y0003035393D01*
X0003858464Y0003035393D01*
X0003858464Y0003025393D01*
X0003857677Y0003025393D01*
X0003857677Y0002931643D01*
X0003863927Y0002925393D01*
X0003887650Y0002925393D01*
X0003894724Y0002928324D01*
X0003894724Y0002438188D01*
X0003610629Y0002438188D01*
X0003610629Y0002438188D01*
G37*
X0003610629Y0002438188D02*
X0003610629Y0002928324D01*
X0003617704Y0002925393D01*
X0003641427Y0002925393D01*
X0003647677Y0002931643D01*
X0003647677Y0003025393D01*
X0003646889Y0003025393D01*
X0003646889Y0003035393D01*
X0003647677Y0003035393D01*
X0003647677Y0003036181D01*
X0003657677Y0003036181D01*
X0003657677Y0003035393D01*
X0003701427Y0003035393D01*
X0003701427Y0003025393D01*
X0003657677Y0003025393D01*
X0003657677Y0002931643D01*
X0003663927Y0002925393D01*
X0003687650Y0002925393D01*
X0003696838Y0002929199D01*
X0003703871Y0002936232D01*
X0003707677Y0002945420D01*
X0003707677Y0003019143D01*
X0003701427Y0003025393D01*
X0003701427Y0003035393D01*
X0003707677Y0003041643D01*
X0003707677Y0003082283D01*
X0003797677Y0003082283D01*
X0003797677Y0003041643D01*
X0003803927Y0003035393D01*
X0003847677Y0003035393D01*
X0003847677Y0003025393D01*
X0003803927Y0003025393D01*
X0003797677Y0003019143D01*
X0003797677Y0002945420D01*
X0003801483Y0002936232D01*
X0003808515Y0002929199D01*
X0003817704Y0002925393D01*
X0003841427Y0002925393D01*
X0003847677Y0002931643D01*
X0003847677Y0003025393D01*
X0003847677Y0003035393D01*
X0003847677Y0003036181D01*
X0003857677Y0003036181D01*
X0003857677Y0003035393D01*
X0003858464Y0003035393D01*
X0003858464Y0003025393D01*
X0003857677Y0003025393D01*
X0003857677Y0002931643D01*
X0003863927Y0002925393D01*
X0003887650Y0002925393D01*
X0003894724Y0002928324D01*
X0003894724Y0002438188D01*
X0003610629Y0002438188D01*
G04 #@! TD*
G04 next file*
G04 #@! TF.GenerationSoftware,KiCad,Pcbnew,5.0.1*
G04 #@! TF.CreationDate,2018-12-27T15:29:00+01:00*
G04 #@! TF.ProjectId,Filter3OrdEliptic,46696C746572334F7264456C69707469,rev?*
G04 #@! TF.SameCoordinates,Original*
G04 #@! TF.FileFunction,Copper,L2,Bot,Signal*
G04 #@! TF.FilePolarity,Positive*
G04 Gerber Fmt 4.6, Leading zero omitted, Abs format (unit mm)*
G04 Created by KiCad (PCBNEW 5.0.1) date Do 27 Dez 2018 15:29:00 CET*
G01*
G04 APERTURE LIST*
G04 #@! TA.AperFunction,SMDPad,CuDef*
G04 #@! TD*
G04 #@! TA.AperFunction,ViaPad*
G04 #@! TD*
G04 #@! TA.AperFunction,Conductor*
G04 #@! TD*
G04 #@! TA.AperFunction,Conductor*
G04 #@! TD*
G04 APERTURE END LIST*
D86*
G04 #@! TO.P,J1,2*
G04 #@! TO.N,GND*
X-0002350196Y0005238582D02*
X0001674803Y0001413582D03*
X0001674803Y0001613582D03*
G04 #@! TD*
G04 #@! TO.P,J2,2*
G04 #@! TO.N,GND*
X0002949803Y0001613582D03*
X0002949803Y0001413582D03*
G04 #@! TD*
D87*
G04 #@! TO.N,GND*
X0001799803Y0001613582D03*
X0001924803Y0001613582D03*
X0002674803Y0001613582D03*
X0002774803Y0001613582D03*
X0002524803Y0001413582D03*
X0002099803Y0001413582D03*
G04 #@! TD*
D88*
G04 #@! TO.N,GND*
X0001924803Y0001613582D02*
X0002674803Y0001613582D01*
X0002774803Y0001613582D02*
X0002949803Y0001613582D01*
X0002949803Y0001413582D02*
X0002524803Y0001413582D01*
X0002099803Y0001413582D02*
X0001674803Y0001413582D01*
X0001799803Y0001613582D02*
X0001674803Y0001613582D01*
G04 #@! TD*
D89*
G04 #@! TO.N,GND*
G36*
X0003019803Y0001668582D02*
X0002961053Y0001668582D01*
X0002954803Y0001662332D01*
X0002954803Y0001618582D01*
X0002955590Y0001618582D01*
X0002955590Y0001608582D01*
X0002954803Y0001608582D01*
X0002954803Y0001564832D01*
X0002961053Y0001558582D01*
X0003019803Y0001558582D01*
X0003019803Y0001468582D01*
X0002961053Y0001468582D01*
X0002954803Y0001462332D01*
X0002954803Y0001418582D01*
X0002955590Y0001418582D01*
X0002955590Y0001408582D01*
X0002954803Y0001408582D01*
X0002954803Y0001407795D01*
X0002944803Y0001407795D01*
X0002944803Y0001408582D01*
X0002851053Y0001408582D01*
X0002844803Y0001402332D01*
X0002844803Y0001378609D01*
X0002848609Y0001369421D01*
X0002851495Y0001366535D01*
X0001773111Y0001366535D01*
X0001775997Y0001369421D01*
X0001779803Y0001378609D01*
X0001779803Y0001402332D01*
X0001773553Y0001408582D01*
X0001679803Y0001408582D01*
X0001679803Y0001407795D01*
X0001669803Y0001407795D01*
X0001669803Y0001408582D01*
X0001669015Y0001408582D01*
X0001669015Y0001418582D01*
X0001669803Y0001418582D01*
X0001669803Y0001462332D01*
X0001679803Y0001462332D01*
X0001679803Y0001418582D01*
X0001773553Y0001418582D01*
X0001779803Y0001424832D01*
X0001779803Y0001448555D01*
X0002844803Y0001448555D01*
X0002844803Y0001424832D01*
X0002851053Y0001418582D01*
X0002944803Y0001418582D01*
X0002944803Y0001462332D01*
X0002938553Y0001468582D01*
X0002864830Y0001468582D01*
X0002855641Y0001464776D01*
X0002848609Y0001457743D01*
X0002844803Y0001448555D01*
X0001779803Y0001448555D01*
X0001775997Y0001457743D01*
X0001768964Y0001464776D01*
X0001759775Y0001468582D01*
X0001686053Y0001468582D01*
X0001679803Y0001462332D01*
X0001669803Y0001462332D01*
X0001663553Y0001468582D01*
X0001604803Y0001468582D01*
X0001604803Y0001558582D01*
X0001663553Y0001558582D01*
X0001669803Y0001564832D01*
X0001669803Y0001608582D01*
X0001679803Y0001608582D01*
X0001679803Y0001564832D01*
X0001686053Y0001558582D01*
X0001759775Y0001558582D01*
X0001768964Y0001562388D01*
X0001775997Y0001569421D01*
X0001779803Y0001578609D01*
X0001779803Y0001602332D01*
X0002844803Y0001602332D01*
X0002844803Y0001578609D01*
X0002848609Y0001569421D01*
X0002855641Y0001562388D01*
X0002864830Y0001558582D01*
X0002938553Y0001558582D01*
X0002944803Y0001564832D01*
X0002944803Y0001608582D01*
X0002851053Y0001608582D01*
X0002844803Y0001602332D01*
X0001779803Y0001602332D01*
X0001773553Y0001608582D01*
X0001679803Y0001608582D01*
X0001669803Y0001608582D01*
X0001669015Y0001608582D01*
X0001669015Y0001618582D01*
X0001669803Y0001618582D01*
X0001669803Y0001662332D01*
X0001679803Y0001662332D01*
X0001679803Y0001618582D01*
X0001773553Y0001618582D01*
X0001779803Y0001624832D01*
X0001779803Y0001648555D01*
X0002844803Y0001648555D01*
X0002844803Y0001624832D01*
X0002851053Y0001618582D01*
X0002944803Y0001618582D01*
X0002944803Y0001662332D01*
X0002938553Y0001668582D01*
X0002864830Y0001668582D01*
X0002855641Y0001664776D01*
X0002848609Y0001657743D01*
X0002844803Y0001648555D01*
X0001779803Y0001648555D01*
X0001775997Y0001657743D01*
X0001768964Y0001664776D01*
X0001759775Y0001668582D01*
X0001686053Y0001668582D01*
X0001679803Y0001662332D01*
X0001669803Y0001662332D01*
X0001663553Y0001668582D01*
X0001604803Y0001668582D01*
X0001604803Y0001685629D01*
X0003019803Y0001685629D01*
X0003019803Y0001668582D01*
X0003019803Y0001668582D01*
G37*
X0003019803Y0001668582D02*
X0002961053Y0001668582D01*
X0002954803Y0001662332D01*
X0002954803Y0001618582D01*
X0002955590Y0001618582D01*
X0002955590Y0001608582D01*
X0002954803Y0001608582D01*
X0002954803Y0001564832D01*
X0002961053Y0001558582D01*
X0003019803Y0001558582D01*
X0003019803Y0001468582D01*
X0002961053Y0001468582D01*
X0002954803Y0001462332D01*
X0002954803Y0001418582D01*
X0002955590Y0001418582D01*
X0002955590Y0001408582D01*
X0002954803Y0001408582D01*
X0002954803Y0001407795D01*
X0002944803Y0001407795D01*
X0002944803Y0001408582D01*
X0002851053Y0001408582D01*
X0002844803Y0001402332D01*
X0002844803Y0001378609D01*
X0002848609Y0001369421D01*
X0002851495Y0001366535D01*
X0001773111Y0001366535D01*
X0001775997Y0001369421D01*
X0001779803Y0001378609D01*
X0001779803Y0001402332D01*
X0001773553Y0001408582D01*
X0001679803Y0001408582D01*
X0001679803Y0001407795D01*
X0001669803Y0001407795D01*
X0001669803Y0001408582D01*
X0001669015Y0001408582D01*
X0001669015Y0001418582D01*
X0001669803Y0001418582D01*
X0001669803Y0001462332D01*
X0001679803Y0001462332D01*
X0001679803Y0001418582D01*
X0001773553Y0001418582D01*
X0001779803Y0001424832D01*
X0001779803Y0001448555D01*
X0002844803Y0001448555D01*
X0002844803Y0001424832D01*
X0002851053Y0001418582D01*
X0002944803Y0001418582D01*
X0002944803Y0001462332D01*
X0002938553Y0001468582D01*
X0002864830Y0001468582D01*
X0002855641Y0001464776D01*
X0002848609Y0001457743D01*
X0002844803Y0001448555D01*
X0001779803Y0001448555D01*
X0001775997Y0001457743D01*
X0001768964Y0001464776D01*
X0001759775Y0001468582D01*
X0001686053Y0001468582D01*
X0001679803Y0001462332D01*
X0001669803Y0001462332D01*
X0001663553Y0001468582D01*
X0001604803Y0001468582D01*
X0001604803Y0001558582D01*
X0001663553Y0001558582D01*
X0001669803Y0001564832D01*
X0001669803Y0001608582D01*
X0001679803Y0001608582D01*
X0001679803Y0001564832D01*
X0001686053Y0001558582D01*
X0001759775Y0001558582D01*
X0001768964Y0001562388D01*
X0001775997Y0001569421D01*
X0001779803Y0001578609D01*
X0001779803Y0001602332D01*
X0002844803Y0001602332D01*
X0002844803Y0001578609D01*
X0002848609Y0001569421D01*
X0002855641Y0001562388D01*
X0002864830Y0001558582D01*
X0002938553Y0001558582D01*
X0002944803Y0001564832D01*
X0002944803Y0001608582D01*
X0002851053Y0001608582D01*
X0002844803Y0001602332D01*
X0001779803Y0001602332D01*
X0001773553Y0001608582D01*
X0001679803Y0001608582D01*
X0001669803Y0001608582D01*
X0001669015Y0001608582D01*
X0001669015Y0001618582D01*
X0001669803Y0001618582D01*
X0001669803Y0001662332D01*
X0001679803Y0001662332D01*
X0001679803Y0001618582D01*
X0001773553Y0001618582D01*
X0001779803Y0001624832D01*
X0001779803Y0001648555D01*
X0002844803Y0001648555D01*
X0002844803Y0001624832D01*
X0002851053Y0001618582D01*
X0002944803Y0001618582D01*
X0002944803Y0001662332D01*
X0002938553Y0001668582D01*
X0002864830Y0001668582D01*
X0002855641Y0001664776D01*
X0002848609Y0001657743D01*
X0002844803Y0001648555D01*
X0001779803Y0001648555D01*
X0001775997Y0001657743D01*
X0001768964Y0001664776D01*
X0001759775Y0001668582D01*
X0001686053Y0001668582D01*
X0001679803Y0001662332D01*
X0001669803Y0001662332D01*
X0001663553Y0001668582D01*
X0001604803Y0001668582D01*
X0001604803Y0001685629D01*
X0003019803Y0001685629D01*
X0003019803Y0001668582D01*
G04 #@! TD*
G04 next file*
G04 #@! TF.GenerationSoftware,KiCad,Pcbnew,5.0.1*
G04 #@! TF.CreationDate,2018-12-27T15:29:00+01:00*
G04 #@! TF.ProjectId,Filter3OrdEliptic,46696C746572334F7264456C69707469,rev?*
G04 #@! TF.SameCoordinates,Original*
G04 #@! TF.FileFunction,Copper,L2,Bot,Signal*
G04 #@! TF.FilePolarity,Positive*
G04 Gerber Fmt 4.6, Leading zero omitted, Abs format (unit mm)*
G04 Created by KiCad (PCBNEW 5.0.1) date Do 27 Dez 2018 15:29:00 CET*
G01*
G04 APERTURE LIST*
G04 #@! TA.AperFunction,SMDPad,CuDef*
G04 #@! TD*
G04 #@! TA.AperFunction,ViaPad*
G04 #@! TD*
G04 #@! TA.AperFunction,Conductor*
G04 #@! TD*
G04 #@! TA.AperFunction,Conductor*
G04 #@! TD*
G04 APERTURE END LIST*
D90*
G04 #@! TO.P,J1,2*
G04 #@! TO.N,GND*
X-0000393700Y-0002677165D02*
X0003431299Y0001347834D03*
X0003231299Y0001347834D03*
G04 #@! TD*
G04 #@! TO.P,J2,2*
G04 #@! TO.N,GND*
X0003231299Y0002622834D03*
X0003431299Y0002622834D03*
G04 #@! TD*
D91*
G04 #@! TO.N,GND*
X0003231299Y0001472834D03*
X0003231299Y0001597834D03*
X0003231299Y0002347834D03*
X0003231299Y0002447834D03*
X0003431299Y0002197834D03*
X0003431299Y0001772834D03*
G04 #@! TD*
D92*
G04 #@! TO.N,GND*
X0003231299Y0001597834D02*
X0003231299Y0002347834D01*
X0003231299Y0002447834D02*
X0003231299Y0002622834D01*
X0003431299Y0002622834D02*
X0003431299Y0002197834D01*
X0003431299Y0001772834D02*
X0003431299Y0001347834D01*
X0003231299Y0001472834D02*
X0003231299Y0001347834D01*
G04 #@! TD*
D93*
G04 #@! TO.N,GND*
G36*
X0003176299Y0002692834D02*
X0003176299Y0002634084D01*
X0003182549Y0002627834D01*
X0003226299Y0002627834D01*
X0003226299Y0002628622D01*
X0003236299Y0002628622D01*
X0003236299Y0002627834D01*
X0003280049Y0002627834D01*
X0003286299Y0002634084D01*
X0003286299Y0002692834D01*
X0003376299Y0002692834D01*
X0003376299Y0002634084D01*
X0003382549Y0002627834D01*
X0003426299Y0002627834D01*
X0003426299Y0002628622D01*
X0003436299Y0002628622D01*
X0003436299Y0002627834D01*
X0003437086Y0002627834D01*
X0003437086Y0002617834D01*
X0003436299Y0002617834D01*
X0003436299Y0002524084D01*
X0003442549Y0002517834D01*
X0003466272Y0002517834D01*
X0003475460Y0002521640D01*
X0003478346Y0002524526D01*
X0003478346Y0001446142D01*
X0003475460Y0001449028D01*
X0003466272Y0001452834D01*
X0003442549Y0001452834D01*
X0003436299Y0001446584D01*
X0003436299Y0001352834D01*
X0003437086Y0001352834D01*
X0003437086Y0001342834D01*
X0003436299Y0001342834D01*
X0003436299Y0001342047D01*
X0003426299Y0001342047D01*
X0003426299Y0001342834D01*
X0003382549Y0001342834D01*
X0003382549Y0001352834D01*
X0003426299Y0001352834D01*
X0003426299Y0001446584D01*
X0003420049Y0001452834D01*
X0003396326Y0001452834D01*
X0003396326Y0002517834D01*
X0003420049Y0002517834D01*
X0003426299Y0002524084D01*
X0003426299Y0002617834D01*
X0003382549Y0002617834D01*
X0003376299Y0002611584D01*
X0003376299Y0002537861D01*
X0003380105Y0002528673D01*
X0003387137Y0002521640D01*
X0003396326Y0002517834D01*
X0003396326Y0001452834D01*
X0003387137Y0001449028D01*
X0003380105Y0001441995D01*
X0003376299Y0001432807D01*
X0003376299Y0001359084D01*
X0003382549Y0001352834D01*
X0003382549Y0001342834D01*
X0003376299Y0001336584D01*
X0003376299Y0001277834D01*
X0003286299Y0001277834D01*
X0003286299Y0001336584D01*
X0003280049Y0001342834D01*
X0003236299Y0001342834D01*
X0003236299Y0001352834D01*
X0003280049Y0001352834D01*
X0003286299Y0001359084D01*
X0003286299Y0001432807D01*
X0003282493Y0001441995D01*
X0003275460Y0001449028D01*
X0003266272Y0001452834D01*
X0003242549Y0001452834D01*
X0003242549Y0002517834D01*
X0003266272Y0002517834D01*
X0003275460Y0002521640D01*
X0003282493Y0002528673D01*
X0003286299Y0002537861D01*
X0003286299Y0002611584D01*
X0003280049Y0002617834D01*
X0003236299Y0002617834D01*
X0003236299Y0002524084D01*
X0003242549Y0002517834D01*
X0003242549Y0001452834D01*
X0003236299Y0001446584D01*
X0003236299Y0001352834D01*
X0003236299Y0001342834D01*
X0003236299Y0001342047D01*
X0003226299Y0001342047D01*
X0003226299Y0001342834D01*
X0003182549Y0001342834D01*
X0003182549Y0001352834D01*
X0003226299Y0001352834D01*
X0003226299Y0001446584D01*
X0003220049Y0001452834D01*
X0003196326Y0001452834D01*
X0003196326Y0002517834D01*
X0003220049Y0002517834D01*
X0003226299Y0002524084D01*
X0003226299Y0002617834D01*
X0003182549Y0002617834D01*
X0003176299Y0002611584D01*
X0003176299Y0002537861D01*
X0003180105Y0002528673D01*
X0003187137Y0002521640D01*
X0003196326Y0002517834D01*
X0003196326Y0001452834D01*
X0003187137Y0001449028D01*
X0003180105Y0001441995D01*
X0003176299Y0001432807D01*
X0003176299Y0001359084D01*
X0003182549Y0001352834D01*
X0003182549Y0001342834D01*
X0003176299Y0001336584D01*
X0003176299Y0001277834D01*
X0003159251Y0001277834D01*
X0003159251Y0002692834D01*
X0003176299Y0002692834D01*
X0003176299Y0002692834D01*
G37*
X0003176299Y0002692834D02*
X0003176299Y0002634084D01*
X0003182549Y0002627834D01*
X0003226299Y0002627834D01*
X0003226299Y0002628622D01*
X0003236299Y0002628622D01*
X0003236299Y0002627834D01*
X0003280049Y0002627834D01*
X0003286299Y0002634084D01*
X0003286299Y0002692834D01*
X0003376299Y0002692834D01*
X0003376299Y0002634084D01*
X0003382549Y0002627834D01*
X0003426299Y0002627834D01*
X0003426299Y0002628622D01*
X0003436299Y0002628622D01*
X0003436299Y0002627834D01*
X0003437086Y0002627834D01*
X0003437086Y0002617834D01*
X0003436299Y0002617834D01*
X0003436299Y0002524084D01*
X0003442549Y0002517834D01*
X0003466272Y0002517834D01*
X0003475460Y0002521640D01*
X0003478346Y0002524526D01*
X0003478346Y0001446142D01*
X0003475460Y0001449028D01*
X0003466272Y0001452834D01*
X0003442549Y0001452834D01*
X0003436299Y0001446584D01*
X0003436299Y0001352834D01*
X0003437086Y0001352834D01*
X0003437086Y0001342834D01*
X0003436299Y0001342834D01*
X0003436299Y0001342047D01*
X0003426299Y0001342047D01*
X0003426299Y0001342834D01*
X0003382549Y0001342834D01*
X0003382549Y0001352834D01*
X0003426299Y0001352834D01*
X0003426299Y0001446584D01*
X0003420049Y0001452834D01*
X0003396326Y0001452834D01*
X0003396326Y0002517834D01*
X0003420049Y0002517834D01*
X0003426299Y0002524084D01*
X0003426299Y0002617834D01*
X0003382549Y0002617834D01*
X0003376299Y0002611584D01*
X0003376299Y0002537861D01*
X0003380105Y0002528673D01*
X0003387137Y0002521640D01*
X0003396326Y0002517834D01*
X0003396326Y0001452834D01*
X0003387137Y0001449028D01*
X0003380105Y0001441995D01*
X0003376299Y0001432807D01*
X0003376299Y0001359084D01*
X0003382549Y0001352834D01*
X0003382549Y0001342834D01*
X0003376299Y0001336584D01*
X0003376299Y0001277834D01*
X0003286299Y0001277834D01*
X0003286299Y0001336584D01*
X0003280049Y0001342834D01*
X0003236299Y0001342834D01*
X0003236299Y0001352834D01*
X0003280049Y0001352834D01*
X0003286299Y0001359084D01*
X0003286299Y0001432807D01*
X0003282493Y0001441995D01*
X0003275460Y0001449028D01*
X0003266272Y0001452834D01*
X0003242549Y0001452834D01*
X0003242549Y0002517834D01*
X0003266272Y0002517834D01*
X0003275460Y0002521640D01*
X0003282493Y0002528673D01*
X0003286299Y0002537861D01*
X0003286299Y0002611584D01*
X0003280049Y0002617834D01*
X0003236299Y0002617834D01*
X0003236299Y0002524084D01*
X0003242549Y0002517834D01*
X0003242549Y0001452834D01*
X0003236299Y0001446584D01*
X0003236299Y0001352834D01*
X0003236299Y0001342834D01*
X0003236299Y0001342047D01*
X0003226299Y0001342047D01*
X0003226299Y0001342834D01*
X0003182549Y0001342834D01*
X0003182549Y0001352834D01*
X0003226299Y0001352834D01*
X0003226299Y0001446584D01*
X0003220049Y0001452834D01*
X0003196326Y0001452834D01*
X0003196326Y0002517834D01*
X0003220049Y0002517834D01*
X0003226299Y0002524084D01*
X0003226299Y0002617834D01*
X0003182549Y0002617834D01*
X0003176299Y0002611584D01*
X0003176299Y0002537861D01*
X0003180105Y0002528673D01*
X0003187137Y0002521640D01*
X0003196326Y0002517834D01*
X0003196326Y0001452834D01*
X0003187137Y0001449028D01*
X0003180105Y0001441995D01*
X0003176299Y0001432807D01*
X0003176299Y0001359084D01*
X0003182549Y0001352834D01*
X0003182549Y0001342834D01*
X0003176299Y0001336584D01*
X0003176299Y0001277834D01*
X0003159251Y0001277834D01*
X0003159251Y0002692834D01*
X0003176299Y0002692834D01*
G04 #@! TD*
G04 next file*
G04 #@! TF.GenerationSoftware,KiCad,Pcbnew,5.0.1*
G04 #@! TF.CreationDate,2018-12-27T15:02:32+01:00*
G04 #@! TF.ProjectId,PiAttenuator,5069417474656E7561746F722E6B6963,rev?*
G04 #@! TF.SameCoordinates,Original*
G04 #@! TF.FileFunction,Copper,L2,Bot,Signal*
G04 #@! TF.FilePolarity,Positive*
G04 Gerber Fmt 4.6, Leading zero omitted, Abs format (unit mm)*
G04 Created by KiCad (PCBNEW 5.0.1) date Do 27 Dez 2018 15:02:32 CET*
G01*
G04 APERTURE LIST*
G04 #@! TA.AperFunction,SMDPad,CuDef*
G04 #@! TD*
G04 #@! TA.AperFunction,ViaPad*
G04 #@! TD*
G04 #@! TA.AperFunction,Conductor*
G04 #@! TD*
G04 #@! TA.AperFunction,Conductor*
G04 #@! TD*
G04 APERTURE END LIST*
D94*
G04 #@! TO.P,J1,2*
G04 #@! TO.N,GND*
X-0001594645Y0005321023D02*
X0002255354Y0002121023D03*
X0002255354Y0001921023D03*
G04 #@! TD*
G04 #@! TO.P,J2,2*
G04 #@! TO.N,GND*
X0002905354Y0001921023D03*
X0002905354Y0002121023D03*
G04 #@! TD*
D95*
G04 #@! TO.N,GND*
X0002385354Y0002121023D03*
X0002425354Y0002121023D03*
X0002465354Y0002121023D03*
X0002515354Y0002121023D03*
X0002255354Y0001851023D03*
X0002295354Y0001851023D03*
X0002335354Y0001851023D03*
X0002385354Y0001851023D03*
X0002385354Y0001851023D03*
X0002385354Y0001851023D03*
X0002525354Y0001851023D03*
X0002565354Y0001851023D03*
X0002615354Y0001851023D03*
X0002655354Y0001851023D03*
X0002775354Y0001851023D03*
X0002815354Y0001851023D03*
X0002865354Y0001851023D03*
X0002665354Y0002121023D03*
X0002715354Y0002121023D03*
X0002775354Y0002121023D03*
G04 #@! TD*
D96*
G04 #@! TO.N,GND*
X0002385354Y0002121023D02*
X0002425354Y0002121023D01*
X0002465354Y0002121023D02*
X0002495354Y0002121023D01*
X0002495354Y0002121023D02*
X0002515354Y0002121023D01*
X0002255354Y0001851023D02*
X0002295354Y0001851023D01*
X0002335354Y0001851023D02*
X0002385354Y0001851023D01*
X0002385354Y0001851023D02*
X0002525354Y0001851023D01*
X0002565354Y0001851023D02*
X0002615354Y0001851023D01*
X0002655354Y0001851023D02*
X0002775354Y0001851023D01*
X0002815354Y0001851023D02*
X0002865354Y0001851023D01*
X0002665354Y0002121023D02*
X0002715354Y0002121023D01*
G04 #@! TD*
D97*
G04 #@! TO.N,GND*
G36*
X0002950354Y0002176023D02*
X0002916604Y0002176023D01*
X0002910354Y0002169773D01*
X0002910354Y0002126023D01*
X0002911141Y0002126023D01*
X0002911141Y0002116023D01*
X0002910354Y0002116023D01*
X0002910354Y0002072273D01*
X0002916604Y0002066023D01*
X0002950354Y0002066023D01*
X0002950354Y0001976023D01*
X0002916604Y0001976023D01*
X0002910354Y0001969773D01*
X0002910354Y0001926023D01*
X0002911141Y0001926023D01*
X0002911141Y0001916023D01*
X0002910354Y0001916023D01*
X0002910354Y0001872273D01*
X0002916604Y0001866023D01*
X0002950354Y0001866023D01*
X0002950354Y0001838976D01*
X0002210354Y0001838976D01*
X0002210354Y0001866023D01*
X0002244104Y0001866023D01*
X0002250354Y0001872273D01*
X0002250354Y0001916023D01*
X0002260354Y0001916023D01*
X0002260354Y0001872273D01*
X0002266604Y0001866023D01*
X0002340327Y0001866023D01*
X0002349515Y0001869829D01*
X0002356548Y0001876862D01*
X0002360354Y0001886051D01*
X0002360354Y0001909773D01*
X0002800354Y0001909773D01*
X0002800354Y0001886051D01*
X0002804160Y0001876862D01*
X0002811192Y0001869829D01*
X0002820381Y0001866023D01*
X0002894104Y0001866023D01*
X0002900354Y0001872273D01*
X0002900354Y0001916023D01*
X0002806604Y0001916023D01*
X0002800354Y0001909773D01*
X0002360354Y0001909773D01*
X0002354104Y0001916023D01*
X0002260354Y0001916023D01*
X0002250354Y0001916023D01*
X0002249566Y0001916023D01*
X0002249566Y0001926023D01*
X0002250354Y0001926023D01*
X0002250354Y0001969773D01*
X0002260354Y0001969773D01*
X0002260354Y0001926023D01*
X0002354104Y0001926023D01*
X0002360354Y0001932273D01*
X0002360354Y0001955996D01*
X0002800354Y0001955996D01*
X0002800354Y0001932273D01*
X0002806604Y0001926023D01*
X0002900354Y0001926023D01*
X0002900354Y0001969773D01*
X0002894104Y0001976023D01*
X0002820381Y0001976023D01*
X0002811192Y0001972217D01*
X0002804160Y0001965185D01*
X0002800354Y0001955996D01*
X0002360354Y0001955996D01*
X0002356548Y0001965185D01*
X0002349515Y0001972217D01*
X0002340327Y0001976023D01*
X0002266604Y0001976023D01*
X0002260354Y0001969773D01*
X0002250354Y0001969773D01*
X0002244104Y0001976023D01*
X0002210354Y0001976023D01*
X0002210354Y0002066023D01*
X0002244104Y0002066023D01*
X0002250354Y0002072273D01*
X0002250354Y0002116023D01*
X0002260354Y0002116023D01*
X0002260354Y0002072273D01*
X0002266604Y0002066023D01*
X0002340327Y0002066023D01*
X0002349515Y0002069829D01*
X0002356548Y0002076862D01*
X0002360354Y0002086051D01*
X0002360354Y0002109773D01*
X0002800354Y0002109773D01*
X0002800354Y0002086051D01*
X0002804160Y0002076862D01*
X0002811192Y0002069829D01*
X0002820381Y0002066023D01*
X0002894104Y0002066023D01*
X0002900354Y0002072273D01*
X0002900354Y0002116023D01*
X0002806604Y0002116023D01*
X0002800354Y0002109773D01*
X0002360354Y0002109773D01*
X0002354104Y0002116023D01*
X0002260354Y0002116023D01*
X0002250354Y0002116023D01*
X0002249566Y0002116023D01*
X0002249566Y0002126023D01*
X0002250354Y0002126023D01*
X0002250354Y0002169773D01*
X0002260354Y0002169773D01*
X0002260354Y0002126023D01*
X0002354104Y0002126023D01*
X0002360354Y0002132273D01*
X0002360354Y0002155996D01*
X0002800354Y0002155996D01*
X0002800354Y0002132273D01*
X0002806604Y0002126023D01*
X0002900354Y0002126023D01*
X0002900354Y0002169773D01*
X0002894104Y0002176023D01*
X0002820381Y0002176023D01*
X0002811192Y0002172217D01*
X0002804160Y0002165185D01*
X0002800354Y0002155996D01*
X0002360354Y0002155996D01*
X0002356548Y0002165185D01*
X0002349515Y0002172217D01*
X0002340327Y0002176023D01*
X0002266604Y0002176023D01*
X0002260354Y0002169773D01*
X0002250354Y0002169773D01*
X0002244104Y0002176023D01*
X0002210354Y0002176023D01*
X0002210354Y0002203071D01*
X0002950354Y0002203071D01*
X0002950354Y0002176023D01*
X0002950354Y0002176023D01*
G37*
X0002950354Y0002176023D02*
X0002916604Y0002176023D01*
X0002910354Y0002169773D01*
X0002910354Y0002126023D01*
X0002911141Y0002126023D01*
X0002911141Y0002116023D01*
X0002910354Y0002116023D01*
X0002910354Y0002072273D01*
X0002916604Y0002066023D01*
X0002950354Y0002066023D01*
X0002950354Y0001976023D01*
X0002916604Y0001976023D01*
X0002910354Y0001969773D01*
X0002910354Y0001926023D01*
X0002911141Y0001926023D01*
X0002911141Y0001916023D01*
X0002910354Y0001916023D01*
X0002910354Y0001872273D01*
X0002916604Y0001866023D01*
X0002950354Y0001866023D01*
X0002950354Y0001838976D01*
X0002210354Y0001838976D01*
X0002210354Y0001866023D01*
X0002244104Y0001866023D01*
X0002250354Y0001872273D01*
X0002250354Y0001916023D01*
X0002260354Y0001916023D01*
X0002260354Y0001872273D01*
X0002266604Y0001866023D01*
X0002340327Y0001866023D01*
X0002349515Y0001869829D01*
X0002356548Y0001876862D01*
X0002360354Y0001886051D01*
X0002360354Y0001909773D01*
X0002800354Y0001909773D01*
X0002800354Y0001886051D01*
X0002804160Y0001876862D01*
X0002811192Y0001869829D01*
X0002820381Y0001866023D01*
X0002894104Y0001866023D01*
X0002900354Y0001872273D01*
X0002900354Y0001916023D01*
X0002806604Y0001916023D01*
X0002800354Y0001909773D01*
X0002360354Y0001909773D01*
X0002354104Y0001916023D01*
X0002260354Y0001916023D01*
X0002250354Y0001916023D01*
X0002249566Y0001916023D01*
X0002249566Y0001926023D01*
X0002250354Y0001926023D01*
X0002250354Y0001969773D01*
X0002260354Y0001969773D01*
X0002260354Y0001926023D01*
X0002354104Y0001926023D01*
X0002360354Y0001932273D01*
X0002360354Y0001955996D01*
X0002800354Y0001955996D01*
X0002800354Y0001932273D01*
X0002806604Y0001926023D01*
X0002900354Y0001926023D01*
X0002900354Y0001969773D01*
X0002894104Y0001976023D01*
X0002820381Y0001976023D01*
X0002811192Y0001972217D01*
X0002804160Y0001965185D01*
X0002800354Y0001955996D01*
X0002360354Y0001955996D01*
X0002356548Y0001965185D01*
X0002349515Y0001972217D01*
X0002340327Y0001976023D01*
X0002266604Y0001976023D01*
X0002260354Y0001969773D01*
X0002250354Y0001969773D01*
X0002244104Y0001976023D01*
X0002210354Y0001976023D01*
X0002210354Y0002066023D01*
X0002244104Y0002066023D01*
X0002250354Y0002072273D01*
X0002250354Y0002116023D01*
X0002260354Y0002116023D01*
X0002260354Y0002072273D01*
X0002266604Y0002066023D01*
X0002340327Y0002066023D01*
X0002349515Y0002069829D01*
X0002356548Y0002076862D01*
X0002360354Y0002086051D01*
X0002360354Y0002109773D01*
X0002800354Y0002109773D01*
X0002800354Y0002086051D01*
X0002804160Y0002076862D01*
X0002811192Y0002069829D01*
X0002820381Y0002066023D01*
X0002894104Y0002066023D01*
X0002900354Y0002072273D01*
X0002900354Y0002116023D01*
X0002806604Y0002116023D01*
X0002800354Y0002109773D01*
X0002360354Y0002109773D01*
X0002354104Y0002116023D01*
X0002260354Y0002116023D01*
X0002250354Y0002116023D01*
X0002249566Y0002116023D01*
X0002249566Y0002126023D01*
X0002250354Y0002126023D01*
X0002250354Y0002169773D01*
X0002260354Y0002169773D01*
X0002260354Y0002126023D01*
X0002354104Y0002126023D01*
X0002360354Y0002132273D01*
X0002360354Y0002155996D01*
X0002800354Y0002155996D01*
X0002800354Y0002132273D01*
X0002806604Y0002126023D01*
X0002900354Y0002126023D01*
X0002900354Y0002169773D01*
X0002894104Y0002176023D01*
X0002820381Y0002176023D01*
X0002811192Y0002172217D01*
X0002804160Y0002165185D01*
X0002800354Y0002155996D01*
X0002360354Y0002155996D01*
X0002356548Y0002165185D01*
X0002349515Y0002172217D01*
X0002340327Y0002176023D01*
X0002266604Y0002176023D01*
X0002260354Y0002169773D01*
X0002250354Y0002169773D01*
X0002244104Y0002176023D01*
X0002210354Y0002176023D01*
X0002210354Y0002203071D01*
X0002950354Y0002203071D01*
X0002950354Y0002176023D01*
G04 #@! TD*
G04 next file*
G04 #@! TF.GenerationSoftware,KiCad,Pcbnew,5.0.1*
G04 #@! TF.CreationDate,2018-12-27T15:02:32+01:00*
G04 #@! TF.ProjectId,PiAttenuator,5069417474656E7561746F722E6B6963,rev?*
G04 #@! TF.SameCoordinates,Original*
G04 #@! TF.FileFunction,Copper,L2,Bot,Signal*
G04 #@! TF.FilePolarity,Positive*
G04 Gerber Fmt 4.6, Leading zero omitted, Abs format (unit mm)*
G04 Created by KiCad (PCBNEW 5.0.1) date Do 27 Dez 2018 15:02:32 CET*
G01*
G04 APERTURE LIST*
G04 #@! TA.AperFunction,SMDPad,CuDef*
G04 #@! TD*
G04 #@! TA.AperFunction,ViaPad*
G04 #@! TD*
G04 #@! TA.AperFunction,Conductor*
G04 #@! TD*
G04 #@! TA.AperFunction,Conductor*
G04 #@! TD*
G04 APERTURE END LIST*
D98*
G04 #@! TO.P,J1,2*
G04 #@! TO.N,GND*
X-0001594645Y0005832834D02*
X0002255354Y0002632834D03*
X0002255354Y0002432834D03*
G04 #@! TD*
G04 #@! TO.P,J2,2*
G04 #@! TO.N,GND*
X0002905354Y0002432834D03*
X0002905354Y0002632834D03*
G04 #@! TD*
D99*
G04 #@! TO.N,GND*
X0002385354Y0002632834D03*
X0002425354Y0002632834D03*
X0002465354Y0002632834D03*
X0002515354Y0002632834D03*
X0002255354Y0002362834D03*
X0002295354Y0002362834D03*
X0002335354Y0002362834D03*
X0002385354Y0002362834D03*
X0002385354Y0002362834D03*
X0002385354Y0002362834D03*
X0002525354Y0002362834D03*
X0002565354Y0002362834D03*
X0002615354Y0002362834D03*
X0002655354Y0002362834D03*
X0002775354Y0002362834D03*
X0002815354Y0002362834D03*
X0002865354Y0002362834D03*
X0002665354Y0002632834D03*
X0002715354Y0002632834D03*
X0002775354Y0002632834D03*
G04 #@! TD*
D100*
G04 #@! TO.N,GND*
X0002385354Y0002632834D02*
X0002425354Y0002632834D01*
X0002465354Y0002632834D02*
X0002495354Y0002632834D01*
X0002495354Y0002632834D02*
X0002515354Y0002632834D01*
X0002255354Y0002362834D02*
X0002295354Y0002362834D01*
X0002335354Y0002362834D02*
X0002385354Y0002362834D01*
X0002385354Y0002362834D02*
X0002525354Y0002362834D01*
X0002565354Y0002362834D02*
X0002615354Y0002362834D01*
X0002655354Y0002362834D02*
X0002775354Y0002362834D01*
X0002815354Y0002362834D02*
X0002865354Y0002362834D01*
X0002665354Y0002632834D02*
X0002715354Y0002632834D01*
G04 #@! TD*
D101*
G04 #@! TO.N,GND*
G36*
X0002950354Y0002687834D02*
X0002916604Y0002687834D01*
X0002910354Y0002681584D01*
X0002910354Y0002637834D01*
X0002911141Y0002637834D01*
X0002911141Y0002627834D01*
X0002910354Y0002627834D01*
X0002910354Y0002584084D01*
X0002916604Y0002577834D01*
X0002950354Y0002577834D01*
X0002950354Y0002487834D01*
X0002916604Y0002487834D01*
X0002910354Y0002481584D01*
X0002910354Y0002437834D01*
X0002911141Y0002437834D01*
X0002911141Y0002427834D01*
X0002910354Y0002427834D01*
X0002910354Y0002384084D01*
X0002916604Y0002377834D01*
X0002950354Y0002377834D01*
X0002950354Y0002350787D01*
X0002210354Y0002350787D01*
X0002210354Y0002377834D01*
X0002244104Y0002377834D01*
X0002250354Y0002384084D01*
X0002250354Y0002427834D01*
X0002260354Y0002427834D01*
X0002260354Y0002384084D01*
X0002266604Y0002377834D01*
X0002340327Y0002377834D01*
X0002349515Y0002381640D01*
X0002356548Y0002388673D01*
X0002360354Y0002397862D01*
X0002360354Y0002421584D01*
X0002800354Y0002421584D01*
X0002800354Y0002397862D01*
X0002804160Y0002388673D01*
X0002811192Y0002381640D01*
X0002820381Y0002377834D01*
X0002894104Y0002377834D01*
X0002900354Y0002384084D01*
X0002900354Y0002427834D01*
X0002806604Y0002427834D01*
X0002800354Y0002421584D01*
X0002360354Y0002421584D01*
X0002354104Y0002427834D01*
X0002260354Y0002427834D01*
X0002250354Y0002427834D01*
X0002249566Y0002427834D01*
X0002249566Y0002437834D01*
X0002250354Y0002437834D01*
X0002250354Y0002481584D01*
X0002260354Y0002481584D01*
X0002260354Y0002437834D01*
X0002354104Y0002437834D01*
X0002360354Y0002444084D01*
X0002360354Y0002467807D01*
X0002800354Y0002467807D01*
X0002800354Y0002444084D01*
X0002806604Y0002437834D01*
X0002900354Y0002437834D01*
X0002900354Y0002481584D01*
X0002894104Y0002487834D01*
X0002820381Y0002487834D01*
X0002811192Y0002484028D01*
X0002804160Y0002476996D01*
X0002800354Y0002467807D01*
X0002360354Y0002467807D01*
X0002356548Y0002476996D01*
X0002349515Y0002484028D01*
X0002340327Y0002487834D01*
X0002266604Y0002487834D01*
X0002260354Y0002481584D01*
X0002250354Y0002481584D01*
X0002244104Y0002487834D01*
X0002210354Y0002487834D01*
X0002210354Y0002577834D01*
X0002244104Y0002577834D01*
X0002250354Y0002584084D01*
X0002250354Y0002627834D01*
X0002260354Y0002627834D01*
X0002260354Y0002584084D01*
X0002266604Y0002577834D01*
X0002340327Y0002577834D01*
X0002349515Y0002581640D01*
X0002356548Y0002588673D01*
X0002360354Y0002597862D01*
X0002360354Y0002621584D01*
X0002800354Y0002621584D01*
X0002800354Y0002597862D01*
X0002804160Y0002588673D01*
X0002811192Y0002581640D01*
X0002820381Y0002577834D01*
X0002894104Y0002577834D01*
X0002900354Y0002584084D01*
X0002900354Y0002627834D01*
X0002806604Y0002627834D01*
X0002800354Y0002621584D01*
X0002360354Y0002621584D01*
X0002354104Y0002627834D01*
X0002260354Y0002627834D01*
X0002250354Y0002627834D01*
X0002249566Y0002627834D01*
X0002249566Y0002637834D01*
X0002250354Y0002637834D01*
X0002250354Y0002681584D01*
X0002260354Y0002681584D01*
X0002260354Y0002637834D01*
X0002354104Y0002637834D01*
X0002360354Y0002644084D01*
X0002360354Y0002667807D01*
X0002800354Y0002667807D01*
X0002800354Y0002644084D01*
X0002806604Y0002637834D01*
X0002900354Y0002637834D01*
X0002900354Y0002681584D01*
X0002894104Y0002687834D01*
X0002820381Y0002687834D01*
X0002811192Y0002684028D01*
X0002804160Y0002676996D01*
X0002800354Y0002667807D01*
X0002360354Y0002667807D01*
X0002356548Y0002676996D01*
X0002349515Y0002684028D01*
X0002340327Y0002687834D01*
X0002266604Y0002687834D01*
X0002260354Y0002681584D01*
X0002250354Y0002681584D01*
X0002244104Y0002687834D01*
X0002210354Y0002687834D01*
X0002210354Y0002714882D01*
X0002950354Y0002714882D01*
X0002950354Y0002687834D01*
X0002950354Y0002687834D01*
G37*
X0002950354Y0002687834D02*
X0002916604Y0002687834D01*
X0002910354Y0002681584D01*
X0002910354Y0002637834D01*
X0002911141Y0002637834D01*
X0002911141Y0002627834D01*
X0002910354Y0002627834D01*
X0002910354Y0002584084D01*
X0002916604Y0002577834D01*
X0002950354Y0002577834D01*
X0002950354Y0002487834D01*
X0002916604Y0002487834D01*
X0002910354Y0002481584D01*
X0002910354Y0002437834D01*
X0002911141Y0002437834D01*
X0002911141Y0002427834D01*
X0002910354Y0002427834D01*
X0002910354Y0002384084D01*
X0002916604Y0002377834D01*
X0002950354Y0002377834D01*
X0002950354Y0002350787D01*
X0002210354Y0002350787D01*
X0002210354Y0002377834D01*
X0002244104Y0002377834D01*
X0002250354Y0002384084D01*
X0002250354Y0002427834D01*
X0002260354Y0002427834D01*
X0002260354Y0002384084D01*
X0002266604Y0002377834D01*
X0002340327Y0002377834D01*
X0002349515Y0002381640D01*
X0002356548Y0002388673D01*
X0002360354Y0002397862D01*
X0002360354Y0002421584D01*
X0002800354Y0002421584D01*
X0002800354Y0002397862D01*
X0002804160Y0002388673D01*
X0002811192Y0002381640D01*
X0002820381Y0002377834D01*
X0002894104Y0002377834D01*
X0002900354Y0002384084D01*
X0002900354Y0002427834D01*
X0002806604Y0002427834D01*
X0002800354Y0002421584D01*
X0002360354Y0002421584D01*
X0002354104Y0002427834D01*
X0002260354Y0002427834D01*
X0002250354Y0002427834D01*
X0002249566Y0002427834D01*
X0002249566Y0002437834D01*
X0002250354Y0002437834D01*
X0002250354Y0002481584D01*
X0002260354Y0002481584D01*
X0002260354Y0002437834D01*
X0002354104Y0002437834D01*
X0002360354Y0002444084D01*
X0002360354Y0002467807D01*
X0002800354Y0002467807D01*
X0002800354Y0002444084D01*
X0002806604Y0002437834D01*
X0002900354Y0002437834D01*
X0002900354Y0002481584D01*
X0002894104Y0002487834D01*
X0002820381Y0002487834D01*
X0002811192Y0002484028D01*
X0002804160Y0002476996D01*
X0002800354Y0002467807D01*
X0002360354Y0002467807D01*
X0002356548Y0002476996D01*
X0002349515Y0002484028D01*
X0002340327Y0002487834D01*
X0002266604Y0002487834D01*
X0002260354Y0002481584D01*
X0002250354Y0002481584D01*
X0002244104Y0002487834D01*
X0002210354Y0002487834D01*
X0002210354Y0002577834D01*
X0002244104Y0002577834D01*
X0002250354Y0002584084D01*
X0002250354Y0002627834D01*
X0002260354Y0002627834D01*
X0002260354Y0002584084D01*
X0002266604Y0002577834D01*
X0002340327Y0002577834D01*
X0002349515Y0002581640D01*
X0002356548Y0002588673D01*
X0002360354Y0002597862D01*
X0002360354Y0002621584D01*
X0002800354Y0002621584D01*
X0002800354Y0002597862D01*
X0002804160Y0002588673D01*
X0002811192Y0002581640D01*
X0002820381Y0002577834D01*
X0002894104Y0002577834D01*
X0002900354Y0002584084D01*
X0002900354Y0002627834D01*
X0002806604Y0002627834D01*
X0002800354Y0002621584D01*
X0002360354Y0002621584D01*
X0002354104Y0002627834D01*
X0002260354Y0002627834D01*
X0002250354Y0002627834D01*
X0002249566Y0002627834D01*
X0002249566Y0002637834D01*
X0002250354Y0002637834D01*
X0002250354Y0002681584D01*
X0002260354Y0002681584D01*
X0002260354Y0002637834D01*
X0002354104Y0002637834D01*
X0002360354Y0002644084D01*
X0002360354Y0002667807D01*
X0002800354Y0002667807D01*
X0002800354Y0002644084D01*
X0002806604Y0002637834D01*
X0002900354Y0002637834D01*
X0002900354Y0002681584D01*
X0002894104Y0002687834D01*
X0002820381Y0002687834D01*
X0002811192Y0002684028D01*
X0002804160Y0002676996D01*
X0002800354Y0002667807D01*
X0002360354Y0002667807D01*
X0002356548Y0002676996D01*
X0002349515Y0002684028D01*
X0002340327Y0002687834D01*
X0002266604Y0002687834D01*
X0002260354Y0002681584D01*
X0002250354Y0002681584D01*
X0002244104Y0002687834D01*
X0002210354Y0002687834D01*
X0002210354Y0002714882D01*
X0002950354Y0002714882D01*
X0002950354Y0002687834D01*
G04 #@! TD*
G04 next file*
G04 #@! TF.GenerationSoftware,KiCad,Pcbnew,5.0.1*
G04 #@! TF.CreationDate,2018-12-27T15:02:32+01:00*
G04 #@! TF.ProjectId,PiAttenuator,5069417474656E7561746F722E6B6963,rev?*
G04 #@! TF.SameCoordinates,Original*
G04 #@! TF.FileFunction,Copper,L2,Bot,Signal*
G04 #@! TF.FilePolarity,Positive*
G04 Gerber Fmt 4.6, Leading zero omitted, Abs format (unit mm)*
G04 Created by KiCad (PCBNEW 5.0.1) date Do 27 Dez 2018 15:02:32 CET*
G01*
G04 APERTURE LIST*
G04 #@! TA.AperFunction,SMDPad,CuDef*
G04 #@! TD*
G04 #@! TA.AperFunction,ViaPad*
G04 #@! TD*
G04 #@! TA.AperFunction,Conductor*
G04 #@! TD*
G04 #@! TA.AperFunction,Conductor*
G04 #@! TD*
G04 APERTURE END LIST*
D102*
G04 #@! TO.P,J1,2*
G04 #@! TO.N,GND*
X-0000478503Y-0000925354D02*
X0002721496Y0002924645D03*
X0002921496Y0002924645D03*
G04 #@! TD*
G04 #@! TO.P,J2,2*
G04 #@! TO.N,GND*
X0002921496Y0003574645D03*
X0002721496Y0003574645D03*
G04 #@! TD*
D103*
G04 #@! TO.N,GND*
X0002721496Y0003054645D03*
X0002721496Y0003094645D03*
X0002721496Y0003134645D03*
X0002721496Y0003184645D03*
X0002991496Y0002924645D03*
X0002991496Y0002964645D03*
X0002991496Y0003004645D03*
X0002991496Y0003054645D03*
X0002991496Y0003054645D03*
X0002991496Y0003054645D03*
X0002991496Y0003194645D03*
X0002991496Y0003234645D03*
X0002991496Y0003284645D03*
X0002991496Y0003324645D03*
X0002991496Y0003444645D03*
X0002991496Y0003484645D03*
X0002991496Y0003534645D03*
X0002721496Y0003334645D03*
X0002721496Y0003384645D03*
X0002721496Y0003444645D03*
G04 #@! TD*
D104*
G04 #@! TO.N,GND*
X0002721496Y0003054645D02*
X0002721496Y0003094645D01*
X0002721496Y0003134645D02*
X0002721496Y0003164645D01*
X0002721496Y0003164645D02*
X0002721496Y0003184645D01*
X0002991496Y0002924645D02*
X0002991496Y0002964645D01*
X0002991496Y0003004645D02*
X0002991496Y0003054645D01*
X0002991496Y0003054645D02*
X0002991496Y0003194645D01*
X0002991496Y0003234645D02*
X0002991496Y0003284645D01*
X0002991496Y0003324645D02*
X0002991496Y0003444645D01*
X0002991496Y0003484645D02*
X0002991496Y0003534645D01*
X0002721496Y0003334645D02*
X0002721496Y0003384645D01*
G04 #@! TD*
D105*
G04 #@! TO.N,GND*
G36*
X0002666496Y0003619645D02*
X0002666496Y0003585895D01*
X0002672746Y0003579645D01*
X0002716496Y0003579645D01*
X0002716496Y0003580433D01*
X0002726496Y0003580433D01*
X0002726496Y0003579645D01*
X0002770246Y0003579645D01*
X0002776496Y0003585895D01*
X0002776496Y0003619645D01*
X0002866496Y0003619645D01*
X0002866496Y0003585895D01*
X0002872746Y0003579645D01*
X0002916496Y0003579645D01*
X0002916496Y0003580433D01*
X0002926496Y0003580433D01*
X0002926496Y0003579645D01*
X0002970246Y0003579645D01*
X0002976496Y0003585895D01*
X0002976496Y0003619645D01*
X0003003543Y0003619645D01*
X0003003543Y0002879645D01*
X0002976496Y0002879645D01*
X0002976496Y0002913395D01*
X0002970246Y0002919645D01*
X0002926496Y0002919645D01*
X0002926496Y0002929645D01*
X0002970246Y0002929645D01*
X0002976496Y0002935895D01*
X0002976496Y0003009618D01*
X0002972690Y0003018807D01*
X0002965657Y0003025839D01*
X0002956468Y0003029645D01*
X0002932746Y0003029645D01*
X0002932746Y0003469645D01*
X0002956468Y0003469645D01*
X0002965657Y0003473451D01*
X0002972690Y0003480484D01*
X0002976496Y0003489672D01*
X0002976496Y0003563395D01*
X0002970246Y0003569645D01*
X0002926496Y0003569645D01*
X0002926496Y0003475895D01*
X0002932746Y0003469645D01*
X0002932746Y0003029645D01*
X0002926496Y0003023395D01*
X0002926496Y0002929645D01*
X0002926496Y0002919645D01*
X0002926496Y0002918858D01*
X0002916496Y0002918858D01*
X0002916496Y0002919645D01*
X0002872746Y0002919645D01*
X0002872746Y0002929645D01*
X0002916496Y0002929645D01*
X0002916496Y0003023395D01*
X0002910246Y0003029645D01*
X0002886523Y0003029645D01*
X0002886523Y0003469645D01*
X0002910246Y0003469645D01*
X0002916496Y0003475895D01*
X0002916496Y0003569645D01*
X0002872746Y0003569645D01*
X0002866496Y0003563395D01*
X0002866496Y0003489672D01*
X0002870302Y0003480484D01*
X0002877334Y0003473451D01*
X0002886523Y0003469645D01*
X0002886523Y0003029645D01*
X0002877334Y0003025839D01*
X0002870302Y0003018807D01*
X0002866496Y0003009618D01*
X0002866496Y0002935895D01*
X0002872746Y0002929645D01*
X0002872746Y0002919645D01*
X0002866496Y0002913395D01*
X0002866496Y0002879645D01*
X0002776496Y0002879645D01*
X0002776496Y0002913395D01*
X0002770246Y0002919645D01*
X0002726496Y0002919645D01*
X0002726496Y0002929645D01*
X0002770246Y0002929645D01*
X0002776496Y0002935895D01*
X0002776496Y0003009618D01*
X0002772690Y0003018807D01*
X0002765657Y0003025839D01*
X0002756468Y0003029645D01*
X0002732746Y0003029645D01*
X0002732746Y0003469645D01*
X0002756468Y0003469645D01*
X0002765657Y0003473451D01*
X0002772690Y0003480484D01*
X0002776496Y0003489672D01*
X0002776496Y0003563395D01*
X0002770246Y0003569645D01*
X0002726496Y0003569645D01*
X0002726496Y0003475895D01*
X0002732746Y0003469645D01*
X0002732746Y0003029645D01*
X0002726496Y0003023395D01*
X0002726496Y0002929645D01*
X0002726496Y0002919645D01*
X0002726496Y0002918858D01*
X0002716496Y0002918858D01*
X0002716496Y0002919645D01*
X0002672746Y0002919645D01*
X0002672746Y0002929645D01*
X0002716496Y0002929645D01*
X0002716496Y0003023395D01*
X0002710246Y0003029645D01*
X0002686523Y0003029645D01*
X0002686523Y0003469645D01*
X0002710246Y0003469645D01*
X0002716496Y0003475895D01*
X0002716496Y0003569645D01*
X0002672746Y0003569645D01*
X0002666496Y0003563395D01*
X0002666496Y0003489672D01*
X0002670302Y0003480484D01*
X0002677334Y0003473451D01*
X0002686523Y0003469645D01*
X0002686523Y0003029645D01*
X0002677334Y0003025839D01*
X0002670302Y0003018807D01*
X0002666496Y0003009618D01*
X0002666496Y0002935895D01*
X0002672746Y0002929645D01*
X0002672746Y0002919645D01*
X0002666496Y0002913395D01*
X0002666496Y0002879645D01*
X0002639448Y0002879645D01*
X0002639448Y0003619645D01*
X0002666496Y0003619645D01*
X0002666496Y0003619645D01*
G37*
X0002666496Y0003619645D02*
X0002666496Y0003585895D01*
X0002672746Y0003579645D01*
X0002716496Y0003579645D01*
X0002716496Y0003580433D01*
X0002726496Y0003580433D01*
X0002726496Y0003579645D01*
X0002770246Y0003579645D01*
X0002776496Y0003585895D01*
X0002776496Y0003619645D01*
X0002866496Y0003619645D01*
X0002866496Y0003585895D01*
X0002872746Y0003579645D01*
X0002916496Y0003579645D01*
X0002916496Y0003580433D01*
X0002926496Y0003580433D01*
X0002926496Y0003579645D01*
X0002970246Y0003579645D01*
X0002976496Y0003585895D01*
X0002976496Y0003619645D01*
X0003003543Y0003619645D01*
X0003003543Y0002879645D01*
X0002976496Y0002879645D01*
X0002976496Y0002913395D01*
X0002970246Y0002919645D01*
X0002926496Y0002919645D01*
X0002926496Y0002929645D01*
X0002970246Y0002929645D01*
X0002976496Y0002935895D01*
X0002976496Y0003009618D01*
X0002972690Y0003018807D01*
X0002965657Y0003025839D01*
X0002956468Y0003029645D01*
X0002932746Y0003029645D01*
X0002932746Y0003469645D01*
X0002956468Y0003469645D01*
X0002965657Y0003473451D01*
X0002972690Y0003480484D01*
X0002976496Y0003489672D01*
X0002976496Y0003563395D01*
X0002970246Y0003569645D01*
X0002926496Y0003569645D01*
X0002926496Y0003475895D01*
X0002932746Y0003469645D01*
X0002932746Y0003029645D01*
X0002926496Y0003023395D01*
X0002926496Y0002929645D01*
X0002926496Y0002919645D01*
X0002926496Y0002918858D01*
X0002916496Y0002918858D01*
X0002916496Y0002919645D01*
X0002872746Y0002919645D01*
X0002872746Y0002929645D01*
X0002916496Y0002929645D01*
X0002916496Y0003023395D01*
X0002910246Y0003029645D01*
X0002886523Y0003029645D01*
X0002886523Y0003469645D01*
X0002910246Y0003469645D01*
X0002916496Y0003475895D01*
X0002916496Y0003569645D01*
X0002872746Y0003569645D01*
X0002866496Y0003563395D01*
X0002866496Y0003489672D01*
X0002870302Y0003480484D01*
X0002877334Y0003473451D01*
X0002886523Y0003469645D01*
X0002886523Y0003029645D01*
X0002877334Y0003025839D01*
X0002870302Y0003018807D01*
X0002866496Y0003009618D01*
X0002866496Y0002935895D01*
X0002872746Y0002929645D01*
X0002872746Y0002919645D01*
X0002866496Y0002913395D01*
X0002866496Y0002879645D01*
X0002776496Y0002879645D01*
X0002776496Y0002913395D01*
X0002770246Y0002919645D01*
X0002726496Y0002919645D01*
X0002726496Y0002929645D01*
X0002770246Y0002929645D01*
X0002776496Y0002935895D01*
X0002776496Y0003009618D01*
X0002772690Y0003018807D01*
X0002765657Y0003025839D01*
X0002756468Y0003029645D01*
X0002732746Y0003029645D01*
X0002732746Y0003469645D01*
X0002756468Y0003469645D01*
X0002765657Y0003473451D01*
X0002772690Y0003480484D01*
X0002776496Y0003489672D01*
X0002776496Y0003563395D01*
X0002770246Y0003569645D01*
X0002726496Y0003569645D01*
X0002726496Y0003475895D01*
X0002732746Y0003469645D01*
X0002732746Y0003029645D01*
X0002726496Y0003023395D01*
X0002726496Y0002929645D01*
X0002726496Y0002919645D01*
X0002726496Y0002918858D01*
X0002716496Y0002918858D01*
X0002716496Y0002919645D01*
X0002672746Y0002919645D01*
X0002672746Y0002929645D01*
X0002716496Y0002929645D01*
X0002716496Y0003023395D01*
X0002710246Y0003029645D01*
X0002686523Y0003029645D01*
X0002686523Y0003469645D01*
X0002710246Y0003469645D01*
X0002716496Y0003475895D01*
X0002716496Y0003569645D01*
X0002672746Y0003569645D01*
X0002666496Y0003563395D01*
X0002666496Y0003489672D01*
X0002670302Y0003480484D01*
X0002677334Y0003473451D01*
X0002686523Y0003469645D01*
X0002686523Y0003029645D01*
X0002677334Y0003025839D01*
X0002670302Y0003018807D01*
X0002666496Y0003009618D01*
X0002666496Y0002935895D01*
X0002672746Y0002929645D01*
X0002672746Y0002919645D01*
X0002666496Y0002913395D01*
X0002666496Y0002879645D01*
X0002639448Y0002879645D01*
X0002639448Y0003619645D01*
X0002666496Y0003619645D01*
G04 #@! TD*
G04 next file*
G04 #@! TF.GenerationSoftware,KiCad,Pcbnew,5.0.1*
G04 #@! TF.CreationDate,2018-12-27T15:22:53+01:00*
G04 #@! TF.ProjectId,SMAadapter,534D41616461707465722E6B69636164,rev?*
G04 #@! TF.SameCoordinates,PX74c1a60PY7a15e80*
G04 #@! TF.FileFunction,Copper,L2,Bot,Signal*
G04 #@! TF.FilePolarity,Positive*
G04 Gerber Fmt 4.6, Leading zero omitted, Abs format (unit mm)*
G04 Created by KiCad (PCBNEW 5.0.1) date Do 27 Dez 2018 15:22:53 CET*
G01*
G04 APERTURE LIST*
G04 #@! TA.AperFunction,SMDPad,CuDef*
G04 #@! TD*
G04 #@! TA.AperFunction,ViaPad*
G04 #@! TD*
G04 #@! TA.AperFunction,Conductor*
G04 #@! TD*
G04 #@! TA.AperFunction,Conductor*
G04 #@! TD*
G04 APERTURE END LIST*
D106*
G04 #@! TO.P,J1,2*
G04 #@! TO.N,GND*
X0000000000Y0002952755D02*
X0000079842Y0003022755D03*
X0000079842Y0003222755D03*
G04 #@! TD*
D107*
G04 #@! TO.N,GND*
X0000220000Y0003012755D03*
X0000300000Y0003012755D03*
X0000380000Y0003012755D03*
X0000460000Y0003012755D03*
X0000560000Y0003012755D03*
X0000640000Y0003012755D03*
X0000640000Y0003072755D03*
X0000640000Y0003132755D03*
X0000640000Y0003212755D03*
X0000580000Y0003212755D03*
X0000480000Y0003212755D03*
X0000400000Y0003212755D03*
X0000339999Y0003212755D03*
X0000260000Y0003212755D03*
X0000200000Y0003212755D03*
G04 #@! TD*
D108*
G04 #@! TO.N,GND*
X0000220000Y0003012755D02*
X0000300000Y0003012755D01*
X0000380000Y0003012755D02*
X0000460000Y0003012755D01*
X0000560000Y0003012755D02*
X0000640000Y0003012755D01*
X0000640000Y0003132755D02*
X0000640000Y0003212755D01*
X0000580000Y0003212755D02*
X0000480000Y0003212755D01*
X0000400000Y0003212755D02*
X0000339999Y0003212755D01*
X0000260000Y0003212755D02*
X0000200000Y0003212755D01*
G04 #@! TD*
D109*
G04 #@! TO.N,GND*
G36*
X0000672047Y0002980708D02*
X0000181912Y0002980708D01*
X0000184842Y0002987783D01*
X0000184842Y0003011505D01*
X0000178592Y0003017755D01*
X0000084842Y0003017755D01*
X0000084842Y0003016968D01*
X0000074842Y0003016968D01*
X0000074842Y0003017755D01*
X0000074055Y0003017755D01*
X0000074055Y0003027755D01*
X0000074842Y0003027755D01*
X0000074842Y0003071505D01*
X0000084842Y0003071505D01*
X0000084842Y0003027755D01*
X0000178592Y0003027755D01*
X0000184842Y0003034005D01*
X0000184842Y0003057728D01*
X0000181036Y0003066917D01*
X0000174003Y0003073949D01*
X0000164815Y0003077755D01*
X0000091092Y0003077755D01*
X0000084842Y0003071505D01*
X0000074842Y0003071505D01*
X0000068592Y0003077755D01*
X0000027952Y0003077755D01*
X0000027952Y0003167755D01*
X0000068592Y0003167755D01*
X0000074842Y0003174005D01*
X0000074842Y0003217755D01*
X0000084842Y0003217755D01*
X0000084842Y0003174005D01*
X0000091092Y0003167755D01*
X0000164815Y0003167755D01*
X0000174003Y0003171561D01*
X0000181036Y0003178594D01*
X0000184842Y0003187783D01*
X0000184842Y0003211505D01*
X0000178592Y0003217755D01*
X0000084842Y0003217755D01*
X0000074842Y0003217755D01*
X0000074055Y0003217755D01*
X0000074055Y0003227755D01*
X0000074842Y0003227755D01*
X0000074842Y0003228543D01*
X0000084842Y0003228543D01*
X0000084842Y0003227755D01*
X0000178592Y0003227755D01*
X0000184842Y0003234005D01*
X0000184842Y0003257728D01*
X0000181912Y0003264803D01*
X0000672047Y0003264803D01*
X0000672047Y0002980708D01*
X0000672047Y0002980708D01*
G37*
X0000672047Y0002980708D02*
X0000181912Y0002980708D01*
X0000184842Y0002987783D01*
X0000184842Y0003011505D01*
X0000178592Y0003017755D01*
X0000084842Y0003017755D01*
X0000084842Y0003016968D01*
X0000074842Y0003016968D01*
X0000074842Y0003017755D01*
X0000074055Y0003017755D01*
X0000074055Y0003027755D01*
X0000074842Y0003027755D01*
X0000074842Y0003071505D01*
X0000084842Y0003071505D01*
X0000084842Y0003027755D01*
X0000178592Y0003027755D01*
X0000184842Y0003034005D01*
X0000184842Y0003057728D01*
X0000181036Y0003066917D01*
X0000174003Y0003073949D01*
X0000164815Y0003077755D01*
X0000091092Y0003077755D01*
X0000084842Y0003071505D01*
X0000074842Y0003071505D01*
X0000068592Y0003077755D01*
X0000027952Y0003077755D01*
X0000027952Y0003167755D01*
X0000068592Y0003167755D01*
X0000074842Y0003174005D01*
X0000074842Y0003217755D01*
X0000084842Y0003217755D01*
X0000084842Y0003174005D01*
X0000091092Y0003167755D01*
X0000164815Y0003167755D01*
X0000174003Y0003171561D01*
X0000181036Y0003178594D01*
X0000184842Y0003187783D01*
X0000184842Y0003211505D01*
X0000178592Y0003217755D01*
X0000084842Y0003217755D01*
X0000074842Y0003217755D01*
X0000074055Y0003217755D01*
X0000074055Y0003227755D01*
X0000074842Y0003227755D01*
X0000074842Y0003228543D01*
X0000084842Y0003228543D01*
X0000084842Y0003227755D01*
X0000178592Y0003227755D01*
X0000184842Y0003234005D01*
X0000184842Y0003257728D01*
X0000181912Y0003264803D01*
X0000672047Y0003264803D01*
X0000672047Y0002980708D01*
G04 #@! TD*
G04 next file*
G04 #@! TF.GenerationSoftware,KiCad,Pcbnew,5.0.1*
G04 #@! TF.CreationDate,2018-12-27T15:22:53+01:00*
G04 #@! TF.ProjectId,SMAadapter,534D41616461707465722E6B69636164,rev?*
G04 #@! TF.SameCoordinates,PX74c1a60PY7a15e80*
G04 #@! TF.FileFunction,Copper,L2,Bot,Signal*
G04 #@! TF.FilePolarity,Positive*
G04 Gerber Fmt 4.6, Leading zero omitted, Abs format (unit mm)*
G04 Created by KiCad (PCBNEW 5.0.1) date Do 27 Dez 2018 15:22:53 CET*
G01*
G04 APERTURE LIST*
G04 #@! TA.AperFunction,SMDPad,CuDef*
G04 #@! TD*
G04 #@! TA.AperFunction,ViaPad*
G04 #@! TD*
G04 #@! TA.AperFunction,Conductor*
G04 #@! TD*
G04 #@! TA.AperFunction,Conductor*
G04 #@! TD*
G04 APERTURE END LIST*
D110*
G04 #@! TO.P,J1,2*
G04 #@! TO.N,GND*
X0000000000Y0003464566D02*
X0000079842Y0003534566D03*
X0000079842Y0003734566D03*
G04 #@! TD*
D111*
G04 #@! TO.N,GND*
X0000220000Y0003524566D03*
X0000300000Y0003524566D03*
X0000380000Y0003524566D03*
X0000460000Y0003524566D03*
X0000560000Y0003524566D03*
X0000640000Y0003524566D03*
X0000640000Y0003584566D03*
X0000640000Y0003644566D03*
X0000640000Y0003724566D03*
X0000580000Y0003724566D03*
X0000480000Y0003724566D03*
X0000400000Y0003724566D03*
X0000339999Y0003724566D03*
X0000260000Y0003724566D03*
X0000200000Y0003724566D03*
G04 #@! TD*
D112*
G04 #@! TO.N,GND*
X0000220000Y0003524566D02*
X0000300000Y0003524566D01*
X0000380000Y0003524566D02*
X0000460000Y0003524566D01*
X0000560000Y0003524566D02*
X0000640000Y0003524566D01*
X0000640000Y0003644566D02*
X0000640000Y0003724566D01*
X0000580000Y0003724566D02*
X0000480000Y0003724566D01*
X0000400000Y0003724566D02*
X0000339999Y0003724566D01*
X0000260000Y0003724566D02*
X0000200000Y0003724566D01*
G04 #@! TD*
D113*
G04 #@! TO.N,GND*
G36*
X0000672047Y0003492519D02*
X0000181912Y0003492519D01*
X0000184842Y0003499594D01*
X0000184842Y0003523316D01*
X0000178592Y0003529566D01*
X0000084842Y0003529566D01*
X0000084842Y0003528779D01*
X0000074842Y0003528779D01*
X0000074842Y0003529566D01*
X0000074055Y0003529566D01*
X0000074055Y0003539566D01*
X0000074842Y0003539566D01*
X0000074842Y0003583316D01*
X0000084842Y0003583316D01*
X0000084842Y0003539566D01*
X0000178592Y0003539566D01*
X0000184842Y0003545816D01*
X0000184842Y0003569539D01*
X0000181036Y0003578728D01*
X0000174003Y0003585760D01*
X0000164815Y0003589566D01*
X0000091092Y0003589566D01*
X0000084842Y0003583316D01*
X0000074842Y0003583316D01*
X0000068592Y0003589566D01*
X0000027952Y0003589566D01*
X0000027952Y0003679566D01*
X0000068592Y0003679566D01*
X0000074842Y0003685816D01*
X0000074842Y0003729566D01*
X0000084842Y0003729566D01*
X0000084842Y0003685816D01*
X0000091092Y0003679566D01*
X0000164815Y0003679566D01*
X0000174003Y0003683372D01*
X0000181036Y0003690405D01*
X0000184842Y0003699594D01*
X0000184842Y0003723316D01*
X0000178592Y0003729566D01*
X0000084842Y0003729566D01*
X0000074842Y0003729566D01*
X0000074055Y0003729566D01*
X0000074055Y0003739566D01*
X0000074842Y0003739566D01*
X0000074842Y0003740354D01*
X0000084842Y0003740354D01*
X0000084842Y0003739566D01*
X0000178592Y0003739566D01*
X0000184842Y0003745816D01*
X0000184842Y0003769539D01*
X0000181912Y0003776614D01*
X0000672047Y0003776614D01*
X0000672047Y0003492519D01*
X0000672047Y0003492519D01*
G37*
X0000672047Y0003492519D02*
X0000181912Y0003492519D01*
X0000184842Y0003499594D01*
X0000184842Y0003523316D01*
X0000178592Y0003529566D01*
X0000084842Y0003529566D01*
X0000084842Y0003528779D01*
X0000074842Y0003528779D01*
X0000074842Y0003529566D01*
X0000074055Y0003529566D01*
X0000074055Y0003539566D01*
X0000074842Y0003539566D01*
X0000074842Y0003583316D01*
X0000084842Y0003583316D01*
X0000084842Y0003539566D01*
X0000178592Y0003539566D01*
X0000184842Y0003545816D01*
X0000184842Y0003569539D01*
X0000181036Y0003578728D01*
X0000174003Y0003585760D01*
X0000164815Y0003589566D01*
X0000091092Y0003589566D01*
X0000084842Y0003583316D01*
X0000074842Y0003583316D01*
X0000068592Y0003589566D01*
X0000027952Y0003589566D01*
X0000027952Y0003679566D01*
X0000068592Y0003679566D01*
X0000074842Y0003685816D01*
X0000074842Y0003729566D01*
X0000084842Y0003729566D01*
X0000084842Y0003685816D01*
X0000091092Y0003679566D01*
X0000164815Y0003679566D01*
X0000174003Y0003683372D01*
X0000181036Y0003690405D01*
X0000184842Y0003699594D01*
X0000184842Y0003723316D01*
X0000178592Y0003729566D01*
X0000084842Y0003729566D01*
X0000074842Y0003729566D01*
X0000074055Y0003729566D01*
X0000074055Y0003739566D01*
X0000074842Y0003739566D01*
X0000074842Y0003740354D01*
X0000084842Y0003740354D01*
X0000084842Y0003739566D01*
X0000178592Y0003739566D01*
X0000184842Y0003745816D01*
X0000184842Y0003769539D01*
X0000181912Y0003776614D01*
X0000672047Y0003776614D01*
X0000672047Y0003492519D01*
G04 #@! TD*
M02*