%
M48
METRIC,000.000
T01C0.30
T10C0.50
%
T01
X082300Y097560
X082300Y086130
X082300Y084225
X084839Y097560
X084839Y086130
X084839Y084225
X086110Y094385
X086110Y089305
X087380Y097560
X087380Y094385
X087380Y089305
X087380Y086130
X087380Y084225
X088649Y094385
X088649Y089305
X089919Y098830
X089919Y096925
X089919Y095655
X089919Y094385
X089919Y089305
X089919Y088035
X089919Y086765
X089919Y085495
X089919Y084225
X091189Y098830
X091189Y084225
X092460Y098830
X092460Y084225
X008789Y060861
X009805Y060861
X010822Y060861
X012091Y067720
X012091Y060861
X012091Y060861
X012091Y060861
X013107Y067720
X014123Y067720
X015394Y067720
X015647Y060861
X016664Y060861
X017933Y060861
X018949Y060861
X019203Y067720
X020473Y067720
X021997Y067720
X021997Y060861
X023013Y060861
X024283Y060861
X034152Y050635
X036184Y050635
X038216Y050635
X045328Y051144
X050408Y051651
X045328Y052667
X034152Y053176
X050408Y053684
X045328Y054192
X045328Y055715
X050408Y055715
X050408Y057747
X036184Y059271
X038216Y059271
X040248Y059780
X050408Y059780
X045328Y060287
X040248Y061303
X045328Y061812
X050408Y061812
X045328Y063335
X050408Y063843
X045328Y064860
X050408Y065876
X045328Y066383
X036184Y067399
X045328Y067907
X050408Y067907
X036184Y069431
X032119Y071464
X034152Y071464
X036184Y071464
X002540Y050604
X003810Y050604
X003810Y041079
X005080Y050604
X005080Y041079
X006350Y050604
X006350Y041079
X006985Y049334
X007620Y050604
X007620Y041079
X008890Y051874
X008890Y040444
X010160Y039809
X010795Y052509
X011430Y039809
X012065Y052509
X012065Y046794
X012700Y039809
X013335Y052509
X013335Y047429
X013335Y046159
X013335Y044889
X013970Y038539
X014605Y052509
X014605Y047429
X014605Y046159
X014605Y044889
X015240Y038539
X015875Y052509
X016510Y038539
X017780Y052509
X017780Y038539
X019050Y053779
X019685Y038539
X020320Y055049
X020955Y037904
X021590Y055049
X022225Y037904
X023495Y047429
X023495Y045524
X026035Y047429
X026035Y045524
X086604Y023920
X081524Y023412
X086604Y022396
X081524Y021380
X086604Y020363
X081524Y019348
X086604Y018840
X081524Y017316
X086604Y016808
X081524Y014776
X086604Y014268
X086604Y012744
X084572Y012744
X083048Y012744
X081524Y012744
X053714Y001904
X054349Y006984
X056889Y006984
X059429Y006984
X061969Y006984
X064509Y006984
X067049Y006984
X069589Y006984
X072129Y006984
X074669Y006984
X077209Y006984
X079749Y006984
X081019Y001904
X004649Y007905
X005919Y007905
X007189Y007905
X008459Y007905
X009730Y007905
X011000Y007905
X011634Y002825
X012269Y007905
X012905Y002825
X013539Y007905
X014174Y002825
X014809Y007905
X015444Y002825
X016079Y007905
X016715Y002825
X017349Y007905
X017985Y002825
X018619Y007905
X019254Y002825
X019890Y007905
X020524Y002825
X021159Y007905
X021794Y002825
X022430Y007905
X023699Y007905
X024969Y007905
X026239Y007905
X027509Y007905
X028780Y007905
X029414Y002825
X030049Y007905
X030684Y002825
X031319Y007905
X031955Y002825
X032590Y007905
X033224Y002825
X033860Y007905
X034494Y002825
X035129Y007905
X035765Y002825
X036399Y007905
X037035Y002825
X037669Y007905
X038304Y002825
X038940Y007905
X039574Y002825
X040209Y007905
X005715Y018984
X008890Y018984
X013335Y013904
X024130Y013904
X027940Y018984
X030480Y018984
X027698Y094065
X027698Y092795
X027698Y091779
X028207Y090001
X028969Y084921
X030493Y084921
X032016Y090001
X032525Y084921
X032779Y094065
X033033Y091271
X033033Y090001
X045715Y028984
X048890Y028984
X053335Y023904
X064129Y023904
X067940Y028984
X070480Y028984
X005715Y030984
X008890Y030984
X013335Y025904
X024130Y025904
X027940Y030984
X030480Y030984
X097680Y025919
X092600Y026554
X092600Y029094
X092600Y031635
X092600Y034174
X092600Y036714
X092600Y039254
X092600Y041794
X092600Y044335
X092600Y046875
X092600Y049414
X092600Y051954
X097680Y053224
X049984Y078286
X049984Y079302
X049984Y080318
X043126Y081588
X049984Y081588
X049984Y081588
X049984Y081588
X043126Y082604
X043126Y083620
X043126Y084890
X049984Y085144
X049984Y086160
X049984Y087430
X049984Y088446
X043126Y088700
X043126Y089970
X043126Y091494
X049984Y091494
X049984Y092510
X049984Y093780
X062984Y078286
X062984Y079302
X062984Y080318
X056126Y081588
X062984Y081588
X062984Y081588
X062984Y081588
X056126Y082604
X056126Y083620
X056126Y084890
X062984Y085144
X062984Y086160
X062984Y087430
X062984Y088446
X056126Y088700
X056126Y089970
X056126Y091494
X062984Y091494
X062984Y092510
X062984Y093780
X045919Y013320
X046554Y018400
X049094Y018400
X051635Y018400
X054174Y018400
X056714Y018400
X059254Y018400
X061794Y018400
X064334Y018400
X066875Y018400
X069414Y018400
X071954Y018400
X073225Y013320
X093396Y005080
X098476Y005588
X093396Y006604
X098476Y007619
X093396Y008636
X098476Y009652
X093396Y010160
X098476Y011684
X093396Y012191
X098476Y014224
X093396Y014731
X093396Y016256
X095428Y016256
X096952Y016256
X098476Y016256
X097604Y073920
X092524Y073412
X097604Y072396
X092524Y071380
X097604Y070364
X092524Y069348
X097604Y068840
X092524Y067316
X097604Y066808
X092524Y064775
X097604Y064268
X097604Y062744
X095572Y062744
X094048Y062744
X092524Y062744
X045715Y040984
X048890Y040984
X053335Y035904
X064129Y035904
X067940Y040984
X070480Y040984
X082074Y037410
X082074Y040585
X087155Y045030
X087155Y055824
X082075Y059635
X082075Y062174
X057285Y047016
X058301Y047016
X059317Y047016
X060587Y053874
X060587Y047016
X060587Y047016
X060587Y047016
X061603Y053874
X062619Y053874
X063889Y053874
X064143Y047016
X065159Y047016
X066429Y047016
X067445Y047016
X067699Y053874
X068969Y053874
X070493Y053874
X070493Y047016
X071509Y047016
X072779Y047016
X057285Y060016
X058301Y060016
X059317Y060016
X060587Y066874
X060587Y060016
X060587Y060016
X060587Y060016
X061603Y066874
X062619Y066874
X063889Y066874
X064143Y060016
X065159Y060016
X066429Y060016
X067445Y060016
X067699Y066874
X068969Y066874
X070493Y066874
X070493Y060016
X071509Y060016
X072779Y060016
X075984Y074286
X075984Y075302
X075984Y076318
X069126Y077588
X075984Y077588
X075984Y077588
X075984Y077588
X069126Y078604
X069126Y079620
X069126Y080890
X075984Y081144
X075984Y082160
X075984Y083430
X075984Y084446
X069126Y084700
X069126Y085970
X069126Y087494
X075984Y087494
X075984Y088510
X075984Y089780
X005080Y081604
X005588Y076524
X006604Y081604
X007619Y076524
X008636Y081604
X009652Y076524
X010160Y081604
X011684Y076524
X012191Y081604
X014224Y076524
X014731Y081604
X016256Y081604
X016256Y079572
X016256Y078048
X016256Y076524
X005080Y094604
X005588Y089524
X006604Y094604
X007619Y089524
X008636Y094604
X009652Y089524
X010160Y094604
X011684Y089524
X012191Y094604
X014224Y089524
X014731Y094604
X016256Y094604
X016256Y092572
X016256Y091048
X016256Y089524
T10
X022600Y010059
X021600Y010059
X020600Y010059
X019600Y010059
X018600Y010059
X017600Y010059
X016914Y011750
X017914Y011750
X018914Y011750
X019914Y011750
X020914Y011750
X021914Y011750
X022914Y011750
X021775Y021774
X020775Y021774
X019775Y021774
X018775Y021774
X017775Y021774
X016775Y021774
X015775Y021774
X015914Y023750
X016914Y023750
X017914Y023750
X018914Y023750
X019914Y023750
X020914Y023750
X037715Y019607
X037715Y020607
X037701Y021605
X036775Y021774
X035775Y021774
X039750Y024693
X039750Y023693
X039750Y022693
X039915Y021764
X040914Y021750
X041914Y021750
X037715Y024607
X036914Y023750
X041345Y019919
X040345Y019919
X039955Y019203
X039750Y030693
X039750Y029693
X039750Y028693
X039750Y027693
X039750Y026693
X039750Y025693
X037715Y025607
X037715Y026607
X037715Y027607
X037715Y028607
X037715Y029607
X037715Y030607
X047750Y006788
X047750Y005788
X047750Y004788
X047750Y003788
X047750Y002788
X047750Y001788
X045540Y001892
X045540Y002892
X045540Y003892
X045540Y004892
X045540Y005892
X045540Y006892
X040775Y031774
X039804Y031680
X037715Y031607
X037715Y032607
X037701Y033605
X036775Y033774
X035775Y033774
X039750Y036693
X039750Y035693
X039750Y034693
X039915Y033764
X040914Y033750
X041914Y033750
X014579Y035750
X015579Y035750
X016579Y035750
X017579Y035750
X018579Y035750
X019579Y035750
X019775Y033774
X018775Y033774
X017775Y033774
X016775Y033774
X015775Y033774
X014775Y033774
X012515Y059596
X013515Y059596
X014515Y059596
X015515Y059596
X016515Y059596
X017515Y059596
X017680Y057205
X016680Y057205
X015680Y057205
X014680Y057205
X013680Y057205
X012680Y057205
X030091Y056459
X030091Y055459
X030091Y054459
X030091Y053459
X030091Y052459
X030091Y051459
X028190Y051607
X028190Y052607
X028190Y053607
X028190Y054607
X028190Y055607
X028190Y056607
X064250Y076607
X059929Y075750
X060929Y075750
X061929Y075750
X062929Y075750
X063929Y075750
X065535Y069917
X064535Y069917
X063535Y069917
X062535Y069917
X061535Y069917
X060535Y069917
X066082Y075010
X066082Y074010
X066082Y073010
X066082Y072010
X066929Y071750
X051250Y083607
X051250Y084607
X051250Y085607
X051250Y086607
X051250Y087607
X051250Y088607
X053082Y089010
X053082Y088010
X053082Y087010
X053082Y086010
X053082Y085010
X053082Y084010
X046911Y073936
X045911Y073924
X044911Y073913
X043911Y073901
X042912Y073890
X041912Y073879
X041929Y075750
X042929Y075750
X043929Y075750
X044929Y075750
X045929Y075750
X046929Y075750
X086201Y029250
X085201Y029250
X084201Y029250
X083201Y029250
X082201Y029250
X081201Y029250
X081509Y031444
X082509Y031444
X083509Y031444
X084509Y031444
X085509Y031444
X086509Y031444
X061775Y031774
X060775Y031774
X059775Y031774
X058775Y031774
X057775Y031774
X056775Y031774
X055775Y031774
X055914Y033750
X056914Y033750
X057914Y033750
X058914Y033750
X059914Y033750
X060914Y033750
X088885Y020827
X088885Y021827
X088885Y022827
X088885Y023827
X088885Y024827
X088885Y025827
X088885Y026827
X091080Y025838
X091080Y024838
X091080Y023838
X091080Y022838
X069140Y008504
X068140Y008504
X067140Y008504
X066140Y008504
X065140Y008504
X064140Y008504
X065024Y011164
X066024Y011164
X067024Y011164
X068024Y011164
X069024Y011164
X060914Y021750
X061914Y021750
X062914Y021750
X063914Y021750
X064914Y021750
X065914Y021750
X065345Y019919
X064345Y019919
X063345Y019919
X062345Y019919
X061345Y019919
X060345Y019919
X082233Y010969
X083233Y010969
X084233Y010969
X085233Y010969
X086233Y010969
X087233Y010969
X086349Y007607
X086140Y008501
X085140Y008504
X084140Y008504
X083140Y008504
X080201Y029250
X079750Y028594
X079750Y027594
X079750Y026594
X079750Y025594
X079750Y024594
X077714Y024607
X077714Y025607
X077714Y026607
X077714Y027607
X077714Y028607
X077714Y029607
X068535Y056917
X067535Y056917
X066535Y056917
X065535Y056917
X064535Y056917
X063535Y056917
X062535Y056917
X063011Y058750
X064010Y058750
X065010Y058750
X066011Y058750
X067011Y058750
X068011Y058750
X064775Y043774
X063775Y043774
X062775Y043774
X061775Y043774
X060775Y043774
X059775Y043774
X059011Y045750
X060011Y045750
X061011Y045750
X062011Y045750
X063011Y045750
X064010Y045750
X065010Y045750
X077714Y042607
X077701Y043605
X076775Y043774
X075775Y043774
X079285Y047328
X079285Y046328
X079285Y045328
X079285Y044328
X079285Y043328
X079285Y042328
X076331Y046607
X076331Y047607
X075011Y045750
X076011Y045750
X082310Y069410
X081310Y069410
X080310Y069410
X079339Y069315
X079285Y068328
X079285Y067328
X079285Y066328
X076331Y067607
X076331Y068607
X076331Y069607
X075535Y069917
X074535Y069917
X077250Y072607
X077250Y073607
X077250Y074607
X074929Y071750
X075929Y071750
X076929Y071750
X042553Y045813
X043553Y045813
X044553Y045813
X045553Y045813
X046553Y045813
X047553Y045813
X047775Y043774
X046775Y043774
X045775Y043774
X044775Y043774
X043775Y043774
X042775Y043774
X079285Y064328
X079285Y063328
X079285Y062328
X079285Y061328
X079285Y060328
X079285Y059328
X079285Y058328
X076331Y059607
X076331Y060607
X076331Y061607
X076331Y062607
X076331Y063607
X091080Y046838
X091080Y045838
X091080Y044838
X091080Y043838
X091080Y042838
X091080Y041838
X091080Y040838
X089309Y041302
X089309Y042302
X089309Y043302
X089309Y044302
X089309Y045302
X089309Y046302
X079510Y092108
X079510Y091108
X079510Y090108
X079510Y089108
X079510Y088108
X077250Y087607
X077250Y088607
X077250Y089607
X077250Y090607
X077250Y091607
X077250Y092607
X064250Y081607
X064250Y082607
X064250Y083607
X064250Y084607
X064250Y085607
X064250Y086607
X066082Y087010
X066082Y086010
X066082Y085010
X066082Y084010
X066082Y083010
X066082Y082010
X036600Y010059
X035600Y010059
X034600Y010059
X033600Y010059
X032600Y010059
X031600Y010059
X031914Y011750
X032914Y011750
X033914Y011750
X034914Y011750
X035914Y011750
X092470Y058554
X091470Y058554
X091080Y057838
X091080Y056838
X091080Y055838
X091080Y054838
X091080Y053838
X089309Y054302
X089309Y055302
X089309Y056302
X089309Y057302
X089309Y058302
X088885Y011827
X088885Y012827
X088885Y013827
X088885Y014827
X088885Y015827
X091113Y016373
X091113Y015374
X091113Y014374
X091113Y013374
X091113Y012374
X091113Y011374
X092304Y019954
X093304Y019954
X094304Y019954
X095304Y019954
X096304Y019954
X097304Y019954
X096565Y018030
X095565Y018030
X094565Y018030
X093565Y018030
X099470Y058554
X098470Y058554
X097470Y058554
X096470Y058554
X095470Y058554
X094470Y058554
X095233Y060969
X096233Y060969
X097233Y060969
X098233Y060969
X099233Y060969
X094214Y082705
X095214Y082705
X096214Y082705
X097214Y082705
X098214Y082705
X098201Y079250
X097201Y079250
X096201Y079250
X095201Y079250
X094201Y079250
X038489Y082607
X038489Y083607
X036629Y081750
X037629Y081750
X040082Y083010
X040082Y082010
X040082Y081010
X040082Y080010
X040082Y079010
X027835Y062453
X027835Y063453
X027835Y064453
X027835Y065453
X027835Y066453
X027835Y067453
X030091Y067459
X030091Y066459
X030091Y065459
X030091Y064459
X030091Y063459
X030091Y062459
X015039Y070763
X014039Y070763
X013039Y070763
X012039Y070763
X011039Y070763
X010039Y070763
X009039Y070763
X009377Y074750
X010377Y074750
X011377Y074750
X012377Y074750
X013377Y074750
X014377Y074750
X015377Y074750
X022750Y086978
X022750Y085978
X022750Y084978
X022750Y083978
X022750Y082978
X022750Y081978
X023629Y081750
X024629Y081750
X025629Y081750
X018030Y079607
X018030Y080607
X018030Y081607
X018030Y082607
X018030Y083607
X017201Y083885
X016201Y083885
X012201Y083885
X011201Y083885
X010201Y083885
X009201Y083885
X008201Y083885
X007201Y083885
X006201Y083885
X005201Y083885
X004201Y083885
X003201Y083885
X004377Y087750
X005377Y087750
X006377Y087750
X007377Y087750
X008377Y087750
X009377Y087750
X010377Y087750
X011377Y087750
X022750Y094978
X022750Y093978
X022750Y092978
X022750Y091978
X022750Y090978
X018030Y089607
X018030Y090607
X018030Y091607
X018030Y092607
X018030Y093607
X018030Y094607
X018030Y095607
X052689Y062671
X052689Y063671
X052689Y064671
X052689Y065671
X052689Y066671
X052689Y067671
X054749Y067596
X054749Y066596
X054749Y065596
X054749Y064596
X054749Y063596
X054749Y062596
X052689Y049671
X052689Y050671
X052689Y051671
X052689Y052671
X052689Y053671
X052689Y054671
X054749Y054596
X054749Y053596
X054749Y052596
X054749Y051596
X054749Y050596
X054749Y049596
X052689Y072671
X052689Y073671
X051911Y073993
X050911Y073982
X051250Y076607
X050929Y075750
X053082Y077010
X053082Y076010
X053929Y075750
X054929Y075750
X038489Y091607
X038489Y092607
X038489Y093607
X038489Y094607
X038489Y095607
X040082Y096010
X040082Y095010
X040082Y094010
X040082Y093010
X040082Y092010
X040082Y091010
M30