%MOIN*%
%OFA0B0*%
%FSLAX46Y46*%
%IPPOS*%
%LPD*%
%ADD10C,0.0039370078740157488*%
%ADD21C,0.0039370078740157488*%
%ADD22C,0.0039370078740157488*%
%ADD23C,0.0039370078740157488*%
%ADD24C,0.0039370078740157488*%
%ADD25C,0.0039370078740157488*%
%ADD26C,0.0039370078740157488*%
%ADD27C,0.0039370078740157488*%
%ADD28C,0.0039370078740157488*%
%ADD29C,0.0039370078740157488*%
%ADD30C,0.0039370078740157488*%
%ADD31C,0.0039370078740157488*%
%ADD32C,0.0039370078740157488*%
%ADD33C,0.0039370078740157488*%
%ADD34C,0.0039370078740157488*%
%ADD35C,0.0039370078740157488*%
%ADD36C,0.0039370078740157488*%
%ADD37C,0.0039370078740157488*%
%ADD38C,0.0039370078740157488*%
%ADD39C,0.0039370078740157488*%
%ADD40C,0.0039370078740157488*%
%ADD41C,0.0039370078740157488*%
%ADD42C,0.0039370078740157488*%
%ADD43C,0.0039370078740157488*%
G01*
D10*
G36*
X0003897165Y0003283937D02*
X0003733149Y0003283937D01*
X0003733149Y0003347952D01*
X0003897165Y0003347952D01*
X0003897165Y0003283937D01*
X0003897165Y0003283937D01*
G37*
G36*
X0003322165Y0003478937D02*
X0003158149Y0003478937D01*
X0003158149Y0003542952D01*
X0003322165Y0003542952D01*
X0003322165Y0003478937D01*
X0003322165Y0003478937D01*
G37*
G36*
X0003897165Y0003483937D02*
X0003733149Y0003483937D01*
X0003733149Y0003547952D01*
X0003897165Y0003547952D01*
X0003897165Y0003483937D01*
X0003897165Y0003483937D01*
G37*
G36*
X0003897165Y0003658937D02*
X0003733149Y0003658937D01*
X0003733149Y0003722952D01*
X0003897165Y0003722952D01*
X0003897165Y0003658937D01*
X0003897165Y0003658937D01*
G37*
G36*
X0003322165Y0003678937D02*
X0003158149Y0003678937D01*
X0003158149Y0003742952D01*
X0003322165Y0003742952D01*
X0003322165Y0003678937D01*
X0003322165Y0003678937D01*
G37*
G36*
X0003897165Y0003858937D02*
X0003733149Y0003858937D01*
X0003733149Y0003922952D01*
X0003897165Y0003922952D01*
X0003897165Y0003858937D01*
X0003897165Y0003858937D01*
G37*
G04 next file*
G04 #@! TF.GenerationSoftware,KiCad,Pcbnew,5.0.1*
G04 #@! TF.CreationDate,2018-12-27T15:02:32+01:00*
G04 #@! TF.ProjectId,PiAttenuator,5069417474656E7561746F722E6B6963,rev?*
G04 #@! TF.SameCoordinates,Original*
G04 #@! TF.FileFunction,Soldermask,Bot*
G04 #@! TF.FilePolarity,Negative*
G04 Gerber Fmt 4.6, Leading zero omitted, Abs format (unit mm)*
G04 Created by KiCad (PCBNEW 5.0.1) date Do 27 Dez 2018 15:02:32 CET*
G01*
G04 APERTURE LIST*
G04 APERTURE END LIST*
D21*
G36*
X0001078070Y0002434133D02*
X0000914055Y0002434133D01*
X0000914055Y0002498149D01*
X0001078070Y0002498149D01*
X0001078070Y0002434133D01*
X0001078070Y0002434133D01*
G37*
G36*
X0000428070Y0002434133D02*
X0000264055Y0002434133D01*
X0000264055Y0002498149D01*
X0000428070Y0002498149D01*
X0000428070Y0002434133D01*
X0000428070Y0002434133D01*
G37*
G36*
X0001078070Y0002634133D02*
X0000914055Y0002634133D01*
X0000914055Y0002698149D01*
X0001078070Y0002698149D01*
X0001078070Y0002634133D01*
X0001078070Y0002634133D01*
G37*
G36*
X0000428070Y0002634133D02*
X0000264055Y0002634133D01*
X0000264055Y0002698149D01*
X0000428070Y0002698149D01*
X0000428070Y0002634133D01*
X0000428070Y0002634133D01*
G37*
G04 next file*
G04 #@! TF.GenerationSoftware,KiCad,Pcbnew,5.0.1*
G04 #@! TF.CreationDate,2018-12-27T15:17:57+01:00*
G04 #@! TF.ProjectId,BiasT,42696173542E6B696361645F70636200,rev?*
G04 #@! TF.SameCoordinates,Original*
G04 #@! TF.FileFunction,Soldermask,Bot*
G04 #@! TF.FilePolarity,Negative*
G04 Gerber Fmt 4.6, Leading zero omitted, Abs format (unit mm)*
G04 Created by KiCad (PCBNEW 5.0.1) date Do 27 Dez 2018 15:17:57 CET*
G01*
G04 APERTURE LIST*
G04 APERTURE END LIST*
D22*
G36*
X0002026574Y0002895078D02*
X0002026574Y0002731062D01*
X0001962559Y0002731062D01*
X0001962559Y0002895078D01*
X0002026574Y0002895078D01*
X0002026574Y0002895078D01*
G37*
G36*
X0002026574Y0001975551D02*
X0002026574Y0001811535D01*
X0001962559Y0001811535D01*
X0001962559Y0001975551D01*
X0002026574Y0001975551D01*
X0002026574Y0001975551D01*
G37*
G36*
X0001826574Y0002895078D02*
X0001826574Y0002731062D01*
X0001762559Y0002731062D01*
X0001762559Y0002895078D01*
X0001826574Y0002895078D01*
X0001826574Y0002895078D01*
G37*
G36*
X0001826574Y0001975551D02*
X0001826574Y0001811535D01*
X0001762559Y0001811535D01*
X0001762559Y0001975551D01*
X0001826574Y0001975551D01*
X0001826574Y0001975551D01*
G37*
G04 next file*
G04 #@! TF.GenerationSoftware,KiCad,Pcbnew,5.0.1*
G04 #@! TF.CreationDate,2018-12-27T15:20:24+01:00*
G04 #@! TF.ProjectId,DiscreteWilkinsonSplitter,446973637265746557696C6B696E736F,rev?*
G04 #@! TF.SameCoordinates,Original*
G04 #@! TF.FileFunction,Soldermask,Bot*
G04 #@! TF.FilePolarity,Negative*
G04 Gerber Fmt 4.6, Leading zero omitted, Abs format (unit mm)*
G04 Created by KiCad (PCBNEW 5.0.1) date Do 27 Dez 2018 15:20:24 CET*
G01*
G04 APERTURE LIST*
G04 APERTURE END LIST*
D23*
G36*
X0001087007Y0001460314D02*
X0000922992Y0001460314D01*
X0000922992Y0001524330D01*
X0001087007Y0001524330D01*
X0001087007Y0001460314D01*
X0001087007Y0001460314D01*
G37*
G36*
X0001087007Y0001660314D02*
X0000922992Y0001660314D01*
X0000922992Y0001724330D01*
X0001087007Y0001724330D01*
X0001087007Y0001660314D01*
X0001087007Y0001660314D01*
G37*
G36*
X0000182007Y0001685314D02*
X0000017992Y0001685314D01*
X0000017992Y0001749330D01*
X0000182007Y0001749330D01*
X0000182007Y0001685314D01*
X0000182007Y0001685314D01*
G37*
G36*
X0000182007Y0001885314D02*
X0000017992Y0001885314D01*
X0000017992Y0001949330D01*
X0000182007Y0001949330D01*
X0000182007Y0001885314D01*
X0000182007Y0001885314D01*
G37*
G36*
X0001082007Y0001935314D02*
X0000917992Y0001935314D01*
X0000917992Y0001999330D01*
X0001082007Y0001999330D01*
X0001082007Y0001935314D01*
X0001082007Y0001935314D01*
G37*
G36*
X0001082007Y0002135314D02*
X0000917992Y0002135314D01*
X0000917992Y0002199330D01*
X0001082007Y0002199330D01*
X0001082007Y0002135314D01*
X0001082007Y0002135314D01*
G37*
G04 next file*
G04 #@! TF.GenerationSoftware,KiCad,Pcbnew,5.0.1*
G04 #@! TF.CreationDate,2018-12-27T15:22:53+01:00*
G04 #@! TF.ProjectId,SMAadapter,534D41616461707465722E6B69636164,rev?*
G04 #@! TF.SameCoordinates,PX74c1a60PY7a15e80*
G04 #@! TF.FileFunction,Soldermask,Bot*
G04 #@! TF.FilePolarity,Negative*
G04 Gerber Fmt 4.6, Leading zero omitted, Abs format (unit mm)*
G04 Created by KiCad (PCBNEW 5.0.1) date Do 27 Dez 2018 15:22:53 CET*
G01*
G04 APERTURE LIST*
G04 APERTURE END LIST*
D24*
G36*
X0003187598Y0000979881D02*
X0003187598Y0001143897D01*
X0003251614Y0001143897D01*
X0003251614Y0000979881D01*
X0003187598Y0000979881D01*
X0003187598Y0000979881D01*
G37*
G36*
X0003387598Y0000979881D02*
X0003387598Y0001143897D01*
X0003451614Y0001143897D01*
X0003451614Y0000979881D01*
X0003387598Y0000979881D01*
X0003387598Y0000979881D01*
G37*
G04 next file*
G04 #@! TF.GenerationSoftware,KiCad,Pcbnew,5.0.1*
G04 #@! TF.CreationDate,2018-12-27T15:25:58+01:00*
G04 #@! TF.ProjectId,Filter3Ord,46696C746572334F72642E6B69636164,rev?*
G04 #@! TF.SameCoordinates,Original*
G04 #@! TF.FileFunction,Soldermask,Bot*
G04 #@! TF.FilePolarity,Negative*
G04 Gerber Fmt 4.6, Leading zero omitted, Abs format (unit mm)*
G04 Created by KiCad (PCBNEW 5.0.1) date Do 27 Dez 2018 15:25:58 CET*
G01*
G04 APERTURE LIST*
G04 APERTURE END LIST*
D25*
G36*
X0003376771Y0000042992D02*
X0003212755Y0000042992D01*
X0003212755Y0000107007D01*
X0003376771Y0000107007D01*
X0003376771Y0000042992D01*
X0003376771Y0000042992D01*
G37*
G36*
X0002071771Y0000042992D02*
X0001907755Y0000042992D01*
X0001907755Y0000107007D01*
X0002071771Y0000107007D01*
X0002071771Y0000042992D01*
X0002071771Y0000042992D01*
G37*
G36*
X0003376771Y0000242992D02*
X0003212755Y0000242992D01*
X0003212755Y0000307007D01*
X0003376771Y0000307007D01*
X0003376771Y0000242992D01*
X0003376771Y0000242992D01*
G37*
G36*
X0002071771Y0000242992D02*
X0001907755Y0000242992D01*
X0001907755Y0000307007D01*
X0002071771Y0000307007D01*
X0002071771Y0000242992D01*
X0002071771Y0000242992D01*
G37*
G04 next file*
G04 #@! TF.GenerationSoftware,KiCad,Pcbnew,5.0.1*
G04 #@! TF.CreationDate,2018-12-27T15:27:31+01:00*
G04 #@! TF.ProjectId,Filter4Ord,46696C746572344F72642E6B69636164,rev?*
G04 #@! TF.SameCoordinates,Original*
G04 #@! TF.FileFunction,Soldermask,Bot*
G04 #@! TF.FilePolarity,Negative*
G04 Gerber Fmt 4.6, Leading zero omitted, Abs format (unit mm)*
G04 Created by KiCad (PCBNEW 5.0.1) date Do 27 Dez 2018 15:27:31 CET*
G01*
G04 APERTURE LIST*
G04 APERTURE END LIST*
D26*
G36*
X0001775078Y0000074212D02*
X0001611062Y0000074212D01*
X0001611062Y0000138228D01*
X0001775078Y0000138228D01*
X0001775078Y0000074212D01*
X0001775078Y0000074212D01*
G37*
G36*
X0000145078Y0000074212D02*
X-0000018937Y0000074212D01*
X-0000018937Y0000138228D01*
X0000145078Y0000138228D01*
X0000145078Y0000074212D01*
X0000145078Y0000074212D01*
G37*
G36*
X0001775078Y0000274212D02*
X0001611062Y0000274212D01*
X0001611062Y0000338228D01*
X0001775078Y0000338228D01*
X0001775078Y0000274212D01*
X0001775078Y0000274212D01*
G37*
G36*
X0000145078Y0000274212D02*
X-0000018937Y0000274212D01*
X-0000018937Y0000338228D01*
X0000145078Y0000338228D01*
X0000145078Y0000274212D01*
X0000145078Y0000274212D01*
G37*
G04 next file*
G04 #@! TF.GenerationSoftware,KiCad,Pcbnew,5.0.1*
G04 #@! TF.CreationDate,2018-12-27T15:29:00+01:00*
G04 #@! TF.ProjectId,Filter3OrdEliptic,46696C746572334F7264456C69707469,rev?*
G04 #@! TF.SameCoordinates,Original*
G04 #@! TF.FileFunction,Soldermask,Bot*
G04 #@! TF.FilePolarity,Negative*
G04 Gerber Fmt 4.6, Leading zero omitted, Abs format (unit mm)*
G04 Created by KiCad (PCBNEW 5.0.1) date Do 27 Dez 2018 15:29:00 CET*
G01*
G04 APERTURE LIST*
G04 APERTURE END LIST*
D27*
G36*
X0001457007Y0000515432D02*
X0001292992Y0000515432D01*
X0001292992Y0000579448D01*
X0001457007Y0000579448D01*
X0001457007Y0000515432D01*
X0001457007Y0000515432D01*
G37*
G36*
X0000182007Y0000515432D02*
X0000017992Y0000515432D01*
X0000017992Y0000579448D01*
X0000182007Y0000579448D01*
X0000182007Y0000515432D01*
X0000182007Y0000515432D01*
G37*
G36*
X0001457007Y0000715432D02*
X0001292992Y0000715432D01*
X0001292992Y0000779448D01*
X0001457007Y0000779448D01*
X0001457007Y0000715432D01*
X0001457007Y0000715432D01*
G37*
G36*
X0000182007Y0000715432D02*
X0000017992Y0000715432D01*
X0000017992Y0000779448D01*
X0000182007Y0000779448D01*
X0000182007Y0000715432D01*
X0000182007Y0000715432D01*
G37*
G04 next file*
G04 #@! TF.GenerationSoftware,KiCad,Pcbnew,5.0.1*
G04 #@! TF.CreationDate,2018-12-27T15:24:30+01:00*
G04 #@! TF.ProjectId,RFSampler,524653616D706C65722E6B696361645F,rev?*
G04 #@! TF.SameCoordinates,PX617fb78PY6ed25c8*
G04 #@! TF.FileFunction,Soldermask,Bot*
G04 #@! TF.FilePolarity,Negative*
G04 Gerber Fmt 4.6, Leading zero omitted, Abs format (unit mm)*
G04 Created by KiCad (PCBNEW 5.0.1) date Do 27 Dez 2018 15:24:30 CET*
G01*
G04 APERTURE LIST*
G04 APERTURE END LIST*
D28*
G36*
X0001502519Y0003311338D02*
X0001338503Y0003311338D01*
X0001338503Y0003375354D01*
X0001502519Y0003375354D01*
X0001502519Y0003311338D01*
X0001502519Y0003311338D01*
G37*
G36*
X0001082519Y0003311338D02*
X0000918503Y0003311338D01*
X0000918503Y0003375354D01*
X0001082519Y0003375354D01*
X0001082519Y0003311338D01*
X0001082519Y0003311338D01*
G37*
G36*
X0001502519Y0003511338D02*
X0001338503Y0003511338D01*
X0001338503Y0003575354D01*
X0001502519Y0003575354D01*
X0001502519Y0003511338D01*
X0001502519Y0003511338D01*
G37*
G36*
X0001082519Y0003511338D02*
X0000918503Y0003511338D01*
X0000918503Y0003575354D01*
X0001082519Y0003575354D01*
X0001082519Y0003511338D01*
X0001082519Y0003511338D01*
G37*
G36*
X0001322519Y0003741338D02*
X0001258503Y0003741338D01*
X0001258503Y0003905354D01*
X0001322519Y0003905354D01*
X0001322519Y0003741338D01*
X0001322519Y0003741338D01*
G37*
G36*
X0001122519Y0003741338D02*
X0001058503Y0003741338D01*
X0001058503Y0003905354D01*
X0001122519Y0003905354D01*
X0001122519Y0003741338D01*
X0001122519Y0003741338D01*
G37*
G04 next file*
G04 #@! TF.GenerationSoftware,KiCad,Pcbnew,5.0.1*
G04 #@! TF.CreationDate,2018-12-27T15:29:00+01:00*
G04 #@! TF.ProjectId,Filter3OrdEliptic,46696C746572334F7264456C69707469,rev?*
G04 #@! TF.SameCoordinates,Original*
G04 #@! TF.FileFunction,Soldermask,Bot*
G04 #@! TF.FilePolarity,Negative*
G04 Gerber Fmt 4.6, Leading zero omitted, Abs format (unit mm)*
G04 Created by KiCad (PCBNEW 5.0.1) date Do 27 Dez 2018 15:29:00 CET*
G01*
G04 APERTURE LIST*
G04 APERTURE END LIST*
D29*
G36*
X0003031811Y0000909133D02*
X0002867795Y0000909133D01*
X0002867795Y0000973149D01*
X0003031811Y0000973149D01*
X0003031811Y0000909133D01*
X0003031811Y0000909133D01*
G37*
G36*
X0001756811Y0000909133D02*
X0001592795Y0000909133D01*
X0001592795Y0000973149D01*
X0001756811Y0000973149D01*
X0001756811Y0000909133D01*
X0001756811Y0000909133D01*
G37*
G36*
X0003031811Y0001109133D02*
X0002867795Y0001109133D01*
X0002867795Y0001173149D01*
X0003031811Y0001173149D01*
X0003031811Y0001109133D01*
X0003031811Y0001109133D01*
G37*
G36*
X0001756811Y0001109133D02*
X0001592795Y0001109133D01*
X0001592795Y0001173149D01*
X0001756811Y0001173149D01*
X0001756811Y0001109133D01*
X0001756811Y0001109133D01*
G37*
G04 next file*
G04 #@! TF.GenerationSoftware,KiCad,Pcbnew,5.0.1*
G04 #@! TF.CreationDate,2018-12-27T15:29:00+01:00*
G04 #@! TF.ProjectId,Filter3OrdEliptic,46696C746572334F7264456C69707469,rev?*
G04 #@! TF.SameCoordinates,Original*
G04 #@! TF.FileFunction,Soldermask,Bot*
G04 #@! TF.FilePolarity,Negative*
G04 Gerber Fmt 4.6, Leading zero omitted, Abs format (unit mm)*
G04 Created by KiCad (PCBNEW 5.0.1) date Do 27 Dez 2018 15:29:00 CET*
G01*
G04 APERTURE LIST*
G04 APERTURE END LIST*
D30*
G36*
X0001457007Y0000987873D02*
X0001292992Y0000987873D01*
X0001292992Y0001051889D01*
X0001457007Y0001051889D01*
X0001457007Y0000987873D01*
X0001457007Y0000987873D01*
G37*
G36*
X0000182007Y0000987873D02*
X0000017992Y0000987873D01*
X0000017992Y0001051889D01*
X0000182007Y0001051889D01*
X0000182007Y0000987873D01*
X0000182007Y0000987873D01*
G37*
G36*
X0001457007Y0001187873D02*
X0001292992Y0001187873D01*
X0001292992Y0001251889D01*
X0001457007Y0001251889D01*
X0001457007Y0001187873D01*
X0001457007Y0001187873D01*
G37*
G36*
X0000182007Y0001187873D02*
X0000017992Y0001187873D01*
X0000017992Y0001251889D01*
X0000182007Y0001251889D01*
X0000182007Y0001187873D01*
X0000182007Y0001187873D01*
G37*
G04 next file*
G04 #@! TF.GenerationSoftware,KiCad,Pcbnew,5.0.1*
G04 #@! TF.CreationDate,2018-12-27T15:25:58+01:00*
G04 #@! TF.ProjectId,Filter3Ord,46696C746572334F72642E6B69636164,rev?*
G04 #@! TF.SameCoordinates,Original*
G04 #@! TF.FileFunction,Soldermask,Bot*
G04 #@! TF.FilePolarity,Negative*
G04 Gerber Fmt 4.6, Leading zero omitted, Abs format (unit mm)*
G04 Created by KiCad (PCBNEW 5.0.1) date Do 27 Dez 2018 15:25:58 CET*
G01*
G04 APERTURE LIST*
G04 APERTURE END LIST*
D31*
G36*
X0003877677Y0002282480D02*
X0003877677Y0002118464D01*
X0003813661Y0002118464D01*
X0003813661Y0002282480D01*
X0003877677Y0002282480D01*
X0003877677Y0002282480D01*
G37*
G36*
X0003877677Y0000977480D02*
X0003877677Y0000813464D01*
X0003813661Y0000813464D01*
X0003813661Y0000977480D01*
X0003877677Y0000977480D01*
X0003877677Y0000977480D01*
G37*
G36*
X0003677677Y0002282480D02*
X0003677677Y0002118464D01*
X0003613661Y0002118464D01*
X0003613661Y0002282480D01*
X0003677677Y0002282480D01*
X0003677677Y0002282480D01*
G37*
G36*
X0003677677Y0000977480D02*
X0003677677Y0000813464D01*
X0003613661Y0000813464D01*
X0003613661Y0000977480D01*
X0003677677Y0000977480D01*
X0003677677Y0000977480D01*
G37*
G04 next file*
G04 #@! TF.GenerationSoftware,KiCad,Pcbnew,5.0.1*
G04 #@! TF.CreationDate,2018-12-27T15:02:32+01:00*
G04 #@! TF.ProjectId,PiAttenuator,5069417474656E7561746F722E6B6963,rev?*
G04 #@! TF.SameCoordinates,Original*
G04 #@! TF.FileFunction,Soldermask,Bot*
G04 #@! TF.FilePolarity,Negative*
G04 Gerber Fmt 4.6, Leading zero omitted, Abs format (unit mm)*
G04 Created by KiCad (PCBNEW 5.0.1) date Do 27 Dez 2018 15:02:32 CET*
G01*
G04 APERTURE LIST*
G04 APERTURE END LIST*
D32*
G36*
X0001929881Y0003814133D02*
X0001929881Y0003650118D01*
X0001865866Y0003650118D01*
X0001865866Y0003814133D01*
X0001929881Y0003814133D01*
X0001929881Y0003814133D01*
G37*
G36*
X0001929881Y0003164133D02*
X0001929881Y0003000118D01*
X0001865866Y0003000118D01*
X0001865866Y0003164133D01*
X0001929881Y0003164133D01*
X0001929881Y0003164133D01*
G37*
G36*
X0001729881Y0003814133D02*
X0001729881Y0003650118D01*
X0001665866Y0003650118D01*
X0001665866Y0003814133D01*
X0001729881Y0003814133D01*
X0001729881Y0003814133D01*
G37*
G36*
X0001729881Y0003164133D02*
X0001729881Y0003000118D01*
X0001665866Y0003000118D01*
X0001665866Y0003164133D01*
X0001729881Y0003164133D01*
X0001729881Y0003164133D01*
G37*
G04 next file*
G04 #@! TF.GenerationSoftware,KiCad,Pcbnew,5.0.1*
G04 #@! TF.CreationDate,2018-12-27T15:02:32+01:00*
G04 #@! TF.ProjectId,PiAttenuator,5069417474656E7561746F722E6B6963,rev?*
G04 #@! TF.SameCoordinates,Original*
G04 #@! TF.FileFunction,Soldermask,Bot*
G04 #@! TF.FilePolarity,Negative*
G04 Gerber Fmt 4.6, Leading zero omitted, Abs format (unit mm)*
G04 Created by KiCad (PCBNEW 5.0.1) date Do 27 Dez 2018 15:02:32 CET*
G01*
G04 APERTURE LIST*
G04 APERTURE END LIST*
D33*
G36*
X0002441692Y0003814133D02*
X0002441692Y0003650118D01*
X0002377677Y0003650118D01*
X0002377677Y0003814133D01*
X0002441692Y0003814133D01*
X0002441692Y0003814133D01*
G37*
G36*
X0002441692Y0003164133D02*
X0002441692Y0003000118D01*
X0002377677Y0003000118D01*
X0002377677Y0003164133D01*
X0002441692Y0003164133D01*
X0002441692Y0003164133D01*
G37*
G36*
X0002241692Y0003814133D02*
X0002241692Y0003650118D01*
X0002177677Y0003650118D01*
X0002177677Y0003814133D01*
X0002241692Y0003814133D01*
X0002241692Y0003814133D01*
G37*
G36*
X0002241692Y0003164133D02*
X0002241692Y0003000118D01*
X0002177677Y0003000118D01*
X0002177677Y0003164133D01*
X0002241692Y0003164133D01*
X0002241692Y0003164133D01*
G37*
G04 next file*
G04 #@! TF.GenerationSoftware,KiCad,Pcbnew,5.0.1*
G04 #@! TF.CreationDate,2018-12-27T15:25:58+01:00*
G04 #@! TF.ProjectId,Filter3Ord,46696C746572334F72642E6B69636164,rev?*
G04 #@! TF.SameCoordinates,Original*
G04 #@! TF.FileFunction,Soldermask,Bot*
G04 #@! TF.FilePolarity,Negative*
G04 Gerber Fmt 4.6, Leading zero omitted, Abs format (unit mm)*
G04 Created by KiCad (PCBNEW 5.0.1) date Do 27 Dez 2018 15:25:58 CET*
G01*
G04 APERTURE LIST*
G04 APERTURE END LIST*
D34*
G36*
X0003069881Y0000492401D02*
X0002905866Y0000492401D01*
X0002905866Y0000556417D01*
X0003069881Y0000556417D01*
X0003069881Y0000492401D01*
X0003069881Y0000492401D01*
G37*
G36*
X0001764881Y0000492401D02*
X0001600866Y0000492401D01*
X0001600866Y0000556417D01*
X0001764881Y0000556417D01*
X0001764881Y0000492401D01*
X0001764881Y0000492401D01*
G37*
G36*
X0003069881Y0000692401D02*
X0002905866Y0000692401D01*
X0002905866Y0000756417D01*
X0003069881Y0000756417D01*
X0003069881Y0000692401D01*
X0003069881Y0000692401D01*
G37*
G36*
X0001764881Y0000692401D02*
X0001600866Y0000692401D01*
X0001600866Y0000756417D01*
X0001764881Y0000756417D01*
X0001764881Y0000692401D01*
X0001764881Y0000692401D01*
G37*
G04 next file*
G04 #@! TF.GenerationSoftware,KiCad,Pcbnew,5.0.1*
G04 #@! TF.CreationDate,2018-12-27T15:22:53+01:00*
G04 #@! TF.ProjectId,SMAadapter,534D41616461707465722E6B69636164,rev?*
G04 #@! TF.SameCoordinates,PX74c1a60PY7a15e80*
G04 #@! TF.FileFunction,Soldermask,Bot*
G04 #@! TF.FilePolarity,Negative*
G04 Gerber Fmt 4.6, Leading zero omitted, Abs format (unit mm)*
G04 Created by KiCad (PCBNEW 5.0.1) date Do 27 Dez 2018 15:22:53 CET*
G01*
G04 APERTURE LIST*
G04 APERTURE END LIST*
D35*
G36*
X0003899015Y0000161850D02*
X0003899015Y-0000002165D01*
X0003835000Y-0000002165D01*
X0003835000Y0000161850D01*
X0003899015Y0000161850D01*
X0003899015Y0000161850D01*
G37*
G36*
X0003699015Y0000161850D02*
X0003699015Y-0000002165D01*
X0003635000Y-0000002165D01*
X0003635000Y0000161850D01*
X0003699015Y0000161850D01*
X0003699015Y0000161850D01*
G37*
G04 next file*
G04 #@! TF.GenerationSoftware,KiCad,Pcbnew,5.0.1*
G04 #@! TF.CreationDate,2018-12-27T15:22:53+01:00*
G04 #@! TF.ProjectId,SMAadapter,534D41616461707465722E6B69636164,rev?*
G04 #@! TF.SameCoordinates,PX74c1a60PY7a15e80*
G04 #@! TF.FileFunction,Soldermask,Bot*
G04 #@! TF.FilePolarity,Negative*
G04 Gerber Fmt 4.6, Leading zero omitted, Abs format (unit mm)*
G04 Created by KiCad (PCBNEW 5.0.1) date Do 27 Dez 2018 15:22:53 CET*
G01*
G04 APERTURE LIST*
G04 APERTURE END LIST*
D36*
G36*
X0003620669Y0002948385D02*
X0003620669Y0003112401D01*
X0003684685Y0003112401D01*
X0003684685Y0002948385D01*
X0003620669Y0002948385D01*
X0003620669Y0002948385D01*
G37*
G36*
X0003820669Y0002948385D02*
X0003820669Y0003112401D01*
X0003884685Y0003112401D01*
X0003884685Y0002948385D01*
X0003820669Y0002948385D01*
X0003820669Y0002948385D01*
G37*
G04 next file*
G04 #@! TF.GenerationSoftware,KiCad,Pcbnew,5.0.1*
G04 #@! TF.CreationDate,2018-12-27T15:29:00+01:00*
G04 #@! TF.ProjectId,Filter3OrdEliptic,46696C746572334F7264456C69707469,rev?*
G04 #@! TF.SameCoordinates,Original*
G04 #@! TF.FileFunction,Soldermask,Bot*
G04 #@! TF.FilePolarity,Negative*
G04 Gerber Fmt 4.6, Leading zero omitted, Abs format (unit mm)*
G04 Created by KiCad (PCBNEW 5.0.1) date Do 27 Dez 2018 15:29:00 CET*
G01*
G04 APERTURE LIST*
G04 APERTURE END LIST*
D37*
G36*
X0003031811Y0001381574D02*
X0002867795Y0001381574D01*
X0002867795Y0001445590D01*
X0003031811Y0001445590D01*
X0003031811Y0001381574D01*
X0003031811Y0001381574D01*
G37*
G36*
X0001756811Y0001381574D02*
X0001592795Y0001381574D01*
X0001592795Y0001445590D01*
X0001756811Y0001445590D01*
X0001756811Y0001381574D01*
X0001756811Y0001381574D01*
G37*
G36*
X0003031811Y0001581574D02*
X0002867795Y0001581574D01*
X0002867795Y0001645590D01*
X0003031811Y0001645590D01*
X0003031811Y0001581574D01*
X0003031811Y0001581574D01*
G37*
G36*
X0001756811Y0001581574D02*
X0001592795Y0001581574D01*
X0001592795Y0001645590D01*
X0001756811Y0001645590D01*
X0001756811Y0001581574D01*
X0001756811Y0001581574D01*
G37*
G04 next file*
G04 #@! TF.GenerationSoftware,KiCad,Pcbnew,5.0.1*
G04 #@! TF.CreationDate,2018-12-27T15:29:00+01:00*
G04 #@! TF.ProjectId,Filter3OrdEliptic,46696C746572334F7264456C69707469,rev?*
G04 #@! TF.SameCoordinates,Original*
G04 #@! TF.FileFunction,Soldermask,Bot*
G04 #@! TF.FilePolarity,Negative*
G04 Gerber Fmt 4.6, Leading zero omitted, Abs format (unit mm)*
G04 Created by KiCad (PCBNEW 5.0.1) date Do 27 Dez 2018 15:29:00 CET*
G01*
G04 APERTURE LIST*
G04 APERTURE END LIST*
D38*
G36*
X0003463307Y0002704842D02*
X0003463307Y0002540826D01*
X0003399291Y0002540826D01*
X0003399291Y0002704842D01*
X0003463307Y0002704842D01*
X0003463307Y0002704842D01*
G37*
G36*
X0003463307Y0001429842D02*
X0003463307Y0001265826D01*
X0003399291Y0001265826D01*
X0003399291Y0001429842D01*
X0003463307Y0001429842D01*
X0003463307Y0001429842D01*
G37*
G36*
X0003263307Y0002704842D02*
X0003263307Y0002540826D01*
X0003199291Y0002540826D01*
X0003199291Y0002704842D01*
X0003263307Y0002704842D01*
X0003263307Y0002704842D01*
G37*
G36*
X0003263307Y0001429842D02*
X0003263307Y0001265826D01*
X0003199291Y0001265826D01*
X0003199291Y0001429842D01*
X0003263307Y0001429842D01*
X0003263307Y0001429842D01*
G37*
G04 next file*
G04 #@! TF.GenerationSoftware,KiCad,Pcbnew,5.0.1*
G04 #@! TF.CreationDate,2018-12-27T15:02:32+01:00*
G04 #@! TF.ProjectId,PiAttenuator,5069417474656E7561746F722E6B6963,rev?*
G04 #@! TF.SameCoordinates,Original*
G04 #@! TF.FileFunction,Soldermask,Bot*
G04 #@! TF.FilePolarity,Negative*
G04 Gerber Fmt 4.6, Leading zero omitted, Abs format (unit mm)*
G04 Created by KiCad (PCBNEW 5.0.1) date Do 27 Dez 2018 15:02:32 CET*
G01*
G04 APERTURE LIST*
G04 APERTURE END LIST*
D39*
G36*
X0002987362Y0001889015D02*
X0002823346Y0001889015D01*
X0002823346Y0001953031D01*
X0002987362Y0001953031D01*
X0002987362Y0001889015D01*
X0002987362Y0001889015D01*
G37*
G36*
X0002337362Y0001889015D02*
X0002173346Y0001889015D01*
X0002173346Y0001953031D01*
X0002337362Y0001953031D01*
X0002337362Y0001889015D01*
X0002337362Y0001889015D01*
G37*
G36*
X0002987362Y0002089015D02*
X0002823346Y0002089015D01*
X0002823346Y0002153031D01*
X0002987362Y0002153031D01*
X0002987362Y0002089015D01*
X0002987362Y0002089015D01*
G37*
G36*
X0002337362Y0002089015D02*
X0002173346Y0002089015D01*
X0002173346Y0002153031D01*
X0002337362Y0002153031D01*
X0002337362Y0002089015D01*
X0002337362Y0002089015D01*
G37*
G04 next file*
G04 #@! TF.GenerationSoftware,KiCad,Pcbnew,5.0.1*
G04 #@! TF.CreationDate,2018-12-27T15:02:32+01:00*
G04 #@! TF.ProjectId,PiAttenuator,5069417474656E7561746F722E6B6963,rev?*
G04 #@! TF.SameCoordinates,Original*
G04 #@! TF.FileFunction,Soldermask,Bot*
G04 #@! TF.FilePolarity,Negative*
G04 Gerber Fmt 4.6, Leading zero omitted, Abs format (unit mm)*
G04 Created by KiCad (PCBNEW 5.0.1) date Do 27 Dez 2018 15:02:32 CET*
G01*
G04 APERTURE LIST*
G04 APERTURE END LIST*
D40*
G36*
X0002987362Y0002400827D02*
X0002823346Y0002400827D01*
X0002823346Y0002464842D01*
X0002987362Y0002464842D01*
X0002987362Y0002400827D01*
X0002987362Y0002400827D01*
G37*
G36*
X0002337362Y0002400827D02*
X0002173346Y0002400827D01*
X0002173346Y0002464842D01*
X0002337362Y0002464842D01*
X0002337362Y0002400827D01*
X0002337362Y0002400827D01*
G37*
G36*
X0002987362Y0002600827D02*
X0002823346Y0002600827D01*
X0002823346Y0002664842D01*
X0002987362Y0002664842D01*
X0002987362Y0002600827D01*
X0002987362Y0002600827D01*
G37*
G36*
X0002337362Y0002600827D02*
X0002173346Y0002600827D01*
X0002173346Y0002664842D01*
X0002337362Y0002664842D01*
X0002337362Y0002600827D01*
X0002337362Y0002600827D01*
G37*
G04 next file*
G04 #@! TF.GenerationSoftware,KiCad,Pcbnew,5.0.1*
G04 #@! TF.CreationDate,2018-12-27T15:02:32+01:00*
G04 #@! TF.ProjectId,PiAttenuator,5069417474656E7561746F722E6B6963,rev?*
G04 #@! TF.SameCoordinates,Original*
G04 #@! TF.FileFunction,Soldermask,Bot*
G04 #@! TF.FilePolarity,Negative*
G04 Gerber Fmt 4.6, Leading zero omitted, Abs format (unit mm)*
G04 Created by KiCad (PCBNEW 5.0.1) date Do 27 Dez 2018 15:02:32 CET*
G01*
G04 APERTURE LIST*
G04 APERTURE END LIST*
D41*
G36*
X0002953503Y0003656653D02*
X0002953503Y0003492637D01*
X0002889488Y0003492637D01*
X0002889488Y0003656653D01*
X0002953503Y0003656653D01*
X0002953503Y0003656653D01*
G37*
G36*
X0002953503Y0003006653D02*
X0002953503Y0002842637D01*
X0002889488Y0002842637D01*
X0002889488Y0003006653D01*
X0002953503Y0003006653D01*
X0002953503Y0003006653D01*
G37*
G36*
X0002753503Y0003656653D02*
X0002753503Y0003492637D01*
X0002689488Y0003492637D01*
X0002689488Y0003656653D01*
X0002753503Y0003656653D01*
X0002753503Y0003656653D01*
G37*
G36*
X0002753503Y0003006653D02*
X0002753503Y0002842637D01*
X0002689488Y0002842637D01*
X0002689488Y0003006653D01*
X0002753503Y0003006653D01*
X0002753503Y0003006653D01*
G37*
G04 next file*
G04 #@! TF.GenerationSoftware,KiCad,Pcbnew,5.0.1*
G04 #@! TF.CreationDate,2018-12-27T15:22:53+01:00*
G04 #@! TF.ProjectId,SMAadapter,534D41616461707465722E6B69636164,rev?*
G04 #@! TF.SameCoordinates,PX74c1a60PY7a15e80*
G04 #@! TF.FileFunction,Soldermask,Bot*
G04 #@! TF.FilePolarity,Negative*
G04 Gerber Fmt 4.6, Leading zero omitted, Abs format (unit mm)*
G04 Created by KiCad (PCBNEW 5.0.1) date Do 27 Dez 2018 15:22:53 CET*
G01*
G04 APERTURE LIST*
G04 APERTURE END LIST*
D42*
G36*
X0000161850Y0002990748D02*
X-0000002165Y0002990748D01*
X-0000002165Y0003054763D01*
X0000161850Y0003054763D01*
X0000161850Y0002990748D01*
X0000161850Y0002990748D01*
G37*
G36*
X0000161850Y0003190748D02*
X-0000002165Y0003190748D01*
X-0000002165Y0003254763D01*
X0000161850Y0003254763D01*
X0000161850Y0003190748D01*
X0000161850Y0003190748D01*
G37*
G04 next file*
G04 #@! TF.GenerationSoftware,KiCad,Pcbnew,5.0.1*
G04 #@! TF.CreationDate,2018-12-27T15:22:53+01:00*
G04 #@! TF.ProjectId,SMAadapter,534D41616461707465722E6B69636164,rev?*
G04 #@! TF.SameCoordinates,PX74c1a60PY7a15e80*
G04 #@! TF.FileFunction,Soldermask,Bot*
G04 #@! TF.FilePolarity,Negative*
G04 Gerber Fmt 4.6, Leading zero omitted, Abs format (unit mm)*
G04 Created by KiCad (PCBNEW 5.0.1) date Do 27 Dez 2018 15:22:53 CET*
G01*
G04 APERTURE LIST*
G04 APERTURE END LIST*
D43*
G36*
X0000161850Y0003502559D02*
X-0000002165Y0003502559D01*
X-0000002165Y0003566574D01*
X0000161850Y0003566574D01*
X0000161850Y0003502559D01*
X0000161850Y0003502559D01*
G37*
G36*
X0000161850Y0003702559D02*
X-0000002165Y0003702559D01*
X-0000002165Y0003766574D01*
X0000161850Y0003766574D01*
X0000161850Y0003702559D01*
X0000161850Y0003702559D01*
G37*
M02*