%MOIN*%
%OFA0B0*%
%FSLAX44Y44*%
%IPPOS*%
%LPD*%
%ADD10C,0*%
D10*
X00029504Y00017135D02*
X00029504Y00017135D01*
X00025564Y00017135D01*
X00025533Y00017137D01*
X00025502Y00017140D01*
X00025472Y00017146D01*
X00025442Y00017155D01*
X00025413Y00017165D01*
X00025385Y00017178D01*
X00025358Y00017193D01*
X00025332Y00017211D01*
X00025308Y00017230D01*
X00025285Y00017251D01*
X00025264Y00017273D01*
X00025245Y00017298D01*
X00025228Y00017323D01*
X00025213Y00017350D01*
X00025200Y00017378D01*
X00025189Y00017407D01*
X00025181Y00017437D01*
X00025175Y00017467D01*
X00025171Y00017498D01*
X00025170Y00017529D01*
X00025170Y00017716D01*
X00025171Y00017747D01*
X00025175Y00017778D01*
X00025181Y00017808D01*
X00025189Y00017838D01*
X00025200Y00017867D01*
X00025213Y00017895D01*
X00025228Y00017922D01*
X00025245Y00017947D01*
X00025264Y00017972D01*
X00025285Y00017994D01*
X00025308Y00018015D01*
X00025332Y00018035D01*
X00025358Y00018052D01*
X00025385Y00018067D01*
X00025413Y00018080D01*
X00025442Y00018090D01*
X00025472Y00018099D01*
X00025502Y00018105D01*
X00025533Y00018109D01*
X00025564Y00018110D01*
X00029430Y00018110D01*
X00029454Y00018109D01*
X00029477Y00018107D01*
X00029501Y00018103D01*
X00029524Y00018099D01*
X00029546Y00018092D01*
X00029569Y00018085D01*
X00029590Y00018076D01*
X00029612Y00018065D01*
X00029632Y00018054D01*
X00029652Y00018041D01*
X00029671Y00018027D01*
X00029689Y00018013D01*
X00029707Y00017997D01*
X00029723Y00017979D01*
X00029738Y00017962D01*
X00029752Y00017943D01*
X00029765Y00017923D01*
X00029777Y00017903D01*
X00029787Y00017882D01*
X00029797Y00017860D01*
X00029870Y00017673D01*
X00029882Y00017637D01*
X00029891Y00017599D01*
X00029896Y00017561D01*
X00029897Y00017523D01*
X00029895Y00017485D01*
X00029889Y00017447D01*
X00029879Y00017410D01*
X00029866Y00017374D01*
X00029849Y00017340D01*
X00029829Y00017307D01*
X00029806Y00017277D01*
X00029780Y00017249D01*
X00029751Y00017223D01*
X00029721Y00017200D01*
X00029688Y00017181D01*
X00029653Y00017165D01*
X00029617Y00017152D01*
X00029580Y00017143D01*
X00029542Y00017137D01*
X00029504Y00017135D01*
X00035956Y00020873D02*
X00035956Y00020873D01*
X00035956Y00018575D01*
X00035956Y00018568D01*
X00035956Y00018560D01*
X00035955Y00018552D01*
X00035955Y00018544D01*
X00035954Y00018536D01*
X00035953Y00018528D01*
X00035952Y00018520D01*
X00035951Y00018513D01*
X00035950Y00018505D01*
X00035948Y00018497D01*
X00035947Y00018489D01*
X00035945Y00018482D01*
X00035943Y00018474D01*
X00035941Y00018467D01*
X00035939Y00018459D01*
X00035936Y00018452D01*
X00035934Y00018444D01*
X00035931Y00018437D01*
X00035928Y00018429D01*
X00035925Y00018422D01*
X00035819Y00018171D01*
X00035794Y00018123D01*
X00035764Y00018078D01*
X00035727Y00018039D01*
X00035686Y00018004D01*
X00035640Y00017976D01*
X00035590Y00017954D01*
X00035539Y00017939D01*
X00035485Y00017932D01*
X00035431Y00017931D01*
X00035378Y00017938D01*
X00035326Y00017953D01*
X00035276Y00017974D01*
X00035230Y00018002D01*
X00035188Y00018036D01*
X00035151Y00018075D01*
X00035120Y00018119D01*
X00035095Y00018167D01*
X00035077Y00018218D01*
X00035066Y00018270D01*
X00035062Y00018324D01*
X00035062Y00021146D01*
X00035066Y00021200D01*
X00035078Y00021254D01*
X00035096Y00021305D01*
X00035121Y00021353D01*
X00035153Y00021397D01*
X00035191Y00021437D01*
X00035234Y00021471D01*
X00035280Y00021498D01*
X00035331Y00021519D01*
X00035384Y00021533D01*
X00035438Y00021539D01*
X00035492Y00021538D01*
X00035546Y00021529D01*
X00035598Y00021513D01*
X00035647Y00021490D01*
X00035693Y00021460D01*
X00035734Y00021425D01*
X00035770Y00021384D01*
X00035800Y00021338D01*
X00035823Y00021289D01*
X00035929Y00021016D01*
X00035932Y00021009D01*
X00035934Y00021002D01*
X00035937Y00020995D01*
X00035939Y00020988D01*
X00035941Y00020981D01*
X00035943Y00020974D01*
X00035945Y00020967D01*
X00035946Y00020960D01*
X00035948Y00020953D01*
X00035949Y00020945D01*
X00035951Y00020938D01*
X00035952Y00020931D01*
X00035953Y00020924D01*
X00035954Y00020917D01*
X00035954Y00020909D01*
X00035955Y00020902D01*
X00035956Y00020895D01*
X00035956Y00020887D01*
X00035956Y00020880D01*
X00035956Y00020873D01*
X00030498Y00012411D02*
X00030498Y00012411D01*
X00024284Y00012411D01*
X00024253Y00012412D01*
X00024223Y00012416D01*
X00024192Y00012422D01*
X00024163Y00012430D01*
X00024134Y00012441D01*
X00024106Y00012454D01*
X00024079Y00012469D01*
X00024053Y00012486D01*
X00024029Y00012505D01*
X00024006Y00012526D01*
X00023985Y00012549D01*
X00023966Y00012573D01*
X00023949Y00012599D01*
X00023934Y00012626D01*
X00023921Y00012654D01*
X00023910Y00012683D01*
X00023902Y00012713D01*
X00023896Y00012743D01*
X00023892Y00012774D01*
X00023891Y00012805D01*
X00023891Y00012992D01*
X00023892Y00013023D01*
X00023896Y00013053D01*
X00023902Y00013084D01*
X00023910Y00013113D01*
X00023921Y00013142D01*
X00023934Y00013170D01*
X00023949Y00013197D01*
X00023966Y00013223D01*
X00023985Y00013247D01*
X00024006Y00013270D01*
X00024029Y00013291D01*
X00024053Y00013310D01*
X00024079Y00013327D01*
X00024106Y00013342D01*
X00024134Y00013355D01*
X00024163Y00013366D01*
X00024192Y00013374D01*
X00024223Y00013380D01*
X00024253Y00013384D01*
X00024284Y00013385D01*
X00030498Y00013385D01*
X00030498Y00016396D01*
X00030498Y00016400D01*
X00030498Y00016404D01*
X00030498Y00016408D01*
X00030498Y00016412D01*
X00030498Y00016416D01*
X00030498Y00016421D01*
X00030499Y00016425D01*
X00030499Y00016429D01*
X00030499Y00016433D01*
X00030500Y00016437D01*
X00030500Y00016441D01*
X00030501Y00016446D01*
X00030501Y00016450D01*
X00030502Y00016454D01*
X00030503Y00016458D01*
X00030503Y00016462D01*
X00030504Y00016466D01*
X00030505Y00016470D01*
X00030506Y00016475D01*
X00030506Y00016479D01*
X00030534Y00016606D01*
X00030550Y00016662D01*
X00030574Y00016714D01*
X00030606Y00016762D01*
X00030644Y00016805D01*
X00030688Y00016842D01*
X00030737Y00016872D01*
X00030790Y00016895D01*
X00030846Y00016910D01*
X00030903Y00016917D01*
X00030961Y00016915D01*
X00031017Y00016904D01*
X00031072Y00016886D01*
X00031123Y00016860D01*
X00031170Y00016826D01*
X00031212Y00016786D01*
X00031247Y00016741D01*
X00031275Y00016691D01*
X00031296Y00016637D01*
X00031308Y00016581D01*
X00031312Y00016523D01*
X00031312Y00012478D01*
X00032002Y00012478D01*
X00032041Y00012476D01*
X00032080Y00012470D01*
X00032119Y00012460D01*
X00032156Y00012446D01*
X00032191Y00012429D01*
X00032225Y00012408D01*
X00032256Y00012384D01*
X00032285Y00012357D01*
X00032311Y00012328D01*
X00032334Y00012295D01*
X00032354Y00012261D01*
X00032369Y00012225D01*
X00032382Y00012187D01*
X00032390Y00012149D01*
X00032395Y00012109D01*
X00032395Y00012070D01*
X00032392Y00012030D01*
X00032384Y00011992D01*
X00032373Y00011954D01*
X00032358Y00011917D01*
X00032230Y00011644D01*
X00032220Y00011624D01*
X00032209Y00011604D01*
X00032197Y00011586D01*
X00032184Y00011568D01*
X00032169Y00011551D01*
X00032154Y00011534D01*
X00032138Y00011519D01*
X00032121Y00011504D01*
X00032103Y00011491D01*
X00032085Y00011478D01*
X00032066Y00011467D01*
X00032046Y00011457D01*
X00032026Y00011447D01*
X00032005Y00011439D01*
X00031984Y00011433D01*
X00031962Y00011427D01*
X00031940Y00011422D01*
X00031918Y00011419D01*
X00031896Y00011417D01*
X00031874Y00011417D01*
X00031692Y00011417D01*
X00031690Y00011417D01*
X00031689Y00011417D01*
X00031687Y00011417D01*
X00031686Y00011417D01*
X00031684Y00011417D01*
X00031683Y00011417D01*
X00031681Y00011417D01*
X00031680Y00011417D01*
X00031678Y00011417D01*
X00031677Y00011417D01*
X00031675Y00011417D01*
X00031674Y00011417D01*
X00031672Y00011417D01*
X00031671Y00011417D01*
X00031669Y00011417D01*
X00031668Y00011418D01*
X00031666Y00011418D01*
X00031665Y00011418D01*
X00031663Y00011418D01*
X00031662Y00011418D01*
X00030861Y00011479D01*
X00030832Y00011482D01*
X00030803Y00011488D01*
X00030775Y00011495D01*
X00030747Y00011505D01*
X00030720Y00011517D01*
X00030694Y00011531D01*
X00030669Y00011546D01*
X00030646Y00011564D01*
X00030623Y00011583D01*
X00030602Y00011604D01*
X00030583Y00011626D01*
X00030566Y00011650D01*
X00030550Y00011675D01*
X00030536Y00011701D01*
X00030525Y00011728D01*
X00030515Y00011756D01*
X00030507Y00011784D01*
X00030502Y00011813D01*
X00030499Y00011842D01*
X00030498Y00011872D01*
X00030498Y00012411D01*
X00034896Y00006563D02*
X00034896Y00006563D01*
X00034896Y00008184D01*
X00034896Y00008194D01*
X00034896Y00008203D01*
X00034897Y00008212D01*
X00034897Y00008221D01*
X00034898Y00008230D01*
X00034899Y00008239D01*
X00034901Y00008248D01*
X00034902Y00008257D01*
X00034904Y00008266D01*
X00034906Y00008275D01*
X00034908Y00008284D01*
X00034911Y00008292D01*
X00034913Y00008301D01*
X00034916Y00008310D01*
X00034919Y00008318D01*
X00034922Y00008327D01*
X00034926Y00008335D01*
X00034929Y00008344D01*
X00034933Y00008352D01*
X00034937Y00008360D01*
X00035210Y00008908D01*
X00035237Y00008953D01*
X00035269Y00008995D01*
X00035307Y00009031D01*
X00035349Y00009063D01*
X00035395Y00009088D01*
X00035445Y00009107D01*
X00035496Y00009120D01*
X00035548Y00009125D01*
X00035601Y00009124D01*
X00035653Y00009115D01*
X00035703Y00009100D01*
X00035751Y00009077D01*
X00035795Y00009049D01*
X00035836Y00009015D01*
X00035871Y00008976D01*
X00035901Y00008933D01*
X00035925Y00008886D01*
X00035942Y00008836D01*
X00035953Y00008784D01*
X00035956Y00008732D01*
X00035956Y00007954D01*
X00036223Y00007954D01*
X00036231Y00007954D01*
X00036239Y00007954D01*
X00036247Y00007953D01*
X00036255Y00007953D01*
X00036263Y00007952D01*
X00036271Y00007951D01*
X00036279Y00007950D01*
X00036287Y00007949D01*
X00036295Y00007948D01*
X00036303Y00007946D01*
X00036311Y00007944D01*
X00036319Y00007942D01*
X00036327Y00007940D01*
X00036334Y00007938D01*
X00036342Y00007936D01*
X00036350Y00007933D01*
X00036357Y00007930D01*
X00036365Y00007928D01*
X00036373Y00007925D01*
X00036380Y00007921D01*
X00036764Y00007754D01*
X00036812Y00007729D01*
X00036855Y00007698D01*
X00036895Y00007662D01*
X00036929Y00007620D01*
X00036956Y00007574D01*
X00036978Y00007525D01*
X00036992Y00007473D01*
X00036999Y00007420D01*
X00036999Y00007366D01*
X00036992Y00007313D01*
X00036978Y00007261D01*
X00036956Y00007212D01*
X00036928Y00007166D01*
X00036894Y00007124D01*
X00036855Y00007088D01*
X00036811Y00007057D01*
X00036763Y00007032D01*
X00036713Y00007014D01*
X00036660Y00007003D01*
X00036607Y00007000D01*
X00035970Y00007000D01*
X00035970Y00006563D01*
X00035968Y00006532D01*
X00035965Y00006502D01*
X00035959Y00006471D01*
X00035950Y00006442D01*
X00035940Y00006413D01*
X00035927Y00006385D01*
X00035912Y00006358D01*
X00035894Y00006332D01*
X00035875Y00006308D01*
X00035854Y00006285D01*
X00035832Y00006264D01*
X00035807Y00006245D01*
X00035782Y00006228D01*
X00035755Y00006212D01*
X00035727Y00006200D01*
X00035698Y00006189D01*
X00035668Y00006180D01*
X00035637Y00006174D01*
X00035607Y00006171D01*
X00035576Y00006170D01*
X00035289Y00006170D01*
X00035258Y00006171D01*
X00035228Y00006174D01*
X00035197Y00006180D01*
X00035168Y00006189D01*
X00035139Y00006200D01*
X00035111Y00006212D01*
X00035084Y00006228D01*
X00035058Y00006245D01*
X00035034Y00006264D01*
X00035011Y00006285D01*
X00034990Y00006308D01*
X00034971Y00006332D01*
X00034954Y00006358D01*
X00034938Y00006385D01*
X00034926Y00006413D01*
X00034915Y00006442D01*
X00034906Y00006471D01*
X00034900Y00006502D01*
X00034897Y00006532D01*
X00034896Y00006563D01*
X00031496Y00009646D02*
X00031496Y00009646D01*
X00031496Y00004417D01*
X00032299Y00004417D01*
X00032325Y00004416D01*
X00032350Y00004414D01*
X00032375Y00004409D01*
X00032400Y00004404D01*
X00032424Y00004396D01*
X00032448Y00004388D01*
X00032471Y00004377D01*
X00032494Y00004365D01*
X00032516Y00004352D01*
X00032536Y00004337D01*
X00032556Y00004321D01*
X00032575Y00004304D01*
X00032593Y00004286D01*
X00032609Y00004266D01*
X00032624Y00004246D01*
X00032638Y00004225D01*
X00032650Y00004202D01*
X00032661Y00004179D01*
X00032670Y00004156D01*
X00032678Y00004131D01*
X00032787Y00003751D01*
X00032795Y00003716D01*
X00032800Y00003680D01*
X00032802Y00003644D01*
X00032800Y00003607D01*
X00032795Y00003571D01*
X00032787Y00003536D01*
X00032775Y00003501D01*
X00032761Y00003468D01*
X00032743Y00003436D01*
X00032722Y00003406D01*
X00032699Y00003378D01*
X00032673Y00003352D01*
X00032645Y00003329D01*
X00032615Y00003309D01*
X00032584Y00003291D01*
X00032550Y00003276D01*
X00032516Y00003265D01*
X00032480Y00003256D01*
X00032444Y00003251D01*
X00032408Y00003249D01*
X00027535Y00003249D01*
X00027508Y00003250D01*
X00027481Y00003253D01*
X00027455Y00003258D01*
X00027429Y00003264D01*
X00027403Y00003272D01*
X00027378Y00003282D01*
X00027354Y00003294D01*
X00027330Y00003307D01*
X00027308Y00003322D01*
X00027286Y00003338D01*
X00027266Y00003356D01*
X00027247Y00003375D01*
X00027229Y00003395D01*
X00027213Y00003417D01*
X00027198Y00003440D01*
X00027185Y00003463D01*
X00027174Y00003488D01*
X00027164Y00003513D01*
X00027156Y00003538D01*
X00027149Y00003565D01*
X00027056Y00004021D01*
X00027051Y00004056D01*
X00027049Y00004090D01*
X00027049Y00004125D01*
X00027053Y00004160D01*
X00027060Y00004194D01*
X00027070Y00004228D01*
X00027082Y00004260D01*
X00027098Y00004291D01*
X00027116Y00004321D01*
X00027137Y00004349D01*
X00027160Y00004375D01*
X00027186Y00004399D01*
X00027213Y00004420D01*
X00027243Y00004439D01*
X00027273Y00004456D01*
X00027305Y00004469D01*
X00027339Y00004480D01*
X00027373Y00004487D01*
X00027407Y00004492D01*
X00027442Y00004494D01*
X00030828Y00004494D01*
X00030828Y00007744D01*
X00026051Y00007744D01*
X00026029Y00007744D01*
X00026008Y00007746D01*
X00025986Y00007749D01*
X00025964Y00007753D01*
X00025943Y00007759D01*
X00025922Y00007765D01*
X00025902Y00007773D01*
X00025882Y00007782D01*
X00025862Y00007792D01*
X00025843Y00007803D01*
X00025825Y00007815D01*
X00025808Y00007828D01*
X00025791Y00007842D01*
X00025775Y00007857D01*
X00025760Y00007873D01*
X00025745Y00007890D01*
X00025732Y00007907D01*
X00025720Y00007925D01*
X00025708Y00007944D01*
X00025698Y00007963D01*
X00025634Y00008093D01*
X00025618Y00008130D01*
X00025606Y00008168D01*
X00025598Y00008207D01*
X00025594Y00008247D01*
X00025594Y00008287D01*
X00025598Y00008326D01*
X00025606Y00008365D01*
X00025618Y00008404D01*
X00025634Y00008440D01*
X00025653Y00008475D01*
X00025676Y00008508D01*
X00025702Y00008538D01*
X00025731Y00008566D01*
X00025762Y00008590D01*
X00025796Y00008611D01*
X00025832Y00008629D01*
X00025869Y00008643D01*
X00025908Y00008653D01*
X00025947Y00008659D01*
X00025987Y00008661D01*
X00030498Y00008661D01*
X00030498Y00009387D01*
X00030498Y00009401D01*
X00030498Y00009414D01*
X00030500Y00009428D01*
X00030501Y00009441D01*
X00030503Y00009454D01*
X00030506Y00009467D01*
X00030509Y00009481D01*
X00030512Y00009494D01*
X00030516Y00009506D01*
X00030520Y00009519D01*
X00030525Y00009532D01*
X00030530Y00009544D01*
X00030536Y00009557D01*
X00030542Y00009569D01*
X00030548Y00009580D01*
X00030555Y00009592D01*
X00030562Y00009603D01*
X00030570Y00009614D01*
X00030578Y00009625D01*
X00030586Y00009636D01*
X00030797Y00009895D01*
X00030829Y00009930D01*
X00030866Y00009961D01*
X00030907Y00009988D01*
X00030950Y00010009D01*
X00030996Y00010025D01*
X00031043Y00010035D01*
X00031091Y00010040D01*
X00031140Y00010038D01*
X00031187Y00010030D01*
X00031234Y00010017D01*
X00031278Y00009998D01*
X00031320Y00009974D01*
X00031359Y00009944D01*
X00031393Y00009911D01*
X00031424Y00009873D01*
X00031449Y00009832D01*
X00031469Y00009788D01*
X00031484Y00009742D01*
X00031493Y00009694D01*
X00031496Y00009646D01*
X00019752Y00029921D02*
X00019752Y00029921D01*
X00019776Y00029920D01*
X00019800Y00029918D01*
X00019824Y00029914D01*
X00019847Y00029909D01*
X00019870Y00029903D01*
X00019893Y00029895D01*
X00019915Y00029886D01*
X00019936Y00029875D01*
X00019957Y00029863D01*
X00019977Y00029850D01*
X00019997Y00029836D01*
X00020015Y00029820D01*
X00020032Y00029804D01*
X00020049Y00029786D01*
X00020064Y00029768D01*
X00020078Y00029748D01*
X00020091Y00029728D01*
X00020102Y00029707D01*
X00020113Y00029685D01*
X00020122Y00029663D01*
X00020161Y00029555D01*
X00020173Y00029519D01*
X00020181Y00029482D01*
X00020185Y00029445D01*
X00020185Y00029407D01*
X00020183Y00029370D01*
X00020176Y00029333D01*
X00020166Y00029296D01*
X00020153Y00029261D01*
X00020136Y00029227D01*
X00020116Y00029196D01*
X00020093Y00029166D01*
X00020068Y00029138D01*
X00020040Y00029113D01*
X00020009Y00029091D01*
X00019977Y00029071D01*
X00019943Y00029055D01*
X00019908Y00029043D01*
X00019871Y00029033D01*
X00019834Y00029027D01*
X00019796Y00029025D01*
X00018517Y00029010D01*
X00018488Y00029011D01*
X00018459Y00029014D01*
X00018430Y00029019D01*
X00018402Y00029026D01*
X00018374Y00029036D01*
X00018347Y00029047D01*
X00018321Y00029060D01*
X00018296Y00029076D01*
X00018272Y00029093D01*
X00018250Y00029111D01*
X00018229Y00029132D01*
X00018209Y00029153D01*
X00018191Y00029177D01*
X00018175Y00029201D01*
X00018161Y00029227D01*
X00018149Y00029253D01*
X00018139Y00029281D01*
X00018131Y00029309D01*
X00018125Y00029338D01*
X00018121Y00029367D01*
X00018109Y00029489D01*
X00018107Y00029522D01*
X00018108Y00029555D01*
X00018112Y00029588D01*
X00018118Y00029620D01*
X00018127Y00029651D01*
X00018139Y00029682D01*
X00018153Y00029712D01*
X00018170Y00029740D01*
X00018189Y00029767D01*
X00018210Y00029792D01*
X00018233Y00029815D01*
X00018257Y00029836D01*
X00018284Y00029856D01*
X00018312Y00029873D01*
X00018342Y00029887D01*
X00018372Y00029899D01*
X00018404Y00029909D01*
X00018436Y00029915D01*
X00018468Y00029919D01*
X00018501Y00029921D01*
X00019752Y00029921D01*
X00020996Y00030701D02*
X00020996Y00030701D01*
X00020996Y00030693D01*
X00020996Y00030684D01*
X00020996Y00030676D01*
X00020995Y00030668D01*
X00020994Y00030660D01*
X00020993Y00030652D01*
X00020992Y00030643D01*
X00020991Y00030635D01*
X00020989Y00030627D01*
X00020988Y00030619D01*
X00020986Y00030611D01*
X00020984Y00030603D01*
X00020982Y00030595D01*
X00020980Y00030587D01*
X00020977Y00030579D01*
X00020974Y00030571D01*
X00020972Y00030564D01*
X00020969Y00030556D01*
X00020966Y00030548D01*
X00020962Y00030541D01*
X00020832Y00030247D01*
X00020807Y00030200D01*
X00020775Y00030156D01*
X00020738Y00030118D01*
X00020697Y00030084D01*
X00020651Y00030057D01*
X00020601Y00030036D01*
X00020550Y00030021D01*
X00020497Y00030014D01*
X00020443Y00030015D01*
X00020390Y00030022D01*
X00020339Y00030037D01*
X00020290Y00030059D01*
X00020244Y00030086D01*
X00020202Y00030120D01*
X00020166Y00030160D01*
X00020135Y00030203D01*
X00020111Y00030251D01*
X00020093Y00030302D01*
X00020082Y00030354D01*
X00020078Y00030407D01*
X00020078Y00032898D01*
X00020079Y00032928D01*
X00020083Y00032959D01*
X00020089Y00032989D01*
X00020098Y00033019D01*
X00020108Y00033048D01*
X00020121Y00033076D01*
X00020136Y00033103D01*
X00020153Y00033129D01*
X00020173Y00033153D01*
X00020194Y00033176D01*
X00020216Y00033197D01*
X00020241Y00033216D01*
X00020266Y00033233D01*
X00020293Y00033248D01*
X00020321Y00033261D01*
X00020350Y00033272D01*
X00020380Y00033280D01*
X00020410Y00033286D01*
X00020441Y00033290D01*
X00020472Y00033291D01*
X00020603Y00033291D01*
X00020634Y00033290D01*
X00020664Y00033286D01*
X00020695Y00033280D01*
X00020724Y00033272D01*
X00020753Y00033261D01*
X00020781Y00033248D01*
X00020808Y00033233D01*
X00020834Y00033216D01*
X00020858Y00033197D01*
X00020881Y00033176D01*
X00020902Y00033153D01*
X00020921Y00033129D01*
X00020938Y00033103D01*
X00020953Y00033076D01*
X00020966Y00033048D01*
X00020977Y00033019D01*
X00020985Y00032989D01*
X00020992Y00032959D01*
X00020995Y00032928D01*
X00020996Y00032898D01*
X00020996Y00030701D01*
X00020645Y00019463D02*
X00020645Y00019463D01*
X00020647Y00019503D01*
X00020653Y00019542D01*
X00020663Y00019580D01*
X00020677Y00019617D01*
X00020694Y00019653D01*
X00020715Y00019687D01*
X00020739Y00019718D01*
X00020766Y00019747D01*
X00020796Y00019773D01*
X00020829Y00019796D01*
X00020863Y00019815D01*
X00020899Y00019831D01*
X00020937Y00019843D01*
X00020976Y00019852D01*
X00021015Y00019856D01*
X00021055Y00019856D01*
X00021094Y00019853D01*
X00021133Y00019845D01*
X00021171Y00019834D01*
X00021208Y00019819D01*
X00021428Y00019714D01*
X00021448Y00019704D01*
X00021467Y00019693D01*
X00021486Y00019681D01*
X00021503Y00019667D01*
X00021520Y00019653D01*
X00021537Y00019638D01*
X00021552Y00019622D01*
X00021566Y00019605D01*
X00021580Y00019587D01*
X00021592Y00019569D01*
X00021603Y00019550D01*
X00021614Y00019530D01*
X00021623Y00019510D01*
X00021631Y00019489D01*
X00021638Y00019468D01*
X00021643Y00019446D01*
X00021647Y00019425D01*
X00021651Y00019403D01*
X00021652Y00019381D01*
X00021653Y00019358D01*
X00021653Y00018110D01*
X00023240Y00018110D01*
X00023271Y00018109D01*
X00023302Y00018105D01*
X00023332Y00018099D01*
X00023362Y00018090D01*
X00023391Y00018080D01*
X00023419Y00018067D01*
X00023446Y00018052D01*
X00023471Y00018035D01*
X00023496Y00018015D01*
X00023518Y00017994D01*
X00023539Y00017972D01*
X00023559Y00017947D01*
X00023576Y00017922D01*
X00023591Y00017895D01*
X00023604Y00017867D01*
X00023614Y00017838D01*
X00023623Y00017808D01*
X00023629Y00017778D01*
X00023633Y00017747D01*
X00023634Y00017716D01*
X00023634Y00017529D01*
X00023633Y00017498D01*
X00023629Y00017467D01*
X00023623Y00017437D01*
X00023614Y00017407D01*
X00023604Y00017378D01*
X00023591Y00017350D01*
X00023576Y00017323D01*
X00023559Y00017298D01*
X00023539Y00017273D01*
X00023518Y00017251D01*
X00023496Y00017230D01*
X00023471Y00017211D01*
X00023446Y00017193D01*
X00023419Y00017178D01*
X00023391Y00017165D01*
X00023362Y00017155D01*
X00023332Y00017146D01*
X00023302Y00017140D01*
X00023271Y00017137D01*
X00023240Y00017135D01*
X00018962Y00017135D01*
X00018949Y00017136D01*
X00018937Y00017136D01*
X00018924Y00017137D01*
X00018911Y00017139D01*
X00018899Y00017140D01*
X00018886Y00017143D01*
X00018874Y00017145D01*
X00018862Y00017148D01*
X00018850Y00017152D01*
X00018837Y00017156D01*
X00018826Y00017160D01*
X00018814Y00017164D01*
X00018802Y00017169D01*
X00018791Y00017175D01*
X00018779Y00017180D01*
X00018768Y00017186D01*
X00018757Y00017193D01*
X00018747Y00017199D01*
X00018736Y00017207D01*
X00018726Y00017214D01*
X00018443Y00017426D01*
X00018405Y00017458D01*
X00018372Y00017494D01*
X00018344Y00017534D01*
X00018321Y00017578D01*
X00018303Y00017624D01*
X00018291Y00017671D01*
X00018286Y00017720D01*
X00018286Y00017769D01*
X00018293Y00017818D01*
X00018305Y00017866D01*
X00018324Y00017911D01*
X00018348Y00017954D01*
X00018377Y00017994D01*
X00018411Y00018029D01*
X00018449Y00018061D01*
X00018490Y00018087D01*
X00018535Y00018108D01*
X00018581Y00018123D01*
X00018630Y00018132D01*
X00018679Y00018135D01*
X00020645Y00018135D01*
X00020645Y00019463D01*
X00020645Y00024581D02*
X00020645Y00024581D01*
X00020647Y00024621D01*
X00020653Y00024660D01*
X00020663Y00024698D01*
X00020677Y00024736D01*
X00020694Y00024771D01*
X00020715Y00024805D01*
X00020739Y00024836D01*
X00020766Y00024865D01*
X00020796Y00024891D01*
X00020829Y00024914D01*
X00020863Y00024933D01*
X00020899Y00024949D01*
X00020937Y00024961D01*
X00020976Y00024970D01*
X00021015Y00024974D01*
X00021055Y00024975D01*
X00021094Y00024971D01*
X00021133Y00024963D01*
X00021171Y00024952D01*
X00021208Y00024937D01*
X00021428Y00024832D01*
X00021448Y00024822D01*
X00021467Y00024811D01*
X00021486Y00024799D01*
X00021503Y00024785D01*
X00021520Y00024771D01*
X00021537Y00024756D01*
X00021552Y00024740D01*
X00021566Y00024723D01*
X00021580Y00024705D01*
X00021592Y00024687D01*
X00021603Y00024668D01*
X00021614Y00024648D01*
X00021623Y00024628D01*
X00021631Y00024607D01*
X00021638Y00024586D01*
X00021643Y00024565D01*
X00021647Y00024543D01*
X00021651Y00024521D01*
X00021652Y00024499D01*
X00021653Y00024476D01*
X00021653Y00023228D01*
X00024630Y00023228D01*
X00024661Y00023227D01*
X00024691Y00023223D01*
X00024722Y00023217D01*
X00024751Y00023209D01*
X00024780Y00023198D01*
X00024809Y00023185D01*
X00024836Y00023170D01*
X00024861Y00023153D01*
X00024886Y00023134D01*
X00024908Y00023113D01*
X00024929Y00023090D01*
X00024948Y00023066D01*
X00024965Y00023040D01*
X00024981Y00023013D01*
X00024994Y00022985D01*
X00025004Y00022956D01*
X00025013Y00022926D01*
X00025019Y00022896D01*
X00025022Y00022865D01*
X00025024Y00022834D01*
X00025024Y00022703D01*
X00025022Y00022673D01*
X00025019Y00022642D01*
X00025013Y00022612D01*
X00025004Y00022582D01*
X00024994Y00022553D01*
X00024981Y00022525D01*
X00024965Y00022498D01*
X00024948Y00022472D01*
X00024929Y00022448D01*
X00024908Y00022425D01*
X00024886Y00022404D01*
X00024861Y00022385D01*
X00024836Y00022368D01*
X00024809Y00022353D01*
X00024780Y00022340D01*
X00024751Y00022329D01*
X00024722Y00022321D01*
X00024691Y00022315D01*
X00024661Y00022311D01*
X00024630Y00022310D01*
X00021653Y00022310D01*
X00021653Y00021585D01*
X00021652Y00021563D01*
X00021651Y00021541D01*
X00021647Y00021519D01*
X00021643Y00021497D01*
X00021638Y00021476D01*
X00021631Y00021455D01*
X00021623Y00021434D01*
X00021614Y00021414D01*
X00021603Y00021394D01*
X00021592Y00021375D01*
X00021580Y00021357D01*
X00021566Y00021339D01*
X00021552Y00021322D01*
X00021537Y00021306D01*
X00021520Y00021291D01*
X00021503Y00021277D01*
X00021486Y00021263D01*
X00021467Y00021251D01*
X00021448Y00021240D01*
X00021428Y00021230D01*
X00021208Y00021125D01*
X00021171Y00021110D01*
X00021133Y00021099D01*
X00021094Y00021091D01*
X00021055Y00021087D01*
X00021015Y00021088D01*
X00020976Y00021092D01*
X00020937Y00021100D01*
X00020899Y00021113D01*
X00020863Y00021129D01*
X00020829Y00021148D01*
X00020796Y00021171D01*
X00020766Y00021197D01*
X00020739Y00021226D01*
X00020715Y00021257D01*
X00020694Y00021291D01*
X00020677Y00021326D01*
X00020663Y00021364D01*
X00020653Y00021402D01*
X00020647Y00021441D01*
X00020645Y00021481D01*
X00020645Y00024581D01*
X00005043Y00032927D02*
X00005043Y00032927D01*
X00005019Y00032928D01*
X00004994Y00032930D01*
X00004970Y00032934D01*
X00004946Y00032939D01*
X00004923Y00032946D01*
X00004900Y00032954D01*
X00004877Y00032964D01*
X00004856Y00032975D01*
X00004834Y00032987D01*
X00004814Y00033000D01*
X00004795Y00033015D01*
X00004776Y00033031D01*
X00004759Y00033048D01*
X00004742Y00033066D01*
X00004727Y00033086D01*
X00004713Y00033106D01*
X00004701Y00033126D01*
X00004689Y00033148D01*
X00004679Y00033170D01*
X00004671Y00033193D01*
X00004351Y00034124D01*
X00004341Y00034160D01*
X00004334Y00034196D01*
X00004331Y00034234D01*
X00004331Y00034271D01*
X00004334Y00034308D01*
X00004341Y00034345D01*
X00004352Y00034381D01*
X00004366Y00034416D01*
X00004383Y00034449D01*
X00004404Y00034480D01*
X00004427Y00034510D01*
X00004453Y00034537D01*
X00004481Y00034561D01*
X00004511Y00034583D01*
X00004544Y00034602D01*
X00004578Y00034617D01*
X00004613Y00034629D01*
X00004650Y00034638D01*
X00004687Y00034643D01*
X00004724Y00034645D01*
X00007000Y00034645D01*
X00007000Y00035304D01*
X00007000Y00035330D01*
X00007003Y00035357D01*
X00007008Y00035384D01*
X00007014Y00035410D01*
X00007022Y00035435D01*
X00007032Y00035460D01*
X00007043Y00035484D01*
X00007057Y00035508D01*
X00007071Y00035530D01*
X00007087Y00035552D01*
X00007105Y00035572D01*
X00007124Y00035591D01*
X00007144Y00035608D01*
X00007165Y00035625D01*
X00007188Y00035639D01*
X00007211Y00035653D01*
X00007235Y00035664D01*
X00007260Y00035674D01*
X00007286Y00035682D01*
X00007312Y00035689D01*
X00008579Y00035957D01*
X00008614Y00035963D01*
X00008649Y00035966D01*
X00008684Y00035965D01*
X00008719Y00035961D01*
X00008753Y00035955D01*
X00008787Y00035945D01*
X00008819Y00035932D01*
X00008851Y00035917D01*
X00008881Y00035899D01*
X00008909Y00035878D01*
X00008935Y00035855D01*
X00008959Y00035829D01*
X00008981Y00035802D01*
X00009000Y00035772D01*
X00009016Y00035741D01*
X00009030Y00035709D01*
X00009041Y00035676D01*
X00009048Y00035642D01*
X00009053Y00035607D01*
X00009055Y00035572D01*
X00009055Y00034481D01*
X00009054Y00034459D01*
X00009052Y00034437D01*
X00009049Y00034415D01*
X00009045Y00034394D01*
X00009040Y00034373D01*
X00009033Y00034352D01*
X00009025Y00034331D01*
X00009016Y00034311D01*
X00009006Y00034292D01*
X00008995Y00034273D01*
X00008983Y00034255D01*
X00008970Y00034237D01*
X00008956Y00034220D01*
X00008941Y00034204D01*
X00008926Y00034189D01*
X00008909Y00034175D01*
X00008892Y00034162D01*
X00008873Y00034149D01*
X00008855Y00034138D01*
X00008835Y00034128D01*
X00006489Y00032968D01*
X00006481Y00032964D01*
X00006473Y00032960D01*
X00006464Y00032957D01*
X00006456Y00032953D01*
X00006448Y00032950D01*
X00006439Y00032947D01*
X00006430Y00032944D01*
X00006422Y00032942D01*
X00006413Y00032940D01*
X00006404Y00032937D01*
X00006395Y00032935D01*
X00006387Y00032934D01*
X00006378Y00032932D01*
X00006369Y00032931D01*
X00006360Y00032930D01*
X00006351Y00032929D01*
X00006342Y00032928D01*
X00006333Y00032927D01*
X00006324Y00032927D01*
X00006315Y00032927D01*
X00005043Y00032927D01*
X00014240Y00032283D02*
X00014240Y00032283D01*
X00014254Y00032283D01*
X00014268Y00032282D01*
X00014282Y00032281D01*
X00014296Y00032279D01*
X00014309Y00032277D01*
X00014323Y00032274D01*
X00014336Y00032271D01*
X00014350Y00032267D01*
X00014363Y00032263D01*
X00014376Y00032259D01*
X00014389Y00032254D01*
X00014402Y00032248D01*
X00014414Y00032242D01*
X00014427Y00032236D01*
X00014439Y00032229D01*
X00014451Y00032222D01*
X00014462Y00032214D01*
X00014474Y00032206D01*
X00014485Y00032198D01*
X00014495Y00032189D01*
X00015740Y00031131D01*
X00015752Y00031120D01*
X00015765Y00031108D01*
X00015776Y00031095D01*
X00015787Y00031082D01*
X00015798Y00031069D01*
X00015808Y00031055D01*
X00015817Y00031041D01*
X00015826Y00031026D01*
X00015834Y00031011D01*
X00015842Y00030996D01*
X00015849Y00030981D01*
X00015855Y00030965D01*
X00015860Y00030948D01*
X00015865Y00030932D01*
X00015869Y00030916D01*
X00015872Y00030899D01*
X00015875Y00030882D01*
X00015877Y00030865D01*
X00015878Y00030848D01*
X00015878Y00030831D01*
X00015878Y00029921D01*
X00016168Y00029921D01*
X00016200Y00029919D01*
X00016232Y00029915D01*
X00016264Y00029909D01*
X00016295Y00029900D01*
X00016325Y00029888D01*
X00016354Y00029874D01*
X00016382Y00029858D01*
X00016408Y00029839D01*
X00016433Y00029818D01*
X00016456Y00029796D01*
X00016477Y00029771D01*
X00016496Y00029745D01*
X00016513Y00029717D01*
X00016527Y00029688D01*
X00016539Y00029658D01*
X00016549Y00029628D01*
X00016556Y00029596D01*
X00016560Y00029564D01*
X00016562Y00029532D01*
X00016561Y00029499D01*
X00016550Y00029349D01*
X00016547Y00029320D01*
X00016542Y00029292D01*
X00016534Y00029263D01*
X00016525Y00029235D01*
X00016513Y00029209D01*
X00016500Y00029183D01*
X00016484Y00029158D01*
X00016467Y00029134D01*
X00016448Y00029112D01*
X00016428Y00029091D01*
X00016406Y00029071D01*
X00016382Y00029054D01*
X00016358Y00029038D01*
X00016332Y00029024D01*
X00016305Y00029012D01*
X00016277Y00029002D01*
X00016249Y00028994D01*
X00016220Y00028988D01*
X00016191Y00028985D01*
X00016162Y00028983D01*
X00011945Y00028935D01*
X00011945Y00026646D01*
X00011944Y00026616D01*
X00011941Y00026587D01*
X00011935Y00026557D01*
X00011927Y00026528D01*
X00011917Y00026500D01*
X00011905Y00026473D01*
X00011891Y00026446D01*
X00011874Y00026421D01*
X00011856Y00026397D01*
X00011837Y00026375D01*
X00011815Y00026354D01*
X00011792Y00026335D01*
X00011768Y00026317D01*
X00011742Y00026302D01*
X00011715Y00026288D01*
X00011688Y00026277D01*
X00011659Y00026268D01*
X00011630Y00026261D01*
X00011601Y00026256D01*
X00011571Y00026253D01*
X00011273Y00026239D01*
X00011241Y00026238D01*
X00011210Y00026241D01*
X00011178Y00026245D01*
X00011147Y00026253D01*
X00011117Y00026263D01*
X00011087Y00026275D01*
X00011059Y00026290D01*
X00011032Y00026307D01*
X00011006Y00026326D01*
X00010982Y00026347D01*
X00010960Y00026369D01*
X00010940Y00026394D01*
X00010922Y00026420D01*
X00010906Y00026448D01*
X00010892Y00026477D01*
X00010881Y00026506D01*
X00010872Y00026537D01*
X00010865Y00026568D01*
X00010861Y00026600D01*
X00010860Y00026632D01*
X00010860Y00027761D01*
X00005958Y00027761D01*
X00005924Y00027762D01*
X00005891Y00027767D01*
X00005858Y00027774D01*
X00005826Y00027784D01*
X00005795Y00027796D01*
X00005765Y00027811D01*
X00005737Y00027829D01*
X00005710Y00027849D01*
X00005685Y00027871D01*
X00005661Y00027895D01*
X00005640Y00027921D01*
X00005622Y00027949D01*
X00005606Y00027978D01*
X00005592Y00028009D01*
X00005581Y00028041D01*
X00005572Y00028073D01*
X00005567Y00028106D01*
X00005564Y00028140D01*
X00005564Y00028173D01*
X00005567Y00028206D01*
X00005697Y00029185D01*
X00005702Y00029213D01*
X00005709Y00029241D01*
X00005718Y00029268D01*
X00005728Y00029294D01*
X00005741Y00029319D01*
X00005755Y00029344D01*
X00005771Y00029367D01*
X00005789Y00029389D01*
X00005808Y00029410D01*
X00005828Y00029430D01*
X00005850Y00029447D01*
X00005873Y00029464D01*
X00005898Y00029478D01*
X00005923Y00029491D01*
X00005949Y00029502D01*
X00005976Y00029511D01*
X00006003Y00029518D01*
X00006031Y00029523D01*
X00006059Y00029526D01*
X00006088Y00029527D01*
X00007000Y00029527D01*
X00007000Y00031171D01*
X00007000Y00031197D01*
X00007003Y00031223D01*
X00007007Y00031248D01*
X00007013Y00031273D01*
X00007021Y00031298D01*
X00007030Y00031323D01*
X00007041Y00031346D01*
X00007053Y00031369D01*
X00007067Y00031391D01*
X00007082Y00031412D01*
X00007099Y00031432D01*
X00007117Y00031451D01*
X00007136Y00031469D01*
X00007156Y00031485D01*
X00007177Y00031500D01*
X00007199Y00031513D01*
X00007222Y00031525D01*
X00007246Y00031536D01*
X00007270Y00031545D01*
X00007295Y00031552D01*
X00010098Y00032271D01*
X00010103Y00032272D01*
X00010108Y00032273D01*
X00010113Y00032274D01*
X00010117Y00032275D01*
X00010122Y00032276D01*
X00010127Y00032277D01*
X00010132Y00032278D01*
X00010137Y00032279D01*
X00010142Y00032279D01*
X00010147Y00032280D01*
X00010152Y00032280D01*
X00010156Y00032281D01*
X00010161Y00032281D01*
X00010166Y00032282D01*
X00010171Y00032282D01*
X00010176Y00032282D01*
X00010181Y00032283D01*
X00010186Y00032283D01*
X00010191Y00032283D01*
X00010196Y00032283D01*
X00014240Y00032283D01*
X00015878Y00032948D02*
X00015878Y00032948D01*
X00015875Y00032894D01*
X00015864Y00032841D01*
X00015846Y00032791D01*
X00015821Y00032743D01*
X00015790Y00032699D01*
X00015753Y00032660D01*
X00015711Y00032626D01*
X00015665Y00032598D01*
X00015616Y00032576D01*
X00015564Y00032562D01*
X00015511Y00032555D01*
X00015457Y00032555D01*
X00015403Y00032562D01*
X00015352Y00032577D01*
X00015302Y00032599D01*
X00015257Y00032627D01*
X00015215Y00032661D01*
X00015178Y00032700D01*
X00015147Y00032744D01*
X00015123Y00032792D01*
X00015087Y00032876D01*
X00015084Y00032884D01*
X00015081Y00032891D01*
X00015078Y00032899D01*
X00015075Y00032906D01*
X00015073Y00032914D01*
X00015070Y00032921D01*
X00015068Y00032929D01*
X00015066Y00032937D01*
X00015064Y00032945D01*
X00015063Y00032952D01*
X00015061Y00032960D01*
X00015060Y00032968D01*
X00015059Y00032976D01*
X00015058Y00032984D01*
X00015057Y00032992D01*
X00015056Y00033000D01*
X00015055Y00033008D01*
X00015055Y00033016D01*
X00015055Y00033024D01*
X00015055Y00033032D01*
X00015055Y00036051D01*
X00015059Y00036109D01*
X00015072Y00036166D01*
X00015093Y00036221D01*
X00015122Y00036272D01*
X00015159Y00036318D01*
X00015201Y00036358D01*
X00015250Y00036391D01*
X00015302Y00036416D01*
X00015358Y00036434D01*
X00015416Y00036443D01*
X00015474Y00036444D01*
X00015532Y00036436D01*
X00015588Y00036419D01*
X00015641Y00036394D01*
X00015690Y00036362D01*
X00015734Y00036322D01*
X00015771Y00036277D01*
X00015801Y00036227D01*
X00015823Y00036172D01*
X00015837Y00036116D01*
X00015873Y00035898D01*
X00015873Y00035895D01*
X00015874Y00035892D01*
X00015874Y00035889D01*
X00015875Y00035885D01*
X00015875Y00035882D01*
X00015876Y00035879D01*
X00015876Y00035876D01*
X00015876Y00035872D01*
X00015877Y00035869D01*
X00015877Y00035866D01*
X00015877Y00035863D01*
X00015877Y00035860D01*
X00015878Y00035856D01*
X00015878Y00035853D01*
X00015878Y00035850D01*
X00015878Y00035847D01*
X00015878Y00035843D01*
X00015878Y00035840D01*
X00015878Y00035837D01*
X00015878Y00035834D01*
X00015878Y00032948D01*
X00031312Y00025315D02*
X00031312Y00025315D01*
X00031312Y00025292D01*
X00031310Y00025269D01*
X00031306Y00025246D01*
X00031302Y00025224D01*
X00031296Y00025201D01*
X00031288Y00025180D01*
X00031280Y00025158D01*
X00031270Y00025137D01*
X00031259Y00025117D01*
X00031247Y00025098D01*
X00031234Y00025079D01*
X00031219Y00025061D01*
X00031204Y00025044D01*
X00031188Y00025027D01*
X00031170Y00025012D01*
X00031152Y00024998D01*
X00031133Y00024985D01*
X00031114Y00024973D01*
X00031093Y00024962D01*
X00031072Y00024952D01*
X00030500Y00024710D01*
X00030464Y00024697D01*
X00030426Y00024687D01*
X00030388Y00024681D01*
X00030349Y00024679D01*
X00030311Y00024680D01*
X00030272Y00024686D01*
X00030234Y00024695D01*
X00030198Y00024708D01*
X00030163Y00024724D01*
X00030129Y00024744D01*
X00030098Y00024767D01*
X00030069Y00024793D01*
X00030043Y00024822D01*
X00030020Y00024853D01*
X00030000Y00024886D01*
X00029983Y00024921D01*
X00029970Y00024958D01*
X00029961Y00024995D01*
X00029955Y00025034D01*
X00029953Y00025072D01*
X00029953Y00026372D01*
X00029955Y00026413D01*
X00029961Y00026453D01*
X00029972Y00026492D01*
X00029986Y00026530D01*
X00030005Y00026566D01*
X00030026Y00026601D01*
X00030052Y00026633D01*
X00030080Y00026662D01*
X00030112Y00026688D01*
X00030145Y00026710D01*
X00030181Y00026729D01*
X00030219Y00026744D01*
X00030258Y00026756D01*
X00030298Y00026763D01*
X00030339Y00026765D01*
X00030380Y00026764D01*
X00030420Y00026759D01*
X00030460Y00026749D01*
X00030498Y00026735D01*
X00030535Y00026718D01*
X00031107Y00026407D01*
X00031125Y00026397D01*
X00031143Y00026385D01*
X00031160Y00026373D01*
X00031176Y00026359D01*
X00031192Y00026345D01*
X00031207Y00026330D01*
X00031221Y00026314D01*
X00031234Y00026298D01*
X00031246Y00026280D01*
X00031257Y00026262D01*
X00031267Y00026244D01*
X00031277Y00026225D01*
X00031285Y00026206D01*
X00031292Y00026186D01*
X00031298Y00026166D01*
X00031303Y00026145D01*
X00031307Y00026124D01*
X00031310Y00026103D01*
X00031312Y00026082D01*
X00031312Y00026061D01*
X00031312Y00025315D01*
X00032682Y00027228D02*
X00032682Y00027228D01*
X00032667Y00027228D01*
X00032653Y00027229D01*
X00032638Y00027230D01*
X00032623Y00027232D01*
X00032609Y00027235D01*
X00032594Y00027238D01*
X00032580Y00027241D01*
X00032566Y00027245D01*
X00032552Y00027250D01*
X00032538Y00027255D01*
X00032524Y00027261D01*
X00032511Y00027267D01*
X00032497Y00027274D01*
X00032485Y00027281D01*
X00032472Y00027289D01*
X00032460Y00027297D01*
X00032447Y00027305D01*
X00032436Y00027314D01*
X00032424Y00027324D01*
X00032413Y00027334D01*
X00030439Y00029177D01*
X00030428Y00029188D01*
X00030417Y00029199D01*
X00030406Y00029212D01*
X00030396Y00029224D01*
X00030387Y00029237D01*
X00030378Y00029251D01*
X00030369Y00029264D01*
X00030361Y00029278D01*
X00030354Y00029293D01*
X00030347Y00029307D01*
X00030341Y00029322D01*
X00030335Y00029338D01*
X00030331Y00029353D01*
X00030326Y00029368D01*
X00030323Y00029384D01*
X00030320Y00029400D01*
X00030317Y00029416D01*
X00030316Y00029432D01*
X00030315Y00029448D01*
X00030314Y00029464D01*
X00030314Y00034236D01*
X00030315Y00034258D01*
X00030317Y00034280D01*
X00030320Y00034302D01*
X00030324Y00034323D01*
X00030330Y00034345D01*
X00030337Y00034366D01*
X00030344Y00034386D01*
X00030353Y00034406D01*
X00030363Y00034426D01*
X00030375Y00034445D01*
X00030387Y00034463D01*
X00030400Y00034481D01*
X00030414Y00034498D01*
X00030430Y00034514D01*
X00030446Y00034529D01*
X00030462Y00034543D01*
X00030480Y00034557D01*
X00030498Y00034569D01*
X00030517Y00034580D01*
X00030537Y00034590D01*
X00030836Y00034735D01*
X00030873Y00034750D01*
X00030911Y00034762D01*
X00030950Y00034770D01*
X00030989Y00034774D01*
X00031029Y00034773D01*
X00031069Y00034769D01*
X00031108Y00034761D01*
X00031145Y00034749D01*
X00031182Y00034733D01*
X00031217Y00034714D01*
X00031249Y00034691D01*
X00031279Y00034665D01*
X00031307Y00034636D01*
X00031331Y00034605D01*
X00031352Y00034571D01*
X00031369Y00034535D01*
X00031383Y00034498D01*
X00031393Y00034459D01*
X00031399Y00034420D01*
X00031401Y00034380D01*
X00031401Y00032659D01*
X00036899Y00032659D01*
X00036929Y00032658D01*
X00036960Y00032654D01*
X00036990Y00032648D01*
X00037019Y00032640D01*
X00037048Y00032630D01*
X00037076Y00032617D01*
X00037102Y00032602D01*
X00037128Y00032586D01*
X00037152Y00032567D01*
X00037174Y00032546D01*
X00037195Y00032524D01*
X00037215Y00032500D01*
X00037232Y00032475D01*
X00037247Y00032449D01*
X00037260Y00032421D01*
X00037271Y00032393D01*
X00037280Y00032364D01*
X00037287Y00032334D01*
X00037291Y00032304D01*
X00037293Y00032273D01*
X00037308Y00031504D01*
X00037307Y00031472D01*
X00037304Y00031441D01*
X00037299Y00031410D01*
X00037291Y00031380D01*
X00037280Y00031350D01*
X00037268Y00031322D01*
X00037253Y00031294D01*
X00037236Y00031268D01*
X00037217Y00031243D01*
X00037196Y00031220D01*
X00037173Y00031199D01*
X00037148Y00031179D01*
X00037123Y00031161D01*
X00037095Y00031146D01*
X00037067Y00031133D01*
X00037038Y00031122D01*
X00037007Y00031113D01*
X00036977Y00031107D01*
X00036946Y00031103D01*
X00036914Y00031102D01*
X00035826Y00031102D01*
X00035826Y00024102D01*
X00037394Y00024102D01*
X00037440Y00024099D01*
X00037486Y00024091D01*
X00037530Y00024078D01*
X00037572Y00024059D01*
X00037612Y00024036D01*
X00037649Y00024008D01*
X00037682Y00023976D01*
X00037712Y00023941D01*
X00037737Y00023902D01*
X00037757Y00023860D01*
X00037773Y00023817D01*
X00037783Y00023772D01*
X00037787Y00023726D01*
X00037787Y00023679D01*
X00037781Y00023634D01*
X00037769Y00023589D01*
X00037753Y00023546D01*
X00037731Y00023505D01*
X00037705Y00023467D01*
X00037675Y00023432D01*
X00037320Y00023072D01*
X00037309Y00023061D01*
X00037297Y00023050D01*
X00037285Y00023040D01*
X00037273Y00023031D01*
X00037260Y00023022D01*
X00037247Y00023013D01*
X00037234Y00023005D01*
X00037220Y00022998D01*
X00037206Y00022991D01*
X00037192Y00022985D01*
X00037177Y00022979D01*
X00037162Y00022974D01*
X00037147Y00022969D01*
X00037132Y00022965D01*
X00037117Y00022962D01*
X00037102Y00022959D01*
X00037086Y00022957D01*
X00037071Y00022955D01*
X00037055Y00022955D01*
X00037040Y00022954D01*
X00036582Y00022954D01*
X00036467Y00022971D01*
X00036362Y00023022D01*
X00036276Y00023101D01*
X00036217Y00023201D01*
X00036190Y00023314D01*
X00036197Y00023431D01*
X00036238Y00023540D01*
X00036310Y00023632D01*
X00036405Y00023699D01*
X00036515Y00023736D01*
X00036632Y00023738D01*
X00036744Y00023707D01*
X00036842Y00023644D01*
X00036917Y00023555D01*
X00036963Y00023448D01*
X00036976Y00023332D01*
X00036954Y00023217D01*
X00036899Y00023114D01*
X00036817Y00023032D01*
X00036714Y00022977D01*
X00035588Y00022577D01*
X00035552Y00022566D01*
X00035515Y00022558D01*
X00035478Y00022555D01*
X00035440Y00022554D01*
X00035403Y00022558D01*
X00035366Y00022565D01*
X00035329Y00022575D01*
X00035294Y00022589D01*
X00035261Y00022606D01*
X00035229Y00022626D01*
X00035199Y00022649D01*
X00035172Y00022675D01*
X00035147Y00022703D01*
X00035126Y00022734D01*
X00035107Y00022767D01*
X00035091Y00022801D01*
X00035079Y00022836D01*
X00035070Y00022873D01*
X00035064Y00022910D01*
X00035062Y00022948D01*
X00035062Y00027228D01*
X00032682Y00027228D01*
X00029295Y00028346D02*
X00029295Y00028346D01*
X00029331Y00028344D01*
X00029367Y00028339D01*
X00029403Y00028331D01*
X00029437Y00028319D01*
X00029471Y00028305D01*
X00029502Y00028287D01*
X00029532Y00028266D01*
X00029560Y00028243D01*
X00029586Y00028217D01*
X00029609Y00028189D01*
X00029630Y00028159D01*
X00029648Y00028128D01*
X00029662Y00028094D01*
X00029674Y00028060D01*
X00029682Y00028024D01*
X00029687Y00027988D01*
X00029689Y00027952D01*
X00029687Y00027916D01*
X00029682Y00027880D01*
X00029674Y00027844D01*
X00029636Y00027714D01*
X00029629Y00027689D01*
X00029619Y00027666D01*
X00029609Y00027643D01*
X00029596Y00027620D01*
X00029583Y00027599D01*
X00029567Y00027578D01*
X00029551Y00027559D01*
X00029534Y00027541D01*
X00029515Y00027523D01*
X00029495Y00027507D01*
X00029474Y00027493D01*
X00029452Y00027479D01*
X00029430Y00027467D01*
X00029407Y00027457D01*
X00029383Y00027448D01*
X00029359Y00027441D01*
X00029334Y00027435D01*
X00029309Y00027431D01*
X00029283Y00027429D01*
X00029258Y00027428D01*
X00025981Y00027428D01*
X00025924Y00027432D01*
X00025869Y00027444D01*
X00025816Y00027464D01*
X00025766Y00027492D01*
X00025721Y00027526D01*
X00025681Y00027566D01*
X00025648Y00027612D01*
X00025621Y00027662D01*
X00025602Y00027715D01*
X00025590Y00027771D01*
X00025587Y00027827D01*
X00025592Y00027884D01*
X00025605Y00027939D01*
X00025626Y00027992D01*
X00025654Y00028041D01*
X00025689Y00028086D01*
X00025730Y00028125D01*
X00025776Y00028158D01*
X00025827Y00028184D01*
X00025880Y00028202D01*
X00026375Y00028333D01*
X00026380Y00028334D01*
X00026385Y00028335D01*
X00026390Y00028337D01*
X00026395Y00028338D01*
X00026400Y00028339D01*
X00026405Y00028340D01*
X00026410Y00028340D01*
X00026415Y00028341D01*
X00026420Y00028342D01*
X00026425Y00028343D01*
X00026430Y00028343D01*
X00026435Y00028344D01*
X00026440Y00028344D01*
X00026445Y00028345D01*
X00026450Y00028345D01*
X00026455Y00028345D01*
X00026460Y00028346D01*
X00026465Y00028346D01*
X00026470Y00028346D01*
X00026476Y00028346D01*
X00029295Y00028346D01*
X00031312Y00018909D02*
X00031312Y00018909D01*
X00031312Y00018881D01*
X00031309Y00018853D01*
X00031304Y00018826D01*
X00031297Y00018799D01*
X00031288Y00018772D01*
X00031278Y00018747D01*
X00031265Y00018722D01*
X00031251Y00018698D01*
X00031235Y00018675D01*
X00031218Y00018653D01*
X00031199Y00018632D01*
X00031179Y00018613D01*
X00031157Y00018596D01*
X00031134Y00018579D01*
X00031111Y00018565D01*
X00031086Y00018552D01*
X00031060Y00018541D01*
X00031034Y00018532D01*
X00031007Y00018525D01*
X00030979Y00018520D01*
X00030407Y00018431D01*
X00030374Y00018427D01*
X00030340Y00018426D01*
X00030306Y00018428D01*
X00030272Y00018433D01*
X00030239Y00018441D01*
X00030207Y00018452D01*
X00030176Y00018465D01*
X00030146Y00018481D01*
X00030117Y00018500D01*
X00030091Y00018521D01*
X00030066Y00018544D01*
X00030043Y00018569D01*
X00030023Y00018596D01*
X00030005Y00018625D01*
X00029989Y00018655D01*
X00029976Y00018686D01*
X00029966Y00018719D01*
X00029959Y00018752D01*
X00029955Y00018786D01*
X00029953Y00018820D01*
X00029953Y00022310D01*
X00026976Y00022310D01*
X00026945Y00022311D01*
X00026915Y00022315D01*
X00026884Y00022321D01*
X00026855Y00022329D01*
X00026826Y00022340D01*
X00026798Y00022353D01*
X00026771Y00022368D01*
X00026745Y00022385D01*
X00026721Y00022404D01*
X00026698Y00022425D01*
X00026677Y00022448D01*
X00026658Y00022472D01*
X00026641Y00022498D01*
X00026625Y00022525D01*
X00026613Y00022553D01*
X00026602Y00022582D01*
X00026593Y00022612D01*
X00026587Y00022642D01*
X00026584Y00022673D01*
X00026583Y00022703D01*
X00026583Y00022834D01*
X00026584Y00022865D01*
X00026587Y00022896D01*
X00026593Y00022926D01*
X00026602Y00022956D01*
X00026613Y00022985D01*
X00026625Y00023013D01*
X00026641Y00023040D01*
X00026658Y00023066D01*
X00026677Y00023090D01*
X00026698Y00023113D01*
X00026721Y00023134D01*
X00026745Y00023153D01*
X00026771Y00023170D01*
X00026798Y00023185D01*
X00026826Y00023198D01*
X00026855Y00023209D01*
X00026884Y00023217D01*
X00026915Y00023223D01*
X00026945Y00023227D01*
X00026976Y00023228D01*
X00029953Y00023228D01*
X00029953Y00023240D01*
X00029955Y00023279D01*
X00029961Y00023317D01*
X00029970Y00023355D01*
X00029983Y00023391D01*
X00030000Y00023426D01*
X00030020Y00023460D01*
X00030043Y00023491D01*
X00030069Y00023519D01*
X00030098Y00023545D01*
X00030129Y00023568D01*
X00030163Y00023588D01*
X00030198Y00023605D01*
X00030234Y00023617D01*
X00030272Y00023627D01*
X00030311Y00023632D01*
X00030349Y00023634D01*
X00030388Y00023632D01*
X00030426Y00023626D01*
X00030464Y00023616D01*
X00030500Y00023603D01*
X00031072Y00023360D01*
X00031093Y00023351D01*
X00031114Y00023340D01*
X00031133Y00023328D01*
X00031152Y00023315D01*
X00031170Y00023300D01*
X00031188Y00023285D01*
X00031204Y00023269D01*
X00031219Y00023252D01*
X00031234Y00023234D01*
X00031247Y00023215D01*
X00031259Y00023195D01*
X00031270Y00023175D01*
X00031280Y00023154D01*
X00031288Y00023133D01*
X00031296Y00023111D01*
X00031302Y00023089D01*
X00031306Y00023066D01*
X00031310Y00023044D01*
X00031312Y00023021D01*
X00031312Y00022998D01*
X00031312Y00018909D01*
X00035956Y00010156D02*
X00035956Y00010156D01*
X00035953Y00010104D01*
X00035942Y00010052D01*
X00035925Y00010002D01*
X00035901Y00009955D01*
X00035871Y00009912D01*
X00035836Y00009873D01*
X00035795Y00009839D01*
X00035751Y00009811D01*
X00035703Y00009789D01*
X00035653Y00009773D01*
X00035601Y00009765D01*
X00035548Y00009763D01*
X00035496Y00009768D01*
X00035445Y00009781D01*
X00035395Y00009800D01*
X00035349Y00009825D01*
X00035307Y00009857D01*
X00035269Y00009894D01*
X00035237Y00009935D01*
X00035210Y00009981D01*
X00034937Y00010528D01*
X00034933Y00010536D01*
X00034929Y00010544D01*
X00034926Y00010553D01*
X00034922Y00010561D01*
X00034919Y00010570D01*
X00034916Y00010578D01*
X00034913Y00010587D01*
X00034911Y00010596D01*
X00034908Y00010605D01*
X00034906Y00010613D01*
X00034904Y00010622D01*
X00034902Y00010631D01*
X00034901Y00010640D01*
X00034899Y00010649D01*
X00034898Y00010658D01*
X00034897Y00010667D01*
X00034897Y00010676D01*
X00034896Y00010686D01*
X00034896Y00010695D01*
X00034896Y00010704D01*
X00034896Y00011417D01*
X00034267Y00011417D01*
X00034245Y00011417D01*
X00034223Y00011419D01*
X00034201Y00011422D01*
X00034179Y00011427D01*
X00034157Y00011433D01*
X00034136Y00011439D01*
X00034115Y00011447D01*
X00034095Y00011457D01*
X00034075Y00011467D01*
X00034056Y00011478D01*
X00034037Y00011491D01*
X00034020Y00011504D01*
X00034003Y00011519D01*
X00033987Y00011534D01*
X00033971Y00011551D01*
X00033957Y00011568D01*
X00033944Y00011586D01*
X00033932Y00011604D01*
X00033921Y00011624D01*
X00033911Y00011644D01*
X00033782Y00011917D01*
X00033767Y00011954D01*
X00033756Y00011992D01*
X00033749Y00012030D01*
X00033746Y00012070D01*
X00033746Y00012109D01*
X00033751Y00012149D01*
X00033759Y00012187D01*
X00033771Y00012225D01*
X00033787Y00012261D01*
X00033807Y00012295D01*
X00033830Y00012328D01*
X00033856Y00012357D01*
X00033884Y00012384D01*
X00033916Y00012408D01*
X00033949Y00012429D01*
X00033985Y00012446D01*
X00034022Y00012460D01*
X00034060Y00012470D01*
X00034099Y00012476D01*
X00034139Y00012478D01*
X00035062Y00012478D01*
X00035062Y00016320D01*
X00035066Y00016374D01*
X00035077Y00016427D01*
X00035095Y00016478D01*
X00035120Y00016526D01*
X00035151Y00016570D01*
X00035188Y00016609D01*
X00035230Y00016643D01*
X00035276Y00016671D01*
X00035326Y00016692D01*
X00035378Y00016706D01*
X00035431Y00016713D01*
X00035485Y00016713D01*
X00035539Y00016705D01*
X00035590Y00016691D01*
X00035640Y00016669D01*
X00035686Y00016640D01*
X00035727Y00016606D01*
X00035764Y00016566D01*
X00035794Y00016522D01*
X00035819Y00016474D01*
X00035925Y00016223D01*
X00035928Y00016215D01*
X00035931Y00016208D01*
X00035934Y00016201D01*
X00035936Y00016193D01*
X00035939Y00016186D01*
X00035941Y00016178D01*
X00035943Y00016170D01*
X00035945Y00016163D01*
X00035947Y00016155D01*
X00035948Y00016147D01*
X00035950Y00016140D01*
X00035951Y00016132D01*
X00035952Y00016124D01*
X00035953Y00016116D01*
X00035954Y00016109D01*
X00035955Y00016101D01*
X00035955Y00016093D01*
X00035956Y00016085D01*
X00035956Y00016077D01*
X00035956Y00016069D01*
X00035956Y00010156D01*
X00023553Y00029921D02*
X00023553Y00029921D01*
X00023584Y00029920D01*
X00023615Y00029916D01*
X00023645Y00029910D01*
X00023675Y00029901D01*
X00023704Y00029891D01*
X00023732Y00029878D01*
X00023759Y00029863D01*
X00023785Y00029846D01*
X00023809Y00029826D01*
X00023832Y00029805D01*
X00023853Y00029783D01*
X00023872Y00029758D01*
X00023889Y00029733D01*
X00023904Y00029706D01*
X00023917Y00029678D01*
X00023928Y00029649D01*
X00023936Y00029619D01*
X00023942Y00029589D01*
X00023946Y00029558D01*
X00023947Y00029527D01*
X00023947Y00027822D01*
X00023946Y00027791D01*
X00023942Y00027760D01*
X00023936Y00027730D01*
X00023928Y00027700D01*
X00023917Y00027671D01*
X00023904Y00027643D01*
X00023889Y00027616D01*
X00023872Y00027590D01*
X00023853Y00027566D01*
X00023832Y00027543D01*
X00023809Y00027522D01*
X00023785Y00027503D01*
X00023759Y00027486D01*
X00023732Y00027471D01*
X00023704Y00027458D01*
X00023675Y00027447D01*
X00023645Y00027439D01*
X00023615Y00027433D01*
X00023584Y00027429D01*
X00023553Y00027428D01*
X00021653Y00027428D01*
X00021653Y00026704D01*
X00021652Y00026681D01*
X00021651Y00026659D01*
X00021647Y00026637D01*
X00021643Y00026616D01*
X00021638Y00026594D01*
X00021631Y00026573D01*
X00021623Y00026552D01*
X00021614Y00026532D01*
X00021603Y00026512D01*
X00021592Y00026493D01*
X00021580Y00026475D01*
X00021566Y00026457D01*
X00021552Y00026440D01*
X00021537Y00026424D01*
X00021520Y00026409D01*
X00021503Y00026395D01*
X00021486Y00026381D01*
X00021467Y00026369D01*
X00021448Y00026358D01*
X00021428Y00026348D01*
X00021208Y00026243D01*
X00021171Y00026228D01*
X00021133Y00026217D01*
X00021094Y00026209D01*
X00021055Y00026206D01*
X00021015Y00026206D01*
X00020976Y00026210D01*
X00020937Y00026219D01*
X00020899Y00026231D01*
X00020863Y00026247D01*
X00020829Y00026266D01*
X00020796Y00026289D01*
X00020766Y00026315D01*
X00020739Y00026344D01*
X00020715Y00026375D01*
X00020694Y00026409D01*
X00020677Y00026445D01*
X00020663Y00026482D01*
X00020653Y00026520D01*
X00020647Y00026559D01*
X00020645Y00026599D01*
X00020645Y00028367D01*
X00020645Y00028380D01*
X00020646Y00028394D01*
X00020647Y00028407D01*
X00020649Y00028420D01*
X00020651Y00028433D01*
X00020653Y00028447D01*
X00020656Y00028460D01*
X00020660Y00028473D01*
X00020664Y00028485D01*
X00020668Y00028498D01*
X00020672Y00028511D01*
X00020678Y00028523D01*
X00020683Y00028535D01*
X00020689Y00028547D01*
X00020695Y00028559D01*
X00020702Y00028571D01*
X00020709Y00028582D01*
X00020717Y00028593D01*
X00020725Y00028604D01*
X00020733Y00028615D01*
X00021673Y00029775D01*
X00021685Y00029788D01*
X00021697Y00029801D01*
X00021709Y00029813D01*
X00021722Y00029825D01*
X00021736Y00029836D01*
X00021750Y00029847D01*
X00021764Y00029857D01*
X00021779Y00029866D01*
X00021794Y00029875D01*
X00021810Y00029882D01*
X00021826Y00029890D01*
X00021842Y00029896D01*
X00021859Y00029902D01*
X00021875Y00029907D01*
X00021892Y00029911D01*
X00021910Y00029915D01*
X00021927Y00029917D01*
X00021944Y00029919D01*
X00021962Y00029920D01*
X00021979Y00029921D01*
X00023553Y00029921D01*
X00026114Y00029775D02*
X00026114Y00029775D01*
X00026110Y00029718D01*
X00026098Y00029661D01*
X00026077Y00029608D01*
X00026049Y00029558D01*
X00026014Y00029512D01*
X00025973Y00029472D01*
X00025926Y00029439D01*
X00025875Y00029413D01*
X00025820Y00029394D01*
X00025764Y00029384D01*
X00025706Y00029381D01*
X00025649Y00029388D01*
X00025594Y00029402D01*
X00025541Y00029425D01*
X00025492Y00029455D01*
X00025448Y00029491D01*
X00025409Y00029534D01*
X00025378Y00029582D01*
X00025353Y00029634D01*
X00025337Y00029689D01*
X00025206Y00030274D01*
X00025205Y00030279D01*
X00025204Y00030283D01*
X00025203Y00030287D01*
X00025202Y00030291D01*
X00025202Y00030296D01*
X00025201Y00030300D01*
X00025200Y00030304D01*
X00025200Y00030309D01*
X00025199Y00030313D01*
X00025199Y00030317D01*
X00025198Y00030321D01*
X00025198Y00030326D01*
X00025198Y00030330D01*
X00025197Y00030334D01*
X00025197Y00030339D01*
X00025197Y00030343D01*
X00025197Y00030347D01*
X00025196Y00030352D01*
X00025196Y00030356D01*
X00025196Y00030360D01*
X00025196Y00032110D01*
X00025198Y00032141D01*
X00025201Y00032172D01*
X00025207Y00032202D01*
X00025216Y00032232D01*
X00025226Y00032261D01*
X00025239Y00032289D01*
X00025254Y00032316D01*
X00025272Y00032342D01*
X00025291Y00032366D01*
X00025312Y00032389D01*
X00025334Y00032409D01*
X00025359Y00032429D01*
X00025384Y00032446D01*
X00025411Y00032461D01*
X00025439Y00032474D01*
X00025468Y00032485D01*
X00025498Y00032493D01*
X00025528Y00032499D01*
X00025559Y00032503D01*
X00025590Y00032504D01*
X00025721Y00032504D01*
X00025752Y00032503D01*
X00025782Y00032499D01*
X00025813Y00032493D01*
X00025842Y00032485D01*
X00025871Y00032474D01*
X00025899Y00032461D01*
X00025926Y00032446D01*
X00025952Y00032429D01*
X00025976Y00032409D01*
X00025999Y00032389D01*
X00026020Y00032366D01*
X00026039Y00032342D01*
X00026056Y00032316D01*
X00026072Y00032289D01*
X00026084Y00032261D01*
X00026095Y00032232D01*
X00026104Y00032202D01*
X00026110Y00032172D01*
X00026113Y00032141D01*
X00026114Y00032110D01*
X00026114Y00029775D01*
X00011945Y00022410D02*
X00011945Y00022410D01*
X00011945Y00022389D01*
X00011943Y00022368D01*
X00011940Y00022348D01*
X00011936Y00022327D01*
X00011932Y00022307D01*
X00011926Y00022287D01*
X00011919Y00022268D01*
X00011911Y00022249D01*
X00011902Y00022230D01*
X00011892Y00022212D01*
X00011881Y00022194D01*
X00011869Y00022177D01*
X00011856Y00022161D01*
X00011843Y00022145D01*
X00011828Y00022130D01*
X00011813Y00022116D01*
X00011797Y00022102D01*
X00011781Y00022090D01*
X00011763Y00022078D01*
X00011746Y00022067D01*
X00011587Y00021978D01*
X00011551Y00021959D01*
X00011512Y00021945D01*
X00011473Y00021935D01*
X00011432Y00021928D01*
X00011391Y00021926D01*
X00011350Y00021929D01*
X00011309Y00021936D01*
X00011270Y00021946D01*
X00011232Y00021961D01*
X00011195Y00021980D01*
X00011161Y00022002D01*
X00011129Y00022028D01*
X00011100Y00022058D01*
X00011074Y00022090D01*
X00011052Y00022124D01*
X00011033Y00022161D01*
X00011019Y00022199D01*
X00011008Y00022239D01*
X00011002Y00022279D01*
X00011000Y00022320D01*
X00011000Y00022423D01*
X00007096Y00022423D01*
X00007073Y00022423D01*
X00007051Y00022425D01*
X00007029Y00022428D01*
X00007007Y00022433D01*
X00006985Y00022439D01*
X00006964Y00022445D01*
X00006943Y00022454D01*
X00006923Y00022463D01*
X00006903Y00022473D01*
X00006884Y00022485D01*
X00006865Y00022497D01*
X00006847Y00022511D01*
X00006830Y00022526D01*
X00006814Y00022541D01*
X00006799Y00022558D01*
X00006785Y00022575D01*
X00006771Y00022593D01*
X00006759Y00022612D01*
X00006748Y00022632D01*
X00006738Y00022652D01*
X00006577Y00023002D01*
X00006562Y00023039D01*
X00006551Y00023077D01*
X00006544Y00023116D01*
X00006541Y00023155D01*
X00006541Y00023194D01*
X00006546Y00023233D01*
X00006555Y00023272D01*
X00006567Y00023309D01*
X00006583Y00023345D01*
X00006603Y00023379D01*
X00006625Y00023412D01*
X00006651Y00023441D01*
X00006680Y00023468D01*
X00006712Y00023492D01*
X00006745Y00023513D01*
X00006781Y00023530D01*
X00006818Y00023543D01*
X00006856Y00023553D01*
X00006895Y00023559D01*
X00006934Y00023561D01*
X00010860Y00023561D01*
X00010860Y00024548D01*
X00010861Y00024580D01*
X00010865Y00024612D01*
X00010872Y00024643D01*
X00010881Y00024674D01*
X00010892Y00024703D01*
X00010906Y00024732D01*
X00010922Y00024760D01*
X00010940Y00024786D01*
X00010960Y00024811D01*
X00010982Y00024834D01*
X00011006Y00024855D01*
X00011032Y00024874D01*
X00011059Y00024890D01*
X00011087Y00024905D01*
X00011117Y00024917D01*
X00011147Y00024927D01*
X00011178Y00024935D01*
X00011210Y00024940D01*
X00011241Y00024942D01*
X00011273Y00024942D01*
X00011571Y00024927D01*
X00011601Y00024924D01*
X00011630Y00024919D01*
X00011659Y00024912D01*
X00011688Y00024903D01*
X00011715Y00024892D01*
X00011742Y00024878D01*
X00011768Y00024863D01*
X00011792Y00024845D01*
X00011815Y00024826D01*
X00011837Y00024805D01*
X00011856Y00024783D01*
X00011874Y00024759D01*
X00011891Y00024734D01*
X00011905Y00024707D01*
X00011917Y00024680D01*
X00011927Y00024652D01*
X00011935Y00024623D01*
X00011941Y00024593D01*
X00011944Y00024564D01*
X00011945Y00024534D01*
X00011945Y00022410D01*
X00016149Y00012411D02*
X00016149Y00012411D01*
X00016097Y00012414D01*
X00016046Y00012425D01*
X00015996Y00012442D01*
X00015950Y00012465D01*
X00015906Y00012495D01*
X00015868Y00012530D01*
X00015834Y00012569D01*
X00015805Y00012613D01*
X00015783Y00012660D01*
X00015767Y00012710D01*
X00015758Y00012762D01*
X00015756Y00012814D01*
X00015760Y00012866D01*
X00015772Y00012917D01*
X00015790Y00012966D01*
X00015815Y00013012D01*
X00015845Y00013055D01*
X00015881Y00013093D01*
X00015921Y00013126D01*
X00015966Y00013153D01*
X00016322Y00013340D01*
X00016330Y00013344D01*
X00016339Y00013349D01*
X00016347Y00013352D01*
X00016356Y00013356D01*
X00016365Y00013360D01*
X00016374Y00013363D01*
X00016383Y00013366D01*
X00016392Y00013369D01*
X00016401Y00013371D01*
X00016411Y00013374D01*
X00016420Y00013376D01*
X00016429Y00013378D01*
X00016439Y00013380D01*
X00016448Y00013381D01*
X00016457Y00013382D01*
X00016467Y00013383D01*
X00016476Y00013384D01*
X00016486Y00013385D01*
X00016495Y00013385D01*
X00016505Y00013385D01*
X00021961Y00013385D01*
X00021992Y00013384D01*
X00022022Y00013380D01*
X00022053Y00013374D01*
X00022082Y00013366D01*
X00022111Y00013355D01*
X00022139Y00013342D01*
X00022166Y00013327D01*
X00022192Y00013310D01*
X00022216Y00013291D01*
X00022239Y00013270D01*
X00022260Y00013247D01*
X00022279Y00013223D01*
X00022296Y00013197D01*
X00022311Y00013170D01*
X00022324Y00013142D01*
X00022335Y00013113D01*
X00022344Y00013084D01*
X00022350Y00013053D01*
X00022353Y00013023D01*
X00022354Y00012992D01*
X00022354Y00012805D01*
X00022353Y00012774D01*
X00022350Y00012743D01*
X00022344Y00012713D01*
X00022335Y00012683D01*
X00022324Y00012654D01*
X00022311Y00012626D01*
X00022296Y00012599D01*
X00022279Y00012573D01*
X00022260Y00012549D01*
X00022239Y00012526D01*
X00022216Y00012505D01*
X00022192Y00012486D01*
X00022166Y00012469D01*
X00022139Y00012454D01*
X00022111Y00012441D01*
X00022082Y00012430D01*
X00022053Y00012422D01*
X00022022Y00012416D01*
X00021992Y00012412D01*
X00021961Y00012411D01*
X00016149Y00012411D01*
X00014750Y00012135D02*
X00014750Y00012135D01*
X00014751Y00012166D01*
X00014754Y00012197D01*
X00014760Y00012227D01*
X00014769Y00012257D01*
X00014779Y00012286D01*
X00014792Y00012314D01*
X00014808Y00012341D01*
X00014825Y00012366D01*
X00014844Y00012391D01*
X00014865Y00012413D01*
X00014888Y00012434D01*
X00014912Y00012454D01*
X00014937Y00012471D01*
X00014964Y00012486D01*
X00014993Y00012499D01*
X00015022Y00012509D01*
X00015051Y00012518D01*
X00015082Y00012524D01*
X00015112Y00012528D01*
X00015143Y00012529D01*
X00015354Y00012529D01*
X00015385Y00012528D01*
X00015415Y00012524D01*
X00015446Y00012518D01*
X00015475Y00012509D01*
X00015504Y00012499D01*
X00015533Y00012486D01*
X00015560Y00012471D01*
X00015585Y00012454D01*
X00015610Y00012434D01*
X00015632Y00012413D01*
X00015653Y00012391D01*
X00015672Y00012366D01*
X00015690Y00012341D01*
X00015705Y00012314D01*
X00015718Y00012286D01*
X00015728Y00012257D01*
X00015737Y00012227D01*
X00015743Y00012197D01*
X00015746Y00012166D01*
X00015748Y00012135D01*
X00015748Y00012086D01*
X00015746Y00012056D01*
X00015743Y00012025D01*
X00015737Y00011995D01*
X00015728Y00011965D01*
X00015718Y00011936D01*
X00015705Y00011908D01*
X00015690Y00011881D01*
X00015672Y00011855D01*
X00015653Y00011831D01*
X00015632Y00011808D01*
X00015610Y00011787D01*
X00015585Y00011768D01*
X00015560Y00011751D01*
X00015533Y00011736D01*
X00015504Y00011723D01*
X00015475Y00011712D01*
X00015446Y00011704D01*
X00015415Y00011698D01*
X00015385Y00011694D01*
X00015354Y00011693D01*
X00015143Y00011693D01*
X00015112Y00011694D01*
X00015082Y00011698D01*
X00015051Y00011704D01*
X00015022Y00011712D01*
X00014993Y00011723D01*
X00014964Y00011736D01*
X00014937Y00011751D01*
X00014912Y00011768D01*
X00014888Y00011787D01*
X00014865Y00011808D01*
X00014844Y00011831D01*
X00014825Y00011855D01*
X00014808Y00011881D01*
X00014792Y00011908D01*
X00014779Y00011936D01*
X00014769Y00011965D01*
X00014760Y00011995D01*
X00014754Y00012025D01*
X00014751Y00012056D01*
X00014750Y00012086D01*
X00014750Y00012135D01*
X00015748Y00014449D02*
X00015748Y00014449D01*
X00015747Y00014429D01*
X00015746Y00014409D01*
X00015743Y00014389D01*
X00015740Y00014370D01*
X00015735Y00014350D01*
X00015730Y00014331D01*
X00015723Y00014312D01*
X00015716Y00014294D01*
X00015708Y00014276D01*
X00015698Y00014258D01*
X00015688Y00014241D01*
X00015678Y00014225D01*
X00015666Y00014208D01*
X00015653Y00014193D01*
X00015640Y00014178D01*
X00015626Y00014164D01*
X00015611Y00014151D01*
X00015596Y00014138D01*
X00015580Y00014126D01*
X00015563Y00014115D01*
X00014202Y00013259D01*
X00014192Y00013253D01*
X00014183Y00013248D01*
X00014173Y00013242D01*
X00014163Y00013237D01*
X00014153Y00013233D01*
X00014143Y00013228D01*
X00014133Y00013224D01*
X00014122Y00013220D01*
X00014112Y00013217D01*
X00014101Y00013214D01*
X00014091Y00013211D01*
X00014080Y00013208D01*
X00014069Y00013206D01*
X00014058Y00013204D01*
X00014047Y00013202D01*
X00014036Y00013201D01*
X00014025Y00013200D01*
X00014014Y00013199D01*
X00014003Y00013198D01*
X00013992Y00013198D01*
X00007901Y00013198D01*
X00007870Y00013200D01*
X00007840Y00013203D01*
X00007809Y00013209D01*
X00007780Y00013218D01*
X00007751Y00013228D01*
X00007723Y00013241D01*
X00007696Y00013256D01*
X00007670Y00013274D01*
X00007646Y00013293D01*
X00007623Y00013314D01*
X00007602Y00013336D01*
X00007583Y00013361D01*
X00007566Y00013386D01*
X00007550Y00013413D01*
X00007538Y00013441D01*
X00007527Y00013470D01*
X00007518Y00013500D01*
X00007512Y00013530D01*
X00007509Y00013561D01*
X00007508Y00013592D01*
X00007508Y00013779D01*
X00007509Y00013810D01*
X00007512Y00013841D01*
X00007518Y00013871D01*
X00007527Y00013901D01*
X00007538Y00013930D01*
X00007550Y00013958D01*
X00007566Y00013985D01*
X00007583Y00014010D01*
X00007602Y00014035D01*
X00007623Y00014057D01*
X00007646Y00014078D01*
X00007670Y00014098D01*
X00007696Y00014115D01*
X00007723Y00014130D01*
X00007751Y00014143D01*
X00007780Y00014153D01*
X00007809Y00014162D01*
X00007840Y00014168D01*
X00007870Y00014172D01*
X00007901Y00014173D01*
X00011000Y00014173D01*
X00011000Y00020087D01*
X00011002Y00020128D01*
X00011008Y00020168D01*
X00011019Y00020208D01*
X00011033Y00020246D01*
X00011052Y00020283D01*
X00011074Y00020317D01*
X00011100Y00020349D01*
X00011129Y00020378D01*
X00011161Y00020404D01*
X00011195Y00020427D01*
X00011232Y00020446D01*
X00011270Y00020460D01*
X00011309Y00020471D01*
X00011350Y00020478D01*
X00011391Y00020480D01*
X00011432Y00020478D01*
X00011473Y00020472D01*
X00011512Y00020462D01*
X00011551Y00020447D01*
X00011587Y00020429D01*
X00011746Y00020339D01*
X00011763Y00020329D01*
X00011781Y00020317D01*
X00011797Y00020304D01*
X00011813Y00020291D01*
X00011828Y00020277D01*
X00011843Y00020262D01*
X00011856Y00020246D01*
X00011869Y00020230D01*
X00011881Y00020213D01*
X00011892Y00020195D01*
X00011902Y00020177D01*
X00011911Y00020158D01*
X00011919Y00020139D01*
X00011926Y00020119D01*
X00011932Y00020099D01*
X00011936Y00020079D01*
X00011940Y00020059D01*
X00011943Y00020038D01*
X00011945Y00020018D01*
X00011945Y00019997D01*
X00011945Y00018135D01*
X00016753Y00018135D01*
X00016802Y00018132D01*
X00016851Y00018123D01*
X00016897Y00018108D01*
X00016942Y00018087D01*
X00016984Y00018061D01*
X00017022Y00018029D01*
X00017055Y00017994D01*
X00017084Y00017954D01*
X00017108Y00017911D01*
X00017127Y00017866D01*
X00017139Y00017818D01*
X00017146Y00017769D01*
X00017146Y00017720D01*
X00017141Y00017671D01*
X00017129Y00017624D01*
X00017111Y00017578D01*
X00017088Y00017534D01*
X00017060Y00017494D01*
X00017027Y00017458D01*
X00016989Y00017426D01*
X00016706Y00017214D01*
X00016696Y00017207D01*
X00016686Y00017199D01*
X00016675Y00017193D01*
X00016664Y00017186D01*
X00016653Y00017180D01*
X00016641Y00017175D01*
X00016630Y00017169D01*
X00016618Y00017164D01*
X00016607Y00017160D01*
X00016595Y00017156D01*
X00016583Y00017152D01*
X00016570Y00017148D01*
X00016558Y00017145D01*
X00016546Y00017143D01*
X00016533Y00017140D01*
X00016521Y00017139D01*
X00016508Y00017137D01*
X00016495Y00017136D01*
X00016483Y00017136D01*
X00016470Y00017135D01*
X00015748Y00017135D01*
X00015748Y00014449D01*
X00016202Y00007744D02*
X00016202Y00007744D01*
X00016148Y00007747D01*
X00016095Y00007758D01*
X00016045Y00007776D01*
X00015997Y00007801D01*
X00015953Y00007832D01*
X00015914Y00007869D01*
X00015880Y00007911D01*
X00015852Y00007957D01*
X00015830Y00008006D01*
X00015816Y00008058D01*
X00015809Y00008111D01*
X00015809Y00008165D01*
X00015816Y00008219D01*
X00015831Y00008270D01*
X00015853Y00008320D01*
X00015881Y00008366D01*
X00015915Y00008407D01*
X00015955Y00008444D01*
X00015999Y00008475D01*
X00016047Y00008499D01*
X00016350Y00008629D01*
X00016357Y00008632D01*
X00016365Y00008635D01*
X00016372Y00008638D01*
X00016380Y00008640D01*
X00016387Y00008643D01*
X00016395Y00008645D01*
X00016402Y00008647D01*
X00016410Y00008649D01*
X00016418Y00008651D01*
X00016426Y00008653D01*
X00016434Y00008654D01*
X00016441Y00008656D01*
X00016449Y00008657D01*
X00016457Y00008658D01*
X00016465Y00008659D01*
X00016473Y00008660D01*
X00016481Y00008660D01*
X00016489Y00008661D01*
X00016497Y00008661D01*
X00016505Y00008661D01*
X00023711Y00008661D01*
X00023751Y00008659D01*
X00023790Y00008653D01*
X00023829Y00008643D01*
X00023867Y00008629D01*
X00023902Y00008611D01*
X00023936Y00008590D01*
X00023968Y00008566D01*
X00023997Y00008538D01*
X00024023Y00008508D01*
X00024045Y00008475D01*
X00024065Y00008440D01*
X00024080Y00008404D01*
X00024092Y00008365D01*
X00024100Y00008326D01*
X00024104Y00008287D01*
X00024104Y00008247D01*
X00024100Y00008207D01*
X00024092Y00008168D01*
X00024080Y00008130D01*
X00024064Y00008093D01*
X00024000Y00007963D01*
X00023990Y00007944D01*
X00023979Y00007925D01*
X00023966Y00007907D01*
X00023953Y00007890D01*
X00023939Y00007873D01*
X00023924Y00007857D01*
X00023908Y00007842D01*
X00023891Y00007828D01*
X00023873Y00007815D01*
X00023855Y00007803D01*
X00023836Y00007792D01*
X00023817Y00007782D01*
X00023797Y00007773D01*
X00023776Y00007765D01*
X00023755Y00007759D01*
X00023734Y00007753D01*
X00023712Y00007749D01*
X00023691Y00007746D01*
X00023669Y00007744D01*
X00023647Y00007744D01*
X00016202Y00007744D01*
X00014750Y00007411D02*
X00014750Y00007411D01*
X00014751Y00007439D01*
X00014754Y00007467D01*
X00014759Y00007495D01*
X00014766Y00007522D01*
X00014775Y00007549D01*
X00014786Y00007575D01*
X00014798Y00007601D01*
X00014813Y00007625D01*
X00014829Y00007648D01*
X00014847Y00007670D01*
X00014867Y00007691D01*
X00014888Y00007710D01*
X00014910Y00007728D01*
X00014933Y00007744D01*
X00014958Y00007758D01*
X00014983Y00007770D01*
X00015009Y00007781D01*
X00015036Y00007790D01*
X00015064Y00007796D01*
X00015092Y00007801D01*
X00015383Y00007839D01*
X00015417Y00007842D01*
X00015450Y00007842D01*
X00015483Y00007840D01*
X00015516Y00007834D01*
X00015549Y00007826D01*
X00015581Y00007815D01*
X00015611Y00007801D01*
X00015640Y00007785D01*
X00015668Y00007766D01*
X00015694Y00007745D01*
X00015718Y00007722D01*
X00015741Y00007697D01*
X00015760Y00007670D01*
X00015778Y00007641D01*
X00015793Y00007611D01*
X00015806Y00007580D01*
X00015815Y00007548D01*
X00015823Y00007516D01*
X00015827Y00007482D01*
X00015828Y00007449D01*
X00015828Y00004494D01*
X00025352Y00004494D01*
X00025387Y00004492D01*
X00025422Y00004487D01*
X00025456Y00004480D01*
X00025489Y00004469D01*
X00025521Y00004456D01*
X00025552Y00004439D01*
X00025581Y00004420D01*
X00025608Y00004399D01*
X00025634Y00004375D01*
X00025657Y00004349D01*
X00025678Y00004321D01*
X00025696Y00004291D01*
X00025712Y00004260D01*
X00025725Y00004228D01*
X00025734Y00004194D01*
X00025741Y00004160D01*
X00025745Y00004125D01*
X00025746Y00004090D01*
X00025743Y00004056D01*
X00025738Y00004021D01*
X00025645Y00003565D01*
X00025639Y00003538D01*
X00025630Y00003513D01*
X00025621Y00003488D01*
X00025609Y00003463D01*
X00025596Y00003440D01*
X00025581Y00003417D01*
X00025565Y00003395D01*
X00025547Y00003375D01*
X00025528Y00003356D01*
X00025508Y00003338D01*
X00025487Y00003322D01*
X00025464Y00003307D01*
X00025441Y00003294D01*
X00025416Y00003282D01*
X00025391Y00003272D01*
X00025366Y00003264D01*
X00025339Y00003258D01*
X00025313Y00003253D01*
X00025286Y00003250D01*
X00025259Y00003249D01*
X00018897Y00003249D01*
X00018897Y00002916D01*
X00018896Y00002890D01*
X00018894Y00002865D01*
X00018890Y00002840D01*
X00018884Y00002815D01*
X00018877Y00002791D01*
X00018868Y00002767D01*
X00018857Y00002744D01*
X00018846Y00002721D01*
X00018832Y00002699D01*
X00018818Y00002679D01*
X00018802Y00002659D01*
X00018784Y00002640D01*
X00018766Y00002622D01*
X00018746Y00002606D01*
X00018726Y00002591D01*
X00018704Y00002577D01*
X00018682Y00002565D01*
X00018659Y00002554D01*
X00018635Y00002545D01*
X00018611Y00002537D01*
X00018331Y00002458D01*
X00018296Y00002449D01*
X00018260Y00002444D01*
X00018224Y00002443D01*
X00018187Y00002445D01*
X00018151Y00002450D01*
X00018116Y00002458D01*
X00018082Y00002469D01*
X00018048Y00002484D01*
X00018017Y00002502D01*
X00017987Y00002522D01*
X00017959Y00002546D01*
X00017933Y00002571D01*
X00017910Y00002599D01*
X00017889Y00002629D01*
X00017871Y00002661D01*
X00017857Y00002694D01*
X00017845Y00002729D01*
X00017837Y00002764D01*
X00017832Y00002800D01*
X00017830Y00002837D01*
X00017830Y00003862D01*
X00014470Y00003862D01*
X00014431Y00003864D01*
X00014393Y00003869D01*
X00014356Y00003878D01*
X00014320Y00003891D01*
X00014286Y00003907D01*
X00014253Y00003927D01*
X00014222Y00003949D01*
X00014193Y00003975D01*
X00014167Y00004003D01*
X00014144Y00004034D01*
X00014124Y00004066D01*
X00014108Y00004101D01*
X00014094Y00004137D01*
X00014084Y00004174D01*
X00014078Y00004211D01*
X00014076Y00004249D01*
X00014077Y00004288D01*
X00014082Y00004326D01*
X00014091Y00004363D01*
X00014103Y00004399D01*
X00014132Y00004474D01*
X00014142Y00004496D01*
X00014152Y00004517D01*
X00014164Y00004537D01*
X00014177Y00004557D01*
X00014191Y00004576D01*
X00014206Y00004594D01*
X00014223Y00004611D01*
X00014240Y00004627D01*
X00014258Y00004642D01*
X00014277Y00004655D01*
X00014297Y00004668D01*
X00014318Y00004680D01*
X00014339Y00004690D01*
X00014361Y00004699D01*
X00014383Y00004706D01*
X00014406Y00004713D01*
X00014429Y00004718D01*
X00014452Y00004721D01*
X00014475Y00004723D01*
X00014499Y00004724D01*
X00014750Y00004724D01*
X00014750Y00007411D01*
X00014348Y00009448D02*
X00014348Y00009448D01*
X00014400Y00009445D01*
X00014451Y00009434D01*
X00014501Y00009417D01*
X00014547Y00009394D01*
X00014591Y00009365D01*
X00014630Y00009330D01*
X00014663Y00009290D01*
X00014692Y00009246D01*
X00014714Y00009199D01*
X00014730Y00009149D01*
X00014739Y00009098D01*
X00014741Y00009045D01*
X00014737Y00008993D01*
X00014725Y00008942D01*
X00014707Y00008893D01*
X00014682Y00008847D01*
X00014652Y00008805D01*
X00014616Y00008766D01*
X00014576Y00008733D01*
X00014531Y00008706D01*
X00014175Y00008519D01*
X00014167Y00008515D01*
X00014158Y00008511D01*
X00014150Y00008507D01*
X00014141Y00008503D01*
X00014132Y00008500D01*
X00014123Y00008496D01*
X00014114Y00008493D01*
X00014105Y00008490D01*
X00014096Y00008488D01*
X00014087Y00008485D01*
X00014077Y00008483D01*
X00014068Y00008481D01*
X00014059Y00008480D01*
X00014049Y00008478D01*
X00014040Y00008477D01*
X00014030Y00008476D01*
X00014021Y00008475D01*
X00014011Y00008474D01*
X00014002Y00008474D01*
X00013992Y00008474D01*
X00008536Y00008474D01*
X00008505Y00008475D01*
X00008475Y00008479D01*
X00008444Y00008485D01*
X00008415Y00008493D01*
X00008386Y00008504D01*
X00008358Y00008517D01*
X00008331Y00008532D01*
X00008305Y00008549D01*
X00008281Y00008568D01*
X00008258Y00008589D01*
X00008237Y00008612D01*
X00008218Y00008636D01*
X00008201Y00008662D01*
X00008186Y00008689D01*
X00008173Y00008717D01*
X00008162Y00008746D01*
X00008154Y00008776D01*
X00008147Y00008806D01*
X00008144Y00008837D01*
X00008143Y00008868D01*
X00008143Y00009055D01*
X00008144Y00009086D01*
X00008147Y00009116D01*
X00008154Y00009147D01*
X00008162Y00009176D01*
X00008173Y00009205D01*
X00008186Y00009233D01*
X00008201Y00009260D01*
X00008218Y00009286D01*
X00008237Y00009310D01*
X00008258Y00009333D01*
X00008281Y00009354D01*
X00008305Y00009373D01*
X00008331Y00009390D01*
X00008358Y00009405D01*
X00008386Y00009418D01*
X00008415Y00009429D01*
X00008444Y00009437D01*
X00008475Y00009443D01*
X00008505Y00009447D01*
X00008536Y00009448D01*
X00014348Y00009448D01*
X00015748Y00009724D02*
X00015748Y00009724D01*
X00015746Y00009693D01*
X00015743Y00009663D01*
X00015737Y00009632D01*
X00015728Y00009603D01*
X00015718Y00009574D01*
X00015705Y00009545D01*
X00015690Y00009519D01*
X00015672Y00009493D01*
X00015653Y00009469D01*
X00015632Y00009446D01*
X00015610Y00009425D01*
X00015585Y00009406D01*
X00015560Y00009389D01*
X00015533Y00009373D01*
X00015504Y00009360D01*
X00015475Y00009350D01*
X00015446Y00009341D01*
X00015415Y00009335D01*
X00015385Y00009332D01*
X00015354Y00009331D01*
X00015143Y00009331D01*
X00015112Y00009332D01*
X00015082Y00009335D01*
X00015051Y00009341D01*
X00015022Y00009350D01*
X00014993Y00009360D01*
X00014964Y00009373D01*
X00014937Y00009389D01*
X00014912Y00009406D01*
X00014888Y00009425D01*
X00014865Y00009446D01*
X00014844Y00009469D01*
X00014825Y00009493D01*
X00014808Y00009519D01*
X00014792Y00009545D01*
X00014779Y00009574D01*
X00014769Y00009603D01*
X00014760Y00009632D01*
X00014754Y00009663D01*
X00014751Y00009693D01*
X00014750Y00009724D01*
X00014750Y00009773D01*
X00014751Y00009804D01*
X00014754Y00009834D01*
X00014760Y00009865D01*
X00014769Y00009894D01*
X00014779Y00009923D01*
X00014792Y00009952D01*
X00014808Y00009979D01*
X00014825Y00010004D01*
X00014844Y00010029D01*
X00014865Y00010051D01*
X00014888Y00010072D01*
X00014912Y00010091D01*
X00014937Y00010109D01*
X00014964Y00010124D01*
X00014993Y00010137D01*
X00015022Y00010147D01*
X00015051Y00010156D01*
X00015082Y00010162D01*
X00015112Y00010165D01*
X00015143Y00010167D01*
X00015354Y00010167D01*
X00015385Y00010165D01*
X00015415Y00010162D01*
X00015446Y00010156D01*
X00015475Y00010147D01*
X00015504Y00010137D01*
X00015533Y00010124D01*
X00015560Y00010109D01*
X00015585Y00010091D01*
X00015610Y00010072D01*
X00015632Y00010051D01*
X00015653Y00010029D01*
X00015672Y00010004D01*
X00015690Y00009979D01*
X00015705Y00009952D01*
X00015718Y00009923D01*
X00015728Y00009894D01*
X00015737Y00009865D01*
X00015743Y00009834D01*
X00015746Y00009804D01*
X00015748Y00009773D01*
X00015748Y00009724D01*
X00009043Y00003862D02*
X00009043Y00003862D01*
X00009005Y00003864D01*
X00008968Y00003869D01*
X00008931Y00003878D01*
X00008895Y00003890D01*
X00008861Y00003906D01*
X00008829Y00003925D01*
X00008798Y00003947D01*
X00008769Y00003972D01*
X00008744Y00004000D01*
X00008720Y00004030D01*
X00008700Y00004062D01*
X00008683Y00004095D01*
X00008670Y00004131D01*
X00008659Y00004167D01*
X00008653Y00004204D01*
X00008650Y00004242D01*
X00008650Y00004280D01*
X00008654Y00004317D01*
X00008662Y00004354D01*
X00008673Y00004390D01*
X00008700Y00004465D01*
X00008709Y00004487D01*
X00008720Y00004509D01*
X00008731Y00004530D01*
X00008744Y00004550D01*
X00008758Y00004570D01*
X00008773Y00004589D01*
X00008790Y00004606D01*
X00008807Y00004623D01*
X00008825Y00004638D01*
X00008845Y00004653D01*
X00008865Y00004666D01*
X00008885Y00004678D01*
X00008907Y00004688D01*
X00008929Y00004698D01*
X00008952Y00004706D01*
X00008975Y00004712D01*
X00008999Y00004717D01*
X00009022Y00004721D01*
X00009046Y00004723D01*
X00009070Y00004724D01*
X00012272Y00004724D01*
X00012295Y00004723D01*
X00012319Y00004721D01*
X00012342Y00004718D01*
X00012365Y00004713D01*
X00012388Y00004706D01*
X00012410Y00004699D01*
X00012432Y00004690D01*
X00012453Y00004680D01*
X00012474Y00004668D01*
X00012494Y00004655D01*
X00012513Y00004642D01*
X00012531Y00004627D01*
X00012548Y00004611D01*
X00012564Y00004594D01*
X00012580Y00004576D01*
X00012594Y00004557D01*
X00012607Y00004537D01*
X00012618Y00004517D01*
X00012629Y00004496D01*
X00012638Y00004474D01*
X00012668Y00004399D01*
X00012680Y00004363D01*
X00012689Y00004326D01*
X00012693Y00004288D01*
X00012695Y00004249D01*
X00012692Y00004211D01*
X00012686Y00004174D01*
X00012676Y00004137D01*
X00012663Y00004101D01*
X00012646Y00004066D01*
X00012626Y00004034D01*
X00012603Y00004003D01*
X00012577Y00003975D01*
X00012549Y00003949D01*
X00012518Y00003927D01*
X00012485Y00003907D01*
X00012450Y00003891D01*
X00012414Y00003878D01*
X00012377Y00003869D01*
X00012339Y00003864D01*
X00012301Y00003862D01*
X00009043Y00003862D01*
X00006677Y00004724D02*
X00006677Y00004724D01*
X00006701Y00004723D01*
X00006725Y00004721D01*
X00006748Y00004717D01*
X00006772Y00004712D01*
X00006795Y00004706D01*
X00006818Y00004698D01*
X00006840Y00004688D01*
X00006862Y00004678D01*
X00006882Y00004666D01*
X00006903Y00004653D01*
X00006922Y00004638D01*
X00006940Y00004623D01*
X00006958Y00004606D01*
X00006974Y00004589D01*
X00006989Y00004570D01*
X00007003Y00004550D01*
X00007016Y00004530D01*
X00007028Y00004509D01*
X00007038Y00004487D01*
X00007047Y00004465D01*
X00007074Y00004390D01*
X00007085Y00004354D01*
X00007093Y00004317D01*
X00007097Y00004280D01*
X00007097Y00004242D01*
X00007094Y00004204D01*
X00007088Y00004167D01*
X00007077Y00004131D01*
X00007064Y00004095D01*
X00007047Y00004062D01*
X00007027Y00004030D01*
X00007003Y00004000D01*
X00006978Y00003972D01*
X00006949Y00003947D01*
X00006918Y00003925D01*
X00006886Y00003906D01*
X00006852Y00003890D01*
X00006816Y00003878D01*
X00006779Y00003869D01*
X00006742Y00003864D01*
X00006704Y00003862D01*
X-00000169Y00003862D01*
X-00000169Y00000112D01*
X00017830Y00000112D01*
X00017830Y00000641D01*
X00017832Y00000677D01*
X00017837Y00000713D01*
X00017845Y00000749D01*
X00017857Y00000783D01*
X00017871Y00000816D01*
X00017889Y00000848D01*
X00017910Y00000878D01*
X00017933Y00000906D01*
X00017959Y00000932D01*
X00017987Y00000955D01*
X00018017Y00000976D01*
X00018048Y00000993D01*
X00018082Y00001008D01*
X00018116Y00001020D01*
X00018151Y00001028D01*
X00018187Y00001033D01*
X00018224Y00001035D01*
X00018260Y00001033D01*
X00018296Y00001028D01*
X00018331Y00001020D01*
X00018611Y00000940D01*
X00018635Y00000933D01*
X00018659Y00000923D01*
X00018682Y00000912D01*
X00018704Y00000900D01*
X00018726Y00000886D01*
X00018746Y00000871D01*
X00018766Y00000855D01*
X00018784Y00000837D01*
X00018802Y00000819D01*
X00018818Y00000799D01*
X00018832Y00000778D01*
X00018846Y00000756D01*
X00018857Y00000734D01*
X00018868Y00000711D01*
X00018877Y00000687D01*
X00018884Y00000662D01*
X00018890Y00000637D01*
X00018894Y00000612D01*
X00018896Y00000587D01*
X00018897Y00000562D01*
X00018897Y00000562D01*
X00018897Y00000000D01*
X00033897Y00000000D01*
X00033897Y00002753D01*
X00033897Y00002759D01*
X00033897Y00002764D01*
X00033897Y00002769D01*
X00033898Y00002774D01*
X00033898Y00002779D01*
X00033898Y00002784D01*
X00033899Y00002789D01*
X00033899Y00002794D01*
X00033900Y00002799D01*
X00033900Y00002804D01*
X00033901Y00002810D01*
X00033902Y00002815D01*
X00033903Y00002820D01*
X00033904Y00002825D01*
X00033905Y00002830D01*
X00033906Y00002835D01*
X00033907Y00002840D01*
X00033908Y00002845D01*
X00033909Y00002850D01*
X00033910Y00002855D01*
X00034248Y00004124D01*
X00034256Y00004149D01*
X00034265Y00004173D01*
X00034275Y00004197D01*
X00034288Y00004220D01*
X00034301Y00004241D01*
X00034316Y00004262D01*
X00034332Y00004282D01*
X00034350Y00004301D01*
X00034369Y00004319D01*
X00034389Y00004335D01*
X00034410Y00004350D01*
X00034432Y00004364D01*
X00034454Y00004376D01*
X00034478Y00004387D01*
X00034502Y00004396D01*
X00034527Y00004403D01*
X00034552Y00004409D01*
X00034577Y00004413D01*
X00034603Y00004416D01*
X00034629Y00004417D01*
X00034896Y00004417D01*
X00034896Y00004459D01*
X00034897Y00004490D01*
X00034900Y00004521D01*
X00034906Y00004551D01*
X00034915Y00004581D01*
X00034926Y00004610D01*
X00034938Y00004638D01*
X00034954Y00004665D01*
X00034971Y00004691D01*
X00034990Y00004715D01*
X00035011Y00004738D01*
X00035034Y00004759D01*
X00035058Y00004778D01*
X00035084Y00004795D01*
X00035111Y00004810D01*
X00035139Y00004823D01*
X00035168Y00004834D01*
X00035197Y00004842D01*
X00035228Y00004848D01*
X00035258Y00004852D01*
X00035289Y00004853D01*
X00035576Y00004853D01*
X00035607Y00004852D01*
X00035637Y00004848D01*
X00035668Y00004842D01*
X00035698Y00004834D01*
X00035727Y00004823D01*
X00035755Y00004810D01*
X00035782Y00004795D01*
X00035807Y00004778D01*
X00035832Y00004759D01*
X00035854Y00004738D01*
X00035875Y00004715D01*
X00035894Y00004691D01*
X00035912Y00004665D01*
X00035927Y00004638D01*
X00035940Y00004610D01*
X00035950Y00004581D01*
X00035959Y00004551D01*
X00035965Y00004521D01*
X00035968Y00004490D01*
X00035970Y00004459D01*
X00035970Y00000000D01*
X00039370Y00000000D01*
X00039370Y00007000D01*
X00038195Y00007000D01*
X00038142Y00007003D01*
X00038089Y00007014D01*
X00038039Y00007032D01*
X00037991Y00007057D01*
X00037947Y00007088D01*
X00037908Y00007124D01*
X00037874Y00007166D01*
X00037846Y00007212D01*
X00037825Y00007261D01*
X00037810Y00007313D01*
X00037803Y00007366D01*
X00037803Y00007420D01*
X00037810Y00007473D01*
X00037824Y00007525D01*
X00037846Y00007574D01*
X00037874Y00007620D01*
X00037907Y00007662D01*
X00037947Y00007698D01*
X00037991Y00007729D01*
X00038038Y00007754D01*
X00038422Y00007921D01*
X00038430Y00007925D01*
X00038437Y00007928D01*
X00038445Y00007930D01*
X00038452Y00007933D01*
X00038460Y00007936D01*
X00038468Y00007938D01*
X00038475Y00007940D01*
X00038483Y00007942D01*
X00038491Y00007944D01*
X00038499Y00007946D01*
X00038507Y00007948D01*
X00038515Y00007949D01*
X00038523Y00007950D01*
X00038531Y00007951D01*
X00038539Y00007952D01*
X00038547Y00007953D01*
X00038555Y00007953D01*
X00038563Y00007954D01*
X00038571Y00007954D01*
X00038579Y00007954D01*
X00039206Y00007954D01*
X00039206Y00022628D01*
X00039222Y00022740D01*
X00039270Y00022843D01*
X00039344Y00022928D01*
X00039440Y00022988D01*
X00039549Y00023019D01*
X00039662Y00023017D01*
X00039770Y00022984D01*
X00039864Y00022921D01*
X00039936Y00022834D01*
X00039980Y00022730D01*
X00039993Y00022617D01*
X00039974Y00022506D01*
X00039924Y00022405D01*
X00039847Y00022322D01*
X00039749Y00022264D01*
X00039640Y00022237D01*
X00039527Y00022242D01*
X00039420Y00022278D01*
X00039328Y00022344D01*
X00039258Y00022433D01*
X00038641Y00023513D01*
X00038623Y00023550D01*
X00038608Y00023588D01*
X00038597Y00023628D01*
X00038591Y00023668D01*
X00038589Y00023709D01*
X00038591Y00023751D01*
X00038598Y00023791D01*
X00038609Y00023831D01*
X00038624Y00023869D01*
X00038642Y00023906D01*
X00038665Y00023940D01*
X00038691Y00023972D01*
X00038720Y00024001D01*
X00038752Y00024027D01*
X00038786Y00024049D01*
X00038823Y00024068D01*
X00038861Y00024083D01*
X00038901Y00024093D01*
X00038942Y00024100D01*
X00038983Y00024102D01*
X00039226Y00024102D01*
X00039226Y00031102D01*
X00038675Y00031102D01*
X00038644Y00031103D01*
X00038613Y00031107D01*
X00038582Y00031113D01*
X00038552Y00031122D01*
X00038523Y00031133D01*
X00038494Y00031146D01*
X00038467Y00031161D01*
X00038441Y00031179D01*
X00038417Y00031199D01*
X00038394Y00031220D01*
X00038373Y00031243D01*
X00038354Y00031268D01*
X00038337Y00031294D01*
X00038322Y00031322D01*
X00038309Y00031350D01*
X00038299Y00031380D01*
X00038291Y00031410D01*
X00038285Y00031441D01*
X00038282Y00031472D01*
X00038281Y00031504D01*
X00038297Y00032273D01*
X00038299Y00032304D01*
X00038303Y00032334D01*
X00038309Y00032364D01*
X00038318Y00032393D01*
X00038329Y00032421D01*
X00038342Y00032449D01*
X00038358Y00032475D01*
X00038375Y00032500D01*
X00038394Y00032524D01*
X00038415Y00032546D01*
X00038438Y00032567D01*
X00038462Y00032586D01*
X00038487Y00032602D01*
X00038514Y00032617D01*
X00038542Y00032630D01*
X00038570Y00032640D01*
X00038600Y00032648D01*
X00038630Y00032654D01*
X00038660Y00032658D01*
X00038691Y00032659D01*
X00039151Y00032659D01*
X00039151Y00039409D01*
X00031401Y00039409D01*
X00031401Y00036485D01*
X00031399Y00036445D01*
X00031393Y00036406D01*
X00031383Y00036367D01*
X00031369Y00036330D01*
X00031352Y00036294D01*
X00031331Y00036260D01*
X00031307Y00036229D01*
X00031279Y00036200D01*
X00031249Y00036174D01*
X00031217Y00036151D01*
X00031182Y00036132D01*
X00031145Y00036116D01*
X00031108Y00036104D01*
X00031069Y00036096D01*
X00031029Y00036092D01*
X00030989Y00036091D01*
X00030950Y00036095D01*
X00030911Y00036103D01*
X00030873Y00036115D01*
X00030836Y00036130D01*
X00030537Y00036275D01*
X00030517Y00036285D01*
X00030498Y00036296D01*
X00030480Y00036308D01*
X00030462Y00036322D01*
X00030446Y00036336D01*
X00030430Y00036351D01*
X00030414Y00036367D01*
X00030400Y00036384D01*
X00030387Y00036402D01*
X00030375Y00036420D01*
X00030363Y00036439D01*
X00030353Y00036459D01*
X00030344Y00036479D01*
X00030337Y00036499D01*
X00030330Y00036520D01*
X00030324Y00036542D01*
X00030320Y00036563D01*
X00030317Y00036585D01*
X00030315Y00036607D01*
X00030314Y00036629D01*
X00030314Y00036646D01*
X00026114Y00036646D01*
X00026114Y00034457D01*
X00026113Y00034426D01*
X00026110Y00034395D01*
X00026104Y00034365D01*
X00026095Y00034335D01*
X00026084Y00034306D01*
X00026072Y00034278D01*
X00026056Y00034251D01*
X00026039Y00034225D01*
X00026020Y00034201D01*
X00025999Y00034178D01*
X00025976Y00034157D01*
X00025952Y00034138D01*
X00025926Y00034121D01*
X00025899Y00034106D01*
X00025871Y00034093D01*
X00025842Y00034082D01*
X00025813Y00034074D01*
X00025782Y00034068D01*
X00025752Y00034064D01*
X00025721Y00034063D01*
X00025590Y00034063D01*
X00025559Y00034064D01*
X00025528Y00034068D01*
X00025498Y00034074D01*
X00025468Y00034082D01*
X00025439Y00034093D01*
X00025411Y00034106D01*
X00025384Y00034121D01*
X00025359Y00034138D01*
X00025334Y00034157D01*
X00025312Y00034178D01*
X00025291Y00034201D01*
X00025272Y00034225D01*
X00025254Y00034251D01*
X00025239Y00034278D01*
X00025226Y00034306D01*
X00025216Y00034335D01*
X00025207Y00034365D01*
X00025201Y00034395D01*
X00025198Y00034426D01*
X00025196Y00034457D01*
X00025196Y00038221D01*
X00020996Y00038221D01*
X00020996Y00035244D01*
X00020995Y00035213D01*
X00020992Y00035182D01*
X00020985Y00035152D01*
X00020977Y00035122D01*
X00020966Y00035093D01*
X00020953Y00035065D01*
X00020938Y00035038D01*
X00020921Y00035013D01*
X00020902Y00034988D01*
X00020881Y00034966D01*
X00020858Y00034945D01*
X00020834Y00034925D01*
X00020808Y00034908D01*
X00020781Y00034893D01*
X00020753Y00034880D01*
X00020724Y00034870D01*
X00020695Y00034861D01*
X00020664Y00034855D01*
X00020634Y00034852D01*
X00020603Y00034850D01*
X00020472Y00034850D01*
X00020441Y00034852D01*
X00020410Y00034855D01*
X00020380Y00034861D01*
X00020350Y00034870D01*
X00020321Y00034880D01*
X00020293Y00034893D01*
X00020266Y00034908D01*
X00020241Y00034925D01*
X00020216Y00034945D01*
X00020194Y00034966D01*
X00020173Y00034988D01*
X00020153Y00035013D01*
X00020136Y00035038D01*
X00020121Y00035065D01*
X00020108Y00035093D01*
X00020098Y00035122D01*
X00020089Y00035152D01*
X00020083Y00035182D01*
X00020079Y00035213D01*
X00020078Y00035244D01*
X00020078Y00038221D01*
X00015878Y00038221D01*
X00015878Y00038181D01*
X00015878Y00038178D01*
X00015878Y00038175D01*
X00015878Y00038171D01*
X00015878Y00038168D01*
X00015878Y00038165D01*
X00015878Y00038162D01*
X00015878Y00038158D01*
X00015877Y00038155D01*
X00015877Y00038152D01*
X00015877Y00038149D01*
X00015877Y00038146D01*
X00015876Y00038142D01*
X00015876Y00038139D01*
X00015876Y00038136D01*
X00015875Y00038133D01*
X00015875Y00038129D01*
X00015874Y00038126D01*
X00015874Y00038123D01*
X00015873Y00038120D01*
X00015873Y00038117D01*
X00015837Y00037899D01*
X00015823Y00037842D01*
X00015801Y00037788D01*
X00015771Y00037738D01*
X00015734Y00037693D01*
X00015690Y00037653D01*
X00015641Y00037621D01*
X00015588Y00037596D01*
X00015532Y00037579D01*
X00015474Y00037571D01*
X00015416Y00037572D01*
X00015358Y00037581D01*
X00015302Y00037598D01*
X00015250Y00037624D01*
X00015201Y00037657D01*
X00015159Y00037697D01*
X00015122Y00037743D01*
X00015093Y00037794D01*
X00015072Y00037848D01*
X00015059Y00037905D01*
X00015055Y00037964D01*
X00015055Y00039283D01*
X00009055Y00039283D01*
X00009055Y00037655D01*
X00009053Y00037620D01*
X00009048Y00037586D01*
X00009041Y00037551D01*
X00009030Y00037518D01*
X00009016Y00037486D01*
X00009000Y00037455D01*
X00008981Y00037426D01*
X00008959Y00037398D01*
X00008935Y00037373D01*
X00008909Y00037349D01*
X00008881Y00037329D01*
X00008851Y00037310D01*
X00008819Y00037295D01*
X00008787Y00037282D01*
X00008753Y00037273D01*
X00008719Y00037266D01*
X00008684Y00037262D01*
X00008649Y00037262D01*
X00008614Y00037264D01*
X00008579Y00037270D01*
X00007312Y00037539D01*
X00007286Y00037545D01*
X00007260Y00037553D01*
X00007235Y00037563D01*
X00007211Y00037575D01*
X00007188Y00037588D01*
X00007165Y00037603D01*
X00007144Y00037619D01*
X00007124Y00037637D01*
X00007105Y00037656D01*
X00007087Y00037676D01*
X00007071Y00037697D01*
X00007057Y00037720D01*
X00007043Y00037743D01*
X00007032Y00037767D01*
X00007022Y00037792D01*
X00007014Y00037818D01*
X00007008Y00037844D01*
X00007003Y00037870D01*
X00007000Y00037897D01*
X00007000Y00037924D01*
X00007000Y00038045D01*
X00000000Y00038045D01*
X00000000Y00034645D01*
X00001574Y00034645D01*
X00001612Y00034643D01*
X00001649Y00034638D01*
X00001685Y00034629D01*
X00001720Y00034617D01*
X00001754Y00034602D01*
X00001787Y00034583D01*
X00001817Y00034561D01*
X00001846Y00034537D01*
X00001871Y00034510D01*
X00001895Y00034480D01*
X00001915Y00034449D01*
X00001932Y00034416D01*
X00001946Y00034381D01*
X00001957Y00034345D01*
X00001964Y00034308D01*
X00001968Y00034271D01*
X00001968Y00034234D01*
X00001964Y00034196D01*
X00001957Y00034160D01*
X00001947Y00034124D01*
X00001628Y00033193D01*
X00001619Y00033170D01*
X00001609Y00033148D01*
X00001598Y00033126D01*
X00001585Y00033106D01*
X00001571Y00033086D01*
X00001556Y00033066D01*
X00001539Y00033048D01*
X00001522Y00033031D01*
X00001504Y00033015D01*
X00001484Y00033000D01*
X00001464Y00032987D01*
X00001443Y00032975D01*
X00001421Y00032964D01*
X00001398Y00032954D01*
X00001375Y00032946D01*
X00001352Y00032939D01*
X00001328Y00032934D01*
X00001304Y00032930D01*
X00001280Y00032928D01*
X00001255Y00032927D01*
X00000000Y00032927D01*
X00000000Y00029527D01*
X00003360Y00029527D01*
X00003388Y00029526D01*
X00003417Y00029523D01*
X00003444Y00029518D01*
X00003472Y00029511D01*
X00003499Y00029502D01*
X00003525Y00029491D01*
X00003550Y00029478D01*
X00003574Y00029464D01*
X00003598Y00029447D01*
X00003619Y00029430D01*
X00003640Y00029410D01*
X00003659Y00029389D01*
X00003677Y00029367D01*
X00003693Y00029344D01*
X00003707Y00029319D01*
X00003720Y00029294D01*
X00003730Y00029268D01*
X00003739Y00029241D01*
X00003746Y00029213D01*
X00003750Y00029185D01*
X00003880Y00028206D01*
X00003883Y00028173D01*
X00003884Y00028140D01*
X00003881Y00028106D01*
X00003875Y00028073D01*
X00003867Y00028041D01*
X00003856Y00028009D01*
X00003842Y00027978D01*
X00003826Y00027949D01*
X00003807Y00027921D01*
X00003786Y00027895D01*
X00003763Y00027871D01*
X00003738Y00027849D01*
X00003711Y00027829D01*
X00003683Y00027811D01*
X00003653Y00027796D01*
X00003622Y00027784D01*
X00003590Y00027774D01*
X00003557Y00027767D01*
X00003524Y00027762D01*
X00003490Y00027761D01*
X00002560Y00027761D01*
X00002560Y00023561D01*
X00004876Y00023561D01*
X00004915Y00023559D01*
X00004954Y00023553D01*
X00004992Y00023543D01*
X00005029Y00023530D01*
X00005065Y00023513D01*
X00005098Y00023492D01*
X00005130Y00023468D01*
X00005159Y00023441D01*
X00005185Y00023412D01*
X00005208Y00023379D01*
X00005227Y00023345D01*
X00005243Y00023309D01*
X00005255Y00023272D01*
X00005264Y00023233D01*
X00005269Y00023194D01*
X00005269Y00023155D01*
X00005266Y00023116D01*
X00005259Y00023077D01*
X00005248Y00023039D01*
X00005233Y00023002D01*
X00005072Y00022652D01*
X00005062Y00022632D01*
X00005051Y00022612D01*
X00005039Y00022593D01*
X00005025Y00022575D01*
X00005011Y00022558D01*
X00004996Y00022541D01*
X00004980Y00022526D01*
X00004963Y00022511D01*
X00004945Y00022497D01*
X00004927Y00022485D01*
X00004907Y00022473D01*
X00004887Y00022463D01*
X00004867Y00022454D01*
X00004846Y00022445D01*
X00004825Y00022439D01*
X00004803Y00022433D01*
X00004781Y00022428D01*
X00004759Y00022425D01*
X00004737Y00022423D01*
X00004714Y00022423D01*
X00000000Y00022423D01*
X00000000Y00014173D01*
X00005578Y00014173D01*
X00005609Y00014172D01*
X00005639Y00014168D01*
X00005670Y00014162D01*
X00005699Y00014153D01*
X00005728Y00014143D01*
X00005756Y00014130D01*
X00005783Y00014115D01*
X00005809Y00014098D01*
X00005833Y00014078D01*
X00005856Y00014057D01*
X00005877Y00014035D01*
X00005896Y00014010D01*
X00005913Y00013985D01*
X00005928Y00013958D01*
X00005941Y00013930D01*
X00005952Y00013901D01*
X00005960Y00013871D01*
X00005966Y00013841D01*
X00005970Y00013810D01*
X00005971Y00013779D01*
X00005971Y00013592D01*
X00005970Y00013561D01*
X00005966Y00013530D01*
X00005960Y00013500D01*
X00005952Y00013470D01*
X00005941Y00013441D01*
X00005928Y00013413D01*
X00005913Y00013386D01*
X00005896Y00013361D01*
X00005877Y00013336D01*
X00005856Y00013314D01*
X00005833Y00013293D01*
X00005809Y00013274D01*
X00005783Y00013256D01*
X00005756Y00013241D01*
X00005728Y00013228D01*
X00005699Y00013218D01*
X00005670Y00013209D01*
X00005639Y00013203D01*
X00005609Y00013200D01*
X00005578Y00013198D01*
X00000000Y00013198D01*
X00000000Y00009448D01*
X00006213Y00009448D01*
X00006244Y00009447D01*
X00006274Y00009443D01*
X00006305Y00009437D01*
X00006334Y00009429D01*
X00006363Y00009418D01*
X00006391Y00009405D01*
X00006418Y00009390D01*
X00006444Y00009373D01*
X00006468Y00009354D01*
X00006491Y00009333D01*
X00006512Y00009310D01*
X00006531Y00009286D01*
X00006548Y00009260D01*
X00006563Y00009233D01*
X00006576Y00009205D01*
X00006587Y00009176D01*
X00006595Y00009147D01*
X00006602Y00009116D01*
X00006605Y00009086D01*
X00006606Y00009055D01*
X00006606Y00008868D01*
X00006605Y00008837D01*
X00006602Y00008806D01*
X00006595Y00008776D01*
X00006587Y00008746D01*
X00006576Y00008717D01*
X00006563Y00008689D01*
X00006548Y00008662D01*
X00006531Y00008636D01*
X00006512Y00008612D01*
X00006491Y00008589D01*
X00006468Y00008568D01*
X00006444Y00008549D01*
X00006418Y00008532D01*
X00006391Y00008517D01*
X00006363Y00008504D01*
X00006334Y00008493D01*
X00006305Y00008485D01*
X00006274Y00008479D01*
X00006244Y00008475D01*
X00006213Y00008474D01*
X00000000Y00008474D01*
X00000000Y00004724D01*
X00006677Y00004724D01*
M02*