G04 #@! TF.GenerationSoftware,KiCad,Pcbnew,5.0.1*
G04 #@! TF.CreationDate,2018-12-16T16:06:11+01:00*
G04 #@! TF.ProjectId,868MHz,3836384D487A2E6B696361645F706362,rev?*
G04 #@! TF.SameCoordinates,PX57b03e0PY63ebd58*
G04 #@! TF.FileFunction,Soldermask,Top*
G04 #@! TF.FilePolarity,Negative*
%FSLAX46Y46*%
G04 Gerber Fmt 4.6, Leading zero omitted, Abs format (unit mm)*
G04 Created by KiCad (PCBNEW 5.0.1) date So 16 Dez 2018 16:06:11 CET*
%MOMM*%
%LPD*%
G01*
G04 APERTURE LIST*
%ADD10C,0.100000*%
G04 APERTURE END LIST*
D10*
G36*
X15787000Y1600000D02*
X11621000Y1600000D01*
X11621000Y3226000D01*
X15787000Y3226000D01*
X15787000Y1600000D01*
X15787000Y1600000D01*
G37*
G36*
X4242000Y1727000D02*
X76000Y1727000D01*
X76000Y3353000D01*
X4242000Y3353000D01*
X4242000Y1727000D01*
X4242000Y1727000D01*
G37*
G36*
X7758000Y5802000D02*
X7100000Y5802000D01*
X7075614Y5799598D01*
X7052165Y5792485D01*
X7030554Y5780934D01*
X7011612Y5765388D01*
X6996066Y5746446D01*
X6984515Y5724835D01*
X6977402Y5701386D01*
X6975000Y5677000D01*
X6975000Y3402000D01*
X5919000Y3402000D01*
X5919000Y5677000D01*
X5916598Y5701386D01*
X5909485Y5724835D01*
X5902000Y5738839D01*
X5902000Y6758000D01*
X7758000Y6758000D01*
X7758000Y5802000D01*
X7758000Y5802000D01*
G37*
G36*
X9575000Y3402000D02*
X8519000Y3402000D01*
X8519000Y6758000D01*
X9575000Y6758000D01*
X9575000Y3402000D01*
X9575000Y3402000D01*
G37*
G36*
X15787000Y4140000D02*
X11621000Y4140000D01*
X11621000Y5766000D01*
X15787000Y5766000D01*
X15787000Y4140000D01*
X15787000Y4140000D01*
G37*
G36*
X4242000Y4267000D02*
X76000Y4267000D01*
X76000Y5893000D01*
X4242000Y5893000D01*
X4242000Y4267000D01*
X4242000Y4267000D01*
G37*
G36*
X15787000Y6680000D02*
X11621000Y6680000D01*
X11621000Y8306000D01*
X15787000Y8306000D01*
X15787000Y6680000D01*
X15787000Y6680000D01*
G37*
G36*
X4242000Y6807000D02*
X76000Y6807000D01*
X76000Y8433000D01*
X4242000Y8433000D01*
X4242000Y6807000D01*
X4242000Y6807000D01*
G37*
M02*
