G04 #@! TF.GenerationSoftware,KiCad,Pcbnew,5.0.1*
G04 #@! TF.CreationDate,2018-12-16T16:06:11+01:00*
G04 #@! TF.ProjectId,868MHz,3836384D487A2E6B696361645F706362,rev?*
G04 #@! TF.SameCoordinates,PX57b03e0PY63ebd58*
G04 #@! TF.FileFunction,Copper,L2,Bot,Signal*
G04 #@! TF.FilePolarity,Positive*
%FSLAX46Y46*%
G04 Gerber Fmt 4.6, Leading zero omitted, Abs format (unit mm)*
G04 Created by KiCad (PCBNEW 5.0.1) date So 16 Dez 2018 16:06:11 CET*
%MOMM*%
%LPD*%
G01*
G04 APERTURE LIST*
G04 #@! TA.AperFunction,SMDPad,CuDef*
%ADD10R,4.064000X1.524000*%
G04 #@! TD*
G04 #@! TA.AperFunction,ViaPad*
%ADD11C,0.609600*%
G04 #@! TD*
G04 #@! TA.AperFunction,Conductor*
%ADD12C,0.203200*%
G04 #@! TD*
G04 #@! TA.AperFunction,Conductor*
%ADD13C,0.254000*%
G04 #@! TD*
G04 APERTURE END LIST*
D10*
G04 #@! TO.P,J1,2*
G04 #@! TO.N,GND*
X2159000Y7620000D03*
X2159000Y2540000D03*
G04 #@! TD*
G04 #@! TO.P,J2,2*
G04 #@! TO.N,GND*
X13704000Y2413000D03*
X13704000Y7493000D03*
G04 #@! TD*
D11*
G04 #@! TO.N,GND*
X5842000Y1905000D03*
X7112000Y1905000D03*
X8382000Y1905000D03*
X9652000Y1905000D03*
X9652000Y7620000D03*
X8382000Y7620000D03*
X7112000Y7620000D03*
X5842000Y7620000D03*
G04 #@! TD*
D12*
G04 #@! TO.N,GND*
X5842000Y1905000D02*
X7112000Y1905000D01*
X8382000Y1905000D02*
X9652000Y1905000D01*
X9652000Y7620000D02*
X8382000Y7620000D01*
X7112000Y7620000D02*
X5842000Y7620000D01*
G04 #@! TD*
D13*
G04 #@! TO.N,GND*
G36*
X11312302Y8793327D02*
X11133673Y8614699D01*
X11037000Y8381310D01*
X11037000Y7778750D01*
X11195750Y7620000D01*
X13577000Y7620000D01*
X13577000Y7640000D01*
X13831000Y7640000D01*
X13831000Y7620000D01*
X13851000Y7620000D01*
X13851000Y7366000D01*
X13831000Y7366000D01*
X13831000Y6254750D01*
X13989750Y6096000D01*
X15240000Y6096000D01*
X15240000Y3810000D01*
X13989750Y3810000D01*
X13831000Y3651250D01*
X13831000Y2540000D01*
X13851000Y2540000D01*
X13851000Y2286000D01*
X13831000Y2286000D01*
X13831000Y1174750D01*
X13989750Y1016000D01*
X15240000Y1016000D01*
X15240000Y710000D01*
X710000Y710000D01*
X710000Y1143000D01*
X1873250Y1143000D01*
X2032000Y1301750D01*
X2032000Y2413000D01*
X2286000Y2413000D01*
X2286000Y1301750D01*
X2444750Y1143000D01*
X4317309Y1143000D01*
X4550698Y1239673D01*
X4729327Y1418301D01*
X4826000Y1651690D01*
X4826000Y2127250D01*
X11037000Y2127250D01*
X11037000Y1524690D01*
X11133673Y1291301D01*
X11312302Y1112673D01*
X11545691Y1016000D01*
X13418250Y1016000D01*
X13577000Y1174750D01*
X13577000Y2286000D01*
X11195750Y2286000D01*
X11037000Y2127250D01*
X4826000Y2127250D01*
X4826000Y2254250D01*
X4667250Y2413000D01*
X2286000Y2413000D01*
X2032000Y2413000D01*
X2012000Y2413000D01*
X2012000Y2667000D01*
X2032000Y2667000D01*
X2032000Y3778250D01*
X2286000Y3778250D01*
X2286000Y2667000D01*
X4667250Y2667000D01*
X4826000Y2825750D01*
X4826000Y3301310D01*
X11037000Y3301310D01*
X11037000Y2698750D01*
X11195750Y2540000D01*
X13577000Y2540000D01*
X13577000Y3651250D01*
X13418250Y3810000D01*
X11545691Y3810000D01*
X11312302Y3713327D01*
X11133673Y3534699D01*
X11037000Y3301310D01*
X4826000Y3301310D01*
X4826000Y3428310D01*
X4729327Y3661699D01*
X4550698Y3840327D01*
X4317309Y3937000D01*
X2444750Y3937000D01*
X2286000Y3778250D01*
X2032000Y3778250D01*
X1873250Y3937000D01*
X710000Y3937000D01*
X710000Y6223000D01*
X1873250Y6223000D01*
X2032000Y6381750D01*
X2032000Y7493000D01*
X2286000Y7493000D01*
X2286000Y6381750D01*
X2444750Y6223000D01*
X4317309Y6223000D01*
X4550698Y6319673D01*
X4729327Y6498301D01*
X4826000Y6731690D01*
X4826000Y7207250D01*
X11037000Y7207250D01*
X11037000Y6604690D01*
X11133673Y6371301D01*
X11312302Y6192673D01*
X11545691Y6096000D01*
X13418250Y6096000D01*
X13577000Y6254750D01*
X13577000Y7366000D01*
X11195750Y7366000D01*
X11037000Y7207250D01*
X4826000Y7207250D01*
X4826000Y7334250D01*
X4667250Y7493000D01*
X2286000Y7493000D01*
X2032000Y7493000D01*
X2012000Y7493000D01*
X2012000Y7747000D01*
X2032000Y7747000D01*
X2032000Y7767000D01*
X2286000Y7767000D01*
X2286000Y7747000D01*
X4667250Y7747000D01*
X4826000Y7905750D01*
X4826000Y8508310D01*
X4729327Y8741699D01*
X4656026Y8815000D01*
X11364625Y8815000D01*
X11312302Y8793327D01*
X11312302Y8793327D01*
G37*
X11312302Y8793327D02*
X11133673Y8614699D01*
X11037000Y8381310D01*
X11037000Y7778750D01*
X11195750Y7620000D01*
X13577000Y7620000D01*
X13577000Y7640000D01*
X13831000Y7640000D01*
X13831000Y7620000D01*
X13851000Y7620000D01*
X13851000Y7366000D01*
X13831000Y7366000D01*
X13831000Y6254750D01*
X13989750Y6096000D01*
X15240000Y6096000D01*
X15240000Y3810000D01*
X13989750Y3810000D01*
X13831000Y3651250D01*
X13831000Y2540000D01*
X13851000Y2540000D01*
X13851000Y2286000D01*
X13831000Y2286000D01*
X13831000Y1174750D01*
X13989750Y1016000D01*
X15240000Y1016000D01*
X15240000Y710000D01*
X710000Y710000D01*
X710000Y1143000D01*
X1873250Y1143000D01*
X2032000Y1301750D01*
X2032000Y2413000D01*
X2286000Y2413000D01*
X2286000Y1301750D01*
X2444750Y1143000D01*
X4317309Y1143000D01*
X4550698Y1239673D01*
X4729327Y1418301D01*
X4826000Y1651690D01*
X4826000Y2127250D01*
X11037000Y2127250D01*
X11037000Y1524690D01*
X11133673Y1291301D01*
X11312302Y1112673D01*
X11545691Y1016000D01*
X13418250Y1016000D01*
X13577000Y1174750D01*
X13577000Y2286000D01*
X11195750Y2286000D01*
X11037000Y2127250D01*
X4826000Y2127250D01*
X4826000Y2254250D01*
X4667250Y2413000D01*
X2286000Y2413000D01*
X2032000Y2413000D01*
X2012000Y2413000D01*
X2012000Y2667000D01*
X2032000Y2667000D01*
X2032000Y3778250D01*
X2286000Y3778250D01*
X2286000Y2667000D01*
X4667250Y2667000D01*
X4826000Y2825750D01*
X4826000Y3301310D01*
X11037000Y3301310D01*
X11037000Y2698750D01*
X11195750Y2540000D01*
X13577000Y2540000D01*
X13577000Y3651250D01*
X13418250Y3810000D01*
X11545691Y3810000D01*
X11312302Y3713327D01*
X11133673Y3534699D01*
X11037000Y3301310D01*
X4826000Y3301310D01*
X4826000Y3428310D01*
X4729327Y3661699D01*
X4550698Y3840327D01*
X4317309Y3937000D01*
X2444750Y3937000D01*
X2286000Y3778250D01*
X2032000Y3778250D01*
X1873250Y3937000D01*
X710000Y3937000D01*
X710000Y6223000D01*
X1873250Y6223000D01*
X2032000Y6381750D01*
X2032000Y7493000D01*
X2286000Y7493000D01*
X2286000Y6381750D01*
X2444750Y6223000D01*
X4317309Y6223000D01*
X4550698Y6319673D01*
X4729327Y6498301D01*
X4826000Y6731690D01*
X4826000Y7207250D01*
X11037000Y7207250D01*
X11037000Y6604690D01*
X11133673Y6371301D01*
X11312302Y6192673D01*
X11545691Y6096000D01*
X13418250Y6096000D01*
X13577000Y6254750D01*
X13577000Y7366000D01*
X11195750Y7366000D01*
X11037000Y7207250D01*
X4826000Y7207250D01*
X4826000Y7334250D01*
X4667250Y7493000D01*
X2286000Y7493000D01*
X2032000Y7493000D01*
X2012000Y7493000D01*
X2012000Y7747000D01*
X2032000Y7747000D01*
X2032000Y7767000D01*
X2286000Y7767000D01*
X2286000Y7747000D01*
X4667250Y7747000D01*
X4826000Y7905750D01*
X4826000Y8508310D01*
X4729327Y8741699D01*
X4656026Y8815000D01*
X11364625Y8815000D01*
X11312302Y8793327D01*
G04 #@! TD*
M02*
