G04 #@! TF.GenerationSoftware,KiCad,Pcbnew,5.0.1*
G04 #@! TF.CreationDate,2018-12-16T16:06:11+01:00*
G04 #@! TF.ProjectId,868MHz,3836384D487A2E6B696361645F706362,rev?*
G04 #@! TF.SameCoordinates,PX57b03e0PY63ebd58*
G04 #@! TF.FileFunction,Legend,Top*
G04 #@! TF.FilePolarity,Positive*
%FSLAX46Y46*%
G04 Gerber Fmt 4.6, Leading zero omitted, Abs format (unit mm)*
G04 Created by KiCad (PCBNEW 5.0.1) date So 16 Dez 2018 16:06:11 CET*
%MOMM*%
%LPD*%
G01*
G04 APERTURE LIST*
%ADD10C,0.127000*%
%ADD11C,0.200000*%
%ADD12C,0.050000*%
%ADD13C,0.150000*%
G04 APERTURE END LIST*
D10*
G04 #@! TO.C,FL1*
X9347000Y6930000D02*
X6147000Y6930000D01*
X9347000Y3230000D02*
X6147000Y3230000D01*
D11*
X5550200Y6279200D02*
G75*
G03X5550200Y6279200I-100000J0D01*
G01*
D12*
X6704996Y7361220D02*
X6573584Y7361220D01*
X6573584Y7154716D02*
X6573584Y7548952D01*
X6761315Y7548952D01*
X7099232Y7154716D02*
X6911500Y7154716D01*
X6911500Y7548952D01*
X7437148Y7154716D02*
X7211871Y7154716D01*
X7324510Y7154716D02*
X7324510Y7548952D01*
X7286963Y7492632D01*
X7249417Y7455086D01*
X7211871Y7436313D01*
G04 #@! TO.C,J1*
D13*
X5508666Y1817620D02*
X5508666Y1103334D01*
X5461047Y960477D01*
X5365809Y865239D01*
X5222952Y817620D01*
X5127714Y817620D01*
X6508666Y817620D02*
X5937238Y817620D01*
X6222952Y817620D02*
X6222952Y1817620D01*
X6127714Y1674762D01*
X6032476Y1579524D01*
X5937238Y1531905D01*
G04 #@! TO.C,J2*
X9953666Y1817620D02*
X9953666Y1103334D01*
X9906047Y960477D01*
X9810809Y865239D01*
X9667952Y817620D01*
X9572714Y817620D01*
X10382238Y1722381D02*
X10429857Y1770000D01*
X10525095Y1817620D01*
X10763190Y1817620D01*
X10858428Y1770000D01*
X10906047Y1722381D01*
X10953666Y1627143D01*
X10953666Y1531905D01*
X10906047Y1389048D01*
X10334619Y817620D01*
X10953666Y817620D01*
G04 #@! TD*
M02*
