G04 #@! TF.GenerationSoftware,KiCad,Pcbnew,5.0.1*
G04 #@! TF.CreationDate,2018-12-16T16:06:11+01:00*
G04 #@! TF.ProjectId,868MHz,3836384D487A2E6B696361645F706362,rev?*
G04 #@! TF.SameCoordinates,PX57b03e0PY63ebd58*
G04 #@! TF.FileFunction,Copper,L1,Top,Signal*
G04 #@! TF.FilePolarity,Positive*
%FSLAX46Y46*%
G04 Gerber Fmt 4.6, Leading zero omitted, Abs format (unit mm)*
G04 Created by KiCad (PCBNEW 5.0.1) date So 16 Dez 2018 16:06:11 CET*
%MOMM*%
%LPD*%
G01*
G04 APERTURE LIST*
G04 #@! TA.AperFunction,SMDPad,CuDef*
%ADD10R,1.754000X0.854000*%
G04 #@! TD*
G04 #@! TA.AperFunction,SMDPad,CuDef*
%ADD11R,0.954000X0.854000*%
G04 #@! TD*
G04 #@! TA.AperFunction,SMDPad,CuDef*
%ADD12R,4.064000X1.524000*%
G04 #@! TD*
G04 #@! TA.AperFunction,ViaPad*
%ADD13C,0.609600*%
G04 #@! TD*
G04 #@! TA.AperFunction,Conductor*
%ADD14C,0.203200*%
G04 #@! TD*
G04 #@! TA.AperFunction,Conductor*
%ADD15C,0.254000*%
G04 #@! TD*
G04 APERTURE END LIST*
D10*
G04 #@! TO.P,FL1,1*
G04 #@! TO.N,GND*
X6830000Y6280000D03*
D11*
G04 #@! TO.P,FL1,2*
G04 #@! TO.N,Net-(FL1-Pad2)*
X6447000Y5080000D03*
G04 #@! TO.P,FL1,3*
G04 #@! TO.N,GND*
X6447000Y3880000D03*
G04 #@! TO.P,FL1,4*
X9047000Y3880000D03*
G04 #@! TO.P,FL1,5*
G04 #@! TO.N,Net-(FL1-Pad5)*
X9047000Y5080000D03*
G04 #@! TO.P,FL1,6*
G04 #@! TO.N,GND*
X9047000Y6280000D03*
G04 #@! TD*
D12*
G04 #@! TO.P,J1,2*
G04 #@! TO.N,GND*
X2159000Y2540000D03*
X2159000Y7620000D03*
G04 #@! TO.P,J1,1*
G04 #@! TO.N,Net-(FL1-Pad2)*
X2159000Y5080000D03*
G04 #@! TD*
G04 #@! TO.P,J2,1*
G04 #@! TO.N,Net-(FL1-Pad5)*
X13704000Y4953000D03*
G04 #@! TO.P,J2,2*
G04 #@! TO.N,GND*
X13704000Y7493000D03*
X13704000Y2413000D03*
G04 #@! TD*
D13*
G04 #@! TO.N,GND*
X5842000Y1905000D03*
X7112000Y1905000D03*
X8382000Y1905000D03*
X9652000Y1905000D03*
X9652000Y7620000D03*
X8382000Y7620000D03*
X7112000Y7620000D03*
X5842000Y7620000D03*
G04 #@! TD*
D14*
G04 #@! TO.N,GND*
X4394200Y2540000D02*
X5029200Y1905000D01*
X2159000Y2540000D02*
X4394200Y2540000D01*
X5029200Y1905000D02*
X5842000Y1905000D01*
X7112000Y1905000D02*
X8382000Y1905000D01*
X13704000Y7493000D02*
X10414000Y7493000D01*
X10414000Y7493000D02*
X10287000Y7620000D01*
X10287000Y7620000D02*
X9652000Y7620000D01*
X8382000Y7620000D02*
X7112000Y7620000D01*
G04 #@! TO.N,Net-(FL1-Pad2)*
X2159000Y5080000D02*
X6447000Y5080000D01*
G04 #@! TO.N,Net-(FL1-Pad5)*
X13577000Y5080000D02*
X13704000Y4953000D01*
X9047000Y5080000D02*
X13577000Y5080000D01*
G04 #@! TD*
D15*
G04 #@! TO.N,GND*
G36*
X7922560Y4653000D02*
X7956118Y4484292D01*
X7935000Y4433310D01*
X7935000Y4165750D01*
X8093750Y4007000D01*
X8562761Y4007000D01*
X8570000Y4005560D01*
X9524000Y4005560D01*
X9531239Y4007000D01*
X10000250Y4007000D01*
X10159000Y4165750D01*
X10159000Y4343400D01*
X11024560Y4343400D01*
X11024560Y4191000D01*
X11073843Y3943235D01*
X11214191Y3733191D01*
X11284912Y3685937D01*
X11133673Y3534699D01*
X11037000Y3301310D01*
X11037000Y2698750D01*
X11195750Y2540000D01*
X13577000Y2540000D01*
X13577000Y2560000D01*
X13831000Y2560000D01*
X13831000Y2540000D01*
X13851000Y2540000D01*
X13851000Y2286000D01*
X13831000Y2286000D01*
X13831000Y1174750D01*
X13989750Y1016000D01*
X15240000Y1016000D01*
X15240000Y710000D01*
X710000Y710000D01*
X710000Y1143000D01*
X1873250Y1143000D01*
X2032000Y1301750D01*
X2032000Y2413000D01*
X2286000Y2413000D01*
X2286000Y1301750D01*
X2444750Y1143000D01*
X4317309Y1143000D01*
X4550698Y1239673D01*
X4729327Y1418301D01*
X4826000Y1651690D01*
X4826000Y2127250D01*
X11037000Y2127250D01*
X11037000Y1524690D01*
X11133673Y1291301D01*
X11312302Y1112673D01*
X11545691Y1016000D01*
X13418250Y1016000D01*
X13577000Y1174750D01*
X13577000Y2286000D01*
X11195750Y2286000D01*
X11037000Y2127250D01*
X4826000Y2127250D01*
X4826000Y2254250D01*
X4667250Y2413000D01*
X2286000Y2413000D01*
X2032000Y2413000D01*
X2012000Y2413000D01*
X2012000Y2667000D01*
X2032000Y2667000D01*
X2032000Y2687000D01*
X2286000Y2687000D01*
X2286000Y2667000D01*
X4667250Y2667000D01*
X4826000Y2825750D01*
X4826000Y3428310D01*
X4757266Y3594250D01*
X5335000Y3594250D01*
X5335000Y3326690D01*
X5431673Y3093301D01*
X5610302Y2914673D01*
X5843691Y2818000D01*
X6161250Y2818000D01*
X6320000Y2976750D01*
X6320000Y3753000D01*
X6574000Y3753000D01*
X6574000Y2976750D01*
X6732750Y2818000D01*
X7050309Y2818000D01*
X7283698Y2914673D01*
X7462327Y3093301D01*
X7559000Y3326690D01*
X7559000Y3594250D01*
X7935000Y3594250D01*
X7935000Y3326690D01*
X8031673Y3093301D01*
X8210302Y2914673D01*
X8443691Y2818000D01*
X8761250Y2818000D01*
X8920000Y2976750D01*
X8920000Y3753000D01*
X9174000Y3753000D01*
X9174000Y2976750D01*
X9332750Y2818000D01*
X9650309Y2818000D01*
X9883698Y2914673D01*
X10062327Y3093301D01*
X10159000Y3326690D01*
X10159000Y3594250D01*
X10000250Y3753000D01*
X9174000Y3753000D01*
X8920000Y3753000D01*
X8093750Y3753000D01*
X7935000Y3594250D01*
X7559000Y3594250D01*
X7400250Y3753000D01*
X6574000Y3753000D01*
X6320000Y3753000D01*
X5493750Y3753000D01*
X5335000Y3594250D01*
X4757266Y3594250D01*
X4729327Y3661699D01*
X4578088Y3812937D01*
X4648809Y3860191D01*
X4789157Y4070235D01*
X4838440Y4318000D01*
X4838440Y4343400D01*
X5335000Y4343400D01*
X5335000Y4165750D01*
X5493750Y4007000D01*
X5962761Y4007000D01*
X5970000Y4005560D01*
X6924000Y4005560D01*
X6931239Y4007000D01*
X7400250Y4007000D01*
X7559000Y4165750D01*
X7559000Y4433310D01*
X7537882Y4484292D01*
X7571440Y4653000D01*
X7571440Y5218000D01*
X7833309Y5218000D01*
X7922560Y5254969D01*
X7922560Y4653000D01*
X7922560Y4653000D01*
G37*
X7922560Y4653000D02*
X7956118Y4484292D01*
X7935000Y4433310D01*
X7935000Y4165750D01*
X8093750Y4007000D01*
X8562761Y4007000D01*
X8570000Y4005560D01*
X9524000Y4005560D01*
X9531239Y4007000D01*
X10000250Y4007000D01*
X10159000Y4165750D01*
X10159000Y4343400D01*
X11024560Y4343400D01*
X11024560Y4191000D01*
X11073843Y3943235D01*
X11214191Y3733191D01*
X11284912Y3685937D01*
X11133673Y3534699D01*
X11037000Y3301310D01*
X11037000Y2698750D01*
X11195750Y2540000D01*
X13577000Y2540000D01*
X13577000Y2560000D01*
X13831000Y2560000D01*
X13831000Y2540000D01*
X13851000Y2540000D01*
X13851000Y2286000D01*
X13831000Y2286000D01*
X13831000Y1174750D01*
X13989750Y1016000D01*
X15240000Y1016000D01*
X15240000Y710000D01*
X710000Y710000D01*
X710000Y1143000D01*
X1873250Y1143000D01*
X2032000Y1301750D01*
X2032000Y2413000D01*
X2286000Y2413000D01*
X2286000Y1301750D01*
X2444750Y1143000D01*
X4317309Y1143000D01*
X4550698Y1239673D01*
X4729327Y1418301D01*
X4826000Y1651690D01*
X4826000Y2127250D01*
X11037000Y2127250D01*
X11037000Y1524690D01*
X11133673Y1291301D01*
X11312302Y1112673D01*
X11545691Y1016000D01*
X13418250Y1016000D01*
X13577000Y1174750D01*
X13577000Y2286000D01*
X11195750Y2286000D01*
X11037000Y2127250D01*
X4826000Y2127250D01*
X4826000Y2254250D01*
X4667250Y2413000D01*
X2286000Y2413000D01*
X2032000Y2413000D01*
X2012000Y2413000D01*
X2012000Y2667000D01*
X2032000Y2667000D01*
X2032000Y2687000D01*
X2286000Y2687000D01*
X2286000Y2667000D01*
X4667250Y2667000D01*
X4826000Y2825750D01*
X4826000Y3428310D01*
X4757266Y3594250D01*
X5335000Y3594250D01*
X5335000Y3326690D01*
X5431673Y3093301D01*
X5610302Y2914673D01*
X5843691Y2818000D01*
X6161250Y2818000D01*
X6320000Y2976750D01*
X6320000Y3753000D01*
X6574000Y3753000D01*
X6574000Y2976750D01*
X6732750Y2818000D01*
X7050309Y2818000D01*
X7283698Y2914673D01*
X7462327Y3093301D01*
X7559000Y3326690D01*
X7559000Y3594250D01*
X7935000Y3594250D01*
X7935000Y3326690D01*
X8031673Y3093301D01*
X8210302Y2914673D01*
X8443691Y2818000D01*
X8761250Y2818000D01*
X8920000Y2976750D01*
X8920000Y3753000D01*
X9174000Y3753000D01*
X9174000Y2976750D01*
X9332750Y2818000D01*
X9650309Y2818000D01*
X9883698Y2914673D01*
X10062327Y3093301D01*
X10159000Y3326690D01*
X10159000Y3594250D01*
X10000250Y3753000D01*
X9174000Y3753000D01*
X8920000Y3753000D01*
X8093750Y3753000D01*
X7935000Y3594250D01*
X7559000Y3594250D01*
X7400250Y3753000D01*
X6574000Y3753000D01*
X6320000Y3753000D01*
X5493750Y3753000D01*
X5335000Y3594250D01*
X4757266Y3594250D01*
X4729327Y3661699D01*
X4578088Y3812937D01*
X4648809Y3860191D01*
X4789157Y4070235D01*
X4838440Y4318000D01*
X4838440Y4343400D01*
X5335000Y4343400D01*
X5335000Y4165750D01*
X5493750Y4007000D01*
X5962761Y4007000D01*
X5970000Y4005560D01*
X6924000Y4005560D01*
X6931239Y4007000D01*
X7400250Y4007000D01*
X7559000Y4165750D01*
X7559000Y4433310D01*
X7537882Y4484292D01*
X7571440Y4653000D01*
X7571440Y5218000D01*
X7833309Y5218000D01*
X7922560Y5254969D01*
X7922560Y4653000D01*
G36*
X11312302Y8793327D02*
X11133673Y8614699D01*
X11037000Y8381310D01*
X11037000Y7778750D01*
X11195750Y7620000D01*
X13577000Y7620000D01*
X13577000Y7640000D01*
X13831000Y7640000D01*
X13831000Y7620000D01*
X13851000Y7620000D01*
X13851000Y7366000D01*
X13831000Y7366000D01*
X13831000Y7346000D01*
X13577000Y7346000D01*
X13577000Y7366000D01*
X11195750Y7366000D01*
X11037000Y7207250D01*
X11037000Y6604690D01*
X11133673Y6371301D01*
X11284912Y6220063D01*
X11214191Y6172809D01*
X11073843Y5962765D01*
X11044769Y5816600D01*
X10159000Y5816600D01*
X10159000Y5994250D01*
X10000250Y6153000D01*
X9531239Y6153000D01*
X9524000Y6154440D01*
X8570000Y6154440D01*
X8562761Y6153000D01*
X6957000Y6153000D01*
X6957000Y6147876D01*
X6924000Y6154440D01*
X5970000Y6154440D01*
X5962761Y6153000D01*
X5476750Y6153000D01*
X5318000Y5994250D01*
X5318000Y5816600D01*
X4838440Y5816600D01*
X4838440Y5842000D01*
X4789157Y6089765D01*
X4648809Y6299809D01*
X4578088Y6347063D01*
X4729327Y6498301D01*
X4826000Y6731690D01*
X4826000Y6833310D01*
X5318000Y6833310D01*
X5318000Y6565750D01*
X5476750Y6407000D01*
X6703000Y6407000D01*
X6703000Y7183250D01*
X6957000Y7183250D01*
X6957000Y6407000D01*
X8920000Y6407000D01*
X8920000Y7183250D01*
X9174000Y7183250D01*
X9174000Y6407000D01*
X10000250Y6407000D01*
X10159000Y6565750D01*
X10159000Y6833310D01*
X10062327Y7066699D01*
X9883698Y7245327D01*
X9650309Y7342000D01*
X9332750Y7342000D01*
X9174000Y7183250D01*
X8920000Y7183250D01*
X8761250Y7342000D01*
X8443691Y7342000D01*
X8210302Y7245327D01*
X8138500Y7173525D01*
X8066698Y7245327D01*
X7833309Y7342000D01*
X7115750Y7342000D01*
X6957000Y7183250D01*
X6703000Y7183250D01*
X6544250Y7342000D01*
X5826691Y7342000D01*
X5593302Y7245327D01*
X5414673Y7066699D01*
X5318000Y6833310D01*
X4826000Y6833310D01*
X4826000Y7334250D01*
X4667250Y7493000D01*
X2286000Y7493000D01*
X2286000Y7473000D01*
X2032000Y7473000D01*
X2032000Y7493000D01*
X2012000Y7493000D01*
X2012000Y7747000D01*
X2032000Y7747000D01*
X2032000Y7767000D01*
X2286000Y7767000D01*
X2286000Y7747000D01*
X4667250Y7747000D01*
X4826000Y7905750D01*
X4826000Y8508310D01*
X4729327Y8741699D01*
X4656026Y8815000D01*
X11364625Y8815000D01*
X11312302Y8793327D01*
X11312302Y8793327D01*
G37*
X11312302Y8793327D02*
X11133673Y8614699D01*
X11037000Y8381310D01*
X11037000Y7778750D01*
X11195750Y7620000D01*
X13577000Y7620000D01*
X13577000Y7640000D01*
X13831000Y7640000D01*
X13831000Y7620000D01*
X13851000Y7620000D01*
X13851000Y7366000D01*
X13831000Y7366000D01*
X13831000Y7346000D01*
X13577000Y7346000D01*
X13577000Y7366000D01*
X11195750Y7366000D01*
X11037000Y7207250D01*
X11037000Y6604690D01*
X11133673Y6371301D01*
X11284912Y6220063D01*
X11214191Y6172809D01*
X11073843Y5962765D01*
X11044769Y5816600D01*
X10159000Y5816600D01*
X10159000Y5994250D01*
X10000250Y6153000D01*
X9531239Y6153000D01*
X9524000Y6154440D01*
X8570000Y6154440D01*
X8562761Y6153000D01*
X6957000Y6153000D01*
X6957000Y6147876D01*
X6924000Y6154440D01*
X5970000Y6154440D01*
X5962761Y6153000D01*
X5476750Y6153000D01*
X5318000Y5994250D01*
X5318000Y5816600D01*
X4838440Y5816600D01*
X4838440Y5842000D01*
X4789157Y6089765D01*
X4648809Y6299809D01*
X4578088Y6347063D01*
X4729327Y6498301D01*
X4826000Y6731690D01*
X4826000Y6833310D01*
X5318000Y6833310D01*
X5318000Y6565750D01*
X5476750Y6407000D01*
X6703000Y6407000D01*
X6703000Y7183250D01*
X6957000Y7183250D01*
X6957000Y6407000D01*
X8920000Y6407000D01*
X8920000Y7183250D01*
X9174000Y7183250D01*
X9174000Y6407000D01*
X10000250Y6407000D01*
X10159000Y6565750D01*
X10159000Y6833310D01*
X10062327Y7066699D01*
X9883698Y7245327D01*
X9650309Y7342000D01*
X9332750Y7342000D01*
X9174000Y7183250D01*
X8920000Y7183250D01*
X8761250Y7342000D01*
X8443691Y7342000D01*
X8210302Y7245327D01*
X8138500Y7173525D01*
X8066698Y7245327D01*
X7833309Y7342000D01*
X7115750Y7342000D01*
X6957000Y7183250D01*
X6703000Y7183250D01*
X6544250Y7342000D01*
X5826691Y7342000D01*
X5593302Y7245327D01*
X5414673Y7066699D01*
X5318000Y6833310D01*
X4826000Y6833310D01*
X4826000Y7334250D01*
X4667250Y7493000D01*
X2286000Y7493000D01*
X2286000Y7473000D01*
X2032000Y7473000D01*
X2032000Y7493000D01*
X2012000Y7493000D01*
X2012000Y7747000D01*
X2032000Y7747000D01*
X2032000Y7767000D01*
X2286000Y7767000D01*
X2286000Y7747000D01*
X4667250Y7747000D01*
X4826000Y7905750D01*
X4826000Y8508310D01*
X4729327Y8741699D01*
X4656026Y8815000D01*
X11364625Y8815000D01*
X11312302Y8793327D01*
G04 #@! TD*
M02*
