M48
;DRILL file {KiCad 5.0.1} date Do 27 Dez 2018 15:12:04 CET
;FORMAT={-:-/ absolute / inch / decimal}
FMAT,2
INCH,TZ
T1C0.0120
%
G90
G05
M72
T1
X4.5Y-3.6
X4.5Y-4.05
X4.5Y-4.125
X4.6Y-3.6
X4.6Y-4.05
X4.6Y-4.125
X4.65Y-3.725
X4.65Y-3.925
X4.7Y-3.6
X4.7Y-3.725
X4.7Y-3.925
X4.7Y-4.05
X4.7Y-4.125
X4.75Y-3.725
X4.75Y-3.925
X4.8Y-3.55
X4.8Y-3.625
X4.8Y-3.675
X4.8Y-3.725
X4.8Y-3.925
X4.8Y-3.975
X4.8Y-4.025
X4.8Y-4.075
X4.8Y-4.125
X4.85Y-3.55
X4.85Y-4.125
X4.9Y-3.55
X4.9Y-4.125
T0
M30
