G04 #@! TF.GenerationSoftware,KiCad,Pcbnew,5.0.1*
G04 #@! TF.CreationDate,2018-12-27T15:12:00+01:00*
G04 #@! TF.ProjectId,6dBSplitter,36644253706C69747465722E6B696361,rev?*
G04 #@! TF.SameCoordinates,Original*
G04 #@! TF.FileFunction,Legend,Top*
G04 #@! TF.FilePolarity,Positive*
%FSLAX46Y46*%
G04 Gerber Fmt 4.6, Leading zero omitted, Abs format (unit mm)*
G04 Created by KiCad (PCBNEW 5.0.1) date Do 27 Dez 2018 15:12:00 CET*
%MOMM*%
%LPD*%
G01*
G04 APERTURE LIST*
%ADD10C,0.300000*%
%ADD11C,0.120000*%
%ADD12C,0.010000*%
%ADD13C,0.150000*%
G04 APERTURE END LIST*
D10*
X113558571Y-103953571D02*
X113272857Y-103953571D01*
X113130000Y-104025000D01*
X113058571Y-104096428D01*
X112915714Y-104310714D01*
X112844285Y-104596428D01*
X112844285Y-105167857D01*
X112915714Y-105310714D01*
X112987142Y-105382142D01*
X113130000Y-105453571D01*
X113415714Y-105453571D01*
X113558571Y-105382142D01*
X113630000Y-105310714D01*
X113701428Y-105167857D01*
X113701428Y-104810714D01*
X113630000Y-104667857D01*
X113558571Y-104596428D01*
X113415714Y-104525000D01*
X113130000Y-104525000D01*
X112987142Y-104596428D01*
X112915714Y-104667857D01*
X112844285Y-104810714D01*
X114987142Y-105453571D02*
X114987142Y-103953571D01*
X114987142Y-105382142D02*
X114844285Y-105453571D01*
X114558571Y-105453571D01*
X114415714Y-105382142D01*
X114344285Y-105310714D01*
X114272857Y-105167857D01*
X114272857Y-104739285D01*
X114344285Y-104596428D01*
X114415714Y-104525000D01*
X114558571Y-104453571D01*
X114844285Y-104453571D01*
X114987142Y-104525000D01*
X116201428Y-104667857D02*
X116415714Y-104739285D01*
X116487142Y-104810714D01*
X116558571Y-104953571D01*
X116558571Y-105167857D01*
X116487142Y-105310714D01*
X116415714Y-105382142D01*
X116272857Y-105453571D01*
X115701428Y-105453571D01*
X115701428Y-103953571D01*
X116201428Y-103953571D01*
X116344285Y-104025000D01*
X116415714Y-104096428D01*
X116487142Y-104239285D01*
X116487142Y-104382142D01*
X116415714Y-104525000D01*
X116344285Y-104596428D01*
X116201428Y-104667857D01*
X115701428Y-104667857D01*
X118272857Y-105382142D02*
X118487142Y-105453571D01*
X118844285Y-105453571D01*
X118987142Y-105382142D01*
X119058571Y-105310714D01*
X119130000Y-105167857D01*
X119130000Y-105025000D01*
X119058571Y-104882142D01*
X118987142Y-104810714D01*
X118844285Y-104739285D01*
X118558571Y-104667857D01*
X118415714Y-104596428D01*
X118344285Y-104525000D01*
X118272857Y-104382142D01*
X118272857Y-104239285D01*
X118344285Y-104096428D01*
X118415714Y-104025000D01*
X118558571Y-103953571D01*
X118915714Y-103953571D01*
X119130000Y-104025000D01*
X119772857Y-104453571D02*
X119772857Y-105953571D01*
X119772857Y-104525000D02*
X119915714Y-104453571D01*
X120201428Y-104453571D01*
X120344285Y-104525000D01*
X120415714Y-104596428D01*
X120487142Y-104739285D01*
X120487142Y-105167857D01*
X120415714Y-105310714D01*
X120344285Y-105382142D01*
X120201428Y-105453571D01*
X119915714Y-105453571D01*
X119772857Y-105382142D01*
X121344285Y-105453571D02*
X121201428Y-105382142D01*
X121130000Y-105239285D01*
X121130000Y-103953571D01*
X121915714Y-105453571D02*
X121915714Y-104453571D01*
X121915714Y-103953571D02*
X121844285Y-104025000D01*
X121915714Y-104096428D01*
X121987142Y-104025000D01*
X121915714Y-103953571D01*
X121915714Y-104096428D01*
X122415714Y-104453571D02*
X122987142Y-104453571D01*
X122630000Y-103953571D02*
X122630000Y-105239285D01*
X122701428Y-105382142D01*
X122844285Y-105453571D01*
X122987142Y-105453571D01*
X123272857Y-104453571D02*
X123844285Y-104453571D01*
X123487142Y-103953571D02*
X123487142Y-105239285D01*
X123558571Y-105382142D01*
X123701428Y-105453571D01*
X123844285Y-105453571D01*
X124915714Y-105382142D02*
X124772857Y-105453571D01*
X124487142Y-105453571D01*
X124344285Y-105382142D01*
X124272857Y-105239285D01*
X124272857Y-104667857D01*
X124344285Y-104525000D01*
X124487142Y-104453571D01*
X124772857Y-104453571D01*
X124915714Y-104525000D01*
X124987142Y-104667857D01*
X124987142Y-104810714D01*
X124272857Y-104953571D01*
X125630000Y-105453571D02*
X125630000Y-104453571D01*
X125630000Y-104739285D02*
X125701428Y-104596428D01*
X125772857Y-104525000D01*
X125915714Y-104453571D01*
X126058571Y-104453571D01*
D11*
G04 #@! TO.C,R1*
X120834564Y-98065000D02*
X119630436Y-98065000D01*
X120834564Y-96245000D02*
X119630436Y-96245000D01*
G04 #@! TO.C,R2*
X123550000Y-93795436D02*
X123550000Y-94999564D01*
X125370000Y-93795436D02*
X125370000Y-94999564D01*
G04 #@! TO.C,R3*
X123550000Y-101149564D02*
X123550000Y-99945436D01*
X125370000Y-101149564D02*
X125370000Y-99945436D01*
D12*
G04 #@! TO.C,REF\002A\002A*
G36*
X120118910Y-89317348D02*
X120197454Y-89317778D01*
X120254298Y-89318942D01*
X120293105Y-89321207D01*
X120317538Y-89324940D01*
X120331262Y-89330506D01*
X120337940Y-89338273D01*
X120341236Y-89348605D01*
X120341556Y-89349943D01*
X120346562Y-89374079D01*
X120355829Y-89421701D01*
X120368392Y-89487741D01*
X120383287Y-89567128D01*
X120399551Y-89654796D01*
X120400119Y-89657875D01*
X120416410Y-89743789D01*
X120431652Y-89819696D01*
X120444861Y-89881045D01*
X120455054Y-89923282D01*
X120461248Y-89941855D01*
X120461543Y-89942184D01*
X120479788Y-89951253D01*
X120517405Y-89966367D01*
X120566271Y-89984262D01*
X120566543Y-89984358D01*
X120628093Y-90007493D01*
X120700657Y-90036965D01*
X120769057Y-90066597D01*
X120772294Y-90068062D01*
X120883702Y-90118626D01*
X121130399Y-89950160D01*
X121206077Y-89898803D01*
X121274631Y-89852889D01*
X121332088Y-89815030D01*
X121374476Y-89787837D01*
X121397825Y-89773921D01*
X121400042Y-89772889D01*
X121417010Y-89777484D01*
X121448701Y-89799655D01*
X121496352Y-89840447D01*
X121561198Y-89900905D01*
X121627397Y-89965227D01*
X121691214Y-90028612D01*
X121748329Y-90086451D01*
X121795305Y-90135175D01*
X121828703Y-90171210D01*
X121845085Y-90190984D01*
X121845694Y-90192002D01*
X121847505Y-90205572D01*
X121840683Y-90227733D01*
X121823540Y-90261478D01*
X121794393Y-90309800D01*
X121751555Y-90375692D01*
X121694448Y-90460517D01*
X121643766Y-90535177D01*
X121598461Y-90602140D01*
X121561150Y-90657516D01*
X121534452Y-90697420D01*
X121520985Y-90717962D01*
X121520137Y-90719356D01*
X121521781Y-90739038D01*
X121534245Y-90777293D01*
X121555048Y-90826889D01*
X121562462Y-90842728D01*
X121594814Y-90913290D01*
X121629328Y-90993353D01*
X121657365Y-91062629D01*
X121677568Y-91114045D01*
X121693615Y-91153119D01*
X121702888Y-91173541D01*
X121704041Y-91175114D01*
X121721096Y-91177721D01*
X121761298Y-91184863D01*
X121819302Y-91195523D01*
X121889763Y-91208685D01*
X121967335Y-91223333D01*
X122046672Y-91238449D01*
X122122431Y-91253018D01*
X122189264Y-91266022D01*
X122241828Y-91276445D01*
X122274776Y-91283270D01*
X122282857Y-91285199D01*
X122291205Y-91289962D01*
X122297506Y-91300718D01*
X122302045Y-91321098D01*
X122305104Y-91354734D01*
X122306967Y-91405255D01*
X122307918Y-91476292D01*
X122308240Y-91571476D01*
X122308257Y-91610492D01*
X122308257Y-91927799D01*
X122232057Y-91942839D01*
X122189663Y-91950995D01*
X122126400Y-91962899D01*
X122049962Y-91977116D01*
X121968043Y-91992210D01*
X121945400Y-91996355D01*
X121869806Y-92011053D01*
X121803953Y-92025505D01*
X121753366Y-92038375D01*
X121723574Y-92048322D01*
X121718612Y-92051287D01*
X121706426Y-92072283D01*
X121688953Y-92112967D01*
X121669577Y-92165322D01*
X121665734Y-92176600D01*
X121640339Y-92246523D01*
X121608817Y-92325418D01*
X121577969Y-92396266D01*
X121577817Y-92396595D01*
X121526447Y-92507733D01*
X121695399Y-92756253D01*
X121864352Y-93004772D01*
X121647429Y-93222058D01*
X121581819Y-93286726D01*
X121521979Y-93343733D01*
X121471267Y-93390033D01*
X121433046Y-93422584D01*
X121410675Y-93438343D01*
X121407466Y-93439343D01*
X121388626Y-93431469D01*
X121350180Y-93409578D01*
X121296330Y-93376267D01*
X121231276Y-93334131D01*
X121160940Y-93286943D01*
X121089555Y-93238810D01*
X121025908Y-93196928D01*
X120974041Y-93163871D01*
X120937995Y-93142218D01*
X120921867Y-93134543D01*
X120902189Y-93141037D01*
X120864875Y-93158150D01*
X120817621Y-93182326D01*
X120812612Y-93185013D01*
X120748977Y-93216927D01*
X120705341Y-93232579D01*
X120678202Y-93232745D01*
X120664057Y-93218204D01*
X120663975Y-93218000D01*
X120656905Y-93200779D01*
X120640042Y-93159899D01*
X120614695Y-93098525D01*
X120582171Y-93019819D01*
X120543778Y-92926947D01*
X120500822Y-92823072D01*
X120459222Y-92722502D01*
X120413504Y-92611516D01*
X120371526Y-92508703D01*
X120334548Y-92417215D01*
X120303827Y-92340201D01*
X120280622Y-92280815D01*
X120266190Y-92242209D01*
X120261743Y-92227800D01*
X120272896Y-92211272D01*
X120302069Y-92184930D01*
X120340971Y-92155887D01*
X120451757Y-92064039D01*
X120538351Y-91958759D01*
X120599716Y-91842266D01*
X120634815Y-91716776D01*
X120642608Y-91584507D01*
X120636943Y-91523457D01*
X120606078Y-91396795D01*
X120552920Y-91284941D01*
X120480767Y-91189001D01*
X120392917Y-91110076D01*
X120292665Y-91049270D01*
X120183310Y-91007687D01*
X120068147Y-90986428D01*
X119950475Y-90986599D01*
X119833590Y-91009301D01*
X119720789Y-91055638D01*
X119615369Y-91126713D01*
X119571368Y-91166911D01*
X119486979Y-91270129D01*
X119428222Y-91382925D01*
X119394704Y-91502010D01*
X119386035Y-91624095D01*
X119401823Y-91745893D01*
X119441678Y-91864116D01*
X119505207Y-91975475D01*
X119592021Y-92076684D01*
X119689029Y-92155887D01*
X119729437Y-92186162D01*
X119757982Y-92212219D01*
X119768257Y-92227825D01*
X119762877Y-92244843D01*
X119747575Y-92285500D01*
X119723612Y-92346642D01*
X119692244Y-92425119D01*
X119654732Y-92517780D01*
X119612333Y-92621472D01*
X119570663Y-92722526D01*
X119524690Y-92833607D01*
X119482107Y-92936541D01*
X119444221Y-93028165D01*
X119412340Y-93105316D01*
X119387771Y-93164831D01*
X119371820Y-93203544D01*
X119365910Y-93218000D01*
X119351948Y-93232685D01*
X119324940Y-93232642D01*
X119281413Y-93217099D01*
X119217890Y-93185284D01*
X119217388Y-93185013D01*
X119169560Y-93160323D01*
X119130897Y-93142338D01*
X119109095Y-93134614D01*
X119108133Y-93134543D01*
X119091721Y-93142378D01*
X119055487Y-93164165D01*
X119003474Y-93197328D01*
X118939725Y-93239291D01*
X118869060Y-93286943D01*
X118797116Y-93335191D01*
X118732274Y-93377151D01*
X118678735Y-93410227D01*
X118640697Y-93431821D01*
X118622533Y-93439343D01*
X118605808Y-93429457D01*
X118572180Y-93401826D01*
X118525010Y-93359495D01*
X118467658Y-93305505D01*
X118403484Y-93242899D01*
X118382497Y-93221983D01*
X118165499Y-93004623D01*
X118330668Y-92762220D01*
X118380864Y-92687781D01*
X118424919Y-92620972D01*
X118460362Y-92565665D01*
X118484719Y-92525729D01*
X118495522Y-92505036D01*
X118495838Y-92503563D01*
X118490143Y-92484058D01*
X118474826Y-92444822D01*
X118452537Y-92392430D01*
X118436893Y-92357355D01*
X118407641Y-92290201D01*
X118380094Y-92222358D01*
X118358737Y-92165034D01*
X118352935Y-92147572D01*
X118336452Y-92100938D01*
X118320340Y-92064905D01*
X118311490Y-92051287D01*
X118291960Y-92042952D01*
X118249334Y-92031137D01*
X118189145Y-92017181D01*
X118116922Y-92002422D01*
X118084600Y-91996355D01*
X118002522Y-91981273D01*
X117923795Y-91966669D01*
X117856109Y-91953980D01*
X117807160Y-91944642D01*
X117797943Y-91942839D01*
X117721743Y-91927799D01*
X117721743Y-91610492D01*
X117721914Y-91506154D01*
X117722616Y-91427213D01*
X117724134Y-91370038D01*
X117726749Y-91330999D01*
X117730746Y-91306465D01*
X117736409Y-91292805D01*
X117744020Y-91286389D01*
X117747143Y-91285199D01*
X117765978Y-91280980D01*
X117807588Y-91272562D01*
X117866630Y-91260961D01*
X117937757Y-91247195D01*
X118015625Y-91232280D01*
X118094887Y-91217232D01*
X118170198Y-91203069D01*
X118236213Y-91190806D01*
X118287587Y-91181461D01*
X118318975Y-91176050D01*
X118325959Y-91175114D01*
X118332285Y-91162596D01*
X118346290Y-91129246D01*
X118365355Y-91081377D01*
X118372634Y-91062629D01*
X118401996Y-90990195D01*
X118436571Y-90910170D01*
X118467537Y-90842728D01*
X118490323Y-90791159D01*
X118505482Y-90748785D01*
X118510542Y-90722834D01*
X118509736Y-90719356D01*
X118499041Y-90702936D01*
X118474620Y-90666417D01*
X118439095Y-90613687D01*
X118395087Y-90548635D01*
X118345217Y-90475151D01*
X118335356Y-90460645D01*
X118277492Y-90374704D01*
X118234956Y-90309261D01*
X118206054Y-90261304D01*
X118189090Y-90227820D01*
X118182367Y-90205795D01*
X118184190Y-90192217D01*
X118184236Y-90192131D01*
X118198586Y-90174297D01*
X118230323Y-90139817D01*
X118276010Y-90092268D01*
X118332204Y-90035222D01*
X118395468Y-89972255D01*
X118402602Y-89965227D01*
X118482330Y-89888020D01*
X118543857Y-89831330D01*
X118588421Y-89794110D01*
X118617257Y-89775315D01*
X118629958Y-89772889D01*
X118648494Y-89783471D01*
X118686961Y-89807916D01*
X118741386Y-89843612D01*
X118807798Y-89887947D01*
X118882225Y-89938311D01*
X118899601Y-89950160D01*
X119146297Y-90118626D01*
X119257706Y-90068062D01*
X119325457Y-90038595D01*
X119398183Y-90008959D01*
X119460703Y-89985330D01*
X119463457Y-89984358D01*
X119512360Y-89966457D01*
X119550057Y-89951320D01*
X119568425Y-89942210D01*
X119568456Y-89942184D01*
X119574285Y-89925717D01*
X119584192Y-89885219D01*
X119597195Y-89825242D01*
X119612309Y-89750340D01*
X119628552Y-89665064D01*
X119629881Y-89657875D01*
X119646175Y-89570014D01*
X119661133Y-89490260D01*
X119673791Y-89423681D01*
X119683186Y-89375347D01*
X119688354Y-89350325D01*
X119688444Y-89349943D01*
X119691589Y-89339299D01*
X119697704Y-89331262D01*
X119710453Y-89325467D01*
X119733500Y-89321547D01*
X119770509Y-89319135D01*
X119825144Y-89317865D01*
X119901067Y-89317371D01*
X120001944Y-89317286D01*
X120015000Y-89317286D01*
X120118910Y-89317348D01*
X120118910Y-89317348D01*
G37*
X120118910Y-89317348D02*
X120197454Y-89317778D01*
X120254298Y-89318942D01*
X120293105Y-89321207D01*
X120317538Y-89324940D01*
X120331262Y-89330506D01*
X120337940Y-89338273D01*
X120341236Y-89348605D01*
X120341556Y-89349943D01*
X120346562Y-89374079D01*
X120355829Y-89421701D01*
X120368392Y-89487741D01*
X120383287Y-89567128D01*
X120399551Y-89654796D01*
X120400119Y-89657875D01*
X120416410Y-89743789D01*
X120431652Y-89819696D01*
X120444861Y-89881045D01*
X120455054Y-89923282D01*
X120461248Y-89941855D01*
X120461543Y-89942184D01*
X120479788Y-89951253D01*
X120517405Y-89966367D01*
X120566271Y-89984262D01*
X120566543Y-89984358D01*
X120628093Y-90007493D01*
X120700657Y-90036965D01*
X120769057Y-90066597D01*
X120772294Y-90068062D01*
X120883702Y-90118626D01*
X121130399Y-89950160D01*
X121206077Y-89898803D01*
X121274631Y-89852889D01*
X121332088Y-89815030D01*
X121374476Y-89787837D01*
X121397825Y-89773921D01*
X121400042Y-89772889D01*
X121417010Y-89777484D01*
X121448701Y-89799655D01*
X121496352Y-89840447D01*
X121561198Y-89900905D01*
X121627397Y-89965227D01*
X121691214Y-90028612D01*
X121748329Y-90086451D01*
X121795305Y-90135175D01*
X121828703Y-90171210D01*
X121845085Y-90190984D01*
X121845694Y-90192002D01*
X121847505Y-90205572D01*
X121840683Y-90227733D01*
X121823540Y-90261478D01*
X121794393Y-90309800D01*
X121751555Y-90375692D01*
X121694448Y-90460517D01*
X121643766Y-90535177D01*
X121598461Y-90602140D01*
X121561150Y-90657516D01*
X121534452Y-90697420D01*
X121520985Y-90717962D01*
X121520137Y-90719356D01*
X121521781Y-90739038D01*
X121534245Y-90777293D01*
X121555048Y-90826889D01*
X121562462Y-90842728D01*
X121594814Y-90913290D01*
X121629328Y-90993353D01*
X121657365Y-91062629D01*
X121677568Y-91114045D01*
X121693615Y-91153119D01*
X121702888Y-91173541D01*
X121704041Y-91175114D01*
X121721096Y-91177721D01*
X121761298Y-91184863D01*
X121819302Y-91195523D01*
X121889763Y-91208685D01*
X121967335Y-91223333D01*
X122046672Y-91238449D01*
X122122431Y-91253018D01*
X122189264Y-91266022D01*
X122241828Y-91276445D01*
X122274776Y-91283270D01*
X122282857Y-91285199D01*
X122291205Y-91289962D01*
X122297506Y-91300718D01*
X122302045Y-91321098D01*
X122305104Y-91354734D01*
X122306967Y-91405255D01*
X122307918Y-91476292D01*
X122308240Y-91571476D01*
X122308257Y-91610492D01*
X122308257Y-91927799D01*
X122232057Y-91942839D01*
X122189663Y-91950995D01*
X122126400Y-91962899D01*
X122049962Y-91977116D01*
X121968043Y-91992210D01*
X121945400Y-91996355D01*
X121869806Y-92011053D01*
X121803953Y-92025505D01*
X121753366Y-92038375D01*
X121723574Y-92048322D01*
X121718612Y-92051287D01*
X121706426Y-92072283D01*
X121688953Y-92112967D01*
X121669577Y-92165322D01*
X121665734Y-92176600D01*
X121640339Y-92246523D01*
X121608817Y-92325418D01*
X121577969Y-92396266D01*
X121577817Y-92396595D01*
X121526447Y-92507733D01*
X121695399Y-92756253D01*
X121864352Y-93004772D01*
X121647429Y-93222058D01*
X121581819Y-93286726D01*
X121521979Y-93343733D01*
X121471267Y-93390033D01*
X121433046Y-93422584D01*
X121410675Y-93438343D01*
X121407466Y-93439343D01*
X121388626Y-93431469D01*
X121350180Y-93409578D01*
X121296330Y-93376267D01*
X121231276Y-93334131D01*
X121160940Y-93286943D01*
X121089555Y-93238810D01*
X121025908Y-93196928D01*
X120974041Y-93163871D01*
X120937995Y-93142218D01*
X120921867Y-93134543D01*
X120902189Y-93141037D01*
X120864875Y-93158150D01*
X120817621Y-93182326D01*
X120812612Y-93185013D01*
X120748977Y-93216927D01*
X120705341Y-93232579D01*
X120678202Y-93232745D01*
X120664057Y-93218204D01*
X120663975Y-93218000D01*
X120656905Y-93200779D01*
X120640042Y-93159899D01*
X120614695Y-93098525D01*
X120582171Y-93019819D01*
X120543778Y-92926947D01*
X120500822Y-92823072D01*
X120459222Y-92722502D01*
X120413504Y-92611516D01*
X120371526Y-92508703D01*
X120334548Y-92417215D01*
X120303827Y-92340201D01*
X120280622Y-92280815D01*
X120266190Y-92242209D01*
X120261743Y-92227800D01*
X120272896Y-92211272D01*
X120302069Y-92184930D01*
X120340971Y-92155887D01*
X120451757Y-92064039D01*
X120538351Y-91958759D01*
X120599716Y-91842266D01*
X120634815Y-91716776D01*
X120642608Y-91584507D01*
X120636943Y-91523457D01*
X120606078Y-91396795D01*
X120552920Y-91284941D01*
X120480767Y-91189001D01*
X120392917Y-91110076D01*
X120292665Y-91049270D01*
X120183310Y-91007687D01*
X120068147Y-90986428D01*
X119950475Y-90986599D01*
X119833590Y-91009301D01*
X119720789Y-91055638D01*
X119615369Y-91126713D01*
X119571368Y-91166911D01*
X119486979Y-91270129D01*
X119428222Y-91382925D01*
X119394704Y-91502010D01*
X119386035Y-91624095D01*
X119401823Y-91745893D01*
X119441678Y-91864116D01*
X119505207Y-91975475D01*
X119592021Y-92076684D01*
X119689029Y-92155887D01*
X119729437Y-92186162D01*
X119757982Y-92212219D01*
X119768257Y-92227825D01*
X119762877Y-92244843D01*
X119747575Y-92285500D01*
X119723612Y-92346642D01*
X119692244Y-92425119D01*
X119654732Y-92517780D01*
X119612333Y-92621472D01*
X119570663Y-92722526D01*
X119524690Y-92833607D01*
X119482107Y-92936541D01*
X119444221Y-93028165D01*
X119412340Y-93105316D01*
X119387771Y-93164831D01*
X119371820Y-93203544D01*
X119365910Y-93218000D01*
X119351948Y-93232685D01*
X119324940Y-93232642D01*
X119281413Y-93217099D01*
X119217890Y-93185284D01*
X119217388Y-93185013D01*
X119169560Y-93160323D01*
X119130897Y-93142338D01*
X119109095Y-93134614D01*
X119108133Y-93134543D01*
X119091721Y-93142378D01*
X119055487Y-93164165D01*
X119003474Y-93197328D01*
X118939725Y-93239291D01*
X118869060Y-93286943D01*
X118797116Y-93335191D01*
X118732274Y-93377151D01*
X118678735Y-93410227D01*
X118640697Y-93431821D01*
X118622533Y-93439343D01*
X118605808Y-93429457D01*
X118572180Y-93401826D01*
X118525010Y-93359495D01*
X118467658Y-93305505D01*
X118403484Y-93242899D01*
X118382497Y-93221983D01*
X118165499Y-93004623D01*
X118330668Y-92762220D01*
X118380864Y-92687781D01*
X118424919Y-92620972D01*
X118460362Y-92565665D01*
X118484719Y-92525729D01*
X118495522Y-92505036D01*
X118495838Y-92503563D01*
X118490143Y-92484058D01*
X118474826Y-92444822D01*
X118452537Y-92392430D01*
X118436893Y-92357355D01*
X118407641Y-92290201D01*
X118380094Y-92222358D01*
X118358737Y-92165034D01*
X118352935Y-92147572D01*
X118336452Y-92100938D01*
X118320340Y-92064905D01*
X118311490Y-92051287D01*
X118291960Y-92042952D01*
X118249334Y-92031137D01*
X118189145Y-92017181D01*
X118116922Y-92002422D01*
X118084600Y-91996355D01*
X118002522Y-91981273D01*
X117923795Y-91966669D01*
X117856109Y-91953980D01*
X117807160Y-91944642D01*
X117797943Y-91942839D01*
X117721743Y-91927799D01*
X117721743Y-91610492D01*
X117721914Y-91506154D01*
X117722616Y-91427213D01*
X117724134Y-91370038D01*
X117726749Y-91330999D01*
X117730746Y-91306465D01*
X117736409Y-91292805D01*
X117744020Y-91286389D01*
X117747143Y-91285199D01*
X117765978Y-91280980D01*
X117807588Y-91272562D01*
X117866630Y-91260961D01*
X117937757Y-91247195D01*
X118015625Y-91232280D01*
X118094887Y-91217232D01*
X118170198Y-91203069D01*
X118236213Y-91190806D01*
X118287587Y-91181461D01*
X118318975Y-91176050D01*
X118325959Y-91175114D01*
X118332285Y-91162596D01*
X118346290Y-91129246D01*
X118365355Y-91081377D01*
X118372634Y-91062629D01*
X118401996Y-90990195D01*
X118436571Y-90910170D01*
X118467537Y-90842728D01*
X118490323Y-90791159D01*
X118505482Y-90748785D01*
X118510542Y-90722834D01*
X118509736Y-90719356D01*
X118499041Y-90702936D01*
X118474620Y-90666417D01*
X118439095Y-90613687D01*
X118395087Y-90548635D01*
X118345217Y-90475151D01*
X118335356Y-90460645D01*
X118277492Y-90374704D01*
X118234956Y-90309261D01*
X118206054Y-90261304D01*
X118189090Y-90227820D01*
X118182367Y-90205795D01*
X118184190Y-90192217D01*
X118184236Y-90192131D01*
X118198586Y-90174297D01*
X118230323Y-90139817D01*
X118276010Y-90092268D01*
X118332204Y-90035222D01*
X118395468Y-89972255D01*
X118402602Y-89965227D01*
X118482330Y-89888020D01*
X118543857Y-89831330D01*
X118588421Y-89794110D01*
X118617257Y-89775315D01*
X118629958Y-89772889D01*
X118648494Y-89783471D01*
X118686961Y-89807916D01*
X118741386Y-89843612D01*
X118807798Y-89887947D01*
X118882225Y-89938311D01*
X118899601Y-89950160D01*
X119146297Y-90118626D01*
X119257706Y-90068062D01*
X119325457Y-90038595D01*
X119398183Y-90008959D01*
X119460703Y-89985330D01*
X119463457Y-89984358D01*
X119512360Y-89966457D01*
X119550057Y-89951320D01*
X119568425Y-89942210D01*
X119568456Y-89942184D01*
X119574285Y-89925717D01*
X119584192Y-89885219D01*
X119597195Y-89825242D01*
X119612309Y-89750340D01*
X119628552Y-89665064D01*
X119629881Y-89657875D01*
X119646175Y-89570014D01*
X119661133Y-89490260D01*
X119673791Y-89423681D01*
X119683186Y-89375347D01*
X119688354Y-89350325D01*
X119688444Y-89349943D01*
X119691589Y-89339299D01*
X119697704Y-89331262D01*
X119710453Y-89325467D01*
X119733500Y-89321547D01*
X119770509Y-89319135D01*
X119825144Y-89317865D01*
X119901067Y-89317371D01*
X120001944Y-89317286D01*
X120015000Y-89317286D01*
X120118910Y-89317348D01*
G36*
X123168595Y-94041966D02*
X123226021Y-94079497D01*
X123253719Y-94113096D01*
X123275662Y-94174064D01*
X123277405Y-94222308D01*
X123273457Y-94286816D01*
X123124686Y-94351934D01*
X123052349Y-94385202D01*
X123005084Y-94411964D01*
X122980507Y-94435144D01*
X122976237Y-94457667D01*
X122989889Y-94482455D01*
X123004943Y-94498886D01*
X123048746Y-94525235D01*
X123096389Y-94527081D01*
X123140145Y-94506546D01*
X123172289Y-94465752D01*
X123178038Y-94451347D01*
X123205576Y-94406356D01*
X123237258Y-94387182D01*
X123280714Y-94370779D01*
X123280714Y-94432966D01*
X123276872Y-94475283D01*
X123261823Y-94510969D01*
X123230280Y-94551943D01*
X123225592Y-94557267D01*
X123190506Y-94593720D01*
X123160347Y-94613283D01*
X123122615Y-94622283D01*
X123091335Y-94625230D01*
X123035385Y-94625965D01*
X122995555Y-94616660D01*
X122970708Y-94602846D01*
X122931656Y-94572467D01*
X122904625Y-94539613D01*
X122887517Y-94498294D01*
X122878238Y-94442521D01*
X122874693Y-94366305D01*
X122874410Y-94327622D01*
X122875372Y-94281247D01*
X122963007Y-94281247D01*
X122964023Y-94306126D01*
X122966556Y-94310200D01*
X122983274Y-94304665D01*
X123019249Y-94290017D01*
X123067331Y-94269190D01*
X123077386Y-94264714D01*
X123138152Y-94233814D01*
X123171632Y-94206657D01*
X123178990Y-94181220D01*
X123161391Y-94155481D01*
X123146856Y-94144109D01*
X123094410Y-94121364D01*
X123045322Y-94125122D01*
X123004227Y-94152884D01*
X122975758Y-94202152D01*
X122966631Y-94241257D01*
X122963007Y-94281247D01*
X122875372Y-94281247D01*
X122876285Y-94237249D01*
X122883196Y-94170384D01*
X122896884Y-94121695D01*
X122919096Y-94085849D01*
X122951574Y-94057513D01*
X122965733Y-94048355D01*
X123030053Y-94024507D01*
X123100473Y-94023006D01*
X123168595Y-94041966D01*
X123168595Y-94041966D01*
G37*
X123168595Y-94041966D02*
X123226021Y-94079497D01*
X123253719Y-94113096D01*
X123275662Y-94174064D01*
X123277405Y-94222308D01*
X123273457Y-94286816D01*
X123124686Y-94351934D01*
X123052349Y-94385202D01*
X123005084Y-94411964D01*
X122980507Y-94435144D01*
X122976237Y-94457667D01*
X122989889Y-94482455D01*
X123004943Y-94498886D01*
X123048746Y-94525235D01*
X123096389Y-94527081D01*
X123140145Y-94506546D01*
X123172289Y-94465752D01*
X123178038Y-94451347D01*
X123205576Y-94406356D01*
X123237258Y-94387182D01*
X123280714Y-94370779D01*
X123280714Y-94432966D01*
X123276872Y-94475283D01*
X123261823Y-94510969D01*
X123230280Y-94551943D01*
X123225592Y-94557267D01*
X123190506Y-94593720D01*
X123160347Y-94613283D01*
X123122615Y-94622283D01*
X123091335Y-94625230D01*
X123035385Y-94625965D01*
X122995555Y-94616660D01*
X122970708Y-94602846D01*
X122931656Y-94572467D01*
X122904625Y-94539613D01*
X122887517Y-94498294D01*
X122878238Y-94442521D01*
X122874693Y-94366305D01*
X122874410Y-94327622D01*
X122875372Y-94281247D01*
X122963007Y-94281247D01*
X122964023Y-94306126D01*
X122966556Y-94310200D01*
X122983274Y-94304665D01*
X123019249Y-94290017D01*
X123067331Y-94269190D01*
X123077386Y-94264714D01*
X123138152Y-94233814D01*
X123171632Y-94206657D01*
X123178990Y-94181220D01*
X123161391Y-94155481D01*
X123146856Y-94144109D01*
X123094410Y-94121364D01*
X123045322Y-94125122D01*
X123004227Y-94152884D01*
X122975758Y-94202152D01*
X122966631Y-94241257D01*
X122963007Y-94281247D01*
X122875372Y-94281247D01*
X122876285Y-94237249D01*
X122883196Y-94170384D01*
X122896884Y-94121695D01*
X122919096Y-94085849D01*
X122951574Y-94057513D01*
X122965733Y-94048355D01*
X123030053Y-94024507D01*
X123100473Y-94023006D01*
X123168595Y-94041966D01*
G36*
X122667600Y-94033752D02*
X122684948Y-94041334D01*
X122726356Y-94074128D01*
X122761765Y-94121547D01*
X122783664Y-94172151D01*
X122787229Y-94197098D01*
X122775279Y-94231927D01*
X122749067Y-94250357D01*
X122720964Y-94261516D01*
X122708095Y-94263572D01*
X122701829Y-94248649D01*
X122689456Y-94216175D01*
X122684028Y-94201502D01*
X122653590Y-94150744D01*
X122609520Y-94125427D01*
X122553010Y-94126206D01*
X122548825Y-94127203D01*
X122518655Y-94141507D01*
X122496476Y-94169393D01*
X122481327Y-94214287D01*
X122472250Y-94279615D01*
X122468286Y-94368804D01*
X122467914Y-94416261D01*
X122467730Y-94491071D01*
X122466522Y-94542069D01*
X122463309Y-94574471D01*
X122457109Y-94593495D01*
X122446940Y-94604356D01*
X122431819Y-94612272D01*
X122430946Y-94612670D01*
X122401828Y-94624981D01*
X122387403Y-94629514D01*
X122385186Y-94615809D01*
X122383289Y-94577925D01*
X122381847Y-94520715D01*
X122380998Y-94449027D01*
X122380829Y-94396565D01*
X122381692Y-94295047D01*
X122385070Y-94218032D01*
X122392142Y-94161023D01*
X122404088Y-94119526D01*
X122422090Y-94089043D01*
X122447327Y-94065080D01*
X122472247Y-94048355D01*
X122532171Y-94026097D01*
X122601911Y-94021076D01*
X122667600Y-94033752D01*
X122667600Y-94033752D01*
G37*
X122667600Y-94033752D02*
X122684948Y-94041334D01*
X122726356Y-94074128D01*
X122761765Y-94121547D01*
X122783664Y-94172151D01*
X122787229Y-94197098D01*
X122775279Y-94231927D01*
X122749067Y-94250357D01*
X122720964Y-94261516D01*
X122708095Y-94263572D01*
X122701829Y-94248649D01*
X122689456Y-94216175D01*
X122684028Y-94201502D01*
X122653590Y-94150744D01*
X122609520Y-94125427D01*
X122553010Y-94126206D01*
X122548825Y-94127203D01*
X122518655Y-94141507D01*
X122496476Y-94169393D01*
X122481327Y-94214287D01*
X122472250Y-94279615D01*
X122468286Y-94368804D01*
X122467914Y-94416261D01*
X122467730Y-94491071D01*
X122466522Y-94542069D01*
X122463309Y-94574471D01*
X122457109Y-94593495D01*
X122446940Y-94604356D01*
X122431819Y-94612272D01*
X122430946Y-94612670D01*
X122401828Y-94624981D01*
X122387403Y-94629514D01*
X122385186Y-94615809D01*
X122383289Y-94577925D01*
X122381847Y-94520715D01*
X122380998Y-94449027D01*
X122380829Y-94396565D01*
X122381692Y-94295047D01*
X122385070Y-94218032D01*
X122392142Y-94161023D01*
X122404088Y-94119526D01*
X122422090Y-94089043D01*
X122447327Y-94065080D01*
X122472247Y-94048355D01*
X122532171Y-94026097D01*
X122601911Y-94021076D01*
X122667600Y-94033752D01*
G36*
X122159876Y-94031335D02*
X122201667Y-94050344D01*
X122234469Y-94073378D01*
X122258503Y-94099133D01*
X122275097Y-94132358D01*
X122285577Y-94177800D01*
X122291271Y-94240207D01*
X122293507Y-94324327D01*
X122293743Y-94379721D01*
X122293743Y-94595826D01*
X122256774Y-94612670D01*
X122227656Y-94624981D01*
X122213231Y-94629514D01*
X122210472Y-94616025D01*
X122208282Y-94579653D01*
X122206942Y-94526542D01*
X122206657Y-94484372D01*
X122205434Y-94423447D01*
X122202136Y-94375115D01*
X122197321Y-94345518D01*
X122193496Y-94339229D01*
X122167783Y-94345652D01*
X122127418Y-94362125D01*
X122080679Y-94384458D01*
X122035845Y-94408457D01*
X122001193Y-94429930D01*
X121985002Y-94444685D01*
X121984938Y-94444845D01*
X121986330Y-94472152D01*
X121998818Y-94498219D01*
X122020743Y-94519392D01*
X122052743Y-94526474D01*
X122080092Y-94525649D01*
X122118826Y-94525042D01*
X122139158Y-94534116D01*
X122151369Y-94558092D01*
X122152909Y-94562613D01*
X122158203Y-94596806D01*
X122144047Y-94617568D01*
X122107148Y-94627462D01*
X122067289Y-94629292D01*
X121995562Y-94615727D01*
X121958432Y-94596355D01*
X121912576Y-94550845D01*
X121888256Y-94494983D01*
X121886073Y-94435957D01*
X121906629Y-94380953D01*
X121937549Y-94346486D01*
X121968420Y-94327189D01*
X122016942Y-94302759D01*
X122073485Y-94277985D01*
X122082910Y-94274199D01*
X122145019Y-94246791D01*
X122180822Y-94222634D01*
X122192337Y-94198619D01*
X122181580Y-94171635D01*
X122163114Y-94150543D01*
X122119469Y-94124572D01*
X122071446Y-94122624D01*
X122027406Y-94142637D01*
X121995709Y-94182551D01*
X121991549Y-94192848D01*
X121967327Y-94230724D01*
X121931965Y-94258842D01*
X121887343Y-94281917D01*
X121887343Y-94216485D01*
X121889969Y-94176506D01*
X121901230Y-94144997D01*
X121926199Y-94111378D01*
X121950169Y-94085484D01*
X121987441Y-94048817D01*
X122016401Y-94029121D01*
X122047505Y-94021220D01*
X122082713Y-94019914D01*
X122159876Y-94031335D01*
X122159876Y-94031335D01*
G37*
X122159876Y-94031335D02*
X122201667Y-94050344D01*
X122234469Y-94073378D01*
X122258503Y-94099133D01*
X122275097Y-94132358D01*
X122285577Y-94177800D01*
X122291271Y-94240207D01*
X122293507Y-94324327D01*
X122293743Y-94379721D01*
X122293743Y-94595826D01*
X122256774Y-94612670D01*
X122227656Y-94624981D01*
X122213231Y-94629514D01*
X122210472Y-94616025D01*
X122208282Y-94579653D01*
X122206942Y-94526542D01*
X122206657Y-94484372D01*
X122205434Y-94423447D01*
X122202136Y-94375115D01*
X122197321Y-94345518D01*
X122193496Y-94339229D01*
X122167783Y-94345652D01*
X122127418Y-94362125D01*
X122080679Y-94384458D01*
X122035845Y-94408457D01*
X122001193Y-94429930D01*
X121985002Y-94444685D01*
X121984938Y-94444845D01*
X121986330Y-94472152D01*
X121998818Y-94498219D01*
X122020743Y-94519392D01*
X122052743Y-94526474D01*
X122080092Y-94525649D01*
X122118826Y-94525042D01*
X122139158Y-94534116D01*
X122151369Y-94558092D01*
X122152909Y-94562613D01*
X122158203Y-94596806D01*
X122144047Y-94617568D01*
X122107148Y-94627462D01*
X122067289Y-94629292D01*
X121995562Y-94615727D01*
X121958432Y-94596355D01*
X121912576Y-94550845D01*
X121888256Y-94494983D01*
X121886073Y-94435957D01*
X121906629Y-94380953D01*
X121937549Y-94346486D01*
X121968420Y-94327189D01*
X122016942Y-94302759D01*
X122073485Y-94277985D01*
X122082910Y-94274199D01*
X122145019Y-94246791D01*
X122180822Y-94222634D01*
X122192337Y-94198619D01*
X122181580Y-94171635D01*
X122163114Y-94150543D01*
X122119469Y-94124572D01*
X122071446Y-94122624D01*
X122027406Y-94142637D01*
X121995709Y-94182551D01*
X121991549Y-94192848D01*
X121967327Y-94230724D01*
X121931965Y-94258842D01*
X121887343Y-94281917D01*
X121887343Y-94216485D01*
X121889969Y-94176506D01*
X121901230Y-94144997D01*
X121926199Y-94111378D01*
X121950169Y-94085484D01*
X121987441Y-94048817D01*
X122016401Y-94029121D01*
X122047505Y-94021220D01*
X122082713Y-94019914D01*
X122159876Y-94031335D01*
G36*
X121794833Y-94033663D02*
X121797048Y-94071850D01*
X121798784Y-94129886D01*
X121799899Y-94203180D01*
X121800257Y-94280055D01*
X121800257Y-94540196D01*
X121754326Y-94586127D01*
X121722675Y-94614429D01*
X121694890Y-94625893D01*
X121656915Y-94625168D01*
X121641840Y-94623321D01*
X121594726Y-94617948D01*
X121555756Y-94614869D01*
X121546257Y-94614585D01*
X121514233Y-94616445D01*
X121468432Y-94621114D01*
X121450674Y-94623321D01*
X121407057Y-94626735D01*
X121377745Y-94619320D01*
X121348680Y-94596427D01*
X121338188Y-94586127D01*
X121292257Y-94540196D01*
X121292257Y-94053602D01*
X121329226Y-94036758D01*
X121361059Y-94024282D01*
X121379683Y-94019914D01*
X121384458Y-94033718D01*
X121388921Y-94072286D01*
X121392775Y-94131356D01*
X121395722Y-94206663D01*
X121397143Y-94270286D01*
X121401114Y-94520657D01*
X121435759Y-94525556D01*
X121467268Y-94522131D01*
X121482708Y-94511041D01*
X121487023Y-94490308D01*
X121490708Y-94446145D01*
X121493469Y-94384146D01*
X121495012Y-94309909D01*
X121495235Y-94271706D01*
X121495457Y-94051783D01*
X121541166Y-94035849D01*
X121573518Y-94025015D01*
X121591115Y-94019962D01*
X121591623Y-94019914D01*
X121593388Y-94033648D01*
X121595329Y-94071730D01*
X121597282Y-94129482D01*
X121599084Y-94202227D01*
X121600343Y-94270286D01*
X121604314Y-94520657D01*
X121691400Y-94520657D01*
X121695396Y-94292240D01*
X121699392Y-94063822D01*
X121741847Y-94041868D01*
X121773192Y-94026793D01*
X121791744Y-94019951D01*
X121792279Y-94019914D01*
X121794833Y-94033663D01*
X121794833Y-94033663D01*
G37*
X121794833Y-94033663D02*
X121797048Y-94071850D01*
X121798784Y-94129886D01*
X121799899Y-94203180D01*
X121800257Y-94280055D01*
X121800257Y-94540196D01*
X121754326Y-94586127D01*
X121722675Y-94614429D01*
X121694890Y-94625893D01*
X121656915Y-94625168D01*
X121641840Y-94623321D01*
X121594726Y-94617948D01*
X121555756Y-94614869D01*
X121546257Y-94614585D01*
X121514233Y-94616445D01*
X121468432Y-94621114D01*
X121450674Y-94623321D01*
X121407057Y-94626735D01*
X121377745Y-94619320D01*
X121348680Y-94596427D01*
X121338188Y-94586127D01*
X121292257Y-94540196D01*
X121292257Y-94053602D01*
X121329226Y-94036758D01*
X121361059Y-94024282D01*
X121379683Y-94019914D01*
X121384458Y-94033718D01*
X121388921Y-94072286D01*
X121392775Y-94131356D01*
X121395722Y-94206663D01*
X121397143Y-94270286D01*
X121401114Y-94520657D01*
X121435759Y-94525556D01*
X121467268Y-94522131D01*
X121482708Y-94511041D01*
X121487023Y-94490308D01*
X121490708Y-94446145D01*
X121493469Y-94384146D01*
X121495012Y-94309909D01*
X121495235Y-94271706D01*
X121495457Y-94051783D01*
X121541166Y-94035849D01*
X121573518Y-94025015D01*
X121591115Y-94019962D01*
X121591623Y-94019914D01*
X121593388Y-94033648D01*
X121595329Y-94071730D01*
X121597282Y-94129482D01*
X121599084Y-94202227D01*
X121600343Y-94270286D01*
X121604314Y-94520657D01*
X121691400Y-94520657D01*
X121695396Y-94292240D01*
X121699392Y-94063822D01*
X121741847Y-94041868D01*
X121773192Y-94026793D01*
X121791744Y-94019951D01*
X121792279Y-94019914D01*
X121794833Y-94033663D01*
G36*
X121205117Y-94140358D02*
X121204933Y-94248837D01*
X121204219Y-94332287D01*
X121202675Y-94394704D01*
X121200001Y-94440085D01*
X121195894Y-94472429D01*
X121190055Y-94495733D01*
X121182182Y-94513995D01*
X121176221Y-94524418D01*
X121126855Y-94580945D01*
X121064264Y-94616377D01*
X120995013Y-94629090D01*
X120925668Y-94617463D01*
X120884375Y-94596568D01*
X120841025Y-94560422D01*
X120811481Y-94516276D01*
X120793655Y-94458462D01*
X120785463Y-94381313D01*
X120784302Y-94324714D01*
X120784458Y-94320647D01*
X120885857Y-94320647D01*
X120886476Y-94385550D01*
X120889314Y-94428514D01*
X120895840Y-94456622D01*
X120907523Y-94476953D01*
X120921483Y-94492288D01*
X120968365Y-94521890D01*
X121018701Y-94524419D01*
X121066276Y-94499705D01*
X121069979Y-94496356D01*
X121085783Y-94478935D01*
X121095693Y-94458209D01*
X121101058Y-94427362D01*
X121103228Y-94379577D01*
X121103571Y-94326748D01*
X121102827Y-94260381D01*
X121099748Y-94216106D01*
X121093061Y-94187009D01*
X121081496Y-94166173D01*
X121072013Y-94155107D01*
X121027960Y-94127198D01*
X120977224Y-94123843D01*
X120928796Y-94145159D01*
X120919450Y-94153073D01*
X120903540Y-94170647D01*
X120893610Y-94191587D01*
X120888278Y-94222782D01*
X120886163Y-94271122D01*
X120885857Y-94320647D01*
X120784458Y-94320647D01*
X120787810Y-94233568D01*
X120799726Y-94165086D01*
X120822135Y-94113600D01*
X120857124Y-94073443D01*
X120884375Y-94052861D01*
X120933907Y-94030625D01*
X120991316Y-94020304D01*
X121044682Y-94023067D01*
X121074543Y-94034212D01*
X121086261Y-94037383D01*
X121094037Y-94025557D01*
X121099465Y-93993866D01*
X121103571Y-93945593D01*
X121108067Y-93891829D01*
X121114313Y-93859482D01*
X121125676Y-93840985D01*
X121145528Y-93828770D01*
X121158000Y-93823362D01*
X121205171Y-93803601D01*
X121205117Y-94140358D01*
X121205117Y-94140358D01*
G37*
X121205117Y-94140358D02*
X121204933Y-94248837D01*
X121204219Y-94332287D01*
X121202675Y-94394704D01*
X121200001Y-94440085D01*
X121195894Y-94472429D01*
X121190055Y-94495733D01*
X121182182Y-94513995D01*
X121176221Y-94524418D01*
X121126855Y-94580945D01*
X121064264Y-94616377D01*
X120995013Y-94629090D01*
X120925668Y-94617463D01*
X120884375Y-94596568D01*
X120841025Y-94560422D01*
X120811481Y-94516276D01*
X120793655Y-94458462D01*
X120785463Y-94381313D01*
X120784302Y-94324714D01*
X120784458Y-94320647D01*
X120885857Y-94320647D01*
X120886476Y-94385550D01*
X120889314Y-94428514D01*
X120895840Y-94456622D01*
X120907523Y-94476953D01*
X120921483Y-94492288D01*
X120968365Y-94521890D01*
X121018701Y-94524419D01*
X121066276Y-94499705D01*
X121069979Y-94496356D01*
X121085783Y-94478935D01*
X121095693Y-94458209D01*
X121101058Y-94427362D01*
X121103228Y-94379577D01*
X121103571Y-94326748D01*
X121102827Y-94260381D01*
X121099748Y-94216106D01*
X121093061Y-94187009D01*
X121081496Y-94166173D01*
X121072013Y-94155107D01*
X121027960Y-94127198D01*
X120977224Y-94123843D01*
X120928796Y-94145159D01*
X120919450Y-94153073D01*
X120903540Y-94170647D01*
X120893610Y-94191587D01*
X120888278Y-94222782D01*
X120886163Y-94271122D01*
X120885857Y-94320647D01*
X120784458Y-94320647D01*
X120787810Y-94233568D01*
X120799726Y-94165086D01*
X120822135Y-94113600D01*
X120857124Y-94073443D01*
X120884375Y-94052861D01*
X120933907Y-94030625D01*
X120991316Y-94020304D01*
X121044682Y-94023067D01*
X121074543Y-94034212D01*
X121086261Y-94037383D01*
X121094037Y-94025557D01*
X121099465Y-93993866D01*
X121103571Y-93945593D01*
X121108067Y-93891829D01*
X121114313Y-93859482D01*
X121125676Y-93840985D01*
X121145528Y-93828770D01*
X121158000Y-93823362D01*
X121205171Y-93803601D01*
X121205117Y-94140358D01*
G36*
X120544926Y-94024755D02*
X120610858Y-94049084D01*
X120664273Y-94092117D01*
X120685164Y-94122409D01*
X120707939Y-94177994D01*
X120707466Y-94218186D01*
X120683562Y-94245217D01*
X120674717Y-94249813D01*
X120636530Y-94264144D01*
X120617028Y-94260472D01*
X120610422Y-94236407D01*
X120610086Y-94223114D01*
X120597992Y-94174210D01*
X120566471Y-94139999D01*
X120522659Y-94123476D01*
X120473695Y-94127634D01*
X120433894Y-94149227D01*
X120420450Y-94161544D01*
X120410921Y-94176487D01*
X120404485Y-94199075D01*
X120400317Y-94234328D01*
X120397597Y-94287266D01*
X120395502Y-94362907D01*
X120394960Y-94386857D01*
X120392981Y-94468790D01*
X120390731Y-94526455D01*
X120387357Y-94564608D01*
X120382006Y-94588004D01*
X120373824Y-94601398D01*
X120361959Y-94609545D01*
X120354362Y-94613144D01*
X120322102Y-94625452D01*
X120303111Y-94629514D01*
X120296836Y-94615948D01*
X120293006Y-94574934D01*
X120291600Y-94505999D01*
X120292598Y-94408669D01*
X120292908Y-94393657D01*
X120295101Y-94304859D01*
X120297693Y-94240019D01*
X120301382Y-94194067D01*
X120306864Y-94161935D01*
X120314835Y-94138553D01*
X120325993Y-94118852D01*
X120331830Y-94110410D01*
X120365296Y-94073057D01*
X120402727Y-94044003D01*
X120407309Y-94041467D01*
X120474426Y-94021443D01*
X120544926Y-94024755D01*
X120544926Y-94024755D01*
G37*
X120544926Y-94024755D02*
X120610858Y-94049084D01*
X120664273Y-94092117D01*
X120685164Y-94122409D01*
X120707939Y-94177994D01*
X120707466Y-94218186D01*
X120683562Y-94245217D01*
X120674717Y-94249813D01*
X120636530Y-94264144D01*
X120617028Y-94260472D01*
X120610422Y-94236407D01*
X120610086Y-94223114D01*
X120597992Y-94174210D01*
X120566471Y-94139999D01*
X120522659Y-94123476D01*
X120473695Y-94127634D01*
X120433894Y-94149227D01*
X120420450Y-94161544D01*
X120410921Y-94176487D01*
X120404485Y-94199075D01*
X120400317Y-94234328D01*
X120397597Y-94287266D01*
X120395502Y-94362907D01*
X120394960Y-94386857D01*
X120392981Y-94468790D01*
X120390731Y-94526455D01*
X120387357Y-94564608D01*
X120382006Y-94588004D01*
X120373824Y-94601398D01*
X120361959Y-94609545D01*
X120354362Y-94613144D01*
X120322102Y-94625452D01*
X120303111Y-94629514D01*
X120296836Y-94615948D01*
X120293006Y-94574934D01*
X120291600Y-94505999D01*
X120292598Y-94408669D01*
X120292908Y-94393657D01*
X120295101Y-94304859D01*
X120297693Y-94240019D01*
X120301382Y-94194067D01*
X120306864Y-94161935D01*
X120314835Y-94138553D01*
X120325993Y-94118852D01*
X120331830Y-94110410D01*
X120365296Y-94073057D01*
X120402727Y-94044003D01*
X120407309Y-94041467D01*
X120474426Y-94021443D01*
X120544926Y-94024755D01*
G36*
X120054744Y-94025968D02*
X120111616Y-94047087D01*
X120112267Y-94047493D01*
X120147440Y-94073380D01*
X120173407Y-94103633D01*
X120191670Y-94143058D01*
X120203732Y-94196462D01*
X120211096Y-94268651D01*
X120215264Y-94364432D01*
X120215629Y-94378078D01*
X120220876Y-94583842D01*
X120176716Y-94606678D01*
X120144763Y-94622110D01*
X120125470Y-94629423D01*
X120124578Y-94629514D01*
X120121239Y-94616022D01*
X120118587Y-94579626D01*
X120116956Y-94526452D01*
X120116600Y-94483393D01*
X120116592Y-94413641D01*
X120113403Y-94369837D01*
X120102288Y-94348944D01*
X120078501Y-94347925D01*
X120037296Y-94363741D01*
X119975086Y-94392815D01*
X119929341Y-94416963D01*
X119905813Y-94437913D01*
X119898896Y-94460747D01*
X119898886Y-94461877D01*
X119910299Y-94501212D01*
X119944092Y-94522462D01*
X119995809Y-94525539D01*
X120033061Y-94525006D01*
X120052703Y-94535735D01*
X120064952Y-94561505D01*
X120072002Y-94594337D01*
X120061842Y-94612966D01*
X120058017Y-94615632D01*
X120022001Y-94626340D01*
X119971566Y-94627856D01*
X119919626Y-94620759D01*
X119882822Y-94607788D01*
X119831938Y-94564585D01*
X119803014Y-94504446D01*
X119797286Y-94457462D01*
X119801657Y-94415082D01*
X119817475Y-94380488D01*
X119848797Y-94349763D01*
X119899678Y-94318990D01*
X119974176Y-94284252D01*
X119978714Y-94282288D01*
X120045821Y-94251287D01*
X120087232Y-94225862D01*
X120104981Y-94203014D01*
X120101107Y-94179745D01*
X120077643Y-94153056D01*
X120070627Y-94146914D01*
X120023630Y-94123100D01*
X119974933Y-94124103D01*
X119932522Y-94147451D01*
X119904384Y-94190675D01*
X119901769Y-94199160D01*
X119876308Y-94240308D01*
X119844001Y-94260128D01*
X119797286Y-94279770D01*
X119797286Y-94228950D01*
X119811496Y-94155082D01*
X119853675Y-94087327D01*
X119875624Y-94064661D01*
X119925517Y-94035569D01*
X119988967Y-94022400D01*
X120054744Y-94025968D01*
X120054744Y-94025968D01*
G37*
X120054744Y-94025968D02*
X120111616Y-94047087D01*
X120112267Y-94047493D01*
X120147440Y-94073380D01*
X120173407Y-94103633D01*
X120191670Y-94143058D01*
X120203732Y-94196462D01*
X120211096Y-94268651D01*
X120215264Y-94364432D01*
X120215629Y-94378078D01*
X120220876Y-94583842D01*
X120176716Y-94606678D01*
X120144763Y-94622110D01*
X120125470Y-94629423D01*
X120124578Y-94629514D01*
X120121239Y-94616022D01*
X120118587Y-94579626D01*
X120116956Y-94526452D01*
X120116600Y-94483393D01*
X120116592Y-94413641D01*
X120113403Y-94369837D01*
X120102288Y-94348944D01*
X120078501Y-94347925D01*
X120037296Y-94363741D01*
X119975086Y-94392815D01*
X119929341Y-94416963D01*
X119905813Y-94437913D01*
X119898896Y-94460747D01*
X119898886Y-94461877D01*
X119910299Y-94501212D01*
X119944092Y-94522462D01*
X119995809Y-94525539D01*
X120033061Y-94525006D01*
X120052703Y-94535735D01*
X120064952Y-94561505D01*
X120072002Y-94594337D01*
X120061842Y-94612966D01*
X120058017Y-94615632D01*
X120022001Y-94626340D01*
X119971566Y-94627856D01*
X119919626Y-94620759D01*
X119882822Y-94607788D01*
X119831938Y-94564585D01*
X119803014Y-94504446D01*
X119797286Y-94457462D01*
X119801657Y-94415082D01*
X119817475Y-94380488D01*
X119848797Y-94349763D01*
X119899678Y-94318990D01*
X119974176Y-94284252D01*
X119978714Y-94282288D01*
X120045821Y-94251287D01*
X120087232Y-94225862D01*
X120104981Y-94203014D01*
X120101107Y-94179745D01*
X120077643Y-94153056D01*
X120070627Y-94146914D01*
X120023630Y-94123100D01*
X119974933Y-94124103D01*
X119932522Y-94147451D01*
X119904384Y-94190675D01*
X119901769Y-94199160D01*
X119876308Y-94240308D01*
X119844001Y-94260128D01*
X119797286Y-94279770D01*
X119797286Y-94228950D01*
X119811496Y-94155082D01*
X119853675Y-94087327D01*
X119875624Y-94064661D01*
X119925517Y-94035569D01*
X119988967Y-94022400D01*
X120054744Y-94025968D01*
G36*
X119390886Y-93926289D02*
X119395139Y-93985613D01*
X119400025Y-94020572D01*
X119406795Y-94035820D01*
X119416702Y-94036015D01*
X119419914Y-94034195D01*
X119462644Y-94021015D01*
X119518227Y-94021785D01*
X119574737Y-94035333D01*
X119610082Y-94052861D01*
X119646321Y-94080861D01*
X119672813Y-94112549D01*
X119690999Y-94152813D01*
X119702322Y-94206543D01*
X119708222Y-94278626D01*
X119710143Y-94373951D01*
X119710177Y-94392237D01*
X119710200Y-94597646D01*
X119664491Y-94613580D01*
X119632027Y-94624420D01*
X119614215Y-94629468D01*
X119613691Y-94629514D01*
X119611937Y-94615828D01*
X119610444Y-94578076D01*
X119609326Y-94521224D01*
X119608697Y-94450234D01*
X119608600Y-94407073D01*
X119608398Y-94321973D01*
X119607358Y-94260981D01*
X119604831Y-94219177D01*
X119600164Y-94191642D01*
X119592707Y-94173456D01*
X119581811Y-94159698D01*
X119575007Y-94153073D01*
X119528272Y-94126375D01*
X119477272Y-94124375D01*
X119431001Y-94146955D01*
X119422444Y-94155107D01*
X119409893Y-94170436D01*
X119401188Y-94188618D01*
X119395631Y-94214909D01*
X119392526Y-94254562D01*
X119391176Y-94312832D01*
X119390886Y-94393173D01*
X119390886Y-94597646D01*
X119345177Y-94613580D01*
X119312713Y-94624420D01*
X119294901Y-94629468D01*
X119294377Y-94629514D01*
X119293037Y-94615623D01*
X119291828Y-94576439D01*
X119290801Y-94515700D01*
X119290002Y-94437141D01*
X119289481Y-94344498D01*
X119289286Y-94241509D01*
X119289286Y-93844342D01*
X119336457Y-93824444D01*
X119383629Y-93804547D01*
X119390886Y-93926289D01*
X119390886Y-93926289D01*
G37*
X119390886Y-93926289D02*
X119395139Y-93985613D01*
X119400025Y-94020572D01*
X119406795Y-94035820D01*
X119416702Y-94036015D01*
X119419914Y-94034195D01*
X119462644Y-94021015D01*
X119518227Y-94021785D01*
X119574737Y-94035333D01*
X119610082Y-94052861D01*
X119646321Y-94080861D01*
X119672813Y-94112549D01*
X119690999Y-94152813D01*
X119702322Y-94206543D01*
X119708222Y-94278626D01*
X119710143Y-94373951D01*
X119710177Y-94392237D01*
X119710200Y-94597646D01*
X119664491Y-94613580D01*
X119632027Y-94624420D01*
X119614215Y-94629468D01*
X119613691Y-94629514D01*
X119611937Y-94615828D01*
X119610444Y-94578076D01*
X119609326Y-94521224D01*
X119608697Y-94450234D01*
X119608600Y-94407073D01*
X119608398Y-94321973D01*
X119607358Y-94260981D01*
X119604831Y-94219177D01*
X119600164Y-94191642D01*
X119592707Y-94173456D01*
X119581811Y-94159698D01*
X119575007Y-94153073D01*
X119528272Y-94126375D01*
X119477272Y-94124375D01*
X119431001Y-94146955D01*
X119422444Y-94155107D01*
X119409893Y-94170436D01*
X119401188Y-94188618D01*
X119395631Y-94214909D01*
X119392526Y-94254562D01*
X119391176Y-94312832D01*
X119390886Y-94393173D01*
X119390886Y-94597646D01*
X119345177Y-94613580D01*
X119312713Y-94624420D01*
X119294901Y-94629468D01*
X119294377Y-94629514D01*
X119293037Y-94615623D01*
X119291828Y-94576439D01*
X119290801Y-94515700D01*
X119290002Y-94437141D01*
X119289481Y-94344498D01*
X119289286Y-94241509D01*
X119289286Y-93844342D01*
X119336457Y-93824444D01*
X119383629Y-93804547D01*
X119390886Y-93926289D01*
G36*
X118183303Y-94006239D02*
X118240527Y-94044735D01*
X118284749Y-94100335D01*
X118311167Y-94171086D01*
X118316510Y-94223162D01*
X118315903Y-94244893D01*
X118310822Y-94261531D01*
X118296855Y-94276437D01*
X118269589Y-94292973D01*
X118224612Y-94314498D01*
X118157511Y-94344374D01*
X118157171Y-94344524D01*
X118095407Y-94372813D01*
X118044759Y-94397933D01*
X118010404Y-94417179D01*
X117997518Y-94427848D01*
X117997514Y-94427934D01*
X118008872Y-94451166D01*
X118035431Y-94476774D01*
X118065923Y-94495221D01*
X118081370Y-94498886D01*
X118123515Y-94486212D01*
X118159808Y-94454471D01*
X118177517Y-94419572D01*
X118194552Y-94393845D01*
X118227922Y-94364546D01*
X118267149Y-94339235D01*
X118301756Y-94325471D01*
X118308993Y-94324714D01*
X118317139Y-94337160D01*
X118317630Y-94368972D01*
X118311643Y-94411866D01*
X118300357Y-94457558D01*
X118284950Y-94497761D01*
X118284171Y-94499322D01*
X118237804Y-94564062D01*
X118177711Y-94608097D01*
X118109465Y-94629711D01*
X118038638Y-94627185D01*
X117970804Y-94598804D01*
X117967788Y-94596808D01*
X117914427Y-94548448D01*
X117879340Y-94485352D01*
X117859922Y-94402387D01*
X117857316Y-94379078D01*
X117852701Y-94269055D01*
X117858233Y-94217748D01*
X117997514Y-94217748D01*
X117999324Y-94249753D01*
X118009222Y-94259093D01*
X118033898Y-94252105D01*
X118072795Y-94235587D01*
X118116275Y-94214881D01*
X118117356Y-94214333D01*
X118154209Y-94194949D01*
X118169000Y-94182013D01*
X118165353Y-94168451D01*
X118149995Y-94150632D01*
X118110923Y-94124845D01*
X118068846Y-94122950D01*
X118031103Y-94141717D01*
X118005034Y-94177915D01*
X117997514Y-94217748D01*
X117858233Y-94217748D01*
X117862194Y-94181027D01*
X117886550Y-94111212D01*
X117920456Y-94062302D01*
X117981653Y-94012878D01*
X118049063Y-93988359D01*
X118117880Y-93986797D01*
X118183303Y-94006239D01*
X118183303Y-94006239D01*
G37*
X118183303Y-94006239D02*
X118240527Y-94044735D01*
X118284749Y-94100335D01*
X118311167Y-94171086D01*
X118316510Y-94223162D01*
X118315903Y-94244893D01*
X118310822Y-94261531D01*
X118296855Y-94276437D01*
X118269589Y-94292973D01*
X118224612Y-94314498D01*
X118157511Y-94344374D01*
X118157171Y-94344524D01*
X118095407Y-94372813D01*
X118044759Y-94397933D01*
X118010404Y-94417179D01*
X117997518Y-94427848D01*
X117997514Y-94427934D01*
X118008872Y-94451166D01*
X118035431Y-94476774D01*
X118065923Y-94495221D01*
X118081370Y-94498886D01*
X118123515Y-94486212D01*
X118159808Y-94454471D01*
X118177517Y-94419572D01*
X118194552Y-94393845D01*
X118227922Y-94364546D01*
X118267149Y-94339235D01*
X118301756Y-94325471D01*
X118308993Y-94324714D01*
X118317139Y-94337160D01*
X118317630Y-94368972D01*
X118311643Y-94411866D01*
X118300357Y-94457558D01*
X118284950Y-94497761D01*
X118284171Y-94499322D01*
X118237804Y-94564062D01*
X118177711Y-94608097D01*
X118109465Y-94629711D01*
X118038638Y-94627185D01*
X117970804Y-94598804D01*
X117967788Y-94596808D01*
X117914427Y-94548448D01*
X117879340Y-94485352D01*
X117859922Y-94402387D01*
X117857316Y-94379078D01*
X117852701Y-94269055D01*
X117858233Y-94217748D01*
X117997514Y-94217748D01*
X117999324Y-94249753D01*
X118009222Y-94259093D01*
X118033898Y-94252105D01*
X118072795Y-94235587D01*
X118116275Y-94214881D01*
X118117356Y-94214333D01*
X118154209Y-94194949D01*
X118169000Y-94182013D01*
X118165353Y-94168451D01*
X118149995Y-94150632D01*
X118110923Y-94124845D01*
X118068846Y-94122950D01*
X118031103Y-94141717D01*
X118005034Y-94177915D01*
X117997514Y-94217748D01*
X117858233Y-94217748D01*
X117862194Y-94181027D01*
X117886550Y-94111212D01*
X117920456Y-94062302D01*
X117981653Y-94012878D01*
X118049063Y-93988359D01*
X118117880Y-93986797D01*
X118183303Y-94006239D01*
G36*
X117056115Y-93996962D02*
X117124145Y-94032733D01*
X117174351Y-94090301D01*
X117192185Y-94127312D01*
X117206063Y-94182882D01*
X117213167Y-94253096D01*
X117213840Y-94329727D01*
X117208427Y-94404552D01*
X117197270Y-94469342D01*
X117180714Y-94515873D01*
X117175626Y-94523887D01*
X117115355Y-94583707D01*
X117043769Y-94619535D01*
X116966092Y-94630020D01*
X116887548Y-94613810D01*
X116865689Y-94604092D01*
X116823122Y-94574143D01*
X116785763Y-94534433D01*
X116782232Y-94529397D01*
X116767881Y-94505124D01*
X116758394Y-94479178D01*
X116752790Y-94445022D01*
X116750086Y-94396119D01*
X116749299Y-94325935D01*
X116749286Y-94310200D01*
X116749322Y-94305192D01*
X116894429Y-94305192D01*
X116895273Y-94371430D01*
X116898596Y-94415386D01*
X116905583Y-94443779D01*
X116917416Y-94463325D01*
X116923457Y-94469857D01*
X116958186Y-94494680D01*
X116991903Y-94493548D01*
X117025995Y-94472016D01*
X117046329Y-94449029D01*
X117058371Y-94415478D01*
X117065134Y-94362569D01*
X117065598Y-94356399D01*
X117066752Y-94260513D01*
X117054688Y-94189299D01*
X117029570Y-94143194D01*
X116991560Y-94122635D01*
X116977992Y-94121514D01*
X116942364Y-94127152D01*
X116917994Y-94146686D01*
X116903093Y-94184042D01*
X116895875Y-94243150D01*
X116894429Y-94305192D01*
X116749322Y-94305192D01*
X116749826Y-94235413D01*
X116752096Y-94183159D01*
X116757068Y-94146949D01*
X116765713Y-94120299D01*
X116779005Y-94096722D01*
X116781943Y-94092338D01*
X116831313Y-94033249D01*
X116885109Y-93998947D01*
X116950602Y-93985331D01*
X116972842Y-93984665D01*
X117056115Y-93996962D01*
X117056115Y-93996962D01*
G37*
X117056115Y-93996962D02*
X117124145Y-94032733D01*
X117174351Y-94090301D01*
X117192185Y-94127312D01*
X117206063Y-94182882D01*
X117213167Y-94253096D01*
X117213840Y-94329727D01*
X117208427Y-94404552D01*
X117197270Y-94469342D01*
X117180714Y-94515873D01*
X117175626Y-94523887D01*
X117115355Y-94583707D01*
X117043769Y-94619535D01*
X116966092Y-94630020D01*
X116887548Y-94613810D01*
X116865689Y-94604092D01*
X116823122Y-94574143D01*
X116785763Y-94534433D01*
X116782232Y-94529397D01*
X116767881Y-94505124D01*
X116758394Y-94479178D01*
X116752790Y-94445022D01*
X116750086Y-94396119D01*
X116749299Y-94325935D01*
X116749286Y-94310200D01*
X116749322Y-94305192D01*
X116894429Y-94305192D01*
X116895273Y-94371430D01*
X116898596Y-94415386D01*
X116905583Y-94443779D01*
X116917416Y-94463325D01*
X116923457Y-94469857D01*
X116958186Y-94494680D01*
X116991903Y-94493548D01*
X117025995Y-94472016D01*
X117046329Y-94449029D01*
X117058371Y-94415478D01*
X117065134Y-94362569D01*
X117065598Y-94356399D01*
X117066752Y-94260513D01*
X117054688Y-94189299D01*
X117029570Y-94143194D01*
X116991560Y-94122635D01*
X116977992Y-94121514D01*
X116942364Y-94127152D01*
X116917994Y-94146686D01*
X116903093Y-94184042D01*
X116895875Y-94243150D01*
X116894429Y-94305192D01*
X116749322Y-94305192D01*
X116749826Y-94235413D01*
X116752096Y-94183159D01*
X116757068Y-94146949D01*
X116765713Y-94120299D01*
X116779005Y-94096722D01*
X116781943Y-94092338D01*
X116831313Y-94033249D01*
X116885109Y-93998947D01*
X116950602Y-93985331D01*
X116972842Y-93984665D01*
X117056115Y-93996962D01*
G36*
X118731093Y-94002780D02*
X118777672Y-94029723D01*
X118810057Y-94056466D01*
X118833742Y-94084484D01*
X118850059Y-94118748D01*
X118860339Y-94164227D01*
X118865914Y-94225892D01*
X118868116Y-94308711D01*
X118868371Y-94368246D01*
X118868371Y-94587391D01*
X118806686Y-94615044D01*
X118745000Y-94642697D01*
X118737743Y-94402670D01*
X118734744Y-94313028D01*
X118731598Y-94247962D01*
X118727701Y-94203026D01*
X118722447Y-94173770D01*
X118715231Y-94155748D01*
X118705450Y-94144511D01*
X118702312Y-94142079D01*
X118654761Y-94123083D01*
X118606697Y-94130600D01*
X118578086Y-94150543D01*
X118566447Y-94164675D01*
X118558391Y-94183220D01*
X118553271Y-94211334D01*
X118550441Y-94254173D01*
X118549256Y-94316895D01*
X118549057Y-94382261D01*
X118549018Y-94464268D01*
X118547614Y-94522316D01*
X118542914Y-94561465D01*
X118532987Y-94586780D01*
X118515903Y-94603323D01*
X118489732Y-94616156D01*
X118454775Y-94629491D01*
X118416596Y-94644007D01*
X118421141Y-94386389D01*
X118422971Y-94293519D01*
X118425112Y-94224889D01*
X118428181Y-94175711D01*
X118432794Y-94141198D01*
X118439568Y-94116562D01*
X118449119Y-94097016D01*
X118460634Y-94079770D01*
X118516190Y-94024680D01*
X118583980Y-93992822D01*
X118657713Y-93985191D01*
X118731093Y-94002780D01*
X118731093Y-94002780D01*
G37*
X118731093Y-94002780D02*
X118777672Y-94029723D01*
X118810057Y-94056466D01*
X118833742Y-94084484D01*
X118850059Y-94118748D01*
X118860339Y-94164227D01*
X118865914Y-94225892D01*
X118868116Y-94308711D01*
X118868371Y-94368246D01*
X118868371Y-94587391D01*
X118806686Y-94615044D01*
X118745000Y-94642697D01*
X118737743Y-94402670D01*
X118734744Y-94313028D01*
X118731598Y-94247962D01*
X118727701Y-94203026D01*
X118722447Y-94173770D01*
X118715231Y-94155748D01*
X118705450Y-94144511D01*
X118702312Y-94142079D01*
X118654761Y-94123083D01*
X118606697Y-94130600D01*
X118578086Y-94150543D01*
X118566447Y-94164675D01*
X118558391Y-94183220D01*
X118553271Y-94211334D01*
X118550441Y-94254173D01*
X118549256Y-94316895D01*
X118549057Y-94382261D01*
X118549018Y-94464268D01*
X118547614Y-94522316D01*
X118542914Y-94561465D01*
X118532987Y-94586780D01*
X118515903Y-94603323D01*
X118489732Y-94616156D01*
X118454775Y-94629491D01*
X118416596Y-94644007D01*
X118421141Y-94386389D01*
X118422971Y-94293519D01*
X118425112Y-94224889D01*
X118428181Y-94175711D01*
X118432794Y-94141198D01*
X118439568Y-94116562D01*
X118449119Y-94097016D01*
X118460634Y-94079770D01*
X118516190Y-94024680D01*
X118583980Y-93992822D01*
X118657713Y-93985191D01*
X118731093Y-94002780D01*
G36*
X117614744Y-93994918D02*
X117670201Y-94022568D01*
X117719148Y-94073480D01*
X117732629Y-94092338D01*
X117747314Y-94117015D01*
X117756842Y-94143816D01*
X117762293Y-94179587D01*
X117764747Y-94231169D01*
X117765286Y-94299267D01*
X117762852Y-94392588D01*
X117754394Y-94462657D01*
X117738174Y-94514931D01*
X117712454Y-94554869D01*
X117675497Y-94587929D01*
X117672782Y-94589886D01*
X117636360Y-94609908D01*
X117592502Y-94619815D01*
X117536724Y-94622257D01*
X117446048Y-94622257D01*
X117446010Y-94710283D01*
X117445166Y-94759308D01*
X117440024Y-94788065D01*
X117426587Y-94805311D01*
X117400858Y-94819808D01*
X117394679Y-94822769D01*
X117365764Y-94836648D01*
X117343376Y-94845414D01*
X117326729Y-94846171D01*
X117315036Y-94836023D01*
X117307510Y-94812073D01*
X117303366Y-94771426D01*
X117301815Y-94711186D01*
X117302071Y-94628455D01*
X117303349Y-94520339D01*
X117303748Y-94488000D01*
X117305185Y-94376524D01*
X117306472Y-94303603D01*
X117445971Y-94303603D01*
X117446755Y-94365499D01*
X117450240Y-94405997D01*
X117458124Y-94432708D01*
X117472105Y-94453244D01*
X117481597Y-94463260D01*
X117520404Y-94492567D01*
X117554763Y-94494952D01*
X117590216Y-94470750D01*
X117591114Y-94469857D01*
X117605539Y-94451153D01*
X117614313Y-94425732D01*
X117618739Y-94386584D01*
X117620118Y-94326697D01*
X117620143Y-94313430D01*
X117616812Y-94230901D01*
X117605969Y-94173691D01*
X117586340Y-94138766D01*
X117556650Y-94123094D01*
X117539491Y-94121514D01*
X117498766Y-94128926D01*
X117470832Y-94153330D01*
X117454017Y-94197980D01*
X117446650Y-94266130D01*
X117445971Y-94303603D01*
X117306472Y-94303603D01*
X117306708Y-94290245D01*
X117308677Y-94225333D01*
X117311450Y-94177958D01*
X117315388Y-94144290D01*
X117320849Y-94120498D01*
X117328192Y-94102753D01*
X117337777Y-94087224D01*
X117341887Y-94081381D01*
X117396405Y-94026185D01*
X117465336Y-93994890D01*
X117545072Y-93986165D01*
X117614744Y-93994918D01*
X117614744Y-93994918D01*
G37*
X117614744Y-93994918D02*
X117670201Y-94022568D01*
X117719148Y-94073480D01*
X117732629Y-94092338D01*
X117747314Y-94117015D01*
X117756842Y-94143816D01*
X117762293Y-94179587D01*
X117764747Y-94231169D01*
X117765286Y-94299267D01*
X117762852Y-94392588D01*
X117754394Y-94462657D01*
X117738174Y-94514931D01*
X117712454Y-94554869D01*
X117675497Y-94587929D01*
X117672782Y-94589886D01*
X117636360Y-94609908D01*
X117592502Y-94619815D01*
X117536724Y-94622257D01*
X117446048Y-94622257D01*
X117446010Y-94710283D01*
X117445166Y-94759308D01*
X117440024Y-94788065D01*
X117426587Y-94805311D01*
X117400858Y-94819808D01*
X117394679Y-94822769D01*
X117365764Y-94836648D01*
X117343376Y-94845414D01*
X117326729Y-94846171D01*
X117315036Y-94836023D01*
X117307510Y-94812073D01*
X117303366Y-94771426D01*
X117301815Y-94711186D01*
X117302071Y-94628455D01*
X117303349Y-94520339D01*
X117303748Y-94488000D01*
X117305185Y-94376524D01*
X117306472Y-94303603D01*
X117445971Y-94303603D01*
X117446755Y-94365499D01*
X117450240Y-94405997D01*
X117458124Y-94432708D01*
X117472105Y-94453244D01*
X117481597Y-94463260D01*
X117520404Y-94492567D01*
X117554763Y-94494952D01*
X117590216Y-94470750D01*
X117591114Y-94469857D01*
X117605539Y-94451153D01*
X117614313Y-94425732D01*
X117618739Y-94386584D01*
X117620118Y-94326697D01*
X117620143Y-94313430D01*
X117616812Y-94230901D01*
X117605969Y-94173691D01*
X117586340Y-94138766D01*
X117556650Y-94123094D01*
X117539491Y-94121514D01*
X117498766Y-94128926D01*
X117470832Y-94153330D01*
X117454017Y-94197980D01*
X117446650Y-94266130D01*
X117445971Y-94303603D01*
X117306472Y-94303603D01*
X117306708Y-94290245D01*
X117308677Y-94225333D01*
X117311450Y-94177958D01*
X117315388Y-94144290D01*
X117320849Y-94120498D01*
X117328192Y-94102753D01*
X117337777Y-94087224D01*
X117341887Y-94081381D01*
X117396405Y-94026185D01*
X117465336Y-93994890D01*
X117545072Y-93986165D01*
X117614744Y-93994918D01*
G04 #@! TO.C,J1*
D13*
X114068266Y-101382580D02*
X114068266Y-102096866D01*
X114020647Y-102239723D01*
X113925409Y-102334961D01*
X113782552Y-102382580D01*
X113687314Y-102382580D01*
X115068266Y-102382580D02*
X114496838Y-102382580D01*
X114782552Y-102382580D02*
X114782552Y-101382580D01*
X114687314Y-101525438D01*
X114592076Y-101620676D01*
X114496838Y-101668295D01*
G04 #@! TO.C,J2*
X128673266Y-96810580D02*
X128673266Y-97524866D01*
X128625647Y-97667723D01*
X128530409Y-97762961D01*
X128387552Y-97810580D01*
X128292314Y-97810580D01*
X129101838Y-96905819D02*
X129149457Y-96858200D01*
X129244695Y-96810580D01*
X129482790Y-96810580D01*
X129578028Y-96858200D01*
X129625647Y-96905819D01*
X129673266Y-97001057D01*
X129673266Y-97096295D01*
X129625647Y-97239152D01*
X129054219Y-97810580D01*
X129673266Y-97810580D01*
G04 #@! TO.C,J3*
X128673266Y-106335580D02*
X128673266Y-107049866D01*
X128625647Y-107192723D01*
X128530409Y-107287961D01*
X128387552Y-107335580D01*
X128292314Y-107335580D01*
X129054219Y-106335580D02*
X129673266Y-106335580D01*
X129339933Y-106716533D01*
X129482790Y-106716533D01*
X129578028Y-106764152D01*
X129625647Y-106811771D01*
X129673266Y-106907009D01*
X129673266Y-107145104D01*
X129625647Y-107240342D01*
X129578028Y-107287961D01*
X129482790Y-107335580D01*
X129197076Y-107335580D01*
X129101838Y-107287961D01*
X129054219Y-107240342D01*
G04 #@! TO.C,R1*
X120065833Y-99427380D02*
X119732500Y-98951190D01*
X119494404Y-99427380D02*
X119494404Y-98427380D01*
X119875357Y-98427380D01*
X119970595Y-98475000D01*
X120018214Y-98522619D01*
X120065833Y-98617857D01*
X120065833Y-98760714D01*
X120018214Y-98855952D01*
X119970595Y-98903571D01*
X119875357Y-98951190D01*
X119494404Y-98951190D01*
X121018214Y-99427380D02*
X120446785Y-99427380D01*
X120732500Y-99427380D02*
X120732500Y-98427380D01*
X120637261Y-98570238D01*
X120542023Y-98665476D01*
X120446785Y-98713095D01*
G04 #@! TO.C,R2*
X126732380Y-94564166D02*
X126256190Y-94897500D01*
X126732380Y-95135595D02*
X125732380Y-95135595D01*
X125732380Y-94754642D01*
X125780000Y-94659404D01*
X125827619Y-94611785D01*
X125922857Y-94564166D01*
X126065714Y-94564166D01*
X126160952Y-94611785D01*
X126208571Y-94659404D01*
X126256190Y-94754642D01*
X126256190Y-95135595D01*
X125827619Y-94183214D02*
X125780000Y-94135595D01*
X125732380Y-94040357D01*
X125732380Y-93802261D01*
X125780000Y-93707023D01*
X125827619Y-93659404D01*
X125922857Y-93611785D01*
X126018095Y-93611785D01*
X126160952Y-93659404D01*
X126732380Y-94230833D01*
X126732380Y-93611785D01*
G04 #@! TO.C,R3*
X123092380Y-100714166D02*
X122616190Y-101047500D01*
X123092380Y-101285595D02*
X122092380Y-101285595D01*
X122092380Y-100904642D01*
X122140000Y-100809404D01*
X122187619Y-100761785D01*
X122282857Y-100714166D01*
X122425714Y-100714166D01*
X122520952Y-100761785D01*
X122568571Y-100809404D01*
X122616190Y-100904642D01*
X122616190Y-101285595D01*
X122092380Y-100380833D02*
X122092380Y-99761785D01*
X122473333Y-100095119D01*
X122473333Y-99952261D01*
X122520952Y-99857023D01*
X122568571Y-99809404D01*
X122663809Y-99761785D01*
X122901904Y-99761785D01*
X122997142Y-99809404D01*
X123044761Y-99857023D01*
X123092380Y-99952261D01*
X123092380Y-100237976D01*
X123044761Y-100333214D01*
X122997142Y-100380833D01*
G04 #@! TD*
M02*
