G04 #@! TF.GenerationSoftware,KiCad,Pcbnew,5.0.1*
G04 #@! TF.CreationDate,2018-12-16T13:39:03+01:00*
G04 #@! TF.ProjectId,RFSampler,524653616D706C65722E6B696361645F,rev?*
G04 #@! TF.SameCoordinates,PX617fb78PY6ed25c8*
G04 #@! TF.FileFunction,Legend,Bot*
G04 #@! TF.FilePolarity,Positive*
%FSLAX46Y46*%
G04 Gerber Fmt 4.6, Leading zero omitted, Abs format (unit mm)*
G04 Created by KiCad (PCBNEW 5.0.1) date So 16 Dez 2018 13:39:03 CET*
%MOMM*%
%LPD*%
G01*
G04 APERTURE LIST*
%ADD10C,0.300000*%
G04 APERTURE END LIST*
D10*
X7846142Y12540715D02*
X7917571Y12326429D01*
X7917571Y11969286D01*
X7846142Y11826429D01*
X7774714Y11755000D01*
X7631857Y11683572D01*
X7489000Y11683572D01*
X7346142Y11755000D01*
X7274714Y11826429D01*
X7203285Y11969286D01*
X7131857Y12255000D01*
X7060428Y12397858D01*
X6989000Y12469286D01*
X6846142Y12540715D01*
X6703285Y12540715D01*
X6560428Y12469286D01*
X6489000Y12397858D01*
X6417571Y12255000D01*
X6417571Y11897858D01*
X6489000Y11683572D01*
X7917571Y10397858D02*
X7131857Y10397858D01*
X6989000Y10469286D01*
X6917571Y10612143D01*
X6917571Y10897858D01*
X6989000Y11040715D01*
X7846142Y10397858D02*
X7917571Y10540715D01*
X7917571Y10897858D01*
X7846142Y11040715D01*
X7703285Y11112143D01*
X7560428Y11112143D01*
X7417571Y11040715D01*
X7346142Y10897858D01*
X7346142Y10540715D01*
X7274714Y10397858D01*
X7917571Y9683572D02*
X6917571Y9683572D01*
X7060428Y9683572D02*
X6989000Y9612143D01*
X6917571Y9469286D01*
X6917571Y9255000D01*
X6989000Y9112143D01*
X7131857Y9040715D01*
X7917571Y9040715D01*
X7131857Y9040715D02*
X6989000Y8969286D01*
X6917571Y8826429D01*
X6917571Y8612143D01*
X6989000Y8469286D01*
X7131857Y8397858D01*
X7917571Y8397858D01*
X6917571Y7683572D02*
X8417571Y7683572D01*
X6989000Y7683572D02*
X6917571Y7540715D01*
X6917571Y7255000D01*
X6989000Y7112143D01*
X7060428Y7040715D01*
X7203285Y6969286D01*
X7631857Y6969286D01*
X7774714Y7040715D01*
X7846142Y7112143D01*
X7917571Y7255000D01*
X7917571Y7540715D01*
X7846142Y7683572D01*
X7917571Y6112143D02*
X7846142Y6255000D01*
X7703285Y6326429D01*
X6417571Y6326429D01*
X7846142Y4969286D02*
X7917571Y5112143D01*
X7917571Y5397858D01*
X7846142Y5540715D01*
X7703285Y5612143D01*
X7131857Y5612143D01*
X6989000Y5540715D01*
X6917571Y5397858D01*
X6917571Y5112143D01*
X6989000Y4969286D01*
X7131857Y4897858D01*
X7274714Y4897858D01*
X7417571Y5612143D01*
X7917571Y4255000D02*
X6917571Y4255000D01*
X7203285Y4255000D02*
X7060428Y4183572D01*
X6989000Y4112143D01*
X6917571Y3969286D01*
X6917571Y3826429D01*
M02*
