M48
;DRILL file {KiCad 5.0.1} date Do 27 Dez 2018 15:02:39 CET
;FORMAT={-:-/ absolute / inch / decimal}
FMAT,2
INCH,TZ
T1C0.0120
%
G90
G05
M72
T1
X3.85Y-3.47
X3.89Y-3.47
X3.93Y-3.47
X3.98Y-3.2
X3.98Y-3.47
X3.98Y-3.47
X3.98Y-3.47
X4.02Y-3.2
X4.06Y-3.2
X4.11Y-3.2
X4.12Y-3.47
X4.16Y-3.47
X4.21Y-3.47
X4.25Y-3.47
X4.26Y-3.2
X4.31Y-3.2
X4.37Y-3.2
X4.37Y-3.47
X4.41Y-3.47
X4.46Y-3.47
T0
M30
