G04 #@! TF.GenerationSoftware,KiCad,Pcbnew,5.0.1*
G04 #@! TF.CreationDate,2018-12-27T15:02:32+01:00*
G04 #@! TF.ProjectId,PiAttenuator,5069417474656E7561746F722E6B6963,rev?*
G04 #@! TF.SameCoordinates,Original*
G04 #@! TF.FileFunction,Copper,L2,Bot,Signal*
G04 #@! TF.FilePolarity,Positive*
%FSLAX46Y46*%
G04 Gerber Fmt 4.6, Leading zero omitted, Abs format (unit mm)*
G04 Created by KiCad (PCBNEW 5.0.1) date Do 27 Dez 2018 15:02:32 CET*
%MOMM*%
%LPD*%
G01*
G04 APERTURE LIST*
G04 #@! TA.AperFunction,SMDPad,CuDef*
%ADD10R,4.064000X1.524000*%
G04 #@! TD*
G04 #@! TA.AperFunction,ViaPad*
%ADD11C,0.609600*%
G04 #@! TD*
G04 #@! TA.AperFunction,Conductor*
%ADD12C,0.203200*%
G04 #@! TD*
G04 #@! TA.AperFunction,Conductor*
%ADD13C,0.254000*%
G04 #@! TD*
G04 APERTURE END LIST*
D10*
G04 #@! TO.P,J1,2*
G04 #@! TO.N,GND*
X97790000Y-81280000D03*
X97790000Y-86360000D03*
G04 #@! TD*
G04 #@! TO.P,J2,2*
G04 #@! TO.N,GND*
X114300000Y-86360000D03*
X114300000Y-81280000D03*
G04 #@! TD*
D11*
G04 #@! TO.N,GND*
X101092000Y-81280000D03*
X102108000Y-81280000D03*
X103124000Y-81280000D03*
X104394000Y-81280000D03*
X97790000Y-88138000D03*
X98806000Y-88138000D03*
X99822000Y-88138000D03*
X101092000Y-88138000D03*
X101092000Y-88138000D03*
X101092000Y-88138000D03*
X104648000Y-88138000D03*
X105664000Y-88138000D03*
X106934000Y-88138000D03*
X107950000Y-88138000D03*
X110998000Y-88138000D03*
X112014000Y-88138000D03*
X113284000Y-88138000D03*
X108204000Y-81280000D03*
X109474000Y-81280000D03*
X110998000Y-81280000D03*
G04 #@! TD*
D12*
G04 #@! TO.N,GND*
X101092000Y-81280000D02*
X102108000Y-81280000D01*
X103124000Y-81280000D02*
X103886000Y-81280000D01*
X103886000Y-81280000D02*
X104394000Y-81280000D01*
X97790000Y-88138000D02*
X98806000Y-88138000D01*
X99822000Y-88138000D02*
X101092000Y-88138000D01*
X101092000Y-88138000D02*
X104648000Y-88138000D01*
X105664000Y-88138000D02*
X106934000Y-88138000D01*
X107950000Y-88138000D02*
X110998000Y-88138000D01*
X112014000Y-88138000D02*
X113284000Y-88138000D01*
X108204000Y-81280000D02*
X109474000Y-81280000D01*
G04 #@! TD*
D13*
G04 #@! TO.N,GND*
G36*
X115443000Y-79883000D02*
X114585750Y-79883000D01*
X114427000Y-80041750D01*
X114427000Y-81153000D01*
X114447000Y-81153000D01*
X114447000Y-81407000D01*
X114427000Y-81407000D01*
X114427000Y-82518250D01*
X114585750Y-82677000D01*
X115443000Y-82677000D01*
X115443000Y-84963000D01*
X114585750Y-84963000D01*
X114427000Y-85121750D01*
X114427000Y-86233000D01*
X114447000Y-86233000D01*
X114447000Y-86487000D01*
X114427000Y-86487000D01*
X114427000Y-87598250D01*
X114585750Y-87757000D01*
X115443000Y-87757000D01*
X115443000Y-88444000D01*
X96647000Y-88444000D01*
X96647000Y-87757000D01*
X97504250Y-87757000D01*
X97663000Y-87598250D01*
X97663000Y-86487000D01*
X97917000Y-86487000D01*
X97917000Y-87598250D01*
X98075750Y-87757000D01*
X99948309Y-87757000D01*
X100181698Y-87660327D01*
X100360327Y-87481699D01*
X100457000Y-87248310D01*
X100457000Y-86645750D01*
X111633000Y-86645750D01*
X111633000Y-87248310D01*
X111729673Y-87481699D01*
X111908302Y-87660327D01*
X112141691Y-87757000D01*
X114014250Y-87757000D01*
X114173000Y-87598250D01*
X114173000Y-86487000D01*
X111791750Y-86487000D01*
X111633000Y-86645750D01*
X100457000Y-86645750D01*
X100298250Y-86487000D01*
X97917000Y-86487000D01*
X97663000Y-86487000D01*
X97643000Y-86487000D01*
X97643000Y-86233000D01*
X97663000Y-86233000D01*
X97663000Y-85121750D01*
X97917000Y-85121750D01*
X97917000Y-86233000D01*
X100298250Y-86233000D01*
X100457000Y-86074250D01*
X100457000Y-85471690D01*
X111633000Y-85471690D01*
X111633000Y-86074250D01*
X111791750Y-86233000D01*
X114173000Y-86233000D01*
X114173000Y-85121750D01*
X114014250Y-84963000D01*
X112141691Y-84963000D01*
X111908302Y-85059673D01*
X111729673Y-85238301D01*
X111633000Y-85471690D01*
X100457000Y-85471690D01*
X100360327Y-85238301D01*
X100181698Y-85059673D01*
X99948309Y-84963000D01*
X98075750Y-84963000D01*
X97917000Y-85121750D01*
X97663000Y-85121750D01*
X97504250Y-84963000D01*
X96647000Y-84963000D01*
X96647000Y-82677000D01*
X97504250Y-82677000D01*
X97663000Y-82518250D01*
X97663000Y-81407000D01*
X97917000Y-81407000D01*
X97917000Y-82518250D01*
X98075750Y-82677000D01*
X99948309Y-82677000D01*
X100181698Y-82580327D01*
X100360327Y-82401699D01*
X100457000Y-82168310D01*
X100457000Y-81565750D01*
X111633000Y-81565750D01*
X111633000Y-82168310D01*
X111729673Y-82401699D01*
X111908302Y-82580327D01*
X112141691Y-82677000D01*
X114014250Y-82677000D01*
X114173000Y-82518250D01*
X114173000Y-81407000D01*
X111791750Y-81407000D01*
X111633000Y-81565750D01*
X100457000Y-81565750D01*
X100298250Y-81407000D01*
X97917000Y-81407000D01*
X97663000Y-81407000D01*
X97643000Y-81407000D01*
X97643000Y-81153000D01*
X97663000Y-81153000D01*
X97663000Y-80041750D01*
X97917000Y-80041750D01*
X97917000Y-81153000D01*
X100298250Y-81153000D01*
X100457000Y-80994250D01*
X100457000Y-80391690D01*
X111633000Y-80391690D01*
X111633000Y-80994250D01*
X111791750Y-81153000D01*
X114173000Y-81153000D01*
X114173000Y-80041750D01*
X114014250Y-79883000D01*
X112141691Y-79883000D01*
X111908302Y-79979673D01*
X111729673Y-80158301D01*
X111633000Y-80391690D01*
X100457000Y-80391690D01*
X100360327Y-80158301D01*
X100181698Y-79979673D01*
X99948309Y-79883000D01*
X98075750Y-79883000D01*
X97917000Y-80041750D01*
X97663000Y-80041750D01*
X97504250Y-79883000D01*
X96647000Y-79883000D01*
X96647000Y-79196000D01*
X115443000Y-79196000D01*
X115443000Y-79883000D01*
X115443000Y-79883000D01*
G37*
X115443000Y-79883000D02*
X114585750Y-79883000D01*
X114427000Y-80041750D01*
X114427000Y-81153000D01*
X114447000Y-81153000D01*
X114447000Y-81407000D01*
X114427000Y-81407000D01*
X114427000Y-82518250D01*
X114585750Y-82677000D01*
X115443000Y-82677000D01*
X115443000Y-84963000D01*
X114585750Y-84963000D01*
X114427000Y-85121750D01*
X114427000Y-86233000D01*
X114447000Y-86233000D01*
X114447000Y-86487000D01*
X114427000Y-86487000D01*
X114427000Y-87598250D01*
X114585750Y-87757000D01*
X115443000Y-87757000D01*
X115443000Y-88444000D01*
X96647000Y-88444000D01*
X96647000Y-87757000D01*
X97504250Y-87757000D01*
X97663000Y-87598250D01*
X97663000Y-86487000D01*
X97917000Y-86487000D01*
X97917000Y-87598250D01*
X98075750Y-87757000D01*
X99948309Y-87757000D01*
X100181698Y-87660327D01*
X100360327Y-87481699D01*
X100457000Y-87248310D01*
X100457000Y-86645750D01*
X111633000Y-86645750D01*
X111633000Y-87248310D01*
X111729673Y-87481699D01*
X111908302Y-87660327D01*
X112141691Y-87757000D01*
X114014250Y-87757000D01*
X114173000Y-87598250D01*
X114173000Y-86487000D01*
X111791750Y-86487000D01*
X111633000Y-86645750D01*
X100457000Y-86645750D01*
X100298250Y-86487000D01*
X97917000Y-86487000D01*
X97663000Y-86487000D01*
X97643000Y-86487000D01*
X97643000Y-86233000D01*
X97663000Y-86233000D01*
X97663000Y-85121750D01*
X97917000Y-85121750D01*
X97917000Y-86233000D01*
X100298250Y-86233000D01*
X100457000Y-86074250D01*
X100457000Y-85471690D01*
X111633000Y-85471690D01*
X111633000Y-86074250D01*
X111791750Y-86233000D01*
X114173000Y-86233000D01*
X114173000Y-85121750D01*
X114014250Y-84963000D01*
X112141691Y-84963000D01*
X111908302Y-85059673D01*
X111729673Y-85238301D01*
X111633000Y-85471690D01*
X100457000Y-85471690D01*
X100360327Y-85238301D01*
X100181698Y-85059673D01*
X99948309Y-84963000D01*
X98075750Y-84963000D01*
X97917000Y-85121750D01*
X97663000Y-85121750D01*
X97504250Y-84963000D01*
X96647000Y-84963000D01*
X96647000Y-82677000D01*
X97504250Y-82677000D01*
X97663000Y-82518250D01*
X97663000Y-81407000D01*
X97917000Y-81407000D01*
X97917000Y-82518250D01*
X98075750Y-82677000D01*
X99948309Y-82677000D01*
X100181698Y-82580327D01*
X100360327Y-82401699D01*
X100457000Y-82168310D01*
X100457000Y-81565750D01*
X111633000Y-81565750D01*
X111633000Y-82168310D01*
X111729673Y-82401699D01*
X111908302Y-82580327D01*
X112141691Y-82677000D01*
X114014250Y-82677000D01*
X114173000Y-82518250D01*
X114173000Y-81407000D01*
X111791750Y-81407000D01*
X111633000Y-81565750D01*
X100457000Y-81565750D01*
X100298250Y-81407000D01*
X97917000Y-81407000D01*
X97663000Y-81407000D01*
X97643000Y-81407000D01*
X97643000Y-81153000D01*
X97663000Y-81153000D01*
X97663000Y-80041750D01*
X97917000Y-80041750D01*
X97917000Y-81153000D01*
X100298250Y-81153000D01*
X100457000Y-80994250D01*
X100457000Y-80391690D01*
X111633000Y-80391690D01*
X111633000Y-80994250D01*
X111791750Y-81153000D01*
X114173000Y-81153000D01*
X114173000Y-80041750D01*
X114014250Y-79883000D01*
X112141691Y-79883000D01*
X111908302Y-79979673D01*
X111729673Y-80158301D01*
X111633000Y-80391690D01*
X100457000Y-80391690D01*
X100360327Y-80158301D01*
X100181698Y-79979673D01*
X99948309Y-79883000D01*
X98075750Y-79883000D01*
X97917000Y-80041750D01*
X97663000Y-80041750D01*
X97504250Y-79883000D01*
X96647000Y-79883000D01*
X96647000Y-79196000D01*
X115443000Y-79196000D01*
X115443000Y-79883000D01*
G04 #@! TD*
M02*
