M48
;DRILL file {KiCad 5.0.1} date Do 27 Dez 2018 15:20:28 CET
;FORMAT={-:-/ absolute / inch / decimal}
FMAT,2
INCH,TZ
T1C0.0120
%
G90
G05
M72
T1
X4.825Y-3.25
X4.875Y-3.25
X4.875Y-3.625
X4.925Y-3.25
X4.925Y-3.625
X4.975Y-3.25
X4.975Y-3.625
X5.Y-3.3
X5.025Y-3.25
X5.025Y-3.625
X5.075Y-3.2
X5.075Y-3.65
X5.125Y-3.675
X5.15Y-3.175
X5.175Y-3.675
X5.2Y-3.175
X5.2Y-3.4
X5.225Y-3.675
X5.25Y-3.175
X5.25Y-3.375
X5.25Y-3.425
X5.25Y-3.475
X5.275Y-3.725
X5.3Y-3.175
X5.3Y-3.375
X5.3Y-3.425
X5.3Y-3.475
X5.325Y-3.725
X5.35Y-3.175
X5.375Y-3.725
X5.425Y-3.175
X5.425Y-3.725
X5.475Y-3.125
X5.5Y-3.725
X5.525Y-3.075
X5.55Y-3.75
X5.575Y-3.075
X5.6Y-3.75
X5.65Y-3.375
X5.65Y-3.45
X5.75Y-3.375
X5.75Y-3.45
T0
M30
