G04 #@! TF.GenerationSoftware,KiCad,Pcbnew,5.0.1*
G04 #@! TF.CreationDate,2018-12-27T15:20:24+01:00*
G04 #@! TF.ProjectId,DiscreteWilkinsonSplitter,446973637265746557696C6B696E736F,rev?*
G04 #@! TF.SameCoordinates,Original*
G04 #@! TF.FileFunction,Legend,Top*
G04 #@! TF.FilePolarity,Positive*
%FSLAX46Y46*%
G04 Gerber Fmt 4.6, Leading zero omitted, Abs format (unit mm)*
G04 Created by KiCad (PCBNEW 5.0.1) date Do 27 Dez 2018 15:20:24 CET*
%MOMM*%
%LPD*%
G01*
G04 APERTURE LIST*
%ADD10C,0.120000*%
%ADD11C,0.010000*%
%ADD12C,0.150000*%
G04 APERTURE END LIST*
D10*
G04 #@! TO.C,C1*
X128545000Y-87445436D02*
X128545000Y-88649564D01*
X126725000Y-87445436D02*
X126725000Y-88649564D01*
G04 #@! TO.C,C2*
X136250000Y-83635436D02*
X136250000Y-84839564D01*
X138070000Y-83635436D02*
X138070000Y-84839564D01*
G04 #@! TO.C,C3*
X136250000Y-90989564D02*
X136250000Y-89785436D01*
X138070000Y-90989564D02*
X138070000Y-89785436D01*
G04 #@! TO.C,L1*
X131895436Y-82275000D02*
X133099564Y-82275000D01*
X131895436Y-84095000D02*
X133099564Y-84095000D01*
G04 #@! TO.C,L2*
X131895436Y-91715000D02*
X133099564Y-91715000D01*
X131895436Y-89895000D02*
X133099564Y-89895000D01*
G04 #@! TO.C,R1*
X141245000Y-86810436D02*
X141245000Y-88014564D01*
X139425000Y-86810436D02*
X139425000Y-88014564D01*
D11*
G04 #@! TO.C,REF\002A\002A*
G36*
X125198910Y-76617348D02*
X125277454Y-76617778D01*
X125334298Y-76618942D01*
X125373105Y-76621207D01*
X125397538Y-76624940D01*
X125411262Y-76630506D01*
X125417940Y-76638273D01*
X125421236Y-76648605D01*
X125421556Y-76649943D01*
X125426562Y-76674079D01*
X125435829Y-76721701D01*
X125448392Y-76787741D01*
X125463287Y-76867128D01*
X125479551Y-76954796D01*
X125480119Y-76957875D01*
X125496410Y-77043789D01*
X125511652Y-77119696D01*
X125524861Y-77181045D01*
X125535054Y-77223282D01*
X125541248Y-77241855D01*
X125541543Y-77242184D01*
X125559788Y-77251253D01*
X125597405Y-77266367D01*
X125646271Y-77284262D01*
X125646543Y-77284358D01*
X125708093Y-77307493D01*
X125780657Y-77336965D01*
X125849057Y-77366597D01*
X125852294Y-77368062D01*
X125963702Y-77418626D01*
X126210399Y-77250160D01*
X126286077Y-77198803D01*
X126354631Y-77152889D01*
X126412088Y-77115030D01*
X126454476Y-77087837D01*
X126477825Y-77073921D01*
X126480042Y-77072889D01*
X126497010Y-77077484D01*
X126528701Y-77099655D01*
X126576352Y-77140447D01*
X126641198Y-77200905D01*
X126707397Y-77265227D01*
X126771214Y-77328612D01*
X126828329Y-77386451D01*
X126875305Y-77435175D01*
X126908703Y-77471210D01*
X126925085Y-77490984D01*
X126925694Y-77492002D01*
X126927505Y-77505572D01*
X126920683Y-77527733D01*
X126903540Y-77561478D01*
X126874393Y-77609800D01*
X126831555Y-77675692D01*
X126774448Y-77760517D01*
X126723766Y-77835177D01*
X126678461Y-77902140D01*
X126641150Y-77957516D01*
X126614452Y-77997420D01*
X126600985Y-78017962D01*
X126600137Y-78019356D01*
X126601781Y-78039038D01*
X126614245Y-78077293D01*
X126635048Y-78126889D01*
X126642462Y-78142728D01*
X126674814Y-78213290D01*
X126709328Y-78293353D01*
X126737365Y-78362629D01*
X126757568Y-78414045D01*
X126773615Y-78453119D01*
X126782888Y-78473541D01*
X126784041Y-78475114D01*
X126801096Y-78477721D01*
X126841298Y-78484863D01*
X126899302Y-78495523D01*
X126969763Y-78508685D01*
X127047335Y-78523333D01*
X127126672Y-78538449D01*
X127202431Y-78553018D01*
X127269264Y-78566022D01*
X127321828Y-78576445D01*
X127354776Y-78583270D01*
X127362857Y-78585199D01*
X127371205Y-78589962D01*
X127377506Y-78600718D01*
X127382045Y-78621098D01*
X127385104Y-78654734D01*
X127386967Y-78705255D01*
X127387918Y-78776292D01*
X127388240Y-78871476D01*
X127388257Y-78910492D01*
X127388257Y-79227799D01*
X127312057Y-79242839D01*
X127269663Y-79250995D01*
X127206400Y-79262899D01*
X127129962Y-79277116D01*
X127048043Y-79292210D01*
X127025400Y-79296355D01*
X126949806Y-79311053D01*
X126883953Y-79325505D01*
X126833366Y-79338375D01*
X126803574Y-79348322D01*
X126798612Y-79351287D01*
X126786426Y-79372283D01*
X126768953Y-79412967D01*
X126749577Y-79465322D01*
X126745734Y-79476600D01*
X126720339Y-79546523D01*
X126688817Y-79625418D01*
X126657969Y-79696266D01*
X126657817Y-79696595D01*
X126606447Y-79807733D01*
X126775399Y-80056253D01*
X126944352Y-80304772D01*
X126727429Y-80522058D01*
X126661819Y-80586726D01*
X126601979Y-80643733D01*
X126551267Y-80690033D01*
X126513046Y-80722584D01*
X126490675Y-80738343D01*
X126487466Y-80739343D01*
X126468626Y-80731469D01*
X126430180Y-80709578D01*
X126376330Y-80676267D01*
X126311276Y-80634131D01*
X126240940Y-80586943D01*
X126169555Y-80538810D01*
X126105908Y-80496928D01*
X126054041Y-80463871D01*
X126017995Y-80442218D01*
X126001867Y-80434543D01*
X125982189Y-80441037D01*
X125944875Y-80458150D01*
X125897621Y-80482326D01*
X125892612Y-80485013D01*
X125828977Y-80516927D01*
X125785341Y-80532579D01*
X125758202Y-80532745D01*
X125744057Y-80518204D01*
X125743975Y-80518000D01*
X125736905Y-80500779D01*
X125720042Y-80459899D01*
X125694695Y-80398525D01*
X125662171Y-80319819D01*
X125623778Y-80226947D01*
X125580822Y-80123072D01*
X125539222Y-80022502D01*
X125493504Y-79911516D01*
X125451526Y-79808703D01*
X125414548Y-79717215D01*
X125383827Y-79640201D01*
X125360622Y-79580815D01*
X125346190Y-79542209D01*
X125341743Y-79527800D01*
X125352896Y-79511272D01*
X125382069Y-79484930D01*
X125420971Y-79455887D01*
X125531757Y-79364039D01*
X125618351Y-79258759D01*
X125679716Y-79142266D01*
X125714815Y-79016776D01*
X125722608Y-78884507D01*
X125716943Y-78823457D01*
X125686078Y-78696795D01*
X125632920Y-78584941D01*
X125560767Y-78489001D01*
X125472917Y-78410076D01*
X125372665Y-78349270D01*
X125263310Y-78307687D01*
X125148147Y-78286428D01*
X125030475Y-78286599D01*
X124913590Y-78309301D01*
X124800789Y-78355638D01*
X124695369Y-78426713D01*
X124651368Y-78466911D01*
X124566979Y-78570129D01*
X124508222Y-78682925D01*
X124474704Y-78802010D01*
X124466035Y-78924095D01*
X124481823Y-79045893D01*
X124521678Y-79164116D01*
X124585207Y-79275475D01*
X124672021Y-79376684D01*
X124769029Y-79455887D01*
X124809437Y-79486162D01*
X124837982Y-79512219D01*
X124848257Y-79527825D01*
X124842877Y-79544843D01*
X124827575Y-79585500D01*
X124803612Y-79646642D01*
X124772244Y-79725119D01*
X124734732Y-79817780D01*
X124692333Y-79921472D01*
X124650663Y-80022526D01*
X124604690Y-80133607D01*
X124562107Y-80236541D01*
X124524221Y-80328165D01*
X124492340Y-80405316D01*
X124467771Y-80464831D01*
X124451820Y-80503544D01*
X124445910Y-80518000D01*
X124431948Y-80532685D01*
X124404940Y-80532642D01*
X124361413Y-80517099D01*
X124297890Y-80485284D01*
X124297388Y-80485013D01*
X124249560Y-80460323D01*
X124210897Y-80442338D01*
X124189095Y-80434614D01*
X124188133Y-80434543D01*
X124171721Y-80442378D01*
X124135487Y-80464165D01*
X124083474Y-80497328D01*
X124019725Y-80539291D01*
X123949060Y-80586943D01*
X123877116Y-80635191D01*
X123812274Y-80677151D01*
X123758735Y-80710227D01*
X123720697Y-80731821D01*
X123702533Y-80739343D01*
X123685808Y-80729457D01*
X123652180Y-80701826D01*
X123605010Y-80659495D01*
X123547658Y-80605505D01*
X123483484Y-80542899D01*
X123462497Y-80521983D01*
X123245499Y-80304623D01*
X123410668Y-80062220D01*
X123460864Y-79987781D01*
X123504919Y-79920972D01*
X123540362Y-79865665D01*
X123564719Y-79825729D01*
X123575522Y-79805036D01*
X123575838Y-79803563D01*
X123570143Y-79784058D01*
X123554826Y-79744822D01*
X123532537Y-79692430D01*
X123516893Y-79657355D01*
X123487641Y-79590201D01*
X123460094Y-79522358D01*
X123438737Y-79465034D01*
X123432935Y-79447572D01*
X123416452Y-79400938D01*
X123400340Y-79364905D01*
X123391490Y-79351287D01*
X123371960Y-79342952D01*
X123329334Y-79331137D01*
X123269145Y-79317181D01*
X123196922Y-79302422D01*
X123164600Y-79296355D01*
X123082522Y-79281273D01*
X123003795Y-79266669D01*
X122936109Y-79253980D01*
X122887160Y-79244642D01*
X122877943Y-79242839D01*
X122801743Y-79227799D01*
X122801743Y-78910492D01*
X122801914Y-78806154D01*
X122802616Y-78727213D01*
X122804134Y-78670038D01*
X122806749Y-78630999D01*
X122810746Y-78606465D01*
X122816409Y-78592805D01*
X122824020Y-78586389D01*
X122827143Y-78585199D01*
X122845978Y-78580980D01*
X122887588Y-78572562D01*
X122946630Y-78560961D01*
X123017757Y-78547195D01*
X123095625Y-78532280D01*
X123174887Y-78517232D01*
X123250198Y-78503069D01*
X123316213Y-78490806D01*
X123367587Y-78481461D01*
X123398975Y-78476050D01*
X123405959Y-78475114D01*
X123412285Y-78462596D01*
X123426290Y-78429246D01*
X123445355Y-78381377D01*
X123452634Y-78362629D01*
X123481996Y-78290195D01*
X123516571Y-78210170D01*
X123547537Y-78142728D01*
X123570323Y-78091159D01*
X123585482Y-78048785D01*
X123590542Y-78022834D01*
X123589736Y-78019356D01*
X123579041Y-78002936D01*
X123554620Y-77966417D01*
X123519095Y-77913687D01*
X123475087Y-77848635D01*
X123425217Y-77775151D01*
X123415356Y-77760645D01*
X123357492Y-77674704D01*
X123314956Y-77609261D01*
X123286054Y-77561304D01*
X123269090Y-77527820D01*
X123262367Y-77505795D01*
X123264190Y-77492217D01*
X123264236Y-77492131D01*
X123278586Y-77474297D01*
X123310323Y-77439817D01*
X123356010Y-77392268D01*
X123412204Y-77335222D01*
X123475468Y-77272255D01*
X123482602Y-77265227D01*
X123562330Y-77188020D01*
X123623857Y-77131330D01*
X123668421Y-77094110D01*
X123697257Y-77075315D01*
X123709958Y-77072889D01*
X123728494Y-77083471D01*
X123766961Y-77107916D01*
X123821386Y-77143612D01*
X123887798Y-77187947D01*
X123962225Y-77238311D01*
X123979601Y-77250160D01*
X124226297Y-77418626D01*
X124337706Y-77368062D01*
X124405457Y-77338595D01*
X124478183Y-77308959D01*
X124540703Y-77285330D01*
X124543457Y-77284358D01*
X124592360Y-77266457D01*
X124630057Y-77251320D01*
X124648425Y-77242210D01*
X124648456Y-77242184D01*
X124654285Y-77225717D01*
X124664192Y-77185219D01*
X124677195Y-77125242D01*
X124692309Y-77050340D01*
X124708552Y-76965064D01*
X124709881Y-76957875D01*
X124726175Y-76870014D01*
X124741133Y-76790260D01*
X124753791Y-76723681D01*
X124763186Y-76675347D01*
X124768354Y-76650325D01*
X124768444Y-76649943D01*
X124771589Y-76639299D01*
X124777704Y-76631262D01*
X124790453Y-76625467D01*
X124813500Y-76621547D01*
X124850509Y-76619135D01*
X124905144Y-76617865D01*
X124981067Y-76617371D01*
X125081944Y-76617286D01*
X125095000Y-76617286D01*
X125198910Y-76617348D01*
X125198910Y-76617348D01*
G37*
X125198910Y-76617348D02*
X125277454Y-76617778D01*
X125334298Y-76618942D01*
X125373105Y-76621207D01*
X125397538Y-76624940D01*
X125411262Y-76630506D01*
X125417940Y-76638273D01*
X125421236Y-76648605D01*
X125421556Y-76649943D01*
X125426562Y-76674079D01*
X125435829Y-76721701D01*
X125448392Y-76787741D01*
X125463287Y-76867128D01*
X125479551Y-76954796D01*
X125480119Y-76957875D01*
X125496410Y-77043789D01*
X125511652Y-77119696D01*
X125524861Y-77181045D01*
X125535054Y-77223282D01*
X125541248Y-77241855D01*
X125541543Y-77242184D01*
X125559788Y-77251253D01*
X125597405Y-77266367D01*
X125646271Y-77284262D01*
X125646543Y-77284358D01*
X125708093Y-77307493D01*
X125780657Y-77336965D01*
X125849057Y-77366597D01*
X125852294Y-77368062D01*
X125963702Y-77418626D01*
X126210399Y-77250160D01*
X126286077Y-77198803D01*
X126354631Y-77152889D01*
X126412088Y-77115030D01*
X126454476Y-77087837D01*
X126477825Y-77073921D01*
X126480042Y-77072889D01*
X126497010Y-77077484D01*
X126528701Y-77099655D01*
X126576352Y-77140447D01*
X126641198Y-77200905D01*
X126707397Y-77265227D01*
X126771214Y-77328612D01*
X126828329Y-77386451D01*
X126875305Y-77435175D01*
X126908703Y-77471210D01*
X126925085Y-77490984D01*
X126925694Y-77492002D01*
X126927505Y-77505572D01*
X126920683Y-77527733D01*
X126903540Y-77561478D01*
X126874393Y-77609800D01*
X126831555Y-77675692D01*
X126774448Y-77760517D01*
X126723766Y-77835177D01*
X126678461Y-77902140D01*
X126641150Y-77957516D01*
X126614452Y-77997420D01*
X126600985Y-78017962D01*
X126600137Y-78019356D01*
X126601781Y-78039038D01*
X126614245Y-78077293D01*
X126635048Y-78126889D01*
X126642462Y-78142728D01*
X126674814Y-78213290D01*
X126709328Y-78293353D01*
X126737365Y-78362629D01*
X126757568Y-78414045D01*
X126773615Y-78453119D01*
X126782888Y-78473541D01*
X126784041Y-78475114D01*
X126801096Y-78477721D01*
X126841298Y-78484863D01*
X126899302Y-78495523D01*
X126969763Y-78508685D01*
X127047335Y-78523333D01*
X127126672Y-78538449D01*
X127202431Y-78553018D01*
X127269264Y-78566022D01*
X127321828Y-78576445D01*
X127354776Y-78583270D01*
X127362857Y-78585199D01*
X127371205Y-78589962D01*
X127377506Y-78600718D01*
X127382045Y-78621098D01*
X127385104Y-78654734D01*
X127386967Y-78705255D01*
X127387918Y-78776292D01*
X127388240Y-78871476D01*
X127388257Y-78910492D01*
X127388257Y-79227799D01*
X127312057Y-79242839D01*
X127269663Y-79250995D01*
X127206400Y-79262899D01*
X127129962Y-79277116D01*
X127048043Y-79292210D01*
X127025400Y-79296355D01*
X126949806Y-79311053D01*
X126883953Y-79325505D01*
X126833366Y-79338375D01*
X126803574Y-79348322D01*
X126798612Y-79351287D01*
X126786426Y-79372283D01*
X126768953Y-79412967D01*
X126749577Y-79465322D01*
X126745734Y-79476600D01*
X126720339Y-79546523D01*
X126688817Y-79625418D01*
X126657969Y-79696266D01*
X126657817Y-79696595D01*
X126606447Y-79807733D01*
X126775399Y-80056253D01*
X126944352Y-80304772D01*
X126727429Y-80522058D01*
X126661819Y-80586726D01*
X126601979Y-80643733D01*
X126551267Y-80690033D01*
X126513046Y-80722584D01*
X126490675Y-80738343D01*
X126487466Y-80739343D01*
X126468626Y-80731469D01*
X126430180Y-80709578D01*
X126376330Y-80676267D01*
X126311276Y-80634131D01*
X126240940Y-80586943D01*
X126169555Y-80538810D01*
X126105908Y-80496928D01*
X126054041Y-80463871D01*
X126017995Y-80442218D01*
X126001867Y-80434543D01*
X125982189Y-80441037D01*
X125944875Y-80458150D01*
X125897621Y-80482326D01*
X125892612Y-80485013D01*
X125828977Y-80516927D01*
X125785341Y-80532579D01*
X125758202Y-80532745D01*
X125744057Y-80518204D01*
X125743975Y-80518000D01*
X125736905Y-80500779D01*
X125720042Y-80459899D01*
X125694695Y-80398525D01*
X125662171Y-80319819D01*
X125623778Y-80226947D01*
X125580822Y-80123072D01*
X125539222Y-80022502D01*
X125493504Y-79911516D01*
X125451526Y-79808703D01*
X125414548Y-79717215D01*
X125383827Y-79640201D01*
X125360622Y-79580815D01*
X125346190Y-79542209D01*
X125341743Y-79527800D01*
X125352896Y-79511272D01*
X125382069Y-79484930D01*
X125420971Y-79455887D01*
X125531757Y-79364039D01*
X125618351Y-79258759D01*
X125679716Y-79142266D01*
X125714815Y-79016776D01*
X125722608Y-78884507D01*
X125716943Y-78823457D01*
X125686078Y-78696795D01*
X125632920Y-78584941D01*
X125560767Y-78489001D01*
X125472917Y-78410076D01*
X125372665Y-78349270D01*
X125263310Y-78307687D01*
X125148147Y-78286428D01*
X125030475Y-78286599D01*
X124913590Y-78309301D01*
X124800789Y-78355638D01*
X124695369Y-78426713D01*
X124651368Y-78466911D01*
X124566979Y-78570129D01*
X124508222Y-78682925D01*
X124474704Y-78802010D01*
X124466035Y-78924095D01*
X124481823Y-79045893D01*
X124521678Y-79164116D01*
X124585207Y-79275475D01*
X124672021Y-79376684D01*
X124769029Y-79455887D01*
X124809437Y-79486162D01*
X124837982Y-79512219D01*
X124848257Y-79527825D01*
X124842877Y-79544843D01*
X124827575Y-79585500D01*
X124803612Y-79646642D01*
X124772244Y-79725119D01*
X124734732Y-79817780D01*
X124692333Y-79921472D01*
X124650663Y-80022526D01*
X124604690Y-80133607D01*
X124562107Y-80236541D01*
X124524221Y-80328165D01*
X124492340Y-80405316D01*
X124467771Y-80464831D01*
X124451820Y-80503544D01*
X124445910Y-80518000D01*
X124431948Y-80532685D01*
X124404940Y-80532642D01*
X124361413Y-80517099D01*
X124297890Y-80485284D01*
X124297388Y-80485013D01*
X124249560Y-80460323D01*
X124210897Y-80442338D01*
X124189095Y-80434614D01*
X124188133Y-80434543D01*
X124171721Y-80442378D01*
X124135487Y-80464165D01*
X124083474Y-80497328D01*
X124019725Y-80539291D01*
X123949060Y-80586943D01*
X123877116Y-80635191D01*
X123812274Y-80677151D01*
X123758735Y-80710227D01*
X123720697Y-80731821D01*
X123702533Y-80739343D01*
X123685808Y-80729457D01*
X123652180Y-80701826D01*
X123605010Y-80659495D01*
X123547658Y-80605505D01*
X123483484Y-80542899D01*
X123462497Y-80521983D01*
X123245499Y-80304623D01*
X123410668Y-80062220D01*
X123460864Y-79987781D01*
X123504919Y-79920972D01*
X123540362Y-79865665D01*
X123564719Y-79825729D01*
X123575522Y-79805036D01*
X123575838Y-79803563D01*
X123570143Y-79784058D01*
X123554826Y-79744822D01*
X123532537Y-79692430D01*
X123516893Y-79657355D01*
X123487641Y-79590201D01*
X123460094Y-79522358D01*
X123438737Y-79465034D01*
X123432935Y-79447572D01*
X123416452Y-79400938D01*
X123400340Y-79364905D01*
X123391490Y-79351287D01*
X123371960Y-79342952D01*
X123329334Y-79331137D01*
X123269145Y-79317181D01*
X123196922Y-79302422D01*
X123164600Y-79296355D01*
X123082522Y-79281273D01*
X123003795Y-79266669D01*
X122936109Y-79253980D01*
X122887160Y-79244642D01*
X122877943Y-79242839D01*
X122801743Y-79227799D01*
X122801743Y-78910492D01*
X122801914Y-78806154D01*
X122802616Y-78727213D01*
X122804134Y-78670038D01*
X122806749Y-78630999D01*
X122810746Y-78606465D01*
X122816409Y-78592805D01*
X122824020Y-78586389D01*
X122827143Y-78585199D01*
X122845978Y-78580980D01*
X122887588Y-78572562D01*
X122946630Y-78560961D01*
X123017757Y-78547195D01*
X123095625Y-78532280D01*
X123174887Y-78517232D01*
X123250198Y-78503069D01*
X123316213Y-78490806D01*
X123367587Y-78481461D01*
X123398975Y-78476050D01*
X123405959Y-78475114D01*
X123412285Y-78462596D01*
X123426290Y-78429246D01*
X123445355Y-78381377D01*
X123452634Y-78362629D01*
X123481996Y-78290195D01*
X123516571Y-78210170D01*
X123547537Y-78142728D01*
X123570323Y-78091159D01*
X123585482Y-78048785D01*
X123590542Y-78022834D01*
X123589736Y-78019356D01*
X123579041Y-78002936D01*
X123554620Y-77966417D01*
X123519095Y-77913687D01*
X123475087Y-77848635D01*
X123425217Y-77775151D01*
X123415356Y-77760645D01*
X123357492Y-77674704D01*
X123314956Y-77609261D01*
X123286054Y-77561304D01*
X123269090Y-77527820D01*
X123262367Y-77505795D01*
X123264190Y-77492217D01*
X123264236Y-77492131D01*
X123278586Y-77474297D01*
X123310323Y-77439817D01*
X123356010Y-77392268D01*
X123412204Y-77335222D01*
X123475468Y-77272255D01*
X123482602Y-77265227D01*
X123562330Y-77188020D01*
X123623857Y-77131330D01*
X123668421Y-77094110D01*
X123697257Y-77075315D01*
X123709958Y-77072889D01*
X123728494Y-77083471D01*
X123766961Y-77107916D01*
X123821386Y-77143612D01*
X123887798Y-77187947D01*
X123962225Y-77238311D01*
X123979601Y-77250160D01*
X124226297Y-77418626D01*
X124337706Y-77368062D01*
X124405457Y-77338595D01*
X124478183Y-77308959D01*
X124540703Y-77285330D01*
X124543457Y-77284358D01*
X124592360Y-77266457D01*
X124630057Y-77251320D01*
X124648425Y-77242210D01*
X124648456Y-77242184D01*
X124654285Y-77225717D01*
X124664192Y-77185219D01*
X124677195Y-77125242D01*
X124692309Y-77050340D01*
X124708552Y-76965064D01*
X124709881Y-76957875D01*
X124726175Y-76870014D01*
X124741133Y-76790260D01*
X124753791Y-76723681D01*
X124763186Y-76675347D01*
X124768354Y-76650325D01*
X124768444Y-76649943D01*
X124771589Y-76639299D01*
X124777704Y-76631262D01*
X124790453Y-76625467D01*
X124813500Y-76621547D01*
X124850509Y-76619135D01*
X124905144Y-76617865D01*
X124981067Y-76617371D01*
X125081944Y-76617286D01*
X125095000Y-76617286D01*
X125198910Y-76617348D01*
G36*
X128248595Y-81341966D02*
X128306021Y-81379497D01*
X128333719Y-81413096D01*
X128355662Y-81474064D01*
X128357405Y-81522308D01*
X128353457Y-81586816D01*
X128204686Y-81651934D01*
X128132349Y-81685202D01*
X128085084Y-81711964D01*
X128060507Y-81735144D01*
X128056237Y-81757667D01*
X128069889Y-81782455D01*
X128084943Y-81798886D01*
X128128746Y-81825235D01*
X128176389Y-81827081D01*
X128220145Y-81806546D01*
X128252289Y-81765752D01*
X128258038Y-81751347D01*
X128285576Y-81706356D01*
X128317258Y-81687182D01*
X128360714Y-81670779D01*
X128360714Y-81732966D01*
X128356872Y-81775283D01*
X128341823Y-81810969D01*
X128310280Y-81851943D01*
X128305592Y-81857267D01*
X128270506Y-81893720D01*
X128240347Y-81913283D01*
X128202615Y-81922283D01*
X128171335Y-81925230D01*
X128115385Y-81925965D01*
X128075555Y-81916660D01*
X128050708Y-81902846D01*
X128011656Y-81872467D01*
X127984625Y-81839613D01*
X127967517Y-81798294D01*
X127958238Y-81742521D01*
X127954693Y-81666305D01*
X127954410Y-81627622D01*
X127955372Y-81581247D01*
X128043007Y-81581247D01*
X128044023Y-81606126D01*
X128046556Y-81610200D01*
X128063274Y-81604665D01*
X128099249Y-81590017D01*
X128147331Y-81569190D01*
X128157386Y-81564714D01*
X128218152Y-81533814D01*
X128251632Y-81506657D01*
X128258990Y-81481220D01*
X128241391Y-81455481D01*
X128226856Y-81444109D01*
X128174410Y-81421364D01*
X128125322Y-81425122D01*
X128084227Y-81452884D01*
X128055758Y-81502152D01*
X128046631Y-81541257D01*
X128043007Y-81581247D01*
X127955372Y-81581247D01*
X127956285Y-81537249D01*
X127963196Y-81470384D01*
X127976884Y-81421695D01*
X127999096Y-81385849D01*
X128031574Y-81357513D01*
X128045733Y-81348355D01*
X128110053Y-81324507D01*
X128180473Y-81323006D01*
X128248595Y-81341966D01*
X128248595Y-81341966D01*
G37*
X128248595Y-81341966D02*
X128306021Y-81379497D01*
X128333719Y-81413096D01*
X128355662Y-81474064D01*
X128357405Y-81522308D01*
X128353457Y-81586816D01*
X128204686Y-81651934D01*
X128132349Y-81685202D01*
X128085084Y-81711964D01*
X128060507Y-81735144D01*
X128056237Y-81757667D01*
X128069889Y-81782455D01*
X128084943Y-81798886D01*
X128128746Y-81825235D01*
X128176389Y-81827081D01*
X128220145Y-81806546D01*
X128252289Y-81765752D01*
X128258038Y-81751347D01*
X128285576Y-81706356D01*
X128317258Y-81687182D01*
X128360714Y-81670779D01*
X128360714Y-81732966D01*
X128356872Y-81775283D01*
X128341823Y-81810969D01*
X128310280Y-81851943D01*
X128305592Y-81857267D01*
X128270506Y-81893720D01*
X128240347Y-81913283D01*
X128202615Y-81922283D01*
X128171335Y-81925230D01*
X128115385Y-81925965D01*
X128075555Y-81916660D01*
X128050708Y-81902846D01*
X128011656Y-81872467D01*
X127984625Y-81839613D01*
X127967517Y-81798294D01*
X127958238Y-81742521D01*
X127954693Y-81666305D01*
X127954410Y-81627622D01*
X127955372Y-81581247D01*
X128043007Y-81581247D01*
X128044023Y-81606126D01*
X128046556Y-81610200D01*
X128063274Y-81604665D01*
X128099249Y-81590017D01*
X128147331Y-81569190D01*
X128157386Y-81564714D01*
X128218152Y-81533814D01*
X128251632Y-81506657D01*
X128258990Y-81481220D01*
X128241391Y-81455481D01*
X128226856Y-81444109D01*
X128174410Y-81421364D01*
X128125322Y-81425122D01*
X128084227Y-81452884D01*
X128055758Y-81502152D01*
X128046631Y-81541257D01*
X128043007Y-81581247D01*
X127955372Y-81581247D01*
X127956285Y-81537249D01*
X127963196Y-81470384D01*
X127976884Y-81421695D01*
X127999096Y-81385849D01*
X128031574Y-81357513D01*
X128045733Y-81348355D01*
X128110053Y-81324507D01*
X128180473Y-81323006D01*
X128248595Y-81341966D01*
G36*
X127747600Y-81333752D02*
X127764948Y-81341334D01*
X127806356Y-81374128D01*
X127841765Y-81421547D01*
X127863664Y-81472151D01*
X127867229Y-81497098D01*
X127855279Y-81531927D01*
X127829067Y-81550357D01*
X127800964Y-81561516D01*
X127788095Y-81563572D01*
X127781829Y-81548649D01*
X127769456Y-81516175D01*
X127764028Y-81501502D01*
X127733590Y-81450744D01*
X127689520Y-81425427D01*
X127633010Y-81426206D01*
X127628825Y-81427203D01*
X127598655Y-81441507D01*
X127576476Y-81469393D01*
X127561327Y-81514287D01*
X127552250Y-81579615D01*
X127548286Y-81668804D01*
X127547914Y-81716261D01*
X127547730Y-81791071D01*
X127546522Y-81842069D01*
X127543309Y-81874471D01*
X127537109Y-81893495D01*
X127526940Y-81904356D01*
X127511819Y-81912272D01*
X127510946Y-81912670D01*
X127481828Y-81924981D01*
X127467403Y-81929514D01*
X127465186Y-81915809D01*
X127463289Y-81877925D01*
X127461847Y-81820715D01*
X127460998Y-81749027D01*
X127460829Y-81696565D01*
X127461692Y-81595047D01*
X127465070Y-81518032D01*
X127472142Y-81461023D01*
X127484088Y-81419526D01*
X127502090Y-81389043D01*
X127527327Y-81365080D01*
X127552247Y-81348355D01*
X127612171Y-81326097D01*
X127681911Y-81321076D01*
X127747600Y-81333752D01*
X127747600Y-81333752D01*
G37*
X127747600Y-81333752D02*
X127764948Y-81341334D01*
X127806356Y-81374128D01*
X127841765Y-81421547D01*
X127863664Y-81472151D01*
X127867229Y-81497098D01*
X127855279Y-81531927D01*
X127829067Y-81550357D01*
X127800964Y-81561516D01*
X127788095Y-81563572D01*
X127781829Y-81548649D01*
X127769456Y-81516175D01*
X127764028Y-81501502D01*
X127733590Y-81450744D01*
X127689520Y-81425427D01*
X127633010Y-81426206D01*
X127628825Y-81427203D01*
X127598655Y-81441507D01*
X127576476Y-81469393D01*
X127561327Y-81514287D01*
X127552250Y-81579615D01*
X127548286Y-81668804D01*
X127547914Y-81716261D01*
X127547730Y-81791071D01*
X127546522Y-81842069D01*
X127543309Y-81874471D01*
X127537109Y-81893495D01*
X127526940Y-81904356D01*
X127511819Y-81912272D01*
X127510946Y-81912670D01*
X127481828Y-81924981D01*
X127467403Y-81929514D01*
X127465186Y-81915809D01*
X127463289Y-81877925D01*
X127461847Y-81820715D01*
X127460998Y-81749027D01*
X127460829Y-81696565D01*
X127461692Y-81595047D01*
X127465070Y-81518032D01*
X127472142Y-81461023D01*
X127484088Y-81419526D01*
X127502090Y-81389043D01*
X127527327Y-81365080D01*
X127552247Y-81348355D01*
X127612171Y-81326097D01*
X127681911Y-81321076D01*
X127747600Y-81333752D01*
G36*
X127239876Y-81331335D02*
X127281667Y-81350344D01*
X127314469Y-81373378D01*
X127338503Y-81399133D01*
X127355097Y-81432358D01*
X127365577Y-81477800D01*
X127371271Y-81540207D01*
X127373507Y-81624327D01*
X127373743Y-81679721D01*
X127373743Y-81895826D01*
X127336774Y-81912670D01*
X127307656Y-81924981D01*
X127293231Y-81929514D01*
X127290472Y-81916025D01*
X127288282Y-81879653D01*
X127286942Y-81826542D01*
X127286657Y-81784372D01*
X127285434Y-81723447D01*
X127282136Y-81675115D01*
X127277321Y-81645518D01*
X127273496Y-81639229D01*
X127247783Y-81645652D01*
X127207418Y-81662125D01*
X127160679Y-81684458D01*
X127115845Y-81708457D01*
X127081193Y-81729930D01*
X127065002Y-81744685D01*
X127064938Y-81744845D01*
X127066330Y-81772152D01*
X127078818Y-81798219D01*
X127100743Y-81819392D01*
X127132743Y-81826474D01*
X127160092Y-81825649D01*
X127198826Y-81825042D01*
X127219158Y-81834116D01*
X127231369Y-81858092D01*
X127232909Y-81862613D01*
X127238203Y-81896806D01*
X127224047Y-81917568D01*
X127187148Y-81927462D01*
X127147289Y-81929292D01*
X127075562Y-81915727D01*
X127038432Y-81896355D01*
X126992576Y-81850845D01*
X126968256Y-81794983D01*
X126966073Y-81735957D01*
X126986629Y-81680953D01*
X127017549Y-81646486D01*
X127048420Y-81627189D01*
X127096942Y-81602759D01*
X127153485Y-81577985D01*
X127162910Y-81574199D01*
X127225019Y-81546791D01*
X127260822Y-81522634D01*
X127272337Y-81498619D01*
X127261580Y-81471635D01*
X127243114Y-81450543D01*
X127199469Y-81424572D01*
X127151446Y-81422624D01*
X127107406Y-81442637D01*
X127075709Y-81482551D01*
X127071549Y-81492848D01*
X127047327Y-81530724D01*
X127011965Y-81558842D01*
X126967343Y-81581917D01*
X126967343Y-81516485D01*
X126969969Y-81476506D01*
X126981230Y-81444997D01*
X127006199Y-81411378D01*
X127030169Y-81385484D01*
X127067441Y-81348817D01*
X127096401Y-81329121D01*
X127127505Y-81321220D01*
X127162713Y-81319914D01*
X127239876Y-81331335D01*
X127239876Y-81331335D01*
G37*
X127239876Y-81331335D02*
X127281667Y-81350344D01*
X127314469Y-81373378D01*
X127338503Y-81399133D01*
X127355097Y-81432358D01*
X127365577Y-81477800D01*
X127371271Y-81540207D01*
X127373507Y-81624327D01*
X127373743Y-81679721D01*
X127373743Y-81895826D01*
X127336774Y-81912670D01*
X127307656Y-81924981D01*
X127293231Y-81929514D01*
X127290472Y-81916025D01*
X127288282Y-81879653D01*
X127286942Y-81826542D01*
X127286657Y-81784372D01*
X127285434Y-81723447D01*
X127282136Y-81675115D01*
X127277321Y-81645518D01*
X127273496Y-81639229D01*
X127247783Y-81645652D01*
X127207418Y-81662125D01*
X127160679Y-81684458D01*
X127115845Y-81708457D01*
X127081193Y-81729930D01*
X127065002Y-81744685D01*
X127064938Y-81744845D01*
X127066330Y-81772152D01*
X127078818Y-81798219D01*
X127100743Y-81819392D01*
X127132743Y-81826474D01*
X127160092Y-81825649D01*
X127198826Y-81825042D01*
X127219158Y-81834116D01*
X127231369Y-81858092D01*
X127232909Y-81862613D01*
X127238203Y-81896806D01*
X127224047Y-81917568D01*
X127187148Y-81927462D01*
X127147289Y-81929292D01*
X127075562Y-81915727D01*
X127038432Y-81896355D01*
X126992576Y-81850845D01*
X126968256Y-81794983D01*
X126966073Y-81735957D01*
X126986629Y-81680953D01*
X127017549Y-81646486D01*
X127048420Y-81627189D01*
X127096942Y-81602759D01*
X127153485Y-81577985D01*
X127162910Y-81574199D01*
X127225019Y-81546791D01*
X127260822Y-81522634D01*
X127272337Y-81498619D01*
X127261580Y-81471635D01*
X127243114Y-81450543D01*
X127199469Y-81424572D01*
X127151446Y-81422624D01*
X127107406Y-81442637D01*
X127075709Y-81482551D01*
X127071549Y-81492848D01*
X127047327Y-81530724D01*
X127011965Y-81558842D01*
X126967343Y-81581917D01*
X126967343Y-81516485D01*
X126969969Y-81476506D01*
X126981230Y-81444997D01*
X127006199Y-81411378D01*
X127030169Y-81385484D01*
X127067441Y-81348817D01*
X127096401Y-81329121D01*
X127127505Y-81321220D01*
X127162713Y-81319914D01*
X127239876Y-81331335D01*
G36*
X126874833Y-81333663D02*
X126877048Y-81371850D01*
X126878784Y-81429886D01*
X126879899Y-81503180D01*
X126880257Y-81580055D01*
X126880257Y-81840196D01*
X126834326Y-81886127D01*
X126802675Y-81914429D01*
X126774890Y-81925893D01*
X126736915Y-81925168D01*
X126721840Y-81923321D01*
X126674726Y-81917948D01*
X126635756Y-81914869D01*
X126626257Y-81914585D01*
X126594233Y-81916445D01*
X126548432Y-81921114D01*
X126530674Y-81923321D01*
X126487057Y-81926735D01*
X126457745Y-81919320D01*
X126428680Y-81896427D01*
X126418188Y-81886127D01*
X126372257Y-81840196D01*
X126372257Y-81353602D01*
X126409226Y-81336758D01*
X126441059Y-81324282D01*
X126459683Y-81319914D01*
X126464458Y-81333718D01*
X126468921Y-81372286D01*
X126472775Y-81431356D01*
X126475722Y-81506663D01*
X126477143Y-81570286D01*
X126481114Y-81820657D01*
X126515759Y-81825556D01*
X126547268Y-81822131D01*
X126562708Y-81811041D01*
X126567023Y-81790308D01*
X126570708Y-81746145D01*
X126573469Y-81684146D01*
X126575012Y-81609909D01*
X126575235Y-81571706D01*
X126575457Y-81351783D01*
X126621166Y-81335849D01*
X126653518Y-81325015D01*
X126671115Y-81319962D01*
X126671623Y-81319914D01*
X126673388Y-81333648D01*
X126675329Y-81371730D01*
X126677282Y-81429482D01*
X126679084Y-81502227D01*
X126680343Y-81570286D01*
X126684314Y-81820657D01*
X126771400Y-81820657D01*
X126775396Y-81592240D01*
X126779392Y-81363822D01*
X126821847Y-81341868D01*
X126853192Y-81326793D01*
X126871744Y-81319951D01*
X126872279Y-81319914D01*
X126874833Y-81333663D01*
X126874833Y-81333663D01*
G37*
X126874833Y-81333663D02*
X126877048Y-81371850D01*
X126878784Y-81429886D01*
X126879899Y-81503180D01*
X126880257Y-81580055D01*
X126880257Y-81840196D01*
X126834326Y-81886127D01*
X126802675Y-81914429D01*
X126774890Y-81925893D01*
X126736915Y-81925168D01*
X126721840Y-81923321D01*
X126674726Y-81917948D01*
X126635756Y-81914869D01*
X126626257Y-81914585D01*
X126594233Y-81916445D01*
X126548432Y-81921114D01*
X126530674Y-81923321D01*
X126487057Y-81926735D01*
X126457745Y-81919320D01*
X126428680Y-81896427D01*
X126418188Y-81886127D01*
X126372257Y-81840196D01*
X126372257Y-81353602D01*
X126409226Y-81336758D01*
X126441059Y-81324282D01*
X126459683Y-81319914D01*
X126464458Y-81333718D01*
X126468921Y-81372286D01*
X126472775Y-81431356D01*
X126475722Y-81506663D01*
X126477143Y-81570286D01*
X126481114Y-81820657D01*
X126515759Y-81825556D01*
X126547268Y-81822131D01*
X126562708Y-81811041D01*
X126567023Y-81790308D01*
X126570708Y-81746145D01*
X126573469Y-81684146D01*
X126575012Y-81609909D01*
X126575235Y-81571706D01*
X126575457Y-81351783D01*
X126621166Y-81335849D01*
X126653518Y-81325015D01*
X126671115Y-81319962D01*
X126671623Y-81319914D01*
X126673388Y-81333648D01*
X126675329Y-81371730D01*
X126677282Y-81429482D01*
X126679084Y-81502227D01*
X126680343Y-81570286D01*
X126684314Y-81820657D01*
X126771400Y-81820657D01*
X126775396Y-81592240D01*
X126779392Y-81363822D01*
X126821847Y-81341868D01*
X126853192Y-81326793D01*
X126871744Y-81319951D01*
X126872279Y-81319914D01*
X126874833Y-81333663D01*
G36*
X126285117Y-81440358D02*
X126284933Y-81548837D01*
X126284219Y-81632287D01*
X126282675Y-81694704D01*
X126280001Y-81740085D01*
X126275894Y-81772429D01*
X126270055Y-81795733D01*
X126262182Y-81813995D01*
X126256221Y-81824418D01*
X126206855Y-81880945D01*
X126144264Y-81916377D01*
X126075013Y-81929090D01*
X126005668Y-81917463D01*
X125964375Y-81896568D01*
X125921025Y-81860422D01*
X125891481Y-81816276D01*
X125873655Y-81758462D01*
X125865463Y-81681313D01*
X125864302Y-81624714D01*
X125864458Y-81620647D01*
X125965857Y-81620647D01*
X125966476Y-81685550D01*
X125969314Y-81728514D01*
X125975840Y-81756622D01*
X125987523Y-81776953D01*
X126001483Y-81792288D01*
X126048365Y-81821890D01*
X126098701Y-81824419D01*
X126146276Y-81799705D01*
X126149979Y-81796356D01*
X126165783Y-81778935D01*
X126175693Y-81758209D01*
X126181058Y-81727362D01*
X126183228Y-81679577D01*
X126183571Y-81626748D01*
X126182827Y-81560381D01*
X126179748Y-81516106D01*
X126173061Y-81487009D01*
X126161496Y-81466173D01*
X126152013Y-81455107D01*
X126107960Y-81427198D01*
X126057224Y-81423843D01*
X126008796Y-81445159D01*
X125999450Y-81453073D01*
X125983540Y-81470647D01*
X125973610Y-81491587D01*
X125968278Y-81522782D01*
X125966163Y-81571122D01*
X125965857Y-81620647D01*
X125864458Y-81620647D01*
X125867810Y-81533568D01*
X125879726Y-81465086D01*
X125902135Y-81413600D01*
X125937124Y-81373443D01*
X125964375Y-81352861D01*
X126013907Y-81330625D01*
X126071316Y-81320304D01*
X126124682Y-81323067D01*
X126154543Y-81334212D01*
X126166261Y-81337383D01*
X126174037Y-81325557D01*
X126179465Y-81293866D01*
X126183571Y-81245593D01*
X126188067Y-81191829D01*
X126194313Y-81159482D01*
X126205676Y-81140985D01*
X126225528Y-81128770D01*
X126238000Y-81123362D01*
X126285171Y-81103601D01*
X126285117Y-81440358D01*
X126285117Y-81440358D01*
G37*
X126285117Y-81440358D02*
X126284933Y-81548837D01*
X126284219Y-81632287D01*
X126282675Y-81694704D01*
X126280001Y-81740085D01*
X126275894Y-81772429D01*
X126270055Y-81795733D01*
X126262182Y-81813995D01*
X126256221Y-81824418D01*
X126206855Y-81880945D01*
X126144264Y-81916377D01*
X126075013Y-81929090D01*
X126005668Y-81917463D01*
X125964375Y-81896568D01*
X125921025Y-81860422D01*
X125891481Y-81816276D01*
X125873655Y-81758462D01*
X125865463Y-81681313D01*
X125864302Y-81624714D01*
X125864458Y-81620647D01*
X125965857Y-81620647D01*
X125966476Y-81685550D01*
X125969314Y-81728514D01*
X125975840Y-81756622D01*
X125987523Y-81776953D01*
X126001483Y-81792288D01*
X126048365Y-81821890D01*
X126098701Y-81824419D01*
X126146276Y-81799705D01*
X126149979Y-81796356D01*
X126165783Y-81778935D01*
X126175693Y-81758209D01*
X126181058Y-81727362D01*
X126183228Y-81679577D01*
X126183571Y-81626748D01*
X126182827Y-81560381D01*
X126179748Y-81516106D01*
X126173061Y-81487009D01*
X126161496Y-81466173D01*
X126152013Y-81455107D01*
X126107960Y-81427198D01*
X126057224Y-81423843D01*
X126008796Y-81445159D01*
X125999450Y-81453073D01*
X125983540Y-81470647D01*
X125973610Y-81491587D01*
X125968278Y-81522782D01*
X125966163Y-81571122D01*
X125965857Y-81620647D01*
X125864458Y-81620647D01*
X125867810Y-81533568D01*
X125879726Y-81465086D01*
X125902135Y-81413600D01*
X125937124Y-81373443D01*
X125964375Y-81352861D01*
X126013907Y-81330625D01*
X126071316Y-81320304D01*
X126124682Y-81323067D01*
X126154543Y-81334212D01*
X126166261Y-81337383D01*
X126174037Y-81325557D01*
X126179465Y-81293866D01*
X126183571Y-81245593D01*
X126188067Y-81191829D01*
X126194313Y-81159482D01*
X126205676Y-81140985D01*
X126225528Y-81128770D01*
X126238000Y-81123362D01*
X126285171Y-81103601D01*
X126285117Y-81440358D01*
G36*
X125624926Y-81324755D02*
X125690858Y-81349084D01*
X125744273Y-81392117D01*
X125765164Y-81422409D01*
X125787939Y-81477994D01*
X125787466Y-81518186D01*
X125763562Y-81545217D01*
X125754717Y-81549813D01*
X125716530Y-81564144D01*
X125697028Y-81560472D01*
X125690422Y-81536407D01*
X125690086Y-81523114D01*
X125677992Y-81474210D01*
X125646471Y-81439999D01*
X125602659Y-81423476D01*
X125553695Y-81427634D01*
X125513894Y-81449227D01*
X125500450Y-81461544D01*
X125490921Y-81476487D01*
X125484485Y-81499075D01*
X125480317Y-81534328D01*
X125477597Y-81587266D01*
X125475502Y-81662907D01*
X125474960Y-81686857D01*
X125472981Y-81768790D01*
X125470731Y-81826455D01*
X125467357Y-81864608D01*
X125462006Y-81888004D01*
X125453824Y-81901398D01*
X125441959Y-81909545D01*
X125434362Y-81913144D01*
X125402102Y-81925452D01*
X125383111Y-81929514D01*
X125376836Y-81915948D01*
X125373006Y-81874934D01*
X125371600Y-81805999D01*
X125372598Y-81708669D01*
X125372908Y-81693657D01*
X125375101Y-81604859D01*
X125377693Y-81540019D01*
X125381382Y-81494067D01*
X125386864Y-81461935D01*
X125394835Y-81438553D01*
X125405993Y-81418852D01*
X125411830Y-81410410D01*
X125445296Y-81373057D01*
X125482727Y-81344003D01*
X125487309Y-81341467D01*
X125554426Y-81321443D01*
X125624926Y-81324755D01*
X125624926Y-81324755D01*
G37*
X125624926Y-81324755D02*
X125690858Y-81349084D01*
X125744273Y-81392117D01*
X125765164Y-81422409D01*
X125787939Y-81477994D01*
X125787466Y-81518186D01*
X125763562Y-81545217D01*
X125754717Y-81549813D01*
X125716530Y-81564144D01*
X125697028Y-81560472D01*
X125690422Y-81536407D01*
X125690086Y-81523114D01*
X125677992Y-81474210D01*
X125646471Y-81439999D01*
X125602659Y-81423476D01*
X125553695Y-81427634D01*
X125513894Y-81449227D01*
X125500450Y-81461544D01*
X125490921Y-81476487D01*
X125484485Y-81499075D01*
X125480317Y-81534328D01*
X125477597Y-81587266D01*
X125475502Y-81662907D01*
X125474960Y-81686857D01*
X125472981Y-81768790D01*
X125470731Y-81826455D01*
X125467357Y-81864608D01*
X125462006Y-81888004D01*
X125453824Y-81901398D01*
X125441959Y-81909545D01*
X125434362Y-81913144D01*
X125402102Y-81925452D01*
X125383111Y-81929514D01*
X125376836Y-81915948D01*
X125373006Y-81874934D01*
X125371600Y-81805999D01*
X125372598Y-81708669D01*
X125372908Y-81693657D01*
X125375101Y-81604859D01*
X125377693Y-81540019D01*
X125381382Y-81494067D01*
X125386864Y-81461935D01*
X125394835Y-81438553D01*
X125405993Y-81418852D01*
X125411830Y-81410410D01*
X125445296Y-81373057D01*
X125482727Y-81344003D01*
X125487309Y-81341467D01*
X125554426Y-81321443D01*
X125624926Y-81324755D01*
G36*
X125134744Y-81325968D02*
X125191616Y-81347087D01*
X125192267Y-81347493D01*
X125227440Y-81373380D01*
X125253407Y-81403633D01*
X125271670Y-81443058D01*
X125283732Y-81496462D01*
X125291096Y-81568651D01*
X125295264Y-81664432D01*
X125295629Y-81678078D01*
X125300876Y-81883842D01*
X125256716Y-81906678D01*
X125224763Y-81922110D01*
X125205470Y-81929423D01*
X125204578Y-81929514D01*
X125201239Y-81916022D01*
X125198587Y-81879626D01*
X125196956Y-81826452D01*
X125196600Y-81783393D01*
X125196592Y-81713641D01*
X125193403Y-81669837D01*
X125182288Y-81648944D01*
X125158501Y-81647925D01*
X125117296Y-81663741D01*
X125055086Y-81692815D01*
X125009341Y-81716963D01*
X124985813Y-81737913D01*
X124978896Y-81760747D01*
X124978886Y-81761877D01*
X124990299Y-81801212D01*
X125024092Y-81822462D01*
X125075809Y-81825539D01*
X125113061Y-81825006D01*
X125132703Y-81835735D01*
X125144952Y-81861505D01*
X125152002Y-81894337D01*
X125141842Y-81912966D01*
X125138017Y-81915632D01*
X125102001Y-81926340D01*
X125051566Y-81927856D01*
X124999626Y-81920759D01*
X124962822Y-81907788D01*
X124911938Y-81864585D01*
X124883014Y-81804446D01*
X124877286Y-81757462D01*
X124881657Y-81715082D01*
X124897475Y-81680488D01*
X124928797Y-81649763D01*
X124979678Y-81618990D01*
X125054176Y-81584252D01*
X125058714Y-81582288D01*
X125125821Y-81551287D01*
X125167232Y-81525862D01*
X125184981Y-81503014D01*
X125181107Y-81479745D01*
X125157643Y-81453056D01*
X125150627Y-81446914D01*
X125103630Y-81423100D01*
X125054933Y-81424103D01*
X125012522Y-81447451D01*
X124984384Y-81490675D01*
X124981769Y-81499160D01*
X124956308Y-81540308D01*
X124924001Y-81560128D01*
X124877286Y-81579770D01*
X124877286Y-81528950D01*
X124891496Y-81455082D01*
X124933675Y-81387327D01*
X124955624Y-81364661D01*
X125005517Y-81335569D01*
X125068967Y-81322400D01*
X125134744Y-81325968D01*
X125134744Y-81325968D01*
G37*
X125134744Y-81325968D02*
X125191616Y-81347087D01*
X125192267Y-81347493D01*
X125227440Y-81373380D01*
X125253407Y-81403633D01*
X125271670Y-81443058D01*
X125283732Y-81496462D01*
X125291096Y-81568651D01*
X125295264Y-81664432D01*
X125295629Y-81678078D01*
X125300876Y-81883842D01*
X125256716Y-81906678D01*
X125224763Y-81922110D01*
X125205470Y-81929423D01*
X125204578Y-81929514D01*
X125201239Y-81916022D01*
X125198587Y-81879626D01*
X125196956Y-81826452D01*
X125196600Y-81783393D01*
X125196592Y-81713641D01*
X125193403Y-81669837D01*
X125182288Y-81648944D01*
X125158501Y-81647925D01*
X125117296Y-81663741D01*
X125055086Y-81692815D01*
X125009341Y-81716963D01*
X124985813Y-81737913D01*
X124978896Y-81760747D01*
X124978886Y-81761877D01*
X124990299Y-81801212D01*
X125024092Y-81822462D01*
X125075809Y-81825539D01*
X125113061Y-81825006D01*
X125132703Y-81835735D01*
X125144952Y-81861505D01*
X125152002Y-81894337D01*
X125141842Y-81912966D01*
X125138017Y-81915632D01*
X125102001Y-81926340D01*
X125051566Y-81927856D01*
X124999626Y-81920759D01*
X124962822Y-81907788D01*
X124911938Y-81864585D01*
X124883014Y-81804446D01*
X124877286Y-81757462D01*
X124881657Y-81715082D01*
X124897475Y-81680488D01*
X124928797Y-81649763D01*
X124979678Y-81618990D01*
X125054176Y-81584252D01*
X125058714Y-81582288D01*
X125125821Y-81551287D01*
X125167232Y-81525862D01*
X125184981Y-81503014D01*
X125181107Y-81479745D01*
X125157643Y-81453056D01*
X125150627Y-81446914D01*
X125103630Y-81423100D01*
X125054933Y-81424103D01*
X125012522Y-81447451D01*
X124984384Y-81490675D01*
X124981769Y-81499160D01*
X124956308Y-81540308D01*
X124924001Y-81560128D01*
X124877286Y-81579770D01*
X124877286Y-81528950D01*
X124891496Y-81455082D01*
X124933675Y-81387327D01*
X124955624Y-81364661D01*
X125005517Y-81335569D01*
X125068967Y-81322400D01*
X125134744Y-81325968D01*
G36*
X124470886Y-81226289D02*
X124475139Y-81285613D01*
X124480025Y-81320572D01*
X124486795Y-81335820D01*
X124496702Y-81336015D01*
X124499914Y-81334195D01*
X124542644Y-81321015D01*
X124598227Y-81321785D01*
X124654737Y-81335333D01*
X124690082Y-81352861D01*
X124726321Y-81380861D01*
X124752813Y-81412549D01*
X124770999Y-81452813D01*
X124782322Y-81506543D01*
X124788222Y-81578626D01*
X124790143Y-81673951D01*
X124790177Y-81692237D01*
X124790200Y-81897646D01*
X124744491Y-81913580D01*
X124712027Y-81924420D01*
X124694215Y-81929468D01*
X124693691Y-81929514D01*
X124691937Y-81915828D01*
X124690444Y-81878076D01*
X124689326Y-81821224D01*
X124688697Y-81750234D01*
X124688600Y-81707073D01*
X124688398Y-81621973D01*
X124687358Y-81560981D01*
X124684831Y-81519177D01*
X124680164Y-81491642D01*
X124672707Y-81473456D01*
X124661811Y-81459698D01*
X124655007Y-81453073D01*
X124608272Y-81426375D01*
X124557272Y-81424375D01*
X124511001Y-81446955D01*
X124502444Y-81455107D01*
X124489893Y-81470436D01*
X124481188Y-81488618D01*
X124475631Y-81514909D01*
X124472526Y-81554562D01*
X124471176Y-81612832D01*
X124470886Y-81693173D01*
X124470886Y-81897646D01*
X124425177Y-81913580D01*
X124392713Y-81924420D01*
X124374901Y-81929468D01*
X124374377Y-81929514D01*
X124373037Y-81915623D01*
X124371828Y-81876439D01*
X124370801Y-81815700D01*
X124370002Y-81737141D01*
X124369481Y-81644498D01*
X124369286Y-81541509D01*
X124369286Y-81144342D01*
X124416457Y-81124444D01*
X124463629Y-81104547D01*
X124470886Y-81226289D01*
X124470886Y-81226289D01*
G37*
X124470886Y-81226289D02*
X124475139Y-81285613D01*
X124480025Y-81320572D01*
X124486795Y-81335820D01*
X124496702Y-81336015D01*
X124499914Y-81334195D01*
X124542644Y-81321015D01*
X124598227Y-81321785D01*
X124654737Y-81335333D01*
X124690082Y-81352861D01*
X124726321Y-81380861D01*
X124752813Y-81412549D01*
X124770999Y-81452813D01*
X124782322Y-81506543D01*
X124788222Y-81578626D01*
X124790143Y-81673951D01*
X124790177Y-81692237D01*
X124790200Y-81897646D01*
X124744491Y-81913580D01*
X124712027Y-81924420D01*
X124694215Y-81929468D01*
X124693691Y-81929514D01*
X124691937Y-81915828D01*
X124690444Y-81878076D01*
X124689326Y-81821224D01*
X124688697Y-81750234D01*
X124688600Y-81707073D01*
X124688398Y-81621973D01*
X124687358Y-81560981D01*
X124684831Y-81519177D01*
X124680164Y-81491642D01*
X124672707Y-81473456D01*
X124661811Y-81459698D01*
X124655007Y-81453073D01*
X124608272Y-81426375D01*
X124557272Y-81424375D01*
X124511001Y-81446955D01*
X124502444Y-81455107D01*
X124489893Y-81470436D01*
X124481188Y-81488618D01*
X124475631Y-81514909D01*
X124472526Y-81554562D01*
X124471176Y-81612832D01*
X124470886Y-81693173D01*
X124470886Y-81897646D01*
X124425177Y-81913580D01*
X124392713Y-81924420D01*
X124374901Y-81929468D01*
X124374377Y-81929514D01*
X124373037Y-81915623D01*
X124371828Y-81876439D01*
X124370801Y-81815700D01*
X124370002Y-81737141D01*
X124369481Y-81644498D01*
X124369286Y-81541509D01*
X124369286Y-81144342D01*
X124416457Y-81124444D01*
X124463629Y-81104547D01*
X124470886Y-81226289D01*
G36*
X123263303Y-81306239D02*
X123320527Y-81344735D01*
X123364749Y-81400335D01*
X123391167Y-81471086D01*
X123396510Y-81523162D01*
X123395903Y-81544893D01*
X123390822Y-81561531D01*
X123376855Y-81576437D01*
X123349589Y-81592973D01*
X123304612Y-81614498D01*
X123237511Y-81644374D01*
X123237171Y-81644524D01*
X123175407Y-81672813D01*
X123124759Y-81697933D01*
X123090404Y-81717179D01*
X123077518Y-81727848D01*
X123077514Y-81727934D01*
X123088872Y-81751166D01*
X123115431Y-81776774D01*
X123145923Y-81795221D01*
X123161370Y-81798886D01*
X123203515Y-81786212D01*
X123239808Y-81754471D01*
X123257517Y-81719572D01*
X123274552Y-81693845D01*
X123307922Y-81664546D01*
X123347149Y-81639235D01*
X123381756Y-81625471D01*
X123388993Y-81624714D01*
X123397139Y-81637160D01*
X123397630Y-81668972D01*
X123391643Y-81711866D01*
X123380357Y-81757558D01*
X123364950Y-81797761D01*
X123364171Y-81799322D01*
X123317804Y-81864062D01*
X123257711Y-81908097D01*
X123189465Y-81929711D01*
X123118638Y-81927185D01*
X123050804Y-81898804D01*
X123047788Y-81896808D01*
X122994427Y-81848448D01*
X122959340Y-81785352D01*
X122939922Y-81702387D01*
X122937316Y-81679078D01*
X122932701Y-81569055D01*
X122938233Y-81517748D01*
X123077514Y-81517748D01*
X123079324Y-81549753D01*
X123089222Y-81559093D01*
X123113898Y-81552105D01*
X123152795Y-81535587D01*
X123196275Y-81514881D01*
X123197356Y-81514333D01*
X123234209Y-81494949D01*
X123249000Y-81482013D01*
X123245353Y-81468451D01*
X123229995Y-81450632D01*
X123190923Y-81424845D01*
X123148846Y-81422950D01*
X123111103Y-81441717D01*
X123085034Y-81477915D01*
X123077514Y-81517748D01*
X122938233Y-81517748D01*
X122942194Y-81481027D01*
X122966550Y-81411212D01*
X123000456Y-81362302D01*
X123061653Y-81312878D01*
X123129063Y-81288359D01*
X123197880Y-81286797D01*
X123263303Y-81306239D01*
X123263303Y-81306239D01*
G37*
X123263303Y-81306239D02*
X123320527Y-81344735D01*
X123364749Y-81400335D01*
X123391167Y-81471086D01*
X123396510Y-81523162D01*
X123395903Y-81544893D01*
X123390822Y-81561531D01*
X123376855Y-81576437D01*
X123349589Y-81592973D01*
X123304612Y-81614498D01*
X123237511Y-81644374D01*
X123237171Y-81644524D01*
X123175407Y-81672813D01*
X123124759Y-81697933D01*
X123090404Y-81717179D01*
X123077518Y-81727848D01*
X123077514Y-81727934D01*
X123088872Y-81751166D01*
X123115431Y-81776774D01*
X123145923Y-81795221D01*
X123161370Y-81798886D01*
X123203515Y-81786212D01*
X123239808Y-81754471D01*
X123257517Y-81719572D01*
X123274552Y-81693845D01*
X123307922Y-81664546D01*
X123347149Y-81639235D01*
X123381756Y-81625471D01*
X123388993Y-81624714D01*
X123397139Y-81637160D01*
X123397630Y-81668972D01*
X123391643Y-81711866D01*
X123380357Y-81757558D01*
X123364950Y-81797761D01*
X123364171Y-81799322D01*
X123317804Y-81864062D01*
X123257711Y-81908097D01*
X123189465Y-81929711D01*
X123118638Y-81927185D01*
X123050804Y-81898804D01*
X123047788Y-81896808D01*
X122994427Y-81848448D01*
X122959340Y-81785352D01*
X122939922Y-81702387D01*
X122937316Y-81679078D01*
X122932701Y-81569055D01*
X122938233Y-81517748D01*
X123077514Y-81517748D01*
X123079324Y-81549753D01*
X123089222Y-81559093D01*
X123113898Y-81552105D01*
X123152795Y-81535587D01*
X123196275Y-81514881D01*
X123197356Y-81514333D01*
X123234209Y-81494949D01*
X123249000Y-81482013D01*
X123245353Y-81468451D01*
X123229995Y-81450632D01*
X123190923Y-81424845D01*
X123148846Y-81422950D01*
X123111103Y-81441717D01*
X123085034Y-81477915D01*
X123077514Y-81517748D01*
X122938233Y-81517748D01*
X122942194Y-81481027D01*
X122966550Y-81411212D01*
X123000456Y-81362302D01*
X123061653Y-81312878D01*
X123129063Y-81288359D01*
X123197880Y-81286797D01*
X123263303Y-81306239D01*
G36*
X122136115Y-81296962D02*
X122204145Y-81332733D01*
X122254351Y-81390301D01*
X122272185Y-81427312D01*
X122286063Y-81482882D01*
X122293167Y-81553096D01*
X122293840Y-81629727D01*
X122288427Y-81704552D01*
X122277270Y-81769342D01*
X122260714Y-81815873D01*
X122255626Y-81823887D01*
X122195355Y-81883707D01*
X122123769Y-81919535D01*
X122046092Y-81930020D01*
X121967548Y-81913810D01*
X121945689Y-81904092D01*
X121903122Y-81874143D01*
X121865763Y-81834433D01*
X121862232Y-81829397D01*
X121847881Y-81805124D01*
X121838394Y-81779178D01*
X121832790Y-81745022D01*
X121830086Y-81696119D01*
X121829299Y-81625935D01*
X121829286Y-81610200D01*
X121829322Y-81605192D01*
X121974429Y-81605192D01*
X121975273Y-81671430D01*
X121978596Y-81715386D01*
X121985583Y-81743779D01*
X121997416Y-81763325D01*
X122003457Y-81769857D01*
X122038186Y-81794680D01*
X122071903Y-81793548D01*
X122105995Y-81772016D01*
X122126329Y-81749029D01*
X122138371Y-81715478D01*
X122145134Y-81662569D01*
X122145598Y-81656399D01*
X122146752Y-81560513D01*
X122134688Y-81489299D01*
X122109570Y-81443194D01*
X122071560Y-81422635D01*
X122057992Y-81421514D01*
X122022364Y-81427152D01*
X121997994Y-81446686D01*
X121983093Y-81484042D01*
X121975875Y-81543150D01*
X121974429Y-81605192D01*
X121829322Y-81605192D01*
X121829826Y-81535413D01*
X121832096Y-81483159D01*
X121837068Y-81446949D01*
X121845713Y-81420299D01*
X121859005Y-81396722D01*
X121861943Y-81392338D01*
X121911313Y-81333249D01*
X121965109Y-81298947D01*
X122030602Y-81285331D01*
X122052842Y-81284665D01*
X122136115Y-81296962D01*
X122136115Y-81296962D01*
G37*
X122136115Y-81296962D02*
X122204145Y-81332733D01*
X122254351Y-81390301D01*
X122272185Y-81427312D01*
X122286063Y-81482882D01*
X122293167Y-81553096D01*
X122293840Y-81629727D01*
X122288427Y-81704552D01*
X122277270Y-81769342D01*
X122260714Y-81815873D01*
X122255626Y-81823887D01*
X122195355Y-81883707D01*
X122123769Y-81919535D01*
X122046092Y-81930020D01*
X121967548Y-81913810D01*
X121945689Y-81904092D01*
X121903122Y-81874143D01*
X121865763Y-81834433D01*
X121862232Y-81829397D01*
X121847881Y-81805124D01*
X121838394Y-81779178D01*
X121832790Y-81745022D01*
X121830086Y-81696119D01*
X121829299Y-81625935D01*
X121829286Y-81610200D01*
X121829322Y-81605192D01*
X121974429Y-81605192D01*
X121975273Y-81671430D01*
X121978596Y-81715386D01*
X121985583Y-81743779D01*
X121997416Y-81763325D01*
X122003457Y-81769857D01*
X122038186Y-81794680D01*
X122071903Y-81793548D01*
X122105995Y-81772016D01*
X122126329Y-81749029D01*
X122138371Y-81715478D01*
X122145134Y-81662569D01*
X122145598Y-81656399D01*
X122146752Y-81560513D01*
X122134688Y-81489299D01*
X122109570Y-81443194D01*
X122071560Y-81422635D01*
X122057992Y-81421514D01*
X122022364Y-81427152D01*
X121997994Y-81446686D01*
X121983093Y-81484042D01*
X121975875Y-81543150D01*
X121974429Y-81605192D01*
X121829322Y-81605192D01*
X121829826Y-81535413D01*
X121832096Y-81483159D01*
X121837068Y-81446949D01*
X121845713Y-81420299D01*
X121859005Y-81396722D01*
X121861943Y-81392338D01*
X121911313Y-81333249D01*
X121965109Y-81298947D01*
X122030602Y-81285331D01*
X122052842Y-81284665D01*
X122136115Y-81296962D01*
G36*
X123811093Y-81302780D02*
X123857672Y-81329723D01*
X123890057Y-81356466D01*
X123913742Y-81384484D01*
X123930059Y-81418748D01*
X123940339Y-81464227D01*
X123945914Y-81525892D01*
X123948116Y-81608711D01*
X123948371Y-81668246D01*
X123948371Y-81887391D01*
X123886686Y-81915044D01*
X123825000Y-81942697D01*
X123817743Y-81702670D01*
X123814744Y-81613028D01*
X123811598Y-81547962D01*
X123807701Y-81503026D01*
X123802447Y-81473770D01*
X123795231Y-81455748D01*
X123785450Y-81444511D01*
X123782312Y-81442079D01*
X123734761Y-81423083D01*
X123686697Y-81430600D01*
X123658086Y-81450543D01*
X123646447Y-81464675D01*
X123638391Y-81483220D01*
X123633271Y-81511334D01*
X123630441Y-81554173D01*
X123629256Y-81616895D01*
X123629057Y-81682261D01*
X123629018Y-81764268D01*
X123627614Y-81822316D01*
X123622914Y-81861465D01*
X123612987Y-81886780D01*
X123595903Y-81903323D01*
X123569732Y-81916156D01*
X123534775Y-81929491D01*
X123496596Y-81944007D01*
X123501141Y-81686389D01*
X123502971Y-81593519D01*
X123505112Y-81524889D01*
X123508181Y-81475711D01*
X123512794Y-81441198D01*
X123519568Y-81416562D01*
X123529119Y-81397016D01*
X123540634Y-81379770D01*
X123596190Y-81324680D01*
X123663980Y-81292822D01*
X123737713Y-81285191D01*
X123811093Y-81302780D01*
X123811093Y-81302780D01*
G37*
X123811093Y-81302780D02*
X123857672Y-81329723D01*
X123890057Y-81356466D01*
X123913742Y-81384484D01*
X123930059Y-81418748D01*
X123940339Y-81464227D01*
X123945914Y-81525892D01*
X123948116Y-81608711D01*
X123948371Y-81668246D01*
X123948371Y-81887391D01*
X123886686Y-81915044D01*
X123825000Y-81942697D01*
X123817743Y-81702670D01*
X123814744Y-81613028D01*
X123811598Y-81547962D01*
X123807701Y-81503026D01*
X123802447Y-81473770D01*
X123795231Y-81455748D01*
X123785450Y-81444511D01*
X123782312Y-81442079D01*
X123734761Y-81423083D01*
X123686697Y-81430600D01*
X123658086Y-81450543D01*
X123646447Y-81464675D01*
X123638391Y-81483220D01*
X123633271Y-81511334D01*
X123630441Y-81554173D01*
X123629256Y-81616895D01*
X123629057Y-81682261D01*
X123629018Y-81764268D01*
X123627614Y-81822316D01*
X123622914Y-81861465D01*
X123612987Y-81886780D01*
X123595903Y-81903323D01*
X123569732Y-81916156D01*
X123534775Y-81929491D01*
X123496596Y-81944007D01*
X123501141Y-81686389D01*
X123502971Y-81593519D01*
X123505112Y-81524889D01*
X123508181Y-81475711D01*
X123512794Y-81441198D01*
X123519568Y-81416562D01*
X123529119Y-81397016D01*
X123540634Y-81379770D01*
X123596190Y-81324680D01*
X123663980Y-81292822D01*
X123737713Y-81285191D01*
X123811093Y-81302780D01*
G36*
X122694744Y-81294918D02*
X122750201Y-81322568D01*
X122799148Y-81373480D01*
X122812629Y-81392338D01*
X122827314Y-81417015D01*
X122836842Y-81443816D01*
X122842293Y-81479587D01*
X122844747Y-81531169D01*
X122845286Y-81599267D01*
X122842852Y-81692588D01*
X122834394Y-81762657D01*
X122818174Y-81814931D01*
X122792454Y-81854869D01*
X122755497Y-81887929D01*
X122752782Y-81889886D01*
X122716360Y-81909908D01*
X122672502Y-81919815D01*
X122616724Y-81922257D01*
X122526048Y-81922257D01*
X122526010Y-82010283D01*
X122525166Y-82059308D01*
X122520024Y-82088065D01*
X122506587Y-82105311D01*
X122480858Y-82119808D01*
X122474679Y-82122769D01*
X122445764Y-82136648D01*
X122423376Y-82145414D01*
X122406729Y-82146171D01*
X122395036Y-82136023D01*
X122387510Y-82112073D01*
X122383366Y-82071426D01*
X122381815Y-82011186D01*
X122382071Y-81928455D01*
X122383349Y-81820339D01*
X122383748Y-81788000D01*
X122385185Y-81676524D01*
X122386472Y-81603603D01*
X122525971Y-81603603D01*
X122526755Y-81665499D01*
X122530240Y-81705997D01*
X122538124Y-81732708D01*
X122552105Y-81753244D01*
X122561597Y-81763260D01*
X122600404Y-81792567D01*
X122634763Y-81794952D01*
X122670216Y-81770750D01*
X122671114Y-81769857D01*
X122685539Y-81751153D01*
X122694313Y-81725732D01*
X122698739Y-81686584D01*
X122700118Y-81626697D01*
X122700143Y-81613430D01*
X122696812Y-81530901D01*
X122685969Y-81473691D01*
X122666340Y-81438766D01*
X122636650Y-81423094D01*
X122619491Y-81421514D01*
X122578766Y-81428926D01*
X122550832Y-81453330D01*
X122534017Y-81497980D01*
X122526650Y-81566130D01*
X122525971Y-81603603D01*
X122386472Y-81603603D01*
X122386708Y-81590245D01*
X122388677Y-81525333D01*
X122391450Y-81477958D01*
X122395388Y-81444290D01*
X122400849Y-81420498D01*
X122408192Y-81402753D01*
X122417777Y-81387224D01*
X122421887Y-81381381D01*
X122476405Y-81326185D01*
X122545336Y-81294890D01*
X122625072Y-81286165D01*
X122694744Y-81294918D01*
X122694744Y-81294918D01*
G37*
X122694744Y-81294918D02*
X122750201Y-81322568D01*
X122799148Y-81373480D01*
X122812629Y-81392338D01*
X122827314Y-81417015D01*
X122836842Y-81443816D01*
X122842293Y-81479587D01*
X122844747Y-81531169D01*
X122845286Y-81599267D01*
X122842852Y-81692588D01*
X122834394Y-81762657D01*
X122818174Y-81814931D01*
X122792454Y-81854869D01*
X122755497Y-81887929D01*
X122752782Y-81889886D01*
X122716360Y-81909908D01*
X122672502Y-81919815D01*
X122616724Y-81922257D01*
X122526048Y-81922257D01*
X122526010Y-82010283D01*
X122525166Y-82059308D01*
X122520024Y-82088065D01*
X122506587Y-82105311D01*
X122480858Y-82119808D01*
X122474679Y-82122769D01*
X122445764Y-82136648D01*
X122423376Y-82145414D01*
X122406729Y-82146171D01*
X122395036Y-82136023D01*
X122387510Y-82112073D01*
X122383366Y-82071426D01*
X122381815Y-82011186D01*
X122382071Y-81928455D01*
X122383349Y-81820339D01*
X122383748Y-81788000D01*
X122385185Y-81676524D01*
X122386472Y-81603603D01*
X122525971Y-81603603D01*
X122526755Y-81665499D01*
X122530240Y-81705997D01*
X122538124Y-81732708D01*
X122552105Y-81753244D01*
X122561597Y-81763260D01*
X122600404Y-81792567D01*
X122634763Y-81794952D01*
X122670216Y-81770750D01*
X122671114Y-81769857D01*
X122685539Y-81751153D01*
X122694313Y-81725732D01*
X122698739Y-81686584D01*
X122700118Y-81626697D01*
X122700143Y-81613430D01*
X122696812Y-81530901D01*
X122685969Y-81473691D01*
X122666340Y-81438766D01*
X122636650Y-81423094D01*
X122619491Y-81421514D01*
X122578766Y-81428926D01*
X122550832Y-81453330D01*
X122534017Y-81497980D01*
X122526650Y-81566130D01*
X122525971Y-81603603D01*
X122386472Y-81603603D01*
X122386708Y-81590245D01*
X122388677Y-81525333D01*
X122391450Y-81477958D01*
X122395388Y-81444290D01*
X122400849Y-81420498D01*
X122408192Y-81402753D01*
X122417777Y-81387224D01*
X122421887Y-81381381D01*
X122476405Y-81326185D01*
X122545336Y-81294890D01*
X122625072Y-81286165D01*
X122694744Y-81294918D01*
G04 #@! TO.C,C1*
D12*
X129812142Y-88214166D02*
X129859761Y-88261785D01*
X129907380Y-88404642D01*
X129907380Y-88499880D01*
X129859761Y-88642738D01*
X129764523Y-88737976D01*
X129669285Y-88785595D01*
X129478809Y-88833214D01*
X129335952Y-88833214D01*
X129145476Y-88785595D01*
X129050238Y-88737976D01*
X128955000Y-88642738D01*
X128907380Y-88499880D01*
X128907380Y-88404642D01*
X128955000Y-88261785D01*
X129002619Y-88214166D01*
X129907380Y-87261785D02*
X129907380Y-87833214D01*
X129907380Y-87547500D02*
X128907380Y-87547500D01*
X129050238Y-87642738D01*
X129145476Y-87737976D01*
X129193095Y-87833214D01*
G04 #@! TO.C,C2*
X139337142Y-84404166D02*
X139384761Y-84451785D01*
X139432380Y-84594642D01*
X139432380Y-84689880D01*
X139384761Y-84832738D01*
X139289523Y-84927976D01*
X139194285Y-84975595D01*
X139003809Y-85023214D01*
X138860952Y-85023214D01*
X138670476Y-84975595D01*
X138575238Y-84927976D01*
X138480000Y-84832738D01*
X138432380Y-84689880D01*
X138432380Y-84594642D01*
X138480000Y-84451785D01*
X138527619Y-84404166D01*
X138527619Y-84023214D02*
X138480000Y-83975595D01*
X138432380Y-83880357D01*
X138432380Y-83642261D01*
X138480000Y-83547023D01*
X138527619Y-83499404D01*
X138622857Y-83451785D01*
X138718095Y-83451785D01*
X138860952Y-83499404D01*
X139432380Y-84070833D01*
X139432380Y-83451785D01*
G04 #@! TO.C,C3*
X135697142Y-90554166D02*
X135744761Y-90601785D01*
X135792380Y-90744642D01*
X135792380Y-90839880D01*
X135744761Y-90982738D01*
X135649523Y-91077976D01*
X135554285Y-91125595D01*
X135363809Y-91173214D01*
X135220952Y-91173214D01*
X135030476Y-91125595D01*
X134935238Y-91077976D01*
X134840000Y-90982738D01*
X134792380Y-90839880D01*
X134792380Y-90744642D01*
X134840000Y-90601785D01*
X134887619Y-90554166D01*
X134792380Y-90220833D02*
X134792380Y-89601785D01*
X135173333Y-89935119D01*
X135173333Y-89792261D01*
X135220952Y-89697023D01*
X135268571Y-89649404D01*
X135363809Y-89601785D01*
X135601904Y-89601785D01*
X135697142Y-89649404D01*
X135744761Y-89697023D01*
X135792380Y-89792261D01*
X135792380Y-90077976D01*
X135744761Y-90173214D01*
X135697142Y-90220833D01*
G04 #@! TO.C,J1*
X122323266Y-91095580D02*
X122323266Y-91809866D01*
X122275647Y-91952723D01*
X122180409Y-92047961D01*
X122037552Y-92095580D01*
X121942314Y-92095580D01*
X123323266Y-92095580D02*
X122751838Y-92095580D01*
X123037552Y-92095580D02*
X123037552Y-91095580D01*
X122942314Y-91238438D01*
X122847076Y-91333676D01*
X122751838Y-91381295D01*
G04 #@! TO.C,J2*
X145183266Y-84745580D02*
X145183266Y-85459866D01*
X145135647Y-85602723D01*
X145040409Y-85697961D01*
X144897552Y-85745580D01*
X144802314Y-85745580D01*
X145611838Y-84840819D02*
X145659457Y-84793200D01*
X145754695Y-84745580D01*
X145992790Y-84745580D01*
X146088028Y-84793200D01*
X146135647Y-84840819D01*
X146183266Y-84936057D01*
X146183266Y-85031295D01*
X146135647Y-85174152D01*
X145564219Y-85745580D01*
X146183266Y-85745580D01*
G04 #@! TO.C,J3*
X145310266Y-96810580D02*
X145310266Y-97524866D01*
X145262647Y-97667723D01*
X145167409Y-97762961D01*
X145024552Y-97810580D01*
X144929314Y-97810580D01*
X145691219Y-96810580D02*
X146310266Y-96810580D01*
X145976933Y-97191533D01*
X146119790Y-97191533D01*
X146215028Y-97239152D01*
X146262647Y-97286771D01*
X146310266Y-97382009D01*
X146310266Y-97620104D01*
X146262647Y-97715342D01*
X146215028Y-97762961D01*
X146119790Y-97810580D01*
X145834076Y-97810580D01*
X145738838Y-97762961D01*
X145691219Y-97715342D01*
G04 #@! TO.C,L1*
X132330833Y-81817380D02*
X131854642Y-81817380D01*
X131854642Y-80817380D01*
X133187976Y-81817380D02*
X132616547Y-81817380D01*
X132902261Y-81817380D02*
X132902261Y-80817380D01*
X132807023Y-80960238D01*
X132711785Y-81055476D01*
X132616547Y-81103095D01*
G04 #@! TO.C,L2*
X132330833Y-89437380D02*
X131854642Y-89437380D01*
X131854642Y-88437380D01*
X132616547Y-88532619D02*
X132664166Y-88485000D01*
X132759404Y-88437380D01*
X132997500Y-88437380D01*
X133092738Y-88485000D01*
X133140357Y-88532619D01*
X133187976Y-88627857D01*
X133187976Y-88723095D01*
X133140357Y-88865952D01*
X132568928Y-89437380D01*
X133187976Y-89437380D01*
G04 #@! TO.C,R1*
X142607380Y-87579166D02*
X142131190Y-87912500D01*
X142607380Y-88150595D02*
X141607380Y-88150595D01*
X141607380Y-87769642D01*
X141655000Y-87674404D01*
X141702619Y-87626785D01*
X141797857Y-87579166D01*
X141940714Y-87579166D01*
X142035952Y-87626785D01*
X142083571Y-87674404D01*
X142131190Y-87769642D01*
X142131190Y-88150595D01*
X142607380Y-86626785D02*
X142607380Y-87198214D01*
X142607380Y-86912500D02*
X141607380Y-86912500D01*
X141750238Y-87007738D01*
X141845476Y-87102976D01*
X141893095Y-87198214D01*
G04 #@! TD*
M02*
