G04 #@! TF.GenerationSoftware,KiCad,Pcbnew,5.0.1*
G04 #@! TF.CreationDate,2018-12-27T15:20:24+01:00*
G04 #@! TF.ProjectId,DiscreteWilkinsonSplitter,446973637265746557696C6B696E736F,rev?*
G04 #@! TF.SameCoordinates,Original*
G04 #@! TF.FileFunction,Copper,L1,Top,Signal*
G04 #@! TF.FilePolarity,Positive*
%FSLAX46Y46*%
G04 Gerber Fmt 4.6, Leading zero omitted, Abs format (unit mm)*
G04 Created by KiCad (PCBNEW 5.0.1) date Do 27 Dez 2018 15:20:24 CET*
%MOMM*%
%LPD*%
G01*
G04 APERTURE LIST*
G04 #@! TA.AperFunction,Conductor*
%ADD10C,0.100000*%
G04 #@! TD*
G04 #@! TA.AperFunction,SMDPad,CuDef*
%ADD11C,1.425000*%
G04 #@! TD*
G04 #@! TA.AperFunction,SMDPad,CuDef*
%ADD12R,4.064000X1.524000*%
G04 #@! TD*
G04 #@! TA.AperFunction,ViaPad*
%ADD13C,0.609600*%
G04 #@! TD*
G04 #@! TA.AperFunction,Conductor*
%ADD14C,1.800000*%
G04 #@! TD*
G04 #@! TA.AperFunction,Conductor*
%ADD15C,0.203200*%
G04 #@! TD*
G04 #@! TA.AperFunction,Conductor*
%ADD16C,0.254000*%
G04 #@! TD*
G04 APERTURE END LIST*
D10*
G04 #@! TO.N,Net-(C1-Pad1)*
G04 #@! TO.C,C1*
G36*
X128284504Y-85848704D02*
X128308773Y-85852304D01*
X128332571Y-85858265D01*
X128355671Y-85866530D01*
X128377849Y-85877020D01*
X128398893Y-85889633D01*
X128418598Y-85904247D01*
X128436777Y-85920723D01*
X128453253Y-85938902D01*
X128467867Y-85958607D01*
X128480480Y-85979651D01*
X128490970Y-86001829D01*
X128499235Y-86024929D01*
X128505196Y-86048727D01*
X128508796Y-86072996D01*
X128510000Y-86097500D01*
X128510000Y-87022500D01*
X128508796Y-87047004D01*
X128505196Y-87071273D01*
X128499235Y-87095071D01*
X128490970Y-87118171D01*
X128480480Y-87140349D01*
X128467867Y-87161393D01*
X128453253Y-87181098D01*
X128436777Y-87199277D01*
X128418598Y-87215753D01*
X128398893Y-87230367D01*
X128377849Y-87242980D01*
X128355671Y-87253470D01*
X128332571Y-87261735D01*
X128308773Y-87267696D01*
X128284504Y-87271296D01*
X128260000Y-87272500D01*
X127010000Y-87272500D01*
X126985496Y-87271296D01*
X126961227Y-87267696D01*
X126937429Y-87261735D01*
X126914329Y-87253470D01*
X126892151Y-87242980D01*
X126871107Y-87230367D01*
X126851402Y-87215753D01*
X126833223Y-87199277D01*
X126816747Y-87181098D01*
X126802133Y-87161393D01*
X126789520Y-87140349D01*
X126779030Y-87118171D01*
X126770765Y-87095071D01*
X126764804Y-87071273D01*
X126761204Y-87047004D01*
X126760000Y-87022500D01*
X126760000Y-86097500D01*
X126761204Y-86072996D01*
X126764804Y-86048727D01*
X126770765Y-86024929D01*
X126779030Y-86001829D01*
X126789520Y-85979651D01*
X126802133Y-85958607D01*
X126816747Y-85938902D01*
X126833223Y-85920723D01*
X126851402Y-85904247D01*
X126871107Y-85889633D01*
X126892151Y-85877020D01*
X126914329Y-85866530D01*
X126937429Y-85858265D01*
X126961227Y-85852304D01*
X126985496Y-85848704D01*
X127010000Y-85847500D01*
X128260000Y-85847500D01*
X128284504Y-85848704D01*
X128284504Y-85848704D01*
G37*
D11*
G04 #@! TD*
G04 #@! TO.P,C1,1*
G04 #@! TO.N,Net-(C1-Pad1)*
X127635000Y-86560000D03*
D10*
G04 #@! TO.N,GND*
G04 #@! TO.C,C1*
G36*
X128284504Y-88823704D02*
X128308773Y-88827304D01*
X128332571Y-88833265D01*
X128355671Y-88841530D01*
X128377849Y-88852020D01*
X128398893Y-88864633D01*
X128418598Y-88879247D01*
X128436777Y-88895723D01*
X128453253Y-88913902D01*
X128467867Y-88933607D01*
X128480480Y-88954651D01*
X128490970Y-88976829D01*
X128499235Y-88999929D01*
X128505196Y-89023727D01*
X128508796Y-89047996D01*
X128510000Y-89072500D01*
X128510000Y-89997500D01*
X128508796Y-90022004D01*
X128505196Y-90046273D01*
X128499235Y-90070071D01*
X128490970Y-90093171D01*
X128480480Y-90115349D01*
X128467867Y-90136393D01*
X128453253Y-90156098D01*
X128436777Y-90174277D01*
X128418598Y-90190753D01*
X128398893Y-90205367D01*
X128377849Y-90217980D01*
X128355671Y-90228470D01*
X128332571Y-90236735D01*
X128308773Y-90242696D01*
X128284504Y-90246296D01*
X128260000Y-90247500D01*
X127010000Y-90247500D01*
X126985496Y-90246296D01*
X126961227Y-90242696D01*
X126937429Y-90236735D01*
X126914329Y-90228470D01*
X126892151Y-90217980D01*
X126871107Y-90205367D01*
X126851402Y-90190753D01*
X126833223Y-90174277D01*
X126816747Y-90156098D01*
X126802133Y-90136393D01*
X126789520Y-90115349D01*
X126779030Y-90093171D01*
X126770765Y-90070071D01*
X126764804Y-90046273D01*
X126761204Y-90022004D01*
X126760000Y-89997500D01*
X126760000Y-89072500D01*
X126761204Y-89047996D01*
X126764804Y-89023727D01*
X126770765Y-88999929D01*
X126779030Y-88976829D01*
X126789520Y-88954651D01*
X126802133Y-88933607D01*
X126816747Y-88913902D01*
X126833223Y-88895723D01*
X126851402Y-88879247D01*
X126871107Y-88864633D01*
X126892151Y-88852020D01*
X126914329Y-88841530D01*
X126937429Y-88833265D01*
X126961227Y-88827304D01*
X126985496Y-88823704D01*
X127010000Y-88822500D01*
X128260000Y-88822500D01*
X128284504Y-88823704D01*
X128284504Y-88823704D01*
G37*
D11*
G04 #@! TD*
G04 #@! TO.P,C1,2*
G04 #@! TO.N,GND*
X127635000Y-89535000D03*
D10*
G04 #@! TO.N,GND*
G04 #@! TO.C,C2*
G36*
X137809504Y-85013704D02*
X137833773Y-85017304D01*
X137857571Y-85023265D01*
X137880671Y-85031530D01*
X137902849Y-85042020D01*
X137923893Y-85054633D01*
X137943598Y-85069247D01*
X137961777Y-85085723D01*
X137978253Y-85103902D01*
X137992867Y-85123607D01*
X138005480Y-85144651D01*
X138015970Y-85166829D01*
X138024235Y-85189929D01*
X138030196Y-85213727D01*
X138033796Y-85237996D01*
X138035000Y-85262500D01*
X138035000Y-86187500D01*
X138033796Y-86212004D01*
X138030196Y-86236273D01*
X138024235Y-86260071D01*
X138015970Y-86283171D01*
X138005480Y-86305349D01*
X137992867Y-86326393D01*
X137978253Y-86346098D01*
X137961777Y-86364277D01*
X137943598Y-86380753D01*
X137923893Y-86395367D01*
X137902849Y-86407980D01*
X137880671Y-86418470D01*
X137857571Y-86426735D01*
X137833773Y-86432696D01*
X137809504Y-86436296D01*
X137785000Y-86437500D01*
X136535000Y-86437500D01*
X136510496Y-86436296D01*
X136486227Y-86432696D01*
X136462429Y-86426735D01*
X136439329Y-86418470D01*
X136417151Y-86407980D01*
X136396107Y-86395367D01*
X136376402Y-86380753D01*
X136358223Y-86364277D01*
X136341747Y-86346098D01*
X136327133Y-86326393D01*
X136314520Y-86305349D01*
X136304030Y-86283171D01*
X136295765Y-86260071D01*
X136289804Y-86236273D01*
X136286204Y-86212004D01*
X136285000Y-86187500D01*
X136285000Y-85262500D01*
X136286204Y-85237996D01*
X136289804Y-85213727D01*
X136295765Y-85189929D01*
X136304030Y-85166829D01*
X136314520Y-85144651D01*
X136327133Y-85123607D01*
X136341747Y-85103902D01*
X136358223Y-85085723D01*
X136376402Y-85069247D01*
X136396107Y-85054633D01*
X136417151Y-85042020D01*
X136439329Y-85031530D01*
X136462429Y-85023265D01*
X136486227Y-85017304D01*
X136510496Y-85013704D01*
X136535000Y-85012500D01*
X137785000Y-85012500D01*
X137809504Y-85013704D01*
X137809504Y-85013704D01*
G37*
D11*
G04 #@! TD*
G04 #@! TO.P,C2,2*
G04 #@! TO.N,GND*
X137160000Y-85725000D03*
D10*
G04 #@! TO.N,Net-(C2-Pad1)*
G04 #@! TO.C,C2*
G36*
X137809504Y-82038704D02*
X137833773Y-82042304D01*
X137857571Y-82048265D01*
X137880671Y-82056530D01*
X137902849Y-82067020D01*
X137923893Y-82079633D01*
X137943598Y-82094247D01*
X137961777Y-82110723D01*
X137978253Y-82128902D01*
X137992867Y-82148607D01*
X138005480Y-82169651D01*
X138015970Y-82191829D01*
X138024235Y-82214929D01*
X138030196Y-82238727D01*
X138033796Y-82262996D01*
X138035000Y-82287500D01*
X138035000Y-83212500D01*
X138033796Y-83237004D01*
X138030196Y-83261273D01*
X138024235Y-83285071D01*
X138015970Y-83308171D01*
X138005480Y-83330349D01*
X137992867Y-83351393D01*
X137978253Y-83371098D01*
X137961777Y-83389277D01*
X137943598Y-83405753D01*
X137923893Y-83420367D01*
X137902849Y-83432980D01*
X137880671Y-83443470D01*
X137857571Y-83451735D01*
X137833773Y-83457696D01*
X137809504Y-83461296D01*
X137785000Y-83462500D01*
X136535000Y-83462500D01*
X136510496Y-83461296D01*
X136486227Y-83457696D01*
X136462429Y-83451735D01*
X136439329Y-83443470D01*
X136417151Y-83432980D01*
X136396107Y-83420367D01*
X136376402Y-83405753D01*
X136358223Y-83389277D01*
X136341747Y-83371098D01*
X136327133Y-83351393D01*
X136314520Y-83330349D01*
X136304030Y-83308171D01*
X136295765Y-83285071D01*
X136289804Y-83261273D01*
X136286204Y-83237004D01*
X136285000Y-83212500D01*
X136285000Y-82287500D01*
X136286204Y-82262996D01*
X136289804Y-82238727D01*
X136295765Y-82214929D01*
X136304030Y-82191829D01*
X136314520Y-82169651D01*
X136327133Y-82148607D01*
X136341747Y-82128902D01*
X136358223Y-82110723D01*
X136376402Y-82094247D01*
X136396107Y-82079633D01*
X136417151Y-82067020D01*
X136439329Y-82056530D01*
X136462429Y-82048265D01*
X136486227Y-82042304D01*
X136510496Y-82038704D01*
X136535000Y-82037500D01*
X137785000Y-82037500D01*
X137809504Y-82038704D01*
X137809504Y-82038704D01*
G37*
D11*
G04 #@! TD*
G04 #@! TO.P,C2,1*
G04 #@! TO.N,Net-(C2-Pad1)*
X137160000Y-82750000D03*
D10*
G04 #@! TO.N,Net-(C3-Pad1)*
G04 #@! TO.C,C3*
G36*
X137809504Y-91163704D02*
X137833773Y-91167304D01*
X137857571Y-91173265D01*
X137880671Y-91181530D01*
X137902849Y-91192020D01*
X137923893Y-91204633D01*
X137943598Y-91219247D01*
X137961777Y-91235723D01*
X137978253Y-91253902D01*
X137992867Y-91273607D01*
X138005480Y-91294651D01*
X138015970Y-91316829D01*
X138024235Y-91339929D01*
X138030196Y-91363727D01*
X138033796Y-91387996D01*
X138035000Y-91412500D01*
X138035000Y-92337500D01*
X138033796Y-92362004D01*
X138030196Y-92386273D01*
X138024235Y-92410071D01*
X138015970Y-92433171D01*
X138005480Y-92455349D01*
X137992867Y-92476393D01*
X137978253Y-92496098D01*
X137961777Y-92514277D01*
X137943598Y-92530753D01*
X137923893Y-92545367D01*
X137902849Y-92557980D01*
X137880671Y-92568470D01*
X137857571Y-92576735D01*
X137833773Y-92582696D01*
X137809504Y-92586296D01*
X137785000Y-92587500D01*
X136535000Y-92587500D01*
X136510496Y-92586296D01*
X136486227Y-92582696D01*
X136462429Y-92576735D01*
X136439329Y-92568470D01*
X136417151Y-92557980D01*
X136396107Y-92545367D01*
X136376402Y-92530753D01*
X136358223Y-92514277D01*
X136341747Y-92496098D01*
X136327133Y-92476393D01*
X136314520Y-92455349D01*
X136304030Y-92433171D01*
X136295765Y-92410071D01*
X136289804Y-92386273D01*
X136286204Y-92362004D01*
X136285000Y-92337500D01*
X136285000Y-91412500D01*
X136286204Y-91387996D01*
X136289804Y-91363727D01*
X136295765Y-91339929D01*
X136304030Y-91316829D01*
X136314520Y-91294651D01*
X136327133Y-91273607D01*
X136341747Y-91253902D01*
X136358223Y-91235723D01*
X136376402Y-91219247D01*
X136396107Y-91204633D01*
X136417151Y-91192020D01*
X136439329Y-91181530D01*
X136462429Y-91173265D01*
X136486227Y-91167304D01*
X136510496Y-91163704D01*
X136535000Y-91162500D01*
X137785000Y-91162500D01*
X137809504Y-91163704D01*
X137809504Y-91163704D01*
G37*
D11*
G04 #@! TD*
G04 #@! TO.P,C3,1*
G04 #@! TO.N,Net-(C3-Pad1)*
X137160000Y-91875000D03*
D10*
G04 #@! TO.N,GND*
G04 #@! TO.C,C3*
G36*
X137809504Y-88188704D02*
X137833773Y-88192304D01*
X137857571Y-88198265D01*
X137880671Y-88206530D01*
X137902849Y-88217020D01*
X137923893Y-88229633D01*
X137943598Y-88244247D01*
X137961777Y-88260723D01*
X137978253Y-88278902D01*
X137992867Y-88298607D01*
X138005480Y-88319651D01*
X138015970Y-88341829D01*
X138024235Y-88364929D01*
X138030196Y-88388727D01*
X138033796Y-88412996D01*
X138035000Y-88437500D01*
X138035000Y-89362500D01*
X138033796Y-89387004D01*
X138030196Y-89411273D01*
X138024235Y-89435071D01*
X138015970Y-89458171D01*
X138005480Y-89480349D01*
X137992867Y-89501393D01*
X137978253Y-89521098D01*
X137961777Y-89539277D01*
X137943598Y-89555753D01*
X137923893Y-89570367D01*
X137902849Y-89582980D01*
X137880671Y-89593470D01*
X137857571Y-89601735D01*
X137833773Y-89607696D01*
X137809504Y-89611296D01*
X137785000Y-89612500D01*
X136535000Y-89612500D01*
X136510496Y-89611296D01*
X136486227Y-89607696D01*
X136462429Y-89601735D01*
X136439329Y-89593470D01*
X136417151Y-89582980D01*
X136396107Y-89570367D01*
X136376402Y-89555753D01*
X136358223Y-89539277D01*
X136341747Y-89521098D01*
X136327133Y-89501393D01*
X136314520Y-89480349D01*
X136304030Y-89458171D01*
X136295765Y-89435071D01*
X136289804Y-89411273D01*
X136286204Y-89387004D01*
X136285000Y-89362500D01*
X136285000Y-88437500D01*
X136286204Y-88412996D01*
X136289804Y-88388727D01*
X136295765Y-88364929D01*
X136304030Y-88341829D01*
X136314520Y-88319651D01*
X136327133Y-88298607D01*
X136341747Y-88278902D01*
X136358223Y-88260723D01*
X136376402Y-88244247D01*
X136396107Y-88229633D01*
X136417151Y-88217020D01*
X136439329Y-88206530D01*
X136462429Y-88198265D01*
X136486227Y-88192304D01*
X136510496Y-88188704D01*
X136535000Y-88187500D01*
X137785000Y-88187500D01*
X137809504Y-88188704D01*
X137809504Y-88188704D01*
G37*
D11*
G04 #@! TD*
G04 #@! TO.P,C3,2*
G04 #@! TO.N,GND*
X137160000Y-88900000D03*
D12*
G04 #@! TO.P,J1,1*
G04 #@! TO.N,Net-(C1-Pad1)*
X122555000Y-86995000D03*
G04 #@! TO.P,J1,2*
G04 #@! TO.N,GND*
X122555000Y-84455000D03*
X122555000Y-89535000D03*
G04 #@! TD*
G04 #@! TO.P,J2,1*
G04 #@! TO.N,Net-(C2-Pad1)*
X145415000Y-80645000D03*
G04 #@! TO.P,J2,2*
G04 #@! TO.N,GND*
X145415000Y-78105000D03*
X145415000Y-83185000D03*
G04 #@! TD*
G04 #@! TO.P,J3,2*
G04 #@! TO.N,GND*
X145542000Y-95250000D03*
X145542000Y-90170000D03*
G04 #@! TO.P,J3,1*
G04 #@! TO.N,Net-(C3-Pad1)*
X145542000Y-92710000D03*
G04 #@! TD*
D10*
G04 #@! TO.N,Net-(C1-Pad1)*
G04 #@! TO.C,L1*
G36*
X131497004Y-82311204D02*
X131521273Y-82314804D01*
X131545071Y-82320765D01*
X131568171Y-82329030D01*
X131590349Y-82339520D01*
X131611393Y-82352133D01*
X131631098Y-82366747D01*
X131649277Y-82383223D01*
X131665753Y-82401402D01*
X131680367Y-82421107D01*
X131692980Y-82442151D01*
X131703470Y-82464329D01*
X131711735Y-82487429D01*
X131717696Y-82511227D01*
X131721296Y-82535496D01*
X131722500Y-82560000D01*
X131722500Y-83810000D01*
X131721296Y-83834504D01*
X131717696Y-83858773D01*
X131711735Y-83882571D01*
X131703470Y-83905671D01*
X131692980Y-83927849D01*
X131680367Y-83948893D01*
X131665753Y-83968598D01*
X131649277Y-83986777D01*
X131631098Y-84003253D01*
X131611393Y-84017867D01*
X131590349Y-84030480D01*
X131568171Y-84040970D01*
X131545071Y-84049235D01*
X131521273Y-84055196D01*
X131497004Y-84058796D01*
X131472500Y-84060000D01*
X130547500Y-84060000D01*
X130522996Y-84058796D01*
X130498727Y-84055196D01*
X130474929Y-84049235D01*
X130451829Y-84040970D01*
X130429651Y-84030480D01*
X130408607Y-84017867D01*
X130388902Y-84003253D01*
X130370723Y-83986777D01*
X130354247Y-83968598D01*
X130339633Y-83948893D01*
X130327020Y-83927849D01*
X130316530Y-83905671D01*
X130308265Y-83882571D01*
X130302304Y-83858773D01*
X130298704Y-83834504D01*
X130297500Y-83810000D01*
X130297500Y-82560000D01*
X130298704Y-82535496D01*
X130302304Y-82511227D01*
X130308265Y-82487429D01*
X130316530Y-82464329D01*
X130327020Y-82442151D01*
X130339633Y-82421107D01*
X130354247Y-82401402D01*
X130370723Y-82383223D01*
X130388902Y-82366747D01*
X130408607Y-82352133D01*
X130429651Y-82339520D01*
X130451829Y-82329030D01*
X130474929Y-82320765D01*
X130498727Y-82314804D01*
X130522996Y-82311204D01*
X130547500Y-82310000D01*
X131472500Y-82310000D01*
X131497004Y-82311204D01*
X131497004Y-82311204D01*
G37*
D11*
G04 #@! TD*
G04 #@! TO.P,L1,1*
G04 #@! TO.N,Net-(C1-Pad1)*
X131010000Y-83185000D03*
D10*
G04 #@! TO.N,Net-(C2-Pad1)*
G04 #@! TO.C,L1*
G36*
X134472004Y-82311204D02*
X134496273Y-82314804D01*
X134520071Y-82320765D01*
X134543171Y-82329030D01*
X134565349Y-82339520D01*
X134586393Y-82352133D01*
X134606098Y-82366747D01*
X134624277Y-82383223D01*
X134640753Y-82401402D01*
X134655367Y-82421107D01*
X134667980Y-82442151D01*
X134678470Y-82464329D01*
X134686735Y-82487429D01*
X134692696Y-82511227D01*
X134696296Y-82535496D01*
X134697500Y-82560000D01*
X134697500Y-83810000D01*
X134696296Y-83834504D01*
X134692696Y-83858773D01*
X134686735Y-83882571D01*
X134678470Y-83905671D01*
X134667980Y-83927849D01*
X134655367Y-83948893D01*
X134640753Y-83968598D01*
X134624277Y-83986777D01*
X134606098Y-84003253D01*
X134586393Y-84017867D01*
X134565349Y-84030480D01*
X134543171Y-84040970D01*
X134520071Y-84049235D01*
X134496273Y-84055196D01*
X134472004Y-84058796D01*
X134447500Y-84060000D01*
X133522500Y-84060000D01*
X133497996Y-84058796D01*
X133473727Y-84055196D01*
X133449929Y-84049235D01*
X133426829Y-84040970D01*
X133404651Y-84030480D01*
X133383607Y-84017867D01*
X133363902Y-84003253D01*
X133345723Y-83986777D01*
X133329247Y-83968598D01*
X133314633Y-83948893D01*
X133302020Y-83927849D01*
X133291530Y-83905671D01*
X133283265Y-83882571D01*
X133277304Y-83858773D01*
X133273704Y-83834504D01*
X133272500Y-83810000D01*
X133272500Y-82560000D01*
X133273704Y-82535496D01*
X133277304Y-82511227D01*
X133283265Y-82487429D01*
X133291530Y-82464329D01*
X133302020Y-82442151D01*
X133314633Y-82421107D01*
X133329247Y-82401402D01*
X133345723Y-82383223D01*
X133363902Y-82366747D01*
X133383607Y-82352133D01*
X133404651Y-82339520D01*
X133426829Y-82329030D01*
X133449929Y-82320765D01*
X133473727Y-82314804D01*
X133497996Y-82311204D01*
X133522500Y-82310000D01*
X134447500Y-82310000D01*
X134472004Y-82311204D01*
X134472004Y-82311204D01*
G37*
D11*
G04 #@! TD*
G04 #@! TO.P,L1,2*
G04 #@! TO.N,Net-(C2-Pad1)*
X133985000Y-83185000D03*
D10*
G04 #@! TO.N,Net-(C3-Pad1)*
G04 #@! TO.C,L2*
G36*
X134472004Y-89931204D02*
X134496273Y-89934804D01*
X134520071Y-89940765D01*
X134543171Y-89949030D01*
X134565349Y-89959520D01*
X134586393Y-89972133D01*
X134606098Y-89986747D01*
X134624277Y-90003223D01*
X134640753Y-90021402D01*
X134655367Y-90041107D01*
X134667980Y-90062151D01*
X134678470Y-90084329D01*
X134686735Y-90107429D01*
X134692696Y-90131227D01*
X134696296Y-90155496D01*
X134697500Y-90180000D01*
X134697500Y-91430000D01*
X134696296Y-91454504D01*
X134692696Y-91478773D01*
X134686735Y-91502571D01*
X134678470Y-91525671D01*
X134667980Y-91547849D01*
X134655367Y-91568893D01*
X134640753Y-91588598D01*
X134624277Y-91606777D01*
X134606098Y-91623253D01*
X134586393Y-91637867D01*
X134565349Y-91650480D01*
X134543171Y-91660970D01*
X134520071Y-91669235D01*
X134496273Y-91675196D01*
X134472004Y-91678796D01*
X134447500Y-91680000D01*
X133522500Y-91680000D01*
X133497996Y-91678796D01*
X133473727Y-91675196D01*
X133449929Y-91669235D01*
X133426829Y-91660970D01*
X133404651Y-91650480D01*
X133383607Y-91637867D01*
X133363902Y-91623253D01*
X133345723Y-91606777D01*
X133329247Y-91588598D01*
X133314633Y-91568893D01*
X133302020Y-91547849D01*
X133291530Y-91525671D01*
X133283265Y-91502571D01*
X133277304Y-91478773D01*
X133273704Y-91454504D01*
X133272500Y-91430000D01*
X133272500Y-90180000D01*
X133273704Y-90155496D01*
X133277304Y-90131227D01*
X133283265Y-90107429D01*
X133291530Y-90084329D01*
X133302020Y-90062151D01*
X133314633Y-90041107D01*
X133329247Y-90021402D01*
X133345723Y-90003223D01*
X133363902Y-89986747D01*
X133383607Y-89972133D01*
X133404651Y-89959520D01*
X133426829Y-89949030D01*
X133449929Y-89940765D01*
X133473727Y-89934804D01*
X133497996Y-89931204D01*
X133522500Y-89930000D01*
X134447500Y-89930000D01*
X134472004Y-89931204D01*
X134472004Y-89931204D01*
G37*
D11*
G04 #@! TD*
G04 #@! TO.P,L2,2*
G04 #@! TO.N,Net-(C3-Pad1)*
X133985000Y-90805000D03*
D10*
G04 #@! TO.N,Net-(C1-Pad1)*
G04 #@! TO.C,L2*
G36*
X131497004Y-89931204D02*
X131521273Y-89934804D01*
X131545071Y-89940765D01*
X131568171Y-89949030D01*
X131590349Y-89959520D01*
X131611393Y-89972133D01*
X131631098Y-89986747D01*
X131649277Y-90003223D01*
X131665753Y-90021402D01*
X131680367Y-90041107D01*
X131692980Y-90062151D01*
X131703470Y-90084329D01*
X131711735Y-90107429D01*
X131717696Y-90131227D01*
X131721296Y-90155496D01*
X131722500Y-90180000D01*
X131722500Y-91430000D01*
X131721296Y-91454504D01*
X131717696Y-91478773D01*
X131711735Y-91502571D01*
X131703470Y-91525671D01*
X131692980Y-91547849D01*
X131680367Y-91568893D01*
X131665753Y-91588598D01*
X131649277Y-91606777D01*
X131631098Y-91623253D01*
X131611393Y-91637867D01*
X131590349Y-91650480D01*
X131568171Y-91660970D01*
X131545071Y-91669235D01*
X131521273Y-91675196D01*
X131497004Y-91678796D01*
X131472500Y-91680000D01*
X130547500Y-91680000D01*
X130522996Y-91678796D01*
X130498727Y-91675196D01*
X130474929Y-91669235D01*
X130451829Y-91660970D01*
X130429651Y-91650480D01*
X130408607Y-91637867D01*
X130388902Y-91623253D01*
X130370723Y-91606777D01*
X130354247Y-91588598D01*
X130339633Y-91568893D01*
X130327020Y-91547849D01*
X130316530Y-91525671D01*
X130308265Y-91502571D01*
X130302304Y-91478773D01*
X130298704Y-91454504D01*
X130297500Y-91430000D01*
X130297500Y-90180000D01*
X130298704Y-90155496D01*
X130302304Y-90131227D01*
X130308265Y-90107429D01*
X130316530Y-90084329D01*
X130327020Y-90062151D01*
X130339633Y-90041107D01*
X130354247Y-90021402D01*
X130370723Y-90003223D01*
X130388902Y-89986747D01*
X130408607Y-89972133D01*
X130429651Y-89959520D01*
X130451829Y-89949030D01*
X130474929Y-89940765D01*
X130498727Y-89934804D01*
X130522996Y-89931204D01*
X130547500Y-89930000D01*
X131472500Y-89930000D01*
X131497004Y-89931204D01*
X131497004Y-89931204D01*
G37*
D11*
G04 #@! TD*
G04 #@! TO.P,L2,1*
G04 #@! TO.N,Net-(C1-Pad1)*
X131010000Y-90805000D03*
D10*
G04 #@! TO.N,Net-(C2-Pad1)*
G04 #@! TO.C,R1*
G36*
X140984504Y-85213704D02*
X141008773Y-85217304D01*
X141032571Y-85223265D01*
X141055671Y-85231530D01*
X141077849Y-85242020D01*
X141098893Y-85254633D01*
X141118598Y-85269247D01*
X141136777Y-85285723D01*
X141153253Y-85303902D01*
X141167867Y-85323607D01*
X141180480Y-85344651D01*
X141190970Y-85366829D01*
X141199235Y-85389929D01*
X141205196Y-85413727D01*
X141208796Y-85437996D01*
X141210000Y-85462500D01*
X141210000Y-86387500D01*
X141208796Y-86412004D01*
X141205196Y-86436273D01*
X141199235Y-86460071D01*
X141190970Y-86483171D01*
X141180480Y-86505349D01*
X141167867Y-86526393D01*
X141153253Y-86546098D01*
X141136777Y-86564277D01*
X141118598Y-86580753D01*
X141098893Y-86595367D01*
X141077849Y-86607980D01*
X141055671Y-86618470D01*
X141032571Y-86626735D01*
X141008773Y-86632696D01*
X140984504Y-86636296D01*
X140960000Y-86637500D01*
X139710000Y-86637500D01*
X139685496Y-86636296D01*
X139661227Y-86632696D01*
X139637429Y-86626735D01*
X139614329Y-86618470D01*
X139592151Y-86607980D01*
X139571107Y-86595367D01*
X139551402Y-86580753D01*
X139533223Y-86564277D01*
X139516747Y-86546098D01*
X139502133Y-86526393D01*
X139489520Y-86505349D01*
X139479030Y-86483171D01*
X139470765Y-86460071D01*
X139464804Y-86436273D01*
X139461204Y-86412004D01*
X139460000Y-86387500D01*
X139460000Y-85462500D01*
X139461204Y-85437996D01*
X139464804Y-85413727D01*
X139470765Y-85389929D01*
X139479030Y-85366829D01*
X139489520Y-85344651D01*
X139502133Y-85323607D01*
X139516747Y-85303902D01*
X139533223Y-85285723D01*
X139551402Y-85269247D01*
X139571107Y-85254633D01*
X139592151Y-85242020D01*
X139614329Y-85231530D01*
X139637429Y-85223265D01*
X139661227Y-85217304D01*
X139685496Y-85213704D01*
X139710000Y-85212500D01*
X140960000Y-85212500D01*
X140984504Y-85213704D01*
X140984504Y-85213704D01*
G37*
D11*
G04 #@! TD*
G04 #@! TO.P,R1,1*
G04 #@! TO.N,Net-(C2-Pad1)*
X140335000Y-85925000D03*
D10*
G04 #@! TO.N,Net-(C3-Pad1)*
G04 #@! TO.C,R1*
G36*
X140984504Y-88188704D02*
X141008773Y-88192304D01*
X141032571Y-88198265D01*
X141055671Y-88206530D01*
X141077849Y-88217020D01*
X141098893Y-88229633D01*
X141118598Y-88244247D01*
X141136777Y-88260723D01*
X141153253Y-88278902D01*
X141167867Y-88298607D01*
X141180480Y-88319651D01*
X141190970Y-88341829D01*
X141199235Y-88364929D01*
X141205196Y-88388727D01*
X141208796Y-88412996D01*
X141210000Y-88437500D01*
X141210000Y-89362500D01*
X141208796Y-89387004D01*
X141205196Y-89411273D01*
X141199235Y-89435071D01*
X141190970Y-89458171D01*
X141180480Y-89480349D01*
X141167867Y-89501393D01*
X141153253Y-89521098D01*
X141136777Y-89539277D01*
X141118598Y-89555753D01*
X141098893Y-89570367D01*
X141077849Y-89582980D01*
X141055671Y-89593470D01*
X141032571Y-89601735D01*
X141008773Y-89607696D01*
X140984504Y-89611296D01*
X140960000Y-89612500D01*
X139710000Y-89612500D01*
X139685496Y-89611296D01*
X139661227Y-89607696D01*
X139637429Y-89601735D01*
X139614329Y-89593470D01*
X139592151Y-89582980D01*
X139571107Y-89570367D01*
X139551402Y-89555753D01*
X139533223Y-89539277D01*
X139516747Y-89521098D01*
X139502133Y-89501393D01*
X139489520Y-89480349D01*
X139479030Y-89458171D01*
X139470765Y-89435071D01*
X139464804Y-89411273D01*
X139461204Y-89387004D01*
X139460000Y-89362500D01*
X139460000Y-88437500D01*
X139461204Y-88412996D01*
X139464804Y-88388727D01*
X139470765Y-88364929D01*
X139479030Y-88341829D01*
X139489520Y-88319651D01*
X139502133Y-88298607D01*
X139516747Y-88278902D01*
X139533223Y-88260723D01*
X139551402Y-88244247D01*
X139571107Y-88229633D01*
X139592151Y-88217020D01*
X139614329Y-88206530D01*
X139637429Y-88198265D01*
X139661227Y-88192304D01*
X139685496Y-88188704D01*
X139710000Y-88187500D01*
X140960000Y-88187500D01*
X140984504Y-88188704D01*
X140984504Y-88188704D01*
G37*
D11*
G04 #@! TD*
G04 #@! TO.P,R1,2*
G04 #@! TO.N,Net-(C3-Pad1)*
X140335000Y-88900000D03*
D13*
G04 #@! TO.N,GND*
X127000000Y-83820000D03*
X133350000Y-86995000D03*
X130810000Y-80645000D03*
X132080000Y-80645000D03*
X133350000Y-80645000D03*
X134620000Y-80645000D03*
X135890000Y-80645000D03*
X134620000Y-86995000D03*
X134620000Y-85725000D03*
X133350000Y-85725000D03*
X132080000Y-86360000D03*
X133350000Y-88265000D03*
X134620000Y-88265000D03*
X137795000Y-94615000D03*
X136525000Y-94615000D03*
X135255000Y-94615000D03*
X133985000Y-94615000D03*
X132715000Y-93345000D03*
X131445000Y-93345000D03*
X130175000Y-93345000D03*
X128905000Y-92710000D03*
X127635000Y-92075000D03*
X126365000Y-92075000D03*
X125095000Y-92075000D03*
X123825000Y-92075000D03*
X122555000Y-82550000D03*
X123825000Y-82550000D03*
X125095000Y-82550000D03*
X126365000Y-82550000D03*
X127635000Y-82550000D03*
X128905000Y-81280000D03*
X137795000Y-80645000D03*
X139065000Y-79375000D03*
X140335000Y-78105000D03*
X141605000Y-78105000D03*
X139700000Y-94615000D03*
X140970000Y-95250000D03*
X142240000Y-95250000D03*
X143510000Y-85725000D03*
X143510000Y-87630000D03*
X146050000Y-87630000D03*
X146050000Y-85725000D03*
G04 #@! TD*
D14*
G04 #@! TO.N,Net-(C1-Pad1)*
X127200000Y-86995000D02*
X127635000Y-86560000D01*
X122555000Y-86995000D02*
X127200000Y-86995000D01*
X131010000Y-83185000D02*
X127635000Y-86560000D01*
X131010000Y-89672880D02*
X130810000Y-89472880D01*
X131010000Y-90805000D02*
X131010000Y-89672880D01*
X130810000Y-89472880D02*
X130810000Y-88900000D01*
X128406347Y-87331347D02*
X127635000Y-86560000D01*
X129241347Y-87331347D02*
X128406347Y-87331347D01*
X130810000Y-88900000D02*
X129241347Y-87331347D01*
D15*
G04 #@! TO.N,GND*
X122555000Y-84455000D02*
X126365000Y-84455000D01*
X126365000Y-84455000D02*
X127000000Y-83820000D01*
D14*
G04 #@! TO.N,Net-(C2-Pad1)*
X137931347Y-83521347D02*
X137160000Y-82750000D01*
X138743847Y-83521347D02*
X137931347Y-83521347D01*
X140335000Y-85925000D02*
X140335000Y-85112500D01*
X133985000Y-83185000D02*
X135890000Y-83185000D01*
X136185000Y-82750000D02*
X137160000Y-82750000D01*
X135890000Y-83045000D02*
X136185000Y-82750000D01*
X135890000Y-83185000D02*
X135890000Y-83045000D01*
X139700000Y-82528000D02*
X139700000Y-84477500D01*
X141583000Y-80645000D02*
X139700000Y-82528000D01*
X145415000Y-80645000D02*
X141583000Y-80645000D01*
X140335000Y-85112500D02*
X139700000Y-84477500D01*
X139700000Y-84477500D02*
X138743847Y-83521347D01*
G04 #@! TO.N,Net-(C3-Pad1)*
X135055000Y-91875000D02*
X137160000Y-91875000D01*
X133985000Y-90805000D02*
X135055000Y-91875000D01*
X137931347Y-91103653D02*
X137160000Y-91875000D01*
X138193467Y-91103653D02*
X137931347Y-91103653D01*
X139563653Y-89733467D02*
X138193467Y-91103653D01*
X139563653Y-89671347D02*
X139563653Y-89733467D01*
X140335000Y-88900000D02*
X139563653Y-89671347D01*
X141710000Y-92710000D02*
X145542000Y-92710000D01*
X140335000Y-91335000D02*
X141710000Y-92710000D01*
X140335000Y-88900000D02*
X140335000Y-91335000D01*
G04 #@! TD*
D16*
G04 #@! TO.N,GND*
G36*
X126125000Y-88696191D02*
X126125000Y-89249250D01*
X126283750Y-89408000D01*
X127508000Y-89408000D01*
X127508000Y-89388000D01*
X127762000Y-89388000D01*
X127762000Y-89408000D01*
X128986250Y-89408000D01*
X129066716Y-89327534D01*
X129253090Y-89513908D01*
X129275000Y-89624057D01*
X129275000Y-89624061D01*
X129364062Y-90071806D01*
X129475000Y-90237837D01*
X129475000Y-90956181D01*
X129564062Y-91403926D01*
X129679128Y-91576135D01*
X129718374Y-91773435D01*
X129912914Y-92064586D01*
X130204065Y-92259126D01*
X130547500Y-92327440D01*
X130795674Y-92327440D01*
X131010000Y-92370072D01*
X131224325Y-92327440D01*
X131472500Y-92327440D01*
X131815935Y-92259126D01*
X132107086Y-92064586D01*
X132301626Y-91773435D01*
X132340871Y-91576136D01*
X132455938Y-91403927D01*
X132497500Y-91194978D01*
X132539063Y-91403927D01*
X132654128Y-91576134D01*
X132693374Y-91773435D01*
X132887914Y-92064586D01*
X133179065Y-92259126D01*
X133290468Y-92281286D01*
X133862689Y-92853507D01*
X133948327Y-92981673D01*
X134076492Y-93067310D01*
X134076493Y-93067311D01*
X134456073Y-93320938D01*
X135055000Y-93440072D01*
X135206182Y-93410000D01*
X137008823Y-93410000D01*
X137160000Y-93440071D01*
X137311177Y-93410000D01*
X137311182Y-93410000D01*
X137758927Y-93320938D01*
X137931136Y-93205871D01*
X138128435Y-93166626D01*
X138419586Y-92972086D01*
X138614126Y-92680935D01*
X138633984Y-92581101D01*
X138792394Y-92549591D01*
X139143625Y-92314906D01*
X139228328Y-92441673D01*
X139356493Y-92527310D01*
X140517688Y-93688505D01*
X140603327Y-93816673D01*
X140982693Y-94070157D01*
X141111073Y-94155938D01*
X141710000Y-94275072D01*
X141861182Y-94245000D01*
X142923335Y-94245000D01*
X142875000Y-94361690D01*
X142875000Y-94964250D01*
X143033750Y-95123000D01*
X145415000Y-95123000D01*
X145415000Y-95103000D01*
X145669000Y-95103000D01*
X145669000Y-95123000D01*
X145689000Y-95123000D01*
X145689000Y-95377000D01*
X145669000Y-95377000D01*
X145669000Y-95397000D01*
X145415000Y-95397000D01*
X145415000Y-95377000D01*
X143033750Y-95377000D01*
X142875000Y-95535750D01*
X142875000Y-96138310D01*
X142971673Y-96371699D01*
X143044974Y-96445000D01*
X120777000Y-96445000D01*
X120777000Y-90932000D01*
X122269250Y-90932000D01*
X122428000Y-90773250D01*
X122428000Y-89662000D01*
X122682000Y-89662000D01*
X122682000Y-90773250D01*
X122840750Y-90932000D01*
X124713309Y-90932000D01*
X124946698Y-90835327D01*
X125125327Y-90656699D01*
X125222000Y-90423310D01*
X125222000Y-89820750D01*
X126125000Y-89820750D01*
X126125000Y-90373809D01*
X126221673Y-90607198D01*
X126400301Y-90785827D01*
X126633690Y-90882500D01*
X127349250Y-90882500D01*
X127508000Y-90723750D01*
X127508000Y-89662000D01*
X127762000Y-89662000D01*
X127762000Y-90723750D01*
X127920750Y-90882500D01*
X128636310Y-90882500D01*
X128869699Y-90785827D01*
X129048327Y-90607198D01*
X129145000Y-90373809D01*
X129145000Y-89820750D01*
X128986250Y-89662000D01*
X127762000Y-89662000D01*
X127508000Y-89662000D01*
X126283750Y-89662000D01*
X126125000Y-89820750D01*
X125222000Y-89820750D01*
X125063250Y-89662000D01*
X122682000Y-89662000D01*
X122428000Y-89662000D01*
X122408000Y-89662000D01*
X122408000Y-89408000D01*
X122428000Y-89408000D01*
X122428000Y-89388000D01*
X122682000Y-89388000D01*
X122682000Y-89408000D01*
X125063250Y-89408000D01*
X125222000Y-89249250D01*
X125222000Y-88646690D01*
X125173665Y-88530000D01*
X126193839Y-88530000D01*
X126125000Y-88696191D01*
X126125000Y-88696191D01*
G37*
X126125000Y-88696191D02*
X126125000Y-89249250D01*
X126283750Y-89408000D01*
X127508000Y-89408000D01*
X127508000Y-89388000D01*
X127762000Y-89388000D01*
X127762000Y-89408000D01*
X128986250Y-89408000D01*
X129066716Y-89327534D01*
X129253090Y-89513908D01*
X129275000Y-89624057D01*
X129275000Y-89624061D01*
X129364062Y-90071806D01*
X129475000Y-90237837D01*
X129475000Y-90956181D01*
X129564062Y-91403926D01*
X129679128Y-91576135D01*
X129718374Y-91773435D01*
X129912914Y-92064586D01*
X130204065Y-92259126D01*
X130547500Y-92327440D01*
X130795674Y-92327440D01*
X131010000Y-92370072D01*
X131224325Y-92327440D01*
X131472500Y-92327440D01*
X131815935Y-92259126D01*
X132107086Y-92064586D01*
X132301626Y-91773435D01*
X132340871Y-91576136D01*
X132455938Y-91403927D01*
X132497500Y-91194978D01*
X132539063Y-91403927D01*
X132654128Y-91576134D01*
X132693374Y-91773435D01*
X132887914Y-92064586D01*
X133179065Y-92259126D01*
X133290468Y-92281286D01*
X133862689Y-92853507D01*
X133948327Y-92981673D01*
X134076492Y-93067310D01*
X134076493Y-93067311D01*
X134456073Y-93320938D01*
X135055000Y-93440072D01*
X135206182Y-93410000D01*
X137008823Y-93410000D01*
X137160000Y-93440071D01*
X137311177Y-93410000D01*
X137311182Y-93410000D01*
X137758927Y-93320938D01*
X137931136Y-93205871D01*
X138128435Y-93166626D01*
X138419586Y-92972086D01*
X138614126Y-92680935D01*
X138633984Y-92581101D01*
X138792394Y-92549591D01*
X139143625Y-92314906D01*
X139228328Y-92441673D01*
X139356493Y-92527310D01*
X140517688Y-93688505D01*
X140603327Y-93816673D01*
X140982693Y-94070157D01*
X141111073Y-94155938D01*
X141710000Y-94275072D01*
X141861182Y-94245000D01*
X142923335Y-94245000D01*
X142875000Y-94361690D01*
X142875000Y-94964250D01*
X143033750Y-95123000D01*
X145415000Y-95123000D01*
X145415000Y-95103000D01*
X145669000Y-95103000D01*
X145669000Y-95123000D01*
X145689000Y-95123000D01*
X145689000Y-95377000D01*
X145669000Y-95377000D01*
X145669000Y-95397000D01*
X145415000Y-95397000D01*
X145415000Y-95377000D01*
X143033750Y-95377000D01*
X142875000Y-95535750D01*
X142875000Y-96138310D01*
X142971673Y-96371699D01*
X143044974Y-96445000D01*
X120777000Y-96445000D01*
X120777000Y-90932000D01*
X122269250Y-90932000D01*
X122428000Y-90773250D01*
X122428000Y-89662000D01*
X122682000Y-89662000D01*
X122682000Y-90773250D01*
X122840750Y-90932000D01*
X124713309Y-90932000D01*
X124946698Y-90835327D01*
X125125327Y-90656699D01*
X125222000Y-90423310D01*
X125222000Y-89820750D01*
X126125000Y-89820750D01*
X126125000Y-90373809D01*
X126221673Y-90607198D01*
X126400301Y-90785827D01*
X126633690Y-90882500D01*
X127349250Y-90882500D01*
X127508000Y-90723750D01*
X127508000Y-89662000D01*
X127762000Y-89662000D01*
X127762000Y-90723750D01*
X127920750Y-90882500D01*
X128636310Y-90882500D01*
X128869699Y-90785827D01*
X129048327Y-90607198D01*
X129145000Y-90373809D01*
X129145000Y-89820750D01*
X128986250Y-89662000D01*
X127762000Y-89662000D01*
X127508000Y-89662000D01*
X126283750Y-89662000D01*
X126125000Y-89820750D01*
X125222000Y-89820750D01*
X125063250Y-89662000D01*
X122682000Y-89662000D01*
X122428000Y-89662000D01*
X122408000Y-89662000D01*
X122408000Y-89408000D01*
X122428000Y-89408000D01*
X122428000Y-89388000D01*
X122682000Y-89388000D01*
X122682000Y-89408000D01*
X125063250Y-89408000D01*
X125222000Y-89249250D01*
X125222000Y-88646690D01*
X125173665Y-88530000D01*
X126193839Y-88530000D01*
X126125000Y-88696191D01*
G36*
X142748000Y-82296690D02*
X142748000Y-82899250D01*
X142906750Y-83058000D01*
X145288000Y-83058000D01*
X145288000Y-83038000D01*
X145542000Y-83038000D01*
X145542000Y-83058000D01*
X145562000Y-83058000D01*
X145562000Y-83312000D01*
X145542000Y-83312000D01*
X145542000Y-84423250D01*
X145700750Y-84582000D01*
X147193000Y-84582000D01*
X147193000Y-88773000D01*
X145827750Y-88773000D01*
X145669000Y-88931750D01*
X145669000Y-90043000D01*
X145689000Y-90043000D01*
X145689000Y-90297000D01*
X145669000Y-90297000D01*
X145669000Y-90317000D01*
X145415000Y-90317000D01*
X145415000Y-90297000D01*
X143033750Y-90297000D01*
X142875000Y-90455750D01*
X142875000Y-91058310D01*
X142923335Y-91175000D01*
X142345817Y-91175000D01*
X141870000Y-90699183D01*
X141870000Y-89281690D01*
X142875000Y-89281690D01*
X142875000Y-89884250D01*
X143033750Y-90043000D01*
X145415000Y-90043000D01*
X145415000Y-88931750D01*
X145256250Y-88773000D01*
X143383691Y-88773000D01*
X143150302Y-88869673D01*
X142971673Y-89048301D01*
X142875000Y-89281690D01*
X141870000Y-89281690D01*
X141870000Y-89051178D01*
X141900071Y-88900001D01*
X141870000Y-88748824D01*
X141870000Y-88748818D01*
X141857440Y-88685675D01*
X141857440Y-88437500D01*
X141789126Y-88094065D01*
X141594586Y-87802914D01*
X141303435Y-87608374D01*
X141106135Y-87569128D01*
X140933926Y-87454062D01*
X140724980Y-87412500D01*
X140933926Y-87370938D01*
X141106135Y-87255872D01*
X141303435Y-87216626D01*
X141594586Y-87022086D01*
X141789126Y-86730935D01*
X141857440Y-86387500D01*
X141857440Y-86139325D01*
X141870000Y-86076182D01*
X141870000Y-85263682D01*
X141900072Y-85112500D01*
X141780938Y-84513573D01*
X141568701Y-84195938D01*
X141441673Y-84005827D01*
X141313505Y-83920188D01*
X141235000Y-83841683D01*
X141235000Y-83470750D01*
X142748000Y-83470750D01*
X142748000Y-84073310D01*
X142844673Y-84306699D01*
X143023302Y-84485327D01*
X143256691Y-84582000D01*
X145129250Y-84582000D01*
X145288000Y-84423250D01*
X145288000Y-83312000D01*
X142906750Y-83312000D01*
X142748000Y-83470750D01*
X141235000Y-83470750D01*
X141235000Y-83163817D01*
X142218818Y-82180000D01*
X142796335Y-82180000D01*
X142748000Y-82296690D01*
X142748000Y-82296690D01*
G37*
X142748000Y-82296690D02*
X142748000Y-82899250D01*
X142906750Y-83058000D01*
X145288000Y-83058000D01*
X145288000Y-83038000D01*
X145542000Y-83038000D01*
X145542000Y-83058000D01*
X145562000Y-83058000D01*
X145562000Y-83312000D01*
X145542000Y-83312000D01*
X145542000Y-84423250D01*
X145700750Y-84582000D01*
X147193000Y-84582000D01*
X147193000Y-88773000D01*
X145827750Y-88773000D01*
X145669000Y-88931750D01*
X145669000Y-90043000D01*
X145689000Y-90043000D01*
X145689000Y-90297000D01*
X145669000Y-90297000D01*
X145669000Y-90317000D01*
X145415000Y-90317000D01*
X145415000Y-90297000D01*
X143033750Y-90297000D01*
X142875000Y-90455750D01*
X142875000Y-91058310D01*
X142923335Y-91175000D01*
X142345817Y-91175000D01*
X141870000Y-90699183D01*
X141870000Y-89281690D01*
X142875000Y-89281690D01*
X142875000Y-89884250D01*
X143033750Y-90043000D01*
X145415000Y-90043000D01*
X145415000Y-88931750D01*
X145256250Y-88773000D01*
X143383691Y-88773000D01*
X143150302Y-88869673D01*
X142971673Y-89048301D01*
X142875000Y-89281690D01*
X141870000Y-89281690D01*
X141870000Y-89051178D01*
X141900071Y-88900001D01*
X141870000Y-88748824D01*
X141870000Y-88748818D01*
X141857440Y-88685675D01*
X141857440Y-88437500D01*
X141789126Y-88094065D01*
X141594586Y-87802914D01*
X141303435Y-87608374D01*
X141106135Y-87569128D01*
X140933926Y-87454062D01*
X140724980Y-87412500D01*
X140933926Y-87370938D01*
X141106135Y-87255872D01*
X141303435Y-87216626D01*
X141594586Y-87022086D01*
X141789126Y-86730935D01*
X141857440Y-86387500D01*
X141857440Y-86139325D01*
X141870000Y-86076182D01*
X141870000Y-85263682D01*
X141900072Y-85112500D01*
X141780938Y-84513573D01*
X141568701Y-84195938D01*
X141441673Y-84005827D01*
X141313505Y-83920188D01*
X141235000Y-83841683D01*
X141235000Y-83470750D01*
X142748000Y-83470750D01*
X142748000Y-84073310D01*
X142844673Y-84306699D01*
X143023302Y-84485327D01*
X143256691Y-84582000D01*
X145129250Y-84582000D01*
X145288000Y-84423250D01*
X145288000Y-83312000D01*
X142906750Y-83312000D01*
X142748000Y-83470750D01*
X141235000Y-83470750D01*
X141235000Y-83163817D01*
X142218818Y-82180000D01*
X142796335Y-82180000D01*
X142748000Y-82296690D01*
G36*
X132539062Y-83783927D02*
X132654129Y-83956136D01*
X132693374Y-84153435D01*
X132887914Y-84444586D01*
X133179065Y-84639126D01*
X133522500Y-84707440D01*
X133770675Y-84707440D01*
X133833818Y-84720000D01*
X135718839Y-84720000D01*
X135650000Y-84886191D01*
X135650000Y-85439250D01*
X135808750Y-85598000D01*
X137033000Y-85598000D01*
X137033000Y-85578000D01*
X137287000Y-85578000D01*
X137287000Y-85598000D01*
X138511250Y-85598000D01*
X138565990Y-85543260D01*
X138593328Y-85584173D01*
X138721493Y-85669810D01*
X138800000Y-85748317D01*
X138800000Y-86076181D01*
X138812560Y-86139324D01*
X138812560Y-86387500D01*
X138880874Y-86730935D01*
X139075414Y-87022086D01*
X139366565Y-87216626D01*
X139563864Y-87255871D01*
X139736073Y-87370938D01*
X139945019Y-87412500D01*
X139736073Y-87454062D01*
X139563864Y-87569129D01*
X139366565Y-87608374D01*
X139075414Y-87802914D01*
X138880874Y-88094065D01*
X138858714Y-88205469D01*
X138670000Y-88394183D01*
X138670000Y-88061191D01*
X138573327Y-87827802D01*
X138394699Y-87649173D01*
X138161310Y-87552500D01*
X137445750Y-87552500D01*
X137287000Y-87711250D01*
X137287000Y-88773000D01*
X137307000Y-88773000D01*
X137307000Y-89027000D01*
X137287000Y-89027000D01*
X137287000Y-89047000D01*
X137033000Y-89047000D01*
X137033000Y-89027000D01*
X135808750Y-89027000D01*
X135650000Y-89185750D01*
X135650000Y-89738809D01*
X135746673Y-89972198D01*
X135925301Y-90150827D01*
X136158690Y-90247500D01*
X136616683Y-90247500D01*
X136524183Y-90340000D01*
X135690818Y-90340000D01*
X135298786Y-89947968D01*
X135276626Y-89836565D01*
X135082086Y-89545414D01*
X134790935Y-89350874D01*
X134447500Y-89282560D01*
X134199320Y-89282560D01*
X133985000Y-89239929D01*
X133770680Y-89282560D01*
X133522500Y-89282560D01*
X133179065Y-89350874D01*
X132887914Y-89545414D01*
X132693374Y-89836565D01*
X132654128Y-90033865D01*
X132545000Y-90197188D01*
X132545000Y-89824062D01*
X132575072Y-89672880D01*
X132455938Y-89073953D01*
X132424565Y-89027000D01*
X132366958Y-88940785D01*
X132375071Y-88899999D01*
X132345000Y-88748822D01*
X132345000Y-88748819D01*
X132255938Y-88301073D01*
X132095654Y-88061191D01*
X135650000Y-88061191D01*
X135650000Y-88614250D01*
X135808750Y-88773000D01*
X137033000Y-88773000D01*
X137033000Y-87711250D01*
X136874250Y-87552500D01*
X136158690Y-87552500D01*
X135925301Y-87649173D01*
X135746673Y-87827802D01*
X135650000Y-88061191D01*
X132095654Y-88061191D01*
X131916673Y-87793327D01*
X131788507Y-87707689D01*
X130433659Y-86352842D01*
X130348020Y-86224674D01*
X130224006Y-86141811D01*
X130355067Y-86010750D01*
X135650000Y-86010750D01*
X135650000Y-86563809D01*
X135746673Y-86797198D01*
X135925301Y-86975827D01*
X136158690Y-87072500D01*
X136874250Y-87072500D01*
X137033000Y-86913750D01*
X137033000Y-85852000D01*
X137287000Y-85852000D01*
X137287000Y-86913750D01*
X137445750Y-87072500D01*
X138161310Y-87072500D01*
X138394699Y-86975827D01*
X138573327Y-86797198D01*
X138670000Y-86563809D01*
X138670000Y-86010750D01*
X138511250Y-85852000D01*
X137287000Y-85852000D01*
X137033000Y-85852000D01*
X135808750Y-85852000D01*
X135650000Y-86010750D01*
X130355067Y-86010750D01*
X131704531Y-84661286D01*
X131815935Y-84639126D01*
X132107086Y-84444586D01*
X132301626Y-84153435D01*
X132340871Y-83956136D01*
X132455938Y-83783928D01*
X132497500Y-83574981D01*
X132539062Y-83783927D01*
X132539062Y-83783927D01*
G37*
X132539062Y-83783927D02*
X132654129Y-83956136D01*
X132693374Y-84153435D01*
X132887914Y-84444586D01*
X133179065Y-84639126D01*
X133522500Y-84707440D01*
X133770675Y-84707440D01*
X133833818Y-84720000D01*
X135718839Y-84720000D01*
X135650000Y-84886191D01*
X135650000Y-85439250D01*
X135808750Y-85598000D01*
X137033000Y-85598000D01*
X137033000Y-85578000D01*
X137287000Y-85578000D01*
X137287000Y-85598000D01*
X138511250Y-85598000D01*
X138565990Y-85543260D01*
X138593328Y-85584173D01*
X138721493Y-85669810D01*
X138800000Y-85748317D01*
X138800000Y-86076181D01*
X138812560Y-86139324D01*
X138812560Y-86387500D01*
X138880874Y-86730935D01*
X139075414Y-87022086D01*
X139366565Y-87216626D01*
X139563864Y-87255871D01*
X139736073Y-87370938D01*
X139945019Y-87412500D01*
X139736073Y-87454062D01*
X139563864Y-87569129D01*
X139366565Y-87608374D01*
X139075414Y-87802914D01*
X138880874Y-88094065D01*
X138858714Y-88205469D01*
X138670000Y-88394183D01*
X138670000Y-88061191D01*
X138573327Y-87827802D01*
X138394699Y-87649173D01*
X138161310Y-87552500D01*
X137445750Y-87552500D01*
X137287000Y-87711250D01*
X137287000Y-88773000D01*
X137307000Y-88773000D01*
X137307000Y-89027000D01*
X137287000Y-89027000D01*
X137287000Y-89047000D01*
X137033000Y-89047000D01*
X137033000Y-89027000D01*
X135808750Y-89027000D01*
X135650000Y-89185750D01*
X135650000Y-89738809D01*
X135746673Y-89972198D01*
X135925301Y-90150827D01*
X136158690Y-90247500D01*
X136616683Y-90247500D01*
X136524183Y-90340000D01*
X135690818Y-90340000D01*
X135298786Y-89947968D01*
X135276626Y-89836565D01*
X135082086Y-89545414D01*
X134790935Y-89350874D01*
X134447500Y-89282560D01*
X134199320Y-89282560D01*
X133985000Y-89239929D01*
X133770680Y-89282560D01*
X133522500Y-89282560D01*
X133179065Y-89350874D01*
X132887914Y-89545414D01*
X132693374Y-89836565D01*
X132654128Y-90033865D01*
X132545000Y-90197188D01*
X132545000Y-89824062D01*
X132575072Y-89672880D01*
X132455938Y-89073953D01*
X132424565Y-89027000D01*
X132366958Y-88940785D01*
X132375071Y-88899999D01*
X132345000Y-88748822D01*
X132345000Y-88748819D01*
X132255938Y-88301073D01*
X132095654Y-88061191D01*
X135650000Y-88061191D01*
X135650000Y-88614250D01*
X135808750Y-88773000D01*
X137033000Y-88773000D01*
X137033000Y-87711250D01*
X136874250Y-87552500D01*
X136158690Y-87552500D01*
X135925301Y-87649173D01*
X135746673Y-87827802D01*
X135650000Y-88061191D01*
X132095654Y-88061191D01*
X131916673Y-87793327D01*
X131788507Y-87707689D01*
X130433659Y-86352842D01*
X130348020Y-86224674D01*
X130224006Y-86141811D01*
X130355067Y-86010750D01*
X135650000Y-86010750D01*
X135650000Y-86563809D01*
X135746673Y-86797198D01*
X135925301Y-86975827D01*
X136158690Y-87072500D01*
X136874250Y-87072500D01*
X137033000Y-86913750D01*
X137033000Y-85852000D01*
X137287000Y-85852000D01*
X137287000Y-86913750D01*
X137445750Y-87072500D01*
X138161310Y-87072500D01*
X138394699Y-86975827D01*
X138573327Y-86797198D01*
X138670000Y-86563809D01*
X138670000Y-86010750D01*
X138511250Y-85852000D01*
X137287000Y-85852000D01*
X137033000Y-85852000D01*
X135808750Y-85852000D01*
X135650000Y-86010750D01*
X130355067Y-86010750D01*
X131704531Y-84661286D01*
X131815935Y-84639126D01*
X132107086Y-84444586D01*
X132301626Y-84153435D01*
X132340871Y-83956136D01*
X132455938Y-83783928D01*
X132497500Y-83574981D01*
X132539062Y-83783927D01*
G36*
X142844673Y-76983301D02*
X142748000Y-77216690D01*
X142748000Y-77819250D01*
X142906750Y-77978000D01*
X145288000Y-77978000D01*
X145288000Y-77958000D01*
X145542000Y-77958000D01*
X145542000Y-77978000D01*
X145562000Y-77978000D01*
X145562000Y-78232000D01*
X145542000Y-78232000D01*
X145542000Y-78252000D01*
X145288000Y-78252000D01*
X145288000Y-78232000D01*
X142906750Y-78232000D01*
X142748000Y-78390750D01*
X142748000Y-78993310D01*
X142796335Y-79110000D01*
X141734176Y-79110000D01*
X141582999Y-79079929D01*
X141431822Y-79110000D01*
X141431818Y-79110000D01*
X140984073Y-79199062D01*
X140476327Y-79538327D01*
X140390689Y-79666493D01*
X138721495Y-81335688D01*
X138593327Y-81421327D01*
X138429086Y-81667132D01*
X138419586Y-81652914D01*
X138128435Y-81458374D01*
X137931136Y-81419129D01*
X137758927Y-81304062D01*
X137311182Y-81215000D01*
X137311177Y-81215000D01*
X137160000Y-81184929D01*
X137008823Y-81215000D01*
X136336176Y-81215000D01*
X136184999Y-81184929D01*
X136033822Y-81215000D01*
X136033818Y-81215000D01*
X135586073Y-81304062D01*
X135078327Y-81643327D01*
X135073868Y-81650000D01*
X133833818Y-81650000D01*
X133770675Y-81662560D01*
X133522500Y-81662560D01*
X133179065Y-81730874D01*
X132887914Y-81925414D01*
X132693374Y-82216565D01*
X132654129Y-82413864D01*
X132539062Y-82586073D01*
X132497500Y-82795019D01*
X132455938Y-82586073D01*
X132340871Y-82413864D01*
X132301626Y-82216565D01*
X132107086Y-81925414D01*
X131815935Y-81730874D01*
X131472500Y-81662560D01*
X131224326Y-81662560D01*
X131010000Y-81619928D01*
X130795674Y-81662560D01*
X130547500Y-81662560D01*
X130204065Y-81730874D01*
X129912914Y-81925414D01*
X129718374Y-82216565D01*
X129696214Y-82327969D01*
X126777969Y-85246214D01*
X126666565Y-85268374D01*
X126379775Y-85460000D01*
X125173665Y-85460000D01*
X125222000Y-85343310D01*
X125222000Y-84740750D01*
X125063250Y-84582000D01*
X122682000Y-84582000D01*
X122682000Y-84602000D01*
X122428000Y-84602000D01*
X122428000Y-84582000D01*
X122408000Y-84582000D01*
X122408000Y-84328000D01*
X122428000Y-84328000D01*
X122428000Y-83216750D01*
X122682000Y-83216750D01*
X122682000Y-84328000D01*
X125063250Y-84328000D01*
X125222000Y-84169250D01*
X125222000Y-83566690D01*
X125125327Y-83333301D01*
X124946698Y-83154673D01*
X124713309Y-83058000D01*
X122840750Y-83058000D01*
X122682000Y-83216750D01*
X122428000Y-83216750D01*
X122269250Y-83058000D01*
X120777000Y-83058000D01*
X120777000Y-76910000D01*
X142917974Y-76910000D01*
X142844673Y-76983301D01*
X142844673Y-76983301D01*
G37*
X142844673Y-76983301D02*
X142748000Y-77216690D01*
X142748000Y-77819250D01*
X142906750Y-77978000D01*
X145288000Y-77978000D01*
X145288000Y-77958000D01*
X145542000Y-77958000D01*
X145542000Y-77978000D01*
X145562000Y-77978000D01*
X145562000Y-78232000D01*
X145542000Y-78232000D01*
X145542000Y-78252000D01*
X145288000Y-78252000D01*
X145288000Y-78232000D01*
X142906750Y-78232000D01*
X142748000Y-78390750D01*
X142748000Y-78993310D01*
X142796335Y-79110000D01*
X141734176Y-79110000D01*
X141582999Y-79079929D01*
X141431822Y-79110000D01*
X141431818Y-79110000D01*
X140984073Y-79199062D01*
X140476327Y-79538327D01*
X140390689Y-79666493D01*
X138721495Y-81335688D01*
X138593327Y-81421327D01*
X138429086Y-81667132D01*
X138419586Y-81652914D01*
X138128435Y-81458374D01*
X137931136Y-81419129D01*
X137758927Y-81304062D01*
X137311182Y-81215000D01*
X137311177Y-81215000D01*
X137160000Y-81184929D01*
X137008823Y-81215000D01*
X136336176Y-81215000D01*
X136184999Y-81184929D01*
X136033822Y-81215000D01*
X136033818Y-81215000D01*
X135586073Y-81304062D01*
X135078327Y-81643327D01*
X135073868Y-81650000D01*
X133833818Y-81650000D01*
X133770675Y-81662560D01*
X133522500Y-81662560D01*
X133179065Y-81730874D01*
X132887914Y-81925414D01*
X132693374Y-82216565D01*
X132654129Y-82413864D01*
X132539062Y-82586073D01*
X132497500Y-82795019D01*
X132455938Y-82586073D01*
X132340871Y-82413864D01*
X132301626Y-82216565D01*
X132107086Y-81925414D01*
X131815935Y-81730874D01*
X131472500Y-81662560D01*
X131224326Y-81662560D01*
X131010000Y-81619928D01*
X130795674Y-81662560D01*
X130547500Y-81662560D01*
X130204065Y-81730874D01*
X129912914Y-81925414D01*
X129718374Y-82216565D01*
X129696214Y-82327969D01*
X126777969Y-85246214D01*
X126666565Y-85268374D01*
X126379775Y-85460000D01*
X125173665Y-85460000D01*
X125222000Y-85343310D01*
X125222000Y-84740750D01*
X125063250Y-84582000D01*
X122682000Y-84582000D01*
X122682000Y-84602000D01*
X122428000Y-84602000D01*
X122428000Y-84582000D01*
X122408000Y-84582000D01*
X122408000Y-84328000D01*
X122428000Y-84328000D01*
X122428000Y-83216750D01*
X122682000Y-83216750D01*
X122682000Y-84328000D01*
X125063250Y-84328000D01*
X125222000Y-84169250D01*
X125222000Y-83566690D01*
X125125327Y-83333301D01*
X124946698Y-83154673D01*
X124713309Y-83058000D01*
X122840750Y-83058000D01*
X122682000Y-83216750D01*
X122428000Y-83216750D01*
X122269250Y-83058000D01*
X120777000Y-83058000D01*
X120777000Y-76910000D01*
X142917974Y-76910000D01*
X142844673Y-76983301D01*
G04 #@! TD*
M02*
