G04 #@! TF.GenerationSoftware,KiCad,Pcbnew,5.0.1*
G04 #@! TF.CreationDate,2018-12-16T12:16:20+01:00*
G04 #@! TF.ProjectId,PiAttenuator,5069417474656E7561746F722E6B6963,rev?*
G04 #@! TF.SameCoordinates,Original*
G04 #@! TF.FileFunction,Legend,Top*
G04 #@! TF.FilePolarity,Positive*
%FSLAX46Y46*%
G04 Gerber Fmt 4.6, Leading zero omitted, Abs format (unit mm)*
G04 Created by KiCad (PCBNEW 5.0.1) date So 16 Dez 2018 12:16:20 CET*
%MOMM*%
%LPD*%
G01*
G04 APERTURE LIST*
%ADD10C,1.270000*%
%ADD11C,0.120000*%
%ADD12C,0.150000*%
G04 APERTURE END LIST*
D10*
X102870000Y-81280000D02*
X109220000Y-81280000D01*
D11*
G04 #@! TO.C,R1*
X103550000Y-85860000D02*
X103550000Y-86860000D01*
X102190000Y-86860000D02*
X102190000Y-85860000D01*
G04 #@! TO.C,R2*
X105355001Y-83140000D02*
X106355001Y-83140000D01*
X106355001Y-84500000D02*
X105355001Y-84500000D01*
G04 #@! TO.C,R3*
X109900000Y-85860000D02*
X109900000Y-86860000D01*
X108540000Y-86860000D02*
X108540000Y-85860000D01*
G04 #@! TO.C,J1*
D12*
X101266666Y-79462380D02*
X101266666Y-80176666D01*
X101219047Y-80319523D01*
X101123809Y-80414761D01*
X100980952Y-80462380D01*
X100885714Y-80462380D01*
X102266666Y-80462380D02*
X101695238Y-80462380D01*
X101980952Y-80462380D02*
X101980952Y-79462380D01*
X101885714Y-79605238D01*
X101790476Y-79700476D01*
X101695238Y-79748095D01*
G04 #@! TO.C,J2*
X110156666Y-79462380D02*
X110156666Y-80176666D01*
X110109047Y-80319523D01*
X110013809Y-80414761D01*
X109870952Y-80462380D01*
X109775714Y-80462380D01*
X110585238Y-79557619D02*
X110632857Y-79510000D01*
X110728095Y-79462380D01*
X110966190Y-79462380D01*
X111061428Y-79510000D01*
X111109047Y-79557619D01*
X111156666Y-79652857D01*
X111156666Y-79748095D01*
X111109047Y-79890952D01*
X110537619Y-80462380D01*
X111156666Y-80462380D01*
G04 #@! TO.C,R1*
X104772380Y-86526666D02*
X104296190Y-86860000D01*
X104772380Y-87098095D02*
X103772380Y-87098095D01*
X103772380Y-86717142D01*
X103820000Y-86621904D01*
X103867619Y-86574285D01*
X103962857Y-86526666D01*
X104105714Y-86526666D01*
X104200952Y-86574285D01*
X104248571Y-86621904D01*
X104296190Y-86717142D01*
X104296190Y-87098095D01*
X104772380Y-85574285D02*
X104772380Y-86145714D01*
X104772380Y-85860000D02*
X103772380Y-85860000D01*
X103915238Y-85955238D01*
X104010476Y-86050476D01*
X104058095Y-86145714D01*
G04 #@! TO.C,R2*
X105688334Y-85722380D02*
X105355001Y-85246190D01*
X105116905Y-85722380D02*
X105116905Y-84722380D01*
X105497858Y-84722380D01*
X105593096Y-84770000D01*
X105640715Y-84817619D01*
X105688334Y-84912857D01*
X105688334Y-85055714D01*
X105640715Y-85150952D01*
X105593096Y-85198571D01*
X105497858Y-85246190D01*
X105116905Y-85246190D01*
X106069286Y-84817619D02*
X106116905Y-84770000D01*
X106212143Y-84722380D01*
X106450239Y-84722380D01*
X106545477Y-84770000D01*
X106593096Y-84817619D01*
X106640715Y-84912857D01*
X106640715Y-85008095D01*
X106593096Y-85150952D01*
X106021667Y-85722380D01*
X106640715Y-85722380D01*
G04 #@! TO.C,R3*
X111122380Y-86526666D02*
X110646190Y-86860000D01*
X111122380Y-87098095D02*
X110122380Y-87098095D01*
X110122380Y-86717142D01*
X110170000Y-86621904D01*
X110217619Y-86574285D01*
X110312857Y-86526666D01*
X110455714Y-86526666D01*
X110550952Y-86574285D01*
X110598571Y-86621904D01*
X110646190Y-86717142D01*
X110646190Y-87098095D01*
X110122380Y-86193333D02*
X110122380Y-85574285D01*
X110503333Y-85907619D01*
X110503333Y-85764761D01*
X110550952Y-85669523D01*
X110598571Y-85621904D01*
X110693809Y-85574285D01*
X110931904Y-85574285D01*
X111027142Y-85621904D01*
X111074761Y-85669523D01*
X111122380Y-85764761D01*
X111122380Y-86050476D01*
X111074761Y-86145714D01*
X111027142Y-86193333D01*
G04 #@! TD*
M02*
