G04 #@! TF.GenerationSoftware,KiCad,Pcbnew,5.0.1*
G04 #@! TF.CreationDate,2018-12-16T12:16:20+01:00*
G04 #@! TF.ProjectId,PiAttenuator,5069417474656E7561746F722E6B6963,rev?*
G04 #@! TF.SameCoordinates,Original*
G04 #@! TF.FileFunction,Legend,Bot*
G04 #@! TF.FilePolarity,Positive*
%FSLAX46Y46*%
G04 Gerber Fmt 4.6, Leading zero omitted, Abs format (unit mm)*
G04 Created by KiCad (PCBNEW 5.0.1) date So 16 Dez 2018 12:16:20 CET*
%MOMM*%
%LPD*%
G01*
G04 APERTURE LIST*
%ADD10C,0.300000*%
G04 APERTURE END LIST*
D10*
X111310857Y-83712857D02*
X111810857Y-83712857D01*
X111810857Y-84498571D02*
X111810857Y-82998571D01*
X111096571Y-82998571D01*
X109739428Y-83070000D02*
X109882285Y-82998571D01*
X110096571Y-82998571D01*
X110310857Y-83070000D01*
X110453714Y-83212857D01*
X110525142Y-83355714D01*
X110596571Y-83641428D01*
X110596571Y-83855714D01*
X110525142Y-84141428D01*
X110453714Y-84284285D01*
X110310857Y-84427142D01*
X110096571Y-84498571D01*
X109953714Y-84498571D01*
X109739428Y-84427142D01*
X109668000Y-84355714D01*
X109668000Y-83855714D01*
X109953714Y-83855714D01*
X109096571Y-84070000D02*
X108382285Y-84070000D01*
X109239428Y-84498571D02*
X108739428Y-82998571D01*
X108239428Y-84498571D01*
X105810857Y-84498571D02*
X106668000Y-84498571D01*
X106239428Y-84498571D02*
X106239428Y-82998571D01*
X106382285Y-83212857D01*
X106525142Y-83355714D01*
X106668000Y-83427142D01*
X105239428Y-83141428D02*
X105168000Y-83070000D01*
X105025142Y-82998571D01*
X104668000Y-82998571D01*
X104525142Y-83070000D01*
X104453714Y-83141428D01*
X104382285Y-83284285D01*
X104382285Y-83427142D01*
X104453714Y-83641428D01*
X105310857Y-84498571D01*
X104382285Y-84498571D01*
X102668000Y-82927142D02*
X103953714Y-84855714D01*
X101382285Y-84498571D02*
X102239428Y-84498571D01*
X101810857Y-84498571D02*
X101810857Y-82998571D01*
X101953714Y-83212857D01*
X102096571Y-83355714D01*
X102239428Y-83427142D01*
X100525142Y-83641428D02*
X100668000Y-83570000D01*
X100739428Y-83498571D01*
X100810857Y-83355714D01*
X100810857Y-83284285D01*
X100739428Y-83141428D01*
X100668000Y-83070000D01*
X100525142Y-82998571D01*
X100239428Y-82998571D01*
X100096571Y-83070000D01*
X100025142Y-83141428D01*
X99953714Y-83284285D01*
X99953714Y-83355714D01*
X100025142Y-83498571D01*
X100096571Y-83570000D01*
X100239428Y-83641428D01*
X100525142Y-83641428D01*
X100668000Y-83712857D01*
X100739428Y-83784285D01*
X100810857Y-83927142D01*
X100810857Y-84212857D01*
X100739428Y-84355714D01*
X100668000Y-84427142D01*
X100525142Y-84498571D01*
X100239428Y-84498571D01*
X100096571Y-84427142D01*
X100025142Y-84355714D01*
X99953714Y-84212857D01*
X99953714Y-83927142D01*
X100025142Y-83784285D01*
X100096571Y-83712857D01*
X100239428Y-83641428D01*
M02*
