G04 #@! TF.GenerationSoftware,KiCad,Pcbnew,5.0.1*
G04 #@! TF.CreationDate,2018-12-27T15:25:58+01:00*
G04 #@! TF.ProjectId,Filter3Ord,46696C746572334F72642E6B69636164,rev?*
G04 #@! TF.SameCoordinates,Original*
G04 #@! TF.FileFunction,Copper,L2,Bot,Signal*
G04 #@! TF.FilePolarity,Positive*
%FSLAX46Y46*%
G04 Gerber Fmt 4.6, Leading zero omitted, Abs format (unit mm)*
G04 Created by KiCad (PCBNEW 5.0.1) date Do 27 Dez 2018 15:25:58 CET*
%MOMM*%
%LPD*%
G01*
G04 APERTURE LIST*
G04 #@! TA.AperFunction,SMDPad,CuDef*
%ADD10R,4.064000X1.524000*%
G04 #@! TD*
G04 #@! TA.AperFunction,ViaPad*
%ADD11C,0.609600*%
G04 #@! TD*
G04 #@! TA.AperFunction,Conductor*
%ADD12C,0.203200*%
G04 #@! TD*
G04 #@! TA.AperFunction,Conductor*
%ADD13C,0.254000*%
G04 #@! TD*
G04 APERTURE END LIST*
D10*
G04 #@! TO.P,J1,2*
G04 #@! TO.N,GND*
X118745000Y-106680000D03*
X118745000Y-101600000D03*
G04 #@! TD*
G04 #@! TO.P,J2,2*
G04 #@! TO.N,GND*
X151892000Y-101600000D03*
X151892000Y-106680000D03*
G04 #@! TD*
D11*
G04 #@! TO.N,GND*
X122555000Y-101600000D03*
X125095000Y-101600000D03*
X127635000Y-101600000D03*
X130175000Y-101600000D03*
X132715000Y-101600000D03*
X135255000Y-101600000D03*
X137795000Y-101600000D03*
X140335000Y-101600000D03*
X142875000Y-101600000D03*
X145415000Y-101600000D03*
X147955000Y-101600000D03*
X121920000Y-106680000D03*
X149225000Y-106680000D03*
G04 #@! TD*
D12*
G04 #@! TO.N,GND*
X122555000Y-101600000D02*
X125095000Y-101600000D01*
X127635000Y-101600000D02*
X130175000Y-101600000D01*
X132715000Y-101600000D02*
X135255000Y-101600000D01*
X137795000Y-101600000D02*
X140335000Y-101600000D01*
X142875000Y-101600000D02*
X145415000Y-101600000D01*
G04 #@! TD*
D13*
G04 #@! TO.N,GND*
G36*
X149225000Y-101314250D02*
X149383750Y-101473000D01*
X151765000Y-101473000D01*
X151765000Y-101453000D01*
X152019000Y-101453000D01*
X152019000Y-101473000D01*
X152039000Y-101473000D01*
X152039000Y-101727000D01*
X152019000Y-101727000D01*
X152019000Y-102838250D01*
X152177750Y-102997000D01*
X153543000Y-102997000D01*
X153543000Y-105283000D01*
X152177750Y-105283000D01*
X152019000Y-105441750D01*
X152019000Y-106553000D01*
X152039000Y-106553000D01*
X152039000Y-106807000D01*
X152019000Y-106807000D01*
X152019000Y-106827000D01*
X151765000Y-106827000D01*
X151765000Y-106807000D01*
X149383750Y-106807000D01*
X149225000Y-106965750D01*
X149225000Y-107568310D01*
X149321673Y-107801699D01*
X149394974Y-107875000D01*
X121242026Y-107875000D01*
X121315327Y-107801699D01*
X121412000Y-107568310D01*
X121412000Y-106965750D01*
X121253250Y-106807000D01*
X118872000Y-106807000D01*
X118872000Y-106827000D01*
X118618000Y-106827000D01*
X118618000Y-106807000D01*
X118598000Y-106807000D01*
X118598000Y-106553000D01*
X118618000Y-106553000D01*
X118618000Y-105441750D01*
X118872000Y-105441750D01*
X118872000Y-106553000D01*
X121253250Y-106553000D01*
X121412000Y-106394250D01*
X121412000Y-105791690D01*
X149225000Y-105791690D01*
X149225000Y-106394250D01*
X149383750Y-106553000D01*
X151765000Y-106553000D01*
X151765000Y-105441750D01*
X151606250Y-105283000D01*
X149733691Y-105283000D01*
X149500302Y-105379673D01*
X149321673Y-105558301D01*
X149225000Y-105791690D01*
X121412000Y-105791690D01*
X121315327Y-105558301D01*
X121136698Y-105379673D01*
X120903309Y-105283000D01*
X119030750Y-105283000D01*
X118872000Y-105441750D01*
X118618000Y-105441750D01*
X118459250Y-105283000D01*
X116967000Y-105283000D01*
X116967000Y-102997000D01*
X118459250Y-102997000D01*
X118618000Y-102838250D01*
X118618000Y-101727000D01*
X118872000Y-101727000D01*
X118872000Y-102838250D01*
X119030750Y-102997000D01*
X120903309Y-102997000D01*
X121136698Y-102900327D01*
X121315327Y-102721699D01*
X121412000Y-102488310D01*
X121412000Y-101885750D01*
X149225000Y-101885750D01*
X149225000Y-102488310D01*
X149321673Y-102721699D01*
X149500302Y-102900327D01*
X149733691Y-102997000D01*
X151606250Y-102997000D01*
X151765000Y-102838250D01*
X151765000Y-101727000D01*
X149383750Y-101727000D01*
X149225000Y-101885750D01*
X121412000Y-101885750D01*
X121253250Y-101727000D01*
X118872000Y-101727000D01*
X118618000Y-101727000D01*
X118598000Y-101727000D01*
X118598000Y-101473000D01*
X118618000Y-101473000D01*
X118618000Y-101453000D01*
X118872000Y-101453000D01*
X118872000Y-101473000D01*
X121253250Y-101473000D01*
X121412000Y-101314250D01*
X121412000Y-101040000D01*
X149225000Y-101040000D01*
X149225000Y-101314250D01*
X149225000Y-101314250D01*
G37*
X149225000Y-101314250D02*
X149383750Y-101473000D01*
X151765000Y-101473000D01*
X151765000Y-101453000D01*
X152019000Y-101453000D01*
X152019000Y-101473000D01*
X152039000Y-101473000D01*
X152039000Y-101727000D01*
X152019000Y-101727000D01*
X152019000Y-102838250D01*
X152177750Y-102997000D01*
X153543000Y-102997000D01*
X153543000Y-105283000D01*
X152177750Y-105283000D01*
X152019000Y-105441750D01*
X152019000Y-106553000D01*
X152039000Y-106553000D01*
X152039000Y-106807000D01*
X152019000Y-106807000D01*
X152019000Y-106827000D01*
X151765000Y-106827000D01*
X151765000Y-106807000D01*
X149383750Y-106807000D01*
X149225000Y-106965750D01*
X149225000Y-107568310D01*
X149321673Y-107801699D01*
X149394974Y-107875000D01*
X121242026Y-107875000D01*
X121315327Y-107801699D01*
X121412000Y-107568310D01*
X121412000Y-106965750D01*
X121253250Y-106807000D01*
X118872000Y-106807000D01*
X118872000Y-106827000D01*
X118618000Y-106827000D01*
X118618000Y-106807000D01*
X118598000Y-106807000D01*
X118598000Y-106553000D01*
X118618000Y-106553000D01*
X118618000Y-105441750D01*
X118872000Y-105441750D01*
X118872000Y-106553000D01*
X121253250Y-106553000D01*
X121412000Y-106394250D01*
X121412000Y-105791690D01*
X149225000Y-105791690D01*
X149225000Y-106394250D01*
X149383750Y-106553000D01*
X151765000Y-106553000D01*
X151765000Y-105441750D01*
X151606250Y-105283000D01*
X149733691Y-105283000D01*
X149500302Y-105379673D01*
X149321673Y-105558301D01*
X149225000Y-105791690D01*
X121412000Y-105791690D01*
X121315327Y-105558301D01*
X121136698Y-105379673D01*
X120903309Y-105283000D01*
X119030750Y-105283000D01*
X118872000Y-105441750D01*
X118618000Y-105441750D01*
X118459250Y-105283000D01*
X116967000Y-105283000D01*
X116967000Y-102997000D01*
X118459250Y-102997000D01*
X118618000Y-102838250D01*
X118618000Y-101727000D01*
X118872000Y-101727000D01*
X118872000Y-102838250D01*
X119030750Y-102997000D01*
X120903309Y-102997000D01*
X121136698Y-102900327D01*
X121315327Y-102721699D01*
X121412000Y-102488310D01*
X121412000Y-101885750D01*
X149225000Y-101885750D01*
X149225000Y-102488310D01*
X149321673Y-102721699D01*
X149500302Y-102900327D01*
X149733691Y-102997000D01*
X151606250Y-102997000D01*
X151765000Y-102838250D01*
X151765000Y-101727000D01*
X149383750Y-101727000D01*
X149225000Y-101885750D01*
X121412000Y-101885750D01*
X121253250Y-101727000D01*
X118872000Y-101727000D01*
X118618000Y-101727000D01*
X118598000Y-101727000D01*
X118598000Y-101473000D01*
X118618000Y-101473000D01*
X118618000Y-101453000D01*
X118872000Y-101453000D01*
X118872000Y-101473000D01*
X121253250Y-101473000D01*
X121412000Y-101314250D01*
X121412000Y-101040000D01*
X149225000Y-101040000D01*
X149225000Y-101314250D01*
G04 #@! TD*
M02*
