G04 #@! TF.GenerationSoftware,KiCad,Pcbnew,5.0.1*
G04 #@! TF.CreationDate,2018-12-27T15:25:58+01:00*
G04 #@! TF.ProjectId,Filter3Ord,46696C746572334F72642E6B69636164,rev?*
G04 #@! TF.SameCoordinates,Original*
G04 #@! TF.FileFunction,Soldermask,Top*
G04 #@! TF.FilePolarity,Negative*
%FSLAX46Y46*%
G04 Gerber Fmt 4.6, Leading zero omitted, Abs format (unit mm)*
G04 Created by KiCad (PCBNEW 5.0.1) date Do 27 Dez 2018 15:25:58 CET*
%MOMM*%
%LPD*%
G01*
G04 APERTURE LIST*
%ADD10C,0.100000*%
G04 APERTURE END LIST*
D10*
G36*
X144285562Y-106355681D02*
X144320477Y-106366273D01*
X144352665Y-106383478D01*
X144380873Y-106406627D01*
X144404022Y-106434835D01*
X144421227Y-106467023D01*
X144431819Y-106501938D01*
X144436000Y-106544395D01*
X144436000Y-107685605D01*
X144431819Y-107728062D01*
X144421227Y-107762977D01*
X144404022Y-107795165D01*
X144380873Y-107823373D01*
X144352665Y-107846522D01*
X144320477Y-107863727D01*
X144285562Y-107874319D01*
X144243105Y-107878500D01*
X142776895Y-107878500D01*
X142734438Y-107874319D01*
X142699523Y-107863727D01*
X142667335Y-107846522D01*
X142639127Y-107823373D01*
X142615978Y-107795165D01*
X142598773Y-107762977D01*
X142588181Y-107728062D01*
X142584000Y-107685605D01*
X142584000Y-106544395D01*
X142588181Y-106501938D01*
X142598773Y-106467023D01*
X142615978Y-106434835D01*
X142639127Y-106406627D01*
X142667335Y-106383478D01*
X142699523Y-106366273D01*
X142734438Y-106355681D01*
X142776895Y-106351500D01*
X144243105Y-106351500D01*
X144285562Y-106355681D01*
X144285562Y-106355681D01*
G37*
G36*
X124473562Y-106355681D02*
X124508477Y-106366273D01*
X124540665Y-106383478D01*
X124568873Y-106406627D01*
X124592022Y-106434835D01*
X124609227Y-106467023D01*
X124619819Y-106501938D01*
X124624000Y-106544395D01*
X124624000Y-107685605D01*
X124619819Y-107728062D01*
X124609227Y-107762977D01*
X124592022Y-107795165D01*
X124568873Y-107823373D01*
X124540665Y-107846522D01*
X124508477Y-107863727D01*
X124473562Y-107874319D01*
X124431105Y-107878500D01*
X122964895Y-107878500D01*
X122922438Y-107874319D01*
X122887523Y-107863727D01*
X122855335Y-107846522D01*
X122827127Y-107823373D01*
X122803978Y-107795165D01*
X122786773Y-107762977D01*
X122776181Y-107728062D01*
X122772000Y-107685605D01*
X122772000Y-106544395D01*
X122776181Y-106501938D01*
X122786773Y-106467023D01*
X122803978Y-106434835D01*
X122827127Y-106406627D01*
X122855335Y-106383478D01*
X122887523Y-106366273D01*
X122922438Y-106355681D01*
X122964895Y-106351500D01*
X124431105Y-106351500D01*
X124473562Y-106355681D01*
X124473562Y-106355681D01*
G37*
G36*
X128410562Y-106355681D02*
X128445477Y-106366273D01*
X128477665Y-106383478D01*
X128505873Y-106406627D01*
X128529022Y-106434835D01*
X128546227Y-106467023D01*
X128556819Y-106501938D01*
X128561000Y-106544395D01*
X128561000Y-107685605D01*
X128556819Y-107728062D01*
X128546227Y-107762977D01*
X128529022Y-107795165D01*
X128505873Y-107823373D01*
X128477665Y-107846522D01*
X128445477Y-107863727D01*
X128410562Y-107874319D01*
X128368105Y-107878500D01*
X126901895Y-107878500D01*
X126859438Y-107874319D01*
X126824523Y-107863727D01*
X126792335Y-107846522D01*
X126764127Y-107823373D01*
X126740978Y-107795165D01*
X126723773Y-107762977D01*
X126713181Y-107728062D01*
X126709000Y-107685605D01*
X126709000Y-106544395D01*
X126713181Y-106501938D01*
X126723773Y-106467023D01*
X126740978Y-106434835D01*
X126764127Y-106406627D01*
X126792335Y-106383478D01*
X126824523Y-106366273D01*
X126859438Y-106355681D01*
X126901895Y-106351500D01*
X128368105Y-106351500D01*
X128410562Y-106355681D01*
X128410562Y-106355681D01*
G37*
G36*
X148095562Y-106355681D02*
X148130477Y-106366273D01*
X148162665Y-106383478D01*
X148190873Y-106406627D01*
X148214022Y-106434835D01*
X148231227Y-106467023D01*
X148241819Y-106501938D01*
X148246000Y-106544395D01*
X148246000Y-107685605D01*
X148241819Y-107728062D01*
X148231227Y-107762977D01*
X148214022Y-107795165D01*
X148190873Y-107823373D01*
X148162665Y-107846522D01*
X148130477Y-107863727D01*
X148095562Y-107874319D01*
X148053105Y-107878500D01*
X146586895Y-107878500D01*
X146544438Y-107874319D01*
X146509523Y-107863727D01*
X146477335Y-107846522D01*
X146449127Y-107823373D01*
X146425978Y-107795165D01*
X146408773Y-107762977D01*
X146398181Y-107728062D01*
X146394000Y-107685605D01*
X146394000Y-106544395D01*
X146398181Y-106501938D01*
X146408773Y-106467023D01*
X146425978Y-106434835D01*
X146449127Y-106406627D01*
X146477335Y-106383478D01*
X146509523Y-106366273D01*
X146544438Y-106355681D01*
X146586895Y-106351500D01*
X148053105Y-106351500D01*
X148095562Y-106355681D01*
X148095562Y-106355681D01*
G37*
G36*
X120828000Y-107493000D02*
X116662000Y-107493000D01*
X116662000Y-105867000D01*
X120828000Y-105867000D01*
X120828000Y-107493000D01*
X120828000Y-107493000D01*
G37*
G36*
X153975000Y-107493000D02*
X149809000Y-107493000D01*
X149809000Y-105867000D01*
X153975000Y-105867000D01*
X153975000Y-107493000D01*
X153975000Y-107493000D01*
G37*
G36*
X140748062Y-103218181D02*
X140782977Y-103228773D01*
X140815165Y-103245978D01*
X140843373Y-103269127D01*
X140866522Y-103297335D01*
X140883727Y-103329523D01*
X140894319Y-103364438D01*
X140898500Y-103406895D01*
X140898500Y-104873105D01*
X140894319Y-104915562D01*
X140883727Y-104950477D01*
X140866522Y-104982665D01*
X140843373Y-105010873D01*
X140815165Y-105034022D01*
X140782977Y-105051227D01*
X140748062Y-105061819D01*
X140705605Y-105066000D01*
X139564395Y-105066000D01*
X139521938Y-105061819D01*
X139487023Y-105051227D01*
X139454835Y-105034022D01*
X139426627Y-105010873D01*
X139403478Y-104982665D01*
X139386273Y-104950477D01*
X139375681Y-104915562D01*
X139371500Y-104873105D01*
X139371500Y-103406895D01*
X139375681Y-103364438D01*
X139386273Y-103329523D01*
X139403478Y-103297335D01*
X139426627Y-103269127D01*
X139454835Y-103245978D01*
X139487023Y-103228773D01*
X139521938Y-103218181D01*
X139564395Y-103214000D01*
X140705605Y-103214000D01*
X140748062Y-103218181D01*
X140748062Y-103218181D01*
G37*
G36*
X131423062Y-103218181D02*
X131457977Y-103228773D01*
X131490165Y-103245978D01*
X131518373Y-103269127D01*
X131541522Y-103297335D01*
X131558727Y-103329523D01*
X131569319Y-103364438D01*
X131573500Y-103406895D01*
X131573500Y-104873105D01*
X131569319Y-104915562D01*
X131558727Y-104950477D01*
X131541522Y-104982665D01*
X131518373Y-105010873D01*
X131490165Y-105034022D01*
X131457977Y-105051227D01*
X131423062Y-105061819D01*
X131380605Y-105066000D01*
X130239395Y-105066000D01*
X130196938Y-105061819D01*
X130162023Y-105051227D01*
X130129835Y-105034022D01*
X130101627Y-105010873D01*
X130078478Y-104982665D01*
X130061273Y-104950477D01*
X130050681Y-104915562D01*
X130046500Y-104873105D01*
X130046500Y-103406895D01*
X130050681Y-103364438D01*
X130061273Y-103329523D01*
X130078478Y-103297335D01*
X130101627Y-103269127D01*
X130129835Y-103245978D01*
X130162023Y-103228773D01*
X130196938Y-103218181D01*
X130239395Y-103214000D01*
X131380605Y-103214000D01*
X131423062Y-103218181D01*
X131423062Y-103218181D01*
G37*
G36*
X134398062Y-103218181D02*
X134432977Y-103228773D01*
X134465165Y-103245978D01*
X134493373Y-103269127D01*
X134516522Y-103297335D01*
X134533727Y-103329523D01*
X134544319Y-103364438D01*
X134548500Y-103406895D01*
X134548500Y-104873105D01*
X134544319Y-104915562D01*
X134533727Y-104950477D01*
X134516522Y-104982665D01*
X134493373Y-105010873D01*
X134465165Y-105034022D01*
X134432977Y-105051227D01*
X134398062Y-105061819D01*
X134355605Y-105066000D01*
X133214395Y-105066000D01*
X133171938Y-105061819D01*
X133137023Y-105051227D01*
X133104835Y-105034022D01*
X133076627Y-105010873D01*
X133053478Y-104982665D01*
X133036273Y-104950477D01*
X133025681Y-104915562D01*
X133021500Y-104873105D01*
X133021500Y-103406895D01*
X133025681Y-103364438D01*
X133036273Y-103329523D01*
X133053478Y-103297335D01*
X133076627Y-103269127D01*
X133104835Y-103245978D01*
X133137023Y-103228773D01*
X133171938Y-103218181D01*
X133214395Y-103214000D01*
X134355605Y-103214000D01*
X134398062Y-103218181D01*
X134398062Y-103218181D01*
G37*
G36*
X137773062Y-103218181D02*
X137807977Y-103228773D01*
X137840165Y-103245978D01*
X137868373Y-103269127D01*
X137891522Y-103297335D01*
X137908727Y-103329523D01*
X137919319Y-103364438D01*
X137923500Y-103406895D01*
X137923500Y-104873105D01*
X137919319Y-104915562D01*
X137908727Y-104950477D01*
X137891522Y-104982665D01*
X137868373Y-105010873D01*
X137840165Y-105034022D01*
X137807977Y-105051227D01*
X137773062Y-105061819D01*
X137730605Y-105066000D01*
X136589395Y-105066000D01*
X136546938Y-105061819D01*
X136512023Y-105051227D01*
X136479835Y-105034022D01*
X136451627Y-105010873D01*
X136428478Y-104982665D01*
X136411273Y-104950477D01*
X136400681Y-104915562D01*
X136396500Y-104873105D01*
X136396500Y-103406895D01*
X136400681Y-103364438D01*
X136411273Y-103329523D01*
X136428478Y-103297335D01*
X136451627Y-103269127D01*
X136479835Y-103245978D01*
X136512023Y-103228773D01*
X136546938Y-103218181D01*
X136589395Y-103214000D01*
X137730605Y-103214000D01*
X137773062Y-103218181D01*
X137773062Y-103218181D01*
G37*
G36*
X153975000Y-104953000D02*
X149809000Y-104953000D01*
X149809000Y-103327000D01*
X153975000Y-103327000D01*
X153975000Y-104953000D01*
X153975000Y-104953000D01*
G37*
G36*
X120828000Y-104953000D02*
X116662000Y-104953000D01*
X116662000Y-103327000D01*
X120828000Y-103327000D01*
X120828000Y-104953000D01*
X120828000Y-104953000D01*
G37*
G36*
X148095562Y-103380681D02*
X148130477Y-103391273D01*
X148162665Y-103408478D01*
X148190873Y-103431627D01*
X148214022Y-103459835D01*
X148231227Y-103492023D01*
X148241819Y-103526938D01*
X148246000Y-103569395D01*
X148246000Y-104710605D01*
X148241819Y-104753062D01*
X148231227Y-104787977D01*
X148214022Y-104820165D01*
X148190873Y-104848373D01*
X148162665Y-104871522D01*
X148130477Y-104888727D01*
X148095562Y-104899319D01*
X148053105Y-104903500D01*
X146586895Y-104903500D01*
X146544438Y-104899319D01*
X146509523Y-104888727D01*
X146477335Y-104871522D01*
X146449127Y-104848373D01*
X146425978Y-104820165D01*
X146408773Y-104787977D01*
X146398181Y-104753062D01*
X146394000Y-104710605D01*
X146394000Y-103569395D01*
X146398181Y-103526938D01*
X146408773Y-103492023D01*
X146425978Y-103459835D01*
X146449127Y-103431627D01*
X146477335Y-103408478D01*
X146509523Y-103391273D01*
X146544438Y-103380681D01*
X146586895Y-103376500D01*
X148053105Y-103376500D01*
X148095562Y-103380681D01*
X148095562Y-103380681D01*
G37*
G36*
X144285562Y-103380681D02*
X144320477Y-103391273D01*
X144352665Y-103408478D01*
X144380873Y-103431627D01*
X144404022Y-103459835D01*
X144421227Y-103492023D01*
X144431819Y-103526938D01*
X144436000Y-103569395D01*
X144436000Y-104710605D01*
X144431819Y-104753062D01*
X144421227Y-104787977D01*
X144404022Y-104820165D01*
X144380873Y-104848373D01*
X144352665Y-104871522D01*
X144320477Y-104888727D01*
X144285562Y-104899319D01*
X144243105Y-104903500D01*
X142776895Y-104903500D01*
X142734438Y-104899319D01*
X142699523Y-104888727D01*
X142667335Y-104871522D01*
X142639127Y-104848373D01*
X142615978Y-104820165D01*
X142598773Y-104787977D01*
X142588181Y-104753062D01*
X142584000Y-104710605D01*
X142584000Y-103569395D01*
X142588181Y-103526938D01*
X142598773Y-103492023D01*
X142615978Y-103459835D01*
X142639127Y-103431627D01*
X142667335Y-103408478D01*
X142699523Y-103391273D01*
X142734438Y-103380681D01*
X142776895Y-103376500D01*
X144243105Y-103376500D01*
X144285562Y-103380681D01*
X144285562Y-103380681D01*
G37*
G36*
X124473562Y-103380681D02*
X124508477Y-103391273D01*
X124540665Y-103408478D01*
X124568873Y-103431627D01*
X124592022Y-103459835D01*
X124609227Y-103492023D01*
X124619819Y-103526938D01*
X124624000Y-103569395D01*
X124624000Y-104710605D01*
X124619819Y-104753062D01*
X124609227Y-104787977D01*
X124592022Y-104820165D01*
X124568873Y-104848373D01*
X124540665Y-104871522D01*
X124508477Y-104888727D01*
X124473562Y-104899319D01*
X124431105Y-104903500D01*
X122964895Y-104903500D01*
X122922438Y-104899319D01*
X122887523Y-104888727D01*
X122855335Y-104871522D01*
X122827127Y-104848373D01*
X122803978Y-104820165D01*
X122786773Y-104787977D01*
X122776181Y-104753062D01*
X122772000Y-104710605D01*
X122772000Y-103569395D01*
X122776181Y-103526938D01*
X122786773Y-103492023D01*
X122803978Y-103459835D01*
X122827127Y-103431627D01*
X122855335Y-103408478D01*
X122887523Y-103391273D01*
X122922438Y-103380681D01*
X122964895Y-103376500D01*
X124431105Y-103376500D01*
X124473562Y-103380681D01*
X124473562Y-103380681D01*
G37*
G36*
X128410562Y-103380681D02*
X128445477Y-103391273D01*
X128477665Y-103408478D01*
X128505873Y-103431627D01*
X128529022Y-103459835D01*
X128546227Y-103492023D01*
X128556819Y-103526938D01*
X128561000Y-103569395D01*
X128561000Y-104710605D01*
X128556819Y-104753062D01*
X128546227Y-104787977D01*
X128529022Y-104820165D01*
X128505873Y-104848373D01*
X128477665Y-104871522D01*
X128445477Y-104888727D01*
X128410562Y-104899319D01*
X128368105Y-104903500D01*
X126901895Y-104903500D01*
X126859438Y-104899319D01*
X126824523Y-104888727D01*
X126792335Y-104871522D01*
X126764127Y-104848373D01*
X126740978Y-104820165D01*
X126723773Y-104787977D01*
X126713181Y-104753062D01*
X126709000Y-104710605D01*
X126709000Y-103569395D01*
X126713181Y-103526938D01*
X126723773Y-103492023D01*
X126740978Y-103459835D01*
X126764127Y-103431627D01*
X126792335Y-103408478D01*
X126824523Y-103391273D01*
X126859438Y-103380681D01*
X126901895Y-103376500D01*
X128368105Y-103376500D01*
X128410562Y-103380681D01*
X128410562Y-103380681D01*
G37*
G36*
X120828000Y-102413000D02*
X116662000Y-102413000D01*
X116662000Y-100787000D01*
X120828000Y-100787000D01*
X120828000Y-102413000D01*
X120828000Y-102413000D01*
G37*
G36*
X153975000Y-102413000D02*
X149809000Y-102413000D01*
X149809000Y-100787000D01*
X153975000Y-100787000D01*
X153975000Y-102413000D01*
X153975000Y-102413000D01*
G37*
M02*
