G04 #@! TF.GenerationSoftware,KiCad,Pcbnew,5.0.1*
G04 #@! TF.CreationDate,2018-12-22T16:12:05+01:00*
G04 #@! TF.ProjectId,BiasT,42696173542E6B696361645F70636200,rev?*
G04 #@! TF.SameCoordinates,Original*
G04 #@! TF.FileFunction,Legend,Top*
G04 #@! TF.FilePolarity,Positive*
%FSLAX46Y46*%
G04 Gerber Fmt 4.6, Leading zero omitted, Abs format (unit mm)*
G04 Created by KiCad (PCBNEW 5.0.1) date Sat 22 Dec 2018 04:12:05 PM CET*
%MOMM*%
%LPD*%
G01*
G04 APERTURE LIST*
%ADD10C,0.250000*%
%ADD11C,0.120000*%
%ADD12C,0.010000*%
%ADD13C,0.150000*%
G04 APERTURE END LIST*
D10*
X155448095Y-71890000D02*
X155352857Y-71842380D01*
X155210000Y-71842380D01*
X155067142Y-71890000D01*
X154971904Y-71985238D01*
X154924285Y-72080476D01*
X154876666Y-72270952D01*
X154876666Y-72413809D01*
X154924285Y-72604285D01*
X154971904Y-72699523D01*
X155067142Y-72794761D01*
X155210000Y-72842380D01*
X155305238Y-72842380D01*
X155448095Y-72794761D01*
X155495714Y-72747142D01*
X155495714Y-72413809D01*
X155305238Y-72413809D01*
X155924285Y-72842380D02*
X155924285Y-71842380D01*
X156495714Y-72842380D01*
X156495714Y-71842380D01*
X156971904Y-72842380D02*
X156971904Y-71842380D01*
X157210000Y-71842380D01*
X157352857Y-71890000D01*
X157448095Y-71985238D01*
X157495714Y-72080476D01*
X157543333Y-72270952D01*
X157543333Y-72413809D01*
X157495714Y-72604285D01*
X157448095Y-72699523D01*
X157352857Y-72794761D01*
X157210000Y-72842380D01*
X156971904Y-72842380D01*
X148780666Y-69810380D02*
X149114000Y-70810380D01*
X149447333Y-69810380D01*
X150352095Y-70715142D02*
X150304476Y-70762761D01*
X150161619Y-70810380D01*
X150066380Y-70810380D01*
X149923523Y-70762761D01*
X149828285Y-70667523D01*
X149780666Y-70572285D01*
X149733047Y-70381809D01*
X149733047Y-70238952D01*
X149780666Y-70048476D01*
X149828285Y-69953238D01*
X149923523Y-69858000D01*
X150066380Y-69810380D01*
X150161619Y-69810380D01*
X150304476Y-69858000D01*
X150352095Y-69905619D01*
X151352095Y-70715142D02*
X151304476Y-70762761D01*
X151161619Y-70810380D01*
X151066380Y-70810380D01*
X150923523Y-70762761D01*
X150828285Y-70667523D01*
X150780666Y-70572285D01*
X150733047Y-70381809D01*
X150733047Y-70238952D01*
X150780666Y-70048476D01*
X150828285Y-69953238D01*
X150923523Y-69858000D01*
X151066380Y-69810380D01*
X151161619Y-69810380D01*
X151304476Y-69858000D01*
X151352095Y-69905619D01*
D11*
G04 #@! TO.C,C1*
X150062000Y-76537078D02*
X150062000Y-76019922D01*
X148642000Y-76537078D02*
X148642000Y-76019922D01*
G04 #@! TO.C,C2*
X138249922Y-74982000D02*
X138767078Y-74982000D01*
X138249922Y-76402000D02*
X138767078Y-76402000D01*
G04 #@! TO.C,C3*
X145976078Y-80570000D02*
X145458922Y-80570000D01*
X145976078Y-81990000D02*
X145458922Y-81990000D01*
G04 #@! TO.C,C4*
X148008078Y-87832000D02*
X147490922Y-87832000D01*
X148008078Y-86412000D02*
X147490922Y-86412000D01*
G04 #@! TO.C,L2*
X143150000Y-80714436D02*
X143150000Y-81918564D01*
X141330000Y-80714436D02*
X141330000Y-81918564D01*
G04 #@! TO.C,R1*
X144998064Y-71480000D02*
X143793936Y-71480000D01*
X144998064Y-73300000D02*
X143793936Y-73300000D01*
G04 #@! TO.C,R2*
X139340000Y-79785936D02*
X139340000Y-80990064D01*
X137520000Y-79785936D02*
X137520000Y-80990064D01*
G04 #@! TO.C,TP1*
X149164000Y-73340000D02*
X149164000Y-71440000D01*
X151064000Y-73340000D02*
X149164000Y-73340000D01*
X151064000Y-71440000D02*
X151064000Y-73340000D01*
X149164000Y-71440000D02*
X151064000Y-71440000D01*
G04 #@! TO.C,TP2*
X152466000Y-71440000D02*
X154366000Y-71440000D01*
X154366000Y-71440000D02*
X154366000Y-73340000D01*
X154366000Y-73340000D02*
X152466000Y-73340000D01*
X152466000Y-73340000D02*
X152466000Y-71440000D01*
G04 #@! TO.C,L1*
X145597252Y-77656000D02*
X142824748Y-77656000D01*
X145597252Y-74236000D02*
X142824748Y-74236000D01*
G04 #@! TO.C,L3*
X142750000Y-86171721D02*
X142750000Y-86497279D01*
X141730000Y-86171721D02*
X141730000Y-86497279D01*
D12*
G04 #@! TO.C,REF\002A\002A*
G36*
X154535910Y-76998348D02*
X154614454Y-76998778D01*
X154671298Y-76999942D01*
X154710105Y-77002207D01*
X154734538Y-77005940D01*
X154748262Y-77011506D01*
X154754940Y-77019273D01*
X154758236Y-77029605D01*
X154758556Y-77030943D01*
X154763562Y-77055079D01*
X154772829Y-77102701D01*
X154785392Y-77168741D01*
X154800287Y-77248128D01*
X154816551Y-77335796D01*
X154817119Y-77338875D01*
X154833410Y-77424789D01*
X154848652Y-77500696D01*
X154861861Y-77562045D01*
X154872054Y-77604282D01*
X154878248Y-77622855D01*
X154878543Y-77623184D01*
X154896788Y-77632253D01*
X154934405Y-77647367D01*
X154983271Y-77665262D01*
X154983543Y-77665358D01*
X155045093Y-77688493D01*
X155117657Y-77717965D01*
X155186057Y-77747597D01*
X155189294Y-77749062D01*
X155300702Y-77799626D01*
X155547399Y-77631160D01*
X155623077Y-77579803D01*
X155691631Y-77533889D01*
X155749088Y-77496030D01*
X155791476Y-77468837D01*
X155814825Y-77454921D01*
X155817042Y-77453889D01*
X155834010Y-77458484D01*
X155865701Y-77480655D01*
X155913352Y-77521447D01*
X155978198Y-77581905D01*
X156044397Y-77646227D01*
X156108214Y-77709612D01*
X156165329Y-77767451D01*
X156212305Y-77816175D01*
X156245703Y-77852210D01*
X156262085Y-77871984D01*
X156262694Y-77873002D01*
X156264505Y-77886572D01*
X156257683Y-77908733D01*
X156240540Y-77942478D01*
X156211393Y-77990800D01*
X156168555Y-78056692D01*
X156111448Y-78141517D01*
X156060766Y-78216177D01*
X156015461Y-78283140D01*
X155978150Y-78338516D01*
X155951452Y-78378420D01*
X155937985Y-78398962D01*
X155937137Y-78400356D01*
X155938781Y-78420038D01*
X155951245Y-78458293D01*
X155972048Y-78507889D01*
X155979462Y-78523728D01*
X156011814Y-78594290D01*
X156046328Y-78674353D01*
X156074365Y-78743629D01*
X156094568Y-78795045D01*
X156110615Y-78834119D01*
X156119888Y-78854541D01*
X156121041Y-78856114D01*
X156138096Y-78858721D01*
X156178298Y-78865863D01*
X156236302Y-78876523D01*
X156306763Y-78889685D01*
X156384335Y-78904333D01*
X156463672Y-78919449D01*
X156539431Y-78934018D01*
X156606264Y-78947022D01*
X156658828Y-78957445D01*
X156691776Y-78964270D01*
X156699857Y-78966199D01*
X156708205Y-78970962D01*
X156714506Y-78981718D01*
X156719045Y-79002098D01*
X156722104Y-79035734D01*
X156723967Y-79086255D01*
X156724918Y-79157292D01*
X156725240Y-79252476D01*
X156725257Y-79291492D01*
X156725257Y-79608799D01*
X156649057Y-79623839D01*
X156606663Y-79631995D01*
X156543400Y-79643899D01*
X156466962Y-79658116D01*
X156385043Y-79673210D01*
X156362400Y-79677355D01*
X156286806Y-79692053D01*
X156220953Y-79706505D01*
X156170366Y-79719375D01*
X156140574Y-79729322D01*
X156135612Y-79732287D01*
X156123426Y-79753283D01*
X156105953Y-79793967D01*
X156086577Y-79846322D01*
X156082734Y-79857600D01*
X156057339Y-79927523D01*
X156025817Y-80006418D01*
X155994969Y-80077266D01*
X155994817Y-80077595D01*
X155943447Y-80188733D01*
X156112399Y-80437253D01*
X156281352Y-80685772D01*
X156064429Y-80903058D01*
X155998819Y-80967726D01*
X155938979Y-81024733D01*
X155888267Y-81071033D01*
X155850046Y-81103584D01*
X155827675Y-81119343D01*
X155824466Y-81120343D01*
X155805626Y-81112469D01*
X155767180Y-81090578D01*
X155713330Y-81057267D01*
X155648276Y-81015131D01*
X155577940Y-80967943D01*
X155506555Y-80919810D01*
X155442908Y-80877928D01*
X155391041Y-80844871D01*
X155354995Y-80823218D01*
X155338867Y-80815543D01*
X155319189Y-80822037D01*
X155281875Y-80839150D01*
X155234621Y-80863326D01*
X155229612Y-80866013D01*
X155165977Y-80897927D01*
X155122341Y-80913579D01*
X155095202Y-80913745D01*
X155081057Y-80899204D01*
X155080975Y-80899000D01*
X155073905Y-80881779D01*
X155057042Y-80840899D01*
X155031695Y-80779525D01*
X154999171Y-80700819D01*
X154960778Y-80607947D01*
X154917822Y-80504072D01*
X154876222Y-80403502D01*
X154830504Y-80292516D01*
X154788526Y-80189703D01*
X154751548Y-80098215D01*
X154720827Y-80021201D01*
X154697622Y-79961815D01*
X154683190Y-79923209D01*
X154678743Y-79908800D01*
X154689896Y-79892272D01*
X154719069Y-79865930D01*
X154757971Y-79836887D01*
X154868757Y-79745039D01*
X154955351Y-79639759D01*
X155016716Y-79523266D01*
X155051815Y-79397776D01*
X155059608Y-79265507D01*
X155053943Y-79204457D01*
X155023078Y-79077795D01*
X154969920Y-78965941D01*
X154897767Y-78870001D01*
X154809917Y-78791076D01*
X154709665Y-78730270D01*
X154600310Y-78688687D01*
X154485147Y-78667428D01*
X154367475Y-78667599D01*
X154250590Y-78690301D01*
X154137789Y-78736638D01*
X154032369Y-78807713D01*
X153988368Y-78847911D01*
X153903979Y-78951129D01*
X153845222Y-79063925D01*
X153811704Y-79183010D01*
X153803035Y-79305095D01*
X153818823Y-79426893D01*
X153858678Y-79545116D01*
X153922207Y-79656475D01*
X154009021Y-79757684D01*
X154106029Y-79836887D01*
X154146437Y-79867162D01*
X154174982Y-79893219D01*
X154185257Y-79908825D01*
X154179877Y-79925843D01*
X154164575Y-79966500D01*
X154140612Y-80027642D01*
X154109244Y-80106119D01*
X154071732Y-80198780D01*
X154029333Y-80302472D01*
X153987663Y-80403526D01*
X153941690Y-80514607D01*
X153899107Y-80617541D01*
X153861221Y-80709165D01*
X153829340Y-80786316D01*
X153804771Y-80845831D01*
X153788820Y-80884544D01*
X153782910Y-80899000D01*
X153768948Y-80913685D01*
X153741940Y-80913642D01*
X153698413Y-80898099D01*
X153634890Y-80866284D01*
X153634388Y-80866013D01*
X153586560Y-80841323D01*
X153547897Y-80823338D01*
X153526095Y-80815614D01*
X153525133Y-80815543D01*
X153508721Y-80823378D01*
X153472487Y-80845165D01*
X153420474Y-80878328D01*
X153356725Y-80920291D01*
X153286060Y-80967943D01*
X153214116Y-81016191D01*
X153149274Y-81058151D01*
X153095735Y-81091227D01*
X153057697Y-81112821D01*
X153039533Y-81120343D01*
X153022808Y-81110457D01*
X152989180Y-81082826D01*
X152942010Y-81040495D01*
X152884658Y-80986505D01*
X152820484Y-80923899D01*
X152799497Y-80902983D01*
X152582499Y-80685623D01*
X152747668Y-80443220D01*
X152797864Y-80368781D01*
X152841919Y-80301972D01*
X152877362Y-80246665D01*
X152901719Y-80206729D01*
X152912522Y-80186036D01*
X152912838Y-80184563D01*
X152907143Y-80165058D01*
X152891826Y-80125822D01*
X152869537Y-80073430D01*
X152853893Y-80038355D01*
X152824641Y-79971201D01*
X152797094Y-79903358D01*
X152775737Y-79846034D01*
X152769935Y-79828572D01*
X152753452Y-79781938D01*
X152737340Y-79745905D01*
X152728490Y-79732287D01*
X152708960Y-79723952D01*
X152666334Y-79712137D01*
X152606145Y-79698181D01*
X152533922Y-79683422D01*
X152501600Y-79677355D01*
X152419522Y-79662273D01*
X152340795Y-79647669D01*
X152273109Y-79634980D01*
X152224160Y-79625642D01*
X152214943Y-79623839D01*
X152138743Y-79608799D01*
X152138743Y-79291492D01*
X152138914Y-79187154D01*
X152139616Y-79108213D01*
X152141134Y-79051038D01*
X152143749Y-79011999D01*
X152147746Y-78987465D01*
X152153409Y-78973805D01*
X152161020Y-78967389D01*
X152164143Y-78966199D01*
X152182978Y-78961980D01*
X152224588Y-78953562D01*
X152283630Y-78941961D01*
X152354757Y-78928195D01*
X152432625Y-78913280D01*
X152511887Y-78898232D01*
X152587198Y-78884069D01*
X152653213Y-78871806D01*
X152704587Y-78862461D01*
X152735975Y-78857050D01*
X152742959Y-78856114D01*
X152749285Y-78843596D01*
X152763290Y-78810246D01*
X152782355Y-78762377D01*
X152789634Y-78743629D01*
X152818996Y-78671195D01*
X152853571Y-78591170D01*
X152884537Y-78523728D01*
X152907323Y-78472159D01*
X152922482Y-78429785D01*
X152927542Y-78403834D01*
X152926736Y-78400356D01*
X152916041Y-78383936D01*
X152891620Y-78347417D01*
X152856095Y-78294687D01*
X152812087Y-78229635D01*
X152762217Y-78156151D01*
X152752356Y-78141645D01*
X152694492Y-78055704D01*
X152651956Y-77990261D01*
X152623054Y-77942304D01*
X152606090Y-77908820D01*
X152599367Y-77886795D01*
X152601190Y-77873217D01*
X152601236Y-77873131D01*
X152615586Y-77855297D01*
X152647323Y-77820817D01*
X152693010Y-77773268D01*
X152749204Y-77716222D01*
X152812468Y-77653255D01*
X152819602Y-77646227D01*
X152899330Y-77569020D01*
X152960857Y-77512330D01*
X153005421Y-77475110D01*
X153034257Y-77456315D01*
X153046958Y-77453889D01*
X153065494Y-77464471D01*
X153103961Y-77488916D01*
X153158386Y-77524612D01*
X153224798Y-77568947D01*
X153299225Y-77619311D01*
X153316601Y-77631160D01*
X153563297Y-77799626D01*
X153674706Y-77749062D01*
X153742457Y-77719595D01*
X153815183Y-77689959D01*
X153877703Y-77666330D01*
X153880457Y-77665358D01*
X153929360Y-77647457D01*
X153967057Y-77632320D01*
X153985425Y-77623210D01*
X153985456Y-77623184D01*
X153991285Y-77606717D01*
X154001192Y-77566219D01*
X154014195Y-77506242D01*
X154029309Y-77431340D01*
X154045552Y-77346064D01*
X154046881Y-77338875D01*
X154063175Y-77251014D01*
X154078133Y-77171260D01*
X154090791Y-77104681D01*
X154100186Y-77056347D01*
X154105354Y-77031325D01*
X154105444Y-77030943D01*
X154108589Y-77020299D01*
X154114704Y-77012262D01*
X154127453Y-77006467D01*
X154150500Y-77002547D01*
X154187509Y-77000135D01*
X154242144Y-76998865D01*
X154318067Y-76998371D01*
X154418944Y-76998286D01*
X154432000Y-76998286D01*
X154535910Y-76998348D01*
X154535910Y-76998348D01*
G37*
X154535910Y-76998348D02*
X154614454Y-76998778D01*
X154671298Y-76999942D01*
X154710105Y-77002207D01*
X154734538Y-77005940D01*
X154748262Y-77011506D01*
X154754940Y-77019273D01*
X154758236Y-77029605D01*
X154758556Y-77030943D01*
X154763562Y-77055079D01*
X154772829Y-77102701D01*
X154785392Y-77168741D01*
X154800287Y-77248128D01*
X154816551Y-77335796D01*
X154817119Y-77338875D01*
X154833410Y-77424789D01*
X154848652Y-77500696D01*
X154861861Y-77562045D01*
X154872054Y-77604282D01*
X154878248Y-77622855D01*
X154878543Y-77623184D01*
X154896788Y-77632253D01*
X154934405Y-77647367D01*
X154983271Y-77665262D01*
X154983543Y-77665358D01*
X155045093Y-77688493D01*
X155117657Y-77717965D01*
X155186057Y-77747597D01*
X155189294Y-77749062D01*
X155300702Y-77799626D01*
X155547399Y-77631160D01*
X155623077Y-77579803D01*
X155691631Y-77533889D01*
X155749088Y-77496030D01*
X155791476Y-77468837D01*
X155814825Y-77454921D01*
X155817042Y-77453889D01*
X155834010Y-77458484D01*
X155865701Y-77480655D01*
X155913352Y-77521447D01*
X155978198Y-77581905D01*
X156044397Y-77646227D01*
X156108214Y-77709612D01*
X156165329Y-77767451D01*
X156212305Y-77816175D01*
X156245703Y-77852210D01*
X156262085Y-77871984D01*
X156262694Y-77873002D01*
X156264505Y-77886572D01*
X156257683Y-77908733D01*
X156240540Y-77942478D01*
X156211393Y-77990800D01*
X156168555Y-78056692D01*
X156111448Y-78141517D01*
X156060766Y-78216177D01*
X156015461Y-78283140D01*
X155978150Y-78338516D01*
X155951452Y-78378420D01*
X155937985Y-78398962D01*
X155937137Y-78400356D01*
X155938781Y-78420038D01*
X155951245Y-78458293D01*
X155972048Y-78507889D01*
X155979462Y-78523728D01*
X156011814Y-78594290D01*
X156046328Y-78674353D01*
X156074365Y-78743629D01*
X156094568Y-78795045D01*
X156110615Y-78834119D01*
X156119888Y-78854541D01*
X156121041Y-78856114D01*
X156138096Y-78858721D01*
X156178298Y-78865863D01*
X156236302Y-78876523D01*
X156306763Y-78889685D01*
X156384335Y-78904333D01*
X156463672Y-78919449D01*
X156539431Y-78934018D01*
X156606264Y-78947022D01*
X156658828Y-78957445D01*
X156691776Y-78964270D01*
X156699857Y-78966199D01*
X156708205Y-78970962D01*
X156714506Y-78981718D01*
X156719045Y-79002098D01*
X156722104Y-79035734D01*
X156723967Y-79086255D01*
X156724918Y-79157292D01*
X156725240Y-79252476D01*
X156725257Y-79291492D01*
X156725257Y-79608799D01*
X156649057Y-79623839D01*
X156606663Y-79631995D01*
X156543400Y-79643899D01*
X156466962Y-79658116D01*
X156385043Y-79673210D01*
X156362400Y-79677355D01*
X156286806Y-79692053D01*
X156220953Y-79706505D01*
X156170366Y-79719375D01*
X156140574Y-79729322D01*
X156135612Y-79732287D01*
X156123426Y-79753283D01*
X156105953Y-79793967D01*
X156086577Y-79846322D01*
X156082734Y-79857600D01*
X156057339Y-79927523D01*
X156025817Y-80006418D01*
X155994969Y-80077266D01*
X155994817Y-80077595D01*
X155943447Y-80188733D01*
X156112399Y-80437253D01*
X156281352Y-80685772D01*
X156064429Y-80903058D01*
X155998819Y-80967726D01*
X155938979Y-81024733D01*
X155888267Y-81071033D01*
X155850046Y-81103584D01*
X155827675Y-81119343D01*
X155824466Y-81120343D01*
X155805626Y-81112469D01*
X155767180Y-81090578D01*
X155713330Y-81057267D01*
X155648276Y-81015131D01*
X155577940Y-80967943D01*
X155506555Y-80919810D01*
X155442908Y-80877928D01*
X155391041Y-80844871D01*
X155354995Y-80823218D01*
X155338867Y-80815543D01*
X155319189Y-80822037D01*
X155281875Y-80839150D01*
X155234621Y-80863326D01*
X155229612Y-80866013D01*
X155165977Y-80897927D01*
X155122341Y-80913579D01*
X155095202Y-80913745D01*
X155081057Y-80899204D01*
X155080975Y-80899000D01*
X155073905Y-80881779D01*
X155057042Y-80840899D01*
X155031695Y-80779525D01*
X154999171Y-80700819D01*
X154960778Y-80607947D01*
X154917822Y-80504072D01*
X154876222Y-80403502D01*
X154830504Y-80292516D01*
X154788526Y-80189703D01*
X154751548Y-80098215D01*
X154720827Y-80021201D01*
X154697622Y-79961815D01*
X154683190Y-79923209D01*
X154678743Y-79908800D01*
X154689896Y-79892272D01*
X154719069Y-79865930D01*
X154757971Y-79836887D01*
X154868757Y-79745039D01*
X154955351Y-79639759D01*
X155016716Y-79523266D01*
X155051815Y-79397776D01*
X155059608Y-79265507D01*
X155053943Y-79204457D01*
X155023078Y-79077795D01*
X154969920Y-78965941D01*
X154897767Y-78870001D01*
X154809917Y-78791076D01*
X154709665Y-78730270D01*
X154600310Y-78688687D01*
X154485147Y-78667428D01*
X154367475Y-78667599D01*
X154250590Y-78690301D01*
X154137789Y-78736638D01*
X154032369Y-78807713D01*
X153988368Y-78847911D01*
X153903979Y-78951129D01*
X153845222Y-79063925D01*
X153811704Y-79183010D01*
X153803035Y-79305095D01*
X153818823Y-79426893D01*
X153858678Y-79545116D01*
X153922207Y-79656475D01*
X154009021Y-79757684D01*
X154106029Y-79836887D01*
X154146437Y-79867162D01*
X154174982Y-79893219D01*
X154185257Y-79908825D01*
X154179877Y-79925843D01*
X154164575Y-79966500D01*
X154140612Y-80027642D01*
X154109244Y-80106119D01*
X154071732Y-80198780D01*
X154029333Y-80302472D01*
X153987663Y-80403526D01*
X153941690Y-80514607D01*
X153899107Y-80617541D01*
X153861221Y-80709165D01*
X153829340Y-80786316D01*
X153804771Y-80845831D01*
X153788820Y-80884544D01*
X153782910Y-80899000D01*
X153768948Y-80913685D01*
X153741940Y-80913642D01*
X153698413Y-80898099D01*
X153634890Y-80866284D01*
X153634388Y-80866013D01*
X153586560Y-80841323D01*
X153547897Y-80823338D01*
X153526095Y-80815614D01*
X153525133Y-80815543D01*
X153508721Y-80823378D01*
X153472487Y-80845165D01*
X153420474Y-80878328D01*
X153356725Y-80920291D01*
X153286060Y-80967943D01*
X153214116Y-81016191D01*
X153149274Y-81058151D01*
X153095735Y-81091227D01*
X153057697Y-81112821D01*
X153039533Y-81120343D01*
X153022808Y-81110457D01*
X152989180Y-81082826D01*
X152942010Y-81040495D01*
X152884658Y-80986505D01*
X152820484Y-80923899D01*
X152799497Y-80902983D01*
X152582499Y-80685623D01*
X152747668Y-80443220D01*
X152797864Y-80368781D01*
X152841919Y-80301972D01*
X152877362Y-80246665D01*
X152901719Y-80206729D01*
X152912522Y-80186036D01*
X152912838Y-80184563D01*
X152907143Y-80165058D01*
X152891826Y-80125822D01*
X152869537Y-80073430D01*
X152853893Y-80038355D01*
X152824641Y-79971201D01*
X152797094Y-79903358D01*
X152775737Y-79846034D01*
X152769935Y-79828572D01*
X152753452Y-79781938D01*
X152737340Y-79745905D01*
X152728490Y-79732287D01*
X152708960Y-79723952D01*
X152666334Y-79712137D01*
X152606145Y-79698181D01*
X152533922Y-79683422D01*
X152501600Y-79677355D01*
X152419522Y-79662273D01*
X152340795Y-79647669D01*
X152273109Y-79634980D01*
X152224160Y-79625642D01*
X152214943Y-79623839D01*
X152138743Y-79608799D01*
X152138743Y-79291492D01*
X152138914Y-79187154D01*
X152139616Y-79108213D01*
X152141134Y-79051038D01*
X152143749Y-79011999D01*
X152147746Y-78987465D01*
X152153409Y-78973805D01*
X152161020Y-78967389D01*
X152164143Y-78966199D01*
X152182978Y-78961980D01*
X152224588Y-78953562D01*
X152283630Y-78941961D01*
X152354757Y-78928195D01*
X152432625Y-78913280D01*
X152511887Y-78898232D01*
X152587198Y-78884069D01*
X152653213Y-78871806D01*
X152704587Y-78862461D01*
X152735975Y-78857050D01*
X152742959Y-78856114D01*
X152749285Y-78843596D01*
X152763290Y-78810246D01*
X152782355Y-78762377D01*
X152789634Y-78743629D01*
X152818996Y-78671195D01*
X152853571Y-78591170D01*
X152884537Y-78523728D01*
X152907323Y-78472159D01*
X152922482Y-78429785D01*
X152927542Y-78403834D01*
X152926736Y-78400356D01*
X152916041Y-78383936D01*
X152891620Y-78347417D01*
X152856095Y-78294687D01*
X152812087Y-78229635D01*
X152762217Y-78156151D01*
X152752356Y-78141645D01*
X152694492Y-78055704D01*
X152651956Y-77990261D01*
X152623054Y-77942304D01*
X152606090Y-77908820D01*
X152599367Y-77886795D01*
X152601190Y-77873217D01*
X152601236Y-77873131D01*
X152615586Y-77855297D01*
X152647323Y-77820817D01*
X152693010Y-77773268D01*
X152749204Y-77716222D01*
X152812468Y-77653255D01*
X152819602Y-77646227D01*
X152899330Y-77569020D01*
X152960857Y-77512330D01*
X153005421Y-77475110D01*
X153034257Y-77456315D01*
X153046958Y-77453889D01*
X153065494Y-77464471D01*
X153103961Y-77488916D01*
X153158386Y-77524612D01*
X153224798Y-77568947D01*
X153299225Y-77619311D01*
X153316601Y-77631160D01*
X153563297Y-77799626D01*
X153674706Y-77749062D01*
X153742457Y-77719595D01*
X153815183Y-77689959D01*
X153877703Y-77666330D01*
X153880457Y-77665358D01*
X153929360Y-77647457D01*
X153967057Y-77632320D01*
X153985425Y-77623210D01*
X153985456Y-77623184D01*
X153991285Y-77606717D01*
X154001192Y-77566219D01*
X154014195Y-77506242D01*
X154029309Y-77431340D01*
X154045552Y-77346064D01*
X154046881Y-77338875D01*
X154063175Y-77251014D01*
X154078133Y-77171260D01*
X154090791Y-77104681D01*
X154100186Y-77056347D01*
X154105354Y-77031325D01*
X154105444Y-77030943D01*
X154108589Y-77020299D01*
X154114704Y-77012262D01*
X154127453Y-77006467D01*
X154150500Y-77002547D01*
X154187509Y-77000135D01*
X154242144Y-76998865D01*
X154318067Y-76998371D01*
X154418944Y-76998286D01*
X154432000Y-76998286D01*
X154535910Y-76998348D01*
G36*
X157585595Y-81722966D02*
X157643021Y-81760497D01*
X157670719Y-81794096D01*
X157692662Y-81855064D01*
X157694405Y-81903308D01*
X157690457Y-81967816D01*
X157541686Y-82032934D01*
X157469349Y-82066202D01*
X157422084Y-82092964D01*
X157397507Y-82116144D01*
X157393237Y-82138667D01*
X157406889Y-82163455D01*
X157421943Y-82179886D01*
X157465746Y-82206235D01*
X157513389Y-82208081D01*
X157557145Y-82187546D01*
X157589289Y-82146752D01*
X157595038Y-82132347D01*
X157622576Y-82087356D01*
X157654258Y-82068182D01*
X157697714Y-82051779D01*
X157697714Y-82113966D01*
X157693872Y-82156283D01*
X157678823Y-82191969D01*
X157647280Y-82232943D01*
X157642592Y-82238267D01*
X157607506Y-82274720D01*
X157577347Y-82294283D01*
X157539615Y-82303283D01*
X157508335Y-82306230D01*
X157452385Y-82306965D01*
X157412555Y-82297660D01*
X157387708Y-82283846D01*
X157348656Y-82253467D01*
X157321625Y-82220613D01*
X157304517Y-82179294D01*
X157295238Y-82123521D01*
X157291693Y-82047305D01*
X157291410Y-82008622D01*
X157292372Y-81962247D01*
X157380007Y-81962247D01*
X157381023Y-81987126D01*
X157383556Y-81991200D01*
X157400274Y-81985665D01*
X157436249Y-81971017D01*
X157484331Y-81950190D01*
X157494386Y-81945714D01*
X157555152Y-81914814D01*
X157588632Y-81887657D01*
X157595990Y-81862220D01*
X157578391Y-81836481D01*
X157563856Y-81825109D01*
X157511410Y-81802364D01*
X157462322Y-81806122D01*
X157421227Y-81833884D01*
X157392758Y-81883152D01*
X157383631Y-81922257D01*
X157380007Y-81962247D01*
X157292372Y-81962247D01*
X157293285Y-81918249D01*
X157300196Y-81851384D01*
X157313884Y-81802695D01*
X157336096Y-81766849D01*
X157368574Y-81738513D01*
X157382733Y-81729355D01*
X157447053Y-81705507D01*
X157517473Y-81704006D01*
X157585595Y-81722966D01*
X157585595Y-81722966D01*
G37*
X157585595Y-81722966D02*
X157643021Y-81760497D01*
X157670719Y-81794096D01*
X157692662Y-81855064D01*
X157694405Y-81903308D01*
X157690457Y-81967816D01*
X157541686Y-82032934D01*
X157469349Y-82066202D01*
X157422084Y-82092964D01*
X157397507Y-82116144D01*
X157393237Y-82138667D01*
X157406889Y-82163455D01*
X157421943Y-82179886D01*
X157465746Y-82206235D01*
X157513389Y-82208081D01*
X157557145Y-82187546D01*
X157589289Y-82146752D01*
X157595038Y-82132347D01*
X157622576Y-82087356D01*
X157654258Y-82068182D01*
X157697714Y-82051779D01*
X157697714Y-82113966D01*
X157693872Y-82156283D01*
X157678823Y-82191969D01*
X157647280Y-82232943D01*
X157642592Y-82238267D01*
X157607506Y-82274720D01*
X157577347Y-82294283D01*
X157539615Y-82303283D01*
X157508335Y-82306230D01*
X157452385Y-82306965D01*
X157412555Y-82297660D01*
X157387708Y-82283846D01*
X157348656Y-82253467D01*
X157321625Y-82220613D01*
X157304517Y-82179294D01*
X157295238Y-82123521D01*
X157291693Y-82047305D01*
X157291410Y-82008622D01*
X157292372Y-81962247D01*
X157380007Y-81962247D01*
X157381023Y-81987126D01*
X157383556Y-81991200D01*
X157400274Y-81985665D01*
X157436249Y-81971017D01*
X157484331Y-81950190D01*
X157494386Y-81945714D01*
X157555152Y-81914814D01*
X157588632Y-81887657D01*
X157595990Y-81862220D01*
X157578391Y-81836481D01*
X157563856Y-81825109D01*
X157511410Y-81802364D01*
X157462322Y-81806122D01*
X157421227Y-81833884D01*
X157392758Y-81883152D01*
X157383631Y-81922257D01*
X157380007Y-81962247D01*
X157292372Y-81962247D01*
X157293285Y-81918249D01*
X157300196Y-81851384D01*
X157313884Y-81802695D01*
X157336096Y-81766849D01*
X157368574Y-81738513D01*
X157382733Y-81729355D01*
X157447053Y-81705507D01*
X157517473Y-81704006D01*
X157585595Y-81722966D01*
G36*
X157084600Y-81714752D02*
X157101948Y-81722334D01*
X157143356Y-81755128D01*
X157178765Y-81802547D01*
X157200664Y-81853151D01*
X157204229Y-81878098D01*
X157192279Y-81912927D01*
X157166067Y-81931357D01*
X157137964Y-81942516D01*
X157125095Y-81944572D01*
X157118829Y-81929649D01*
X157106456Y-81897175D01*
X157101028Y-81882502D01*
X157070590Y-81831744D01*
X157026520Y-81806427D01*
X156970010Y-81807206D01*
X156965825Y-81808203D01*
X156935655Y-81822507D01*
X156913476Y-81850393D01*
X156898327Y-81895287D01*
X156889250Y-81960615D01*
X156885286Y-82049804D01*
X156884914Y-82097261D01*
X156884730Y-82172071D01*
X156883522Y-82223069D01*
X156880309Y-82255471D01*
X156874109Y-82274495D01*
X156863940Y-82285356D01*
X156848819Y-82293272D01*
X156847946Y-82293670D01*
X156818828Y-82305981D01*
X156804403Y-82310514D01*
X156802186Y-82296809D01*
X156800289Y-82258925D01*
X156798847Y-82201715D01*
X156797998Y-82130027D01*
X156797829Y-82077565D01*
X156798692Y-81976047D01*
X156802070Y-81899032D01*
X156809142Y-81842023D01*
X156821088Y-81800526D01*
X156839090Y-81770043D01*
X156864327Y-81746080D01*
X156889247Y-81729355D01*
X156949171Y-81707097D01*
X157018911Y-81702076D01*
X157084600Y-81714752D01*
X157084600Y-81714752D01*
G37*
X157084600Y-81714752D02*
X157101948Y-81722334D01*
X157143356Y-81755128D01*
X157178765Y-81802547D01*
X157200664Y-81853151D01*
X157204229Y-81878098D01*
X157192279Y-81912927D01*
X157166067Y-81931357D01*
X157137964Y-81942516D01*
X157125095Y-81944572D01*
X157118829Y-81929649D01*
X157106456Y-81897175D01*
X157101028Y-81882502D01*
X157070590Y-81831744D01*
X157026520Y-81806427D01*
X156970010Y-81807206D01*
X156965825Y-81808203D01*
X156935655Y-81822507D01*
X156913476Y-81850393D01*
X156898327Y-81895287D01*
X156889250Y-81960615D01*
X156885286Y-82049804D01*
X156884914Y-82097261D01*
X156884730Y-82172071D01*
X156883522Y-82223069D01*
X156880309Y-82255471D01*
X156874109Y-82274495D01*
X156863940Y-82285356D01*
X156848819Y-82293272D01*
X156847946Y-82293670D01*
X156818828Y-82305981D01*
X156804403Y-82310514D01*
X156802186Y-82296809D01*
X156800289Y-82258925D01*
X156798847Y-82201715D01*
X156797998Y-82130027D01*
X156797829Y-82077565D01*
X156798692Y-81976047D01*
X156802070Y-81899032D01*
X156809142Y-81842023D01*
X156821088Y-81800526D01*
X156839090Y-81770043D01*
X156864327Y-81746080D01*
X156889247Y-81729355D01*
X156949171Y-81707097D01*
X157018911Y-81702076D01*
X157084600Y-81714752D01*
G36*
X156576876Y-81712335D02*
X156618667Y-81731344D01*
X156651469Y-81754378D01*
X156675503Y-81780133D01*
X156692097Y-81813358D01*
X156702577Y-81858800D01*
X156708271Y-81921207D01*
X156710507Y-82005327D01*
X156710743Y-82060721D01*
X156710743Y-82276826D01*
X156673774Y-82293670D01*
X156644656Y-82305981D01*
X156630231Y-82310514D01*
X156627472Y-82297025D01*
X156625282Y-82260653D01*
X156623942Y-82207542D01*
X156623657Y-82165372D01*
X156622434Y-82104447D01*
X156619136Y-82056115D01*
X156614321Y-82026518D01*
X156610496Y-82020229D01*
X156584783Y-82026652D01*
X156544418Y-82043125D01*
X156497679Y-82065458D01*
X156452845Y-82089457D01*
X156418193Y-82110930D01*
X156402002Y-82125685D01*
X156401938Y-82125845D01*
X156403330Y-82153152D01*
X156415818Y-82179219D01*
X156437743Y-82200392D01*
X156469743Y-82207474D01*
X156497092Y-82206649D01*
X156535826Y-82206042D01*
X156556158Y-82215116D01*
X156568369Y-82239092D01*
X156569909Y-82243613D01*
X156575203Y-82277806D01*
X156561047Y-82298568D01*
X156524148Y-82308462D01*
X156484289Y-82310292D01*
X156412562Y-82296727D01*
X156375432Y-82277355D01*
X156329576Y-82231845D01*
X156305256Y-82175983D01*
X156303073Y-82116957D01*
X156323629Y-82061953D01*
X156354549Y-82027486D01*
X156385420Y-82008189D01*
X156433942Y-81983759D01*
X156490485Y-81958985D01*
X156499910Y-81955199D01*
X156562019Y-81927791D01*
X156597822Y-81903634D01*
X156609337Y-81879619D01*
X156598580Y-81852635D01*
X156580114Y-81831543D01*
X156536469Y-81805572D01*
X156488446Y-81803624D01*
X156444406Y-81823637D01*
X156412709Y-81863551D01*
X156408549Y-81873848D01*
X156384327Y-81911724D01*
X156348965Y-81939842D01*
X156304343Y-81962917D01*
X156304343Y-81897485D01*
X156306969Y-81857506D01*
X156318230Y-81825997D01*
X156343199Y-81792378D01*
X156367169Y-81766484D01*
X156404441Y-81729817D01*
X156433401Y-81710121D01*
X156464505Y-81702220D01*
X156499713Y-81700914D01*
X156576876Y-81712335D01*
X156576876Y-81712335D01*
G37*
X156576876Y-81712335D02*
X156618667Y-81731344D01*
X156651469Y-81754378D01*
X156675503Y-81780133D01*
X156692097Y-81813358D01*
X156702577Y-81858800D01*
X156708271Y-81921207D01*
X156710507Y-82005327D01*
X156710743Y-82060721D01*
X156710743Y-82276826D01*
X156673774Y-82293670D01*
X156644656Y-82305981D01*
X156630231Y-82310514D01*
X156627472Y-82297025D01*
X156625282Y-82260653D01*
X156623942Y-82207542D01*
X156623657Y-82165372D01*
X156622434Y-82104447D01*
X156619136Y-82056115D01*
X156614321Y-82026518D01*
X156610496Y-82020229D01*
X156584783Y-82026652D01*
X156544418Y-82043125D01*
X156497679Y-82065458D01*
X156452845Y-82089457D01*
X156418193Y-82110930D01*
X156402002Y-82125685D01*
X156401938Y-82125845D01*
X156403330Y-82153152D01*
X156415818Y-82179219D01*
X156437743Y-82200392D01*
X156469743Y-82207474D01*
X156497092Y-82206649D01*
X156535826Y-82206042D01*
X156556158Y-82215116D01*
X156568369Y-82239092D01*
X156569909Y-82243613D01*
X156575203Y-82277806D01*
X156561047Y-82298568D01*
X156524148Y-82308462D01*
X156484289Y-82310292D01*
X156412562Y-82296727D01*
X156375432Y-82277355D01*
X156329576Y-82231845D01*
X156305256Y-82175983D01*
X156303073Y-82116957D01*
X156323629Y-82061953D01*
X156354549Y-82027486D01*
X156385420Y-82008189D01*
X156433942Y-81983759D01*
X156490485Y-81958985D01*
X156499910Y-81955199D01*
X156562019Y-81927791D01*
X156597822Y-81903634D01*
X156609337Y-81879619D01*
X156598580Y-81852635D01*
X156580114Y-81831543D01*
X156536469Y-81805572D01*
X156488446Y-81803624D01*
X156444406Y-81823637D01*
X156412709Y-81863551D01*
X156408549Y-81873848D01*
X156384327Y-81911724D01*
X156348965Y-81939842D01*
X156304343Y-81962917D01*
X156304343Y-81897485D01*
X156306969Y-81857506D01*
X156318230Y-81825997D01*
X156343199Y-81792378D01*
X156367169Y-81766484D01*
X156404441Y-81729817D01*
X156433401Y-81710121D01*
X156464505Y-81702220D01*
X156499713Y-81700914D01*
X156576876Y-81712335D01*
G36*
X156211833Y-81714663D02*
X156214048Y-81752850D01*
X156215784Y-81810886D01*
X156216899Y-81884180D01*
X156217257Y-81961055D01*
X156217257Y-82221196D01*
X156171326Y-82267127D01*
X156139675Y-82295429D01*
X156111890Y-82306893D01*
X156073915Y-82306168D01*
X156058840Y-82304321D01*
X156011726Y-82298948D01*
X155972756Y-82295869D01*
X155963257Y-82295585D01*
X155931233Y-82297445D01*
X155885432Y-82302114D01*
X155867674Y-82304321D01*
X155824057Y-82307735D01*
X155794745Y-82300320D01*
X155765680Y-82277427D01*
X155755188Y-82267127D01*
X155709257Y-82221196D01*
X155709257Y-81734602D01*
X155746226Y-81717758D01*
X155778059Y-81705282D01*
X155796683Y-81700914D01*
X155801458Y-81714718D01*
X155805921Y-81753286D01*
X155809775Y-81812356D01*
X155812722Y-81887663D01*
X155814143Y-81951286D01*
X155818114Y-82201657D01*
X155852759Y-82206556D01*
X155884268Y-82203131D01*
X155899708Y-82192041D01*
X155904023Y-82171308D01*
X155907708Y-82127145D01*
X155910469Y-82065146D01*
X155912012Y-81990909D01*
X155912235Y-81952706D01*
X155912457Y-81732783D01*
X155958166Y-81716849D01*
X155990518Y-81706015D01*
X156008115Y-81700962D01*
X156008623Y-81700914D01*
X156010388Y-81714648D01*
X156012329Y-81752730D01*
X156014282Y-81810482D01*
X156016084Y-81883227D01*
X156017343Y-81951286D01*
X156021314Y-82201657D01*
X156108400Y-82201657D01*
X156112396Y-81973240D01*
X156116392Y-81744822D01*
X156158847Y-81722868D01*
X156190192Y-81707793D01*
X156208744Y-81700951D01*
X156209279Y-81700914D01*
X156211833Y-81714663D01*
X156211833Y-81714663D01*
G37*
X156211833Y-81714663D02*
X156214048Y-81752850D01*
X156215784Y-81810886D01*
X156216899Y-81884180D01*
X156217257Y-81961055D01*
X156217257Y-82221196D01*
X156171326Y-82267127D01*
X156139675Y-82295429D01*
X156111890Y-82306893D01*
X156073915Y-82306168D01*
X156058840Y-82304321D01*
X156011726Y-82298948D01*
X155972756Y-82295869D01*
X155963257Y-82295585D01*
X155931233Y-82297445D01*
X155885432Y-82302114D01*
X155867674Y-82304321D01*
X155824057Y-82307735D01*
X155794745Y-82300320D01*
X155765680Y-82277427D01*
X155755188Y-82267127D01*
X155709257Y-82221196D01*
X155709257Y-81734602D01*
X155746226Y-81717758D01*
X155778059Y-81705282D01*
X155796683Y-81700914D01*
X155801458Y-81714718D01*
X155805921Y-81753286D01*
X155809775Y-81812356D01*
X155812722Y-81887663D01*
X155814143Y-81951286D01*
X155818114Y-82201657D01*
X155852759Y-82206556D01*
X155884268Y-82203131D01*
X155899708Y-82192041D01*
X155904023Y-82171308D01*
X155907708Y-82127145D01*
X155910469Y-82065146D01*
X155912012Y-81990909D01*
X155912235Y-81952706D01*
X155912457Y-81732783D01*
X155958166Y-81716849D01*
X155990518Y-81706015D01*
X156008115Y-81700962D01*
X156008623Y-81700914D01*
X156010388Y-81714648D01*
X156012329Y-81752730D01*
X156014282Y-81810482D01*
X156016084Y-81883227D01*
X156017343Y-81951286D01*
X156021314Y-82201657D01*
X156108400Y-82201657D01*
X156112396Y-81973240D01*
X156116392Y-81744822D01*
X156158847Y-81722868D01*
X156190192Y-81707793D01*
X156208744Y-81700951D01*
X156209279Y-81700914D01*
X156211833Y-81714663D01*
G36*
X155622117Y-81821358D02*
X155621933Y-81929837D01*
X155621219Y-82013287D01*
X155619675Y-82075704D01*
X155617001Y-82121085D01*
X155612894Y-82153429D01*
X155607055Y-82176733D01*
X155599182Y-82194995D01*
X155593221Y-82205418D01*
X155543855Y-82261945D01*
X155481264Y-82297377D01*
X155412013Y-82310090D01*
X155342668Y-82298463D01*
X155301375Y-82277568D01*
X155258025Y-82241422D01*
X155228481Y-82197276D01*
X155210655Y-82139462D01*
X155202463Y-82062313D01*
X155201302Y-82005714D01*
X155201458Y-82001647D01*
X155302857Y-82001647D01*
X155303476Y-82066550D01*
X155306314Y-82109514D01*
X155312840Y-82137622D01*
X155324523Y-82157953D01*
X155338483Y-82173288D01*
X155385365Y-82202890D01*
X155435701Y-82205419D01*
X155483276Y-82180705D01*
X155486979Y-82177356D01*
X155502783Y-82159935D01*
X155512693Y-82139209D01*
X155518058Y-82108362D01*
X155520228Y-82060577D01*
X155520571Y-82007748D01*
X155519827Y-81941381D01*
X155516748Y-81897106D01*
X155510061Y-81868009D01*
X155498496Y-81847173D01*
X155489013Y-81836107D01*
X155444960Y-81808198D01*
X155394224Y-81804843D01*
X155345796Y-81826159D01*
X155336450Y-81834073D01*
X155320540Y-81851647D01*
X155310610Y-81872587D01*
X155305278Y-81903782D01*
X155303163Y-81952122D01*
X155302857Y-82001647D01*
X155201458Y-82001647D01*
X155204810Y-81914568D01*
X155216726Y-81846086D01*
X155239135Y-81794600D01*
X155274124Y-81754443D01*
X155301375Y-81733861D01*
X155350907Y-81711625D01*
X155408316Y-81701304D01*
X155461682Y-81704067D01*
X155491543Y-81715212D01*
X155503261Y-81718383D01*
X155511037Y-81706557D01*
X155516465Y-81674866D01*
X155520571Y-81626593D01*
X155525067Y-81572829D01*
X155531313Y-81540482D01*
X155542676Y-81521985D01*
X155562528Y-81509770D01*
X155575000Y-81504362D01*
X155622171Y-81484601D01*
X155622117Y-81821358D01*
X155622117Y-81821358D01*
G37*
X155622117Y-81821358D02*
X155621933Y-81929837D01*
X155621219Y-82013287D01*
X155619675Y-82075704D01*
X155617001Y-82121085D01*
X155612894Y-82153429D01*
X155607055Y-82176733D01*
X155599182Y-82194995D01*
X155593221Y-82205418D01*
X155543855Y-82261945D01*
X155481264Y-82297377D01*
X155412013Y-82310090D01*
X155342668Y-82298463D01*
X155301375Y-82277568D01*
X155258025Y-82241422D01*
X155228481Y-82197276D01*
X155210655Y-82139462D01*
X155202463Y-82062313D01*
X155201302Y-82005714D01*
X155201458Y-82001647D01*
X155302857Y-82001647D01*
X155303476Y-82066550D01*
X155306314Y-82109514D01*
X155312840Y-82137622D01*
X155324523Y-82157953D01*
X155338483Y-82173288D01*
X155385365Y-82202890D01*
X155435701Y-82205419D01*
X155483276Y-82180705D01*
X155486979Y-82177356D01*
X155502783Y-82159935D01*
X155512693Y-82139209D01*
X155518058Y-82108362D01*
X155520228Y-82060577D01*
X155520571Y-82007748D01*
X155519827Y-81941381D01*
X155516748Y-81897106D01*
X155510061Y-81868009D01*
X155498496Y-81847173D01*
X155489013Y-81836107D01*
X155444960Y-81808198D01*
X155394224Y-81804843D01*
X155345796Y-81826159D01*
X155336450Y-81834073D01*
X155320540Y-81851647D01*
X155310610Y-81872587D01*
X155305278Y-81903782D01*
X155303163Y-81952122D01*
X155302857Y-82001647D01*
X155201458Y-82001647D01*
X155204810Y-81914568D01*
X155216726Y-81846086D01*
X155239135Y-81794600D01*
X155274124Y-81754443D01*
X155301375Y-81733861D01*
X155350907Y-81711625D01*
X155408316Y-81701304D01*
X155461682Y-81704067D01*
X155491543Y-81715212D01*
X155503261Y-81718383D01*
X155511037Y-81706557D01*
X155516465Y-81674866D01*
X155520571Y-81626593D01*
X155525067Y-81572829D01*
X155531313Y-81540482D01*
X155542676Y-81521985D01*
X155562528Y-81509770D01*
X155575000Y-81504362D01*
X155622171Y-81484601D01*
X155622117Y-81821358D01*
G36*
X154961926Y-81705755D02*
X155027858Y-81730084D01*
X155081273Y-81773117D01*
X155102164Y-81803409D01*
X155124939Y-81858994D01*
X155124466Y-81899186D01*
X155100562Y-81926217D01*
X155091717Y-81930813D01*
X155053530Y-81945144D01*
X155034028Y-81941472D01*
X155027422Y-81917407D01*
X155027086Y-81904114D01*
X155014992Y-81855210D01*
X154983471Y-81820999D01*
X154939659Y-81804476D01*
X154890695Y-81808634D01*
X154850894Y-81830227D01*
X154837450Y-81842544D01*
X154827921Y-81857487D01*
X154821485Y-81880075D01*
X154817317Y-81915328D01*
X154814597Y-81968266D01*
X154812502Y-82043907D01*
X154811960Y-82067857D01*
X154809981Y-82149790D01*
X154807731Y-82207455D01*
X154804357Y-82245608D01*
X154799006Y-82269004D01*
X154790824Y-82282398D01*
X154778959Y-82290545D01*
X154771362Y-82294144D01*
X154739102Y-82306452D01*
X154720111Y-82310514D01*
X154713836Y-82296948D01*
X154710006Y-82255934D01*
X154708600Y-82186999D01*
X154709598Y-82089669D01*
X154709908Y-82074657D01*
X154712101Y-81985859D01*
X154714693Y-81921019D01*
X154718382Y-81875067D01*
X154723864Y-81842935D01*
X154731835Y-81819553D01*
X154742993Y-81799852D01*
X154748830Y-81791410D01*
X154782296Y-81754057D01*
X154819727Y-81725003D01*
X154824309Y-81722467D01*
X154891426Y-81702443D01*
X154961926Y-81705755D01*
X154961926Y-81705755D01*
G37*
X154961926Y-81705755D02*
X155027858Y-81730084D01*
X155081273Y-81773117D01*
X155102164Y-81803409D01*
X155124939Y-81858994D01*
X155124466Y-81899186D01*
X155100562Y-81926217D01*
X155091717Y-81930813D01*
X155053530Y-81945144D01*
X155034028Y-81941472D01*
X155027422Y-81917407D01*
X155027086Y-81904114D01*
X155014992Y-81855210D01*
X154983471Y-81820999D01*
X154939659Y-81804476D01*
X154890695Y-81808634D01*
X154850894Y-81830227D01*
X154837450Y-81842544D01*
X154827921Y-81857487D01*
X154821485Y-81880075D01*
X154817317Y-81915328D01*
X154814597Y-81968266D01*
X154812502Y-82043907D01*
X154811960Y-82067857D01*
X154809981Y-82149790D01*
X154807731Y-82207455D01*
X154804357Y-82245608D01*
X154799006Y-82269004D01*
X154790824Y-82282398D01*
X154778959Y-82290545D01*
X154771362Y-82294144D01*
X154739102Y-82306452D01*
X154720111Y-82310514D01*
X154713836Y-82296948D01*
X154710006Y-82255934D01*
X154708600Y-82186999D01*
X154709598Y-82089669D01*
X154709908Y-82074657D01*
X154712101Y-81985859D01*
X154714693Y-81921019D01*
X154718382Y-81875067D01*
X154723864Y-81842935D01*
X154731835Y-81819553D01*
X154742993Y-81799852D01*
X154748830Y-81791410D01*
X154782296Y-81754057D01*
X154819727Y-81725003D01*
X154824309Y-81722467D01*
X154891426Y-81702443D01*
X154961926Y-81705755D01*
G36*
X154471744Y-81706968D02*
X154528616Y-81728087D01*
X154529267Y-81728493D01*
X154564440Y-81754380D01*
X154590407Y-81784633D01*
X154608670Y-81824058D01*
X154620732Y-81877462D01*
X154628096Y-81949651D01*
X154632264Y-82045432D01*
X154632629Y-82059078D01*
X154637876Y-82264842D01*
X154593716Y-82287678D01*
X154561763Y-82303110D01*
X154542470Y-82310423D01*
X154541578Y-82310514D01*
X154538239Y-82297022D01*
X154535587Y-82260626D01*
X154533956Y-82207452D01*
X154533600Y-82164393D01*
X154533592Y-82094641D01*
X154530403Y-82050837D01*
X154519288Y-82029944D01*
X154495501Y-82028925D01*
X154454296Y-82044741D01*
X154392086Y-82073815D01*
X154346341Y-82097963D01*
X154322813Y-82118913D01*
X154315896Y-82141747D01*
X154315886Y-82142877D01*
X154327299Y-82182212D01*
X154361092Y-82203462D01*
X154412809Y-82206539D01*
X154450061Y-82206006D01*
X154469703Y-82216735D01*
X154481952Y-82242505D01*
X154489002Y-82275337D01*
X154478842Y-82293966D01*
X154475017Y-82296632D01*
X154439001Y-82307340D01*
X154388566Y-82308856D01*
X154336626Y-82301759D01*
X154299822Y-82288788D01*
X154248938Y-82245585D01*
X154220014Y-82185446D01*
X154214286Y-82138462D01*
X154218657Y-82096082D01*
X154234475Y-82061488D01*
X154265797Y-82030763D01*
X154316678Y-81999990D01*
X154391176Y-81965252D01*
X154395714Y-81963288D01*
X154462821Y-81932287D01*
X154504232Y-81906862D01*
X154521981Y-81884014D01*
X154518107Y-81860745D01*
X154494643Y-81834056D01*
X154487627Y-81827914D01*
X154440630Y-81804100D01*
X154391933Y-81805103D01*
X154349522Y-81828451D01*
X154321384Y-81871675D01*
X154318769Y-81880160D01*
X154293308Y-81921308D01*
X154261001Y-81941128D01*
X154214286Y-81960770D01*
X154214286Y-81909950D01*
X154228496Y-81836082D01*
X154270675Y-81768327D01*
X154292624Y-81745661D01*
X154342517Y-81716569D01*
X154405967Y-81703400D01*
X154471744Y-81706968D01*
X154471744Y-81706968D01*
G37*
X154471744Y-81706968D02*
X154528616Y-81728087D01*
X154529267Y-81728493D01*
X154564440Y-81754380D01*
X154590407Y-81784633D01*
X154608670Y-81824058D01*
X154620732Y-81877462D01*
X154628096Y-81949651D01*
X154632264Y-82045432D01*
X154632629Y-82059078D01*
X154637876Y-82264842D01*
X154593716Y-82287678D01*
X154561763Y-82303110D01*
X154542470Y-82310423D01*
X154541578Y-82310514D01*
X154538239Y-82297022D01*
X154535587Y-82260626D01*
X154533956Y-82207452D01*
X154533600Y-82164393D01*
X154533592Y-82094641D01*
X154530403Y-82050837D01*
X154519288Y-82029944D01*
X154495501Y-82028925D01*
X154454296Y-82044741D01*
X154392086Y-82073815D01*
X154346341Y-82097963D01*
X154322813Y-82118913D01*
X154315896Y-82141747D01*
X154315886Y-82142877D01*
X154327299Y-82182212D01*
X154361092Y-82203462D01*
X154412809Y-82206539D01*
X154450061Y-82206006D01*
X154469703Y-82216735D01*
X154481952Y-82242505D01*
X154489002Y-82275337D01*
X154478842Y-82293966D01*
X154475017Y-82296632D01*
X154439001Y-82307340D01*
X154388566Y-82308856D01*
X154336626Y-82301759D01*
X154299822Y-82288788D01*
X154248938Y-82245585D01*
X154220014Y-82185446D01*
X154214286Y-82138462D01*
X154218657Y-82096082D01*
X154234475Y-82061488D01*
X154265797Y-82030763D01*
X154316678Y-81999990D01*
X154391176Y-81965252D01*
X154395714Y-81963288D01*
X154462821Y-81932287D01*
X154504232Y-81906862D01*
X154521981Y-81884014D01*
X154518107Y-81860745D01*
X154494643Y-81834056D01*
X154487627Y-81827914D01*
X154440630Y-81804100D01*
X154391933Y-81805103D01*
X154349522Y-81828451D01*
X154321384Y-81871675D01*
X154318769Y-81880160D01*
X154293308Y-81921308D01*
X154261001Y-81941128D01*
X154214286Y-81960770D01*
X154214286Y-81909950D01*
X154228496Y-81836082D01*
X154270675Y-81768327D01*
X154292624Y-81745661D01*
X154342517Y-81716569D01*
X154405967Y-81703400D01*
X154471744Y-81706968D01*
G36*
X153807886Y-81607289D02*
X153812139Y-81666613D01*
X153817025Y-81701572D01*
X153823795Y-81716820D01*
X153833702Y-81717015D01*
X153836914Y-81715195D01*
X153879644Y-81702015D01*
X153935227Y-81702785D01*
X153991737Y-81716333D01*
X154027082Y-81733861D01*
X154063321Y-81761861D01*
X154089813Y-81793549D01*
X154107999Y-81833813D01*
X154119322Y-81887543D01*
X154125222Y-81959626D01*
X154127143Y-82054951D01*
X154127177Y-82073237D01*
X154127200Y-82278646D01*
X154081491Y-82294580D01*
X154049027Y-82305420D01*
X154031215Y-82310468D01*
X154030691Y-82310514D01*
X154028937Y-82296828D01*
X154027444Y-82259076D01*
X154026326Y-82202224D01*
X154025697Y-82131234D01*
X154025600Y-82088073D01*
X154025398Y-82002973D01*
X154024358Y-81941981D01*
X154021831Y-81900177D01*
X154017164Y-81872642D01*
X154009707Y-81854456D01*
X153998811Y-81840698D01*
X153992007Y-81834073D01*
X153945272Y-81807375D01*
X153894272Y-81805375D01*
X153848001Y-81827955D01*
X153839444Y-81836107D01*
X153826893Y-81851436D01*
X153818188Y-81869618D01*
X153812631Y-81895909D01*
X153809526Y-81935562D01*
X153808176Y-81993832D01*
X153807886Y-82074173D01*
X153807886Y-82278646D01*
X153762177Y-82294580D01*
X153729713Y-82305420D01*
X153711901Y-82310468D01*
X153711377Y-82310514D01*
X153710037Y-82296623D01*
X153708828Y-82257439D01*
X153707801Y-82196700D01*
X153707002Y-82118141D01*
X153706481Y-82025498D01*
X153706286Y-81922509D01*
X153706286Y-81525342D01*
X153753457Y-81505444D01*
X153800629Y-81485547D01*
X153807886Y-81607289D01*
X153807886Y-81607289D01*
G37*
X153807886Y-81607289D02*
X153812139Y-81666613D01*
X153817025Y-81701572D01*
X153823795Y-81716820D01*
X153833702Y-81717015D01*
X153836914Y-81715195D01*
X153879644Y-81702015D01*
X153935227Y-81702785D01*
X153991737Y-81716333D01*
X154027082Y-81733861D01*
X154063321Y-81761861D01*
X154089813Y-81793549D01*
X154107999Y-81833813D01*
X154119322Y-81887543D01*
X154125222Y-81959626D01*
X154127143Y-82054951D01*
X154127177Y-82073237D01*
X154127200Y-82278646D01*
X154081491Y-82294580D01*
X154049027Y-82305420D01*
X154031215Y-82310468D01*
X154030691Y-82310514D01*
X154028937Y-82296828D01*
X154027444Y-82259076D01*
X154026326Y-82202224D01*
X154025697Y-82131234D01*
X154025600Y-82088073D01*
X154025398Y-82002973D01*
X154024358Y-81941981D01*
X154021831Y-81900177D01*
X154017164Y-81872642D01*
X154009707Y-81854456D01*
X153998811Y-81840698D01*
X153992007Y-81834073D01*
X153945272Y-81807375D01*
X153894272Y-81805375D01*
X153848001Y-81827955D01*
X153839444Y-81836107D01*
X153826893Y-81851436D01*
X153818188Y-81869618D01*
X153812631Y-81895909D01*
X153809526Y-81935562D01*
X153808176Y-81993832D01*
X153807886Y-82074173D01*
X153807886Y-82278646D01*
X153762177Y-82294580D01*
X153729713Y-82305420D01*
X153711901Y-82310468D01*
X153711377Y-82310514D01*
X153710037Y-82296623D01*
X153708828Y-82257439D01*
X153707801Y-82196700D01*
X153707002Y-82118141D01*
X153706481Y-82025498D01*
X153706286Y-81922509D01*
X153706286Y-81525342D01*
X153753457Y-81505444D01*
X153800629Y-81485547D01*
X153807886Y-81607289D01*
G36*
X152600303Y-81687239D02*
X152657527Y-81725735D01*
X152701749Y-81781335D01*
X152728167Y-81852086D01*
X152733510Y-81904162D01*
X152732903Y-81925893D01*
X152727822Y-81942531D01*
X152713855Y-81957437D01*
X152686589Y-81973973D01*
X152641612Y-81995498D01*
X152574511Y-82025374D01*
X152574171Y-82025524D01*
X152512407Y-82053813D01*
X152461759Y-82078933D01*
X152427404Y-82098179D01*
X152414518Y-82108848D01*
X152414514Y-82108934D01*
X152425872Y-82132166D01*
X152452431Y-82157774D01*
X152482923Y-82176221D01*
X152498370Y-82179886D01*
X152540515Y-82167212D01*
X152576808Y-82135471D01*
X152594517Y-82100572D01*
X152611552Y-82074845D01*
X152644922Y-82045546D01*
X152684149Y-82020235D01*
X152718756Y-82006471D01*
X152725993Y-82005714D01*
X152734139Y-82018160D01*
X152734630Y-82049972D01*
X152728643Y-82092866D01*
X152717357Y-82138558D01*
X152701950Y-82178761D01*
X152701171Y-82180322D01*
X152654804Y-82245062D01*
X152594711Y-82289097D01*
X152526465Y-82310711D01*
X152455638Y-82308185D01*
X152387804Y-82279804D01*
X152384788Y-82277808D01*
X152331427Y-82229448D01*
X152296340Y-82166352D01*
X152276922Y-82083387D01*
X152274316Y-82060078D01*
X152269701Y-81950055D01*
X152275233Y-81898748D01*
X152414514Y-81898748D01*
X152416324Y-81930753D01*
X152426222Y-81940093D01*
X152450898Y-81933105D01*
X152489795Y-81916587D01*
X152533275Y-81895881D01*
X152534356Y-81895333D01*
X152571209Y-81875949D01*
X152586000Y-81863013D01*
X152582353Y-81849451D01*
X152566995Y-81831632D01*
X152527923Y-81805845D01*
X152485846Y-81803950D01*
X152448103Y-81822717D01*
X152422034Y-81858915D01*
X152414514Y-81898748D01*
X152275233Y-81898748D01*
X152279194Y-81862027D01*
X152303550Y-81792212D01*
X152337456Y-81743302D01*
X152398653Y-81693878D01*
X152466063Y-81669359D01*
X152534880Y-81667797D01*
X152600303Y-81687239D01*
X152600303Y-81687239D01*
G37*
X152600303Y-81687239D02*
X152657527Y-81725735D01*
X152701749Y-81781335D01*
X152728167Y-81852086D01*
X152733510Y-81904162D01*
X152732903Y-81925893D01*
X152727822Y-81942531D01*
X152713855Y-81957437D01*
X152686589Y-81973973D01*
X152641612Y-81995498D01*
X152574511Y-82025374D01*
X152574171Y-82025524D01*
X152512407Y-82053813D01*
X152461759Y-82078933D01*
X152427404Y-82098179D01*
X152414518Y-82108848D01*
X152414514Y-82108934D01*
X152425872Y-82132166D01*
X152452431Y-82157774D01*
X152482923Y-82176221D01*
X152498370Y-82179886D01*
X152540515Y-82167212D01*
X152576808Y-82135471D01*
X152594517Y-82100572D01*
X152611552Y-82074845D01*
X152644922Y-82045546D01*
X152684149Y-82020235D01*
X152718756Y-82006471D01*
X152725993Y-82005714D01*
X152734139Y-82018160D01*
X152734630Y-82049972D01*
X152728643Y-82092866D01*
X152717357Y-82138558D01*
X152701950Y-82178761D01*
X152701171Y-82180322D01*
X152654804Y-82245062D01*
X152594711Y-82289097D01*
X152526465Y-82310711D01*
X152455638Y-82308185D01*
X152387804Y-82279804D01*
X152384788Y-82277808D01*
X152331427Y-82229448D01*
X152296340Y-82166352D01*
X152276922Y-82083387D01*
X152274316Y-82060078D01*
X152269701Y-81950055D01*
X152275233Y-81898748D01*
X152414514Y-81898748D01*
X152416324Y-81930753D01*
X152426222Y-81940093D01*
X152450898Y-81933105D01*
X152489795Y-81916587D01*
X152533275Y-81895881D01*
X152534356Y-81895333D01*
X152571209Y-81875949D01*
X152586000Y-81863013D01*
X152582353Y-81849451D01*
X152566995Y-81831632D01*
X152527923Y-81805845D01*
X152485846Y-81803950D01*
X152448103Y-81822717D01*
X152422034Y-81858915D01*
X152414514Y-81898748D01*
X152275233Y-81898748D01*
X152279194Y-81862027D01*
X152303550Y-81792212D01*
X152337456Y-81743302D01*
X152398653Y-81693878D01*
X152466063Y-81669359D01*
X152534880Y-81667797D01*
X152600303Y-81687239D01*
G36*
X151473115Y-81677962D02*
X151541145Y-81713733D01*
X151591351Y-81771301D01*
X151609185Y-81808312D01*
X151623063Y-81863882D01*
X151630167Y-81934096D01*
X151630840Y-82010727D01*
X151625427Y-82085552D01*
X151614270Y-82150342D01*
X151597714Y-82196873D01*
X151592626Y-82204887D01*
X151532355Y-82264707D01*
X151460769Y-82300535D01*
X151383092Y-82311020D01*
X151304548Y-82294810D01*
X151282689Y-82285092D01*
X151240122Y-82255143D01*
X151202763Y-82215433D01*
X151199232Y-82210397D01*
X151184881Y-82186124D01*
X151175394Y-82160178D01*
X151169790Y-82126022D01*
X151167086Y-82077119D01*
X151166299Y-82006935D01*
X151166286Y-81991200D01*
X151166322Y-81986192D01*
X151311429Y-81986192D01*
X151312273Y-82052430D01*
X151315596Y-82096386D01*
X151322583Y-82124779D01*
X151334416Y-82144325D01*
X151340457Y-82150857D01*
X151375186Y-82175680D01*
X151408903Y-82174548D01*
X151442995Y-82153016D01*
X151463329Y-82130029D01*
X151475371Y-82096478D01*
X151482134Y-82043569D01*
X151482598Y-82037399D01*
X151483752Y-81941513D01*
X151471688Y-81870299D01*
X151446570Y-81824194D01*
X151408560Y-81803635D01*
X151394992Y-81802514D01*
X151359364Y-81808152D01*
X151334994Y-81827686D01*
X151320093Y-81865042D01*
X151312875Y-81924150D01*
X151311429Y-81986192D01*
X151166322Y-81986192D01*
X151166826Y-81916413D01*
X151169096Y-81864159D01*
X151174068Y-81827949D01*
X151182713Y-81801299D01*
X151196005Y-81777722D01*
X151198943Y-81773338D01*
X151248313Y-81714249D01*
X151302109Y-81679947D01*
X151367602Y-81666331D01*
X151389842Y-81665665D01*
X151473115Y-81677962D01*
X151473115Y-81677962D01*
G37*
X151473115Y-81677962D02*
X151541145Y-81713733D01*
X151591351Y-81771301D01*
X151609185Y-81808312D01*
X151623063Y-81863882D01*
X151630167Y-81934096D01*
X151630840Y-82010727D01*
X151625427Y-82085552D01*
X151614270Y-82150342D01*
X151597714Y-82196873D01*
X151592626Y-82204887D01*
X151532355Y-82264707D01*
X151460769Y-82300535D01*
X151383092Y-82311020D01*
X151304548Y-82294810D01*
X151282689Y-82285092D01*
X151240122Y-82255143D01*
X151202763Y-82215433D01*
X151199232Y-82210397D01*
X151184881Y-82186124D01*
X151175394Y-82160178D01*
X151169790Y-82126022D01*
X151167086Y-82077119D01*
X151166299Y-82006935D01*
X151166286Y-81991200D01*
X151166322Y-81986192D01*
X151311429Y-81986192D01*
X151312273Y-82052430D01*
X151315596Y-82096386D01*
X151322583Y-82124779D01*
X151334416Y-82144325D01*
X151340457Y-82150857D01*
X151375186Y-82175680D01*
X151408903Y-82174548D01*
X151442995Y-82153016D01*
X151463329Y-82130029D01*
X151475371Y-82096478D01*
X151482134Y-82043569D01*
X151482598Y-82037399D01*
X151483752Y-81941513D01*
X151471688Y-81870299D01*
X151446570Y-81824194D01*
X151408560Y-81803635D01*
X151394992Y-81802514D01*
X151359364Y-81808152D01*
X151334994Y-81827686D01*
X151320093Y-81865042D01*
X151312875Y-81924150D01*
X151311429Y-81986192D01*
X151166322Y-81986192D01*
X151166826Y-81916413D01*
X151169096Y-81864159D01*
X151174068Y-81827949D01*
X151182713Y-81801299D01*
X151196005Y-81777722D01*
X151198943Y-81773338D01*
X151248313Y-81714249D01*
X151302109Y-81679947D01*
X151367602Y-81666331D01*
X151389842Y-81665665D01*
X151473115Y-81677962D01*
G36*
X153148093Y-81683780D02*
X153194672Y-81710723D01*
X153227057Y-81737466D01*
X153250742Y-81765484D01*
X153267059Y-81799748D01*
X153277339Y-81845227D01*
X153282914Y-81906892D01*
X153285116Y-81989711D01*
X153285371Y-82049246D01*
X153285371Y-82268391D01*
X153223686Y-82296044D01*
X153162000Y-82323697D01*
X153154743Y-82083670D01*
X153151744Y-81994028D01*
X153148598Y-81928962D01*
X153144701Y-81884026D01*
X153139447Y-81854770D01*
X153132231Y-81836748D01*
X153122450Y-81825511D01*
X153119312Y-81823079D01*
X153071761Y-81804083D01*
X153023697Y-81811600D01*
X152995086Y-81831543D01*
X152983447Y-81845675D01*
X152975391Y-81864220D01*
X152970271Y-81892334D01*
X152967441Y-81935173D01*
X152966256Y-81997895D01*
X152966057Y-82063261D01*
X152966018Y-82145268D01*
X152964614Y-82203316D01*
X152959914Y-82242465D01*
X152949987Y-82267780D01*
X152932903Y-82284323D01*
X152906732Y-82297156D01*
X152871775Y-82310491D01*
X152833596Y-82325007D01*
X152838141Y-82067389D01*
X152839971Y-81974519D01*
X152842112Y-81905889D01*
X152845181Y-81856711D01*
X152849794Y-81822198D01*
X152856568Y-81797562D01*
X152866119Y-81778016D01*
X152877634Y-81760770D01*
X152933190Y-81705680D01*
X153000980Y-81673822D01*
X153074713Y-81666191D01*
X153148093Y-81683780D01*
X153148093Y-81683780D01*
G37*
X153148093Y-81683780D02*
X153194672Y-81710723D01*
X153227057Y-81737466D01*
X153250742Y-81765484D01*
X153267059Y-81799748D01*
X153277339Y-81845227D01*
X153282914Y-81906892D01*
X153285116Y-81989711D01*
X153285371Y-82049246D01*
X153285371Y-82268391D01*
X153223686Y-82296044D01*
X153162000Y-82323697D01*
X153154743Y-82083670D01*
X153151744Y-81994028D01*
X153148598Y-81928962D01*
X153144701Y-81884026D01*
X153139447Y-81854770D01*
X153132231Y-81836748D01*
X153122450Y-81825511D01*
X153119312Y-81823079D01*
X153071761Y-81804083D01*
X153023697Y-81811600D01*
X152995086Y-81831543D01*
X152983447Y-81845675D01*
X152975391Y-81864220D01*
X152970271Y-81892334D01*
X152967441Y-81935173D01*
X152966256Y-81997895D01*
X152966057Y-82063261D01*
X152966018Y-82145268D01*
X152964614Y-82203316D01*
X152959914Y-82242465D01*
X152949987Y-82267780D01*
X152932903Y-82284323D01*
X152906732Y-82297156D01*
X152871775Y-82310491D01*
X152833596Y-82325007D01*
X152838141Y-82067389D01*
X152839971Y-81974519D01*
X152842112Y-81905889D01*
X152845181Y-81856711D01*
X152849794Y-81822198D01*
X152856568Y-81797562D01*
X152866119Y-81778016D01*
X152877634Y-81760770D01*
X152933190Y-81705680D01*
X153000980Y-81673822D01*
X153074713Y-81666191D01*
X153148093Y-81683780D01*
G36*
X152031744Y-81675918D02*
X152087201Y-81703568D01*
X152136148Y-81754480D01*
X152149629Y-81773338D01*
X152164314Y-81798015D01*
X152173842Y-81824816D01*
X152179293Y-81860587D01*
X152181747Y-81912169D01*
X152182286Y-81980267D01*
X152179852Y-82073588D01*
X152171394Y-82143657D01*
X152155174Y-82195931D01*
X152129454Y-82235869D01*
X152092497Y-82268929D01*
X152089782Y-82270886D01*
X152053360Y-82290908D01*
X152009502Y-82300815D01*
X151953724Y-82303257D01*
X151863048Y-82303257D01*
X151863010Y-82391283D01*
X151862166Y-82440308D01*
X151857024Y-82469065D01*
X151843587Y-82486311D01*
X151817858Y-82500808D01*
X151811679Y-82503769D01*
X151782764Y-82517648D01*
X151760376Y-82526414D01*
X151743729Y-82527171D01*
X151732036Y-82517023D01*
X151724510Y-82493073D01*
X151720366Y-82452426D01*
X151718815Y-82392186D01*
X151719071Y-82309455D01*
X151720349Y-82201339D01*
X151720748Y-82169000D01*
X151722185Y-82057524D01*
X151723472Y-81984603D01*
X151862971Y-81984603D01*
X151863755Y-82046499D01*
X151867240Y-82086997D01*
X151875124Y-82113708D01*
X151889105Y-82134244D01*
X151898597Y-82144260D01*
X151937404Y-82173567D01*
X151971763Y-82175952D01*
X152007216Y-82151750D01*
X152008114Y-82150857D01*
X152022539Y-82132153D01*
X152031313Y-82106732D01*
X152035739Y-82067584D01*
X152037118Y-82007697D01*
X152037143Y-81994430D01*
X152033812Y-81911901D01*
X152022969Y-81854691D01*
X152003340Y-81819766D01*
X151973650Y-81804094D01*
X151956491Y-81802514D01*
X151915766Y-81809926D01*
X151887832Y-81834330D01*
X151871017Y-81878980D01*
X151863650Y-81947130D01*
X151862971Y-81984603D01*
X151723472Y-81984603D01*
X151723708Y-81971245D01*
X151725677Y-81906333D01*
X151728450Y-81858958D01*
X151732388Y-81825290D01*
X151737849Y-81801498D01*
X151745192Y-81783753D01*
X151754777Y-81768224D01*
X151758887Y-81762381D01*
X151813405Y-81707185D01*
X151882336Y-81675890D01*
X151962072Y-81667165D01*
X152031744Y-81675918D01*
X152031744Y-81675918D01*
G37*
X152031744Y-81675918D02*
X152087201Y-81703568D01*
X152136148Y-81754480D01*
X152149629Y-81773338D01*
X152164314Y-81798015D01*
X152173842Y-81824816D01*
X152179293Y-81860587D01*
X152181747Y-81912169D01*
X152182286Y-81980267D01*
X152179852Y-82073588D01*
X152171394Y-82143657D01*
X152155174Y-82195931D01*
X152129454Y-82235869D01*
X152092497Y-82268929D01*
X152089782Y-82270886D01*
X152053360Y-82290908D01*
X152009502Y-82300815D01*
X151953724Y-82303257D01*
X151863048Y-82303257D01*
X151863010Y-82391283D01*
X151862166Y-82440308D01*
X151857024Y-82469065D01*
X151843587Y-82486311D01*
X151817858Y-82500808D01*
X151811679Y-82503769D01*
X151782764Y-82517648D01*
X151760376Y-82526414D01*
X151743729Y-82527171D01*
X151732036Y-82517023D01*
X151724510Y-82493073D01*
X151720366Y-82452426D01*
X151718815Y-82392186D01*
X151719071Y-82309455D01*
X151720349Y-82201339D01*
X151720748Y-82169000D01*
X151722185Y-82057524D01*
X151723472Y-81984603D01*
X151862971Y-81984603D01*
X151863755Y-82046499D01*
X151867240Y-82086997D01*
X151875124Y-82113708D01*
X151889105Y-82134244D01*
X151898597Y-82144260D01*
X151937404Y-82173567D01*
X151971763Y-82175952D01*
X152007216Y-82151750D01*
X152008114Y-82150857D01*
X152022539Y-82132153D01*
X152031313Y-82106732D01*
X152035739Y-82067584D01*
X152037118Y-82007697D01*
X152037143Y-81994430D01*
X152033812Y-81911901D01*
X152022969Y-81854691D01*
X152003340Y-81819766D01*
X151973650Y-81804094D01*
X151956491Y-81802514D01*
X151915766Y-81809926D01*
X151887832Y-81834330D01*
X151871017Y-81878980D01*
X151863650Y-81947130D01*
X151862971Y-81984603D01*
X151723472Y-81984603D01*
X151723708Y-81971245D01*
X151725677Y-81906333D01*
X151728450Y-81858958D01*
X151732388Y-81825290D01*
X151737849Y-81801498D01*
X151745192Y-81783753D01*
X151754777Y-81768224D01*
X151758887Y-81762381D01*
X151813405Y-81707185D01*
X151882336Y-81675890D01*
X151962072Y-81667165D01*
X152031744Y-81675918D01*
G04 #@! TO.C,C1*
D13*
X151741142Y-76620666D02*
X151788761Y-76668285D01*
X151836380Y-76811142D01*
X151836380Y-76906380D01*
X151788761Y-77049238D01*
X151693523Y-77144476D01*
X151598285Y-77192095D01*
X151407809Y-77239714D01*
X151264952Y-77239714D01*
X151074476Y-77192095D01*
X150979238Y-77144476D01*
X150884000Y-77049238D01*
X150836380Y-76906380D01*
X150836380Y-76811142D01*
X150884000Y-76668285D01*
X150931619Y-76620666D01*
X151836380Y-75668285D02*
X151836380Y-76239714D01*
X151836380Y-75954000D02*
X150836380Y-75954000D01*
X150979238Y-76049238D01*
X151074476Y-76144476D01*
X151122095Y-76239714D01*
G04 #@! TO.C,C2*
X138341833Y-74399142D02*
X138294214Y-74446761D01*
X138151357Y-74494380D01*
X138056119Y-74494380D01*
X137913261Y-74446761D01*
X137818023Y-74351523D01*
X137770404Y-74256285D01*
X137722785Y-74065809D01*
X137722785Y-73922952D01*
X137770404Y-73732476D01*
X137818023Y-73637238D01*
X137913261Y-73542000D01*
X138056119Y-73494380D01*
X138151357Y-73494380D01*
X138294214Y-73542000D01*
X138341833Y-73589619D01*
X138722785Y-73589619D02*
X138770404Y-73542000D01*
X138865642Y-73494380D01*
X139103738Y-73494380D01*
X139198976Y-73542000D01*
X139246595Y-73589619D01*
X139294214Y-73684857D01*
X139294214Y-73780095D01*
X139246595Y-73922952D01*
X138675166Y-74494380D01*
X139294214Y-74494380D01*
G04 #@! TO.C,C3*
X145550833Y-83669142D02*
X145503214Y-83716761D01*
X145360357Y-83764380D01*
X145265119Y-83764380D01*
X145122261Y-83716761D01*
X145027023Y-83621523D01*
X144979404Y-83526285D01*
X144931785Y-83335809D01*
X144931785Y-83192952D01*
X144979404Y-83002476D01*
X145027023Y-82907238D01*
X145122261Y-82812000D01*
X145265119Y-82764380D01*
X145360357Y-82764380D01*
X145503214Y-82812000D01*
X145550833Y-82859619D01*
X145884166Y-82764380D02*
X146503214Y-82764380D01*
X146169880Y-83145333D01*
X146312738Y-83145333D01*
X146407976Y-83192952D01*
X146455595Y-83240571D01*
X146503214Y-83335809D01*
X146503214Y-83573904D01*
X146455595Y-83669142D01*
X146407976Y-83716761D01*
X146312738Y-83764380D01*
X146027023Y-83764380D01*
X145931785Y-83716761D01*
X145884166Y-83669142D01*
G04 #@! TO.C,C4*
X147582833Y-89129142D02*
X147535214Y-89176761D01*
X147392357Y-89224380D01*
X147297119Y-89224380D01*
X147154261Y-89176761D01*
X147059023Y-89081523D01*
X147011404Y-88986285D01*
X146963785Y-88795809D01*
X146963785Y-88652952D01*
X147011404Y-88462476D01*
X147059023Y-88367238D01*
X147154261Y-88272000D01*
X147297119Y-88224380D01*
X147392357Y-88224380D01*
X147535214Y-88272000D01*
X147582833Y-88319619D01*
X148439976Y-88557714D02*
X148439976Y-89224380D01*
X148201880Y-88176761D02*
X147963785Y-88891047D01*
X148582833Y-88891047D01*
G04 #@! TO.C,L2*
X140914380Y-81446666D02*
X140914380Y-81922857D01*
X139914380Y-81922857D01*
X140009619Y-81160952D02*
X139962000Y-81113333D01*
X139914380Y-81018095D01*
X139914380Y-80780000D01*
X139962000Y-80684761D01*
X140009619Y-80637142D01*
X140104857Y-80589523D01*
X140200095Y-80589523D01*
X140342952Y-80637142D01*
X140914380Y-81208571D01*
X140914380Y-80589523D01*
G04 #@! TO.C,R1*
X140295333Y-72080380D02*
X139962000Y-71604190D01*
X139723904Y-72080380D02*
X139723904Y-71080380D01*
X140104857Y-71080380D01*
X140200095Y-71128000D01*
X140247714Y-71175619D01*
X140295333Y-71270857D01*
X140295333Y-71413714D01*
X140247714Y-71508952D01*
X140200095Y-71556571D01*
X140104857Y-71604190D01*
X139723904Y-71604190D01*
X141247714Y-72080380D02*
X140676285Y-72080380D01*
X140962000Y-72080380D02*
X140962000Y-71080380D01*
X140866761Y-71223238D01*
X140771523Y-71318476D01*
X140676285Y-71366095D01*
G04 #@! TO.C,R2*
X136850380Y-80430666D02*
X136374190Y-80764000D01*
X136850380Y-81002095D02*
X135850380Y-81002095D01*
X135850380Y-80621142D01*
X135898000Y-80525904D01*
X135945619Y-80478285D01*
X136040857Y-80430666D01*
X136183714Y-80430666D01*
X136278952Y-80478285D01*
X136326571Y-80525904D01*
X136374190Y-80621142D01*
X136374190Y-81002095D01*
X135945619Y-80049714D02*
X135898000Y-80002095D01*
X135850380Y-79906857D01*
X135850380Y-79668761D01*
X135898000Y-79573523D01*
X135945619Y-79525904D01*
X136040857Y-79478285D01*
X136136095Y-79478285D01*
X136278952Y-79525904D01*
X136850380Y-80097333D01*
X136850380Y-79478285D01*
G04 #@! TO.C,J1*
X132864266Y-91222580D02*
X132864266Y-91936866D01*
X132816647Y-92079723D01*
X132721409Y-92174961D01*
X132578552Y-92222580D01*
X132483314Y-92222580D01*
X133864266Y-92222580D02*
X133292838Y-92222580D01*
X133578552Y-92222580D02*
X133578552Y-91222580D01*
X133483314Y-91365438D01*
X133388076Y-91460676D01*
X133292838Y-91508295D01*
G04 #@! TO.C,J2*
X156220266Y-91222580D02*
X156220266Y-91936866D01*
X156172647Y-92079723D01*
X156077409Y-92174961D01*
X155934552Y-92222580D01*
X155839314Y-92222580D01*
X156648838Y-91317819D02*
X156696457Y-91270200D01*
X156791695Y-91222580D01*
X157029790Y-91222580D01*
X157125028Y-91270200D01*
X157172647Y-91317819D01*
X157220266Y-91413057D01*
X157220266Y-91508295D01*
X157172647Y-91651152D01*
X156601219Y-92222580D01*
X157220266Y-92222580D01*
G04 #@! TO.C,L1*
X144724380Y-76366666D02*
X144724380Y-76842857D01*
X143724380Y-76842857D01*
X144724380Y-75509523D02*
X144724380Y-76080952D01*
X144724380Y-75795238D02*
X143724380Y-75795238D01*
X143867238Y-75890476D01*
X143962476Y-75985714D01*
X144010095Y-76080952D01*
G04 #@! TO.C,L3*
X144122380Y-86501166D02*
X144122380Y-86977357D01*
X143122380Y-86977357D01*
X143122380Y-86263071D02*
X143122380Y-85644023D01*
X143503333Y-85977357D01*
X143503333Y-85834500D01*
X143550952Y-85739261D01*
X143598571Y-85691642D01*
X143693809Y-85644023D01*
X143931904Y-85644023D01*
X144027142Y-85691642D01*
X144074761Y-85739261D01*
X144122380Y-85834500D01*
X144122380Y-86120214D01*
X144074761Y-86215452D01*
X144027142Y-86263071D01*
G04 #@! TD*
M02*
