M48
;DRILL file {KiCad 5.0.1} date Sat 22 Dec 2018 04:12:10 PM CET
;FORMAT={-:-/ absolute / inch / decimal}
FMAT,2
INCH,TZ
T1C0.0120
%
G90
G05
M72
T1
X5.34Y-2.88
X5.34Y-2.96
X5.34Y-3.04
X5.36Y-3.32
X5.38Y-3.52
X5.42Y-3.32
X5.44Y-2.88
X5.46Y-3.52
X5.48Y-3.32
X5.54Y-3.32
X5.54Y-3.52
X5.62Y-3.52
X5.68Y-2.96
X5.68Y-3.04
X5.7Y-3.12
X5.7Y-3.52
X5.72Y-3.32
X5.76Y-3.12
X5.78Y-3.32
X5.78Y-3.52
X5.84Y-3.32
X5.86Y-3.52
X5.9Y-3.32
X5.94Y-3.52
X5.96Y-3.32
X6.Y-2.96
X6.02Y-3.32
X6.02Y-3.52
X6.08Y-2.96
X6.16Y-2.8
X6.16Y-2.88
X6.16Y-2.96
T0
M30
