G04 #@! TF.GenerationSoftware,KiCad,Pcbnew,5.0.1*
G04 #@! TF.CreationDate,2018-12-27T15:27:31+01:00*
G04 #@! TF.ProjectId,Filter4Ord,46696C746572344F72642E6B69636164,rev?*
G04 #@! TF.SameCoordinates,Original*
G04 #@! TF.FileFunction,Soldermask,Top*
G04 #@! TF.FilePolarity,Negative*
%FSLAX46Y46*%
G04 Gerber Fmt 4.6, Leading zero omitted, Abs format (unit mm)*
G04 Created by KiCad (PCBNEW 5.0.1) date Do 27 Dez 2018 15:27:31 CET*
%MOMM*%
%LPD*%
G01*
G04 APERTURE LIST*
%ADD10C,0.100000*%
G04 APERTURE END LIST*
D10*
G36*
X80277562Y-130014181D02*
X80312477Y-130024773D01*
X80344665Y-130041978D01*
X80372873Y-130065127D01*
X80396022Y-130093335D01*
X80413227Y-130125523D01*
X80423819Y-130160438D01*
X80428000Y-130202895D01*
X80428000Y-131344105D01*
X80423819Y-131386562D01*
X80413227Y-131421477D01*
X80396022Y-131453665D01*
X80372873Y-131481873D01*
X80344665Y-131505022D01*
X80312477Y-131522227D01*
X80277562Y-131532819D01*
X80235105Y-131537000D01*
X78768895Y-131537000D01*
X78726438Y-131532819D01*
X78691523Y-131522227D01*
X78659335Y-131505022D01*
X78631127Y-131481873D01*
X78607978Y-131453665D01*
X78590773Y-131421477D01*
X78580181Y-131386562D01*
X78576000Y-131344105D01*
X78576000Y-130202895D01*
X78580181Y-130160438D01*
X78590773Y-130125523D01*
X78607978Y-130093335D01*
X78631127Y-130065127D01*
X78659335Y-130041978D01*
X78691523Y-130024773D01*
X78726438Y-130014181D01*
X78768895Y-130010000D01*
X80235105Y-130010000D01*
X80277562Y-130014181D01*
X80277562Y-130014181D01*
G37*
G36*
X77229562Y-129977681D02*
X77264477Y-129988273D01*
X77296665Y-130005478D01*
X77324873Y-130028627D01*
X77348022Y-130056835D01*
X77365227Y-130089023D01*
X77375819Y-130123938D01*
X77380000Y-130166395D01*
X77380000Y-131307605D01*
X77375819Y-131350062D01*
X77365227Y-131384977D01*
X77348022Y-131417165D01*
X77324873Y-131445373D01*
X77296665Y-131468522D01*
X77264477Y-131485727D01*
X77229562Y-131496319D01*
X77187105Y-131500500D01*
X75720895Y-131500500D01*
X75678438Y-131496319D01*
X75643523Y-131485727D01*
X75611335Y-131468522D01*
X75583127Y-131445373D01*
X75559978Y-131417165D01*
X75542773Y-131384977D01*
X75532181Y-131350062D01*
X75528000Y-131307605D01*
X75528000Y-130166395D01*
X75532181Y-130123938D01*
X75542773Y-130089023D01*
X75559978Y-130056835D01*
X75583127Y-130028627D01*
X75611335Y-130005478D01*
X75643523Y-129988273D01*
X75678438Y-129977681D01*
X75720895Y-129973500D01*
X77187105Y-129973500D01*
X77229562Y-129977681D01*
X77229562Y-129977681D01*
G37*
G36*
X62497562Y-129977681D02*
X62532477Y-129988273D01*
X62564665Y-130005478D01*
X62592873Y-130028627D01*
X62616022Y-130056835D01*
X62633227Y-130089023D01*
X62643819Y-130123938D01*
X62648000Y-130166395D01*
X62648000Y-131307605D01*
X62643819Y-131350062D01*
X62633227Y-131384977D01*
X62616022Y-131417165D01*
X62592873Y-131445373D01*
X62564665Y-131468522D01*
X62532477Y-131485727D01*
X62497562Y-131496319D01*
X62455105Y-131500500D01*
X60988895Y-131500500D01*
X60946438Y-131496319D01*
X60911523Y-131485727D01*
X60879335Y-131468522D01*
X60851127Y-131445373D01*
X60827978Y-131417165D01*
X60810773Y-131384977D01*
X60800181Y-131350062D01*
X60796000Y-131307605D01*
X60796000Y-130166395D01*
X60800181Y-130123938D01*
X60810773Y-130089023D01*
X60827978Y-130056835D01*
X60851127Y-130028627D01*
X60879335Y-130005478D01*
X60911523Y-129988273D01*
X60946438Y-129977681D01*
X60988895Y-129973500D01*
X62455105Y-129973500D01*
X62497562Y-129977681D01*
X62497562Y-129977681D01*
G37*
G36*
X59449562Y-129977681D02*
X59484477Y-129988273D01*
X59516665Y-130005478D01*
X59544873Y-130028627D01*
X59568022Y-130056835D01*
X59585227Y-130089023D01*
X59595819Y-130123938D01*
X59600000Y-130166395D01*
X59600000Y-131307605D01*
X59595819Y-131350062D01*
X59585227Y-131384977D01*
X59568022Y-131417165D01*
X59544873Y-131445373D01*
X59516665Y-131468522D01*
X59484477Y-131485727D01*
X59449562Y-131496319D01*
X59407105Y-131500500D01*
X57940895Y-131500500D01*
X57898438Y-131496319D01*
X57863523Y-131485727D01*
X57831335Y-131468522D01*
X57803127Y-131445373D01*
X57779978Y-131417165D01*
X57762773Y-131384977D01*
X57752181Y-131350062D01*
X57748000Y-131307605D01*
X57748000Y-130166395D01*
X57752181Y-130123938D01*
X57762773Y-130089023D01*
X57779978Y-130056835D01*
X57803127Y-130028627D01*
X57831335Y-130005478D01*
X57863523Y-129988273D01*
X57898438Y-129977681D01*
X57940895Y-129973500D01*
X59407105Y-129973500D01*
X59449562Y-129977681D01*
X59449562Y-129977681D01*
G37*
G36*
X97587000Y-131115000D02*
X93421000Y-131115000D01*
X93421000Y-129489000D01*
X97587000Y-129489000D01*
X97587000Y-131115000D01*
X97587000Y-131115000D01*
G37*
G36*
X56185000Y-131115000D02*
X52019000Y-131115000D01*
X52019000Y-129489000D01*
X56185000Y-129489000D01*
X56185000Y-131115000D01*
X56185000Y-131115000D01*
G37*
G36*
X91472062Y-126840181D02*
X91506977Y-126850773D01*
X91539165Y-126867978D01*
X91567373Y-126891127D01*
X91590522Y-126919335D01*
X91607727Y-126951523D01*
X91618319Y-126986438D01*
X91622500Y-127028895D01*
X91622500Y-128495105D01*
X91618319Y-128537562D01*
X91607727Y-128572477D01*
X91590522Y-128604665D01*
X91567373Y-128632873D01*
X91539165Y-128656022D01*
X91506977Y-128673227D01*
X91472062Y-128683819D01*
X91429605Y-128688000D01*
X90288395Y-128688000D01*
X90245938Y-128683819D01*
X90211023Y-128673227D01*
X90178835Y-128656022D01*
X90150627Y-128632873D01*
X90127478Y-128604665D01*
X90110273Y-128572477D01*
X90099681Y-128537562D01*
X90095500Y-128495105D01*
X90095500Y-127028895D01*
X90099681Y-126986438D01*
X90110273Y-126951523D01*
X90127478Y-126919335D01*
X90150627Y-126891127D01*
X90178835Y-126867978D01*
X90211023Y-126850773D01*
X90245938Y-126840181D01*
X90288395Y-126836000D01*
X91429605Y-126836000D01*
X91472062Y-126840181D01*
X91472062Y-126840181D01*
G37*
G36*
X70971062Y-126840181D02*
X71005977Y-126850773D01*
X71038165Y-126867978D01*
X71066373Y-126891127D01*
X71089522Y-126919335D01*
X71106727Y-126951523D01*
X71117319Y-126986438D01*
X71121500Y-127028895D01*
X71121500Y-128495105D01*
X71117319Y-128537562D01*
X71106727Y-128572477D01*
X71089522Y-128604665D01*
X71066373Y-128632873D01*
X71038165Y-128656022D01*
X71005977Y-128673227D01*
X70971062Y-128683819D01*
X70928605Y-128688000D01*
X69787395Y-128688000D01*
X69744938Y-128683819D01*
X69710023Y-128673227D01*
X69677835Y-128656022D01*
X69649627Y-128632873D01*
X69626478Y-128604665D01*
X69609273Y-128572477D01*
X69598681Y-128537562D01*
X69594500Y-128495105D01*
X69594500Y-127028895D01*
X69598681Y-126986438D01*
X69609273Y-126951523D01*
X69626478Y-126919335D01*
X69649627Y-126891127D01*
X69677835Y-126867978D01*
X69710023Y-126850773D01*
X69744938Y-126840181D01*
X69787395Y-126836000D01*
X70928605Y-126836000D01*
X70971062Y-126840181D01*
X70971062Y-126840181D01*
G37*
G36*
X73946062Y-126840181D02*
X73980977Y-126850773D01*
X74013165Y-126867978D01*
X74041373Y-126891127D01*
X74064522Y-126919335D01*
X74081727Y-126951523D01*
X74092319Y-126986438D01*
X74096500Y-127028895D01*
X74096500Y-128495105D01*
X74092319Y-128537562D01*
X74081727Y-128572477D01*
X74064522Y-128604665D01*
X74041373Y-128632873D01*
X74013165Y-128656022D01*
X73980977Y-128673227D01*
X73946062Y-128683819D01*
X73903605Y-128688000D01*
X72762395Y-128688000D01*
X72719938Y-128683819D01*
X72685023Y-128673227D01*
X72652835Y-128656022D01*
X72624627Y-128632873D01*
X72601478Y-128604665D01*
X72584273Y-128572477D01*
X72573681Y-128537562D01*
X72569500Y-128495105D01*
X72569500Y-127028895D01*
X72573681Y-126986438D01*
X72584273Y-126951523D01*
X72601478Y-126919335D01*
X72624627Y-126891127D01*
X72652835Y-126867978D01*
X72685023Y-126850773D01*
X72719938Y-126840181D01*
X72762395Y-126836000D01*
X73903605Y-126836000D01*
X73946062Y-126840181D01*
X73946062Y-126840181D01*
G37*
G36*
X68612062Y-126840181D02*
X68646977Y-126850773D01*
X68679165Y-126867978D01*
X68707373Y-126891127D01*
X68730522Y-126919335D01*
X68747727Y-126951523D01*
X68758319Y-126986438D01*
X68762500Y-127028895D01*
X68762500Y-128495105D01*
X68758319Y-128537562D01*
X68747727Y-128572477D01*
X68730522Y-128604665D01*
X68707373Y-128632873D01*
X68679165Y-128656022D01*
X68646977Y-128673227D01*
X68612062Y-128683819D01*
X68569605Y-128688000D01*
X67428395Y-128688000D01*
X67385938Y-128683819D01*
X67351023Y-128673227D01*
X67318835Y-128656022D01*
X67290627Y-128632873D01*
X67267478Y-128604665D01*
X67250273Y-128572477D01*
X67239681Y-128537562D01*
X67235500Y-128495105D01*
X67235500Y-127028895D01*
X67239681Y-126986438D01*
X67250273Y-126951523D01*
X67267478Y-126919335D01*
X67290627Y-126891127D01*
X67318835Y-126867978D01*
X67351023Y-126850773D01*
X67385938Y-126840181D01*
X67428395Y-126836000D01*
X68569605Y-126836000D01*
X68612062Y-126840181D01*
X68612062Y-126840181D01*
G37*
G36*
X65637062Y-126840181D02*
X65671977Y-126850773D01*
X65704165Y-126867978D01*
X65732373Y-126891127D01*
X65755522Y-126919335D01*
X65772727Y-126951523D01*
X65783319Y-126986438D01*
X65787500Y-127028895D01*
X65787500Y-128495105D01*
X65783319Y-128537562D01*
X65772727Y-128572477D01*
X65755522Y-128604665D01*
X65732373Y-128632873D01*
X65704165Y-128656022D01*
X65671977Y-128673227D01*
X65637062Y-128683819D01*
X65594605Y-128688000D01*
X64453395Y-128688000D01*
X64410938Y-128683819D01*
X64376023Y-128673227D01*
X64343835Y-128656022D01*
X64315627Y-128632873D01*
X64292478Y-128604665D01*
X64275273Y-128572477D01*
X64264681Y-128537562D01*
X64260500Y-128495105D01*
X64260500Y-127028895D01*
X64264681Y-126986438D01*
X64275273Y-126951523D01*
X64292478Y-126919335D01*
X64315627Y-126891127D01*
X64343835Y-126867978D01*
X64376023Y-126850773D01*
X64410938Y-126840181D01*
X64453395Y-126836000D01*
X65594605Y-126836000D01*
X65637062Y-126840181D01*
X65637062Y-126840181D01*
G37*
G36*
X86138062Y-126840181D02*
X86172977Y-126850773D01*
X86205165Y-126867978D01*
X86233373Y-126891127D01*
X86256522Y-126919335D01*
X86273727Y-126951523D01*
X86284319Y-126986438D01*
X86288500Y-127028895D01*
X86288500Y-128495105D01*
X86284319Y-128537562D01*
X86273727Y-128572477D01*
X86256522Y-128604665D01*
X86233373Y-128632873D01*
X86205165Y-128656022D01*
X86172977Y-128673227D01*
X86138062Y-128683819D01*
X86095605Y-128688000D01*
X84954395Y-128688000D01*
X84911938Y-128683819D01*
X84877023Y-128673227D01*
X84844835Y-128656022D01*
X84816627Y-128632873D01*
X84793478Y-128604665D01*
X84776273Y-128572477D01*
X84765681Y-128537562D01*
X84761500Y-128495105D01*
X84761500Y-127028895D01*
X84765681Y-126986438D01*
X84776273Y-126951523D01*
X84793478Y-126919335D01*
X84816627Y-126891127D01*
X84844835Y-126867978D01*
X84877023Y-126850773D01*
X84911938Y-126840181D01*
X84954395Y-126836000D01*
X86095605Y-126836000D01*
X86138062Y-126840181D01*
X86138062Y-126840181D01*
G37*
G36*
X83163062Y-126840181D02*
X83197977Y-126850773D01*
X83230165Y-126867978D01*
X83258373Y-126891127D01*
X83281522Y-126919335D01*
X83298727Y-126951523D01*
X83309319Y-126986438D01*
X83313500Y-127028895D01*
X83313500Y-128495105D01*
X83309319Y-128537562D01*
X83298727Y-128572477D01*
X83281522Y-128604665D01*
X83258373Y-128632873D01*
X83230165Y-128656022D01*
X83197977Y-128673227D01*
X83163062Y-128683819D01*
X83120605Y-128688000D01*
X81979395Y-128688000D01*
X81936938Y-128683819D01*
X81902023Y-128673227D01*
X81869835Y-128656022D01*
X81841627Y-128632873D01*
X81818478Y-128604665D01*
X81801273Y-128572477D01*
X81790681Y-128537562D01*
X81786500Y-128495105D01*
X81786500Y-127028895D01*
X81790681Y-126986438D01*
X81801273Y-126951523D01*
X81818478Y-126919335D01*
X81841627Y-126891127D01*
X81869835Y-126867978D01*
X81902023Y-126850773D01*
X81936938Y-126840181D01*
X81979395Y-126836000D01*
X83120605Y-126836000D01*
X83163062Y-126840181D01*
X83163062Y-126840181D01*
G37*
G36*
X88497062Y-126840181D02*
X88531977Y-126850773D01*
X88564165Y-126867978D01*
X88592373Y-126891127D01*
X88615522Y-126919335D01*
X88632727Y-126951523D01*
X88643319Y-126986438D01*
X88647500Y-127028895D01*
X88647500Y-128495105D01*
X88643319Y-128537562D01*
X88632727Y-128572477D01*
X88615522Y-128604665D01*
X88592373Y-128632873D01*
X88564165Y-128656022D01*
X88531977Y-128673227D01*
X88497062Y-128683819D01*
X88454605Y-128688000D01*
X87313395Y-128688000D01*
X87270938Y-128683819D01*
X87236023Y-128673227D01*
X87203835Y-128656022D01*
X87175627Y-128632873D01*
X87152478Y-128604665D01*
X87135273Y-128572477D01*
X87124681Y-128537562D01*
X87120500Y-128495105D01*
X87120500Y-127028895D01*
X87124681Y-126986438D01*
X87135273Y-126951523D01*
X87152478Y-126919335D01*
X87175627Y-126891127D01*
X87203835Y-126867978D01*
X87236023Y-126850773D01*
X87270938Y-126840181D01*
X87313395Y-126836000D01*
X88454605Y-126836000D01*
X88497062Y-126840181D01*
X88497062Y-126840181D01*
G37*
G36*
X56185000Y-128575000D02*
X52019000Y-128575000D01*
X52019000Y-126949000D01*
X56185000Y-126949000D01*
X56185000Y-128575000D01*
X56185000Y-128575000D01*
G37*
G36*
X97587000Y-128575000D02*
X93421000Y-128575000D01*
X93421000Y-126949000D01*
X97587000Y-126949000D01*
X97587000Y-128575000D01*
X97587000Y-128575000D01*
G37*
G36*
X80277562Y-127039181D02*
X80312477Y-127049773D01*
X80344665Y-127066978D01*
X80372873Y-127090127D01*
X80396022Y-127118335D01*
X80413227Y-127150523D01*
X80423819Y-127185438D01*
X80428000Y-127227895D01*
X80428000Y-128369105D01*
X80423819Y-128411562D01*
X80413227Y-128446477D01*
X80396022Y-128478665D01*
X80372873Y-128506873D01*
X80344665Y-128530022D01*
X80312477Y-128547227D01*
X80277562Y-128557819D01*
X80235105Y-128562000D01*
X78768895Y-128562000D01*
X78726438Y-128557819D01*
X78691523Y-128547227D01*
X78659335Y-128530022D01*
X78631127Y-128506873D01*
X78607978Y-128478665D01*
X78590773Y-128446477D01*
X78580181Y-128411562D01*
X78576000Y-128369105D01*
X78576000Y-127227895D01*
X78580181Y-127185438D01*
X78590773Y-127150523D01*
X78607978Y-127118335D01*
X78631127Y-127090127D01*
X78659335Y-127066978D01*
X78691523Y-127049773D01*
X78726438Y-127039181D01*
X78768895Y-127035000D01*
X80235105Y-127035000D01*
X80277562Y-127039181D01*
X80277562Y-127039181D01*
G37*
G36*
X62497562Y-127002681D02*
X62532477Y-127013273D01*
X62564665Y-127030478D01*
X62592873Y-127053627D01*
X62616022Y-127081835D01*
X62633227Y-127114023D01*
X62643819Y-127148938D01*
X62648000Y-127191395D01*
X62648000Y-128332605D01*
X62643819Y-128375062D01*
X62633227Y-128409977D01*
X62616022Y-128442165D01*
X62592873Y-128470373D01*
X62564665Y-128493522D01*
X62532477Y-128510727D01*
X62497562Y-128521319D01*
X62455105Y-128525500D01*
X60988895Y-128525500D01*
X60946438Y-128521319D01*
X60911523Y-128510727D01*
X60879335Y-128493522D01*
X60851127Y-128470373D01*
X60827978Y-128442165D01*
X60810773Y-128409977D01*
X60800181Y-128375062D01*
X60796000Y-128332605D01*
X60796000Y-127191395D01*
X60800181Y-127148938D01*
X60810773Y-127114023D01*
X60827978Y-127081835D01*
X60851127Y-127053627D01*
X60879335Y-127030478D01*
X60911523Y-127013273D01*
X60946438Y-127002681D01*
X60988895Y-126998500D01*
X62455105Y-126998500D01*
X62497562Y-127002681D01*
X62497562Y-127002681D01*
G37*
G36*
X59449562Y-127002681D02*
X59484477Y-127013273D01*
X59516665Y-127030478D01*
X59544873Y-127053627D01*
X59568022Y-127081835D01*
X59585227Y-127114023D01*
X59595819Y-127148938D01*
X59600000Y-127191395D01*
X59600000Y-128332605D01*
X59595819Y-128375062D01*
X59585227Y-128409977D01*
X59568022Y-128442165D01*
X59544873Y-128470373D01*
X59516665Y-128493522D01*
X59484477Y-128510727D01*
X59449562Y-128521319D01*
X59407105Y-128525500D01*
X57940895Y-128525500D01*
X57898438Y-128521319D01*
X57863523Y-128510727D01*
X57831335Y-128493522D01*
X57803127Y-128470373D01*
X57779978Y-128442165D01*
X57762773Y-128409977D01*
X57752181Y-128375062D01*
X57748000Y-128332605D01*
X57748000Y-127191395D01*
X57752181Y-127148938D01*
X57762773Y-127114023D01*
X57779978Y-127081835D01*
X57803127Y-127053627D01*
X57831335Y-127030478D01*
X57863523Y-127013273D01*
X57898438Y-127002681D01*
X57940895Y-126998500D01*
X59407105Y-126998500D01*
X59449562Y-127002681D01*
X59449562Y-127002681D01*
G37*
G36*
X77229562Y-127002681D02*
X77264477Y-127013273D01*
X77296665Y-127030478D01*
X77324873Y-127053627D01*
X77348022Y-127081835D01*
X77365227Y-127114023D01*
X77375819Y-127148938D01*
X77380000Y-127191395D01*
X77380000Y-128332605D01*
X77375819Y-128375062D01*
X77365227Y-128409977D01*
X77348022Y-128442165D01*
X77324873Y-128470373D01*
X77296665Y-128493522D01*
X77264477Y-128510727D01*
X77229562Y-128521319D01*
X77187105Y-128525500D01*
X75720895Y-128525500D01*
X75678438Y-128521319D01*
X75643523Y-128510727D01*
X75611335Y-128493522D01*
X75583127Y-128470373D01*
X75559978Y-128442165D01*
X75542773Y-128409977D01*
X75532181Y-128375062D01*
X75528000Y-128332605D01*
X75528000Y-127191395D01*
X75532181Y-127148938D01*
X75542773Y-127114023D01*
X75559978Y-127081835D01*
X75583127Y-127053627D01*
X75611335Y-127030478D01*
X75643523Y-127013273D01*
X75678438Y-127002681D01*
X75720895Y-126998500D01*
X77187105Y-126998500D01*
X77229562Y-127002681D01*
X77229562Y-127002681D01*
G37*
G36*
X56185000Y-126035000D02*
X52019000Y-126035000D01*
X52019000Y-124409000D01*
X56185000Y-124409000D01*
X56185000Y-126035000D01*
X56185000Y-126035000D01*
G37*
G36*
X97587000Y-126035000D02*
X93421000Y-126035000D01*
X93421000Y-124409000D01*
X97587000Y-124409000D01*
X97587000Y-126035000D01*
X97587000Y-126035000D01*
G37*
M02*
