G04 #@! TF.GenerationSoftware,KiCad,Pcbnew,5.0.1*
G04 #@! TF.CreationDate,2018-12-27T15:27:31+01:00*
G04 #@! TF.ProjectId,Filter4Ord,46696C746572344F72642E6B69636164,rev?*
G04 #@! TF.SameCoordinates,Original*
G04 #@! TF.FileFunction,Legend,Top*
G04 #@! TF.FilePolarity,Positive*
%FSLAX46Y46*%
G04 Gerber Fmt 4.6, Leading zero omitted, Abs format (unit mm)*
G04 Created by KiCad (PCBNEW 5.0.1) date Do 27 Dez 2018 15:27:31 CET*
%MOMM*%
%LPD*%
G01*
G04 APERTURE LIST*
%ADD10C,1.500000*%
%ADD11C,0.120000*%
%ADD12C,0.150000*%
G04 APERTURE END LIST*
D10*
X64135000Y-131445000D02*
X73660000Y-131445000D01*
D11*
G04 #@! TO.C,C1*
X59584000Y-128647436D02*
X59584000Y-129851564D01*
X57764000Y-128647436D02*
X57764000Y-129851564D01*
G04 #@! TO.C,C2*
X65909436Y-128672000D02*
X67113564Y-128672000D01*
X65909436Y-126852000D02*
X67113564Y-126852000D01*
G04 #@! TO.C,C3*
X80412000Y-128683936D02*
X80412000Y-129888064D01*
X78592000Y-128683936D02*
X78592000Y-129888064D01*
G04 #@! TO.C,C4*
X83435436Y-128672000D02*
X84639564Y-128672000D01*
X83435436Y-126852000D02*
X84639564Y-126852000D01*
G04 #@! TO.C,L1*
X62632000Y-128647436D02*
X62632000Y-129851564D01*
X60812000Y-128647436D02*
X60812000Y-129851564D01*
G04 #@! TO.C,L2*
X71243436Y-128672000D02*
X72447564Y-128672000D01*
X71243436Y-126852000D02*
X72447564Y-126852000D01*
G04 #@! TO.C,L3*
X77364000Y-128647436D02*
X77364000Y-129851564D01*
X75544000Y-128647436D02*
X75544000Y-129851564D01*
G04 #@! TO.C,L4*
X88769436Y-128672000D02*
X89973564Y-128672000D01*
X88769436Y-126852000D02*
X89973564Y-126852000D01*
G04 #@! TO.C,C1*
D12*
X58253333Y-126087142D02*
X58205714Y-126134761D01*
X58062857Y-126182380D01*
X57967619Y-126182380D01*
X57824761Y-126134761D01*
X57729523Y-126039523D01*
X57681904Y-125944285D01*
X57634285Y-125753809D01*
X57634285Y-125610952D01*
X57681904Y-125420476D01*
X57729523Y-125325238D01*
X57824761Y-125230000D01*
X57967619Y-125182380D01*
X58062857Y-125182380D01*
X58205714Y-125230000D01*
X58253333Y-125277619D01*
X59205714Y-126182380D02*
X58634285Y-126182380D01*
X58920000Y-126182380D02*
X58920000Y-125182380D01*
X58824761Y-125325238D01*
X58729523Y-125420476D01*
X58634285Y-125468095D01*
G04 #@! TO.C,C2*
X66344833Y-126087142D02*
X66297214Y-126134761D01*
X66154357Y-126182380D01*
X66059119Y-126182380D01*
X65916261Y-126134761D01*
X65821023Y-126039523D01*
X65773404Y-125944285D01*
X65725785Y-125753809D01*
X65725785Y-125610952D01*
X65773404Y-125420476D01*
X65821023Y-125325238D01*
X65916261Y-125230000D01*
X66059119Y-125182380D01*
X66154357Y-125182380D01*
X66297214Y-125230000D01*
X66344833Y-125277619D01*
X66725785Y-125277619D02*
X66773404Y-125230000D01*
X66868642Y-125182380D01*
X67106738Y-125182380D01*
X67201976Y-125230000D01*
X67249595Y-125277619D01*
X67297214Y-125372857D01*
X67297214Y-125468095D01*
X67249595Y-125610952D01*
X66678166Y-126182380D01*
X67297214Y-126182380D01*
G04 #@! TO.C,C3*
X79208333Y-126087142D02*
X79160714Y-126134761D01*
X79017857Y-126182380D01*
X78922619Y-126182380D01*
X78779761Y-126134761D01*
X78684523Y-126039523D01*
X78636904Y-125944285D01*
X78589285Y-125753809D01*
X78589285Y-125610952D01*
X78636904Y-125420476D01*
X78684523Y-125325238D01*
X78779761Y-125230000D01*
X78922619Y-125182380D01*
X79017857Y-125182380D01*
X79160714Y-125230000D01*
X79208333Y-125277619D01*
X79541666Y-125182380D02*
X80160714Y-125182380D01*
X79827380Y-125563333D01*
X79970238Y-125563333D01*
X80065476Y-125610952D01*
X80113095Y-125658571D01*
X80160714Y-125753809D01*
X80160714Y-125991904D01*
X80113095Y-126087142D01*
X80065476Y-126134761D01*
X79970238Y-126182380D01*
X79684523Y-126182380D01*
X79589285Y-126134761D01*
X79541666Y-126087142D01*
G04 #@! TO.C,C4*
X83870833Y-126087142D02*
X83823214Y-126134761D01*
X83680357Y-126182380D01*
X83585119Y-126182380D01*
X83442261Y-126134761D01*
X83347023Y-126039523D01*
X83299404Y-125944285D01*
X83251785Y-125753809D01*
X83251785Y-125610952D01*
X83299404Y-125420476D01*
X83347023Y-125325238D01*
X83442261Y-125230000D01*
X83585119Y-125182380D01*
X83680357Y-125182380D01*
X83823214Y-125230000D01*
X83870833Y-125277619D01*
X84727976Y-125515714D02*
X84727976Y-126182380D01*
X84489880Y-125134761D02*
X84251785Y-125849047D01*
X84870833Y-125849047D01*
G04 #@! TO.C,L1*
X61428333Y-126182380D02*
X60952142Y-126182380D01*
X60952142Y-125182380D01*
X62285476Y-126182380D02*
X61714047Y-126182380D01*
X61999761Y-126182380D02*
X61999761Y-125182380D01*
X61904523Y-125325238D01*
X61809285Y-125420476D01*
X61714047Y-125468095D01*
G04 #@! TO.C,L2*
X71678833Y-126182380D02*
X71202642Y-126182380D01*
X71202642Y-125182380D01*
X71964547Y-125277619D02*
X72012166Y-125230000D01*
X72107404Y-125182380D01*
X72345500Y-125182380D01*
X72440738Y-125230000D01*
X72488357Y-125277619D01*
X72535976Y-125372857D01*
X72535976Y-125468095D01*
X72488357Y-125610952D01*
X71916928Y-126182380D01*
X72535976Y-126182380D01*
G04 #@! TO.C,L3*
X76033333Y-126182380D02*
X75557142Y-126182380D01*
X75557142Y-125182380D01*
X76271428Y-125182380D02*
X76890476Y-125182380D01*
X76557142Y-125563333D01*
X76700000Y-125563333D01*
X76795238Y-125610952D01*
X76842857Y-125658571D01*
X76890476Y-125753809D01*
X76890476Y-125991904D01*
X76842857Y-126087142D01*
X76795238Y-126134761D01*
X76700000Y-126182380D01*
X76414285Y-126182380D01*
X76319047Y-126134761D01*
X76271428Y-126087142D01*
G04 #@! TO.C,L4*
X89204833Y-126182380D02*
X88728642Y-126182380D01*
X88728642Y-125182380D01*
X89966738Y-125515714D02*
X89966738Y-126182380D01*
X89728642Y-125134761D02*
X89490547Y-125849047D01*
X90109595Y-125849047D01*
G04 #@! TD*
M02*
