M48
;DRILL file {KiCad 5.0.1} date Do 27 Dez 2018 15:27:34 CET
;FORMAT={-:-/ absolute / inch / decimal}
FMAT,2
INCH,TZ
T1C0.0120
%
G90
G05
M72
T1
X2.25Y-4.925
X2.3Y-4.925
X2.35Y-4.925
X2.4Y-4.925
X2.45Y-4.925
X2.5Y-4.925
X2.525Y-5.125
X2.55Y-4.925
X2.575Y-5.125
X2.6Y-4.925
X2.625Y-5.125
X2.65Y-4.925
X2.675Y-5.125
X2.7Y-4.925
X2.725Y-5.125
X2.75Y-4.925
X2.775Y-5.125
X2.8Y-4.925
X2.825Y-5.125
X2.85Y-4.925
X2.875Y-5.125
X2.9Y-4.925
X2.925Y-5.125
X2.95Y-4.925
X3.Y-4.925
X3.05Y-4.925
X3.1Y-4.925
X3.15Y-4.925
X3.2Y-4.925
X3.225Y-5.125
X3.25Y-4.925
X3.275Y-5.125
X3.3Y-4.925
X3.325Y-5.125
X3.35Y-4.925
X3.375Y-5.125
X3.4Y-4.925
X3.425Y-5.125
X3.45Y-4.925
X3.475Y-5.125
X3.5Y-4.925
X3.525Y-5.125
X3.55Y-4.925
X3.575Y-5.125
X3.6Y-4.925
X3.625Y-5.125
X3.65Y-4.925
T0
M30
