G04 #@! TF.GenerationSoftware,KiCad,Pcbnew,5.0.1*
G04 #@! TF.CreationDate,2018-12-27T15:12:00+01:00*
G04 #@! TF.ProjectId,6dBSplitter,36644253706C69747465722E6B696361,rev?*
G04 #@! TF.SameCoordinates,Original*
G04 #@! TF.FileFunction,Soldermask,Top*
G04 #@! TF.FilePolarity,Negative*
%FSLAX46Y46*%
G04 Gerber Fmt 4.6, Leading zero omitted, Abs format (unit mm)*
G04 Created by KiCad (PCBNEW 5.0.1) date Do 27 Dez 2018 15:12:00 CET*
%MOMM*%
%LPD*%
G01*
G04 APERTURE LIST*
%ADD10C,0.100000*%
G04 APERTURE END LIST*
D10*
G36*
X130988000Y-105588000D02*
X126822000Y-105588000D01*
X126822000Y-103962000D01*
X130988000Y-103962000D01*
X130988000Y-105588000D01*
X130988000Y-105588000D01*
G37*
G36*
X130988000Y-103048000D02*
X126822000Y-103048000D01*
X126822000Y-101422000D01*
X130988000Y-101422000D01*
X130988000Y-103048000D01*
X130988000Y-103048000D01*
G37*
G36*
X125235562Y-101275681D02*
X125270477Y-101286273D01*
X125302665Y-101303478D01*
X125330873Y-101326627D01*
X125354022Y-101354835D01*
X125371227Y-101387023D01*
X125381819Y-101421938D01*
X125386000Y-101464395D01*
X125386000Y-102605605D01*
X125381819Y-102648062D01*
X125371227Y-102682977D01*
X125354022Y-102715165D01*
X125330873Y-102743373D01*
X125302665Y-102766522D01*
X125270477Y-102783727D01*
X125235562Y-102794319D01*
X125193105Y-102798500D01*
X123726895Y-102798500D01*
X123684438Y-102794319D01*
X123649523Y-102783727D01*
X123617335Y-102766522D01*
X123589127Y-102743373D01*
X123565978Y-102715165D01*
X123548773Y-102682977D01*
X123538181Y-102648062D01*
X123534000Y-102605605D01*
X123534000Y-101464395D01*
X123538181Y-101421938D01*
X123548773Y-101387023D01*
X123565978Y-101354835D01*
X123589127Y-101326627D01*
X123617335Y-101303478D01*
X123649523Y-101286273D01*
X123684438Y-101275681D01*
X123726895Y-101271500D01*
X125193105Y-101271500D01*
X125235562Y-101275681D01*
X125235562Y-101275681D01*
G37*
G36*
X116383000Y-100635000D02*
X112217000Y-100635000D01*
X112217000Y-99009000D01*
X116383000Y-99009000D01*
X116383000Y-100635000D01*
X116383000Y-100635000D01*
G37*
G36*
X130988000Y-100508000D02*
X126822000Y-100508000D01*
X126822000Y-98882000D01*
X130988000Y-98882000D01*
X130988000Y-100508000D01*
X130988000Y-100508000D01*
G37*
G36*
X125235562Y-98300681D02*
X125270477Y-98311273D01*
X125302665Y-98328478D01*
X125330873Y-98351627D01*
X125354022Y-98379835D01*
X125371227Y-98412023D01*
X125381819Y-98446938D01*
X125386000Y-98489395D01*
X125386000Y-99630605D01*
X125381819Y-99673062D01*
X125371227Y-99707977D01*
X125354022Y-99740165D01*
X125330873Y-99768373D01*
X125302665Y-99791522D01*
X125270477Y-99808727D01*
X125235562Y-99819319D01*
X125193105Y-99823500D01*
X123726895Y-99823500D01*
X123684438Y-99819319D01*
X123649523Y-99808727D01*
X123617335Y-99791522D01*
X123589127Y-99768373D01*
X123565978Y-99740165D01*
X123548773Y-99707977D01*
X123538181Y-99673062D01*
X123534000Y-99630605D01*
X123534000Y-98489395D01*
X123538181Y-98446938D01*
X123548773Y-98412023D01*
X123565978Y-98379835D01*
X123589127Y-98351627D01*
X123617335Y-98328478D01*
X123649523Y-98311273D01*
X123684438Y-98300681D01*
X123726895Y-98296500D01*
X125193105Y-98296500D01*
X125235562Y-98300681D01*
X125235562Y-98300681D01*
G37*
G36*
X116383000Y-98095000D02*
X112217000Y-98095000D01*
X112217000Y-96469000D01*
X116383000Y-96469000D01*
X116383000Y-98095000D01*
X116383000Y-98095000D01*
G37*
G36*
X119358062Y-96233181D02*
X119392977Y-96243773D01*
X119425165Y-96260978D01*
X119453373Y-96284127D01*
X119476522Y-96312335D01*
X119493727Y-96344523D01*
X119504319Y-96379438D01*
X119508500Y-96421895D01*
X119508500Y-97888105D01*
X119504319Y-97930562D01*
X119493727Y-97965477D01*
X119476522Y-97997665D01*
X119453373Y-98025873D01*
X119425165Y-98049022D01*
X119392977Y-98066227D01*
X119358062Y-98076819D01*
X119315605Y-98081000D01*
X118174395Y-98081000D01*
X118131938Y-98076819D01*
X118097023Y-98066227D01*
X118064835Y-98049022D01*
X118036627Y-98025873D01*
X118013478Y-97997665D01*
X117996273Y-97965477D01*
X117985681Y-97930562D01*
X117981500Y-97888105D01*
X117981500Y-96421895D01*
X117985681Y-96379438D01*
X117996273Y-96344523D01*
X118013478Y-96312335D01*
X118036627Y-96284127D01*
X118064835Y-96260978D01*
X118097023Y-96243773D01*
X118131938Y-96233181D01*
X118174395Y-96229000D01*
X119315605Y-96229000D01*
X119358062Y-96233181D01*
X119358062Y-96233181D01*
G37*
G36*
X122333062Y-96233181D02*
X122367977Y-96243773D01*
X122400165Y-96260978D01*
X122428373Y-96284127D01*
X122451522Y-96312335D01*
X122468727Y-96344523D01*
X122479319Y-96379438D01*
X122483500Y-96421895D01*
X122483500Y-97888105D01*
X122479319Y-97930562D01*
X122468727Y-97965477D01*
X122451522Y-97997665D01*
X122428373Y-98025873D01*
X122400165Y-98049022D01*
X122367977Y-98066227D01*
X122333062Y-98076819D01*
X122290605Y-98081000D01*
X121149395Y-98081000D01*
X121106938Y-98076819D01*
X121072023Y-98066227D01*
X121039835Y-98049022D01*
X121011627Y-98025873D01*
X120988478Y-97997665D01*
X120971273Y-97965477D01*
X120960681Y-97930562D01*
X120956500Y-97888105D01*
X120956500Y-96421895D01*
X120960681Y-96379438D01*
X120971273Y-96344523D01*
X120988478Y-96312335D01*
X121011627Y-96284127D01*
X121039835Y-96260978D01*
X121072023Y-96243773D01*
X121106938Y-96233181D01*
X121149395Y-96229000D01*
X122290605Y-96229000D01*
X122333062Y-96233181D01*
X122333062Y-96233181D01*
G37*
G36*
X125235562Y-95125681D02*
X125270477Y-95136273D01*
X125302665Y-95153478D01*
X125330873Y-95176627D01*
X125354022Y-95204835D01*
X125371227Y-95237023D01*
X125381819Y-95271938D01*
X125386000Y-95314395D01*
X125386000Y-96455605D01*
X125381819Y-96498062D01*
X125371227Y-96532977D01*
X125354022Y-96565165D01*
X125330873Y-96593373D01*
X125302665Y-96616522D01*
X125270477Y-96633727D01*
X125235562Y-96644319D01*
X125193105Y-96648500D01*
X123726895Y-96648500D01*
X123684438Y-96644319D01*
X123649523Y-96633727D01*
X123617335Y-96616522D01*
X123589127Y-96593373D01*
X123565978Y-96565165D01*
X123548773Y-96532977D01*
X123538181Y-96498062D01*
X123534000Y-96455605D01*
X123534000Y-95314395D01*
X123538181Y-95271938D01*
X123548773Y-95237023D01*
X123565978Y-95204835D01*
X123589127Y-95176627D01*
X123617335Y-95153478D01*
X123649523Y-95136273D01*
X123684438Y-95125681D01*
X123726895Y-95121500D01*
X125193105Y-95121500D01*
X125235562Y-95125681D01*
X125235562Y-95125681D01*
G37*
G36*
X130988000Y-96063000D02*
X126822000Y-96063000D01*
X126822000Y-94437000D01*
X130988000Y-94437000D01*
X130988000Y-96063000D01*
X130988000Y-96063000D01*
G37*
G36*
X116383000Y-95555000D02*
X112217000Y-95555000D01*
X112217000Y-93929000D01*
X116383000Y-93929000D01*
X116383000Y-95555000D01*
X116383000Y-95555000D01*
G37*
G36*
X125235562Y-92150681D02*
X125270477Y-92161273D01*
X125302665Y-92178478D01*
X125330873Y-92201627D01*
X125354022Y-92229835D01*
X125371227Y-92262023D01*
X125381819Y-92296938D01*
X125386000Y-92339395D01*
X125386000Y-93480605D01*
X125381819Y-93523062D01*
X125371227Y-93557977D01*
X125354022Y-93590165D01*
X125330873Y-93618373D01*
X125302665Y-93641522D01*
X125270477Y-93658727D01*
X125235562Y-93669319D01*
X125193105Y-93673500D01*
X123726895Y-93673500D01*
X123684438Y-93669319D01*
X123649523Y-93658727D01*
X123617335Y-93641522D01*
X123589127Y-93618373D01*
X123565978Y-93590165D01*
X123548773Y-93557977D01*
X123538181Y-93523062D01*
X123534000Y-93480605D01*
X123534000Y-92339395D01*
X123538181Y-92296938D01*
X123548773Y-92262023D01*
X123565978Y-92229835D01*
X123589127Y-92201627D01*
X123617335Y-92178478D01*
X123649523Y-92161273D01*
X123684438Y-92150681D01*
X123726895Y-92146500D01*
X125193105Y-92146500D01*
X125235562Y-92150681D01*
X125235562Y-92150681D01*
G37*
G36*
X130988000Y-93523000D02*
X126822000Y-93523000D01*
X126822000Y-91897000D01*
X130988000Y-91897000D01*
X130988000Y-93523000D01*
X130988000Y-93523000D01*
G37*
G36*
X130988000Y-90983000D02*
X126822000Y-90983000D01*
X126822000Y-89357000D01*
X130988000Y-89357000D01*
X130988000Y-90983000D01*
X130988000Y-90983000D01*
G37*
M02*
