G04 #@! TF.GenerationSoftware,KiCad,Pcbnew,5.0.1*
G04 #@! TF.CreationDate,2018-12-27T15:11:59+01:00*
G04 #@! TF.ProjectId,6dBSplitter,36644253706C69747465722E6B696361,rev?*
G04 #@! TF.SameCoordinates,Original*
G04 #@! TF.FileFunction,Copper,L1,Top,Signal*
G04 #@! TF.FilePolarity,Positive*
%FSLAX46Y46*%
G04 Gerber Fmt 4.6, Leading zero omitted, Abs format (unit mm)*
G04 Created by KiCad (PCBNEW 5.0.1) date Do 27 Dez 2018 15:11:59 CET*
%MOMM*%
%LPD*%
G01*
G04 APERTURE LIST*
G04 #@! TA.AperFunction,SMDPad,CuDef*
%ADD10R,4.064000X1.524000*%
G04 #@! TD*
G04 #@! TA.AperFunction,Conductor*
%ADD11C,0.100000*%
G04 #@! TD*
G04 #@! TA.AperFunction,SMDPad,CuDef*
%ADD12C,1.425000*%
G04 #@! TD*
G04 #@! TA.AperFunction,ViaPad*
%ADD13C,0.609600*%
G04 #@! TD*
G04 #@! TA.AperFunction,Conductor*
%ADD14C,1.800000*%
G04 #@! TD*
G04 #@! TA.AperFunction,Conductor*
%ADD15C,0.254000*%
G04 #@! TD*
G04 APERTURE END LIST*
D10*
G04 #@! TO.P,J1,1*
G04 #@! TO.N,Net-(J1-Pad1)*
X114300000Y-97282000D03*
G04 #@! TO.P,J1,2*
G04 #@! TO.N,GND*
X114300000Y-94742000D03*
X114300000Y-99822000D03*
G04 #@! TD*
G04 #@! TO.P,J2,1*
G04 #@! TO.N,Net-(J2-Pad1)*
X128905000Y-92710000D03*
G04 #@! TO.P,J2,2*
G04 #@! TO.N,GND*
X128905000Y-90170000D03*
X128905000Y-95250000D03*
G04 #@! TD*
G04 #@! TO.P,J3,2*
G04 #@! TO.N,GND*
X128905000Y-104775000D03*
X128905000Y-99695000D03*
G04 #@! TO.P,J3,1*
G04 #@! TO.N,Net-(J3-Pad1)*
X128905000Y-102235000D03*
G04 #@! TD*
D11*
G04 #@! TO.N,Net-(R1-Pad1)*
G04 #@! TO.C,R1*
G36*
X122207004Y-96281204D02*
X122231273Y-96284804D01*
X122255071Y-96290765D01*
X122278171Y-96299030D01*
X122300349Y-96309520D01*
X122321393Y-96322133D01*
X122341098Y-96336747D01*
X122359277Y-96353223D01*
X122375753Y-96371402D01*
X122390367Y-96391107D01*
X122402980Y-96412151D01*
X122413470Y-96434329D01*
X122421735Y-96457429D01*
X122427696Y-96481227D01*
X122431296Y-96505496D01*
X122432500Y-96530000D01*
X122432500Y-97780000D01*
X122431296Y-97804504D01*
X122427696Y-97828773D01*
X122421735Y-97852571D01*
X122413470Y-97875671D01*
X122402980Y-97897849D01*
X122390367Y-97918893D01*
X122375753Y-97938598D01*
X122359277Y-97956777D01*
X122341098Y-97973253D01*
X122321393Y-97987867D01*
X122300349Y-98000480D01*
X122278171Y-98010970D01*
X122255071Y-98019235D01*
X122231273Y-98025196D01*
X122207004Y-98028796D01*
X122182500Y-98030000D01*
X121257500Y-98030000D01*
X121232996Y-98028796D01*
X121208727Y-98025196D01*
X121184929Y-98019235D01*
X121161829Y-98010970D01*
X121139651Y-98000480D01*
X121118607Y-97987867D01*
X121098902Y-97973253D01*
X121080723Y-97956777D01*
X121064247Y-97938598D01*
X121049633Y-97918893D01*
X121037020Y-97897849D01*
X121026530Y-97875671D01*
X121018265Y-97852571D01*
X121012304Y-97828773D01*
X121008704Y-97804504D01*
X121007500Y-97780000D01*
X121007500Y-96530000D01*
X121008704Y-96505496D01*
X121012304Y-96481227D01*
X121018265Y-96457429D01*
X121026530Y-96434329D01*
X121037020Y-96412151D01*
X121049633Y-96391107D01*
X121064247Y-96371402D01*
X121080723Y-96353223D01*
X121098902Y-96336747D01*
X121118607Y-96322133D01*
X121139651Y-96309520D01*
X121161829Y-96299030D01*
X121184929Y-96290765D01*
X121208727Y-96284804D01*
X121232996Y-96281204D01*
X121257500Y-96280000D01*
X122182500Y-96280000D01*
X122207004Y-96281204D01*
X122207004Y-96281204D01*
G37*
D12*
G04 #@! TD*
G04 #@! TO.P,R1,1*
G04 #@! TO.N,Net-(R1-Pad1)*
X121720000Y-97155000D03*
D11*
G04 #@! TO.N,Net-(J1-Pad1)*
G04 #@! TO.C,R1*
G36*
X119232004Y-96281204D02*
X119256273Y-96284804D01*
X119280071Y-96290765D01*
X119303171Y-96299030D01*
X119325349Y-96309520D01*
X119346393Y-96322133D01*
X119366098Y-96336747D01*
X119384277Y-96353223D01*
X119400753Y-96371402D01*
X119415367Y-96391107D01*
X119427980Y-96412151D01*
X119438470Y-96434329D01*
X119446735Y-96457429D01*
X119452696Y-96481227D01*
X119456296Y-96505496D01*
X119457500Y-96530000D01*
X119457500Y-97780000D01*
X119456296Y-97804504D01*
X119452696Y-97828773D01*
X119446735Y-97852571D01*
X119438470Y-97875671D01*
X119427980Y-97897849D01*
X119415367Y-97918893D01*
X119400753Y-97938598D01*
X119384277Y-97956777D01*
X119366098Y-97973253D01*
X119346393Y-97987867D01*
X119325349Y-98000480D01*
X119303171Y-98010970D01*
X119280071Y-98019235D01*
X119256273Y-98025196D01*
X119232004Y-98028796D01*
X119207500Y-98030000D01*
X118282500Y-98030000D01*
X118257996Y-98028796D01*
X118233727Y-98025196D01*
X118209929Y-98019235D01*
X118186829Y-98010970D01*
X118164651Y-98000480D01*
X118143607Y-97987867D01*
X118123902Y-97973253D01*
X118105723Y-97956777D01*
X118089247Y-97938598D01*
X118074633Y-97918893D01*
X118062020Y-97897849D01*
X118051530Y-97875671D01*
X118043265Y-97852571D01*
X118037304Y-97828773D01*
X118033704Y-97804504D01*
X118032500Y-97780000D01*
X118032500Y-96530000D01*
X118033704Y-96505496D01*
X118037304Y-96481227D01*
X118043265Y-96457429D01*
X118051530Y-96434329D01*
X118062020Y-96412151D01*
X118074633Y-96391107D01*
X118089247Y-96371402D01*
X118105723Y-96353223D01*
X118123902Y-96336747D01*
X118143607Y-96322133D01*
X118164651Y-96309520D01*
X118186829Y-96299030D01*
X118209929Y-96290765D01*
X118233727Y-96284804D01*
X118257996Y-96281204D01*
X118282500Y-96280000D01*
X119207500Y-96280000D01*
X119232004Y-96281204D01*
X119232004Y-96281204D01*
G37*
D12*
G04 #@! TD*
G04 #@! TO.P,R1,2*
G04 #@! TO.N,Net-(J1-Pad1)*
X118745000Y-97155000D03*
D11*
G04 #@! TO.N,Net-(R1-Pad1)*
G04 #@! TO.C,R2*
G36*
X125109504Y-95173704D02*
X125133773Y-95177304D01*
X125157571Y-95183265D01*
X125180671Y-95191530D01*
X125202849Y-95202020D01*
X125223893Y-95214633D01*
X125243598Y-95229247D01*
X125261777Y-95245723D01*
X125278253Y-95263902D01*
X125292867Y-95283607D01*
X125305480Y-95304651D01*
X125315970Y-95326829D01*
X125324235Y-95349929D01*
X125330196Y-95373727D01*
X125333796Y-95397996D01*
X125335000Y-95422500D01*
X125335000Y-96347500D01*
X125333796Y-96372004D01*
X125330196Y-96396273D01*
X125324235Y-96420071D01*
X125315970Y-96443171D01*
X125305480Y-96465349D01*
X125292867Y-96486393D01*
X125278253Y-96506098D01*
X125261777Y-96524277D01*
X125243598Y-96540753D01*
X125223893Y-96555367D01*
X125202849Y-96567980D01*
X125180671Y-96578470D01*
X125157571Y-96586735D01*
X125133773Y-96592696D01*
X125109504Y-96596296D01*
X125085000Y-96597500D01*
X123835000Y-96597500D01*
X123810496Y-96596296D01*
X123786227Y-96592696D01*
X123762429Y-96586735D01*
X123739329Y-96578470D01*
X123717151Y-96567980D01*
X123696107Y-96555367D01*
X123676402Y-96540753D01*
X123658223Y-96524277D01*
X123641747Y-96506098D01*
X123627133Y-96486393D01*
X123614520Y-96465349D01*
X123604030Y-96443171D01*
X123595765Y-96420071D01*
X123589804Y-96396273D01*
X123586204Y-96372004D01*
X123585000Y-96347500D01*
X123585000Y-95422500D01*
X123586204Y-95397996D01*
X123589804Y-95373727D01*
X123595765Y-95349929D01*
X123604030Y-95326829D01*
X123614520Y-95304651D01*
X123627133Y-95283607D01*
X123641747Y-95263902D01*
X123658223Y-95245723D01*
X123676402Y-95229247D01*
X123696107Y-95214633D01*
X123717151Y-95202020D01*
X123739329Y-95191530D01*
X123762429Y-95183265D01*
X123786227Y-95177304D01*
X123810496Y-95173704D01*
X123835000Y-95172500D01*
X125085000Y-95172500D01*
X125109504Y-95173704D01*
X125109504Y-95173704D01*
G37*
D12*
G04 #@! TD*
G04 #@! TO.P,R2,2*
G04 #@! TO.N,Net-(R1-Pad1)*
X124460000Y-95885000D03*
D11*
G04 #@! TO.N,Net-(J2-Pad1)*
G04 #@! TO.C,R2*
G36*
X125109504Y-92198704D02*
X125133773Y-92202304D01*
X125157571Y-92208265D01*
X125180671Y-92216530D01*
X125202849Y-92227020D01*
X125223893Y-92239633D01*
X125243598Y-92254247D01*
X125261777Y-92270723D01*
X125278253Y-92288902D01*
X125292867Y-92308607D01*
X125305480Y-92329651D01*
X125315970Y-92351829D01*
X125324235Y-92374929D01*
X125330196Y-92398727D01*
X125333796Y-92422996D01*
X125335000Y-92447500D01*
X125335000Y-93372500D01*
X125333796Y-93397004D01*
X125330196Y-93421273D01*
X125324235Y-93445071D01*
X125315970Y-93468171D01*
X125305480Y-93490349D01*
X125292867Y-93511393D01*
X125278253Y-93531098D01*
X125261777Y-93549277D01*
X125243598Y-93565753D01*
X125223893Y-93580367D01*
X125202849Y-93592980D01*
X125180671Y-93603470D01*
X125157571Y-93611735D01*
X125133773Y-93617696D01*
X125109504Y-93621296D01*
X125085000Y-93622500D01*
X123835000Y-93622500D01*
X123810496Y-93621296D01*
X123786227Y-93617696D01*
X123762429Y-93611735D01*
X123739329Y-93603470D01*
X123717151Y-93592980D01*
X123696107Y-93580367D01*
X123676402Y-93565753D01*
X123658223Y-93549277D01*
X123641747Y-93531098D01*
X123627133Y-93511393D01*
X123614520Y-93490349D01*
X123604030Y-93468171D01*
X123595765Y-93445071D01*
X123589804Y-93421273D01*
X123586204Y-93397004D01*
X123585000Y-93372500D01*
X123585000Y-92447500D01*
X123586204Y-92422996D01*
X123589804Y-92398727D01*
X123595765Y-92374929D01*
X123604030Y-92351829D01*
X123614520Y-92329651D01*
X123627133Y-92308607D01*
X123641747Y-92288902D01*
X123658223Y-92270723D01*
X123676402Y-92254247D01*
X123696107Y-92239633D01*
X123717151Y-92227020D01*
X123739329Y-92216530D01*
X123762429Y-92208265D01*
X123786227Y-92202304D01*
X123810496Y-92198704D01*
X123835000Y-92197500D01*
X125085000Y-92197500D01*
X125109504Y-92198704D01*
X125109504Y-92198704D01*
G37*
D12*
G04 #@! TD*
G04 #@! TO.P,R2,1*
G04 #@! TO.N,Net-(J2-Pad1)*
X124460000Y-92910000D03*
D11*
G04 #@! TO.N,Net-(J3-Pad1)*
G04 #@! TO.C,R3*
G36*
X125109504Y-101323704D02*
X125133773Y-101327304D01*
X125157571Y-101333265D01*
X125180671Y-101341530D01*
X125202849Y-101352020D01*
X125223893Y-101364633D01*
X125243598Y-101379247D01*
X125261777Y-101395723D01*
X125278253Y-101413902D01*
X125292867Y-101433607D01*
X125305480Y-101454651D01*
X125315970Y-101476829D01*
X125324235Y-101499929D01*
X125330196Y-101523727D01*
X125333796Y-101547996D01*
X125335000Y-101572500D01*
X125335000Y-102497500D01*
X125333796Y-102522004D01*
X125330196Y-102546273D01*
X125324235Y-102570071D01*
X125315970Y-102593171D01*
X125305480Y-102615349D01*
X125292867Y-102636393D01*
X125278253Y-102656098D01*
X125261777Y-102674277D01*
X125243598Y-102690753D01*
X125223893Y-102705367D01*
X125202849Y-102717980D01*
X125180671Y-102728470D01*
X125157571Y-102736735D01*
X125133773Y-102742696D01*
X125109504Y-102746296D01*
X125085000Y-102747500D01*
X123835000Y-102747500D01*
X123810496Y-102746296D01*
X123786227Y-102742696D01*
X123762429Y-102736735D01*
X123739329Y-102728470D01*
X123717151Y-102717980D01*
X123696107Y-102705367D01*
X123676402Y-102690753D01*
X123658223Y-102674277D01*
X123641747Y-102656098D01*
X123627133Y-102636393D01*
X123614520Y-102615349D01*
X123604030Y-102593171D01*
X123595765Y-102570071D01*
X123589804Y-102546273D01*
X123586204Y-102522004D01*
X123585000Y-102497500D01*
X123585000Y-101572500D01*
X123586204Y-101547996D01*
X123589804Y-101523727D01*
X123595765Y-101499929D01*
X123604030Y-101476829D01*
X123614520Y-101454651D01*
X123627133Y-101433607D01*
X123641747Y-101413902D01*
X123658223Y-101395723D01*
X123676402Y-101379247D01*
X123696107Y-101364633D01*
X123717151Y-101352020D01*
X123739329Y-101341530D01*
X123762429Y-101333265D01*
X123786227Y-101327304D01*
X123810496Y-101323704D01*
X123835000Y-101322500D01*
X125085000Y-101322500D01*
X125109504Y-101323704D01*
X125109504Y-101323704D01*
G37*
D12*
G04 #@! TD*
G04 #@! TO.P,R3,1*
G04 #@! TO.N,Net-(J3-Pad1)*
X124460000Y-102035000D03*
D11*
G04 #@! TO.N,Net-(R1-Pad1)*
G04 #@! TO.C,R3*
G36*
X125109504Y-98348704D02*
X125133773Y-98352304D01*
X125157571Y-98358265D01*
X125180671Y-98366530D01*
X125202849Y-98377020D01*
X125223893Y-98389633D01*
X125243598Y-98404247D01*
X125261777Y-98420723D01*
X125278253Y-98438902D01*
X125292867Y-98458607D01*
X125305480Y-98479651D01*
X125315970Y-98501829D01*
X125324235Y-98524929D01*
X125330196Y-98548727D01*
X125333796Y-98572996D01*
X125335000Y-98597500D01*
X125335000Y-99522500D01*
X125333796Y-99547004D01*
X125330196Y-99571273D01*
X125324235Y-99595071D01*
X125315970Y-99618171D01*
X125305480Y-99640349D01*
X125292867Y-99661393D01*
X125278253Y-99681098D01*
X125261777Y-99699277D01*
X125243598Y-99715753D01*
X125223893Y-99730367D01*
X125202849Y-99742980D01*
X125180671Y-99753470D01*
X125157571Y-99761735D01*
X125133773Y-99767696D01*
X125109504Y-99771296D01*
X125085000Y-99772500D01*
X123835000Y-99772500D01*
X123810496Y-99771296D01*
X123786227Y-99767696D01*
X123762429Y-99761735D01*
X123739329Y-99753470D01*
X123717151Y-99742980D01*
X123696107Y-99730367D01*
X123676402Y-99715753D01*
X123658223Y-99699277D01*
X123641747Y-99681098D01*
X123627133Y-99661393D01*
X123614520Y-99640349D01*
X123604030Y-99618171D01*
X123595765Y-99595071D01*
X123589804Y-99571273D01*
X123586204Y-99547004D01*
X123585000Y-99522500D01*
X123585000Y-98597500D01*
X123586204Y-98572996D01*
X123589804Y-98548727D01*
X123595765Y-98524929D01*
X123604030Y-98501829D01*
X123614520Y-98479651D01*
X123627133Y-98458607D01*
X123641747Y-98438902D01*
X123658223Y-98420723D01*
X123676402Y-98404247D01*
X123696107Y-98389633D01*
X123717151Y-98377020D01*
X123739329Y-98366530D01*
X123762429Y-98358265D01*
X123786227Y-98352304D01*
X123810496Y-98348704D01*
X123835000Y-98347500D01*
X125085000Y-98347500D01*
X125109504Y-98348704D01*
X125109504Y-98348704D01*
G37*
D12*
G04 #@! TD*
G04 #@! TO.P,R3,2*
G04 #@! TO.N,Net-(R1-Pad1)*
X124460000Y-99060000D03*
D13*
G04 #@! TO.N,GND*
X118110000Y-94615000D03*
X119380000Y-94615000D03*
X120650000Y-94615000D03*
X121920000Y-94615000D03*
X121920000Y-93345000D03*
X121920000Y-92075000D03*
X121920000Y-90170000D03*
X123190000Y-90170000D03*
X124460000Y-90170000D03*
X124460000Y-104775000D03*
X123190000Y-104775000D03*
X121920000Y-104775000D03*
X121920000Y-103505000D03*
X121920000Y-102235000D03*
X121920000Y-100965000D03*
X121920000Y-99695000D03*
X120650000Y-99695000D03*
X119380000Y-99695000D03*
X118110000Y-99695000D03*
X114300000Y-91440000D03*
X114300000Y-102870000D03*
X114300000Y-104775000D03*
X116840000Y-91440000D03*
X119380000Y-91440000D03*
X119380000Y-102870000D03*
X116840000Y-102870000D03*
X119380000Y-104775000D03*
X116840000Y-104775000D03*
G04 #@! TD*
D14*
G04 #@! TO.N,Net-(J1-Pad1)*
X118618000Y-97282000D02*
X118745000Y-97155000D01*
X114300000Y-97282000D02*
X118618000Y-97282000D01*
G04 #@! TO.N,Net-(J2-Pad1)*
X124660000Y-92710000D02*
X124460000Y-92910000D01*
X128905000Y-92710000D02*
X124660000Y-92710000D01*
G04 #@! TO.N,Net-(J3-Pad1)*
X124660000Y-102235000D02*
X124460000Y-102035000D01*
X128905000Y-102235000D02*
X124660000Y-102235000D01*
G04 #@! TO.N,Net-(R1-Pad1)*
X121720000Y-97155000D02*
X124460000Y-97155000D01*
X124460000Y-97155000D02*
X124460000Y-95885000D01*
X124460000Y-97155000D02*
X124460000Y-99060000D01*
G04 #@! TD*
D15*
G04 #@! TO.N,GND*
G36*
X120274062Y-97753927D02*
X120389129Y-97926136D01*
X120428374Y-98123435D01*
X120622914Y-98414586D01*
X120914065Y-98609126D01*
X121257500Y-98677440D01*
X121505675Y-98677440D01*
X121568818Y-98690000D01*
X122925001Y-98690000D01*
X122925001Y-99211182D01*
X122937560Y-99274320D01*
X122937560Y-99522500D01*
X123005874Y-99865935D01*
X123200414Y-100157086D01*
X123491565Y-100351626D01*
X123688865Y-100390872D01*
X123861074Y-100505938D01*
X124070022Y-100547500D01*
X123861073Y-100589063D01*
X123688865Y-100704128D01*
X123491565Y-100743374D01*
X123200414Y-100937914D01*
X123005874Y-101229065D01*
X122937560Y-101572500D01*
X122937560Y-101820680D01*
X122894929Y-102035000D01*
X122937560Y-102249320D01*
X122937560Y-102497500D01*
X123005874Y-102840935D01*
X123200414Y-103132086D01*
X123491565Y-103326626D01*
X123551199Y-103338488D01*
X123553327Y-103341673D01*
X124061073Y-103680938D01*
X124660000Y-103800072D01*
X124811182Y-103770000D01*
X126286335Y-103770000D01*
X126238000Y-103886690D01*
X126238000Y-104489250D01*
X126396750Y-104648000D01*
X128778000Y-104648000D01*
X128778000Y-104628000D01*
X129032000Y-104628000D01*
X129032000Y-104648000D01*
X129052000Y-104648000D01*
X129052000Y-104902000D01*
X129032000Y-104902000D01*
X129032000Y-104922000D01*
X128778000Y-104922000D01*
X128778000Y-104902000D01*
X126396750Y-104902000D01*
X126238000Y-105060750D01*
X126238000Y-105310000D01*
X112522000Y-105310000D01*
X112522000Y-101219000D01*
X114014250Y-101219000D01*
X114173000Y-101060250D01*
X114173000Y-99949000D01*
X114427000Y-99949000D01*
X114427000Y-101060250D01*
X114585750Y-101219000D01*
X116458309Y-101219000D01*
X116691698Y-101122327D01*
X116870327Y-100943699D01*
X116967000Y-100710310D01*
X116967000Y-100107750D01*
X116808250Y-99949000D01*
X114427000Y-99949000D01*
X114173000Y-99949000D01*
X114153000Y-99949000D01*
X114153000Y-99695000D01*
X114173000Y-99695000D01*
X114173000Y-99675000D01*
X114427000Y-99675000D01*
X114427000Y-99695000D01*
X116808250Y-99695000D01*
X116967000Y-99536250D01*
X116967000Y-98933690D01*
X116918665Y-98817000D01*
X118466823Y-98817000D01*
X118618000Y-98847071D01*
X118769177Y-98817000D01*
X118769182Y-98817000D01*
X119216927Y-98727938D01*
X119328534Y-98653365D01*
X119550935Y-98609126D01*
X119842086Y-98414586D01*
X120036626Y-98123435D01*
X120075872Y-97926134D01*
X120190937Y-97753927D01*
X120232500Y-97544978D01*
X120274062Y-97753927D01*
X120274062Y-97753927D01*
G37*
X120274062Y-97753927D02*
X120389129Y-97926136D01*
X120428374Y-98123435D01*
X120622914Y-98414586D01*
X120914065Y-98609126D01*
X121257500Y-98677440D01*
X121505675Y-98677440D01*
X121568818Y-98690000D01*
X122925001Y-98690000D01*
X122925001Y-99211182D01*
X122937560Y-99274320D01*
X122937560Y-99522500D01*
X123005874Y-99865935D01*
X123200414Y-100157086D01*
X123491565Y-100351626D01*
X123688865Y-100390872D01*
X123861074Y-100505938D01*
X124070022Y-100547500D01*
X123861073Y-100589063D01*
X123688865Y-100704128D01*
X123491565Y-100743374D01*
X123200414Y-100937914D01*
X123005874Y-101229065D01*
X122937560Y-101572500D01*
X122937560Y-101820680D01*
X122894929Y-102035000D01*
X122937560Y-102249320D01*
X122937560Y-102497500D01*
X123005874Y-102840935D01*
X123200414Y-103132086D01*
X123491565Y-103326626D01*
X123551199Y-103338488D01*
X123553327Y-103341673D01*
X124061073Y-103680938D01*
X124660000Y-103800072D01*
X124811182Y-103770000D01*
X126286335Y-103770000D01*
X126238000Y-103886690D01*
X126238000Y-104489250D01*
X126396750Y-104648000D01*
X128778000Y-104648000D01*
X128778000Y-104628000D01*
X129032000Y-104628000D01*
X129032000Y-104648000D01*
X129052000Y-104648000D01*
X129052000Y-104902000D01*
X129032000Y-104902000D01*
X129032000Y-104922000D01*
X128778000Y-104922000D01*
X128778000Y-104902000D01*
X126396750Y-104902000D01*
X126238000Y-105060750D01*
X126238000Y-105310000D01*
X112522000Y-105310000D01*
X112522000Y-101219000D01*
X114014250Y-101219000D01*
X114173000Y-101060250D01*
X114173000Y-99949000D01*
X114427000Y-99949000D01*
X114427000Y-101060250D01*
X114585750Y-101219000D01*
X116458309Y-101219000D01*
X116691698Y-101122327D01*
X116870327Y-100943699D01*
X116967000Y-100710310D01*
X116967000Y-100107750D01*
X116808250Y-99949000D01*
X114427000Y-99949000D01*
X114173000Y-99949000D01*
X114153000Y-99949000D01*
X114153000Y-99695000D01*
X114173000Y-99695000D01*
X114173000Y-99675000D01*
X114427000Y-99675000D01*
X114427000Y-99695000D01*
X116808250Y-99695000D01*
X116967000Y-99536250D01*
X116967000Y-98933690D01*
X116918665Y-98817000D01*
X118466823Y-98817000D01*
X118618000Y-98847071D01*
X118769177Y-98817000D01*
X118769182Y-98817000D01*
X119216927Y-98727938D01*
X119328534Y-98653365D01*
X119550935Y-98609126D01*
X119842086Y-98414586D01*
X120036626Y-98123435D01*
X120075872Y-97926134D01*
X120190937Y-97753927D01*
X120232500Y-97544978D01*
X120274062Y-97753927D01*
G36*
X126238000Y-94361690D02*
X126238000Y-94964250D01*
X126396750Y-95123000D01*
X128778000Y-95123000D01*
X128778000Y-95103000D01*
X129032000Y-95103000D01*
X129032000Y-95123000D01*
X129052000Y-95123000D01*
X129052000Y-95377000D01*
X129032000Y-95377000D01*
X129032000Y-96488250D01*
X129190750Y-96647000D01*
X130683000Y-96647000D01*
X130683000Y-98298000D01*
X129190750Y-98298000D01*
X129032000Y-98456750D01*
X129032000Y-99568000D01*
X129052000Y-99568000D01*
X129052000Y-99822000D01*
X129032000Y-99822000D01*
X129032000Y-99842000D01*
X128778000Y-99842000D01*
X128778000Y-99822000D01*
X126396750Y-99822000D01*
X126238000Y-99980750D01*
X126238000Y-100583310D01*
X126286335Y-100700000D01*
X125224956Y-100700000D01*
X125058927Y-100589063D01*
X124849978Y-100547501D01*
X125058927Y-100505938D01*
X125231136Y-100390871D01*
X125428435Y-100351626D01*
X125719586Y-100157086D01*
X125914126Y-99865935D01*
X125982440Y-99522500D01*
X125982440Y-99274325D01*
X125995000Y-99211182D01*
X125995000Y-98806690D01*
X126238000Y-98806690D01*
X126238000Y-99409250D01*
X126396750Y-99568000D01*
X128778000Y-99568000D01*
X128778000Y-98456750D01*
X128619250Y-98298000D01*
X126746691Y-98298000D01*
X126513302Y-98394673D01*
X126334673Y-98573301D01*
X126238000Y-98806690D01*
X125995000Y-98806690D01*
X125995000Y-97306181D01*
X126025072Y-97155000D01*
X125995000Y-97003818D01*
X125995000Y-95733818D01*
X125982440Y-95670675D01*
X125982440Y-95535750D01*
X126238000Y-95535750D01*
X126238000Y-96138310D01*
X126334673Y-96371699D01*
X126513302Y-96550327D01*
X126746691Y-96647000D01*
X128619250Y-96647000D01*
X128778000Y-96488250D01*
X128778000Y-95377000D01*
X126396750Y-95377000D01*
X126238000Y-95535750D01*
X125982440Y-95535750D01*
X125982440Y-95422500D01*
X125914126Y-95079065D01*
X125719586Y-94787914D01*
X125428435Y-94593374D01*
X125231136Y-94554129D01*
X125058927Y-94439062D01*
X124849978Y-94397500D01*
X125058927Y-94355937D01*
X125224956Y-94245000D01*
X126286335Y-94245000D01*
X126238000Y-94361690D01*
X126238000Y-94361690D01*
G37*
X126238000Y-94361690D02*
X126238000Y-94964250D01*
X126396750Y-95123000D01*
X128778000Y-95123000D01*
X128778000Y-95103000D01*
X129032000Y-95103000D01*
X129032000Y-95123000D01*
X129052000Y-95123000D01*
X129052000Y-95377000D01*
X129032000Y-95377000D01*
X129032000Y-96488250D01*
X129190750Y-96647000D01*
X130683000Y-96647000D01*
X130683000Y-98298000D01*
X129190750Y-98298000D01*
X129032000Y-98456750D01*
X129032000Y-99568000D01*
X129052000Y-99568000D01*
X129052000Y-99822000D01*
X129032000Y-99822000D01*
X129032000Y-99842000D01*
X128778000Y-99842000D01*
X128778000Y-99822000D01*
X126396750Y-99822000D01*
X126238000Y-99980750D01*
X126238000Y-100583310D01*
X126286335Y-100700000D01*
X125224956Y-100700000D01*
X125058927Y-100589063D01*
X124849978Y-100547501D01*
X125058927Y-100505938D01*
X125231136Y-100390871D01*
X125428435Y-100351626D01*
X125719586Y-100157086D01*
X125914126Y-99865935D01*
X125982440Y-99522500D01*
X125982440Y-99274325D01*
X125995000Y-99211182D01*
X125995000Y-98806690D01*
X126238000Y-98806690D01*
X126238000Y-99409250D01*
X126396750Y-99568000D01*
X128778000Y-99568000D01*
X128778000Y-98456750D01*
X128619250Y-98298000D01*
X126746691Y-98298000D01*
X126513302Y-98394673D01*
X126334673Y-98573301D01*
X126238000Y-98806690D01*
X125995000Y-98806690D01*
X125995000Y-97306181D01*
X126025072Y-97155000D01*
X125995000Y-97003818D01*
X125995000Y-95733818D01*
X125982440Y-95670675D01*
X125982440Y-95535750D01*
X126238000Y-95535750D01*
X126238000Y-96138310D01*
X126334673Y-96371699D01*
X126513302Y-96550327D01*
X126746691Y-96647000D01*
X128619250Y-96647000D01*
X128778000Y-96488250D01*
X128778000Y-95377000D01*
X126396750Y-95377000D01*
X126238000Y-95535750D01*
X125982440Y-95535750D01*
X125982440Y-95422500D01*
X125914126Y-95079065D01*
X125719586Y-94787914D01*
X125428435Y-94593374D01*
X125231136Y-94554129D01*
X125058927Y-94439062D01*
X124849978Y-94397500D01*
X125058927Y-94355937D01*
X125224956Y-94245000D01*
X126286335Y-94245000D01*
X126238000Y-94361690D01*
G36*
X126238000Y-89884250D02*
X126396750Y-90043000D01*
X128778000Y-90043000D01*
X128778000Y-90023000D01*
X129032000Y-90023000D01*
X129032000Y-90043000D01*
X129052000Y-90043000D01*
X129052000Y-90297000D01*
X129032000Y-90297000D01*
X129032000Y-90317000D01*
X128778000Y-90317000D01*
X128778000Y-90297000D01*
X126396750Y-90297000D01*
X126238000Y-90455750D01*
X126238000Y-91058310D01*
X126286335Y-91175000D01*
X124811182Y-91175000D01*
X124660000Y-91144928D01*
X124508818Y-91175000D01*
X124061073Y-91264062D01*
X123553327Y-91603327D01*
X123551199Y-91606512D01*
X123491565Y-91618374D01*
X123200414Y-91812914D01*
X123005874Y-92104065D01*
X122937560Y-92447500D01*
X122937560Y-92695680D01*
X122894929Y-92910000D01*
X122937560Y-93124320D01*
X122937560Y-93372500D01*
X123005874Y-93715935D01*
X123200414Y-94007086D01*
X123491565Y-94201626D01*
X123688865Y-94240872D01*
X123861073Y-94355937D01*
X124070022Y-94397500D01*
X123861074Y-94439062D01*
X123688865Y-94554128D01*
X123491565Y-94593374D01*
X123200414Y-94787914D01*
X123005874Y-95079065D01*
X122937560Y-95422500D01*
X122937560Y-95620000D01*
X121568818Y-95620000D01*
X121505675Y-95632560D01*
X121257500Y-95632560D01*
X120914065Y-95700874D01*
X120622914Y-95895414D01*
X120428374Y-96186565D01*
X120389129Y-96383864D01*
X120274062Y-96556073D01*
X120232499Y-96765022D01*
X120190937Y-96556073D01*
X120075872Y-96383866D01*
X120036626Y-96186565D01*
X119842086Y-95895414D01*
X119550935Y-95700874D01*
X119207500Y-95632560D01*
X118959320Y-95632560D01*
X118744999Y-95589929D01*
X118530679Y-95632560D01*
X118282500Y-95632560D01*
X117939065Y-95700874D01*
X117870032Y-95747000D01*
X116918665Y-95747000D01*
X116967000Y-95630310D01*
X116967000Y-95027750D01*
X116808250Y-94869000D01*
X114427000Y-94869000D01*
X114427000Y-94889000D01*
X114173000Y-94889000D01*
X114173000Y-94869000D01*
X114153000Y-94869000D01*
X114153000Y-94615000D01*
X114173000Y-94615000D01*
X114173000Y-93503750D01*
X114427000Y-93503750D01*
X114427000Y-94615000D01*
X116808250Y-94615000D01*
X116967000Y-94456250D01*
X116967000Y-93853690D01*
X116870327Y-93620301D01*
X116691698Y-93441673D01*
X116458309Y-93345000D01*
X114585750Y-93345000D01*
X114427000Y-93503750D01*
X114173000Y-93503750D01*
X114014250Y-93345000D01*
X112522000Y-93345000D01*
X112522000Y-89635000D01*
X126238000Y-89635000D01*
X126238000Y-89884250D01*
X126238000Y-89884250D01*
G37*
X126238000Y-89884250D02*
X126396750Y-90043000D01*
X128778000Y-90043000D01*
X128778000Y-90023000D01*
X129032000Y-90023000D01*
X129032000Y-90043000D01*
X129052000Y-90043000D01*
X129052000Y-90297000D01*
X129032000Y-90297000D01*
X129032000Y-90317000D01*
X128778000Y-90317000D01*
X128778000Y-90297000D01*
X126396750Y-90297000D01*
X126238000Y-90455750D01*
X126238000Y-91058310D01*
X126286335Y-91175000D01*
X124811182Y-91175000D01*
X124660000Y-91144928D01*
X124508818Y-91175000D01*
X124061073Y-91264062D01*
X123553327Y-91603327D01*
X123551199Y-91606512D01*
X123491565Y-91618374D01*
X123200414Y-91812914D01*
X123005874Y-92104065D01*
X122937560Y-92447500D01*
X122937560Y-92695680D01*
X122894929Y-92910000D01*
X122937560Y-93124320D01*
X122937560Y-93372500D01*
X123005874Y-93715935D01*
X123200414Y-94007086D01*
X123491565Y-94201626D01*
X123688865Y-94240872D01*
X123861073Y-94355937D01*
X124070022Y-94397500D01*
X123861074Y-94439062D01*
X123688865Y-94554128D01*
X123491565Y-94593374D01*
X123200414Y-94787914D01*
X123005874Y-95079065D01*
X122937560Y-95422500D01*
X122937560Y-95620000D01*
X121568818Y-95620000D01*
X121505675Y-95632560D01*
X121257500Y-95632560D01*
X120914065Y-95700874D01*
X120622914Y-95895414D01*
X120428374Y-96186565D01*
X120389129Y-96383864D01*
X120274062Y-96556073D01*
X120232499Y-96765022D01*
X120190937Y-96556073D01*
X120075872Y-96383866D01*
X120036626Y-96186565D01*
X119842086Y-95895414D01*
X119550935Y-95700874D01*
X119207500Y-95632560D01*
X118959320Y-95632560D01*
X118744999Y-95589929D01*
X118530679Y-95632560D01*
X118282500Y-95632560D01*
X117939065Y-95700874D01*
X117870032Y-95747000D01*
X116918665Y-95747000D01*
X116967000Y-95630310D01*
X116967000Y-95027750D01*
X116808250Y-94869000D01*
X114427000Y-94869000D01*
X114427000Y-94889000D01*
X114173000Y-94889000D01*
X114173000Y-94869000D01*
X114153000Y-94869000D01*
X114153000Y-94615000D01*
X114173000Y-94615000D01*
X114173000Y-93503750D01*
X114427000Y-93503750D01*
X114427000Y-94615000D01*
X116808250Y-94615000D01*
X116967000Y-94456250D01*
X116967000Y-93853690D01*
X116870327Y-93620301D01*
X116691698Y-93441673D01*
X116458309Y-93345000D01*
X114585750Y-93345000D01*
X114427000Y-93503750D01*
X114173000Y-93503750D01*
X114014250Y-93345000D01*
X112522000Y-93345000D01*
X112522000Y-89635000D01*
X126238000Y-89635000D01*
X126238000Y-89884250D01*
G04 #@! TD*
M02*
