G04 #@! TF.GenerationSoftware,KiCad,Pcbnew,(5.0.1)-4*
G04 #@! TF.CreationDate,2018-12-17T19:11:41+01:00*
G04 #@! TF.ProjectId,Filter4Ord,46696C746572344F72642E6B69636164,rev?*
G04 #@! TF.SameCoordinates,Original*
G04 #@! TF.FileFunction,Legend,Bot*
G04 #@! TF.FilePolarity,Positive*
%FSLAX46Y46*%
G04 Gerber Fmt 4.6, Leading zero omitted, Abs format (unit mm)*
G04 Created by KiCad (PCBNEW (5.0.1)-4) date 17/12/2018 19:11:41*
%MOMM*%
%LPD*%
G01*
G04 APERTURE LIST*
%ADD10C,0.010000*%
G04 APERTURE END LIST*
D10*
G04 #@! TO.C,REF\002A\002A*
G36*
X77940957Y-125355835D02*
X77917935Y-125393245D01*
X77882466Y-125452514D01*
X77836004Y-125531118D01*
X77780004Y-125626538D01*
X77715919Y-125736250D01*
X77645204Y-125857734D01*
X77569313Y-125988468D01*
X77489701Y-126125930D01*
X77407822Y-126267598D01*
X77325130Y-126410951D01*
X77243079Y-126553467D01*
X77163124Y-126692624D01*
X77086719Y-126825901D01*
X77015318Y-126950776D01*
X76950376Y-127064727D01*
X76893347Y-127165233D01*
X76845685Y-127249772D01*
X76808845Y-127315822D01*
X76784280Y-127360862D01*
X76773446Y-127382370D01*
X76773049Y-127383714D01*
X76786499Y-127401965D01*
X76823886Y-127429882D01*
X76880765Y-127464725D01*
X76952688Y-127503754D01*
X77027985Y-127540843D01*
X77130440Y-127585817D01*
X77238183Y-127626226D01*
X77354927Y-127662969D01*
X77484382Y-127696942D01*
X77630260Y-127729044D01*
X77796274Y-127760173D01*
X77986134Y-127791227D01*
X78182531Y-127820145D01*
X78353166Y-127845800D01*
X78496455Y-127871198D01*
X78615992Y-127897602D01*
X78715370Y-127926273D01*
X78798182Y-127958473D01*
X78868022Y-127995465D01*
X78928482Y-128038512D01*
X78983155Y-128088875D01*
X79000786Y-128107583D01*
X79039000Y-128151139D01*
X79067268Y-128186682D01*
X79080382Y-128207583D01*
X79080732Y-128209297D01*
X79085320Y-128219806D01*
X79101242Y-128219924D01*
X79131734Y-128208254D01*
X79180032Y-128183396D01*
X79249373Y-128143952D01*
X79297561Y-128115587D01*
X79369417Y-128071247D01*
X79425258Y-128033279D01*
X79461333Y-128004416D01*
X79473887Y-127987388D01*
X79473879Y-127987264D01*
X79466094Y-127971037D01*
X79444108Y-127930400D01*
X79409197Y-127867567D01*
X79362637Y-127784752D01*
X79305705Y-127684172D01*
X79239677Y-127568040D01*
X79165828Y-127438571D01*
X79085436Y-127297980D01*
X78999776Y-127148482D01*
X78910124Y-126992292D01*
X78817757Y-126831624D01*
X78723951Y-126668693D01*
X78629982Y-126505713D01*
X78537126Y-126344900D01*
X78446660Y-126188468D01*
X78359859Y-126038633D01*
X78278000Y-125897608D01*
X78202359Y-125767609D01*
X78134213Y-125650849D01*
X78074837Y-125549545D01*
X78025507Y-125465911D01*
X77987500Y-125402162D01*
X77962093Y-125360511D01*
X77950560Y-125343175D01*
X77950077Y-125342805D01*
X77940957Y-125355835D01*
X77940957Y-125355835D01*
G37*
X77940957Y-125355835D02*
X77917935Y-125393245D01*
X77882466Y-125452514D01*
X77836004Y-125531118D01*
X77780004Y-125626538D01*
X77715919Y-125736250D01*
X77645204Y-125857734D01*
X77569313Y-125988468D01*
X77489701Y-126125930D01*
X77407822Y-126267598D01*
X77325130Y-126410951D01*
X77243079Y-126553467D01*
X77163124Y-126692624D01*
X77086719Y-126825901D01*
X77015318Y-126950776D01*
X76950376Y-127064727D01*
X76893347Y-127165233D01*
X76845685Y-127249772D01*
X76808845Y-127315822D01*
X76784280Y-127360862D01*
X76773446Y-127382370D01*
X76773049Y-127383714D01*
X76786499Y-127401965D01*
X76823886Y-127429882D01*
X76880765Y-127464725D01*
X76952688Y-127503754D01*
X77027985Y-127540843D01*
X77130440Y-127585817D01*
X77238183Y-127626226D01*
X77354927Y-127662969D01*
X77484382Y-127696942D01*
X77630260Y-127729044D01*
X77796274Y-127760173D01*
X77986134Y-127791227D01*
X78182531Y-127820145D01*
X78353166Y-127845800D01*
X78496455Y-127871198D01*
X78615992Y-127897602D01*
X78715370Y-127926273D01*
X78798182Y-127958473D01*
X78868022Y-127995465D01*
X78928482Y-128038512D01*
X78983155Y-128088875D01*
X79000786Y-128107583D01*
X79039000Y-128151139D01*
X79067268Y-128186682D01*
X79080382Y-128207583D01*
X79080732Y-128209297D01*
X79085320Y-128219806D01*
X79101242Y-128219924D01*
X79131734Y-128208254D01*
X79180032Y-128183396D01*
X79249373Y-128143952D01*
X79297561Y-128115587D01*
X79369417Y-128071247D01*
X79425258Y-128033279D01*
X79461333Y-128004416D01*
X79473887Y-127987388D01*
X79473879Y-127987264D01*
X79466094Y-127971037D01*
X79444108Y-127930400D01*
X79409197Y-127867567D01*
X79362637Y-127784752D01*
X79305705Y-127684172D01*
X79239677Y-127568040D01*
X79165828Y-127438571D01*
X79085436Y-127297980D01*
X78999776Y-127148482D01*
X78910124Y-126992292D01*
X78817757Y-126831624D01*
X78723951Y-126668693D01*
X78629982Y-126505713D01*
X78537126Y-126344900D01*
X78446660Y-126188468D01*
X78359859Y-126038633D01*
X78278000Y-125897608D01*
X78202359Y-125767609D01*
X78134213Y-125650849D01*
X78074837Y-125549545D01*
X78025507Y-125465911D01*
X77987500Y-125402162D01*
X77962093Y-125360511D01*
X77950560Y-125343175D01*
X77950077Y-125342805D01*
X77940957Y-125355835D01*
G36*
X76117472Y-128504619D02*
X76106092Y-128523693D01*
X76080512Y-128567421D01*
X76041998Y-128633619D01*
X75991814Y-128720102D01*
X75931225Y-128824685D01*
X75861497Y-128945183D01*
X75783893Y-129079412D01*
X75699680Y-129225187D01*
X75610121Y-129380323D01*
X75518002Y-129540000D01*
X75423924Y-129703117D01*
X75333598Y-129859709D01*
X75248335Y-130007506D01*
X75169443Y-130144240D01*
X75098231Y-130267642D01*
X75036009Y-130375444D01*
X74984087Y-130465377D01*
X74943772Y-130535173D01*
X74916376Y-130582564D01*
X74903493Y-130604786D01*
X74882493Y-130642330D01*
X74871075Y-130665831D01*
X74870449Y-130669920D01*
X74884364Y-130662242D01*
X74923059Y-130640203D01*
X74984513Y-130604971D01*
X75066702Y-130557711D01*
X75167604Y-130499589D01*
X75285195Y-130431771D01*
X75417454Y-130355424D01*
X75562358Y-130271714D01*
X75717883Y-130181806D01*
X75882008Y-130086867D01*
X75944451Y-130050732D01*
X76111513Y-129954083D01*
X76270926Y-129861938D01*
X76420645Y-129775475D01*
X76558624Y-129695871D01*
X76682815Y-129624305D01*
X76791173Y-129561955D01*
X76881652Y-129509998D01*
X76952204Y-129469613D01*
X77000785Y-129441978D01*
X77025346Y-129428272D01*
X77027915Y-129426974D01*
X77020431Y-129415220D01*
X76994386Y-129383795D01*
X76952441Y-129335594D01*
X76897254Y-129273510D01*
X76831483Y-129200439D01*
X76757788Y-129119276D01*
X76678827Y-129032916D01*
X76597260Y-128944253D01*
X76515746Y-128856182D01*
X76436943Y-128771599D01*
X76363510Y-128693397D01*
X76298107Y-128624472D01*
X76243392Y-128567719D01*
X76202023Y-128526032D01*
X76187836Y-128512363D01*
X76140820Y-128468201D01*
X76117472Y-128504619D01*
X76117472Y-128504619D01*
G37*
X76117472Y-128504619D02*
X76106092Y-128523693D01*
X76080512Y-128567421D01*
X76041998Y-128633619D01*
X75991814Y-128720102D01*
X75931225Y-128824685D01*
X75861497Y-128945183D01*
X75783893Y-129079412D01*
X75699680Y-129225187D01*
X75610121Y-129380323D01*
X75518002Y-129540000D01*
X75423924Y-129703117D01*
X75333598Y-129859709D01*
X75248335Y-130007506D01*
X75169443Y-130144240D01*
X75098231Y-130267642D01*
X75036009Y-130375444D01*
X74984087Y-130465377D01*
X74943772Y-130535173D01*
X74916376Y-130582564D01*
X74903493Y-130604786D01*
X74882493Y-130642330D01*
X74871075Y-130665831D01*
X74870449Y-130669920D01*
X74884364Y-130662242D01*
X74923059Y-130640203D01*
X74984513Y-130604971D01*
X75066702Y-130557711D01*
X75167604Y-130499589D01*
X75285195Y-130431771D01*
X75417454Y-130355424D01*
X75562358Y-130271714D01*
X75717883Y-130181806D01*
X75882008Y-130086867D01*
X75944451Y-130050732D01*
X76111513Y-129954083D01*
X76270926Y-129861938D01*
X76420645Y-129775475D01*
X76558624Y-129695871D01*
X76682815Y-129624305D01*
X76791173Y-129561955D01*
X76881652Y-129509998D01*
X76952204Y-129469613D01*
X77000785Y-129441978D01*
X77025346Y-129428272D01*
X77027915Y-129426974D01*
X77020431Y-129415220D01*
X76994386Y-129383795D01*
X76952441Y-129335594D01*
X76897254Y-129273510D01*
X76831483Y-129200439D01*
X76757788Y-129119276D01*
X76678827Y-129032916D01*
X76597260Y-128944253D01*
X76515746Y-128856182D01*
X76436943Y-128771599D01*
X76363510Y-128693397D01*
X76298107Y-128624472D01*
X76243392Y-128567719D01*
X76202023Y-128526032D01*
X76187836Y-128512363D01*
X76140820Y-128468201D01*
X76117472Y-128504619D01*
G36*
X79782906Y-128561158D02*
X79750381Y-128573736D01*
X79700807Y-128598712D01*
X79629626Y-128637876D01*
X79624084Y-128640988D01*
X79558526Y-128678476D01*
X79503202Y-128711319D01*
X79463545Y-128736205D01*
X79444988Y-128749820D01*
X79444469Y-128750487D01*
X79448952Y-128769390D01*
X79469514Y-128811605D01*
X79504817Y-128874832D01*
X79553520Y-128956772D01*
X79614282Y-129055122D01*
X79685764Y-129167585D01*
X79703555Y-129195165D01*
X79749907Y-129271699D01*
X79783658Y-129337556D01*
X79801847Y-129386782D01*
X79803714Y-129396507D01*
X79802885Y-129439312D01*
X79793606Y-129507209D01*
X79777032Y-129595843D01*
X79754320Y-129700859D01*
X79726627Y-129817902D01*
X79695110Y-129942616D01*
X79660925Y-130070645D01*
X79625229Y-130197634D01*
X79589179Y-130319228D01*
X79553932Y-130431072D01*
X79520644Y-130528810D01*
X79490472Y-130608087D01*
X79469439Y-130655122D01*
X79444663Y-130705225D01*
X79421270Y-130753168D01*
X79420003Y-130755793D01*
X79381301Y-130804220D01*
X79324816Y-130836828D01*
X79259061Y-130852454D01*
X79192549Y-130849937D01*
X79133795Y-130828114D01*
X79100742Y-130799382D01*
X79053141Y-130720583D01*
X79018261Y-130622378D01*
X78999123Y-130514779D01*
X78996412Y-130453780D01*
X79007330Y-130339935D01*
X79039376Y-130245660D01*
X79094274Y-130166379D01*
X79111393Y-130148733D01*
X79162339Y-130099235D01*
X79165837Y-129749362D01*
X79169336Y-129399489D01*
X79080182Y-129264531D01*
X79038346Y-129203445D01*
X78998055Y-129148493D01*
X78965057Y-129107336D01*
X78950874Y-129092192D01*
X78910719Y-129054810D01*
X78856335Y-129084098D01*
X78821961Y-129105084D01*
X78803154Y-129121378D01*
X78801951Y-129124307D01*
X78789097Y-129136728D01*
X78767104Y-129145977D01*
X78745850Y-129154313D01*
X78713306Y-129170149D01*
X78666678Y-129195033D01*
X78603171Y-129230509D01*
X78519992Y-129278123D01*
X78414347Y-129339422D01*
X78356938Y-129372932D01*
X78289406Y-129413071D01*
X78245115Y-129441659D01*
X78220145Y-129462039D01*
X78210577Y-129477553D01*
X78212492Y-129491546D01*
X78214089Y-129494796D01*
X78229624Y-129515266D01*
X78262864Y-129553665D01*
X78309938Y-129605696D01*
X78366972Y-129667066D01*
X78416300Y-129719090D01*
X78529970Y-129842567D01*
X78618895Y-129949591D01*
X78683866Y-130041240D01*
X78725679Y-130118588D01*
X78739783Y-130157866D01*
X78745608Y-130192249D01*
X78751625Y-130250899D01*
X78757304Y-130327117D01*
X78762116Y-130414202D01*
X78764381Y-130469268D01*
X78767541Y-130564464D01*
X78768931Y-130634062D01*
X78768142Y-130683409D01*
X78764765Y-130717854D01*
X78758392Y-130742743D01*
X78748613Y-130763425D01*
X78740933Y-130776053D01*
X78696579Y-130824726D01*
X78639426Y-130858645D01*
X78579292Y-130873438D01*
X78534227Y-130868086D01*
X78493424Y-130844930D01*
X78442276Y-130803462D01*
X78387958Y-130750912D01*
X78337643Y-130694516D01*
X78298506Y-130641505D01*
X78284095Y-130615889D01*
X78262509Y-130580814D01*
X78223247Y-130527389D01*
X78169898Y-130459789D01*
X78106048Y-130382190D01*
X78035285Y-130298768D01*
X77961196Y-130213698D01*
X77887368Y-130131155D01*
X77817389Y-130055316D01*
X77754845Y-129990356D01*
X77705740Y-129942669D01*
X77651221Y-129895032D01*
X77605358Y-129859908D01*
X77573189Y-129840949D01*
X77562511Y-129838864D01*
X77546147Y-129847274D01*
X77505329Y-129869846D01*
X77442414Y-129905224D01*
X77359756Y-129952054D01*
X77259711Y-130008981D01*
X77144634Y-130074649D01*
X77016881Y-130147703D01*
X76878806Y-130226788D01*
X76732766Y-130310548D01*
X76581116Y-130397629D01*
X76426210Y-130486676D01*
X76270405Y-130576332D01*
X76116056Y-130665243D01*
X75965518Y-130752054D01*
X75821146Y-130835409D01*
X75685296Y-130913954D01*
X75560323Y-130986333D01*
X75448583Y-131051190D01*
X75352430Y-131107171D01*
X75274221Y-131152920D01*
X75216311Y-131187083D01*
X75181054Y-131208304D01*
X75170835Y-131214963D01*
X75184598Y-131216280D01*
X75227896Y-131217559D01*
X75299286Y-131218796D01*
X75397327Y-131219983D01*
X75520578Y-131221115D01*
X75667597Y-131222186D01*
X75836943Y-131223189D01*
X76027174Y-131224119D01*
X76236849Y-131224968D01*
X76464527Y-131225732D01*
X76708765Y-131226403D01*
X76968123Y-131226976D01*
X77241159Y-131227444D01*
X77526432Y-131227802D01*
X77822500Y-131228042D01*
X78127921Y-131228159D01*
X78256076Y-131228171D01*
X81356030Y-131228171D01*
X81134947Y-130844847D01*
X81088144Y-130763680D01*
X81027898Y-130659166D01*
X80956222Y-130534801D01*
X80875131Y-130394082D01*
X80786638Y-130240503D01*
X80692760Y-130077562D01*
X80595509Y-129908754D01*
X80496900Y-129737575D01*
X80398947Y-129567521D01*
X80374175Y-129524512D01*
X80283848Y-129367857D01*
X80197711Y-129218803D01*
X80117058Y-129079568D01*
X80043184Y-128952371D01*
X79977383Y-128839432D01*
X79920950Y-128742968D01*
X79875179Y-128665200D01*
X79841365Y-128608346D01*
X79820802Y-128574625D01*
X79815047Y-128566040D01*
X79802942Y-128559189D01*
X79782906Y-128561158D01*
X79782906Y-128561158D01*
G37*
X79782906Y-128561158D02*
X79750381Y-128573736D01*
X79700807Y-128598712D01*
X79629626Y-128637876D01*
X79624084Y-128640988D01*
X79558526Y-128678476D01*
X79503202Y-128711319D01*
X79463545Y-128736205D01*
X79444988Y-128749820D01*
X79444469Y-128750487D01*
X79448952Y-128769390D01*
X79469514Y-128811605D01*
X79504817Y-128874832D01*
X79553520Y-128956772D01*
X79614282Y-129055122D01*
X79685764Y-129167585D01*
X79703555Y-129195165D01*
X79749907Y-129271699D01*
X79783658Y-129337556D01*
X79801847Y-129386782D01*
X79803714Y-129396507D01*
X79802885Y-129439312D01*
X79793606Y-129507209D01*
X79777032Y-129595843D01*
X79754320Y-129700859D01*
X79726627Y-129817902D01*
X79695110Y-129942616D01*
X79660925Y-130070645D01*
X79625229Y-130197634D01*
X79589179Y-130319228D01*
X79553932Y-130431072D01*
X79520644Y-130528810D01*
X79490472Y-130608087D01*
X79469439Y-130655122D01*
X79444663Y-130705225D01*
X79421270Y-130753168D01*
X79420003Y-130755793D01*
X79381301Y-130804220D01*
X79324816Y-130836828D01*
X79259061Y-130852454D01*
X79192549Y-130849937D01*
X79133795Y-130828114D01*
X79100742Y-130799382D01*
X79053141Y-130720583D01*
X79018261Y-130622378D01*
X78999123Y-130514779D01*
X78996412Y-130453780D01*
X79007330Y-130339935D01*
X79039376Y-130245660D01*
X79094274Y-130166379D01*
X79111393Y-130148733D01*
X79162339Y-130099235D01*
X79165837Y-129749362D01*
X79169336Y-129399489D01*
X79080182Y-129264531D01*
X79038346Y-129203445D01*
X78998055Y-129148493D01*
X78965057Y-129107336D01*
X78950874Y-129092192D01*
X78910719Y-129054810D01*
X78856335Y-129084098D01*
X78821961Y-129105084D01*
X78803154Y-129121378D01*
X78801951Y-129124307D01*
X78789097Y-129136728D01*
X78767104Y-129145977D01*
X78745850Y-129154313D01*
X78713306Y-129170149D01*
X78666678Y-129195033D01*
X78603171Y-129230509D01*
X78519992Y-129278123D01*
X78414347Y-129339422D01*
X78356938Y-129372932D01*
X78289406Y-129413071D01*
X78245115Y-129441659D01*
X78220145Y-129462039D01*
X78210577Y-129477553D01*
X78212492Y-129491546D01*
X78214089Y-129494796D01*
X78229624Y-129515266D01*
X78262864Y-129553665D01*
X78309938Y-129605696D01*
X78366972Y-129667066D01*
X78416300Y-129719090D01*
X78529970Y-129842567D01*
X78618895Y-129949591D01*
X78683866Y-130041240D01*
X78725679Y-130118588D01*
X78739783Y-130157866D01*
X78745608Y-130192249D01*
X78751625Y-130250899D01*
X78757304Y-130327117D01*
X78762116Y-130414202D01*
X78764381Y-130469268D01*
X78767541Y-130564464D01*
X78768931Y-130634062D01*
X78768142Y-130683409D01*
X78764765Y-130717854D01*
X78758392Y-130742743D01*
X78748613Y-130763425D01*
X78740933Y-130776053D01*
X78696579Y-130824726D01*
X78639426Y-130858645D01*
X78579292Y-130873438D01*
X78534227Y-130868086D01*
X78493424Y-130844930D01*
X78442276Y-130803462D01*
X78387958Y-130750912D01*
X78337643Y-130694516D01*
X78298506Y-130641505D01*
X78284095Y-130615889D01*
X78262509Y-130580814D01*
X78223247Y-130527389D01*
X78169898Y-130459789D01*
X78106048Y-130382190D01*
X78035285Y-130298768D01*
X77961196Y-130213698D01*
X77887368Y-130131155D01*
X77817389Y-130055316D01*
X77754845Y-129990356D01*
X77705740Y-129942669D01*
X77651221Y-129895032D01*
X77605358Y-129859908D01*
X77573189Y-129840949D01*
X77562511Y-129838864D01*
X77546147Y-129847274D01*
X77505329Y-129869846D01*
X77442414Y-129905224D01*
X77359756Y-129952054D01*
X77259711Y-130008981D01*
X77144634Y-130074649D01*
X77016881Y-130147703D01*
X76878806Y-130226788D01*
X76732766Y-130310548D01*
X76581116Y-130397629D01*
X76426210Y-130486676D01*
X76270405Y-130576332D01*
X76116056Y-130665243D01*
X75965518Y-130752054D01*
X75821146Y-130835409D01*
X75685296Y-130913954D01*
X75560323Y-130986333D01*
X75448583Y-131051190D01*
X75352430Y-131107171D01*
X75274221Y-131152920D01*
X75216311Y-131187083D01*
X75181054Y-131208304D01*
X75170835Y-131214963D01*
X75184598Y-131216280D01*
X75227896Y-131217559D01*
X75299286Y-131218796D01*
X75397327Y-131219983D01*
X75520578Y-131221115D01*
X75667597Y-131222186D01*
X75836943Y-131223189D01*
X76027174Y-131224119D01*
X76236849Y-131224968D01*
X76464527Y-131225732D01*
X76708765Y-131226403D01*
X76968123Y-131226976D01*
X77241159Y-131227444D01*
X77526432Y-131227802D01*
X77822500Y-131228042D01*
X78127921Y-131228159D01*
X78256076Y-131228171D01*
X81356030Y-131228171D01*
X81134947Y-130844847D01*
X81088144Y-130763680D01*
X81027898Y-130659166D01*
X80956222Y-130534801D01*
X80875131Y-130394082D01*
X80786638Y-130240503D01*
X80692760Y-130077562D01*
X80595509Y-129908754D01*
X80496900Y-129737575D01*
X80398947Y-129567521D01*
X80374175Y-129524512D01*
X80283848Y-129367857D01*
X80197711Y-129218803D01*
X80117058Y-129079568D01*
X80043184Y-128952371D01*
X79977383Y-128839432D01*
X79920950Y-128742968D01*
X79875179Y-128665200D01*
X79841365Y-128608346D01*
X79820802Y-128574625D01*
X79815047Y-128566040D01*
X79802942Y-128559189D01*
X79782906Y-128561158D01*
G04 #@! TD*
M02*
