G04 #@! TF.GenerationSoftware,KiCad,Pcbnew,(5.0.1)-4*
G04 #@! TF.CreationDate,2018-12-17T19:11:41+01:00*
G04 #@! TF.ProjectId,Filter4Ord,46696C746572344F72642E6B69636164,rev?*
G04 #@! TF.SameCoordinates,Original*
G04 #@! TF.FileFunction,Paste,Top*
G04 #@! TF.FilePolarity,Positive*
%FSLAX46Y46*%
G04 Gerber Fmt 4.6, Leading zero omitted, Abs format (unit mm)*
G04 Created by KiCad (PCBNEW (5.0.1)-4) date 17/12/2018 19:11:41*
%MOMM*%
%LPD*%
G01*
G04 APERTURE LIST*
%ADD10C,0.100000*%
%ADD11C,1.425000*%
G04 APERTURE END LIST*
D10*
G04 #@! TO.C,C1*
G36*
X59323504Y-127050704D02*
X59347773Y-127054304D01*
X59371571Y-127060265D01*
X59394671Y-127068530D01*
X59416849Y-127079020D01*
X59437893Y-127091633D01*
X59457598Y-127106247D01*
X59475777Y-127122723D01*
X59492253Y-127140902D01*
X59506867Y-127160607D01*
X59519480Y-127181651D01*
X59529970Y-127203829D01*
X59538235Y-127226929D01*
X59544196Y-127250727D01*
X59547796Y-127274996D01*
X59549000Y-127299500D01*
X59549000Y-128224500D01*
X59547796Y-128249004D01*
X59544196Y-128273273D01*
X59538235Y-128297071D01*
X59529970Y-128320171D01*
X59519480Y-128342349D01*
X59506867Y-128363393D01*
X59492253Y-128383098D01*
X59475777Y-128401277D01*
X59457598Y-128417753D01*
X59437893Y-128432367D01*
X59416849Y-128444980D01*
X59394671Y-128455470D01*
X59371571Y-128463735D01*
X59347773Y-128469696D01*
X59323504Y-128473296D01*
X59299000Y-128474500D01*
X58049000Y-128474500D01*
X58024496Y-128473296D01*
X58000227Y-128469696D01*
X57976429Y-128463735D01*
X57953329Y-128455470D01*
X57931151Y-128444980D01*
X57910107Y-128432367D01*
X57890402Y-128417753D01*
X57872223Y-128401277D01*
X57855747Y-128383098D01*
X57841133Y-128363393D01*
X57828520Y-128342349D01*
X57818030Y-128320171D01*
X57809765Y-128297071D01*
X57803804Y-128273273D01*
X57800204Y-128249004D01*
X57799000Y-128224500D01*
X57799000Y-127299500D01*
X57800204Y-127274996D01*
X57803804Y-127250727D01*
X57809765Y-127226929D01*
X57818030Y-127203829D01*
X57828520Y-127181651D01*
X57841133Y-127160607D01*
X57855747Y-127140902D01*
X57872223Y-127122723D01*
X57890402Y-127106247D01*
X57910107Y-127091633D01*
X57931151Y-127079020D01*
X57953329Y-127068530D01*
X57976429Y-127060265D01*
X58000227Y-127054304D01*
X58024496Y-127050704D01*
X58049000Y-127049500D01*
X59299000Y-127049500D01*
X59323504Y-127050704D01*
X59323504Y-127050704D01*
G37*
D11*
X58674000Y-127762000D03*
D10*
G36*
X59323504Y-130025704D02*
X59347773Y-130029304D01*
X59371571Y-130035265D01*
X59394671Y-130043530D01*
X59416849Y-130054020D01*
X59437893Y-130066633D01*
X59457598Y-130081247D01*
X59475777Y-130097723D01*
X59492253Y-130115902D01*
X59506867Y-130135607D01*
X59519480Y-130156651D01*
X59529970Y-130178829D01*
X59538235Y-130201929D01*
X59544196Y-130225727D01*
X59547796Y-130249996D01*
X59549000Y-130274500D01*
X59549000Y-131199500D01*
X59547796Y-131224004D01*
X59544196Y-131248273D01*
X59538235Y-131272071D01*
X59529970Y-131295171D01*
X59519480Y-131317349D01*
X59506867Y-131338393D01*
X59492253Y-131358098D01*
X59475777Y-131376277D01*
X59457598Y-131392753D01*
X59437893Y-131407367D01*
X59416849Y-131419980D01*
X59394671Y-131430470D01*
X59371571Y-131438735D01*
X59347773Y-131444696D01*
X59323504Y-131448296D01*
X59299000Y-131449500D01*
X58049000Y-131449500D01*
X58024496Y-131448296D01*
X58000227Y-131444696D01*
X57976429Y-131438735D01*
X57953329Y-131430470D01*
X57931151Y-131419980D01*
X57910107Y-131407367D01*
X57890402Y-131392753D01*
X57872223Y-131376277D01*
X57855747Y-131358098D01*
X57841133Y-131338393D01*
X57828520Y-131317349D01*
X57818030Y-131295171D01*
X57809765Y-131272071D01*
X57803804Y-131248273D01*
X57800204Y-131224004D01*
X57799000Y-131199500D01*
X57799000Y-130274500D01*
X57800204Y-130249996D01*
X57803804Y-130225727D01*
X57809765Y-130201929D01*
X57818030Y-130178829D01*
X57828520Y-130156651D01*
X57841133Y-130135607D01*
X57855747Y-130115902D01*
X57872223Y-130097723D01*
X57890402Y-130081247D01*
X57910107Y-130066633D01*
X57931151Y-130054020D01*
X57953329Y-130043530D01*
X57976429Y-130035265D01*
X58000227Y-130029304D01*
X58024496Y-130025704D01*
X58049000Y-130024500D01*
X59299000Y-130024500D01*
X59323504Y-130025704D01*
X59323504Y-130025704D01*
G37*
D11*
X58674000Y-130737000D03*
G04 #@! TD*
D10*
G04 #@! TO.C,C2*
G36*
X68486004Y-126888204D02*
X68510273Y-126891804D01*
X68534071Y-126897765D01*
X68557171Y-126906030D01*
X68579349Y-126916520D01*
X68600393Y-126929133D01*
X68620098Y-126943747D01*
X68638277Y-126960223D01*
X68654753Y-126978402D01*
X68669367Y-126998107D01*
X68681980Y-127019151D01*
X68692470Y-127041329D01*
X68700735Y-127064429D01*
X68706696Y-127088227D01*
X68710296Y-127112496D01*
X68711500Y-127137000D01*
X68711500Y-128387000D01*
X68710296Y-128411504D01*
X68706696Y-128435773D01*
X68700735Y-128459571D01*
X68692470Y-128482671D01*
X68681980Y-128504849D01*
X68669367Y-128525893D01*
X68654753Y-128545598D01*
X68638277Y-128563777D01*
X68620098Y-128580253D01*
X68600393Y-128594867D01*
X68579349Y-128607480D01*
X68557171Y-128617970D01*
X68534071Y-128626235D01*
X68510273Y-128632196D01*
X68486004Y-128635796D01*
X68461500Y-128637000D01*
X67536500Y-128637000D01*
X67511996Y-128635796D01*
X67487727Y-128632196D01*
X67463929Y-128626235D01*
X67440829Y-128617970D01*
X67418651Y-128607480D01*
X67397607Y-128594867D01*
X67377902Y-128580253D01*
X67359723Y-128563777D01*
X67343247Y-128545598D01*
X67328633Y-128525893D01*
X67316020Y-128504849D01*
X67305530Y-128482671D01*
X67297265Y-128459571D01*
X67291304Y-128435773D01*
X67287704Y-128411504D01*
X67286500Y-128387000D01*
X67286500Y-127137000D01*
X67287704Y-127112496D01*
X67291304Y-127088227D01*
X67297265Y-127064429D01*
X67305530Y-127041329D01*
X67316020Y-127019151D01*
X67328633Y-126998107D01*
X67343247Y-126978402D01*
X67359723Y-126960223D01*
X67377902Y-126943747D01*
X67397607Y-126929133D01*
X67418651Y-126916520D01*
X67440829Y-126906030D01*
X67463929Y-126897765D01*
X67487727Y-126891804D01*
X67511996Y-126888204D01*
X67536500Y-126887000D01*
X68461500Y-126887000D01*
X68486004Y-126888204D01*
X68486004Y-126888204D01*
G37*
D11*
X67999000Y-127762000D03*
D10*
G36*
X65511004Y-126888204D02*
X65535273Y-126891804D01*
X65559071Y-126897765D01*
X65582171Y-126906030D01*
X65604349Y-126916520D01*
X65625393Y-126929133D01*
X65645098Y-126943747D01*
X65663277Y-126960223D01*
X65679753Y-126978402D01*
X65694367Y-126998107D01*
X65706980Y-127019151D01*
X65717470Y-127041329D01*
X65725735Y-127064429D01*
X65731696Y-127088227D01*
X65735296Y-127112496D01*
X65736500Y-127137000D01*
X65736500Y-128387000D01*
X65735296Y-128411504D01*
X65731696Y-128435773D01*
X65725735Y-128459571D01*
X65717470Y-128482671D01*
X65706980Y-128504849D01*
X65694367Y-128525893D01*
X65679753Y-128545598D01*
X65663277Y-128563777D01*
X65645098Y-128580253D01*
X65625393Y-128594867D01*
X65604349Y-128607480D01*
X65582171Y-128617970D01*
X65559071Y-128626235D01*
X65535273Y-128632196D01*
X65511004Y-128635796D01*
X65486500Y-128637000D01*
X64561500Y-128637000D01*
X64536996Y-128635796D01*
X64512727Y-128632196D01*
X64488929Y-128626235D01*
X64465829Y-128617970D01*
X64443651Y-128607480D01*
X64422607Y-128594867D01*
X64402902Y-128580253D01*
X64384723Y-128563777D01*
X64368247Y-128545598D01*
X64353633Y-128525893D01*
X64341020Y-128504849D01*
X64330530Y-128482671D01*
X64322265Y-128459571D01*
X64316304Y-128435773D01*
X64312704Y-128411504D01*
X64311500Y-128387000D01*
X64311500Y-127137000D01*
X64312704Y-127112496D01*
X64316304Y-127088227D01*
X64322265Y-127064429D01*
X64330530Y-127041329D01*
X64341020Y-127019151D01*
X64353633Y-126998107D01*
X64368247Y-126978402D01*
X64384723Y-126960223D01*
X64402902Y-126943747D01*
X64422607Y-126929133D01*
X64443651Y-126916520D01*
X64465829Y-126906030D01*
X64488929Y-126897765D01*
X64512727Y-126891804D01*
X64536996Y-126888204D01*
X64561500Y-126887000D01*
X65486500Y-126887000D01*
X65511004Y-126888204D01*
X65511004Y-126888204D01*
G37*
D11*
X65024000Y-127762000D03*
G04 #@! TD*
D10*
G04 #@! TO.C,C3*
G36*
X80151504Y-127087204D02*
X80175773Y-127090804D01*
X80199571Y-127096765D01*
X80222671Y-127105030D01*
X80244849Y-127115520D01*
X80265893Y-127128133D01*
X80285598Y-127142747D01*
X80303777Y-127159223D01*
X80320253Y-127177402D01*
X80334867Y-127197107D01*
X80347480Y-127218151D01*
X80357970Y-127240329D01*
X80366235Y-127263429D01*
X80372196Y-127287227D01*
X80375796Y-127311496D01*
X80377000Y-127336000D01*
X80377000Y-128261000D01*
X80375796Y-128285504D01*
X80372196Y-128309773D01*
X80366235Y-128333571D01*
X80357970Y-128356671D01*
X80347480Y-128378849D01*
X80334867Y-128399893D01*
X80320253Y-128419598D01*
X80303777Y-128437777D01*
X80285598Y-128454253D01*
X80265893Y-128468867D01*
X80244849Y-128481480D01*
X80222671Y-128491970D01*
X80199571Y-128500235D01*
X80175773Y-128506196D01*
X80151504Y-128509796D01*
X80127000Y-128511000D01*
X78877000Y-128511000D01*
X78852496Y-128509796D01*
X78828227Y-128506196D01*
X78804429Y-128500235D01*
X78781329Y-128491970D01*
X78759151Y-128481480D01*
X78738107Y-128468867D01*
X78718402Y-128454253D01*
X78700223Y-128437777D01*
X78683747Y-128419598D01*
X78669133Y-128399893D01*
X78656520Y-128378849D01*
X78646030Y-128356671D01*
X78637765Y-128333571D01*
X78631804Y-128309773D01*
X78628204Y-128285504D01*
X78627000Y-128261000D01*
X78627000Y-127336000D01*
X78628204Y-127311496D01*
X78631804Y-127287227D01*
X78637765Y-127263429D01*
X78646030Y-127240329D01*
X78656520Y-127218151D01*
X78669133Y-127197107D01*
X78683747Y-127177402D01*
X78700223Y-127159223D01*
X78718402Y-127142747D01*
X78738107Y-127128133D01*
X78759151Y-127115520D01*
X78781329Y-127105030D01*
X78804429Y-127096765D01*
X78828227Y-127090804D01*
X78852496Y-127087204D01*
X78877000Y-127086000D01*
X80127000Y-127086000D01*
X80151504Y-127087204D01*
X80151504Y-127087204D01*
G37*
D11*
X79502000Y-127798500D03*
D10*
G36*
X80151504Y-130062204D02*
X80175773Y-130065804D01*
X80199571Y-130071765D01*
X80222671Y-130080030D01*
X80244849Y-130090520D01*
X80265893Y-130103133D01*
X80285598Y-130117747D01*
X80303777Y-130134223D01*
X80320253Y-130152402D01*
X80334867Y-130172107D01*
X80347480Y-130193151D01*
X80357970Y-130215329D01*
X80366235Y-130238429D01*
X80372196Y-130262227D01*
X80375796Y-130286496D01*
X80377000Y-130311000D01*
X80377000Y-131236000D01*
X80375796Y-131260504D01*
X80372196Y-131284773D01*
X80366235Y-131308571D01*
X80357970Y-131331671D01*
X80347480Y-131353849D01*
X80334867Y-131374893D01*
X80320253Y-131394598D01*
X80303777Y-131412777D01*
X80285598Y-131429253D01*
X80265893Y-131443867D01*
X80244849Y-131456480D01*
X80222671Y-131466970D01*
X80199571Y-131475235D01*
X80175773Y-131481196D01*
X80151504Y-131484796D01*
X80127000Y-131486000D01*
X78877000Y-131486000D01*
X78852496Y-131484796D01*
X78828227Y-131481196D01*
X78804429Y-131475235D01*
X78781329Y-131466970D01*
X78759151Y-131456480D01*
X78738107Y-131443867D01*
X78718402Y-131429253D01*
X78700223Y-131412777D01*
X78683747Y-131394598D01*
X78669133Y-131374893D01*
X78656520Y-131353849D01*
X78646030Y-131331671D01*
X78637765Y-131308571D01*
X78631804Y-131284773D01*
X78628204Y-131260504D01*
X78627000Y-131236000D01*
X78627000Y-130311000D01*
X78628204Y-130286496D01*
X78631804Y-130262227D01*
X78637765Y-130238429D01*
X78646030Y-130215329D01*
X78656520Y-130193151D01*
X78669133Y-130172107D01*
X78683747Y-130152402D01*
X78700223Y-130134223D01*
X78718402Y-130117747D01*
X78738107Y-130103133D01*
X78759151Y-130090520D01*
X78781329Y-130080030D01*
X78804429Y-130071765D01*
X78828227Y-130065804D01*
X78852496Y-130062204D01*
X78877000Y-130061000D01*
X80127000Y-130061000D01*
X80151504Y-130062204D01*
X80151504Y-130062204D01*
G37*
D11*
X79502000Y-130773500D03*
G04 #@! TD*
D10*
G04 #@! TO.C,C4*
G36*
X86012004Y-126888204D02*
X86036273Y-126891804D01*
X86060071Y-126897765D01*
X86083171Y-126906030D01*
X86105349Y-126916520D01*
X86126393Y-126929133D01*
X86146098Y-126943747D01*
X86164277Y-126960223D01*
X86180753Y-126978402D01*
X86195367Y-126998107D01*
X86207980Y-127019151D01*
X86218470Y-127041329D01*
X86226735Y-127064429D01*
X86232696Y-127088227D01*
X86236296Y-127112496D01*
X86237500Y-127137000D01*
X86237500Y-128387000D01*
X86236296Y-128411504D01*
X86232696Y-128435773D01*
X86226735Y-128459571D01*
X86218470Y-128482671D01*
X86207980Y-128504849D01*
X86195367Y-128525893D01*
X86180753Y-128545598D01*
X86164277Y-128563777D01*
X86146098Y-128580253D01*
X86126393Y-128594867D01*
X86105349Y-128607480D01*
X86083171Y-128617970D01*
X86060071Y-128626235D01*
X86036273Y-128632196D01*
X86012004Y-128635796D01*
X85987500Y-128637000D01*
X85062500Y-128637000D01*
X85037996Y-128635796D01*
X85013727Y-128632196D01*
X84989929Y-128626235D01*
X84966829Y-128617970D01*
X84944651Y-128607480D01*
X84923607Y-128594867D01*
X84903902Y-128580253D01*
X84885723Y-128563777D01*
X84869247Y-128545598D01*
X84854633Y-128525893D01*
X84842020Y-128504849D01*
X84831530Y-128482671D01*
X84823265Y-128459571D01*
X84817304Y-128435773D01*
X84813704Y-128411504D01*
X84812500Y-128387000D01*
X84812500Y-127137000D01*
X84813704Y-127112496D01*
X84817304Y-127088227D01*
X84823265Y-127064429D01*
X84831530Y-127041329D01*
X84842020Y-127019151D01*
X84854633Y-126998107D01*
X84869247Y-126978402D01*
X84885723Y-126960223D01*
X84903902Y-126943747D01*
X84923607Y-126929133D01*
X84944651Y-126916520D01*
X84966829Y-126906030D01*
X84989929Y-126897765D01*
X85013727Y-126891804D01*
X85037996Y-126888204D01*
X85062500Y-126887000D01*
X85987500Y-126887000D01*
X86012004Y-126888204D01*
X86012004Y-126888204D01*
G37*
D11*
X85525000Y-127762000D03*
D10*
G36*
X83037004Y-126888204D02*
X83061273Y-126891804D01*
X83085071Y-126897765D01*
X83108171Y-126906030D01*
X83130349Y-126916520D01*
X83151393Y-126929133D01*
X83171098Y-126943747D01*
X83189277Y-126960223D01*
X83205753Y-126978402D01*
X83220367Y-126998107D01*
X83232980Y-127019151D01*
X83243470Y-127041329D01*
X83251735Y-127064429D01*
X83257696Y-127088227D01*
X83261296Y-127112496D01*
X83262500Y-127137000D01*
X83262500Y-128387000D01*
X83261296Y-128411504D01*
X83257696Y-128435773D01*
X83251735Y-128459571D01*
X83243470Y-128482671D01*
X83232980Y-128504849D01*
X83220367Y-128525893D01*
X83205753Y-128545598D01*
X83189277Y-128563777D01*
X83171098Y-128580253D01*
X83151393Y-128594867D01*
X83130349Y-128607480D01*
X83108171Y-128617970D01*
X83085071Y-128626235D01*
X83061273Y-128632196D01*
X83037004Y-128635796D01*
X83012500Y-128637000D01*
X82087500Y-128637000D01*
X82062996Y-128635796D01*
X82038727Y-128632196D01*
X82014929Y-128626235D01*
X81991829Y-128617970D01*
X81969651Y-128607480D01*
X81948607Y-128594867D01*
X81928902Y-128580253D01*
X81910723Y-128563777D01*
X81894247Y-128545598D01*
X81879633Y-128525893D01*
X81867020Y-128504849D01*
X81856530Y-128482671D01*
X81848265Y-128459571D01*
X81842304Y-128435773D01*
X81838704Y-128411504D01*
X81837500Y-128387000D01*
X81837500Y-127137000D01*
X81838704Y-127112496D01*
X81842304Y-127088227D01*
X81848265Y-127064429D01*
X81856530Y-127041329D01*
X81867020Y-127019151D01*
X81879633Y-126998107D01*
X81894247Y-126978402D01*
X81910723Y-126960223D01*
X81928902Y-126943747D01*
X81948607Y-126929133D01*
X81969651Y-126916520D01*
X81991829Y-126906030D01*
X82014929Y-126897765D01*
X82038727Y-126891804D01*
X82062996Y-126888204D01*
X82087500Y-126887000D01*
X83012500Y-126887000D01*
X83037004Y-126888204D01*
X83037004Y-126888204D01*
G37*
D11*
X82550000Y-127762000D03*
G04 #@! TD*
D10*
G04 #@! TO.C,L1*
G36*
X62371504Y-127050704D02*
X62395773Y-127054304D01*
X62419571Y-127060265D01*
X62442671Y-127068530D01*
X62464849Y-127079020D01*
X62485893Y-127091633D01*
X62505598Y-127106247D01*
X62523777Y-127122723D01*
X62540253Y-127140902D01*
X62554867Y-127160607D01*
X62567480Y-127181651D01*
X62577970Y-127203829D01*
X62586235Y-127226929D01*
X62592196Y-127250727D01*
X62595796Y-127274996D01*
X62597000Y-127299500D01*
X62597000Y-128224500D01*
X62595796Y-128249004D01*
X62592196Y-128273273D01*
X62586235Y-128297071D01*
X62577970Y-128320171D01*
X62567480Y-128342349D01*
X62554867Y-128363393D01*
X62540253Y-128383098D01*
X62523777Y-128401277D01*
X62505598Y-128417753D01*
X62485893Y-128432367D01*
X62464849Y-128444980D01*
X62442671Y-128455470D01*
X62419571Y-128463735D01*
X62395773Y-128469696D01*
X62371504Y-128473296D01*
X62347000Y-128474500D01*
X61097000Y-128474500D01*
X61072496Y-128473296D01*
X61048227Y-128469696D01*
X61024429Y-128463735D01*
X61001329Y-128455470D01*
X60979151Y-128444980D01*
X60958107Y-128432367D01*
X60938402Y-128417753D01*
X60920223Y-128401277D01*
X60903747Y-128383098D01*
X60889133Y-128363393D01*
X60876520Y-128342349D01*
X60866030Y-128320171D01*
X60857765Y-128297071D01*
X60851804Y-128273273D01*
X60848204Y-128249004D01*
X60847000Y-128224500D01*
X60847000Y-127299500D01*
X60848204Y-127274996D01*
X60851804Y-127250727D01*
X60857765Y-127226929D01*
X60866030Y-127203829D01*
X60876520Y-127181651D01*
X60889133Y-127160607D01*
X60903747Y-127140902D01*
X60920223Y-127122723D01*
X60938402Y-127106247D01*
X60958107Y-127091633D01*
X60979151Y-127079020D01*
X61001329Y-127068530D01*
X61024429Y-127060265D01*
X61048227Y-127054304D01*
X61072496Y-127050704D01*
X61097000Y-127049500D01*
X62347000Y-127049500D01*
X62371504Y-127050704D01*
X62371504Y-127050704D01*
G37*
D11*
X61722000Y-127762000D03*
D10*
G36*
X62371504Y-130025704D02*
X62395773Y-130029304D01*
X62419571Y-130035265D01*
X62442671Y-130043530D01*
X62464849Y-130054020D01*
X62485893Y-130066633D01*
X62505598Y-130081247D01*
X62523777Y-130097723D01*
X62540253Y-130115902D01*
X62554867Y-130135607D01*
X62567480Y-130156651D01*
X62577970Y-130178829D01*
X62586235Y-130201929D01*
X62592196Y-130225727D01*
X62595796Y-130249996D01*
X62597000Y-130274500D01*
X62597000Y-131199500D01*
X62595796Y-131224004D01*
X62592196Y-131248273D01*
X62586235Y-131272071D01*
X62577970Y-131295171D01*
X62567480Y-131317349D01*
X62554867Y-131338393D01*
X62540253Y-131358098D01*
X62523777Y-131376277D01*
X62505598Y-131392753D01*
X62485893Y-131407367D01*
X62464849Y-131419980D01*
X62442671Y-131430470D01*
X62419571Y-131438735D01*
X62395773Y-131444696D01*
X62371504Y-131448296D01*
X62347000Y-131449500D01*
X61097000Y-131449500D01*
X61072496Y-131448296D01*
X61048227Y-131444696D01*
X61024429Y-131438735D01*
X61001329Y-131430470D01*
X60979151Y-131419980D01*
X60958107Y-131407367D01*
X60938402Y-131392753D01*
X60920223Y-131376277D01*
X60903747Y-131358098D01*
X60889133Y-131338393D01*
X60876520Y-131317349D01*
X60866030Y-131295171D01*
X60857765Y-131272071D01*
X60851804Y-131248273D01*
X60848204Y-131224004D01*
X60847000Y-131199500D01*
X60847000Y-130274500D01*
X60848204Y-130249996D01*
X60851804Y-130225727D01*
X60857765Y-130201929D01*
X60866030Y-130178829D01*
X60876520Y-130156651D01*
X60889133Y-130135607D01*
X60903747Y-130115902D01*
X60920223Y-130097723D01*
X60938402Y-130081247D01*
X60958107Y-130066633D01*
X60979151Y-130054020D01*
X61001329Y-130043530D01*
X61024429Y-130035265D01*
X61048227Y-130029304D01*
X61072496Y-130025704D01*
X61097000Y-130024500D01*
X62347000Y-130024500D01*
X62371504Y-130025704D01*
X62371504Y-130025704D01*
G37*
D11*
X61722000Y-130737000D03*
G04 #@! TD*
D10*
G04 #@! TO.C,L2*
G36*
X73820004Y-126888204D02*
X73844273Y-126891804D01*
X73868071Y-126897765D01*
X73891171Y-126906030D01*
X73913349Y-126916520D01*
X73934393Y-126929133D01*
X73954098Y-126943747D01*
X73972277Y-126960223D01*
X73988753Y-126978402D01*
X74003367Y-126998107D01*
X74015980Y-127019151D01*
X74026470Y-127041329D01*
X74034735Y-127064429D01*
X74040696Y-127088227D01*
X74044296Y-127112496D01*
X74045500Y-127137000D01*
X74045500Y-128387000D01*
X74044296Y-128411504D01*
X74040696Y-128435773D01*
X74034735Y-128459571D01*
X74026470Y-128482671D01*
X74015980Y-128504849D01*
X74003367Y-128525893D01*
X73988753Y-128545598D01*
X73972277Y-128563777D01*
X73954098Y-128580253D01*
X73934393Y-128594867D01*
X73913349Y-128607480D01*
X73891171Y-128617970D01*
X73868071Y-128626235D01*
X73844273Y-128632196D01*
X73820004Y-128635796D01*
X73795500Y-128637000D01*
X72870500Y-128637000D01*
X72845996Y-128635796D01*
X72821727Y-128632196D01*
X72797929Y-128626235D01*
X72774829Y-128617970D01*
X72752651Y-128607480D01*
X72731607Y-128594867D01*
X72711902Y-128580253D01*
X72693723Y-128563777D01*
X72677247Y-128545598D01*
X72662633Y-128525893D01*
X72650020Y-128504849D01*
X72639530Y-128482671D01*
X72631265Y-128459571D01*
X72625304Y-128435773D01*
X72621704Y-128411504D01*
X72620500Y-128387000D01*
X72620500Y-127137000D01*
X72621704Y-127112496D01*
X72625304Y-127088227D01*
X72631265Y-127064429D01*
X72639530Y-127041329D01*
X72650020Y-127019151D01*
X72662633Y-126998107D01*
X72677247Y-126978402D01*
X72693723Y-126960223D01*
X72711902Y-126943747D01*
X72731607Y-126929133D01*
X72752651Y-126916520D01*
X72774829Y-126906030D01*
X72797929Y-126897765D01*
X72821727Y-126891804D01*
X72845996Y-126888204D01*
X72870500Y-126887000D01*
X73795500Y-126887000D01*
X73820004Y-126888204D01*
X73820004Y-126888204D01*
G37*
D11*
X73333000Y-127762000D03*
D10*
G36*
X70845004Y-126888204D02*
X70869273Y-126891804D01*
X70893071Y-126897765D01*
X70916171Y-126906030D01*
X70938349Y-126916520D01*
X70959393Y-126929133D01*
X70979098Y-126943747D01*
X70997277Y-126960223D01*
X71013753Y-126978402D01*
X71028367Y-126998107D01*
X71040980Y-127019151D01*
X71051470Y-127041329D01*
X71059735Y-127064429D01*
X71065696Y-127088227D01*
X71069296Y-127112496D01*
X71070500Y-127137000D01*
X71070500Y-128387000D01*
X71069296Y-128411504D01*
X71065696Y-128435773D01*
X71059735Y-128459571D01*
X71051470Y-128482671D01*
X71040980Y-128504849D01*
X71028367Y-128525893D01*
X71013753Y-128545598D01*
X70997277Y-128563777D01*
X70979098Y-128580253D01*
X70959393Y-128594867D01*
X70938349Y-128607480D01*
X70916171Y-128617970D01*
X70893071Y-128626235D01*
X70869273Y-128632196D01*
X70845004Y-128635796D01*
X70820500Y-128637000D01*
X69895500Y-128637000D01*
X69870996Y-128635796D01*
X69846727Y-128632196D01*
X69822929Y-128626235D01*
X69799829Y-128617970D01*
X69777651Y-128607480D01*
X69756607Y-128594867D01*
X69736902Y-128580253D01*
X69718723Y-128563777D01*
X69702247Y-128545598D01*
X69687633Y-128525893D01*
X69675020Y-128504849D01*
X69664530Y-128482671D01*
X69656265Y-128459571D01*
X69650304Y-128435773D01*
X69646704Y-128411504D01*
X69645500Y-128387000D01*
X69645500Y-127137000D01*
X69646704Y-127112496D01*
X69650304Y-127088227D01*
X69656265Y-127064429D01*
X69664530Y-127041329D01*
X69675020Y-127019151D01*
X69687633Y-126998107D01*
X69702247Y-126978402D01*
X69718723Y-126960223D01*
X69736902Y-126943747D01*
X69756607Y-126929133D01*
X69777651Y-126916520D01*
X69799829Y-126906030D01*
X69822929Y-126897765D01*
X69846727Y-126891804D01*
X69870996Y-126888204D01*
X69895500Y-126887000D01*
X70820500Y-126887000D01*
X70845004Y-126888204D01*
X70845004Y-126888204D01*
G37*
D11*
X70358000Y-127762000D03*
G04 #@! TD*
D10*
G04 #@! TO.C,L3*
G36*
X77103504Y-127050704D02*
X77127773Y-127054304D01*
X77151571Y-127060265D01*
X77174671Y-127068530D01*
X77196849Y-127079020D01*
X77217893Y-127091633D01*
X77237598Y-127106247D01*
X77255777Y-127122723D01*
X77272253Y-127140902D01*
X77286867Y-127160607D01*
X77299480Y-127181651D01*
X77309970Y-127203829D01*
X77318235Y-127226929D01*
X77324196Y-127250727D01*
X77327796Y-127274996D01*
X77329000Y-127299500D01*
X77329000Y-128224500D01*
X77327796Y-128249004D01*
X77324196Y-128273273D01*
X77318235Y-128297071D01*
X77309970Y-128320171D01*
X77299480Y-128342349D01*
X77286867Y-128363393D01*
X77272253Y-128383098D01*
X77255777Y-128401277D01*
X77237598Y-128417753D01*
X77217893Y-128432367D01*
X77196849Y-128444980D01*
X77174671Y-128455470D01*
X77151571Y-128463735D01*
X77127773Y-128469696D01*
X77103504Y-128473296D01*
X77079000Y-128474500D01*
X75829000Y-128474500D01*
X75804496Y-128473296D01*
X75780227Y-128469696D01*
X75756429Y-128463735D01*
X75733329Y-128455470D01*
X75711151Y-128444980D01*
X75690107Y-128432367D01*
X75670402Y-128417753D01*
X75652223Y-128401277D01*
X75635747Y-128383098D01*
X75621133Y-128363393D01*
X75608520Y-128342349D01*
X75598030Y-128320171D01*
X75589765Y-128297071D01*
X75583804Y-128273273D01*
X75580204Y-128249004D01*
X75579000Y-128224500D01*
X75579000Y-127299500D01*
X75580204Y-127274996D01*
X75583804Y-127250727D01*
X75589765Y-127226929D01*
X75598030Y-127203829D01*
X75608520Y-127181651D01*
X75621133Y-127160607D01*
X75635747Y-127140902D01*
X75652223Y-127122723D01*
X75670402Y-127106247D01*
X75690107Y-127091633D01*
X75711151Y-127079020D01*
X75733329Y-127068530D01*
X75756429Y-127060265D01*
X75780227Y-127054304D01*
X75804496Y-127050704D01*
X75829000Y-127049500D01*
X77079000Y-127049500D01*
X77103504Y-127050704D01*
X77103504Y-127050704D01*
G37*
D11*
X76454000Y-127762000D03*
D10*
G36*
X77103504Y-130025704D02*
X77127773Y-130029304D01*
X77151571Y-130035265D01*
X77174671Y-130043530D01*
X77196849Y-130054020D01*
X77217893Y-130066633D01*
X77237598Y-130081247D01*
X77255777Y-130097723D01*
X77272253Y-130115902D01*
X77286867Y-130135607D01*
X77299480Y-130156651D01*
X77309970Y-130178829D01*
X77318235Y-130201929D01*
X77324196Y-130225727D01*
X77327796Y-130249996D01*
X77329000Y-130274500D01*
X77329000Y-131199500D01*
X77327796Y-131224004D01*
X77324196Y-131248273D01*
X77318235Y-131272071D01*
X77309970Y-131295171D01*
X77299480Y-131317349D01*
X77286867Y-131338393D01*
X77272253Y-131358098D01*
X77255777Y-131376277D01*
X77237598Y-131392753D01*
X77217893Y-131407367D01*
X77196849Y-131419980D01*
X77174671Y-131430470D01*
X77151571Y-131438735D01*
X77127773Y-131444696D01*
X77103504Y-131448296D01*
X77079000Y-131449500D01*
X75829000Y-131449500D01*
X75804496Y-131448296D01*
X75780227Y-131444696D01*
X75756429Y-131438735D01*
X75733329Y-131430470D01*
X75711151Y-131419980D01*
X75690107Y-131407367D01*
X75670402Y-131392753D01*
X75652223Y-131376277D01*
X75635747Y-131358098D01*
X75621133Y-131338393D01*
X75608520Y-131317349D01*
X75598030Y-131295171D01*
X75589765Y-131272071D01*
X75583804Y-131248273D01*
X75580204Y-131224004D01*
X75579000Y-131199500D01*
X75579000Y-130274500D01*
X75580204Y-130249996D01*
X75583804Y-130225727D01*
X75589765Y-130201929D01*
X75598030Y-130178829D01*
X75608520Y-130156651D01*
X75621133Y-130135607D01*
X75635747Y-130115902D01*
X75652223Y-130097723D01*
X75670402Y-130081247D01*
X75690107Y-130066633D01*
X75711151Y-130054020D01*
X75733329Y-130043530D01*
X75756429Y-130035265D01*
X75780227Y-130029304D01*
X75804496Y-130025704D01*
X75829000Y-130024500D01*
X77079000Y-130024500D01*
X77103504Y-130025704D01*
X77103504Y-130025704D01*
G37*
D11*
X76454000Y-130737000D03*
G04 #@! TD*
D10*
G04 #@! TO.C,L4*
G36*
X91346004Y-126888204D02*
X91370273Y-126891804D01*
X91394071Y-126897765D01*
X91417171Y-126906030D01*
X91439349Y-126916520D01*
X91460393Y-126929133D01*
X91480098Y-126943747D01*
X91498277Y-126960223D01*
X91514753Y-126978402D01*
X91529367Y-126998107D01*
X91541980Y-127019151D01*
X91552470Y-127041329D01*
X91560735Y-127064429D01*
X91566696Y-127088227D01*
X91570296Y-127112496D01*
X91571500Y-127137000D01*
X91571500Y-128387000D01*
X91570296Y-128411504D01*
X91566696Y-128435773D01*
X91560735Y-128459571D01*
X91552470Y-128482671D01*
X91541980Y-128504849D01*
X91529367Y-128525893D01*
X91514753Y-128545598D01*
X91498277Y-128563777D01*
X91480098Y-128580253D01*
X91460393Y-128594867D01*
X91439349Y-128607480D01*
X91417171Y-128617970D01*
X91394071Y-128626235D01*
X91370273Y-128632196D01*
X91346004Y-128635796D01*
X91321500Y-128637000D01*
X90396500Y-128637000D01*
X90371996Y-128635796D01*
X90347727Y-128632196D01*
X90323929Y-128626235D01*
X90300829Y-128617970D01*
X90278651Y-128607480D01*
X90257607Y-128594867D01*
X90237902Y-128580253D01*
X90219723Y-128563777D01*
X90203247Y-128545598D01*
X90188633Y-128525893D01*
X90176020Y-128504849D01*
X90165530Y-128482671D01*
X90157265Y-128459571D01*
X90151304Y-128435773D01*
X90147704Y-128411504D01*
X90146500Y-128387000D01*
X90146500Y-127137000D01*
X90147704Y-127112496D01*
X90151304Y-127088227D01*
X90157265Y-127064429D01*
X90165530Y-127041329D01*
X90176020Y-127019151D01*
X90188633Y-126998107D01*
X90203247Y-126978402D01*
X90219723Y-126960223D01*
X90237902Y-126943747D01*
X90257607Y-126929133D01*
X90278651Y-126916520D01*
X90300829Y-126906030D01*
X90323929Y-126897765D01*
X90347727Y-126891804D01*
X90371996Y-126888204D01*
X90396500Y-126887000D01*
X91321500Y-126887000D01*
X91346004Y-126888204D01*
X91346004Y-126888204D01*
G37*
D11*
X90859000Y-127762000D03*
D10*
G36*
X88371004Y-126888204D02*
X88395273Y-126891804D01*
X88419071Y-126897765D01*
X88442171Y-126906030D01*
X88464349Y-126916520D01*
X88485393Y-126929133D01*
X88505098Y-126943747D01*
X88523277Y-126960223D01*
X88539753Y-126978402D01*
X88554367Y-126998107D01*
X88566980Y-127019151D01*
X88577470Y-127041329D01*
X88585735Y-127064429D01*
X88591696Y-127088227D01*
X88595296Y-127112496D01*
X88596500Y-127137000D01*
X88596500Y-128387000D01*
X88595296Y-128411504D01*
X88591696Y-128435773D01*
X88585735Y-128459571D01*
X88577470Y-128482671D01*
X88566980Y-128504849D01*
X88554367Y-128525893D01*
X88539753Y-128545598D01*
X88523277Y-128563777D01*
X88505098Y-128580253D01*
X88485393Y-128594867D01*
X88464349Y-128607480D01*
X88442171Y-128617970D01*
X88419071Y-128626235D01*
X88395273Y-128632196D01*
X88371004Y-128635796D01*
X88346500Y-128637000D01*
X87421500Y-128637000D01*
X87396996Y-128635796D01*
X87372727Y-128632196D01*
X87348929Y-128626235D01*
X87325829Y-128617970D01*
X87303651Y-128607480D01*
X87282607Y-128594867D01*
X87262902Y-128580253D01*
X87244723Y-128563777D01*
X87228247Y-128545598D01*
X87213633Y-128525893D01*
X87201020Y-128504849D01*
X87190530Y-128482671D01*
X87182265Y-128459571D01*
X87176304Y-128435773D01*
X87172704Y-128411504D01*
X87171500Y-128387000D01*
X87171500Y-127137000D01*
X87172704Y-127112496D01*
X87176304Y-127088227D01*
X87182265Y-127064429D01*
X87190530Y-127041329D01*
X87201020Y-127019151D01*
X87213633Y-126998107D01*
X87228247Y-126978402D01*
X87244723Y-126960223D01*
X87262902Y-126943747D01*
X87282607Y-126929133D01*
X87303651Y-126916520D01*
X87325829Y-126906030D01*
X87348929Y-126897765D01*
X87372727Y-126891804D01*
X87396996Y-126888204D01*
X87421500Y-126887000D01*
X88346500Y-126887000D01*
X88371004Y-126888204D01*
X88371004Y-126888204D01*
G37*
D11*
X87884000Y-127762000D03*
G04 #@! TD*
M02*
