G04 #@! TF.GenerationSoftware,KiCad,Pcbnew,(5.0.1)-4*
G04 #@! TF.CreationDate,2018-12-17T19:11:41+01:00*
G04 #@! TF.ProjectId,Filter4Ord,46696C746572344F72642E6B69636164,rev?*
G04 #@! TF.SameCoordinates,Original*
G04 #@! TF.FileFunction,Copper,L2,Bot,Signal*
G04 #@! TF.FilePolarity,Positive*
%FSLAX46Y46*%
G04 Gerber Fmt 4.6, Leading zero omitted, Abs format (unit mm)*
G04 Created by KiCad (PCBNEW (5.0.1)-4) date 17/12/2018 19:11:41*
%MOMM*%
%LPD*%
G01*
G04 APERTURE LIST*
G04 #@! TA.AperFunction,SMDPad,CuDef*
%ADD10R,4.064000X1.524000*%
G04 #@! TD*
G04 #@! TA.AperFunction,ViaPad*
%ADD11C,0.609600*%
G04 #@! TD*
G04 #@! TA.AperFunction,Conductor*
%ADD12C,0.203200*%
G04 #@! TD*
G04 #@! TA.AperFunction,Conductor*
%ADD13C,0.254000*%
G04 #@! TD*
G04 APERTURE END LIST*
D10*
G04 #@! TO.P,J1,2*
G04 #@! TO.N,GND*
X54102000Y-125222000D03*
X54102000Y-130302000D03*
G04 #@! TD*
G04 #@! TO.P,J2,2*
G04 #@! TO.N,GND*
X95504000Y-125222000D03*
X95504000Y-130302000D03*
G04 #@! TD*
D11*
G04 #@! TO.N,GND*
X64135000Y-130175000D03*
X65405000Y-130175000D03*
X66675000Y-130175000D03*
X67945000Y-130175000D03*
X69215000Y-130175000D03*
X70485000Y-130175000D03*
X71755000Y-130175000D03*
X73025000Y-130175000D03*
X74295000Y-130175000D03*
X57150000Y-125095000D03*
X58420000Y-125095000D03*
X59690000Y-125095000D03*
X60960000Y-125095000D03*
X62230000Y-125095000D03*
X63500000Y-125095000D03*
X64770000Y-125095000D03*
X66040000Y-125095000D03*
X67310000Y-125095000D03*
X68580000Y-125095000D03*
X69850000Y-125095000D03*
X71120000Y-125095000D03*
X72390000Y-125095000D03*
X73660000Y-125095000D03*
X74930000Y-125095000D03*
X76200000Y-125095000D03*
X77470000Y-125095000D03*
X78740000Y-125095000D03*
X80010000Y-125095000D03*
X81280000Y-125095000D03*
X82550000Y-125095000D03*
X83820000Y-125095000D03*
X85090000Y-125095000D03*
X86360000Y-125095000D03*
X87630000Y-125095000D03*
X88900000Y-125095000D03*
X90170000Y-125095000D03*
X91440000Y-125095000D03*
X92710000Y-125095000D03*
X81915000Y-130175000D03*
X83185000Y-130175000D03*
X84455000Y-130175000D03*
X85725000Y-130175000D03*
X86995000Y-130175000D03*
X88265000Y-130175000D03*
X89535000Y-130175000D03*
X90805000Y-130175000D03*
X92075000Y-130175000D03*
G04 #@! TD*
D12*
G04 #@! TO.N,GND*
X64135000Y-130175000D02*
X65405000Y-130175000D01*
X66675000Y-130175000D02*
X67945000Y-130175000D01*
X69215000Y-130175000D02*
X70485000Y-130175000D01*
X71755000Y-130175000D02*
X73025000Y-130175000D01*
X57150000Y-125095000D02*
X58420000Y-125095000D01*
X59690000Y-125095000D02*
X60960000Y-125095000D01*
X62230000Y-125095000D02*
X63500000Y-125095000D01*
X64770000Y-125095000D02*
X66040000Y-125095000D01*
X67310000Y-125095000D02*
X68580000Y-125095000D01*
X69850000Y-125095000D02*
X71120000Y-125095000D01*
X72390000Y-125095000D02*
X73660000Y-125095000D01*
X74930000Y-125095000D02*
X76200000Y-125095000D01*
X77470000Y-125095000D02*
X78740000Y-125095000D01*
X80010000Y-125095000D02*
X81280000Y-125095000D01*
X82550000Y-125095000D02*
X83820000Y-125095000D01*
X85090000Y-125095000D02*
X86360000Y-125095000D01*
X87630000Y-125095000D02*
X88900000Y-125095000D01*
X90170000Y-125095000D02*
X91440000Y-125095000D01*
X95377000Y-125095000D02*
X95504000Y-125222000D01*
X92710000Y-125095000D02*
X95377000Y-125095000D01*
X81915000Y-130175000D02*
X83185000Y-130175000D01*
X84455000Y-130175000D02*
X85725000Y-130175000D01*
X86995000Y-130175000D02*
X88265000Y-130175000D01*
X89535000Y-130175000D02*
X90805000Y-130175000D01*
X95377000Y-130175000D02*
X95504000Y-130302000D01*
X92075000Y-130175000D02*
X95377000Y-130175000D01*
G04 #@! TD*
D13*
G04 #@! TO.N,GND*
G36*
X93112302Y-123921673D02*
X92933673Y-124100301D01*
X92837000Y-124333690D01*
X92837000Y-124936250D01*
X92995750Y-125095000D01*
X95377000Y-125095000D01*
X95377000Y-125075000D01*
X95631000Y-125075000D01*
X95631000Y-125095000D01*
X95651000Y-125095000D01*
X95651000Y-125349000D01*
X95631000Y-125349000D01*
X95631000Y-126460250D01*
X95789750Y-126619000D01*
X97080000Y-126619000D01*
X97080001Y-128905000D01*
X95789750Y-128905000D01*
X95631000Y-129063750D01*
X95631000Y-130175000D01*
X95651000Y-130175000D01*
X95651000Y-130429000D01*
X95631000Y-130429000D01*
X95631000Y-131540250D01*
X95789750Y-131699000D01*
X97080001Y-131699000D01*
X97080001Y-132005000D01*
X52780000Y-132005000D01*
X52780000Y-131699000D01*
X53816250Y-131699000D01*
X53975000Y-131540250D01*
X53975000Y-130429000D01*
X54229000Y-130429000D01*
X54229000Y-131540250D01*
X54387750Y-131699000D01*
X56260309Y-131699000D01*
X56493698Y-131602327D01*
X56672327Y-131423699D01*
X56769000Y-131190310D01*
X56769000Y-130587750D01*
X92837000Y-130587750D01*
X92837000Y-131190310D01*
X92933673Y-131423699D01*
X93112302Y-131602327D01*
X93345691Y-131699000D01*
X95218250Y-131699000D01*
X95377000Y-131540250D01*
X95377000Y-130429000D01*
X92995750Y-130429000D01*
X92837000Y-130587750D01*
X56769000Y-130587750D01*
X56610250Y-130429000D01*
X54229000Y-130429000D01*
X53975000Y-130429000D01*
X53955000Y-130429000D01*
X53955000Y-130175000D01*
X53975000Y-130175000D01*
X53975000Y-129063750D01*
X54229000Y-129063750D01*
X54229000Y-130175000D01*
X56610250Y-130175000D01*
X56769000Y-130016250D01*
X56769000Y-129413690D01*
X92837000Y-129413690D01*
X92837000Y-130016250D01*
X92995750Y-130175000D01*
X95377000Y-130175000D01*
X95377000Y-129063750D01*
X95218250Y-128905000D01*
X93345691Y-128905000D01*
X93112302Y-129001673D01*
X92933673Y-129180301D01*
X92837000Y-129413690D01*
X56769000Y-129413690D01*
X56672327Y-129180301D01*
X56493698Y-129001673D01*
X56260309Y-128905000D01*
X54387750Y-128905000D01*
X54229000Y-129063750D01*
X53975000Y-129063750D01*
X53816250Y-128905000D01*
X52780000Y-128905000D01*
X52780000Y-126619000D01*
X53816250Y-126619000D01*
X53975000Y-126460250D01*
X53975000Y-125349000D01*
X54229000Y-125349000D01*
X54229000Y-126460250D01*
X54387750Y-126619000D01*
X56260309Y-126619000D01*
X56493698Y-126522327D01*
X56672327Y-126343699D01*
X56769000Y-126110310D01*
X56769000Y-125507750D01*
X92837000Y-125507750D01*
X92837000Y-126110310D01*
X92933673Y-126343699D01*
X93112302Y-126522327D01*
X93345691Y-126619000D01*
X95218250Y-126619000D01*
X95377000Y-126460250D01*
X95377000Y-125349000D01*
X92995750Y-125349000D01*
X92837000Y-125507750D01*
X56769000Y-125507750D01*
X56610250Y-125349000D01*
X54229000Y-125349000D01*
X53975000Y-125349000D01*
X53955000Y-125349000D01*
X53955000Y-125095000D01*
X53975000Y-125095000D01*
X53975000Y-125075000D01*
X54229000Y-125075000D01*
X54229000Y-125095000D01*
X56610250Y-125095000D01*
X56769000Y-124936250D01*
X56769000Y-124333690D01*
X56672327Y-124100301D01*
X56493698Y-123921673D01*
X56441375Y-123900000D01*
X93164625Y-123900000D01*
X93112302Y-123921673D01*
X93112302Y-123921673D01*
G37*
X93112302Y-123921673D02*
X92933673Y-124100301D01*
X92837000Y-124333690D01*
X92837000Y-124936250D01*
X92995750Y-125095000D01*
X95377000Y-125095000D01*
X95377000Y-125075000D01*
X95631000Y-125075000D01*
X95631000Y-125095000D01*
X95651000Y-125095000D01*
X95651000Y-125349000D01*
X95631000Y-125349000D01*
X95631000Y-126460250D01*
X95789750Y-126619000D01*
X97080000Y-126619000D01*
X97080001Y-128905000D01*
X95789750Y-128905000D01*
X95631000Y-129063750D01*
X95631000Y-130175000D01*
X95651000Y-130175000D01*
X95651000Y-130429000D01*
X95631000Y-130429000D01*
X95631000Y-131540250D01*
X95789750Y-131699000D01*
X97080001Y-131699000D01*
X97080001Y-132005000D01*
X52780000Y-132005000D01*
X52780000Y-131699000D01*
X53816250Y-131699000D01*
X53975000Y-131540250D01*
X53975000Y-130429000D01*
X54229000Y-130429000D01*
X54229000Y-131540250D01*
X54387750Y-131699000D01*
X56260309Y-131699000D01*
X56493698Y-131602327D01*
X56672327Y-131423699D01*
X56769000Y-131190310D01*
X56769000Y-130587750D01*
X92837000Y-130587750D01*
X92837000Y-131190310D01*
X92933673Y-131423699D01*
X93112302Y-131602327D01*
X93345691Y-131699000D01*
X95218250Y-131699000D01*
X95377000Y-131540250D01*
X95377000Y-130429000D01*
X92995750Y-130429000D01*
X92837000Y-130587750D01*
X56769000Y-130587750D01*
X56610250Y-130429000D01*
X54229000Y-130429000D01*
X53975000Y-130429000D01*
X53955000Y-130429000D01*
X53955000Y-130175000D01*
X53975000Y-130175000D01*
X53975000Y-129063750D01*
X54229000Y-129063750D01*
X54229000Y-130175000D01*
X56610250Y-130175000D01*
X56769000Y-130016250D01*
X56769000Y-129413690D01*
X92837000Y-129413690D01*
X92837000Y-130016250D01*
X92995750Y-130175000D01*
X95377000Y-130175000D01*
X95377000Y-129063750D01*
X95218250Y-128905000D01*
X93345691Y-128905000D01*
X93112302Y-129001673D01*
X92933673Y-129180301D01*
X92837000Y-129413690D01*
X56769000Y-129413690D01*
X56672327Y-129180301D01*
X56493698Y-129001673D01*
X56260309Y-128905000D01*
X54387750Y-128905000D01*
X54229000Y-129063750D01*
X53975000Y-129063750D01*
X53816250Y-128905000D01*
X52780000Y-128905000D01*
X52780000Y-126619000D01*
X53816250Y-126619000D01*
X53975000Y-126460250D01*
X53975000Y-125349000D01*
X54229000Y-125349000D01*
X54229000Y-126460250D01*
X54387750Y-126619000D01*
X56260309Y-126619000D01*
X56493698Y-126522327D01*
X56672327Y-126343699D01*
X56769000Y-126110310D01*
X56769000Y-125507750D01*
X92837000Y-125507750D01*
X92837000Y-126110310D01*
X92933673Y-126343699D01*
X93112302Y-126522327D01*
X93345691Y-126619000D01*
X95218250Y-126619000D01*
X95377000Y-126460250D01*
X95377000Y-125349000D01*
X92995750Y-125349000D01*
X92837000Y-125507750D01*
X56769000Y-125507750D01*
X56610250Y-125349000D01*
X54229000Y-125349000D01*
X53975000Y-125349000D01*
X53955000Y-125349000D01*
X53955000Y-125095000D01*
X53975000Y-125095000D01*
X53975000Y-125075000D01*
X54229000Y-125075000D01*
X54229000Y-125095000D01*
X56610250Y-125095000D01*
X56769000Y-124936250D01*
X56769000Y-124333690D01*
X56672327Y-124100301D01*
X56493698Y-123921673D01*
X56441375Y-123900000D01*
X93164625Y-123900000D01*
X93112302Y-123921673D01*
G04 #@! TD*
M02*
