G04 #@! TF.GenerationSoftware,KiCad,Pcbnew,5.0.1*
G04 #@! TF.CreationDate,2018-12-27T15:17:57+01:00*
G04 #@! TF.ProjectId,BiasT,42696173542E6B696361645F70636200,rev?*
G04 #@! TF.SameCoordinates,Original*
G04 #@! TF.FileFunction,Paste,Top*
G04 #@! TF.FilePolarity,Positive*
%FSLAX46Y46*%
G04 Gerber Fmt 4.6, Leading zero omitted, Abs format (unit mm)*
G04 Created by KiCad (PCBNEW 5.0.1) date Do 27 Dez 2018 15:17:57 CET*
%MOMM*%
%LPD*%
G01*
G04 APERTURE LIST*
%ADD10C,0.100000*%
%ADD11C,0.975000*%
%ADD12C,1.425000*%
%ADD13C,1.250000*%
%ADD14C,1.300000*%
%ADD15C,0.875000*%
G04 APERTURE END LIST*
D10*
G04 #@! TO.C,C1*
G36*
X149832142Y-74854674D02*
X149855803Y-74858184D01*
X149879007Y-74863996D01*
X149901529Y-74872054D01*
X149923153Y-74882282D01*
X149943670Y-74894579D01*
X149962883Y-74908829D01*
X149980607Y-74924893D01*
X149996671Y-74942617D01*
X150010921Y-74961830D01*
X150023218Y-74982347D01*
X150033446Y-75003971D01*
X150041504Y-75026493D01*
X150047316Y-75049697D01*
X150050826Y-75073358D01*
X150052000Y-75097250D01*
X150052000Y-75584750D01*
X150050826Y-75608642D01*
X150047316Y-75632303D01*
X150041504Y-75655507D01*
X150033446Y-75678029D01*
X150023218Y-75699653D01*
X150010921Y-75720170D01*
X149996671Y-75739383D01*
X149980607Y-75757107D01*
X149962883Y-75773171D01*
X149943670Y-75787421D01*
X149923153Y-75799718D01*
X149901529Y-75809946D01*
X149879007Y-75818004D01*
X149855803Y-75823816D01*
X149832142Y-75827326D01*
X149808250Y-75828500D01*
X148895750Y-75828500D01*
X148871858Y-75827326D01*
X148848197Y-75823816D01*
X148824993Y-75818004D01*
X148802471Y-75809946D01*
X148780847Y-75799718D01*
X148760330Y-75787421D01*
X148741117Y-75773171D01*
X148723393Y-75757107D01*
X148707329Y-75739383D01*
X148693079Y-75720170D01*
X148680782Y-75699653D01*
X148670554Y-75678029D01*
X148662496Y-75655507D01*
X148656684Y-75632303D01*
X148653174Y-75608642D01*
X148652000Y-75584750D01*
X148652000Y-75097250D01*
X148653174Y-75073358D01*
X148656684Y-75049697D01*
X148662496Y-75026493D01*
X148670554Y-75003971D01*
X148680782Y-74982347D01*
X148693079Y-74961830D01*
X148707329Y-74942617D01*
X148723393Y-74924893D01*
X148741117Y-74908829D01*
X148760330Y-74894579D01*
X148780847Y-74882282D01*
X148802471Y-74872054D01*
X148824993Y-74863996D01*
X148848197Y-74858184D01*
X148871858Y-74854674D01*
X148895750Y-74853500D01*
X149808250Y-74853500D01*
X149832142Y-74854674D01*
X149832142Y-74854674D01*
G37*
D11*
X149352000Y-75341000D03*
D10*
G36*
X149832142Y-76729674D02*
X149855803Y-76733184D01*
X149879007Y-76738996D01*
X149901529Y-76747054D01*
X149923153Y-76757282D01*
X149943670Y-76769579D01*
X149962883Y-76783829D01*
X149980607Y-76799893D01*
X149996671Y-76817617D01*
X150010921Y-76836830D01*
X150023218Y-76857347D01*
X150033446Y-76878971D01*
X150041504Y-76901493D01*
X150047316Y-76924697D01*
X150050826Y-76948358D01*
X150052000Y-76972250D01*
X150052000Y-77459750D01*
X150050826Y-77483642D01*
X150047316Y-77507303D01*
X150041504Y-77530507D01*
X150033446Y-77553029D01*
X150023218Y-77574653D01*
X150010921Y-77595170D01*
X149996671Y-77614383D01*
X149980607Y-77632107D01*
X149962883Y-77648171D01*
X149943670Y-77662421D01*
X149923153Y-77674718D01*
X149901529Y-77684946D01*
X149879007Y-77693004D01*
X149855803Y-77698816D01*
X149832142Y-77702326D01*
X149808250Y-77703500D01*
X148895750Y-77703500D01*
X148871858Y-77702326D01*
X148848197Y-77698816D01*
X148824993Y-77693004D01*
X148802471Y-77684946D01*
X148780847Y-77674718D01*
X148760330Y-77662421D01*
X148741117Y-77648171D01*
X148723393Y-77632107D01*
X148707329Y-77614383D01*
X148693079Y-77595170D01*
X148680782Y-77574653D01*
X148670554Y-77553029D01*
X148662496Y-77530507D01*
X148656684Y-77507303D01*
X148653174Y-77483642D01*
X148652000Y-77459750D01*
X148652000Y-76972250D01*
X148653174Y-76948358D01*
X148656684Y-76924697D01*
X148662496Y-76901493D01*
X148670554Y-76878971D01*
X148680782Y-76857347D01*
X148693079Y-76836830D01*
X148707329Y-76817617D01*
X148723393Y-76799893D01*
X148741117Y-76783829D01*
X148760330Y-76769579D01*
X148780847Y-76757282D01*
X148802471Y-76747054D01*
X148824993Y-76738996D01*
X148848197Y-76733184D01*
X148871858Y-76729674D01*
X148895750Y-76728500D01*
X149808250Y-76728500D01*
X149832142Y-76729674D01*
X149832142Y-76729674D01*
G37*
D11*
X149352000Y-77216000D03*
G04 #@! TD*
D10*
G04 #@! TO.C,C2*
G36*
X137838642Y-74993174D02*
X137862303Y-74996684D01*
X137885507Y-75002496D01*
X137908029Y-75010554D01*
X137929653Y-75020782D01*
X137950170Y-75033079D01*
X137969383Y-75047329D01*
X137987107Y-75063393D01*
X138003171Y-75081117D01*
X138017421Y-75100330D01*
X138029718Y-75120847D01*
X138039946Y-75142471D01*
X138048004Y-75164993D01*
X138053816Y-75188197D01*
X138057326Y-75211858D01*
X138058500Y-75235750D01*
X138058500Y-76148250D01*
X138057326Y-76172142D01*
X138053816Y-76195803D01*
X138048004Y-76219007D01*
X138039946Y-76241529D01*
X138029718Y-76263153D01*
X138017421Y-76283670D01*
X138003171Y-76302883D01*
X137987107Y-76320607D01*
X137969383Y-76336671D01*
X137950170Y-76350921D01*
X137929653Y-76363218D01*
X137908029Y-76373446D01*
X137885507Y-76381504D01*
X137862303Y-76387316D01*
X137838642Y-76390826D01*
X137814750Y-76392000D01*
X137327250Y-76392000D01*
X137303358Y-76390826D01*
X137279697Y-76387316D01*
X137256493Y-76381504D01*
X137233971Y-76373446D01*
X137212347Y-76363218D01*
X137191830Y-76350921D01*
X137172617Y-76336671D01*
X137154893Y-76320607D01*
X137138829Y-76302883D01*
X137124579Y-76283670D01*
X137112282Y-76263153D01*
X137102054Y-76241529D01*
X137093996Y-76219007D01*
X137088184Y-76195803D01*
X137084674Y-76172142D01*
X137083500Y-76148250D01*
X137083500Y-75235750D01*
X137084674Y-75211858D01*
X137088184Y-75188197D01*
X137093996Y-75164993D01*
X137102054Y-75142471D01*
X137112282Y-75120847D01*
X137124579Y-75100330D01*
X137138829Y-75081117D01*
X137154893Y-75063393D01*
X137172617Y-75047329D01*
X137191830Y-75033079D01*
X137212347Y-75020782D01*
X137233971Y-75010554D01*
X137256493Y-75002496D01*
X137279697Y-74996684D01*
X137303358Y-74993174D01*
X137327250Y-74992000D01*
X137814750Y-74992000D01*
X137838642Y-74993174D01*
X137838642Y-74993174D01*
G37*
D11*
X137571000Y-75692000D03*
D10*
G36*
X139713642Y-74993174D02*
X139737303Y-74996684D01*
X139760507Y-75002496D01*
X139783029Y-75010554D01*
X139804653Y-75020782D01*
X139825170Y-75033079D01*
X139844383Y-75047329D01*
X139862107Y-75063393D01*
X139878171Y-75081117D01*
X139892421Y-75100330D01*
X139904718Y-75120847D01*
X139914946Y-75142471D01*
X139923004Y-75164993D01*
X139928816Y-75188197D01*
X139932326Y-75211858D01*
X139933500Y-75235750D01*
X139933500Y-76148250D01*
X139932326Y-76172142D01*
X139928816Y-76195803D01*
X139923004Y-76219007D01*
X139914946Y-76241529D01*
X139904718Y-76263153D01*
X139892421Y-76283670D01*
X139878171Y-76302883D01*
X139862107Y-76320607D01*
X139844383Y-76336671D01*
X139825170Y-76350921D01*
X139804653Y-76363218D01*
X139783029Y-76373446D01*
X139760507Y-76381504D01*
X139737303Y-76387316D01*
X139713642Y-76390826D01*
X139689750Y-76392000D01*
X139202250Y-76392000D01*
X139178358Y-76390826D01*
X139154697Y-76387316D01*
X139131493Y-76381504D01*
X139108971Y-76373446D01*
X139087347Y-76363218D01*
X139066830Y-76350921D01*
X139047617Y-76336671D01*
X139029893Y-76320607D01*
X139013829Y-76302883D01*
X138999579Y-76283670D01*
X138987282Y-76263153D01*
X138977054Y-76241529D01*
X138968996Y-76219007D01*
X138963184Y-76195803D01*
X138959674Y-76172142D01*
X138958500Y-76148250D01*
X138958500Y-75235750D01*
X138959674Y-75211858D01*
X138963184Y-75188197D01*
X138968996Y-75164993D01*
X138977054Y-75142471D01*
X138987282Y-75120847D01*
X138999579Y-75100330D01*
X139013829Y-75081117D01*
X139029893Y-75063393D01*
X139047617Y-75047329D01*
X139066830Y-75033079D01*
X139087347Y-75020782D01*
X139108971Y-75010554D01*
X139131493Y-75002496D01*
X139154697Y-74996684D01*
X139178358Y-74993174D01*
X139202250Y-74992000D01*
X139689750Y-74992000D01*
X139713642Y-74993174D01*
X139713642Y-74993174D01*
G37*
D11*
X139446000Y-75692000D03*
G04 #@! TD*
D10*
G04 #@! TO.C,C3*
G36*
X145047642Y-80581174D02*
X145071303Y-80584684D01*
X145094507Y-80590496D01*
X145117029Y-80598554D01*
X145138653Y-80608782D01*
X145159170Y-80621079D01*
X145178383Y-80635329D01*
X145196107Y-80651393D01*
X145212171Y-80669117D01*
X145226421Y-80688330D01*
X145238718Y-80708847D01*
X145248946Y-80730471D01*
X145257004Y-80752993D01*
X145262816Y-80776197D01*
X145266326Y-80799858D01*
X145267500Y-80823750D01*
X145267500Y-81736250D01*
X145266326Y-81760142D01*
X145262816Y-81783803D01*
X145257004Y-81807007D01*
X145248946Y-81829529D01*
X145238718Y-81851153D01*
X145226421Y-81871670D01*
X145212171Y-81890883D01*
X145196107Y-81908607D01*
X145178383Y-81924671D01*
X145159170Y-81938921D01*
X145138653Y-81951218D01*
X145117029Y-81961446D01*
X145094507Y-81969504D01*
X145071303Y-81975316D01*
X145047642Y-81978826D01*
X145023750Y-81980000D01*
X144536250Y-81980000D01*
X144512358Y-81978826D01*
X144488697Y-81975316D01*
X144465493Y-81969504D01*
X144442971Y-81961446D01*
X144421347Y-81951218D01*
X144400830Y-81938921D01*
X144381617Y-81924671D01*
X144363893Y-81908607D01*
X144347829Y-81890883D01*
X144333579Y-81871670D01*
X144321282Y-81851153D01*
X144311054Y-81829529D01*
X144302996Y-81807007D01*
X144297184Y-81783803D01*
X144293674Y-81760142D01*
X144292500Y-81736250D01*
X144292500Y-80823750D01*
X144293674Y-80799858D01*
X144297184Y-80776197D01*
X144302996Y-80752993D01*
X144311054Y-80730471D01*
X144321282Y-80708847D01*
X144333579Y-80688330D01*
X144347829Y-80669117D01*
X144363893Y-80651393D01*
X144381617Y-80635329D01*
X144400830Y-80621079D01*
X144421347Y-80608782D01*
X144442971Y-80598554D01*
X144465493Y-80590496D01*
X144488697Y-80584684D01*
X144512358Y-80581174D01*
X144536250Y-80580000D01*
X145023750Y-80580000D01*
X145047642Y-80581174D01*
X145047642Y-80581174D01*
G37*
D11*
X144780000Y-81280000D03*
D10*
G36*
X146922642Y-80581174D02*
X146946303Y-80584684D01*
X146969507Y-80590496D01*
X146992029Y-80598554D01*
X147013653Y-80608782D01*
X147034170Y-80621079D01*
X147053383Y-80635329D01*
X147071107Y-80651393D01*
X147087171Y-80669117D01*
X147101421Y-80688330D01*
X147113718Y-80708847D01*
X147123946Y-80730471D01*
X147132004Y-80752993D01*
X147137816Y-80776197D01*
X147141326Y-80799858D01*
X147142500Y-80823750D01*
X147142500Y-81736250D01*
X147141326Y-81760142D01*
X147137816Y-81783803D01*
X147132004Y-81807007D01*
X147123946Y-81829529D01*
X147113718Y-81851153D01*
X147101421Y-81871670D01*
X147087171Y-81890883D01*
X147071107Y-81908607D01*
X147053383Y-81924671D01*
X147034170Y-81938921D01*
X147013653Y-81951218D01*
X146992029Y-81961446D01*
X146969507Y-81969504D01*
X146946303Y-81975316D01*
X146922642Y-81978826D01*
X146898750Y-81980000D01*
X146411250Y-81980000D01*
X146387358Y-81978826D01*
X146363697Y-81975316D01*
X146340493Y-81969504D01*
X146317971Y-81961446D01*
X146296347Y-81951218D01*
X146275830Y-81938921D01*
X146256617Y-81924671D01*
X146238893Y-81908607D01*
X146222829Y-81890883D01*
X146208579Y-81871670D01*
X146196282Y-81851153D01*
X146186054Y-81829529D01*
X146177996Y-81807007D01*
X146172184Y-81783803D01*
X146168674Y-81760142D01*
X146167500Y-81736250D01*
X146167500Y-80823750D01*
X146168674Y-80799858D01*
X146172184Y-80776197D01*
X146177996Y-80752993D01*
X146186054Y-80730471D01*
X146196282Y-80708847D01*
X146208579Y-80688330D01*
X146222829Y-80669117D01*
X146238893Y-80651393D01*
X146256617Y-80635329D01*
X146275830Y-80621079D01*
X146296347Y-80608782D01*
X146317971Y-80598554D01*
X146340493Y-80590496D01*
X146363697Y-80584684D01*
X146387358Y-80581174D01*
X146411250Y-80580000D01*
X146898750Y-80580000D01*
X146922642Y-80581174D01*
X146922642Y-80581174D01*
G37*
D11*
X146655000Y-81280000D03*
G04 #@! TD*
D10*
G04 #@! TO.C,C4*
G36*
X148954642Y-86423174D02*
X148978303Y-86426684D01*
X149001507Y-86432496D01*
X149024029Y-86440554D01*
X149045653Y-86450782D01*
X149066170Y-86463079D01*
X149085383Y-86477329D01*
X149103107Y-86493393D01*
X149119171Y-86511117D01*
X149133421Y-86530330D01*
X149145718Y-86550847D01*
X149155946Y-86572471D01*
X149164004Y-86594993D01*
X149169816Y-86618197D01*
X149173326Y-86641858D01*
X149174500Y-86665750D01*
X149174500Y-87578250D01*
X149173326Y-87602142D01*
X149169816Y-87625803D01*
X149164004Y-87649007D01*
X149155946Y-87671529D01*
X149145718Y-87693153D01*
X149133421Y-87713670D01*
X149119171Y-87732883D01*
X149103107Y-87750607D01*
X149085383Y-87766671D01*
X149066170Y-87780921D01*
X149045653Y-87793218D01*
X149024029Y-87803446D01*
X149001507Y-87811504D01*
X148978303Y-87817316D01*
X148954642Y-87820826D01*
X148930750Y-87822000D01*
X148443250Y-87822000D01*
X148419358Y-87820826D01*
X148395697Y-87817316D01*
X148372493Y-87811504D01*
X148349971Y-87803446D01*
X148328347Y-87793218D01*
X148307830Y-87780921D01*
X148288617Y-87766671D01*
X148270893Y-87750607D01*
X148254829Y-87732883D01*
X148240579Y-87713670D01*
X148228282Y-87693153D01*
X148218054Y-87671529D01*
X148209996Y-87649007D01*
X148204184Y-87625803D01*
X148200674Y-87602142D01*
X148199500Y-87578250D01*
X148199500Y-86665750D01*
X148200674Y-86641858D01*
X148204184Y-86618197D01*
X148209996Y-86594993D01*
X148218054Y-86572471D01*
X148228282Y-86550847D01*
X148240579Y-86530330D01*
X148254829Y-86511117D01*
X148270893Y-86493393D01*
X148288617Y-86477329D01*
X148307830Y-86463079D01*
X148328347Y-86450782D01*
X148349971Y-86440554D01*
X148372493Y-86432496D01*
X148395697Y-86426684D01*
X148419358Y-86423174D01*
X148443250Y-86422000D01*
X148930750Y-86422000D01*
X148954642Y-86423174D01*
X148954642Y-86423174D01*
G37*
D11*
X148687000Y-87122000D03*
D10*
G36*
X147079642Y-86423174D02*
X147103303Y-86426684D01*
X147126507Y-86432496D01*
X147149029Y-86440554D01*
X147170653Y-86450782D01*
X147191170Y-86463079D01*
X147210383Y-86477329D01*
X147228107Y-86493393D01*
X147244171Y-86511117D01*
X147258421Y-86530330D01*
X147270718Y-86550847D01*
X147280946Y-86572471D01*
X147289004Y-86594993D01*
X147294816Y-86618197D01*
X147298326Y-86641858D01*
X147299500Y-86665750D01*
X147299500Y-87578250D01*
X147298326Y-87602142D01*
X147294816Y-87625803D01*
X147289004Y-87649007D01*
X147280946Y-87671529D01*
X147270718Y-87693153D01*
X147258421Y-87713670D01*
X147244171Y-87732883D01*
X147228107Y-87750607D01*
X147210383Y-87766671D01*
X147191170Y-87780921D01*
X147170653Y-87793218D01*
X147149029Y-87803446D01*
X147126507Y-87811504D01*
X147103303Y-87817316D01*
X147079642Y-87820826D01*
X147055750Y-87822000D01*
X146568250Y-87822000D01*
X146544358Y-87820826D01*
X146520697Y-87817316D01*
X146497493Y-87811504D01*
X146474971Y-87803446D01*
X146453347Y-87793218D01*
X146432830Y-87780921D01*
X146413617Y-87766671D01*
X146395893Y-87750607D01*
X146379829Y-87732883D01*
X146365579Y-87713670D01*
X146353282Y-87693153D01*
X146343054Y-87671529D01*
X146334996Y-87649007D01*
X146329184Y-87625803D01*
X146325674Y-87602142D01*
X146324500Y-87578250D01*
X146324500Y-86665750D01*
X146325674Y-86641858D01*
X146329184Y-86618197D01*
X146334996Y-86594993D01*
X146343054Y-86572471D01*
X146353282Y-86550847D01*
X146365579Y-86530330D01*
X146379829Y-86511117D01*
X146395893Y-86493393D01*
X146413617Y-86477329D01*
X146432830Y-86463079D01*
X146453347Y-86450782D01*
X146474971Y-86440554D01*
X146497493Y-86432496D01*
X146520697Y-86426684D01*
X146544358Y-86423174D01*
X146568250Y-86422000D01*
X147055750Y-86422000D01*
X147079642Y-86423174D01*
X147079642Y-86423174D01*
G37*
D11*
X146812000Y-87122000D03*
G04 #@! TD*
D10*
G04 #@! TO.C,L2*
G36*
X142889504Y-79117704D02*
X142913773Y-79121304D01*
X142937571Y-79127265D01*
X142960671Y-79135530D01*
X142982849Y-79146020D01*
X143003893Y-79158633D01*
X143023598Y-79173247D01*
X143041777Y-79189723D01*
X143058253Y-79207902D01*
X143072867Y-79227607D01*
X143085480Y-79248651D01*
X143095970Y-79270829D01*
X143104235Y-79293929D01*
X143110196Y-79317727D01*
X143113796Y-79341996D01*
X143115000Y-79366500D01*
X143115000Y-80291500D01*
X143113796Y-80316004D01*
X143110196Y-80340273D01*
X143104235Y-80364071D01*
X143095970Y-80387171D01*
X143085480Y-80409349D01*
X143072867Y-80430393D01*
X143058253Y-80450098D01*
X143041777Y-80468277D01*
X143023598Y-80484753D01*
X143003893Y-80499367D01*
X142982849Y-80511980D01*
X142960671Y-80522470D01*
X142937571Y-80530735D01*
X142913773Y-80536696D01*
X142889504Y-80540296D01*
X142865000Y-80541500D01*
X141615000Y-80541500D01*
X141590496Y-80540296D01*
X141566227Y-80536696D01*
X141542429Y-80530735D01*
X141519329Y-80522470D01*
X141497151Y-80511980D01*
X141476107Y-80499367D01*
X141456402Y-80484753D01*
X141438223Y-80468277D01*
X141421747Y-80450098D01*
X141407133Y-80430393D01*
X141394520Y-80409349D01*
X141384030Y-80387171D01*
X141375765Y-80364071D01*
X141369804Y-80340273D01*
X141366204Y-80316004D01*
X141365000Y-80291500D01*
X141365000Y-79366500D01*
X141366204Y-79341996D01*
X141369804Y-79317727D01*
X141375765Y-79293929D01*
X141384030Y-79270829D01*
X141394520Y-79248651D01*
X141407133Y-79227607D01*
X141421747Y-79207902D01*
X141438223Y-79189723D01*
X141456402Y-79173247D01*
X141476107Y-79158633D01*
X141497151Y-79146020D01*
X141519329Y-79135530D01*
X141542429Y-79127265D01*
X141566227Y-79121304D01*
X141590496Y-79117704D01*
X141615000Y-79116500D01*
X142865000Y-79116500D01*
X142889504Y-79117704D01*
X142889504Y-79117704D01*
G37*
D12*
X142240000Y-79829000D03*
D10*
G36*
X142889504Y-82092704D02*
X142913773Y-82096304D01*
X142937571Y-82102265D01*
X142960671Y-82110530D01*
X142982849Y-82121020D01*
X143003893Y-82133633D01*
X143023598Y-82148247D01*
X143041777Y-82164723D01*
X143058253Y-82182902D01*
X143072867Y-82202607D01*
X143085480Y-82223651D01*
X143095970Y-82245829D01*
X143104235Y-82268929D01*
X143110196Y-82292727D01*
X143113796Y-82316996D01*
X143115000Y-82341500D01*
X143115000Y-83266500D01*
X143113796Y-83291004D01*
X143110196Y-83315273D01*
X143104235Y-83339071D01*
X143095970Y-83362171D01*
X143085480Y-83384349D01*
X143072867Y-83405393D01*
X143058253Y-83425098D01*
X143041777Y-83443277D01*
X143023598Y-83459753D01*
X143003893Y-83474367D01*
X142982849Y-83486980D01*
X142960671Y-83497470D01*
X142937571Y-83505735D01*
X142913773Y-83511696D01*
X142889504Y-83515296D01*
X142865000Y-83516500D01*
X141615000Y-83516500D01*
X141590496Y-83515296D01*
X141566227Y-83511696D01*
X141542429Y-83505735D01*
X141519329Y-83497470D01*
X141497151Y-83486980D01*
X141476107Y-83474367D01*
X141456402Y-83459753D01*
X141438223Y-83443277D01*
X141421747Y-83425098D01*
X141407133Y-83405393D01*
X141394520Y-83384349D01*
X141384030Y-83362171D01*
X141375765Y-83339071D01*
X141369804Y-83315273D01*
X141366204Y-83291004D01*
X141365000Y-83266500D01*
X141365000Y-82341500D01*
X141366204Y-82316996D01*
X141369804Y-82292727D01*
X141375765Y-82268929D01*
X141384030Y-82245829D01*
X141394520Y-82223651D01*
X141407133Y-82202607D01*
X141421747Y-82182902D01*
X141438223Y-82164723D01*
X141456402Y-82148247D01*
X141476107Y-82133633D01*
X141497151Y-82121020D01*
X141519329Y-82110530D01*
X141542429Y-82102265D01*
X141566227Y-82096304D01*
X141590496Y-82092704D01*
X141615000Y-82091500D01*
X142865000Y-82091500D01*
X142889504Y-82092704D01*
X142889504Y-82092704D01*
G37*
D12*
X142240000Y-82804000D03*
G04 #@! TD*
D10*
G04 #@! TO.C,R1*
G36*
X143395504Y-71516204D02*
X143419773Y-71519804D01*
X143443571Y-71525765D01*
X143466671Y-71534030D01*
X143488849Y-71544520D01*
X143509893Y-71557133D01*
X143529598Y-71571747D01*
X143547777Y-71588223D01*
X143564253Y-71606402D01*
X143578867Y-71626107D01*
X143591480Y-71647151D01*
X143601970Y-71669329D01*
X143610235Y-71692429D01*
X143616196Y-71716227D01*
X143619796Y-71740496D01*
X143621000Y-71765000D01*
X143621000Y-73015000D01*
X143619796Y-73039504D01*
X143616196Y-73063773D01*
X143610235Y-73087571D01*
X143601970Y-73110671D01*
X143591480Y-73132849D01*
X143578867Y-73153893D01*
X143564253Y-73173598D01*
X143547777Y-73191777D01*
X143529598Y-73208253D01*
X143509893Y-73222867D01*
X143488849Y-73235480D01*
X143466671Y-73245970D01*
X143443571Y-73254235D01*
X143419773Y-73260196D01*
X143395504Y-73263796D01*
X143371000Y-73265000D01*
X142621000Y-73265000D01*
X142596496Y-73263796D01*
X142572227Y-73260196D01*
X142548429Y-73254235D01*
X142525329Y-73245970D01*
X142503151Y-73235480D01*
X142482107Y-73222867D01*
X142462402Y-73208253D01*
X142444223Y-73191777D01*
X142427747Y-73173598D01*
X142413133Y-73153893D01*
X142400520Y-73132849D01*
X142390030Y-73110671D01*
X142381765Y-73087571D01*
X142375804Y-73063773D01*
X142372204Y-73039504D01*
X142371000Y-73015000D01*
X142371000Y-71765000D01*
X142372204Y-71740496D01*
X142375804Y-71716227D01*
X142381765Y-71692429D01*
X142390030Y-71669329D01*
X142400520Y-71647151D01*
X142413133Y-71626107D01*
X142427747Y-71606402D01*
X142444223Y-71588223D01*
X142462402Y-71571747D01*
X142482107Y-71557133D01*
X142503151Y-71544520D01*
X142525329Y-71534030D01*
X142548429Y-71525765D01*
X142572227Y-71519804D01*
X142596496Y-71516204D01*
X142621000Y-71515000D01*
X143371000Y-71515000D01*
X143395504Y-71516204D01*
X143395504Y-71516204D01*
G37*
D13*
X142996000Y-72390000D03*
D10*
G36*
X146195504Y-71516204D02*
X146219773Y-71519804D01*
X146243571Y-71525765D01*
X146266671Y-71534030D01*
X146288849Y-71544520D01*
X146309893Y-71557133D01*
X146329598Y-71571747D01*
X146347777Y-71588223D01*
X146364253Y-71606402D01*
X146378867Y-71626107D01*
X146391480Y-71647151D01*
X146401970Y-71669329D01*
X146410235Y-71692429D01*
X146416196Y-71716227D01*
X146419796Y-71740496D01*
X146421000Y-71765000D01*
X146421000Y-73015000D01*
X146419796Y-73039504D01*
X146416196Y-73063773D01*
X146410235Y-73087571D01*
X146401970Y-73110671D01*
X146391480Y-73132849D01*
X146378867Y-73153893D01*
X146364253Y-73173598D01*
X146347777Y-73191777D01*
X146329598Y-73208253D01*
X146309893Y-73222867D01*
X146288849Y-73235480D01*
X146266671Y-73245970D01*
X146243571Y-73254235D01*
X146219773Y-73260196D01*
X146195504Y-73263796D01*
X146171000Y-73265000D01*
X145421000Y-73265000D01*
X145396496Y-73263796D01*
X145372227Y-73260196D01*
X145348429Y-73254235D01*
X145325329Y-73245970D01*
X145303151Y-73235480D01*
X145282107Y-73222867D01*
X145262402Y-73208253D01*
X145244223Y-73191777D01*
X145227747Y-73173598D01*
X145213133Y-73153893D01*
X145200520Y-73132849D01*
X145190030Y-73110671D01*
X145181765Y-73087571D01*
X145175804Y-73063773D01*
X145172204Y-73039504D01*
X145171000Y-73015000D01*
X145171000Y-71765000D01*
X145172204Y-71740496D01*
X145175804Y-71716227D01*
X145181765Y-71692429D01*
X145190030Y-71669329D01*
X145200520Y-71647151D01*
X145213133Y-71626107D01*
X145227747Y-71606402D01*
X145244223Y-71588223D01*
X145262402Y-71571747D01*
X145282107Y-71557133D01*
X145303151Y-71544520D01*
X145325329Y-71534030D01*
X145348429Y-71525765D01*
X145372227Y-71519804D01*
X145396496Y-71516204D01*
X145421000Y-71515000D01*
X146171000Y-71515000D01*
X146195504Y-71516204D01*
X146195504Y-71516204D01*
G37*
D13*
X145796000Y-72390000D03*
G04 #@! TD*
D10*
G04 #@! TO.C,R2*
G36*
X139079504Y-78364204D02*
X139103773Y-78367804D01*
X139127571Y-78373765D01*
X139150671Y-78382030D01*
X139172849Y-78392520D01*
X139193893Y-78405133D01*
X139213598Y-78419747D01*
X139231777Y-78436223D01*
X139248253Y-78454402D01*
X139262867Y-78474107D01*
X139275480Y-78495151D01*
X139285970Y-78517329D01*
X139294235Y-78540429D01*
X139300196Y-78564227D01*
X139303796Y-78588496D01*
X139305000Y-78613000D01*
X139305000Y-79363000D01*
X139303796Y-79387504D01*
X139300196Y-79411773D01*
X139294235Y-79435571D01*
X139285970Y-79458671D01*
X139275480Y-79480849D01*
X139262867Y-79501893D01*
X139248253Y-79521598D01*
X139231777Y-79539777D01*
X139213598Y-79556253D01*
X139193893Y-79570867D01*
X139172849Y-79583480D01*
X139150671Y-79593970D01*
X139127571Y-79602235D01*
X139103773Y-79608196D01*
X139079504Y-79611796D01*
X139055000Y-79613000D01*
X137805000Y-79613000D01*
X137780496Y-79611796D01*
X137756227Y-79608196D01*
X137732429Y-79602235D01*
X137709329Y-79593970D01*
X137687151Y-79583480D01*
X137666107Y-79570867D01*
X137646402Y-79556253D01*
X137628223Y-79539777D01*
X137611747Y-79521598D01*
X137597133Y-79501893D01*
X137584520Y-79480849D01*
X137574030Y-79458671D01*
X137565765Y-79435571D01*
X137559804Y-79411773D01*
X137556204Y-79387504D01*
X137555000Y-79363000D01*
X137555000Y-78613000D01*
X137556204Y-78588496D01*
X137559804Y-78564227D01*
X137565765Y-78540429D01*
X137574030Y-78517329D01*
X137584520Y-78495151D01*
X137597133Y-78474107D01*
X137611747Y-78454402D01*
X137628223Y-78436223D01*
X137646402Y-78419747D01*
X137666107Y-78405133D01*
X137687151Y-78392520D01*
X137709329Y-78382030D01*
X137732429Y-78373765D01*
X137756227Y-78367804D01*
X137780496Y-78364204D01*
X137805000Y-78363000D01*
X139055000Y-78363000D01*
X139079504Y-78364204D01*
X139079504Y-78364204D01*
G37*
D13*
X138430000Y-78988000D03*
D10*
G36*
X139079504Y-81164204D02*
X139103773Y-81167804D01*
X139127571Y-81173765D01*
X139150671Y-81182030D01*
X139172849Y-81192520D01*
X139193893Y-81205133D01*
X139213598Y-81219747D01*
X139231777Y-81236223D01*
X139248253Y-81254402D01*
X139262867Y-81274107D01*
X139275480Y-81295151D01*
X139285970Y-81317329D01*
X139294235Y-81340429D01*
X139300196Y-81364227D01*
X139303796Y-81388496D01*
X139305000Y-81413000D01*
X139305000Y-82163000D01*
X139303796Y-82187504D01*
X139300196Y-82211773D01*
X139294235Y-82235571D01*
X139285970Y-82258671D01*
X139275480Y-82280849D01*
X139262867Y-82301893D01*
X139248253Y-82321598D01*
X139231777Y-82339777D01*
X139213598Y-82356253D01*
X139193893Y-82370867D01*
X139172849Y-82383480D01*
X139150671Y-82393970D01*
X139127571Y-82402235D01*
X139103773Y-82408196D01*
X139079504Y-82411796D01*
X139055000Y-82413000D01*
X137805000Y-82413000D01*
X137780496Y-82411796D01*
X137756227Y-82408196D01*
X137732429Y-82402235D01*
X137709329Y-82393970D01*
X137687151Y-82383480D01*
X137666107Y-82370867D01*
X137646402Y-82356253D01*
X137628223Y-82339777D01*
X137611747Y-82321598D01*
X137597133Y-82301893D01*
X137584520Y-82280849D01*
X137574030Y-82258671D01*
X137565765Y-82235571D01*
X137559804Y-82211773D01*
X137556204Y-82187504D01*
X137555000Y-82163000D01*
X137555000Y-81413000D01*
X137556204Y-81388496D01*
X137559804Y-81364227D01*
X137565765Y-81340429D01*
X137574030Y-81317329D01*
X137584520Y-81295151D01*
X137597133Y-81274107D01*
X137611747Y-81254402D01*
X137628223Y-81236223D01*
X137646402Y-81219747D01*
X137666107Y-81205133D01*
X137687151Y-81192520D01*
X137709329Y-81182030D01*
X137732429Y-81173765D01*
X137756227Y-81167804D01*
X137780496Y-81164204D01*
X137805000Y-81163000D01*
X139055000Y-81163000D01*
X139079504Y-81164204D01*
X139079504Y-81164204D01*
G37*
D13*
X138430000Y-81788000D03*
G04 #@! TD*
D10*
G04 #@! TO.C,L1*
G36*
X146860504Y-74247204D02*
X146884773Y-74250804D01*
X146908571Y-74256765D01*
X146931671Y-74265030D01*
X146953849Y-74275520D01*
X146974893Y-74288133D01*
X146994598Y-74302747D01*
X147012777Y-74319223D01*
X147029253Y-74337402D01*
X147043867Y-74357107D01*
X147056480Y-74378151D01*
X147066970Y-74400329D01*
X147075235Y-74423429D01*
X147081196Y-74447227D01*
X147084796Y-74471496D01*
X147086000Y-74496000D01*
X147086000Y-77396000D01*
X147084796Y-77420504D01*
X147081196Y-77444773D01*
X147075235Y-77468571D01*
X147066970Y-77491671D01*
X147056480Y-77513849D01*
X147043867Y-77534893D01*
X147029253Y-77554598D01*
X147012777Y-77572777D01*
X146994598Y-77589253D01*
X146974893Y-77603867D01*
X146953849Y-77616480D01*
X146931671Y-77626970D01*
X146908571Y-77635235D01*
X146884773Y-77641196D01*
X146860504Y-77644796D01*
X146836000Y-77646000D01*
X146036000Y-77646000D01*
X146011496Y-77644796D01*
X145987227Y-77641196D01*
X145963429Y-77635235D01*
X145940329Y-77626970D01*
X145918151Y-77616480D01*
X145897107Y-77603867D01*
X145877402Y-77589253D01*
X145859223Y-77572777D01*
X145842747Y-77554598D01*
X145828133Y-77534893D01*
X145815520Y-77513849D01*
X145805030Y-77491671D01*
X145796765Y-77468571D01*
X145790804Y-77444773D01*
X145787204Y-77420504D01*
X145786000Y-77396000D01*
X145786000Y-74496000D01*
X145787204Y-74471496D01*
X145790804Y-74447227D01*
X145796765Y-74423429D01*
X145805030Y-74400329D01*
X145815520Y-74378151D01*
X145828133Y-74357107D01*
X145842747Y-74337402D01*
X145859223Y-74319223D01*
X145877402Y-74302747D01*
X145897107Y-74288133D01*
X145918151Y-74275520D01*
X145940329Y-74265030D01*
X145963429Y-74256765D01*
X145987227Y-74250804D01*
X146011496Y-74247204D01*
X146036000Y-74246000D01*
X146836000Y-74246000D01*
X146860504Y-74247204D01*
X146860504Y-74247204D01*
G37*
D14*
X146436000Y-75946000D03*
D10*
G36*
X142410504Y-74247204D02*
X142434773Y-74250804D01*
X142458571Y-74256765D01*
X142481671Y-74265030D01*
X142503849Y-74275520D01*
X142524893Y-74288133D01*
X142544598Y-74302747D01*
X142562777Y-74319223D01*
X142579253Y-74337402D01*
X142593867Y-74357107D01*
X142606480Y-74378151D01*
X142616970Y-74400329D01*
X142625235Y-74423429D01*
X142631196Y-74447227D01*
X142634796Y-74471496D01*
X142636000Y-74496000D01*
X142636000Y-77396000D01*
X142634796Y-77420504D01*
X142631196Y-77444773D01*
X142625235Y-77468571D01*
X142616970Y-77491671D01*
X142606480Y-77513849D01*
X142593867Y-77534893D01*
X142579253Y-77554598D01*
X142562777Y-77572777D01*
X142544598Y-77589253D01*
X142524893Y-77603867D01*
X142503849Y-77616480D01*
X142481671Y-77626970D01*
X142458571Y-77635235D01*
X142434773Y-77641196D01*
X142410504Y-77644796D01*
X142386000Y-77646000D01*
X141586000Y-77646000D01*
X141561496Y-77644796D01*
X141537227Y-77641196D01*
X141513429Y-77635235D01*
X141490329Y-77626970D01*
X141468151Y-77616480D01*
X141447107Y-77603867D01*
X141427402Y-77589253D01*
X141409223Y-77572777D01*
X141392747Y-77554598D01*
X141378133Y-77534893D01*
X141365520Y-77513849D01*
X141355030Y-77491671D01*
X141346765Y-77468571D01*
X141340804Y-77444773D01*
X141337204Y-77420504D01*
X141336000Y-77396000D01*
X141336000Y-74496000D01*
X141337204Y-74471496D01*
X141340804Y-74447227D01*
X141346765Y-74423429D01*
X141355030Y-74400329D01*
X141365520Y-74378151D01*
X141378133Y-74357107D01*
X141392747Y-74337402D01*
X141409223Y-74319223D01*
X141427402Y-74302747D01*
X141447107Y-74288133D01*
X141468151Y-74275520D01*
X141490329Y-74265030D01*
X141513429Y-74256765D01*
X141537227Y-74250804D01*
X141561496Y-74247204D01*
X141586000Y-74246000D01*
X142386000Y-74246000D01*
X142410504Y-74247204D01*
X142410504Y-74247204D01*
G37*
D14*
X141986000Y-75946000D03*
G04 #@! TD*
D10*
G04 #@! TO.C,L3*
G36*
X142517691Y-85110553D02*
X142538926Y-85113703D01*
X142559750Y-85118919D01*
X142579962Y-85126151D01*
X142599368Y-85135330D01*
X142617781Y-85146366D01*
X142635024Y-85159154D01*
X142650930Y-85173570D01*
X142665346Y-85189476D01*
X142678134Y-85206719D01*
X142689170Y-85225132D01*
X142698349Y-85244538D01*
X142705581Y-85264750D01*
X142710797Y-85285574D01*
X142713947Y-85306809D01*
X142715000Y-85328250D01*
X142715000Y-85765750D01*
X142713947Y-85787191D01*
X142710797Y-85808426D01*
X142705581Y-85829250D01*
X142698349Y-85849462D01*
X142689170Y-85868868D01*
X142678134Y-85887281D01*
X142665346Y-85904524D01*
X142650930Y-85920430D01*
X142635024Y-85934846D01*
X142617781Y-85947634D01*
X142599368Y-85958670D01*
X142579962Y-85967849D01*
X142559750Y-85975081D01*
X142538926Y-85980297D01*
X142517691Y-85983447D01*
X142496250Y-85984500D01*
X141983750Y-85984500D01*
X141962309Y-85983447D01*
X141941074Y-85980297D01*
X141920250Y-85975081D01*
X141900038Y-85967849D01*
X141880632Y-85958670D01*
X141862219Y-85947634D01*
X141844976Y-85934846D01*
X141829070Y-85920430D01*
X141814654Y-85904524D01*
X141801866Y-85887281D01*
X141790830Y-85868868D01*
X141781651Y-85849462D01*
X141774419Y-85829250D01*
X141769203Y-85808426D01*
X141766053Y-85787191D01*
X141765000Y-85765750D01*
X141765000Y-85328250D01*
X141766053Y-85306809D01*
X141769203Y-85285574D01*
X141774419Y-85264750D01*
X141781651Y-85244538D01*
X141790830Y-85225132D01*
X141801866Y-85206719D01*
X141814654Y-85189476D01*
X141829070Y-85173570D01*
X141844976Y-85159154D01*
X141862219Y-85146366D01*
X141880632Y-85135330D01*
X141900038Y-85126151D01*
X141920250Y-85118919D01*
X141941074Y-85113703D01*
X141962309Y-85110553D01*
X141983750Y-85109500D01*
X142496250Y-85109500D01*
X142517691Y-85110553D01*
X142517691Y-85110553D01*
G37*
D15*
X142240000Y-85547000D03*
D10*
G36*
X142517691Y-86685553D02*
X142538926Y-86688703D01*
X142559750Y-86693919D01*
X142579962Y-86701151D01*
X142599368Y-86710330D01*
X142617781Y-86721366D01*
X142635024Y-86734154D01*
X142650930Y-86748570D01*
X142665346Y-86764476D01*
X142678134Y-86781719D01*
X142689170Y-86800132D01*
X142698349Y-86819538D01*
X142705581Y-86839750D01*
X142710797Y-86860574D01*
X142713947Y-86881809D01*
X142715000Y-86903250D01*
X142715000Y-87340750D01*
X142713947Y-87362191D01*
X142710797Y-87383426D01*
X142705581Y-87404250D01*
X142698349Y-87424462D01*
X142689170Y-87443868D01*
X142678134Y-87462281D01*
X142665346Y-87479524D01*
X142650930Y-87495430D01*
X142635024Y-87509846D01*
X142617781Y-87522634D01*
X142599368Y-87533670D01*
X142579962Y-87542849D01*
X142559750Y-87550081D01*
X142538926Y-87555297D01*
X142517691Y-87558447D01*
X142496250Y-87559500D01*
X141983750Y-87559500D01*
X141962309Y-87558447D01*
X141941074Y-87555297D01*
X141920250Y-87550081D01*
X141900038Y-87542849D01*
X141880632Y-87533670D01*
X141862219Y-87522634D01*
X141844976Y-87509846D01*
X141829070Y-87495430D01*
X141814654Y-87479524D01*
X141801866Y-87462281D01*
X141790830Y-87443868D01*
X141781651Y-87424462D01*
X141774419Y-87404250D01*
X141769203Y-87383426D01*
X141766053Y-87362191D01*
X141765000Y-87340750D01*
X141765000Y-86903250D01*
X141766053Y-86881809D01*
X141769203Y-86860574D01*
X141774419Y-86839750D01*
X141781651Y-86819538D01*
X141790830Y-86800132D01*
X141801866Y-86781719D01*
X141814654Y-86764476D01*
X141829070Y-86748570D01*
X141844976Y-86734154D01*
X141862219Y-86721366D01*
X141880632Y-86710330D01*
X141900038Y-86701151D01*
X141920250Y-86693919D01*
X141941074Y-86688703D01*
X141962309Y-86685553D01*
X141983750Y-86684500D01*
X142496250Y-86684500D01*
X142517691Y-86685553D01*
X142517691Y-86685553D01*
G37*
D15*
X142240000Y-87122000D03*
G04 #@! TD*
M02*
