G04 #@! TF.GenerationSoftware,KiCad,Pcbnew,5.0.1*
G04 #@! TF.CreationDate,2018-12-27T15:17:57+01:00*
G04 #@! TF.ProjectId,BiasT,42696173542E6B696361645F70636200,rev?*
G04 #@! TF.SameCoordinates,Original*
G04 #@! TF.FileFunction,Soldermask,Top*
G04 #@! TF.FilePolarity,Negative*
%FSLAX46Y46*%
G04 Gerber Fmt 4.6, Leading zero omitted, Abs format (unit mm)*
G04 Created by KiCad (PCBNEW 5.0.1) date Do 27 Dez 2018 15:17:57 CET*
%MOMM*%
%LPD*%
G01*
G04 APERTURE LIST*
%ADD10C,0.100000*%
G04 APERTURE END LIST*
D10*
G36*
X158535000Y-90475000D02*
X154369000Y-90475000D01*
X154369000Y-88849000D01*
X158535000Y-88849000D01*
X158535000Y-90475000D01*
X158535000Y-90475000D01*
G37*
G36*
X135179000Y-90475000D02*
X131013000Y-90475000D01*
X131013000Y-88849000D01*
X135179000Y-88849000D01*
X135179000Y-90475000D01*
X135179000Y-90475000D01*
G37*
G36*
X158535000Y-87935000D02*
X154369000Y-87935000D01*
X154369000Y-86309000D01*
X158535000Y-86309000D01*
X158535000Y-87935000D01*
X158535000Y-87935000D01*
G37*
G36*
X135179000Y-87935000D02*
X131013000Y-87935000D01*
X131013000Y-86309000D01*
X135179000Y-86309000D01*
X135179000Y-87935000D01*
X135179000Y-87935000D01*
G37*
G36*
X149058966Y-86375565D02*
X149097637Y-86387296D01*
X149133279Y-86406348D01*
X149164517Y-86431983D01*
X149190152Y-86463221D01*
X149209204Y-86498863D01*
X149220935Y-86537534D01*
X149225500Y-86583888D01*
X149225500Y-87660112D01*
X149220935Y-87706466D01*
X149209204Y-87745137D01*
X149190152Y-87780779D01*
X149164517Y-87812017D01*
X149133279Y-87837652D01*
X149097637Y-87856704D01*
X149058966Y-87868435D01*
X149012612Y-87873000D01*
X148361388Y-87873000D01*
X148315034Y-87868435D01*
X148276363Y-87856704D01*
X148240721Y-87837652D01*
X148209483Y-87812017D01*
X148183848Y-87780779D01*
X148164796Y-87745137D01*
X148153065Y-87706466D01*
X148148500Y-87660112D01*
X148148500Y-86583888D01*
X148153065Y-86537534D01*
X148164796Y-86498863D01*
X148183848Y-86463221D01*
X148209483Y-86431983D01*
X148240721Y-86406348D01*
X148276363Y-86387296D01*
X148315034Y-86375565D01*
X148361388Y-86371000D01*
X149012612Y-86371000D01*
X149058966Y-86375565D01*
X149058966Y-86375565D01*
G37*
G36*
X147183966Y-86375565D02*
X147222637Y-86387296D01*
X147258279Y-86406348D01*
X147289517Y-86431983D01*
X147315152Y-86463221D01*
X147334204Y-86498863D01*
X147345935Y-86537534D01*
X147350500Y-86583888D01*
X147350500Y-87660112D01*
X147345935Y-87706466D01*
X147334204Y-87745137D01*
X147315152Y-87780779D01*
X147289517Y-87812017D01*
X147258279Y-87837652D01*
X147222637Y-87856704D01*
X147183966Y-87868435D01*
X147137612Y-87873000D01*
X146486388Y-87873000D01*
X146440034Y-87868435D01*
X146401363Y-87856704D01*
X146365721Y-87837652D01*
X146334483Y-87812017D01*
X146308848Y-87780779D01*
X146289796Y-87745137D01*
X146278065Y-87706466D01*
X146273500Y-87660112D01*
X146273500Y-86583888D01*
X146278065Y-86537534D01*
X146289796Y-86498863D01*
X146308848Y-86463221D01*
X146334483Y-86431983D01*
X146365721Y-86406348D01*
X146401363Y-86387296D01*
X146440034Y-86375565D01*
X146486388Y-86371000D01*
X147137612Y-86371000D01*
X147183966Y-86375565D01*
X147183966Y-86375565D01*
G37*
G36*
X142619591Y-86637585D02*
X142653569Y-86647893D01*
X142684887Y-86664633D01*
X142712339Y-86687161D01*
X142734867Y-86714613D01*
X142751607Y-86745931D01*
X142761915Y-86779909D01*
X142766000Y-86821390D01*
X142766000Y-87422610D01*
X142761915Y-87464091D01*
X142751607Y-87498069D01*
X142734867Y-87529387D01*
X142712339Y-87556839D01*
X142684887Y-87579367D01*
X142653569Y-87596107D01*
X142619591Y-87606415D01*
X142578110Y-87610500D01*
X141901890Y-87610500D01*
X141860409Y-87606415D01*
X141826431Y-87596107D01*
X141795113Y-87579367D01*
X141767661Y-87556839D01*
X141745133Y-87529387D01*
X141728393Y-87498069D01*
X141718085Y-87464091D01*
X141714000Y-87422610D01*
X141714000Y-86821390D01*
X141718085Y-86779909D01*
X141728393Y-86745931D01*
X141745133Y-86714613D01*
X141767661Y-86687161D01*
X141795113Y-86664633D01*
X141826431Y-86647893D01*
X141860409Y-86637585D01*
X141901890Y-86633500D01*
X142578110Y-86633500D01*
X142619591Y-86637585D01*
X142619591Y-86637585D01*
G37*
G36*
X142619591Y-85062585D02*
X142653569Y-85072893D01*
X142684887Y-85089633D01*
X142712339Y-85112161D01*
X142734867Y-85139613D01*
X142751607Y-85170931D01*
X142761915Y-85204909D01*
X142766000Y-85246390D01*
X142766000Y-85847610D01*
X142761915Y-85889091D01*
X142751607Y-85923069D01*
X142734867Y-85954387D01*
X142712339Y-85981839D01*
X142684887Y-86004367D01*
X142653569Y-86021107D01*
X142619591Y-86031415D01*
X142578110Y-86035500D01*
X141901890Y-86035500D01*
X141860409Y-86031415D01*
X141826431Y-86021107D01*
X141795113Y-86004367D01*
X141767661Y-85981839D01*
X141745133Y-85954387D01*
X141728393Y-85923069D01*
X141718085Y-85889091D01*
X141714000Y-85847610D01*
X141714000Y-85246390D01*
X141718085Y-85204909D01*
X141728393Y-85170931D01*
X141745133Y-85139613D01*
X141767661Y-85112161D01*
X141795113Y-85089633D01*
X141826431Y-85072893D01*
X141860409Y-85062585D01*
X141901890Y-85058500D01*
X142578110Y-85058500D01*
X142619591Y-85062585D01*
X142619591Y-85062585D01*
G37*
G36*
X158535000Y-85395000D02*
X154369000Y-85395000D01*
X154369000Y-83769000D01*
X158535000Y-83769000D01*
X158535000Y-85395000D01*
X158535000Y-85395000D01*
G37*
G36*
X135179000Y-85395000D02*
X131013000Y-85395000D01*
X131013000Y-83769000D01*
X135179000Y-83769000D01*
X135179000Y-85395000D01*
X135179000Y-85395000D01*
G37*
G36*
X143015562Y-82044681D02*
X143050477Y-82055273D01*
X143082665Y-82072478D01*
X143110873Y-82095627D01*
X143134022Y-82123835D01*
X143151227Y-82156023D01*
X143161819Y-82190938D01*
X143166000Y-82233395D01*
X143166000Y-83374605D01*
X143161819Y-83417062D01*
X143151227Y-83451977D01*
X143134022Y-83484165D01*
X143110873Y-83512373D01*
X143082665Y-83535522D01*
X143050477Y-83552727D01*
X143015562Y-83563319D01*
X142973105Y-83567500D01*
X141506895Y-83567500D01*
X141464438Y-83563319D01*
X141429523Y-83552727D01*
X141397335Y-83535522D01*
X141369127Y-83512373D01*
X141345978Y-83484165D01*
X141328773Y-83451977D01*
X141318181Y-83417062D01*
X141314000Y-83374605D01*
X141314000Y-82233395D01*
X141318181Y-82190938D01*
X141328773Y-82156023D01*
X141345978Y-82123835D01*
X141369127Y-82095627D01*
X141397335Y-82072478D01*
X141429523Y-82055273D01*
X141464438Y-82044681D01*
X141506895Y-82040500D01*
X142973105Y-82040500D01*
X143015562Y-82044681D01*
X143015562Y-82044681D01*
G37*
G36*
X139198604Y-81116347D02*
X139235145Y-81127432D01*
X139268820Y-81145431D01*
X139298341Y-81169659D01*
X139322569Y-81199180D01*
X139340568Y-81232855D01*
X139351653Y-81269396D01*
X139356000Y-81313538D01*
X139356000Y-82262462D01*
X139351653Y-82306604D01*
X139340568Y-82343145D01*
X139322569Y-82376820D01*
X139298341Y-82406341D01*
X139268820Y-82430569D01*
X139235145Y-82448568D01*
X139198604Y-82459653D01*
X139154462Y-82464000D01*
X137705538Y-82464000D01*
X137661396Y-82459653D01*
X137624855Y-82448568D01*
X137591180Y-82430569D01*
X137561659Y-82406341D01*
X137537431Y-82376820D01*
X137519432Y-82343145D01*
X137508347Y-82306604D01*
X137504000Y-82262462D01*
X137504000Y-81313538D01*
X137508347Y-81269396D01*
X137519432Y-81232855D01*
X137537431Y-81199180D01*
X137561659Y-81169659D01*
X137591180Y-81145431D01*
X137624855Y-81127432D01*
X137661396Y-81116347D01*
X137705538Y-81112000D01*
X139154462Y-81112000D01*
X139198604Y-81116347D01*
X139198604Y-81116347D01*
G37*
G36*
X145151966Y-80533565D02*
X145190637Y-80545296D01*
X145226279Y-80564348D01*
X145257517Y-80589983D01*
X145283152Y-80621221D01*
X145302204Y-80656863D01*
X145313935Y-80695534D01*
X145318500Y-80741888D01*
X145318500Y-81818112D01*
X145313935Y-81864466D01*
X145302204Y-81903137D01*
X145283152Y-81938779D01*
X145257517Y-81970017D01*
X145226279Y-81995652D01*
X145190637Y-82014704D01*
X145151966Y-82026435D01*
X145105612Y-82031000D01*
X144454388Y-82031000D01*
X144408034Y-82026435D01*
X144369363Y-82014704D01*
X144333721Y-81995652D01*
X144302483Y-81970017D01*
X144276848Y-81938779D01*
X144257796Y-81903137D01*
X144246065Y-81864466D01*
X144241500Y-81818112D01*
X144241500Y-80741888D01*
X144246065Y-80695534D01*
X144257796Y-80656863D01*
X144276848Y-80621221D01*
X144302483Y-80589983D01*
X144333721Y-80564348D01*
X144369363Y-80545296D01*
X144408034Y-80533565D01*
X144454388Y-80529000D01*
X145105612Y-80529000D01*
X145151966Y-80533565D01*
X145151966Y-80533565D01*
G37*
G36*
X147026966Y-80533565D02*
X147065637Y-80545296D01*
X147101279Y-80564348D01*
X147132517Y-80589983D01*
X147158152Y-80621221D01*
X147177204Y-80656863D01*
X147188935Y-80695534D01*
X147193500Y-80741888D01*
X147193500Y-81818112D01*
X147188935Y-81864466D01*
X147177204Y-81903137D01*
X147158152Y-81938779D01*
X147132517Y-81970017D01*
X147101279Y-81995652D01*
X147065637Y-82014704D01*
X147026966Y-82026435D01*
X146980612Y-82031000D01*
X146329388Y-82031000D01*
X146283034Y-82026435D01*
X146244363Y-82014704D01*
X146208721Y-81995652D01*
X146177483Y-81970017D01*
X146151848Y-81938779D01*
X146132796Y-81903137D01*
X146121065Y-81864466D01*
X146116500Y-81818112D01*
X146116500Y-80741888D01*
X146121065Y-80695534D01*
X146132796Y-80656863D01*
X146151848Y-80621221D01*
X146177483Y-80589983D01*
X146208721Y-80564348D01*
X146244363Y-80545296D01*
X146283034Y-80533565D01*
X146329388Y-80529000D01*
X146980612Y-80529000D01*
X147026966Y-80533565D01*
X147026966Y-80533565D01*
G37*
G36*
X143015562Y-79069681D02*
X143050477Y-79080273D01*
X143082665Y-79097478D01*
X143110873Y-79120627D01*
X143134022Y-79148835D01*
X143151227Y-79181023D01*
X143161819Y-79215938D01*
X143166000Y-79258395D01*
X143166000Y-80399605D01*
X143161819Y-80442062D01*
X143151227Y-80476977D01*
X143134022Y-80509165D01*
X143110873Y-80537373D01*
X143082665Y-80560522D01*
X143050477Y-80577727D01*
X143015562Y-80588319D01*
X142973105Y-80592500D01*
X141506895Y-80592500D01*
X141464438Y-80588319D01*
X141429523Y-80577727D01*
X141397335Y-80560522D01*
X141369127Y-80537373D01*
X141345978Y-80509165D01*
X141328773Y-80476977D01*
X141318181Y-80442062D01*
X141314000Y-80399605D01*
X141314000Y-79258395D01*
X141318181Y-79215938D01*
X141328773Y-79181023D01*
X141345978Y-79148835D01*
X141369127Y-79120627D01*
X141397335Y-79097478D01*
X141429523Y-79080273D01*
X141464438Y-79069681D01*
X141506895Y-79065500D01*
X142973105Y-79065500D01*
X143015562Y-79069681D01*
X143015562Y-79069681D01*
G37*
G36*
X139198604Y-78316347D02*
X139235145Y-78327432D01*
X139268820Y-78345431D01*
X139298341Y-78369659D01*
X139322569Y-78399180D01*
X139340568Y-78432855D01*
X139351653Y-78469396D01*
X139356000Y-78513538D01*
X139356000Y-79462462D01*
X139351653Y-79506604D01*
X139340568Y-79543145D01*
X139322569Y-79576820D01*
X139298341Y-79606341D01*
X139268820Y-79630569D01*
X139235145Y-79648568D01*
X139198604Y-79659653D01*
X139154462Y-79664000D01*
X137705538Y-79664000D01*
X137661396Y-79659653D01*
X137624855Y-79648568D01*
X137591180Y-79630569D01*
X137561659Y-79606341D01*
X137537431Y-79576820D01*
X137519432Y-79543145D01*
X137508347Y-79506604D01*
X137504000Y-79462462D01*
X137504000Y-78513538D01*
X137508347Y-78469396D01*
X137519432Y-78432855D01*
X137537431Y-78399180D01*
X137561659Y-78369659D01*
X137591180Y-78345431D01*
X137624855Y-78327432D01*
X137661396Y-78316347D01*
X137705538Y-78312000D01*
X139154462Y-78312000D01*
X139198604Y-78316347D01*
X139198604Y-78316347D01*
G37*
G36*
X149936466Y-76682065D02*
X149975137Y-76693796D01*
X150010779Y-76712848D01*
X150042017Y-76738483D01*
X150067652Y-76769721D01*
X150086704Y-76805363D01*
X150098435Y-76844034D01*
X150103000Y-76890388D01*
X150103000Y-77541612D01*
X150098435Y-77587966D01*
X150086704Y-77626637D01*
X150067652Y-77662279D01*
X150042017Y-77693517D01*
X150010779Y-77719152D01*
X149975137Y-77738204D01*
X149936466Y-77749935D01*
X149890112Y-77754500D01*
X148813888Y-77754500D01*
X148767534Y-77749935D01*
X148728863Y-77738204D01*
X148693221Y-77719152D01*
X148661983Y-77693517D01*
X148636348Y-77662279D01*
X148617296Y-77626637D01*
X148605565Y-77587966D01*
X148601000Y-77541612D01*
X148601000Y-76890388D01*
X148605565Y-76844034D01*
X148617296Y-76805363D01*
X148636348Y-76769721D01*
X148661983Y-76738483D01*
X148693221Y-76712848D01*
X148728863Y-76693796D01*
X148767534Y-76682065D01*
X148813888Y-76677500D01*
X149890112Y-76677500D01*
X149936466Y-76682065D01*
X149936466Y-76682065D01*
G37*
G36*
X142531782Y-74199295D02*
X142567815Y-74210226D01*
X142601028Y-74227979D01*
X142630134Y-74251866D01*
X142654021Y-74280972D01*
X142671774Y-74314185D01*
X142682705Y-74350218D01*
X142687000Y-74393830D01*
X142687000Y-77498170D01*
X142682705Y-77541782D01*
X142671774Y-77577815D01*
X142654021Y-77611028D01*
X142630134Y-77640134D01*
X142601028Y-77664021D01*
X142567815Y-77681774D01*
X142531782Y-77692705D01*
X142488170Y-77697000D01*
X141483830Y-77697000D01*
X141440218Y-77692705D01*
X141404185Y-77681774D01*
X141370972Y-77664021D01*
X141341866Y-77640134D01*
X141317979Y-77611028D01*
X141300226Y-77577815D01*
X141289295Y-77541782D01*
X141285000Y-77498170D01*
X141285000Y-74393830D01*
X141289295Y-74350218D01*
X141300226Y-74314185D01*
X141317979Y-74280972D01*
X141341866Y-74251866D01*
X141370972Y-74227979D01*
X141404185Y-74210226D01*
X141440218Y-74199295D01*
X141483830Y-74195000D01*
X142488170Y-74195000D01*
X142531782Y-74199295D01*
X142531782Y-74199295D01*
G37*
G36*
X146981782Y-74199295D02*
X147017815Y-74210226D01*
X147051028Y-74227979D01*
X147080134Y-74251866D01*
X147104021Y-74280972D01*
X147121774Y-74314185D01*
X147132705Y-74350218D01*
X147137000Y-74393830D01*
X147137000Y-77498170D01*
X147132705Y-77541782D01*
X147121774Y-77577815D01*
X147104021Y-77611028D01*
X147080134Y-77640134D01*
X147051028Y-77664021D01*
X147017815Y-77681774D01*
X146981782Y-77692705D01*
X146938170Y-77697000D01*
X145933830Y-77697000D01*
X145890218Y-77692705D01*
X145854185Y-77681774D01*
X145820972Y-77664021D01*
X145791866Y-77640134D01*
X145767979Y-77611028D01*
X145750226Y-77577815D01*
X145739295Y-77541782D01*
X145735000Y-77498170D01*
X145735000Y-74393830D01*
X145739295Y-74350218D01*
X145750226Y-74314185D01*
X145767979Y-74280972D01*
X145791866Y-74251866D01*
X145820972Y-74227979D01*
X145854185Y-74210226D01*
X145890218Y-74199295D01*
X145933830Y-74195000D01*
X146938170Y-74195000D01*
X146981782Y-74199295D01*
X146981782Y-74199295D01*
G37*
G36*
X139817966Y-74945565D02*
X139856637Y-74957296D01*
X139892279Y-74976348D01*
X139923517Y-75001983D01*
X139949152Y-75033221D01*
X139968204Y-75068863D01*
X139979935Y-75107534D01*
X139984500Y-75153888D01*
X139984500Y-76230112D01*
X139979935Y-76276466D01*
X139968204Y-76315137D01*
X139949152Y-76350779D01*
X139923517Y-76382017D01*
X139892279Y-76407652D01*
X139856637Y-76426704D01*
X139817966Y-76438435D01*
X139771612Y-76443000D01*
X139120388Y-76443000D01*
X139074034Y-76438435D01*
X139035363Y-76426704D01*
X138999721Y-76407652D01*
X138968483Y-76382017D01*
X138942848Y-76350779D01*
X138923796Y-76315137D01*
X138912065Y-76276466D01*
X138907500Y-76230112D01*
X138907500Y-75153888D01*
X138912065Y-75107534D01*
X138923796Y-75068863D01*
X138942848Y-75033221D01*
X138968483Y-75001983D01*
X138999721Y-74976348D01*
X139035363Y-74957296D01*
X139074034Y-74945565D01*
X139120388Y-74941000D01*
X139771612Y-74941000D01*
X139817966Y-74945565D01*
X139817966Y-74945565D01*
G37*
G36*
X137942966Y-74945565D02*
X137981637Y-74957296D01*
X138017279Y-74976348D01*
X138048517Y-75001983D01*
X138074152Y-75033221D01*
X138093204Y-75068863D01*
X138104935Y-75107534D01*
X138109500Y-75153888D01*
X138109500Y-76230112D01*
X138104935Y-76276466D01*
X138093204Y-76315137D01*
X138074152Y-76350779D01*
X138048517Y-76382017D01*
X138017279Y-76407652D01*
X137981637Y-76426704D01*
X137942966Y-76438435D01*
X137896612Y-76443000D01*
X137245388Y-76443000D01*
X137199034Y-76438435D01*
X137160363Y-76426704D01*
X137124721Y-76407652D01*
X137093483Y-76382017D01*
X137067848Y-76350779D01*
X137048796Y-76315137D01*
X137037065Y-76276466D01*
X137032500Y-76230112D01*
X137032500Y-75153888D01*
X137037065Y-75107534D01*
X137048796Y-75068863D01*
X137067848Y-75033221D01*
X137093483Y-75001983D01*
X137124721Y-74976348D01*
X137160363Y-74957296D01*
X137199034Y-74945565D01*
X137245388Y-74941000D01*
X137896612Y-74941000D01*
X137942966Y-74945565D01*
X137942966Y-74945565D01*
G37*
G36*
X149936466Y-74807065D02*
X149975137Y-74818796D01*
X150010779Y-74837848D01*
X150042017Y-74863483D01*
X150067652Y-74894721D01*
X150086704Y-74930363D01*
X150098435Y-74969034D01*
X150103000Y-75015388D01*
X150103000Y-75666612D01*
X150098435Y-75712966D01*
X150086704Y-75751637D01*
X150067652Y-75787279D01*
X150042017Y-75818517D01*
X150010779Y-75844152D01*
X149975137Y-75863204D01*
X149936466Y-75874935D01*
X149890112Y-75879500D01*
X148813888Y-75879500D01*
X148767534Y-75874935D01*
X148728863Y-75863204D01*
X148693221Y-75844152D01*
X148661983Y-75818517D01*
X148636348Y-75787279D01*
X148617296Y-75751637D01*
X148605565Y-75712966D01*
X148601000Y-75666612D01*
X148601000Y-75015388D01*
X148605565Y-74969034D01*
X148617296Y-74930363D01*
X148636348Y-74894721D01*
X148661983Y-74863483D01*
X148693221Y-74837848D01*
X148728863Y-74818796D01*
X148767534Y-74807065D01*
X148813888Y-74802500D01*
X149890112Y-74802500D01*
X149936466Y-74807065D01*
X149936466Y-74807065D01*
G37*
G36*
X146314604Y-71468347D02*
X146351145Y-71479432D01*
X146384820Y-71497431D01*
X146414341Y-71521659D01*
X146438569Y-71551180D01*
X146456568Y-71584855D01*
X146467653Y-71621396D01*
X146472000Y-71665538D01*
X146472000Y-73114462D01*
X146467653Y-73158604D01*
X146456568Y-73195145D01*
X146438569Y-73228820D01*
X146414341Y-73258341D01*
X146384820Y-73282569D01*
X146351145Y-73300568D01*
X146314604Y-73311653D01*
X146270462Y-73316000D01*
X145321538Y-73316000D01*
X145277396Y-73311653D01*
X145240855Y-73300568D01*
X145207180Y-73282569D01*
X145177659Y-73258341D01*
X145153431Y-73228820D01*
X145135432Y-73195145D01*
X145124347Y-73158604D01*
X145120000Y-73114462D01*
X145120000Y-71665538D01*
X145124347Y-71621396D01*
X145135432Y-71584855D01*
X145153431Y-71551180D01*
X145177659Y-71521659D01*
X145207180Y-71497431D01*
X145240855Y-71479432D01*
X145277396Y-71468347D01*
X145321538Y-71464000D01*
X146270462Y-71464000D01*
X146314604Y-71468347D01*
X146314604Y-71468347D01*
G37*
G36*
X143514604Y-71468347D02*
X143551145Y-71479432D01*
X143584820Y-71497431D01*
X143614341Y-71521659D01*
X143638569Y-71551180D01*
X143656568Y-71584855D01*
X143667653Y-71621396D01*
X143672000Y-71665538D01*
X143672000Y-73114462D01*
X143667653Y-73158604D01*
X143656568Y-73195145D01*
X143638569Y-73228820D01*
X143614341Y-73258341D01*
X143584820Y-73282569D01*
X143551145Y-73300568D01*
X143514604Y-73311653D01*
X143470462Y-73316000D01*
X142521538Y-73316000D01*
X142477396Y-73311653D01*
X142440855Y-73300568D01*
X142407180Y-73282569D01*
X142377659Y-73258341D01*
X142353431Y-73228820D01*
X142335432Y-73195145D01*
X142324347Y-73158604D01*
X142320000Y-73114462D01*
X142320000Y-71665538D01*
X142324347Y-71621396D01*
X142335432Y-71584855D01*
X142353431Y-71551180D01*
X142377659Y-71521659D01*
X142407180Y-71497431D01*
X142440855Y-71479432D01*
X142477396Y-71468347D01*
X142521538Y-71464000D01*
X143470462Y-71464000D01*
X143514604Y-71468347D01*
X143514604Y-71468347D01*
G37*
G36*
X154217000Y-73191000D02*
X152615000Y-73191000D01*
X152615000Y-71589000D01*
X154217000Y-71589000D01*
X154217000Y-73191000D01*
X154217000Y-73191000D01*
G37*
G36*
X150915000Y-73191000D02*
X149313000Y-73191000D01*
X149313000Y-71589000D01*
X150915000Y-71589000D01*
X150915000Y-73191000D01*
X150915000Y-73191000D01*
G37*
M02*
