G04 #@! TF.GenerationSoftware,KiCad,Pcbnew,5.0.1*
G04 #@! TF.CreationDate,2018-12-16T16:31:13+01:00*
G04 #@! TF.ProjectId,SMAadapter,534D41616461707465722E6B69636164,rev?*
G04 #@! TF.SameCoordinates,PX74c1a60PY7a15e80*
G04 #@! TF.FileFunction,Copper,L2,Bot,Signal*
G04 #@! TF.FilePolarity,Positive*
%FSLAX46Y46*%
G04 Gerber Fmt 4.6, Leading zero omitted, Abs format (unit mm)*
G04 Created by KiCad (PCBNEW 5.0.1) date So 16 Dez 2018 16:31:13 CET*
%MOMM*%
%LPD*%
G01*
G04 APERTURE LIST*
G04 #@! TA.AperFunction,SMDPad,CuDef*
%ADD10R,4.064000X1.524000*%
G04 #@! TD*
G04 #@! TA.AperFunction,ViaPad*
%ADD11C,0.609600*%
G04 #@! TD*
G04 #@! TA.AperFunction,Conductor*
%ADD12C,0.203200*%
G04 #@! TD*
G04 #@! TA.AperFunction,Conductor*
%ADD13C,0.254000*%
G04 #@! TD*
G04 APERTURE END LIST*
D10*
G04 #@! TO.P,J1,2*
G04 #@! TO.N,GND*
X2028000Y1778000D03*
X2028000Y6858000D03*
G04 #@! TD*
D11*
G04 #@! TO.N,GND*
X5588000Y1524000D03*
X7620000Y1524000D03*
X9652000Y1524000D03*
X11684000Y1524000D03*
X14224000Y1524000D03*
X16256000Y1524000D03*
X16256000Y3048000D03*
X16256000Y4572000D03*
X16256000Y6604000D03*
X14732000Y6604000D03*
X12192000Y6604000D03*
X10160000Y6604000D03*
X8636000Y6604000D03*
X6604000Y6604000D03*
X5080000Y6604000D03*
G04 #@! TD*
D12*
G04 #@! TO.N,GND*
X5588000Y1524000D02*
X7620000Y1524000D01*
X9652000Y1524000D02*
X11684000Y1524000D01*
X14224000Y1524000D02*
X16256000Y1524000D01*
X16256000Y4572000D02*
X16256000Y6604000D01*
X14732000Y6604000D02*
X12192000Y6604000D01*
X10160000Y6604000D02*
X8636000Y6604000D01*
X6604000Y6604000D02*
X5080000Y6604000D01*
G04 #@! TD*
D13*
G04 #@! TO.N,GND*
G36*
X17070001Y710000D02*
X4620570Y710000D01*
X4695000Y889690D01*
X4695000Y1492250D01*
X4536250Y1651000D01*
X2155000Y1651000D01*
X2155000Y1631000D01*
X1901000Y1631000D01*
X1901000Y1651000D01*
X1881000Y1651000D01*
X1881000Y1905000D01*
X1901000Y1905000D01*
X1901000Y3016250D01*
X2155000Y3016250D01*
X2155000Y1905000D01*
X4536250Y1905000D01*
X4695000Y2063750D01*
X4695000Y2666310D01*
X4598327Y2899699D01*
X4419698Y3078327D01*
X4186309Y3175000D01*
X2313750Y3175000D01*
X2155000Y3016250D01*
X1901000Y3016250D01*
X1742250Y3175000D01*
X710000Y3175000D01*
X710000Y5461000D01*
X1742250Y5461000D01*
X1901000Y5619750D01*
X1901000Y6731000D01*
X2155000Y6731000D01*
X2155000Y5619750D01*
X2313750Y5461000D01*
X4186309Y5461000D01*
X4419698Y5557673D01*
X4598327Y5736301D01*
X4695000Y5969690D01*
X4695000Y6572250D01*
X4536250Y6731000D01*
X2155000Y6731000D01*
X1901000Y6731000D01*
X1881000Y6731000D01*
X1881000Y6985000D01*
X1901000Y6985000D01*
X1901000Y7005000D01*
X2155000Y7005000D01*
X2155000Y6985000D01*
X4536250Y6985000D01*
X4695000Y7143750D01*
X4695000Y7746310D01*
X4620570Y7926000D01*
X17070000Y7926000D01*
X17070001Y710000D01*
X17070001Y710000D01*
G37*
X17070001Y710000D02*
X4620570Y710000D01*
X4695000Y889690D01*
X4695000Y1492250D01*
X4536250Y1651000D01*
X2155000Y1651000D01*
X2155000Y1631000D01*
X1901000Y1631000D01*
X1901000Y1651000D01*
X1881000Y1651000D01*
X1881000Y1905000D01*
X1901000Y1905000D01*
X1901000Y3016250D01*
X2155000Y3016250D01*
X2155000Y1905000D01*
X4536250Y1905000D01*
X4695000Y2063750D01*
X4695000Y2666310D01*
X4598327Y2899699D01*
X4419698Y3078327D01*
X4186309Y3175000D01*
X2313750Y3175000D01*
X2155000Y3016250D01*
X1901000Y3016250D01*
X1742250Y3175000D01*
X710000Y3175000D01*
X710000Y5461000D01*
X1742250Y5461000D01*
X1901000Y5619750D01*
X1901000Y6731000D01*
X2155000Y6731000D01*
X2155000Y5619750D01*
X2313750Y5461000D01*
X4186309Y5461000D01*
X4419698Y5557673D01*
X4598327Y5736301D01*
X4695000Y5969690D01*
X4695000Y6572250D01*
X4536250Y6731000D01*
X2155000Y6731000D01*
X1901000Y6731000D01*
X1881000Y6731000D01*
X1881000Y6985000D01*
X1901000Y6985000D01*
X1901000Y7005000D01*
X2155000Y7005000D01*
X2155000Y6985000D01*
X4536250Y6985000D01*
X4695000Y7143750D01*
X4695000Y7746310D01*
X4620570Y7926000D01*
X17070000Y7926000D01*
X17070001Y710000D01*
G04 #@! TD*
M02*
